<?xml version="1.0" encoding="UTF-8"?>
<svg xmlns="http://www.w3.org/2000/svg" xmlns:xlink="http://www.w3.org/1999/xlink" width="309.75pt" height="159pt" viewBox="0 0 309.75 159" version="1.1">
<g id="surface1">
<path style="fill:none;stroke-width:2.26;stroke-linecap:round;stroke-linejoin:round;stroke:rgb(0%,0%,0%);stroke-opacity:1;stroke-miterlimit:10;" d="M 7.300781 144.96875 L 7.300781 142.203125 L 7.390625 140.617188 L 7.300781 139.125 L 7.121094 135.875 L 6.941406 134.511719 L 6.761719 132.839844 L 6.671875 131.347656 L 6.582031 130.117188 L 6.582031 129.367188 " transform="matrix(1,0,0,-1,0,159)"/>
<path style="fill:none;stroke-width:2.26;stroke-linecap:round;stroke-linejoin:round;stroke:rgb(0%,0%,0%);stroke-opacity:1;stroke-miterlimit:10;" d="M 7.75 145.585938 L 7.839844 146.289062 L 8.558594 146.902344 L 9.816406 147.296875 L 11.164062 147.386719 L 12.421875 147.210938 L 13.410156 146.859375 L 13.949219 146.421875 L 14.488281 145.890625 L 14.847656 145.277344 L 14.9375 143.914062 L 14.757812 142.597656 L 14.308594 141.234375 L 13.679688 139.960938 L 12.871094 139.433594 L 12.0625 138.992188 L 11.074219 138.640625 L 10.265625 138.421875 L 9.457031 138.464844 L 8.738281 138.640625 L 8.199219 139.082031 L 8.019531 139.785156 " transform="matrix(1,0,0,-1,0,159)"/>
<path style="fill:none;stroke-width:2.26;stroke-linecap:round;stroke-linejoin:round;stroke:rgb(0%,0%,0%);stroke-opacity:1;stroke-miterlimit:10;" d="M 19.25 148.046875 L 19.878906 148.484375 L 20.507812 148.75 L 21.316406 148.835938 L 22.125 148.351562 L 22.753906 147.253906 L 23.113281 145.539062 L 23.472656 143.257812 L 23.5625 141.191406 L 23.472656 139.695312 L 23.382812 139.167969 L 23.382812 139.609375 L 23.203125 140.53125 L 22.84375 141.585938 L 22.214844 142.507812 L 21.316406 142.949219 L 20.238281 142.683594 L 19.429688 141.71875 L 18.890625 140.3125 L 19.160156 138.859375 L 20.148438 137.804688 L 21.316406 137.367188 L 22.484375 137.367188 L 23.382812 137.761719 L 24.101562 138.421875 " transform="matrix(1,0,0,-1,0,159)"/>
<path style="fill:none;stroke-width:2.26;stroke-linecap:round;stroke-linejoin:round;stroke:rgb(0%,0%,0%);stroke-opacity:1;stroke-miterlimit:10;" d="M 32.546875 143.914062 L 32.277344 144.398438 L 32.1875 145.015625 L 32.007812 145.496094 L 31.828125 146.15625 L 31.648438 146.59375 L 31.46875 146.902344 L 31.378906 147.167969 L 31.109375 147.386719 L 30.929688 147.605469 L 30.660156 147.695312 L 30.121094 147.605469 L 29.3125 146.902344 L 28.414062 145.671875 L 27.695312 143.695312 L 27.515625 141.234375 L 28.144531 139.210938 L 29.492188 138.027344 L 31.109375 137.9375 L 32.636719 138.554688 L 33.894531 139.785156 " transform="matrix(1,0,0,-1,0,159)"/>
<path style="fill:none;stroke-width:2.26;stroke-linecap:round;stroke-linejoin:round;stroke:rgb(0%,0%,0%);stroke-opacity:1;stroke-miterlimit:10;" d="M 37.21875 152.660156 L 37.039062 152.308594 L 37.039062 150.242188 L 37.128906 148.308594 L 36.949219 145.058594 L 36.949219 141.804688 L 36.859375 139.125 L 36.769531 137.28125 " transform="matrix(1,0,0,-1,0,159)"/>
<path style="fill:none;stroke-width:2.26;stroke-linecap:round;stroke-linejoin:round;stroke:rgb(0%,0%,0%);stroke-opacity:1;stroke-miterlimit:10;" d="M 37.578125 140.617188 L 38.386719 140.398438 L 39.375 139.742188 L 40.542969 138.730469 L 41.621094 137.585938 L 42.25 136.882812 " transform="matrix(1,0,0,-1,0,159)"/>
<path style="fill:none;stroke-width:2.26;stroke-linecap:round;stroke-linejoin:round;stroke:rgb(0%,0%,0%);stroke-opacity:1;stroke-miterlimit:10;" d="M 43.417969 146.859375 L 43.058594 147.34375 L 42.429688 146.859375 L 41.441406 145.71875 L 40.09375 144.179688 L 38.925781 142.597656 L 38.296875 141.453125 " transform="matrix(1,0,0,-1,0,159)"/>
<path style="fill:none;stroke-width:2.26;stroke-linecap:round;stroke-linejoin:round;stroke:rgb(0%,0%,0%);stroke-opacity:1;stroke-miterlimit:10;" d="M 46.742188 144.089844 L 46.292969 144.574219 L 46.203125 145.058594 L 46.203125 145.671875 L 46.472656 146.199219 L 46.832031 146.726562 L 47.28125 147.125 L 47.640625 147.210938 L 48.269531 147.125 L 48.988281 146.375 L 49.707031 145.015625 L 50.335938 142.816406 L 50.785156 140.488281 L 50.875 138.640625 L 50.964844 137.71875 L 50.875 138.640625 L 50.425781 139.828125 L 49.527344 140.796875 L 48.359375 141.320312 L 46.921875 141.101562 L 45.753906 140.136719 L 45.035156 138.773438 L 45.214844 137.367188 L 46.203125 136.53125 L 47.640625 136.355469 L 49.078125 136.621094 L 50.425781 137.28125 " transform="matrix(1,0,0,-1,0,159)"/>
<path style="fill:none;stroke-width:2.26;stroke-linecap:round;stroke-linejoin:round;stroke:rgb(0%,0%,0%);stroke-opacity:1;stroke-miterlimit:10;" d="M 56.894531 144.179688 L 56.714844 145.320312 L 56.625 145.9375 L 56.355469 146.289062 L 55.90625 146.242188 L 55.277344 145.585938 L 54.558594 144.3125 L 54.019531 142.90625 L 53.839844 141.71875 L 53.839844 140.796875 L 54.019531 140.222656 L 54.648438 139.5625 L 55.546875 139.257812 L 56.714844 139.390625 L 57.882812 139.871094 L 58.601562 140.75 L 58.960938 141.5 L 59.050781 142.070312 L 58.871094 142.773438 L 58.691406 143.5625 L 58.421875 144.222656 L 58.242188 144.574219 L 58.332031 143.652344 L 58.511719 142.726562 L 58.960938 140.96875 L 59.589844 138.246094 L 60.308594 135.34375 L 60.9375 132.179688 L 60.757812 129.71875 L 59.769531 128.183594 L 58.242188 127.390625 L 56.445312 127.214844 L 55.007812 127.523438 L 53.929688 128.09375 L 53.570312 129.367188 " transform="matrix(1,0,0,-1,0,159)"/>
<path style="fill:none;stroke-width:2.26;stroke-linecap:round;stroke-linejoin:round;stroke:rgb(0%,0%,0%);stroke-opacity:1;stroke-miterlimit:10;" d="M 63.902344 141.191406 L 64.980469 141.277344 L 66.238281 141.585938 L 67.585938 142.246094 L 68.574219 143.210938 L 68.933594 144.179688 L 68.753906 145.1875 L 68.125 146.113281 L 66.957031 146.464844 L 65.609375 146.421875 L 64.441406 145.539062 L 63.453125 143.78125 L 63.183594 141.71875 L 63.542969 139.652344 L 64.800781 137.851562 L 66.6875 136.882812 L 68.753906 136.578125 L 70.640625 136.707031 L 71.898438 137.101562 L 72.617188 137.5 L 73.066406 137.804688 " transform="matrix(1,0,0,-1,0,159)"/>
<path style="fill:none;stroke-width:1.41;stroke-linecap:round;stroke-linejoin:round;stroke:rgb(0%,0%,0%);stroke-opacity:1;stroke-miterlimit:10;" d="M 91.035156 142.992188 L 91.125 142.683594 L 91.304688 141.367188 L 91.664062 138.464844 L 92.023438 135.125 L 92.203125 132.09375 L 92.382812 130.027344 L 92.472656 129.414062 " transform="matrix(1,0,0,-1,0,159)"/>
<path style="fill:none;stroke-width:1.41;stroke-linecap:round;stroke-linejoin:round;stroke:rgb(0%,0%,0%);stroke-opacity:1;stroke-miterlimit:10;" d="M 91.214844 142.597656 L 91.214844 143.078125 L 91.484375 143.871094 L 92.113281 144.53125 L 93.28125 144.835938 L 94.71875 144.75 L 96.066406 143.78125 L 96.875 142.332031 L 96.875 140.617188 L 95.707031 138.859375 L 93.910156 137.675781 L 92.292969 136.929688 L 91.035156 136.75 L 90.585938 136.839844 L 90.675781 137.058594 " transform="matrix(1,0,0,-1,0,159)"/>
<path style="fill:none;stroke-width:1.41;stroke-linecap:round;stroke-linejoin:round;stroke:rgb(0%,0%,0%);stroke-opacity:1;stroke-miterlimit:10;" d="M 100.828125 140.796875 L 101.816406 140.839844 L 102.894531 140.96875 L 104.152344 141.058594 L 105.050781 141.101562 L 105.410156 141.191406 L 105.140625 141.367188 " transform="matrix(1,0,0,-1,0,159)"/>
<path style="fill:none;stroke-width:1.41;stroke-linecap:round;stroke-linejoin:round;stroke:rgb(0%,0%,0%);stroke-opacity:1;stroke-miterlimit:10;" d="M 112.238281 147.429688 L 112.148438 147.738281 L 111.609375 147.5625 L 110.980469 147.210938 L 110.261719 146.242188 L 109.542969 144.882812 L 109.09375 143.429688 L 108.824219 141.894531 L 108.734375 140.707031 L 108.824219 139.828125 L 109.003906 138.859375 L 109.542969 138.027344 L 110.53125 137.367188 L 112.148438 136.972656 L 113.855469 136.972656 L 115.292969 137.28125 L 116.371094 137.761719 L 116.820312 138.246094 L 117.089844 138.6875 L 117.269531 139.34375 L 117.269531 140.222656 L 117.089844 141.761719 L 116.460938 143.519531 L 115.5625 145.144531 L 114.574219 146.421875 L 113.765625 146.902344 L 113.226562 147.035156 L 112.867188 146.902344 L 112.6875 146.640625 " transform="matrix(1,0,0,-1,0,159)"/>
<path style="fill:none;stroke-width:1.41;stroke-linecap:round;stroke-linejoin:round;stroke:rgb(0%,0%,0%);stroke-opacity:1;stroke-miterlimit:10;" d="M 108.464844 135.34375 L 108.644531 135.742188 L 109.09375 136.488281 L 109.722656 137.5 L 111.519531 139.960938 L 115.652344 145.585938 L 117.71875 148.308594 L 118.527344 149.320312 L 118.796875 149.539062 L 118.707031 148.835938 " transform="matrix(1,0,0,-1,0,159)"/>
<path style="fill:none;stroke-width:1.41;stroke-linecap:round;stroke-linejoin:round;stroke:rgb(0%,0%,0%);stroke-opacity:1;stroke-miterlimit:10;" d="M 122.210938 138.6875 L 121.941406 138.554688 L 122.03125 138.859375 L 122.300781 138.859375 L 122.480469 138.464844 L 122.570312 138.027344 L 122.570312 137.542969 L 122.480469 137.234375 L 122.121094 137.324219 L 122.03125 137.542969 L 121.851562 137.894531 L 121.851562 138.335938 L 121.941406 138.816406 " transform="matrix(1,0,0,-1,0,159)"/>
<path style="fill:none;stroke-width:1.41;stroke-linecap:round;stroke-linejoin:round;stroke:rgb(0%,0%,0%);stroke-opacity:1;stroke-miterlimit:10;" d="M 125.265625 146.816406 L 125.984375 147.210938 L 126.792969 147.957031 L 127.601562 148.792969 L 128.230469 149.628906 L 128.679688 149.714844 L 128.859375 149.277344 L 128.949219 148.398438 L 128.949219 143.429688 L 128.859375 141.542969 L 128.769531 139.960938 L 128.769531 139.039062 L 128.679688 138.773438 " transform="matrix(1,0,0,-1,0,159)"/>
<path style="fill:none;stroke-width:1.41;stroke-linecap:round;stroke-linejoin:round;stroke:rgb(0%,0%,0%);stroke-opacity:1;stroke-miterlimit:10;" d="M 125.804688 138.027344 L 125.535156 137.984375 L 126.074219 137.984375 L 127.152344 138.070312 L 128.679688 138.246094 L 130.566406 138.378906 L 132.273438 138.378906 L 133.441406 138.335938 L 134.070312 138.246094 " transform="matrix(1,0,0,-1,0,159)"/>
<path style="fill:none;stroke-width:2.26;stroke-linecap:round;stroke-linejoin:round;stroke:rgb(0%,0%,0%);stroke-opacity:1;stroke-miterlimit:10;" d="M 31.558594 119.21875 L 31.558594 118.03125 L 31.46875 116.492188 L 31.46875 111.351562 L 31.378906 108.582031 L 31.289062 106.515625 L 31.289062 105.109375 L 31.199219 103.703125 L 31.199219 102.035156 L 31.109375 100.539062 L 30.929688 99.265625 L 30.929688 98.738281 L 31.109375 99.179688 " transform="matrix(1,0,0,-1,0,159)"/>
<path style="fill:none;stroke-width:2.26;stroke-linecap:round;stroke-linejoin:round;stroke:rgb(0%,0%,0%);stroke-opacity:1;stroke-miterlimit:10;" d="M 36.5 113.285156 L 36.410156 113.726562 L 36.320312 114.078125 " transform="matrix(1,0,0,-1,0,159)"/>
<path style="fill:none;stroke-width:2.26;stroke-linecap:round;stroke-linejoin:round;stroke:rgb(0%,0%,0%);stroke-opacity:1;stroke-miterlimit:10;" d="M 37.488281 107.792969 L 37.398438 106.078125 L 37.398438 101.683594 " transform="matrix(1,0,0,-1,0,159)"/>
<path style="fill:none;stroke-width:2.26;stroke-linecap:round;stroke-linejoin:round;stroke:rgb(0%,0%,0%);stroke-opacity:1;stroke-miterlimit:10;" d="M 41.351562 117.285156 L 41.171875 116.757812 L 40.992188 115.789062 L 40.902344 113.988281 L 40.8125 111.042969 L 40.632812 108.320312 L 40.632812 105.859375 L 40.8125 104.453125 L 41.261719 104.539062 L 42.25 105.726562 L 43.777344 106.824219 L 45.574219 107.132812 L 47.371094 106.164062 L 48.449219 104.144531 L 48.449219 101.902344 L 47.28125 100.015625 L 45.394531 99.3125 L 43.507812 99.75 L 42.070312 100.847656 L 41.441406 102.210938 L 41.261719 103.351562 L 41.351562 104.101562 " transform="matrix(1,0,0,-1,0,159)"/>
<path style="fill:none;stroke-width:2.26;stroke-linecap:round;stroke-linejoin:round;stroke:rgb(0%,0%,0%);stroke-opacity:1;stroke-miterlimit:10;" d="M 51.683594 107.265625 L 51.683594 106.695312 L 51.863281 105.945312 L 52.132812 105.066406 L 52.402344 104.234375 L 52.582031 103.484375 L 52.851562 102.828125 L 53.03125 102.296875 L 53.121094 101.859375 L 53.210938 101.507812 L 53.121094 101.199219 L 52.851562 101.507812 L 52.582031 102.648438 L 52.582031 104.453125 L 52.941406 106.429688 L 53.660156 108.054688 L 54.558594 108.847656 L 55.367188 108.976562 L 56.085938 108.757812 L 56.894531 108.496094 " transform="matrix(1,0,0,-1,0,159)"/>
<path style="fill:none;stroke-width:2.26;stroke-linecap:round;stroke-linejoin:round;stroke:rgb(0%,0%,0%);stroke-opacity:1;stroke-miterlimit:10;" d="M 59.859375 108.230469 L 59.679688 108.890625 L 60.039062 109.636719 L 60.757812 110.078125 L 62.015625 109.679688 L 63.183594 108.230469 L 63.992188 106.164062 L 64.441406 103.925781 L 64.53125 102.296875 L 64.441406 101.507812 L 64.171875 102.519531 L 63.632812 103.835938 L 62.914062 105.023438 L 61.746094 105.59375 L 60.578125 105.289062 L 59.5 104.320312 L 58.691406 103.132812 L 58.332031 102.167969 L 58.421875 101.199219 L 58.871094 100.585938 L 59.589844 100.101562 L 60.488281 99.792969 L 61.566406 100.058594 L 62.464844 100.453125 L 63.273438 100.890625 L 63.992188 101.421875 L 64.441406 101.816406 L 65.160156 102.386719 " transform="matrix(1,0,0,-1,0,159)"/>
<path style="fill:none;stroke-width:2.26;stroke-linecap:round;stroke-linejoin:round;stroke:rgb(0%,0%,0%);stroke-opacity:1;stroke-miterlimit:10;" d="M 67.675781 105.242188 L 67.765625 104.757812 L 68.125 103.75 L 68.664062 102.078125 L 68.933594 101.421875 L 68.664062 101.421875 L 68.304688 102.167969 L 68.304688 103.882812 L 68.664062 106.253906 L 69.652344 108.539062 L 70.820312 110.296875 L 72.796875 110.824219 " transform="matrix(1,0,0,-1,0,159)"/>
<path style="fill:none;stroke-width:2.26;stroke-linecap:round;stroke-linejoin:round;stroke:rgb(0%,0%,0%);stroke-opacity:1;stroke-miterlimit:10;" d="M 76.480469 109.988281 L 76.210938 110.078125 L 75.851562 109.859375 L 75.492188 109.199219 L 75.132812 107.527344 L 75.042969 106.738281 L 75.042969 105.769531 L 75.3125 104.714844 L 76.03125 103.792969 L 77.019531 103.222656 L 78.277344 103.351562 L 79.445312 104.320312 L 80.34375 105.769531 L 80.792969 107.175781 L 80.972656 108.453125 L 80.972656 109.375 L 81.242188 107.75 L 81.691406 105.332031 L 82.230469 102.519531 L 82.679688 99.664062 L 82.679688 97.203125 L 81.960938 95.355469 L 80.792969 94.390625 L 79.445312 93.949219 L 78.277344 94.125 L 77.199219 94.742188 " transform="matrix(1,0,0,-1,0,159)"/>
<path style="fill:none;stroke-width:2.26;stroke-linecap:round;stroke-linejoin:round;stroke:rgb(0%,0%,0%);stroke-opacity:1;stroke-miterlimit:10;" d="M 32.457031 88.367188 L 32.636719 86.917969 L 32.726562 84.414062 L 32.726562 80.722656 L 32.546875 76.503906 L 32.367188 73.164062 L 32.1875 70.921875 L 32.1875 69.824219 L 32.546875 70.042969 L 32.726562 70.703125 L 32.996094 71.449219 " transform="matrix(1,0,0,-1,0,159)"/>
<path style="fill:none;stroke-width:2.26;stroke-linecap:round;stroke-linejoin:round;stroke:rgb(0%,0%,0%);stroke-opacity:1;stroke-miterlimit:10;" d="M 37.21875 83.621094 L 37.21875 84.414062 L 37.488281 84.195312 " transform="matrix(1,0,0,-1,0,159)"/>
<path style="fill:none;stroke-width:2.26;stroke-linecap:round;stroke-linejoin:round;stroke:rgb(0%,0%,0%);stroke-opacity:1;stroke-miterlimit:10;" d="M 38.476562 78.65625 L 38.296875 77.46875 L 38.296875 76.0625 L 38.207031 74.65625 L 38.207031 73.074219 L 38.296875 72.328125 L 38.296875 71.757812 L 38.207031 71.273438 L 38.117188 70.835938 " transform="matrix(1,0,0,-1,0,159)"/>
<path style="fill:none;stroke-width:2.26;stroke-linecap:round;stroke-linejoin:round;stroke:rgb(0%,0%,0%);stroke-opacity:1;stroke-miterlimit:10;" d="M 43.777344 86.433594 L 43.597656 85.644531 L 43.417969 83.972656 L 43.417969 79.976562 L 43.328125 78.039062 L 43.238281 76.414062 L 43.148438 75.007812 L 43.058594 73.910156 L 42.96875 73.425781 L 42.789062 74.042969 L 42.789062 74.789062 L 42.878906 75.578125 L 43.058594 76.414062 L 43.6875 77.425781 L 44.855469 78.390625 L 46.203125 79.183594 L 47.730469 79.667969 L 49.347656 78.921875 L 50.15625 77.425781 L 50.515625 75.492188 L 49.707031 73.339844 L 47.730469 72.109375 L 45.753906 71.710938 L 44.136719 71.933594 L 43.597656 72.898438 " transform="matrix(1,0,0,-1,0,159)"/>
<path style="fill:none;stroke-width:2.26;stroke-linecap:round;stroke-linejoin:round;stroke:rgb(0%,0%,0%);stroke-opacity:1;stroke-miterlimit:10;" d="M 52.851562 77.515625 L 53.03125 77.207031 L 53.390625 76.195312 L 53.839844 74.703125 L 54.289062 73.164062 L 54.648438 71.757812 L 54.648438 71.230469 L 54.46875 71.449219 L 54.378906 71.890625 L 54.199219 72.546875 L 54.199219 73.425781 L 54.378906 74.875 L 55.007812 76.632812 L 55.816406 78.261719 L 56.714844 79.535156 L 57.613281 80.195312 L 58.421875 80.28125 " transform="matrix(1,0,0,-1,0,159)"/>
<path style="fill:none;stroke-width:2.26;stroke-linecap:round;stroke-linejoin:round;stroke:rgb(0%,0%,0%);stroke-opacity:1;stroke-miterlimit:10;" d="M 60.847656 79.402344 L 60.9375 80.148438 L 61.386719 80.765625 L 62.195312 81.074219 L 63.003906 80.941406 L 63.8125 80.371094 L 64.621094 79.316406 L 65.160156 77.734375 L 65.609375 75.710938 L 65.699219 74.042969 L 65.699219 72.59375 L 65.609375 73.117188 L 65.339844 74.042969 L 64.890625 75.226562 L 64.171875 76.195312 L 63.183594 76.632812 L 61.925781 76.328125 L 60.757812 75.316406 L 59.949219 73.953125 L 59.5 72.679688 L 59.859375 71.667969 L 60.847656 70.921875 L 62.105469 70.835938 L 63.363281 71.007812 L 64.710938 71.84375 " transform="matrix(1,0,0,-1,0,159)"/>
<path style="fill:none;stroke-width:2.26;stroke-linecap:round;stroke-linejoin:round;stroke:rgb(0%,0%,0%);stroke-opacity:1;stroke-miterlimit:10;" d="M 70.730469 78.085938 L 70.460938 77.867188 L 70.550781 77.292969 L 70.820312 75.886719 L 71 74.703125 L 71.359375 73.601562 L 71.449219 72.855469 L 71.179688 73.648438 L 70.910156 75.140625 L 71.089844 77.074219 L 71.988281 79.09375 L 73.246094 80.371094 L 75.132812 80.808594 " transform="matrix(1,0,0,-1,0,159)"/>
<path style="fill:none;stroke-width:2.26;stroke-linecap:round;stroke-linejoin:round;stroke:rgb(0%,0%,0%);stroke-opacity:1;stroke-miterlimit:10;" d="M 80.433594 78.875 L 80.074219 78.921875 L 79.714844 78.65625 L 79.445312 78.21875 L 79.265625 77.601562 L 79.175781 77.03125 L 79.085938 76.546875 L 79.085938 76.0625 L 79.265625 75.449219 L 79.445312 74.875 L 80.164062 74.042969 L 81.242188 73.382812 L 82.679688 73.382812 L 84.296875 74.304688 L 85.554688 76.109375 L 86.453125 77.953125 L 86.902344 79.445312 L 86.722656 80.328125 L 86.453125 80.632812 L 86.09375 80.722656 L 85.824219 80.328125 L 85.914062 79.140625 L 86.183594 77.25 L 86.722656 74.351562 L 87.171875 71.054688 L 87.261719 67.757812 L 86.722656 64.859375 L 85.375 63.054688 L 83.667969 62.132812 L 81.960938 61.957031 L 80.613281 62.265625 L 79.535156 62.792969 " transform="matrix(1,0,0,-1,0,159)"/>
<path style="fill:none;stroke-width:2.26;stroke-linecap:round;stroke-linejoin:round;stroke:rgb(0%,0%,0%);stroke-opacity:1;stroke-miterlimit:10;" d="M 30.660156 46.488281 L 30.929688 46.445312 L 32.097656 46.882812 L 33.625 47.761719 L 35.332031 48.949219 L 36.5 50.3125 L 36.679688 51.453125 L 35.960938 52.246094 L 34.433594 52.464844 L 32.726562 51.980469 L 31.109375 50.707031 L 29.851562 48.730469 L 29.492188 46.664062 L 30.03125 44.773438 L 31.648438 43.234375 L 33.804688 42.359375 L 35.871094 41.960938 L 37.578125 41.917969 L 38.566406 42.226562 L 39.105469 42.578125 L 39.464844 42.882812 " transform="matrix(1,0,0,-1,0,159)"/>
<path style="fill:none;stroke-width:2.26;stroke-linecap:round;stroke-linejoin:round;stroke:rgb(0%,0%,0%);stroke-opacity:1;stroke-miterlimit:10;" d="M 41.621094 51.671875 L 41.800781 51.101562 L 42.609375 49.695312 L 43.6875 47.851562 L 45.035156 45.875 L 45.933594 44.511719 L 46.382812 43.851562 L 46.742188 43.5 L 47.011719 43.324219 " transform="matrix(1,0,0,-1,0,159)"/>
<path style="fill:none;stroke-width:2.26;stroke-linecap:round;stroke-linejoin:round;stroke:rgb(0%,0%,0%);stroke-opacity:1;stroke-miterlimit:10;" d="M 47.191406 51.320312 L 47.011719 51.71875 L 46.5625 51.671875 L 45.753906 50.925781 L 44.496094 49.390625 L 43.058594 47.234375 L 41.890625 45.300781 L 41.082031 43.851562 L 40.8125 43.234375 " transform="matrix(1,0,0,-1,0,159)"/>
<path style="fill:none;stroke-width:2.26;stroke-linecap:round;stroke-linejoin:round;stroke:rgb(0%,0%,0%);stroke-opacity:1;stroke-miterlimit:10;" d="M 50.964844 45.742188 L 50.695312 45.652344 L 51.054688 45.785156 L 51.503906 45.917969 L 52.132812 46.226562 L 52.941406 46.664062 L 53.570312 47.148438 L 54.289062 47.761719 L 54.648438 48.554688 L 54.558594 49.476562 L 54.109375 50.398438 L 53.03125 50.96875 L 51.683594 50.617188 L 50.515625 49.34375 L 49.796875 47.542969 L 49.4375 45.785156 L 49.617188 44.46875 L 49.976562 43.632812 L 50.425781 43.105469 L 51.503906 42.664062 L 52.761719 42.359375 L 54.019531 42.269531 L 55.90625 42.753906 " transform="matrix(1,0,0,-1,0,159)"/>
<path style="fill:none;stroke-width:2.26;stroke-linecap:round;stroke-linejoin:round;stroke:rgb(0%,0%,0%);stroke-opacity:1;stroke-miterlimit:10;" d="M 62.644531 48.90625 L 62.195312 49.257812 L 61.746094 49.828125 L 61.207031 50.445312 L 60.757812 50.839844 L 59.949219 50.882812 L 59.320312 50.265625 L 58.78125 49.210938 L 58.332031 47.453125 L 58.152344 45.875 L 58.0625 44.511719 L 58.152344 43.28125 L 58.601562 42.53125 L 59.410156 42.007812 L 60.21875 41.699219 L 61.117188 41.609375 L 61.835938 41.785156 L 62.554688 42.226562 " transform="matrix(1,0,0,-1,0,159)"/>
<path style="fill:none;stroke-width:2.26;stroke-linecap:round;stroke-linejoin:round;stroke:rgb(0%,0%,0%);stroke-opacity:1;stroke-miterlimit:10;" d="M 66.867188 49.914062 L 66.6875 50.179688 L 66.417969 49.914062 L 66.238281 49.390625 L 66.148438 48.289062 L 66.148438 47.191406 L 66.328125 45.828125 L 66.867188 44.289062 L 67.585938 43.324219 L 68.664062 42.796875 L 69.832031 43.324219 L 70.640625 44.863281 L 71.179688 46.621094 L 71.269531 48.421875 L 71.089844 49.609375 L 70.910156 50.265625 L 70.820312 50.75 L 70.820312 50.398438 L 71 49.742188 L 71.179688 48.859375 L 71.539062 47.9375 L 71.898438 46.882812 L 72.527344 45.609375 L 73.066406 44.554688 L 73.605469 43.675781 L 74.503906 43.675781 " transform="matrix(1,0,0,-1,0,159)"/>
<path style="fill:none;stroke-width:2.26;stroke-linecap:round;stroke-linejoin:round;stroke:rgb(0%,0%,0%);stroke-opacity:1;stroke-miterlimit:10;" d="M 77.648438 58.132812 L 77.558594 58.351562 L 77.738281 57.429688 L 77.917969 55.320312 L 78.007812 52.15625 L 78.1875 48.246094 L 78.457031 45.214844 L 78.90625 43.28125 L 79.535156 42.359375 L 80.164062 42.269531 L 80.792969 42.445312 L 81.242188 42.664062 L 81.691406 43.367188 " transform="matrix(1,0,0,-1,0,159)"/>
<path style="fill:none;stroke-width:2.26;stroke-linecap:round;stroke-linejoin:round;stroke:rgb(0%,0%,0%);stroke-opacity:1;stroke-miterlimit:10;" d="M 75.492188 51.191406 L 75.042969 51.367188 L 74.683594 51.5 L 74.59375 51.761719 L 75.492188 51.980469 L 76.570312 52.113281 L 77.828125 52.246094 L 78.996094 52.332031 L 80.523438 52.332031 L 81.242188 52.289062 L 82.140625 52.203125 " transform="matrix(1,0,0,-1,0,159)"/>
<path style="fill:none;stroke-width:2.26;stroke-linecap:round;stroke-linejoin:round;stroke:rgb(0%,0%,0%);stroke-opacity:1;stroke-miterlimit:10;" d="M 86.09375 51.234375 L 86.09375 51.542969 L 86.453125 52.023438 L 87.171875 52.597656 L 88.25 53.078125 L 89.328125 53.300781 L 90.496094 52.507812 L 91.304688 50.882812 L 91.753906 48.816406 L 92.023438 46.53125 L 92.113281 45.039062 L 92.023438 44.203125 L 92.203125 44.730469 L 92.292969 45.34375 L 92.292969 46.046875 L 92.113281 46.488281 L 91.664062 47.101562 L 90.855469 47.632812 L 89.507812 47.71875 L 87.890625 47.324219 L 86.363281 46.226562 L 85.464844 44.640625 L 85.644531 43.234375 L 86.722656 42.269531 L 88.25 41.960938 L 89.6875 42.226562 L 90.765625 42.796875 L 91.84375 43.808594 " transform="matrix(1,0,0,-1,0,159)"/>
<path style="fill:none;stroke-width:2.26;stroke-linecap:round;stroke-linejoin:round;stroke:rgb(0%,0%,0%);stroke-opacity:1;stroke-miterlimit:10;" d="M 96.785156 58.089844 L 96.695312 57.828125 L 96.605469 56.726562 L 96.695312 54.441406 L 96.695312 51.453125 L 96.785156 48.730469 L 96.695312 46.578125 L 96.695312 45.742188 L 96.695312 46.09375 L 96.875 47.148438 L 97.414062 48.640625 L 98.3125 49.914062 L 99.480469 50.445312 L 100.738281 50.265625 L 101.816406 49.476562 L 102.445312 48.335938 L 102.714844 47.101562 L 102.625 45.917969 L 102.265625 44.949219 L 101.546875 44.335938 L 100.289062 44.289062 L 99.03125 44.421875 L 97.773438 44.6875 L 96.695312 45.082031 L 96.335938 45.476562 L 96.15625 45.960938 L 96.066406 46.53125 " transform="matrix(1,0,0,-1,0,159)"/>
<path style="fill:none;stroke-width:2.26;stroke-linecap:round;stroke-linejoin:round;stroke:rgb(0%,0%,0%);stroke-opacity:1;stroke-miterlimit:10;" d="M 105.140625 57.738281 L 105.230469 57.035156 L 105.410156 55.890625 L 105.589844 54.355469 L 105.949219 51.585938 L 106.21875 49.039062 L 106.398438 46.839844 L 106.578125 44.949219 L 106.847656 44.863281 " transform="matrix(1,0,0,-1,0,159)"/>
<path style="fill:none;stroke-width:2.26;stroke-linecap:round;stroke-linejoin:round;stroke:rgb(0%,0%,0%);stroke-opacity:1;stroke-miterlimit:10;" d="M 110.441406 48.421875 L 110.53125 48.070312 L 110.980469 47.9375 L 111.519531 47.851562 L 112.417969 47.9375 L 113.40625 48.113281 L 114.484375 48.640625 L 115.292969 49.390625 L 115.742188 50.136719 L 115.921875 51.101562 L 115.652344 52.023438 L 115.023438 52.773438 L 114.214844 53.34375 L 113.046875 53.167969 L 111.96875 52.421875 L 111.070312 51.453125 L 110.441406 50.136719 L 110.171875 49.167969 L 110.082031 48.289062 L 109.992188 47.453125 L 110.082031 46.445312 L 110.441406 45.171875 L 111.25 43.984375 L 112.507812 42.972656 L 113.765625 42.578125 L 114.933594 42.664062 L 115.742188 43.105469 " transform="matrix(1,0,0,-1,0,159)"/>
<path style="fill:none;stroke-width:2.26;stroke-linecap:round;stroke-linejoin:round;stroke:rgb(0%,0%,0%);stroke-opacity:1;stroke-miterlimit:10;" d="M 33.445312 30.886719 L 33.535156 31.109375 L 33.714844 30.449219 L 33.625 28.734375 L 33.355469 26.054688 L 32.996094 22.363281 L 32.636719 18.847656 L 32.546875 15.945312 L 32.636719 13.925781 L 33.445312 12.914062 L 34.613281 12.605469 L 35.960938 12.695312 L 37.308594 12.957031 L 38.296875 13.484375 L 38.746094 13.792969 L 39.195312 14.1875 L 39.464844 14.496094 " transform="matrix(1,0,0,-1,0,159)"/>
<path style="fill:none;stroke-width:2.26;stroke-linecap:round;stroke-linejoin:round;stroke:rgb(0%,0%,0%);stroke-opacity:1;stroke-miterlimit:10;" d="M 29.3125 21.570312 L 29.492188 21.789062 L 30.839844 21.96875 L 32.546875 22.1875 L 34.433594 22.449219 L 35.960938 22.671875 L 36.769531 22.890625 L 37.308594 22.976562 " transform="matrix(1,0,0,-1,0,159)"/>
<path style="fill:none;stroke-width:2.26;stroke-linecap:round;stroke-linejoin:round;stroke:rgb(0%,0%,0%);stroke-opacity:1;stroke-miterlimit:10;" d="M 40.363281 18.320312 L 40.632812 18.144531 L 41.53125 18.320312 L 42.699219 18.757812 L 43.867188 19.59375 L 44.585938 20.648438 L 44.675781 21.703125 L 44.136719 22.539062 L 42.96875 22.84375 L 41.800781 22.449219 L 40.722656 21.351562 L 40.183594 19.550781 L 40.542969 17.75 L 41.53125 16.253906 L 42.96875 15.375 L 44.40625 15.15625 L 45.574219 15.242188 L 46.292969 15.417969 " transform="matrix(1,0,0,-1,0,159)"/>
<path style="fill:none;stroke-width:2.26;stroke-linecap:round;stroke-linejoin:round;stroke:rgb(0%,0%,0%);stroke-opacity:1;stroke-miterlimit:10;" d="M 54.199219 22.097656 L 53.929688 22.671875 L 53.210938 23.417969 L 52.042969 23.945312 L 50.695312 23.945312 L 49.4375 23.636719 L 49.078125 22.625 L 49.796875 21.394531 L 51.324219 20.03125 L 52.941406 18.804688 L 54.109375 17.792969 L 54.738281 16.867188 L 54.738281 16.253906 L 54.46875 15.683594 L 53.839844 15.199219 L 52.941406 14.890625 L 51.503906 14.9375 L 50.066406 15.109375 L 48.898438 15.417969 L 48 15.902344 L 47.730469 16.296875 " transform="matrix(1,0,0,-1,0,159)"/>
<path style="fill:none;stroke-width:2.26;stroke-linecap:round;stroke-linejoin:round;stroke:rgb(0%,0%,0%);stroke-opacity:1;stroke-miterlimit:10;" d="M 58.691406 28.164062 L 58.601562 28.601562 L 58.691406 28.382812 L 58.691406 27.152344 L 58.78125 25.085938 L 58.78125 17.527344 L 58.871094 16.386719 L 59.230469 15.289062 L 59.769531 14.40625 L 60.667969 14.101562 L 61.835938 14.144531 L 62.734375 14.585938 L 63.363281 15.066406 L 63.722656 15.507812 L 63.8125 15.8125 " transform="matrix(1,0,0,-1,0,159)"/>
<path style="fill:none;stroke-width:2.26;stroke-linecap:round;stroke-linejoin:round;stroke:rgb(0%,0%,0%);stroke-opacity:1;stroke-miterlimit:10;" d="M 57.792969 21.085938 L 58.242188 21.484375 L 59.410156 21.703125 L 60.667969 21.878906 L 61.65625 21.921875 L 62.464844 21.921875 " transform="matrix(1,0,0,-1,0,159)"/>
<path style="fill:none;stroke-width:2.26;stroke-linecap:round;stroke-linejoin:round;stroke:rgb(0%,0%,0%);stroke-opacity:1;stroke-miterlimit:10;" d="M 67.316406 19.726562 L 68.125 19.859375 L 68.933594 19.902344 L 69.832031 19.945312 L 71.179688 19.945312 L 71.628906 20.078125 " transform="matrix(1,0,0,-1,0,159)"/>
<path style="fill:none;stroke-width:2.26;stroke-linecap:round;stroke-linejoin:round;stroke:rgb(0%,0%,0%);stroke-opacity:1;stroke-miterlimit:10;" d="M 79.714844 22.054688 L 79.625 22.40625 L 79.535156 22.625 L 79.175781 23.152344 L 78.546875 23.726562 L 77.558594 24.207031 L 76.390625 24.296875 L 75.671875 23.769531 L 75.222656 23.023438 L 75.3125 22.273438 L 76.390625 21.351562 L 77.828125 20.515625 L 79.265625 19.507812 L 80.703125 18.40625 L 81.0625 17.484375 L 80.523438 16.695312 L 79.625 16.164062 L 78.367188 15.902344 L 77.378906 15.992188 L 76.660156 16.253906 L 76.121094 16.648438 L 75.761719 17.132812 " transform="matrix(1,0,0,-1,0,159)"/>
<path style="fill:none;stroke-width:2.26;stroke-linecap:round;stroke-linejoin:round;stroke:rgb(0%,0%,0%);stroke-opacity:1;stroke-miterlimit:10;" d="M 84.386719 22.890625 L 84.207031 23.109375 L 84.027344 22.363281 L 84.027344 21.394531 L 84.296875 19.988281 L 84.65625 18.273438 L 85.375 17.046875 L 86.183594 16.078125 L 87.261719 15.769531 L 88.339844 16.648438 L 89.148438 18.230469 L 89.6875 20.121094 L 89.867188 21.835938 L 89.777344 22.714844 L 89.777344 21.085938 L 90.226562 18.890625 L 90.945312 16.515625 L 91.753906 14.628906 L 92.382812 13.703125 L 92.832031 13.660156 L 93.191406 14.277344 " transform="matrix(1,0,0,-1,0,159)"/>
<path style="fill:none;stroke-width:2.26;stroke-linecap:round;stroke-linejoin:round;stroke:rgb(0%,0%,0%);stroke-opacity:1;stroke-miterlimit:10;" d="M 96.875 25.484375 L 96.515625 26.140625 L 96.15625 26.582031 L 95.796875 26.890625 " transform="matrix(1,0,0,-1,0,159)"/>
<path style="fill:none;stroke-width:2.26;stroke-linecap:round;stroke-linejoin:round;stroke:rgb(0%,0%,0%);stroke-opacity:1;stroke-miterlimit:10;" d="M 96.785156 23.195312 L 96.695312 22.054688 L 96.605469 20.867188 L 96.605469 19.460938 L 96.695312 18.101562 L 96.785156 17.132812 L 96.964844 16.253906 L 96.964844 15.769531 " transform="matrix(1,0,0,-1,0,159)"/>
<path style="fill:none;stroke-width:2.26;stroke-linecap:round;stroke-linejoin:round;stroke:rgb(0%,0%,0%);stroke-opacity:1;stroke-miterlimit:10;" d="M 102.625 30.054688 L 102.535156 29 L 102.265625 26.757812 L 101.90625 24.25 L 101.726562 21.789062 L 101.546875 19.636719 L 101.457031 18.582031 L 101.546875 17.660156 L 101.546875 16.824219 L 101.816406 16.035156 L 102.355469 15.417969 L 103.164062 15.066406 L 104.242188 15.023438 L 105.050781 15.242188 L 105.679688 15.640625 L 106.039062 16.296875 " transform="matrix(1,0,0,-1,0,159)"/>
<path style="fill:none;stroke-width:2.26;stroke-linecap:round;stroke-linejoin:round;stroke:rgb(0%,0%,0%);stroke-opacity:1;stroke-miterlimit:10;" d="M 100.828125 24.03125 L 100.46875 24.25 L 100.738281 24.382812 L 101.367188 24.382812 L 102.355469 24.339844 L 103.433594 24.296875 L 104.332031 24.339844 L 105.050781 24.429688 L 105.769531 24.515625 " transform="matrix(1,0,0,-1,0,159)"/>
<path style="fill:none;stroke-width:2.26;stroke-linecap:round;stroke-linejoin:round;stroke:rgb(0%,0%,0%);stroke-opacity:1;stroke-miterlimit:10;" d="M 110.890625 21.21875 L 111.519531 21.132812 L 112.507812 21.4375 L 113.316406 21.878906 L 113.945312 22.539062 L 114.125 23.417969 L 113.765625 24.207031 L 113.136719 24.824219 L 112.148438 25.042969 L 111.070312 24.601562 L 109.902344 23.679688 L 109.09375 22.320312 L 108.824219 20.605469 L 109.09375 18.890625 L 109.992188 17.398438 L 111.429688 16.34375 L 113.046875 15.945312 L 114.484375 15.945312 L 115.5625 16.121094 L 116.101562 16.472656 " transform="matrix(1,0,0,-1,0,159)"/>
<path style="fill:none;stroke-width:1.41;stroke-linecap:round;stroke-linejoin:round;stroke:rgb(0%,0%,0%);stroke-opacity:1;stroke-miterlimit:10;" d="M 136.765625 51.234375 L 136.945312 50.265625 L 137.125 49.039062 L 137.214844 47.542969 L 137.304688 45.917969 L 137.304688 44.6875 L 137.394531 43.851562 L 137.304688 44.90625 L 137.484375 46.664062 L 138.023438 48.859375 L 138.921875 50.488281 L 140 51.015625 L 140.988281 50.707031 L 141.527344 49.695312 L 141.886719 48.246094 L 141.886719 45.476562 L 141.886719 45.828125 L 142.066406 47.058594 L 142.605469 48.773438 L 143.414062 50.574219 L 144.3125 51.71875 L 145.390625 51.320312 L 146.109375 49.828125 L 146.558594 47.761719 L 146.917969 45.695312 L 147.007812 44.421875 L 147.097656 43.765625 " transform="matrix(1,0,0,-1,0,159)"/>
<path style="fill:none;stroke-width:1.41;stroke-linecap:round;stroke-linejoin:round;stroke:rgb(0%,0%,0%);stroke-opacity:1;stroke-miterlimit:10;" d="M 149.523438 50.179688 L 149.34375 49.785156 L 149.34375 49.039062 L 149.433594 47.632812 L 149.703125 46.269531 L 150.421875 45.171875 L 151.5 44.554688 L 152.578125 44.640625 L 153.65625 45.300781 L 154.554688 46.578125 L 155.003906 48.203125 L 155.183594 49.914062 L 155.09375 51.320312 L 154.914062 51.71875 L 154.914062 50.796875 L 155.003906 49.300781 L 155.273438 47.234375 L 155.632812 44.773438 L 155.722656 42.621094 L 155.453125 40.421875 L 154.914062 38.710938 L 154.195312 37.832031 L 153.207031 37.480469 L 152.21875 37.480469 L 150.871094 37.875 L 149.433594 38.359375 L 148.265625 39.0625 L 147.277344 39.851562 " transform="matrix(1,0,0,-1,0,159)"/>
<path style="fill:none;stroke-width:1.41;stroke-linecap:round;stroke-linejoin:round;stroke:rgb(0%,0%,0%);stroke-opacity:1;stroke-miterlimit:10;" d="M 160.304688 50.882812 L 160.125 50.574219 L 159.945312 50.046875 L 159.945312 40.730469 L 159.855469 39.5 L 159.765625 39.195312 L 159.765625 39.984375 " transform="matrix(1,0,0,-1,0,159)"/>
<path style="fill:none;stroke-width:1.41;stroke-linecap:round;stroke-linejoin:round;stroke:rgb(0%,0%,0%);stroke-opacity:1;stroke-miterlimit:10;" d="M 159.855469 45.917969 L 160.125 47.761719 L 160.484375 49.039062 L 160.84375 49.871094 L 161.382812 50.265625 L 162.371094 50.136719 L 163.359375 49.34375 L 164.257812 47.894531 L 164.347656 46.046875 L 163.539062 44.554688 L 162.28125 43.765625 L 160.933594 43.585938 L 160.304688 44.511719 " transform="matrix(1,0,0,-1,0,159)"/>
<path style="fill:none;stroke-width:1.41;stroke-linecap:round;stroke-linejoin:round;stroke:rgb(0%,0%,0%);stroke-opacity:1;stroke-miterlimit:10;" d="M 167.671875 48.246094 L 167.492188 47.851562 L 167.492188 46.972656 L 167.671875 45.828125 L 167.761719 44.554688 L 167.761719 43.675781 L 167.671875 43.367188 L 167.402344 43.585938 L 167.222656 44.117188 L 167.132812 45.609375 L 167.402344 47.761719 L 168.210938 49.914062 L 169.199219 51.851562 L 170.90625 52.640625 " transform="matrix(1,0,0,-1,0,159)"/>
<path style="fill:none;stroke-width:1.41;stroke-linecap:round;stroke-linejoin:round;stroke:rgb(0%,0%,0%);stroke-opacity:1;stroke-miterlimit:10;" d="M 175.757812 50.355469 L 175.578125 50.707031 L 175.128906 50.96875 L 174.5 51.015625 L 173.511719 50.488281 L 172.523438 49.433594 L 171.714844 48.289062 L 171.175781 47.101562 L 171.535156 45.917969 L 172.523438 45.257812 L 174.050781 44.820312 L 175.667969 44.730469 L 176.835938 45.082031 L 177.554688 45.566406 L 177.824219 46.003906 L 177.824219 46.664062 L 177.644531 47.542969 L 177.285156 48.6875 L 176.746094 49.785156 L 176.386719 50.574219 L 176.027344 51.101562 " transform="matrix(1,0,0,-1,0,159)"/>
<path style="fill:none;stroke-width:1.41;stroke-linecap:round;stroke-linejoin:round;stroke:rgb(0%,0%,0%);stroke-opacity:1;stroke-miterlimit:10;" d="M 184.5625 49.695312 L 184.5625 50.355469 L 184.472656 50.664062 L 184.382812 50.882812 L 183.933594 51.453125 L 183.214844 51.71875 L 182.40625 51.585938 L 181.597656 51.148438 L 181.058594 50.222656 L 180.878906 48.730469 L 181.148438 47.234375 L 182.046875 46.003906 L 183.214844 45.125 L 184.472656 45.257812 L 185.550781 46.046875 L 186.179688 47.015625 L 186.359375 47.9375 L 186.359375 48.730469 L 186.179688 49.34375 L 186.089844 49.914062 L 185.910156 50.488281 L 185.640625 51.234375 L 185.371094 51.761719 L 185.191406 52.203125 L 185.011719 52.421875 L 185.101562 52.15625 L 185.101562 51.761719 L 185.28125 51.191406 L 185.460938 50.265625 L 185.910156 48.730469 L 186.539062 46.488281 L 186.988281 43.894531 L 187.078125 41.433594 L 186.359375 39.457031 L 184.921875 38.359375 L 183.125 37.789062 L 181.507812 37.699219 L 180.25 38.007812 " transform="matrix(1,0,0,-1,0,159)"/>
<path style="fill:none;stroke-width:1.41;stroke-linecap:round;stroke-linejoin:round;stroke:rgb(0%,0%,0%);stroke-opacity:1;stroke-miterlimit:10;" d="M 139.371094 25.835938 L 139.28125 26.1875 L 139.371094 25.921875 L 139.640625 25.085938 L 139.820312 23.679688 L 140.089844 21.746094 L 140.179688 19.945312 L 140.269531 19.066406 L 140.359375 19.328125 L 140.539062 20.78125 L 141.257812 22.671875 L 142.246094 23.726562 L 143.324219 23.546875 L 144.222656 22.671875 L 144.671875 21.484375 L 144.761719 20.5625 L 144.761719 20.164062 L 145.210938 21.308594 L 146.109375 22.449219 L 147.277344 23.195312 L 148.445312 23.328125 L 149.253906 22.539062 L 149.703125 21.265625 L 149.882812 20.03125 L 150.0625 18.933594 L 150.152344 17.96875 L 150.242188 17.570312 " transform="matrix(1,0,0,-1,0,159)"/>
<path style="fill:none;stroke-width:1.41;stroke-linecap:round;stroke-linejoin:round;stroke:rgb(0%,0%,0%);stroke-opacity:1;stroke-miterlimit:10;" d="M 152.398438 23.726562 L 152.128906 23.726562 L 151.949219 23.503906 L 151.769531 23.109375 L 151.589844 22.363281 L 151.679688 20.914062 L 152.21875 19.375 L 153.027344 18.054688 L 154.195312 17.484375 L 155.542969 18.1875 L 156.53125 19.328125 L 157.339844 20.648438 L 157.789062 21.789062 L 157.878906 22.539062 L 157.96875 23.546875 L 157.789062 24.296875 L 157.609375 24.648438 L 157.339844 24.734375 L 157.25 24.078125 L 157.339844 23.242188 L 157.429688 22.320312 L 157.699219 20.734375 L 158.148438 18.320312 L 158.417969 15.640625 L 158.238281 12.828125 L 157.609375 10.804688 L 156.53125 9.835938 L 155.363281 9.484375 L 154.285156 9.664062 L 153.476562 10.015625 L 152.578125 10.585938 L 151.859375 11.289062 L 151.230469 12.167969 L 150.871094 13.132812 " transform="matrix(1,0,0,-1,0,159)"/>
<path style="fill:none;stroke-width:1.41;stroke-linecap:round;stroke-linejoin:round;stroke:rgb(0%,0%,0%);stroke-opacity:1;stroke-miterlimit:10;" d="M 163.539062 30.183594 L 163.449219 29.351562 L 163.359375 28.164062 L 163.359375 26.539062 L 163.269531 25 L 163.179688 23.636719 L 163.089844 22.054688 L 163.089844 20.382812 L 163.269531 18.671875 L 163.808594 17.308594 L 164.527344 16.78125 L 165.335938 16.824219 L 166.054688 17.398438 L 166.503906 18.230469 " transform="matrix(1,0,0,-1,0,159)"/>
<path style="fill:none;stroke-width:1.41;stroke-linecap:round;stroke-linejoin:round;stroke:rgb(0%,0%,0%);stroke-opacity:1;stroke-miterlimit:10;" d="M 160.125 25.21875 L 159.855469 25.527344 L 160.035156 25.878906 L 160.84375 26.273438 L 162.191406 26.667969 L 163.628906 26.933594 L 164.796875 27.019531 L 165.425781 26.976562 L 165.785156 26.890625 L 166.054688 26.667969 " transform="matrix(1,0,0,-1,0,159)"/>
<path style="fill:none;stroke-width:1.41;stroke-linecap:round;stroke-linejoin:round;stroke:rgb(0%,0%,0%);stroke-opacity:1;stroke-miterlimit:10;" d="M 167.671875 21.308594 L 168.570312 21.308594 L 169.648438 21.660156 L 171.085938 22.230469 L 172.34375 22.890625 L 173.0625 23.417969 L 173.421875 23.855469 L 173.421875 24.25 L 173.0625 24.953125 L 172.34375 25.703125 L 171.265625 26.097656 L 170.097656 25.964844 L 169.019531 24.691406 L 168.390625 22.757812 L 168.300781 20.824219 L 168.929688 19.109375 L 170.1875 18.273438 L 171.445312 18.011719 L 172.703125 18.1875 L 173.871094 18.933594 " transform="matrix(1,0,0,-1,0,159)"/>
<path style="fill:none;stroke-width:1.41;stroke-linecap:round;stroke-linejoin:round;stroke:rgb(0%,0%,0%);stroke-opacity:1;stroke-miterlimit:10;" d="M 179.351562 24.296875 L 179.171875 24.953125 L 179.082031 25.351562 L 178.902344 25.789062 L 178.363281 26.316406 L 177.554688 26.492188 L 176.746094 26.230469 L 175.9375 25.527344 L 175.667969 24.601562 L 175.667969 23.855469 L 175.9375 23.328125 L 176.835938 22.84375 L 177.914062 22.230469 L 179.171875 21.351562 L 180.070312 20.164062 L 180.160156 19.15625 L 179.710938 18.320312 L 178.542969 17.878906 L 177.285156 17.921875 L 176.027344 18.144531 L 174.949219 18.496094 L 174.320312 18.933594 L 174.050781 19.417969 " transform="matrix(1,0,0,-1,0,159)"/>
<path style="fill:none;stroke-width:1.41;stroke-linecap:round;stroke-linejoin:round;stroke:rgb(0%,0%,0%);stroke-opacity:1;stroke-miterlimit:10;" d="M 184.652344 32.953125 L 184.742188 31.855469 L 184.652344 29.703125 L 184.5625 26.492188 L 184.292969 23.375 L 184.203125 20.824219 L 184.472656 19.109375 L 185.28125 18.40625 L 186.179688 18.320312 L 187.078125 18.40625 L 187.617188 18.757812 L 187.976562 19.417969 " transform="matrix(1,0,0,-1,0,159)"/>
<path style="fill:none;stroke-width:1.41;stroke-linecap:round;stroke-linejoin:round;stroke:rgb(0%,0%,0%);stroke-opacity:1;stroke-miterlimit:10;" d="M 181.867188 26.1875 L 181.417969 26.582031 L 181.058594 26.890625 L 180.96875 27.109375 L 181.507812 27.328125 L 182.316406 27.371094 L 183.664062 27.414062 L 185.28125 27.460938 L 186.808594 27.546875 L 188.066406 27.546875 L 188.605469 27.414062 " transform="matrix(1,0,0,-1,0,159)"/>
<path style="fill:none;stroke-width:1.41;stroke-linecap:round;stroke-linejoin:round;stroke:rgb(0%,0%,0%);stroke-opacity:1;stroke-miterlimit:10;" d="M 107.925781 77.953125 L 107.835938 77.515625 L 108.015625 76.328125 L 108.195312 74.613281 L 108.375 72.855469 L 108.375 71.890625 L 108.554688 73.164062 L 109.09375 74.875 L 109.992188 76.28125 L 111.070312 77.03125 L 111.96875 76.984375 L 112.777344 76.460938 L 113.226562 75.449219 L 113.40625 74.480469 L 113.585938 73.515625 L 113.675781 72.546875 L 113.585938 71.976562 L 113.585938 71.539062 L 113.316406 71.976562 L 113.585938 73.25 L 114.214844 74.746094 L 115.023438 76.019531 L 116.011719 76.632812 L 116.820312 76.109375 L 117.359375 74.964844 L 117.71875 73.46875 L 117.988281 72.019531 L 117.988281 71.097656 L 118.078125 70.746094 " transform="matrix(1,0,0,-1,0,159)"/>
<path style="fill:none;stroke-width:1.41;stroke-linecap:round;stroke-linejoin:round;stroke:rgb(0%,0%,0%);stroke-opacity:1;stroke-miterlimit:10;" d="M 120.863281 76.898438 L 120.503906 76.546875 L 120.234375 76.019531 L 119.964844 75.226562 L 119.964844 73.117188 L 120.234375 71.710938 L 120.773438 70.527344 L 121.671875 69.953125 L 122.75 70.4375 L 123.917969 71.667969 L 124.726562 73.117188 L 125.265625 74.351562 L 125.535156 75.316406 L 125.535156 75.976562 L 125.445312 76.855469 L 125.265625 77.6875 L 124.996094 78.261719 L 124.90625 77.953125 L 125.085938 76.546875 L 125.535156 74.304688 L 125.984375 71.449219 L 126.074219 68.855469 L 125.804688 66.789062 L 124.726562 65.429688 L 123.289062 65.03125 L 121.851562 65.03125 L 120.59375 65.339844 L 120.054688 66.21875 " transform="matrix(1,0,0,-1,0,159)"/>
<path style="fill:none;stroke-width:1.41;stroke-linecap:round;stroke-linejoin:round;stroke:rgb(0%,0%,0%);stroke-opacity:1;stroke-miterlimit:10;" d="M 134.789062 77.074219 L 134.609375 77.425781 L 134.339844 77.867188 L 134.070312 78.390625 L 133.441406 78.921875 L 132.363281 79.140625 L 131.195312 78.789062 L 130.117188 77.996094 L 129.578125 76.984375 L 129.578125 76.195312 L 130.296875 75.492188 L 131.105469 74.964844 L 132.09375 74.394531 L 133.171875 73.777344 L 133.980469 73.164062 L 134.609375 72.503906 L 134.96875 71.890625 L 134.96875 71.359375 L 134.609375 71.007812 L 134.070312 70.835938 L 133.53125 70.703125 L 132.8125 70.613281 L 131.824219 70.65625 L 130.746094 70.835938 L 129.847656 71.140625 L 129.128906 71.667969 L 128.949219 72.195312 " transform="matrix(1,0,0,-1,0,159)"/>
<path style="fill:none;stroke-width:1.41;stroke-linecap:round;stroke-linejoin:round;stroke:rgb(0%,0%,0%);stroke-opacity:1;stroke-miterlimit:10;" d="M 137.933594 77.953125 L 137.753906 77.558594 L 137.664062 76.984375 L 137.664062 76.0625 L 137.753906 75.054688 L 137.84375 73.691406 L 138.023438 72.109375 L 138.652344 71.140625 L 139.460938 70.65625 L 140.449219 70.921875 L 141.257812 71.667969 L 141.796875 72.59375 L 142.335938 74.171875 L 142.425781 75.183594 L 142.335938 76.328125 L 142.246094 77.335938 L 142.15625 77.777344 L 142.15625 77.335938 L 142.335938 76.019531 L 142.695312 74.4375 L 143.054688 73.207031 L 143.414062 72.503906 L 143.773438 72.414062 " transform="matrix(1,0,0,-1,0,159)"/>
<path style="fill:none;stroke-width:1.41;stroke-linecap:round;stroke-linejoin:round;stroke:rgb(0%,0%,0%);stroke-opacity:1;stroke-miterlimit:10;" d="M 145.121094 82.523438 L 145.300781 81.554688 L 145.390625 80.457031 L 145.75 78.480469 L 146.109375 76.546875 L 146.378906 75.054688 L 146.648438 73.953125 L 146.917969 74.351562 L 147.367188 75.273438 L 148.175781 76.195312 L 149.433594 76.546875 L 150.960938 75.757812 L 152.128906 74.128906 L 152.757812 72.328125 L 152.847656 70.789062 L 151.949219 69.867188 L 150.511719 69.515625 L 148.984375 69.824219 L 147.457031 70.4375 L 146.648438 71.449219 L 146.289062 72.503906 L 146.289062 73.296875 L 146.46875 73.953125 " transform="matrix(1,0,0,-1,0,159)"/>
<path style="fill:none;stroke-width:1.41;stroke-linecap:round;stroke-linejoin:round;stroke:rgb(0%,0%,0%);stroke-opacity:1;stroke-miterlimit:10;" d="M 155.273438 83.664062 L 155.183594 82.917969 L 155.363281 82.085938 L 155.453125 80.984375 L 155.632812 79.710938 L 155.8125 77.734375 L 155.992188 75.316406 L 156.171875 72.855469 L 156.261719 71.007812 L 156.351562 70.261719 L 156.800781 71.667969 " transform="matrix(1,0,0,-1,0,159)"/>
<path style="fill:none;stroke-width:1.41;stroke-linecap:round;stroke-linejoin:round;stroke:rgb(0%,0%,0%);stroke-opacity:1;stroke-miterlimit:10;" d="M 160.304688 78.171875 L 160.304688 76.855469 L 160.214844 75.273438 L 160.214844 69.953125 L 160.125 68.636719 L 160.125 67.449219 L 160.214844 67.933594 " transform="matrix(1,0,0,-1,0,159)"/>
<path style="fill:none;stroke-width:1.41;stroke-linecap:round;stroke-linejoin:round;stroke:rgb(0%,0%,0%);stroke-opacity:1;stroke-miterlimit:10;" d="M 160.933594 81.996094 L 160.664062 82.257812 L 160.304688 82.257812 " transform="matrix(1,0,0,-1,0,159)"/>
<path style="fill:none;stroke-width:1.41;stroke-linecap:round;stroke-linejoin:round;stroke:rgb(0%,0%,0%);stroke-opacity:1;stroke-miterlimit:10;" d="M 164.167969 83.402344 L 164.167969 82.609375 L 164.257812 81.554688 L 164.257812 76.984375 L 164.078125 75.007812 L 163.988281 73.074219 L 163.898438 71.890625 L 163.898438 71.539062 L 163.988281 72.109375 L 164.347656 73.382812 L 165.066406 74.703125 L 165.875 75.886719 L 166.953125 76.589844 L 168.390625 76.503906 L 169.558594 75.800781 L 170.546875 74.65625 L 170.816406 73.03125 L 170.546875 71.582031 L 169.828125 70.484375 L 168.660156 69.78125 L 167.402344 69.691406 L 165.964844 69.867188 L 164.617188 70.21875 L 163.628906 70.921875 " transform="matrix(1,0,0,-1,0,159)"/>
<path style="fill:none;stroke-width:2.26;stroke-linecap:round;stroke-linejoin:round;stroke:rgb(19.999695%,19.999695%,79.998779%);stroke-opacity:1;stroke-miterlimit:10;" d="M 198.308594 120.097656 L 198.128906 120.273438 L 198.308594 120.625 L 198.9375 120.886719 L 200.285156 121.109375 L 202.171875 121.019531 L 204.058594 120.273438 L 205.675781 118.691406 L 206.753906 116.539062 L 207.292969 113.988281 L 207.292969 111 L 206.753906 108.011719 L 205.855469 104.847656 L 204.597656 101.464844 L 203.609375 98.300781 L 202.800781 95.179688 L 202.351562 91.707031 L 202.441406 88.675781 L 202.890625 85.953125 L 203.96875 83.621094 L 205.226562 82.128906 L 206.574219 81.117188 L 207.652344 80.546875 L 208.101562 80.371094 L 207.832031 80.238281 L 206.933594 79.710938 L 205.765625 78.699219 L 204.507812 76.941406 L 203.519531 74.21875 L 202.980469 70.964844 L 202.710938 67.273438 L 202.890625 63.054688 L 203.160156 59.011719 L 203.609375 55.628906 L 204.058594 52.90625 L 204.507812 49.914062 L 204.957031 46.882812 L 205.585938 43.234375 L 206.304688 38.796875 L 207.023438 35.105469 L 207.742188 31.632812 L 208.28125 28.25 L 208.460938 25.527344 L 208.460938 23.152344 L 208.011719 21.085938 L 207.472656 19.460938 L 206.753906 18.1875 L 205.765625 17.132812 L 204.867188 16.472656 L 204.058594 16.035156 L 203.519531 15.769531 L 203.070312 15.683594 " transform="matrix(1,0,0,-1,0,159)"/>
<path style="fill:none;stroke-width:1.41;stroke-linecap:round;stroke-linejoin:round;stroke:rgb(19.999695%,19.999695%,79.998779%);stroke-opacity:1;stroke-miterlimit:10;" d="M 224.8125 83.886719 L 224.8125 84.148438 L 224.902344 84.414062 L 224.722656 84.851562 L 224.363281 85.378906 L 223.644531 85.953125 L 222.746094 86.390625 L 221.757812 86.433594 L 220.859375 86.082031 L 220.140625 85.292969 L 219.511719 84.195312 L 219.152344 82.917969 L 219.0625 81.46875 L 219.0625 80.105469 L 219.332031 78.921875 L 219.960938 77.867188 L 220.769531 77.207031 L 221.757812 76.855469 L 222.925781 76.855469 L 223.734375 76.941406 L 224.363281 77.164062 L 224.8125 77.382812 L 225.171875 77.644531 " transform="matrix(1,0,0,-1,0,159)"/>
<path style="fill:none;stroke-width:1.41;stroke-linecap:round;stroke-linejoin:round;stroke:rgb(19.999695%,19.999695%,79.998779%);stroke-opacity:1;stroke-miterlimit:10;" d="M 231.550781 84.324219 L 231.28125 84.589844 L 231.101562 84.765625 L 230.652344 84.941406 L 230.113281 84.765625 L 229.484375 84.238281 L 228.765625 83.359375 L 228.136719 81.953125 L 227.957031 80.414062 L 228.226562 78.921875 L 229.125 77.820312 L 230.292969 77.515625 L 231.550781 77.953125 L 232.539062 79.183594 L 232.898438 80.765625 L 232.71875 82.257812 L 232.359375 83.445312 L 232 84.105469 L 231.730469 84.414062 " transform="matrix(1,0,0,-1,0,159)"/>
<path style="fill:none;stroke-width:1.41;stroke-linecap:round;stroke-linejoin:round;stroke:rgb(19.999695%,19.999695%,79.998779%);stroke-opacity:1;stroke-miterlimit:10;" d="M 236.851562 84.546875 L 236.851562 82.65625 L 237.03125 78.875 L 237.03125 77.558594 L 236.941406 77.117188 L 236.941406 77.953125 L 237.210938 79.667969 L 237.75 81.863281 L 238.648438 83.664062 L 239.726562 84.105469 L 240.625 83.007812 L 241.253906 80.851562 L 241.433594 78.789062 L 241.433594 77.777344 L 241.523438 78.390625 L 241.792969 80.105469 L 242.421875 81.863281 L 243.230469 82.609375 L 244.039062 81.953125 L 244.667969 80.5 L 245.027344 78.921875 L 245.027344 76.371094 " transform="matrix(1,0,0,-1,0,159)"/>
<path style="fill:none;stroke-width:1.41;stroke-linecap:round;stroke-linejoin:round;stroke:rgb(19.999695%,19.999695%,79.998779%);stroke-opacity:1;stroke-miterlimit:10;" d="M 247.632812 81.820312 L 247.542969 81.203125 L 247.542969 79.183594 L 247.632812 76.8125 L 247.8125 74.351562 L 247.902344 72.328125 L 247.902344 71.273438 L 247.8125 70.351562 L 247.722656 69.601562 L 247.632812 69.078125 L 247.542969 68.855469 " transform="matrix(1,0,0,-1,0,159)"/>
<path style="fill:none;stroke-width:1.41;stroke-linecap:round;stroke-linejoin:round;stroke:rgb(19.999695%,19.999695%,79.998779%);stroke-opacity:1;stroke-miterlimit:10;" d="M 247.453125 75.535156 L 247.542969 77.558594 L 247.992188 79.886719 L 248.800781 82.039062 L 250.058594 83.269531 L 251.496094 83.140625 L 252.484375 81.601562 L 252.664062 79.578125 L 252.125 77.644531 L 250.957031 76.371094 L 249.789062 75.929688 L 248.890625 75.976562 L 248.441406 76.195312 " transform="matrix(1,0,0,-1,0,159)"/>
<path style="fill:none;stroke-width:1.41;stroke-linecap:round;stroke-linejoin:round;stroke:rgb(19.999695%,19.999695%,79.998779%);stroke-opacity:1;stroke-miterlimit:10;" d="M 259.492188 83.972656 L 259.3125 84.414062 L 259.042969 84.765625 L 258.59375 84.675781 L 257.875 84.015625 L 256.976562 82.832031 L 256.257812 81.25 L 256.167969 79.578125 L 256.796875 78.390625 L 258.054688 77.820312 L 259.492188 78.085938 L 260.390625 79.140625 L 260.75 80.679688 L 260.480469 82.214844 L 260.210938 83.402344 L 259.851562 84.195312 L 259.761719 84.5 " transform="matrix(1,0,0,-1,0,159)"/>
<path style="fill:none;stroke-width:1.41;stroke-linecap:round;stroke-linejoin:round;stroke:rgb(19.999695%,19.999695%,79.998779%);stroke-opacity:1;stroke-miterlimit:10;" d="M 265.152344 85.996094 L 264.882812 85.863281 L 264.882812 78.570312 L 264.792969 77.777344 L 264.882812 78.171875 L 265.332031 80.019531 L 265.960938 82.566406 L 266.859375 85.027344 L 267.847656 86.476562 L 268.746094 86.171875 L 269.375 84.324219 L 269.644531 81.335938 L 269.644531 78.699219 L 269.554688 76.722656 L 269.464844 75.667969 L 269.644531 75.84375 " transform="matrix(1,0,0,-1,0,159)"/>
<path style="fill:none;stroke-width:1.41;stroke-linecap:round;stroke-linejoin:round;stroke:rgb(19.999695%,19.999695%,79.998779%);stroke-opacity:1;stroke-miterlimit:10;" d="M 274.765625 81.25 L 275.125 81.292969 L 275.933594 81.511719 L 277.011719 82.039062 L 277.910156 83.050781 L 278 84.148438 L 277.550781 85.070312 L 276.382812 85.378906 L 275.125 84.71875 L 273.867188 83.140625 L 272.96875 80.984375 L 272.96875 78.921875 L 273.777344 77.425781 L 275.304688 76.722656 L 276.652344 76.722656 L 277.820312 76.941406 L 278.449219 77.382812 L 278.628906 77.734375 " transform="matrix(1,0,0,-1,0,159)"/>
<path style="fill:none;stroke-width:1.41;stroke-linecap:round;stroke-linejoin:round;stroke:rgb(19.999695%,19.999695%,79.998779%);stroke-opacity:1;stroke-miterlimit:10;" d="M 281.773438 83.710938 L 281.414062 83.710938 L 281.324219 82.917969 L 281.144531 81.511719 L 281.054688 79.886719 L 280.964844 78.613281 L 281.414062 80.414062 L 282.222656 82.523438 L 283.390625 84.105469 L 284.648438 84.195312 L 285.457031 82.832031 L 285.996094 80.765625 L 286.085938 78.921875 L 285.996094 77.820312 L 285.90625 77.292969 " transform="matrix(1,0,0,-1,0,159)"/>
<path style="fill:none;stroke-width:1.41;stroke-linecap:round;stroke-linejoin:round;stroke:rgb(19.999695%,19.999695%,79.998779%);stroke-opacity:1;stroke-miterlimit:10;" d="M 290.398438 92.453125 L 290.578125 92.632812 L 290.757812 92.410156 L 290.9375 91.269531 L 290.847656 88.675781 L 290.578125 85.730469 L 290.308594 82.875 L 289.859375 79.976562 L 289.859375 78.304688 L 290.128906 76.984375 L 290.667969 76.109375 L 291.386719 76.152344 L 291.925781 76.503906 L 292.285156 77.03125 L 292.464844 77.734375 " transform="matrix(1,0,0,-1,0,159)"/>
<path style="fill:none;stroke-width:1.41;stroke-linecap:round;stroke-linejoin:round;stroke:rgb(19.999695%,19.999695%,79.998779%);stroke-opacity:1;stroke-miterlimit:10;" d="M 287.613281 85.730469 L 287.253906 86.125 L 286.984375 86.433594 L 287.164062 86.699219 L 288.0625 86.828125 L 289.410156 86.828125 L 290.9375 86.785156 L 292.105469 86.699219 L 292.734375 86.609375 " transform="matrix(1,0,0,-1,0,159)"/>
<path style="fill:none;stroke-width:1.41;stroke-linecap:round;stroke-linejoin:round;stroke:rgb(19.999695%,19.999695%,79.998779%);stroke-opacity:1;stroke-miterlimit:10;" d="M 300.640625 83.578125 L 300.640625 84.0625 L 300.550781 84.632812 L 300.191406 85.511719 L 299.472656 86.214844 L 298.574219 86.566406 L 297.496094 86.390625 L 296.6875 85.554688 L 296.507812 84.414062 L 297.046875 83.183594 L 298.125 82.257812 L 299.292969 81.554688 L 300.371094 80.898438 L 301 80.328125 L 301.359375 79.753906 L 301.539062 79.140625 L 301.359375 78.699219 L 301.089844 78.347656 L 300.730469 78.171875 L 299.921875 78.039062 L 298.664062 78.171875 L 297.316406 78.480469 L 295.96875 78.875 L 295.160156 79.273438 L 294.980469 79.625 " transform="matrix(1,0,0,-1,0,159)"/>
</g>
</svg>
