<?xml version="1.0" encoding="UTF-8"?>
<svg xmlns="http://www.w3.org/2000/svg" xmlns:xlink="http://www.w3.org/1999/xlink" width="258.48pt" height="73.39pt" viewBox="0 0 258.48 73.39" version="1.1">
<g id="surface1">
<path style="fill:none;stroke-width:1.41;stroke-linecap:round;stroke-linejoin:round;stroke:rgb(0%,0%,0%);stroke-opacity:1;stroke-miterlimit:10;" d="M 71.878906 36.350938 L 71.699219 36.831406 L 71.609375 37.179063 L 71.429688 37.67125 L 71.339844 38.018906 L 71.160156 38.370469 L 70.710938 38.679063 L 70.078125 38.718125 L 69.269531 38.151719 L 68.550781 37.268906 L 68.011719 36.17125 L 68.011719 34.499375 L 68.460938 33.268906 L 69.089844 32.128281 L 70.351562 31.210313 L 71.609375 31.069688 L 72.769531 31.210313 L 74.300781 31.729844 " transform="matrix(1,0,0,-1,0,73.39)"/>
<path style="fill:none;stroke-width:1.41;stroke-linecap:round;stroke-linejoin:round;stroke:rgb(0%,0%,0%);stroke-opacity:1;stroke-miterlimit:10;" d="M 79.960938 36.651719 L 79.691406 37.050156 L 79.328125 37.268906 L 78.878906 37.491563 L 78.441406 37.800156 L 77.71875 37.929063 L 77 37.67125 L 76.371094 37.14 L 76.101562 35.948594 L 76.28125 34.679063 L 76.910156 33.620469 L 77.988281 32.878281 L 79.058594 32.92125 L 80.050781 33.35875 L 80.679688 34.331406 L 80.769531 35.288438 L 80.679688 36.210313 L 80.5 37.179063 L 80.320312 37.710313 L 80.050781 38.151719 L 79.871094 38.460313 " transform="matrix(1,0,0,-1,0,73.39)"/>
<path style="fill:none;stroke-width:1.41;stroke-linecap:round;stroke-linejoin:round;stroke:rgb(0%,0%,0%);stroke-opacity:1;stroke-miterlimit:10;" d="M 83.46875 33.14 L 83.109375 33.089219 L 82.839844 33.311875 L 82.660156 34.10875 L 82.839844 35.42125 L 83.378906 36.831406 L 84.101562 38.100938 L 85.078125 38.460313 L 85.890625 38.018906 L 86.429688 37.14 L 86.96875 35.468125 L 87.148438 34.018906 L 87.238281 32.788438 L 87.601562 31.909531 " transform="matrix(1,0,0,-1,0,73.39)"/>
<path style="fill:none;stroke-width:1.41;stroke-linecap:round;stroke-linejoin:round;stroke:rgb(0%,0%,0%);stroke-opacity:1;stroke-miterlimit:10;" d="M 93.980469 35.948594 L 93.800781 36.698594 L 93.53125 37.35875 L 93.351562 37.929063 L 93.171875 38.460313 L 92.988281 38.718125 L 92.449219 38.811875 L 92.089844 38.589219 L 91.640625 38.241563 L 90.738281 37.011094 L 90.199219 35.42125 L 90.199219 33.710313 L 90.738281 32.038438 L 91.910156 31.288438 L 93.078125 31.030625 L 94.160156 31.210313 L 95.058594 31.64 " transform="matrix(1,0,0,-1,0,73.39)"/>
<path style="fill:none;stroke-width:1.41;stroke-linecap:round;stroke-linejoin:round;stroke:rgb(0%,0%,0%);stroke-opacity:1;stroke-miterlimit:10;" d="M 97.929688 35.819688 L 97.660156 36.128281 L 97.480469 36.429063 L 97.300781 36.92125 L 97.300781 37.581406 L 98.019531 38.190781 L 99.011719 38.280625 L 100.179688 37.491563 L 101.171875 35.729844 L 101.53125 33.67125 L 101.53125 31.378281 L 101.441406 31.780625 L 101.261719 32.479844 L 100.988281 33.229844 L 100.359375 33.710313 L 99.460938 33.800156 L 98.378906 33.491563 L 97.300781 33.050156 L 96.671875 32.479844 L 96.578125 31.600938 L 97.210938 30.901719 L 98.289062 30.370469 L 99.460938 30.061875 L 100.539062 30.241563 L 101.351562 30.811875 L 102.238281 31.780625 " transform="matrix(1,0,0,-1,0,73.39)"/>
<path style="fill:none;stroke-width:1.41;stroke-linecap:round;stroke-linejoin:round;stroke:rgb(0%,0%,0%);stroke-opacity:1;stroke-miterlimit:10;" d="M 107.101562 44.39 L 106.921875 44.561875 L 106.738281 44.39 L 106.648438 43.991563 L 106.558594 43.198594 L 106.558594 42.151719 L 106.378906 40.479844 L 106.109375 38.319688 L 105.929688 35.64 L 106.019531 33.179063 L 106.558594 31.42125 L 107.359375 30.550156 L 108.351562 30.718125 L 109.160156 31.120469 L 109.699219 31.729844 L 109.878906 32.39 " transform="matrix(1,0,0,-1,0,73.39)"/>
<path style="fill:none;stroke-width:1.41;stroke-linecap:round;stroke-linejoin:round;stroke:rgb(0%,0%,0%);stroke-opacity:1;stroke-miterlimit:10;" d="M 103.050781 38.499375 L 103.230469 38.850938 L 104.21875 39.120469 L 105.75 39.249375 L 107.449219 39.331406 L 109.25 39.42125 " transform="matrix(1,0,0,-1,0,73.39)"/>
<path style="fill:none;stroke-width:1.41;stroke-linecap:round;stroke-linejoin:round;stroke:rgb(0%,0%,0%);stroke-opacity:1;stroke-miterlimit:10;" d="M 112.308594 35.198594 L 112.488281 35.42125 L 113.558594 35.64 L 114.820312 35.729844 L 116.171875 35.909531 L 117.429688 35.948594 L 117.96875 35.909531 L 118.421875 35.909531 " transform="matrix(1,0,0,-1,0,73.39)"/>
<path style="fill:none;stroke-width:1.41;stroke-linecap:round;stroke-linejoin:round;stroke:rgb(0%,0%,0%);stroke-opacity:1;stroke-miterlimit:10;" d="M 122.191406 41.268906 L 122.101562 41.659531 L 121.921875 41.929063 L 121.828125 42.151719 " transform="matrix(1,0,0,-1,0,73.39)"/>
<path style="fill:none;stroke-width:1.41;stroke-linecap:round;stroke-linejoin:round;stroke:rgb(0%,0%,0%);stroke-opacity:1;stroke-miterlimit:10;" d="M 122.820312 39.64 L 122.550781 38.100938 L 122.371094 36.300156 L 122.28125 34.409531 L 122.28125 32.659531 L 122.550781 32.081406 " transform="matrix(1,0,0,-1,0,73.39)"/>
<path style="fill:none;stroke-width:1.41;stroke-linecap:round;stroke-linejoin:round;stroke:rgb(0%,0%,0%);stroke-opacity:1;stroke-miterlimit:10;" d="M 126.589844 33.35875 L 126.5 34.460313 L 126.949219 36.081406 L 127.851562 37.749375 L 129.109375 38.679063 L 130.191406 37.929063 L 130.988281 36.210313 L 131.351562 34.499375 L 131.621094 33.179063 L 132.070312 32.878281 " transform="matrix(1,0,0,-1,0,73.39)"/>
<path style="fill:none;stroke-width:1.41;stroke-linecap:round;stroke-linejoin:round;stroke:rgb(0%,0%,0%);stroke-opacity:1;stroke-miterlimit:10;" d="M 139.710938 37.491563 L 139.261719 38.190781 L 138.628906 38.940781 L 137.820312 39.249375 L 136.828125 38.979844 L 135.761719 37.929063 L 134.859375 36.081406 L 134.679688 34.10875 L 135.308594 32.878281 L 136.378906 33.011094 L 137.550781 34.679063 L 138.359375 36.92125 L 138.808594 39.331406 L 138.898438 41.35875 L 138.898438 42.761094 L 138.808594 44.300156 L 138.71875 45.440781 L 138.628906 46.011094 L 138.71875 45.050156 L 138.808594 43.331406 L 139.171875 40.39 L 139.710938 36.92125 L 140.25 33.710313 L 141.148438 31.511094 " transform="matrix(1,0,0,-1,0,73.39)"/>
<path style="fill:none;stroke-width:1.41;stroke-linecap:round;stroke-linejoin:round;stroke:rgb(0%,0%,0%);stroke-opacity:1;stroke-miterlimit:10;" d="M 143.75 36.17125 L 144.109375 36.39 L 144.738281 36.60875 L 145.550781 37.050156 L 146.089844 37.67125 L 146.269531 38.679063 L 146 39.729844 L 145.191406 40.39 L 144.019531 40.081406 L 143.03125 39.198594 L 142.398438 37.800156 L 142.21875 35.948594 L 142.851562 34.628281 L 143.75 33.491563 L 144.738281 32.831406 L 145.550781 32.741563 L 146.089844 32.878281 L 146.628906 33.089219 " transform="matrix(1,0,0,-1,0,73.39)"/>
<path style="fill:none;stroke-width:1.41;stroke-linecap:round;stroke-linejoin:round;stroke:rgb(0%,0%,0%);stroke-opacity:1;stroke-miterlimit:10;" d="M 156.511719 44.038438 L 156.328125 45.268906 L 156.058594 46.190781 L 155.609375 47.10875 L 154.980469 47.729844 L 154.261719 47.901719 L 153.539062 47.948594 L 152.738281 46.940781 L 152.199219 44.960313 L 152.019531 42.151719 L 151.929688 38.460313 L 152.109375 35.468125 L 152.289062 33.448594 L 152.378906 32.39 L 152.378906 32.659531 " transform="matrix(1,0,0,-1,0,73.39)"/>
<path style="fill:none;stroke-width:1.41;stroke-linecap:round;stroke-linejoin:round;stroke:rgb(0%,0%,0%);stroke-opacity:1;stroke-miterlimit:10;" d="M 149.769531 39.85875 L 150.488281 40.300156 L 151.660156 40.518906 L 153.101562 40.60875 L 154.621094 40.479844 L 155.699219 40.518906 " transform="matrix(1,0,0,-1,0,73.39)"/>
<path style="fill:none;stroke-width:2.26;stroke-linecap:round;stroke-linejoin:round;stroke:rgb(0%,0%,0%);stroke-opacity:1;stroke-miterlimit:10;" d="M 56.78125 64.870469 L 61.871094 64.92125 L 66.960938 64.960313 L 77.140625 65.061875 L 82.21875 65.10875 L 87.308594 65.151719 L 92.398438 65.198594 L 102.578125 65.300156 L 107.671875 65.350938 L 112.761719 65.39 L 117.839844 65.440781 L 122.929688 65.491563 L 128.019531 65.538438 L 133.109375 65.589219 L 138.199219 65.628281 L 143.289062 65.679063 L 148.371094 65.729844 L 158.550781 65.831406 L 163.640625 65.870469 L 168.730469 65.92125 " transform="matrix(1,0,0,-1,0,73.39)"/>
<path style="fill:none;stroke-width:2.26;stroke-linecap:round;stroke-linejoin:round;stroke:rgb(0%,0%,0%);stroke-opacity:1;stroke-miterlimit:10;" d="M 58.851562 8.788438 L 64.089844 8.761094 L 69.320312 8.729844 L 74.558594 8.698594 L 79.800781 8.67125 L 85.03125 8.64 L 90.269531 8.600938 L 95.511719 8.569688 L 100.738281 8.538438 L 105.980469 8.511094 L 111.21875 8.479844 L 116.449219 8.448594 L 121.691406 8.42125 L 126.929688 8.378281 L 132.160156 8.350938 L 137.398438 8.319688 L 142.628906 8.288438 L 147.871094 8.261094 L 153.109375 8.229844 L 158.339844 8.198594 L 163.578125 8.17125 L 168.820312 8.128281 " transform="matrix(1,0,0,-1,0,73.39)"/>
<path style="fill:none;stroke-width:2.26;stroke-linecap:round;stroke-linejoin:round;stroke:rgb(0%,0%,0%);stroke-opacity:1;stroke-miterlimit:10;" d="M 57.769531 63.811875 L 57.460938 56.518906 L 57.140625 49.218125 " transform="matrix(1,0,0,-1,0,73.39)"/>
<path style="fill:none;stroke-width:2.26;stroke-linecap:round;stroke-linejoin:round;stroke:rgb(0%,0%,0%);stroke-opacity:1;stroke-miterlimit:10;" d="M 57.320312 49.050156 L 62.621094 49.311875 " transform="matrix(1,0,0,-1,0,73.39)"/>
<path style="fill:none;stroke-width:2.26;stroke-linecap:round;stroke-linejoin:round;stroke:rgb(0%,0%,0%);stroke-opacity:1;stroke-miterlimit:10;" d="M 62.800781 49.569688 L 62.761719 43.620469 L 62.710938 37.67125 L 62.671875 31.710313 L 62.621094 25.761094 " transform="matrix(1,0,0,-1,0,73.39)"/>
<path style="fill:none;stroke-width:2.26;stroke-linecap:round;stroke-linejoin:round;stroke:rgb(0%,0%,0%);stroke-opacity:1;stroke-miterlimit:10;" d="M 62.441406 24.92125 L 57.949219 25.538438 " transform="matrix(1,0,0,-1,0,73.39)"/>
<path style="fill:none;stroke-width:2.26;stroke-linecap:round;stroke-linejoin:round;stroke:rgb(0%,0%,0%);stroke-opacity:1;stroke-miterlimit:10;" d="M 58.039062 25.620469 L 58.011719 19.909531 L 57.980469 14.198594 L 57.949219 8.491563 " transform="matrix(1,0,0,-1,0,73.39)"/>
<path style="fill:none;stroke-width:2.26;stroke-linecap:round;stroke-linejoin:round;stroke:rgb(0%,0%,0%);stroke-opacity:1;stroke-miterlimit:10;" d="M 169.71875 66.448594 L 169.78125 54.409531 L 169.808594 48.39 " transform="matrix(1,0,0,-1,0,73.39)"/>
<path style="fill:none;stroke-width:2.26;stroke-linecap:round;stroke-linejoin:round;stroke:rgb(0%,0%,0%);stroke-opacity:1;stroke-miterlimit:10;" d="M 169.898438 48.60875 L 175.46875 48.210313 " transform="matrix(1,0,0,-1,0,73.39)"/>
<path style="fill:none;stroke-width:2.26;stroke-linecap:round;stroke-linejoin:round;stroke:rgb(0%,0%,0%);stroke-opacity:1;stroke-miterlimit:10;" d="M 175.378906 48.081406 L 175.140625 41.550156 L 174.898438 35.011094 L 174.660156 28.479844 " transform="matrix(1,0,0,-1,0,73.39)"/>
<path style="fill:none;stroke-width:2.26;stroke-linecap:round;stroke-linejoin:round;stroke:rgb(0%,0%,0%);stroke-opacity:1;stroke-miterlimit:10;" d="M 174.570312 27.651719 L 169.71875 27.339219 " transform="matrix(1,0,0,-1,0,73.39)"/>
<path style="fill:none;stroke-width:2.26;stroke-linecap:round;stroke-linejoin:round;stroke:rgb(0%,0%,0%);stroke-opacity:1;stroke-miterlimit:10;" d="M 169.449219 27.378281 L 169.511719 21.050156 L 169.570312 14.729844 L 169.628906 8.401719 " transform="matrix(1,0,0,-1,0,73.39)"/>
<path style="fill:none;stroke-width:1.41;stroke-linecap:round;stroke-linejoin:round;stroke:rgb(0%,0%,0%);stroke-opacity:1;stroke-miterlimit:10;" d="M 18.238281 41.440781 L 18.421875 41.659531 L 18.148438 42.280625 L 17.429688 42.850938 L 16.171875 43.249375 L 14.648438 43.288438 L 13.300781 42.718125 L 12.578125 41.839219 L 12.851562 40.831406 L 14.199219 39.909531 L 15.71875 39.198594 L 17.339844 38.628281 L 18.691406 38.061875 L 19.589844 37.448594 L 20.308594 36.128281 L 20.761719 34.811875 L 20.851562 33.67125 L 20.671875 32.659531 L 20.398438 32.39 L 19.949219 32.17125 L 18.511719 32.128281 L 16.710938 32.440781 L 14.921875 32.960313 L 13.210938 33.67125 L 12.488281 34.331406 L 12.398438 34.901719 " transform="matrix(1,0,0,-1,0,73.39)"/>
<path style="fill:none;stroke-width:1.41;stroke-linecap:round;stroke-linejoin:round;stroke:rgb(0%,0%,0%);stroke-opacity:1;stroke-miterlimit:10;" d="M 24.351562 43.948594 L 24.351562 43.690781 L 24.53125 42.190781 L 24.621094 39.85875 L 24.710938 37.530625 L 24.710938 35.249375 L 24.800781 33.800156 L 25.25 33.089219 L 25.878906 32.60875 L 26.511719 32.350938 L 27.128906 32.350938 L 27.578125 32.569688 L 27.761719 32.788438 L 28.03125 33.229844 " transform="matrix(1,0,0,-1,0,73.39)"/>
<path style="fill:none;stroke-width:1.41;stroke-linecap:round;stroke-linejoin:round;stroke:rgb(0%,0%,0%);stroke-opacity:1;stroke-miterlimit:10;" d="M 22.28125 38.409531 L 22.011719 38.499375 L 22.460938 38.628281 L 23 38.718125 L 23.539062 38.761094 L 24.171875 38.940781 L 25.070312 39.120469 L 25.96875 39.331406 L 26.859375 39.511094 L 27.578125 39.690781 " transform="matrix(1,0,0,-1,0,73.39)"/>
<path style="fill:none;stroke-width:1.41;stroke-linecap:round;stroke-linejoin:round;stroke:rgb(0%,0%,0%);stroke-opacity:1;stroke-miterlimit:10;" d="M 30.101562 38.628281 L 30.011719 38.061875 L 30.011719 37.311875 L 30.371094 36.128281 L 30.730469 35.069688 L 31.089844 34.061875 L 31.269531 33.448594 L 31.359375 33.14 L 31.089844 33.67125 L 31.089844 34.940781 L 31.179688 36.651719 L 31.539062 38.538438 L 32.261719 39.85875 L 33.058594 40.518906 L 33.960938 40.741563 L 34.769531 40.741563 L 35.398438 40.518906 L 36.121094 40.038438 " transform="matrix(1,0,0,-1,0,73.39)"/>
<path style="fill:none;stroke-width:1.41;stroke-linecap:round;stroke-linejoin:round;stroke:rgb(0%,0%,0%);stroke-opacity:1;stroke-miterlimit:10;" d="M 207.628906 43.819688 L 207.628906 44.128281 L 207.539062 44.561875 L 207.269531 45.179063 L 206.730469 45.839219 L 205.828125 46.448594 L 204.671875 46.811875 L 203.230469 46.67125 L 201.96875 46.100938 L 200.890625 45.218125 L 199.988281 43.690781 L 199.539062 41.929063 L 199.539062 39.991563 L 199.808594 38.241563 L 200.261719 37.011094 L 200.890625 36.261094 L 201.519531 35.909531 L 202.238281 35.780625 L 203.140625 35.690781 L 204.308594 35.909531 L 205.46875 36.261094 L 206.460938 36.741563 L 207.269531 37.14 L 207.449219 37.311875 " transform="matrix(1,0,0,-1,0,73.39)"/>
<path style="fill:none;stroke-width:1.41;stroke-linecap:round;stroke-linejoin:round;stroke:rgb(0%,0%,0%);stroke-opacity:1;stroke-miterlimit:10;" d="M 212.210938 40.651719 L 212.210938 41.089219 L 212.03125 41.491563 L 211.671875 41.839219 L 211.21875 41.968125 L 210.601562 41.749375 L 209.878906 40.960313 L 209.699219 39.600938 L 209.699219 38.190781 L 210.058594 36.92125 L 210.511719 36.128281 L 211.128906 35.690781 L 212.03125 35.511094 L 213.199219 35.909531 L 214.191406 36.831406 L 214.820312 38.151719 L 214.910156 39.511094 L 214.640625 40.429063 L 214.28125 40.999375 L 213.921875 41.218125 " transform="matrix(1,0,0,-1,0,73.39)"/>
<path style="fill:none;stroke-width:1.41;stroke-linecap:round;stroke-linejoin:round;stroke:rgb(0%,0%,0%);stroke-opacity:1;stroke-miterlimit:10;" d="M 218.320312 36.741563 L 217.960938 37.491563 L 217.871094 38.811875 L 218.320312 40.429063 L 219.398438 41.530625 L 220.480469 41.749375 L 221.558594 41.311875 L 222.191406 40.261094 L 222.539062 39.249375 L 222.71875 38.061875 L 222.808594 37.011094 L 222.808594 36.081406 L 222.898438 35.42125 L 223.078125 35.600938 " transform="matrix(1,0,0,-1,0,73.39)"/>
<path style="fill:none;stroke-width:1.41;stroke-linecap:round;stroke-linejoin:round;stroke:rgb(0%,0%,0%);stroke-opacity:1;stroke-miterlimit:10;" d="M 229.550781 40.741563 L 229.101562 41.620469 L 228.738281 42.409531 L 228.019531 42.628281 L 227.21875 41.929063 L 226.589844 40.429063 L 225.960938 38.718125 L 225.871094 37.311875 L 226.230469 36.128281 L 226.859375 35.600938 L 227.578125 35.198594 L 228.46875 35.030625 L 229.101562 35.159531 L 229.640625 35.378281 L 230.179688 35.600938 L 230.71875 35.909531 " transform="matrix(1,0,0,-1,0,73.39)"/>
<path style="fill:none;stroke-width:1.41;stroke-linecap:round;stroke-linejoin:round;stroke:rgb(0%,0%,0%);stroke-opacity:1;stroke-miterlimit:10;" d="M 234.488281 41.35875 L 234.488281 42.061875 L 234.941406 42.811875 L 235.75 43.069688 L 236.558594 42.499375 L 237.191406 41.14 L 237.550781 39.468125 L 237.640625 37.968125 L 237.640625 36.870469 L 237.730469 36.479844 L 237.820312 36.92125 L 237.640625 37.530625 L 237.28125 38.190781 L 236.46875 38.538438 L 235.480469 38.589219 L 234.578125 38.319688 L 233.769531 37.67125 L 233.421875 36.870469 L 233.421875 36.17125 L 233.769531 35.378281 L 234.578125 34.811875 L 235.480469 34.718125 L 236.378906 34.850938 L 237.460938 35.819688 " transform="matrix(1,0,0,-1,0,73.39)"/>
<path style="fill:none;stroke-width:1.41;stroke-linecap:round;stroke-linejoin:round;stroke:rgb(0%,0%,0%);stroke-opacity:1;stroke-miterlimit:10;" d="M 242.851562 51.069688 L 242.851562 48.60875 L 242.941406 47.249375 L 242.941406 43.64 L 242.851562 41.839219 L 242.851562 39.991563 L 243.210938 38.319688 L 243.929688 36.960313 L 245.011719 36.60875 L 245.988281 36.569688 L 246.890625 36.92125 L 247.160156 37.620469 " transform="matrix(1,0,0,-1,0,73.39)"/>
<path style="fill:none;stroke-width:1.41;stroke-linecap:round;stroke-linejoin:round;stroke:rgb(0%,0%,0%);stroke-opacity:1;stroke-miterlimit:10;" d="M 240.601562 45.179063 L 241.050781 45.440781 L 242.578125 45.491563 L 244.738281 45.440781 L 246.980469 45.311875 L 248.601562 45.218125 L 249.589844 45.401719 " transform="matrix(1,0,0,-1,0,73.39)"/>
<path style="fill:none;stroke-width:2.26;stroke-linecap:round;stroke-linejoin:round;stroke:rgb(0%,0%,0%);stroke-opacity:1;stroke-miterlimit:10;" d="M 44.03125 37.311875 L 44.558594 37.050156 L 45.28125 36.960313 L 46.628906 36.870469 L 48.519531 36.788438 L 50.488281 36.698594 L 52.558594 36.60875 L 54.089844 36.569688 L 55.171875 36.518906 L 55.96875 36.479844 L 56.511719 36.518906 L 58.671875 36.518906 L 59.300781 36.569688 L 59.75 36.60875 L 60.109375 36.651719 L 60.378906 36.698594 L 60.738281 36.698594 L 61.101562 36.741563 L 61.359375 36.831406 L 61.71875 36.92125 L 61.988281 37.050156 " transform="matrix(1,0,0,-1,0,73.39)"/>
<path style="fill:none;stroke-width:2.26;stroke-linecap:round;stroke-linejoin:round;stroke:rgb(0%,0%,0%);stroke-opacity:1;stroke-miterlimit:10;" d="M 177.238281 38.901719 L 176.878906 38.679063 L 177.601562 38.589219 L 179.121094 38.628281 L 181.28125 38.761094 L 184.058594 39.030625 L 187.03125 39.331406 L 189.28125 39.600938 L 190.710938 39.768906 L 191.609375 39.85875 L 191.96875 39.85875 L 192.328125 39.819688 L 192.691406 39.768906 L 193.050781 39.768906 L 193.5 39.729844 L 193.859375 39.690781 " transform="matrix(1,0,0,-1,0,73.39)"/>
</g>
</svg>
