<?xml version="1.0" encoding="UTF-8"?>
<svg xmlns="http://www.w3.org/2000/svg" xmlns:xlink="http://www.w3.org/1999/xlink" width="517.86pt" height="149.77pt" viewBox="0 0 517.86 149.77" version="1.1">
<g id="surface1">
<path style="fill:none;stroke-width:1.41;stroke-linecap:round;stroke-linejoin:round;stroke:rgb(0%,0%,0%);stroke-opacity:1;stroke-miterlimit:10;" d="M 195.089844 69.250469 L 194.910156 69.730937 L 194.820312 70.078594 L 194.640625 70.559062 L 194.558594 70.918437 L 194.378906 71.27 L 193.929688 71.570781 L 193.300781 71.621562 L 192.488281 71.05125 L 191.769531 70.168437 L 191.230469 69.070781 L 191.230469 67.398906 L 191.679688 66.168437 L 192.308594 65.031719 L 193.570312 64.098125 L 194.820312 63.969219 L 195.988281 64.098125 L 197.519531 64.629375 " transform="matrix(1,0,0,-1,0,149.77)"/>
<path style="fill:none;stroke-width:1.41;stroke-linecap:round;stroke-linejoin:round;stroke:rgb(0%,0%,0%);stroke-opacity:1;stroke-miterlimit:10;" d="M 203.179688 69.55125 L 202.910156 69.949687 L 202.550781 70.168437 L 202.101562 70.391094 L 201.648438 70.699687 L 200.929688 70.828594 L 200.21875 70.559062 L 199.589844 70.039531 L 199.320312 68.848125 L 199.5 67.578594 L 200.128906 66.52 L 201.199219 65.77 L 202.28125 65.820781 L 203.269531 66.258281 L 203.898438 67.219219 L 203.988281 68.191875 L 203.898438 69.109844 L 203.71875 70.078594 L 203.539062 70.609844 L 203.269531 71.05125 L 203.089844 71.348125 " transform="matrix(1,0,0,-1,0,149.77)"/>
<path style="fill:none;stroke-width:1.41;stroke-linecap:round;stroke-linejoin:round;stroke:rgb(0%,0%,0%);stroke-opacity:1;stroke-miterlimit:10;" d="M 206.679688 66.039531 L 206.320312 65.98875 L 206.058594 66.211406 L 205.878906 67.000469 L 206.058594 68.320781 L 206.589844 69.730937 L 207.308594 71.000469 L 208.300781 71.348125 L 209.109375 70.918437 L 209.648438 70.039531 L 210.191406 68.371562 L 210.371094 66.918437 L 210.460938 65.691875 L 210.820312 64.809062 " transform="matrix(1,0,0,-1,0,149.77)"/>
<path style="fill:none;stroke-width:1.41;stroke-linecap:round;stroke-linejoin:round;stroke:rgb(0%,0%,0%);stroke-opacity:1;stroke-miterlimit:10;" d="M 217.199219 68.848125 L 217.019531 69.598125 L 216.75 70.258281 L 216.570312 70.828594 L 216.390625 71.348125 L 216.210938 71.621562 L 215.671875 71.711406 L 215.308594 71.48875 L 214.859375 71.141094 L 213.960938 69.898906 L 213.421875 68.320781 L 213.421875 66.609844 L 213.960938 64.941875 L 215.128906 64.191875 L 216.300781 63.930156 L 217.378906 64.098125 L 218.269531 64.539531 " transform="matrix(1,0,0,-1,0,149.77)"/>
<path style="fill:none;stroke-width:1.41;stroke-linecap:round;stroke-linejoin:round;stroke:rgb(0%,0%,0%);stroke-opacity:1;stroke-miterlimit:10;" d="M 221.148438 68.719219 L 220.878906 69.031719 L 220.699219 69.328594 L 220.519531 69.820781 L 220.519531 70.480937 L 221.238281 71.090312 L 222.230469 71.180156 L 223.390625 70.391094 L 224.378906 68.629375 L 224.738281 66.559062 L 224.738281 64.281719 L 224.648438 64.680156 L 224.46875 65.379375 L 224.199219 66.129375 L 223.570312 66.609844 L 222.679688 66.699687 L 221.601562 66.391094 L 220.519531 65.949687 L 219.890625 65.379375 L 219.800781 64.500469 L 220.429688 63.80125 L 221.511719 63.27 L 222.679688 62.961406 L 223.75 63.141094 L 224.558594 63.711406 L 225.460938 64.680156 " transform="matrix(1,0,0,-1,0,149.77)"/>
<path style="fill:none;stroke-width:1.41;stroke-linecap:round;stroke-linejoin:round;stroke:rgb(0%,0%,0%);stroke-opacity:1;stroke-miterlimit:10;" d="M 230.308594 77.289531 L 230.128906 77.461406 L 229.949219 77.289531 L 229.859375 76.891094 L 229.769531 76.098125 L 229.769531 75.05125 L 229.589844 73.379375 L 229.320312 71.219219 L 229.140625 68.539531 L 229.230469 66.078594 L 229.769531 64.320781 L 230.578125 63.441875 L 231.570312 63.621562 L 232.378906 64.02 L 232.921875 64.629375 L 233.101562 65.289531 " transform="matrix(1,0,0,-1,0,149.77)"/>
<path style="fill:none;stroke-width:1.41;stroke-linecap:round;stroke-linejoin:round;stroke:rgb(0%,0%,0%);stroke-opacity:1;stroke-miterlimit:10;" d="M 226.269531 71.398906 L 226.449219 71.750469 L 227.441406 72.008281 L 228.96875 72.148906 L 230.671875 72.230937 L 232.46875 72.320781 " transform="matrix(1,0,0,-1,0,149.77)"/>
<path style="fill:none;stroke-width:1.41;stroke-linecap:round;stroke-linejoin:round;stroke:rgb(0%,0%,0%);stroke-opacity:1;stroke-miterlimit:10;" d="M 235.519531 68.098125 L 235.699219 68.320781 L 236.78125 68.539531 L 238.039062 68.629375 L 239.390625 68.809062 L 240.640625 68.848125 L 241.179688 68.809062 L 241.628906 68.809062 " transform="matrix(1,0,0,-1,0,149.77)"/>
<path style="fill:none;stroke-width:1.41;stroke-linecap:round;stroke-linejoin:round;stroke:rgb(0%,0%,0%);stroke-opacity:1;stroke-miterlimit:10;" d="M 245.410156 74.168437 L 245.320312 74.559062 L 245.140625 74.828594 L 245.050781 75.05125 " transform="matrix(1,0,0,-1,0,149.77)"/>
<path style="fill:none;stroke-width:1.41;stroke-linecap:round;stroke-linejoin:round;stroke:rgb(0%,0%,0%);stroke-opacity:1;stroke-miterlimit:10;" d="M 246.039062 72.539531 L 245.769531 71.000469 L 245.589844 69.199687 L 245.5 67.309062 L 245.5 65.55125 L 245.769531 64.980937 " transform="matrix(1,0,0,-1,0,149.77)"/>
<path style="fill:none;stroke-width:1.41;stroke-linecap:round;stroke-linejoin:round;stroke:rgb(0%,0%,0%);stroke-opacity:1;stroke-miterlimit:10;" d="M 249.808594 66.258281 L 249.71875 67.359844 L 250.171875 68.980937 L 251.070312 70.648906 L 252.320312 71.570781 L 253.398438 70.828594 L 254.210938 69.109844 L 254.570312 67.398906 L 254.839844 66.078594 L 255.289062 65.77 " transform="matrix(1,0,0,-1,0,149.77)"/>
<path style="fill:none;stroke-width:1.41;stroke-linecap:round;stroke-linejoin:round;stroke:rgb(0%,0%,0%);stroke-opacity:1;stroke-miterlimit:10;" d="M 262.929688 70.391094 L 262.480469 71.090312 L 261.851562 71.840312 L 261.039062 72.148906 L 260.050781 71.879375 L 258.96875 70.828594 L 258.070312 68.980937 L 257.890625 67.000469 L 258.519531 65.77 L 259.601562 65.910625 L 260.769531 67.578594 L 261.578125 69.820781 L 262.03125 72.230937 L 262.121094 74.258281 L 262.121094 75.660625 L 262.03125 77.199687 L 261.941406 78.340312 L 261.851562 78.910625 L 261.941406 77.949687 L 262.03125 76.230937 L 262.390625 73.289531 L 262.929688 69.820781 L 263.46875 66.609844 L 264.359375 64.410625 " transform="matrix(1,0,0,-1,0,149.77)"/>
<path style="fill:none;stroke-width:1.41;stroke-linecap:round;stroke-linejoin:round;stroke:rgb(0%,0%,0%);stroke-opacity:1;stroke-miterlimit:10;" d="M 266.96875 69.070781 L 267.328125 69.289531 L 267.960938 69.508281 L 268.769531 69.949687 L 269.308594 70.559062 L 269.480469 71.570781 L 269.21875 72.629375 L 268.410156 73.289531 L 267.238281 72.980937 L 266.25 72.098125 L 265.621094 70.699687 L 265.441406 68.848125 L 266.070312 67.531719 L 266.96875 66.391094 L 267.960938 65.730937 L 268.769531 65.641094 L 269.308594 65.77 L 269.839844 65.98875 " transform="matrix(1,0,0,-1,0,149.77)"/>
<path style="fill:none;stroke-width:1.41;stroke-linecap:round;stroke-linejoin:round;stroke:rgb(0%,0%,0%);stroke-opacity:1;stroke-miterlimit:10;" d="M 279.730469 76.941875 L 279.550781 78.168437 L 279.28125 79.090312 L 278.828125 80.008281 L 278.199219 80.629375 L 277.480469 80.80125 L 276.761719 80.848125 L 275.949219 79.840312 L 275.410156 77.859844 L 275.230469 75.05125 L 275.140625 71.348125 L 275.320312 68.371562 L 275.5 66.348125 L 275.589844 65.289531 L 275.589844 65.55125 " transform="matrix(1,0,0,-1,0,149.77)"/>
<path style="fill:none;stroke-width:1.41;stroke-linecap:round;stroke-linejoin:round;stroke:rgb(0%,0%,0%);stroke-opacity:1;stroke-miterlimit:10;" d="M 272.988281 72.758281 L 273.710938 73.199687 L 274.878906 73.418437 L 276.308594 73.508281 L 277.839844 73.379375 L 278.921875 73.418437 " transform="matrix(1,0,0,-1,0,149.77)"/>
<path style="fill:none;stroke-width:2.26;stroke-linecap:round;stroke-linejoin:round;stroke:rgb(0%,0%,0%);stroke-opacity:1;stroke-miterlimit:10;" d="M 180 97.77 L 185.089844 97.809062 L 195.269531 97.910625 L 200.351562 97.961406 L 205.441406 98.008281 L 210.53125 98.05125 L 215.621094 98.098125 L 225.800781 98.199687 L 230.878906 98.250469 L 235.96875 98.289531 L 251.238281 98.441875 L 256.328125 98.48875 L 261.421875 98.531719 L 266.5 98.578594 L 276.679688 98.680156 L 281.769531 98.719219 L 291.949219 98.820781 " transform="matrix(1,0,0,-1,0,149.77)"/>
<path style="fill:none;stroke-width:2.26;stroke-linecap:round;stroke-linejoin:round;stroke:rgb(0%,0%,0%);stroke-opacity:1;stroke-miterlimit:10;" d="M 182.070312 41.691875 L 187.300781 41.660625 L 192.539062 41.629375 L 197.78125 41.598125 L 203.011719 41.570781 L 208.25 41.531719 L 213.488281 41.500469 L 218.71875 41.469219 L 223.960938 41.441875 L 229.199219 41.410625 L 234.429688 41.379375 L 239.671875 41.348125 L 244.910156 41.320781 L 250.140625 41.281719 L 255.378906 41.250469 L 260.621094 41.219219 L 265.851562 41.191875 L 276.328125 41.129375 L 281.558594 41.098125 L 286.800781 41.059062 L 292.039062 41.031719 " transform="matrix(1,0,0,-1,0,149.77)"/>
<path style="fill:none;stroke-width:2.26;stroke-linecap:round;stroke-linejoin:round;stroke:rgb(0%,0%,0%);stroke-opacity:1;stroke-miterlimit:10;" d="M 180.988281 96.711406 L 180.671875 89.418437 L 180.359375 82.121562 " transform="matrix(1,0,0,-1,0,149.77)"/>
<path style="fill:none;stroke-width:2.26;stroke-linecap:round;stroke-linejoin:round;stroke:rgb(0%,0%,0%);stroke-opacity:1;stroke-miterlimit:10;" d="M 180.539062 81.949687 L 185.839844 82.211406 " transform="matrix(1,0,0,-1,0,149.77)"/>
<path style="fill:none;stroke-width:2.26;stroke-linecap:round;stroke-linejoin:round;stroke:rgb(0%,0%,0%);stroke-opacity:1;stroke-miterlimit:10;" d="M 186.019531 82.469219 L 185.980469 76.52 L 185.929688 70.559062 L 185.890625 64.609844 L 185.839844 58.648906 " transform="matrix(1,0,0,-1,0,149.77)"/>
<path style="fill:none;stroke-width:2.26;stroke-linecap:round;stroke-linejoin:round;stroke:rgb(0%,0%,0%);stroke-opacity:1;stroke-miterlimit:10;" d="M 185.660156 57.820781 L 181.171875 58.430156 " transform="matrix(1,0,0,-1,0,149.77)"/>
<path style="fill:none;stroke-width:2.26;stroke-linecap:round;stroke-linejoin:round;stroke:rgb(0%,0%,0%);stroke-opacity:1;stroke-miterlimit:10;" d="M 181.261719 58.52 L 181.199219 47.098125 L 181.171875 41.379375 " transform="matrix(1,0,0,-1,0,149.77)"/>
<path style="fill:none;stroke-width:2.26;stroke-linecap:round;stroke-linejoin:round;stroke:rgb(0%,0%,0%);stroke-opacity:1;stroke-miterlimit:10;" d="M 292.929688 99.348125 L 292.960938 93.328594 L 292.988281 87.309062 L 293.019531 81.289531 " transform="matrix(1,0,0,-1,0,149.77)"/>
<path style="fill:none;stroke-width:2.26;stroke-linecap:round;stroke-linejoin:round;stroke:rgb(0%,0%,0%);stroke-opacity:1;stroke-miterlimit:10;" d="M 293.109375 81.508281 L 298.679688 81.109844 " transform="matrix(1,0,0,-1,0,149.77)"/>
<path style="fill:none;stroke-width:2.26;stroke-linecap:round;stroke-linejoin:round;stroke:rgb(0%,0%,0%);stroke-opacity:1;stroke-miterlimit:10;" d="M 298.589844 80.980937 L 298.351562 74.449687 L 298.121094 67.910625 L 297.878906 61.379375 " transform="matrix(1,0,0,-1,0,149.77)"/>
<path style="fill:none;stroke-width:2.26;stroke-linecap:round;stroke-linejoin:round;stroke:rgb(0%,0%,0%);stroke-opacity:1;stroke-miterlimit:10;" d="M 297.789062 60.539531 L 292.929688 60.23875 " transform="matrix(1,0,0,-1,0,149.77)"/>
<path style="fill:none;stroke-width:2.26;stroke-linecap:round;stroke-linejoin:round;stroke:rgb(0%,0%,0%);stroke-opacity:1;stroke-miterlimit:10;" d="M 292.660156 60.281719 L 292.71875 53.949687 L 292.78125 47.621562 L 292.839844 41.30125 " transform="matrix(1,0,0,-1,0,149.77)"/>
<path style="fill:none;stroke-width:2.26;stroke-linecap:round;stroke-linejoin:round;stroke:rgb(0%,0%,0%);stroke-opacity:1;stroke-miterlimit:10;" d="M 23.449219 91.141094 L 33.910156 91.281719 L 39.140625 91.340312 L 44.371094 91.410625 L 49.601562 91.469219 L 54.828125 91.539531 L 60.058594 91.609844 L 65.289062 91.668437 L 70.519531 91.73875 L 75.75 91.80125 L 80.988281 91.871562 L 86.21875 91.941875 L 91.449219 92.000469 L 96.679688 92.070781 L 101.910156 92.129375 L 112.371094 92.27 L 117.601562 92.328594 " transform="matrix(1,0,0,-1,0,149.77)"/>
<path style="fill:none;stroke-width:2.26;stroke-linecap:round;stroke-linejoin:round;stroke:rgb(0%,0%,0%);stroke-opacity:1;stroke-miterlimit:10;" d="M 118.410156 92.680156 L 118.320312 86.570781 L 118.230469 80.469219 " transform="matrix(1,0,0,-1,0,149.77)"/>
<path style="fill:none;stroke-width:2.26;stroke-linecap:round;stroke-linejoin:round;stroke:rgb(0%,0%,0%);stroke-opacity:1;stroke-miterlimit:10;" d="M 118.140625 80.508281 L 124.429688 80.328594 " transform="matrix(1,0,0,-1,0,149.77)"/>
<path style="fill:none;stroke-width:2.26;stroke-linecap:round;stroke-linejoin:round;stroke:rgb(0%,0%,0%);stroke-opacity:1;stroke-miterlimit:10;" d="M 124.96875 80.199687 L 124.851562 73.539531 L 124.730469 66.871562 L 124.609375 60.211406 " transform="matrix(1,0,0,-1,0,149.77)"/>
<path style="fill:none;stroke-width:2.26;stroke-linecap:round;stroke-linejoin:round;stroke:rgb(0%,0%,0%);stroke-opacity:1;stroke-miterlimit:10;" d="M 124.519531 60.30125 L 118.859375 60.30125 " transform="matrix(1,0,0,-1,0,149.77)"/>
<path style="fill:none;stroke-width:2.26;stroke-linecap:round;stroke-linejoin:round;stroke:rgb(0%,0%,0%);stroke-opacity:1;stroke-miterlimit:10;" d="M 118.859375 60.379375 L 118.859375 51.199687 " transform="matrix(1,0,0,-1,0,149.77)"/>
<path style="fill:none;stroke-width:2.26;stroke-linecap:round;stroke-linejoin:round;stroke:rgb(0%,0%,0%);stroke-opacity:1;stroke-miterlimit:10;" d="M 118.320312 51.418437 L 113.089844 51.430156 L 107.871094 51.441875 L 102.640625 51.449687 L 97.421875 51.461406 L 92.191406 51.469219 L 86.96875 51.480937 L 81.738281 51.48875 L 76.511719 51.500469 L 71.289062 51.508281 L 66.058594 51.52 L 60.839844 51.531719 L 55.609375 51.539531 L 50.378906 51.55125 L 45.160156 51.55125 L 39.929688 51.559062 L 34.710938 51.570781 L 29.480469 51.578594 L 24.25 51.590312 " transform="matrix(1,0,0,-1,0,149.77)"/>
<path style="fill:none;stroke-width:2.26;stroke-linecap:round;stroke-linejoin:round;stroke:rgb(0%,0%,0%);stroke-opacity:1;stroke-miterlimit:10;" d="M 24.519531 51.77 L 24.398438 57.441875 L 24.269531 63.109844 L 24.140625 68.781719 L 24.011719 74.449687 L 23.878906 80.109844 L 23.75 85.781719 L 23.628906 91.449687 " transform="matrix(1,0,0,-1,0,149.77)"/>
<path style="fill:none;stroke-width:1.41;stroke-linecap:round;stroke-linejoin:round;stroke:rgb(0%,0%,0%);stroke-opacity:1;stroke-miterlimit:10;" d="M 34.050781 75.461406 L 33.871094 75.898906 L 33.421875 76.160625 L 32.699219 76.340312 L 31.800781 76.340312 L 31.171875 75.758281 L 30.988281 74.891094 L 31.800781 73.789531 L 33.148438 72.781719 L 34.679688 71.758281 L 35.75 70.668437 L 35.839844 69.570781 L 35.308594 68.641094 L 34.320312 67.98875 L 33.328125 67.98875 L 32.609375 68.250469 L 31.800781 68.598125 L 31.171875 68.949687 L 30.71875 69.348125 L 30.359375 69.789531 L 30.089844 70.180156 L 30 70.711406 " transform="matrix(1,0,0,-1,0,149.77)"/>
<path style="fill:none;stroke-width:1.41;stroke-linecap:round;stroke-linejoin:round;stroke:rgb(0%,0%,0%);stroke-opacity:1;stroke-miterlimit:10;" d="M 39.980469 81.078594 L 39.710938 80.691875 L 39.621094 79.23875 L 39.351562 76.469219 L 39.261719 73.30125 L 39.441406 70.48875 L 39.710938 68.508281 L 40.070312 67.898906 L 40.609375 67.680156 L 41.058594 67.848125 L 41.410156 68.031719 L 41.769531 68.379375 L 41.949219 68.820781 " transform="matrix(1,0,0,-1,0,149.77)"/>
<path style="fill:none;stroke-width:1.41;stroke-linecap:round;stroke-linejoin:round;stroke:rgb(0%,0%,0%);stroke-opacity:1;stroke-miterlimit:10;" d="M 36.46875 74.359844 L 36.46875 74.621562 L 37.011719 74.840312 L 38.359375 75.02 L 39.800781 75.098125 L 41.230469 75.148906 L 42.21875 75.191875 L 42.671875 75.281719 " transform="matrix(1,0,0,-1,0,149.77)"/>
<path style="fill:none;stroke-width:1.41;stroke-linecap:round;stroke-linejoin:round;stroke:rgb(0%,0%,0%);stroke-opacity:1;stroke-miterlimit:10;" d="M 44.46875 73.828594 L 44.378906 73.168437 L 44.378906 71.55125 L 44.558594 70.668437 L 44.738281 69.73875 L 44.828125 69.258281 L 45.101562 70.48875 L 45.910156 72.340312 L 46.898438 74.180156 L 47.96875 75.539531 L 48.960938 76.160625 L 49.679688 76.121562 L 50.21875 75.980937 L 51.03125 75.680156 " transform="matrix(1,0,0,-1,0,149.77)"/>
<path style="fill:none;stroke-width:1.41;stroke-linecap:round;stroke-linejoin:round;stroke:rgb(0%,0%,0%);stroke-opacity:1;stroke-miterlimit:10;" d="M 51.839844 71.059062 L 52.378906 71.109844 L 53.179688 71.191875 L 54.171875 71.23875 L 55.609375 71.23875 L 55.878906 71.371562 L 56.238281 71.680156 " transform="matrix(1,0,0,-1,0,149.77)"/>
<path style="fill:none;stroke-width:1.41;stroke-linecap:round;stroke-linejoin:round;stroke:rgb(0%,0%,0%);stroke-opacity:1;stroke-miterlimit:10;" d="M 60.28125 79.281719 L 60.101562 78.969219 L 60.011719 78.309062 L 59.921875 76.730937 L 59.921875 74.930156 L 59.828125 73.480937 L 59.828125 71.148906 L 60.191406 71.55125 L 61 72.340312 L 62.261719 72.859844 L 63.519531 72.730937 L 64.058594 71.590312 L 63.609375 70.141094 L 62.621094 69.039531 L 61.449219 68.598125 L 60.550781 68.859844 L 60.011719 69.348125 L 59.648438 70.008281 L 59.558594 70.930156 " transform="matrix(1,0,0,-1,0,149.77)"/>
<path style="fill:none;stroke-width:1.41;stroke-linecap:round;stroke-linejoin:round;stroke:rgb(0%,0%,0%);stroke-opacity:1;stroke-miterlimit:10;" d="M 67.828125 76.469219 L 67.648438 76.250469 L 67.378906 75.23875 L 67.378906 73.789531 L 67.558594 72.070781 L 68.28125 70.668437 L 69.269531 70.180156 L 70.160156 70.27 L 70.878906 70.80125 L 71.238281 71.809062 L 71.421875 72.949687 L 71.601562 74.05125 L 71.691406 74.969219 L 71.691406 71.809062 L 71.421875 68.910625 L 70.789062 66.27 L 69.628906 64.379375 L 68.101562 63.809062 L 66.839844 64.211406 L 65.941406 65.168437 L 65.761719 66.578594 " transform="matrix(1,0,0,-1,0,149.77)"/>
<path style="fill:none;stroke-width:1.41;stroke-linecap:round;stroke-linejoin:round;stroke:rgb(0%,0%,0%);stroke-opacity:1;stroke-miterlimit:10;" d="M 77.078125 79.148906 L 76.988281 79.371562 L 76.898438 79.059062 L 76.71875 77.73875 L 76.359375 75.191875 L 76 72.121562 L 75.820312 69.480937 L 76 67.809062 L 76.539062 67.55125 L 77.261719 67.848125 L 77.980469 68.730937 " transform="matrix(1,0,0,-1,0,149.77)"/>
<path style="fill:none;stroke-width:1.41;stroke-linecap:round;stroke-linejoin:round;stroke:rgb(0%,0%,0%);stroke-opacity:1;stroke-miterlimit:10;" d="M 74.570312 76.55125 L 74.300781 76.77 L 74.570312 76.910625 L 75.109375 76.820781 L 76.089844 76.691875 L 77.078125 76.598125 L 78.070312 76.55125 L 79.238281 76.469219 " transform="matrix(1,0,0,-1,0,149.77)"/>
<path style="fill:none;stroke-width:1.41;stroke-linecap:round;stroke-linejoin:round;stroke:rgb(0%,0%,0%);stroke-opacity:1;stroke-miterlimit:10;" d="M 80.589844 73.258281 L 80.859375 72.949687 L 81.570312 73.219219 L 82.558594 73.828594 L 83.191406 74.621562 L 83.460938 75.461406 L 82.921875 76.121562 L 82.019531 76.121562 L 80.949219 75.680156 L 80.050781 74.80125 L 79.511719 73.391094 L 79.511719 71.898906 L 80.140625 70.578594 L 81.039062 69.348125 L 82.109375 68.820781 L 83.011719 68.781719 L 83.820312 69.30125 " transform="matrix(1,0,0,-1,0,149.77)"/>
<path style="fill:none;stroke-width:1.41;stroke-linecap:round;stroke-linejoin:round;stroke:rgb(0%,0%,0%);stroke-opacity:1;stroke-miterlimit:10;" d="M 88.308594 75.02 L 87.679688 75.680156 L 86.789062 75.809062 L 85.890625 75.461406 L 85.351562 74.711406 L 85.261719 73.871562 L 85.53125 73.258281 L 86.070312 72.730937 L 87.058594 72.070781 L 87.949219 71.109844 L 88.578125 70.008281 L 88.761719 69.039531 L 88.488281 68.379375 L 87.769531 68.160625 L 87.058594 68.250469 L 86.339844 68.469219 L 85.621094 68.859844 L 85.078125 69.391094 L 84.808594 69.918437 L 84.808594 70.48875 " transform="matrix(1,0,0,-1,0,149.77)"/>
<path style="fill:none;stroke-width:1.41;stroke-linecap:round;stroke-linejoin:round;stroke:rgb(0%,0%,0%);stroke-opacity:1;stroke-miterlimit:10;" d="M 93.160156 79.539531 L 92.898438 78.969219 L 92.808594 77.961406 L 92.628906 76.469219 L 92.539062 74.840312 L 92.269531 72.641094 L 92.179688 70.668437 L 92.449219 69.30125 L 92.980469 68.289531 L 93.789062 68.121562 L 94.511719 68.289531 L 95.140625 68.781719 " transform="matrix(1,0,0,-1,0,149.77)"/>
<path style="fill:none;stroke-width:1.41;stroke-linecap:round;stroke-linejoin:round;stroke:rgb(0%,0%,0%);stroke-opacity:1;stroke-miterlimit:10;" d="M 90.378906 73.918437 L 90.378906 74.309062 L 90.648438 74.668437 L 91.550781 75.02 L 92.539062 75.059062 L 93.699219 75.23875 L 94.78125 75.320781 L 95.769531 75.410625 " transform="matrix(1,0,0,-1,0,149.77)"/>
<path style="fill:none;stroke-width:1.41;stroke-linecap:round;stroke-linejoin:round;stroke:rgb(0%,0%,0%);stroke-opacity:1;stroke-miterlimit:10;" d="M 96.671875 72.859844 L 96.761719 71.980937 L 96.941406 70.930156 L 97.210938 70.05125 L 97.300781 69.609844 L 97.121094 70.27 L 96.941406 70.891094 L 96.941406 72.340312 L 97.390625 74.05125 L 98.109375 75.719219 L 99 77.168437 L 100.078125 77.789531 " transform="matrix(1,0,0,-1,0,149.77)"/>
<path style="fill:none;stroke-width:1.41;stroke-linecap:round;stroke-linejoin:round;stroke:rgb(0%,0%,0%);stroke-opacity:1;stroke-miterlimit:10;" d="M 103.050781 78.359844 L 103.148438 78.359844 " transform="matrix(1,0,0,-1,0,149.77)"/>
<path style="fill:none;stroke-width:1.41;stroke-linecap:round;stroke-linejoin:round;stroke:rgb(0%,0%,0%);stroke-opacity:1;stroke-miterlimit:10;" d="M 103.050781 74.750469 L 102.691406 73.000469 L 102.421875 71.02 L 102.148438 69.129375 L 102.148438 67.809062 L 102.691406 67.77 " transform="matrix(1,0,0,-1,0,149.77)"/>
<path style="fill:none;stroke-width:1.41;stroke-linecap:round;stroke-linejoin:round;stroke:rgb(0%,0%,0%);stroke-opacity:1;stroke-miterlimit:10;" d="M 105.921875 69.660625 L 105.738281 70.359844 L 105.738281 71.55125 L 106.011719 73.219219 L 106.550781 74.359844 L 107.179688 75.148906 L 107.808594 74.80125 L 108.261719 73.30125 L 108.53125 71.55125 L 108.710938 69.828594 L 108.890625 68.949687 " transform="matrix(1,0,0,-1,0,149.77)"/>
<path style="fill:none;stroke-width:1.41;stroke-linecap:round;stroke-linejoin:round;stroke:rgb(0%,0%,0%);stroke-opacity:1;stroke-miterlimit:10;" d="M 113.738281 73.570781 L 113.648438 73.961406 L 113.46875 74.359844 L 113.199219 74.578594 L 112.570312 74.359844 L 111.941406 73.52 L 111.488281 71.980937 L 111.578125 70.230937 L 112.480469 69.078594 L 113.738281 68.859844 L 114.820312 69.699687 L 115.449219 71.23875 L 115.71875 72.730937 L 115.628906 73.52 L 115.539062 73.258281 L 115.539062 69.30125 L 115.359375 66.449687 L 114.910156 63.848125 L 113.921875 61.918437 L 112.480469 61.168437 L 111.039062 61.090312 L 109.699219 61.348125 L 108.800781 62.05125 " transform="matrix(1,0,0,-1,0,149.77)"/>
<path style="fill:none;stroke-width:2.26;stroke-linecap:round;stroke-linejoin:round;stroke:rgb(0%,0%,0%);stroke-opacity:1;stroke-miterlimit:10;" d="M 125.871094 71.191875 L 125.78125 70.969219 L 126.140625 70.80125 L 126.769531 70.621562 L 127.660156 70.48875 L 128.648438 70.398906 L 129.820312 70.398906 L 130.898438 70.449687 L 132.070312 70.531719 L 133.320312 70.668437 L 134.308594 70.80125 L 135.121094 70.840312 L 135.839844 70.840312 L 136.109375 70.80125 L 136.558594 70.750469 L 136.828125 70.750469 L 137.101562 70.711406 L 137.371094 70.668437 " transform="matrix(1,0,0,-1,0,149.77)"/>
<path style="fill:none;stroke-width:1.41;stroke-linecap:round;stroke-linejoin:round;stroke:rgb(0%,0%,0%);stroke-opacity:1;stroke-miterlimit:10;" d="M 147.339844 76.289531 L 147.25 76.730937 L 147.160156 76.98875 L 146.980469 77.30125 L 146.621094 77.871562 L 146.078125 78.309062 L 145.269531 78.621562 L 144.199219 78.621562 L 143.210938 78.05125 L 142.21875 77.129375 L 141.589844 76.199687 L 141.410156 75.410625 L 141.679688 74.750469 L 142.488281 74.180156 L 143.480469 73.52 L 144.648438 72.910625 L 146.078125 72.250469 L 147.339844 71.500469 L 148.421875 70.578594 L 149.320312 69.441875 L 149.589844 68.121562 L 149.050781 67.109844 L 147.96875 66.398906 L 146.261719 66.180156 L 144.648438 66.398906 L 143.210938 66.840312 L 142.21875 67.461406 L 141.769531 67.898906 L 141.589844 68.211406 " transform="matrix(1,0,0,-1,0,149.77)"/>
<path style="fill:none;stroke-width:1.41;stroke-linecap:round;stroke-linejoin:round;stroke:rgb(0%,0%,0%);stroke-opacity:1;stroke-miterlimit:10;" d="M 153.808594 78.660625 L 153.628906 78.840312 L 153.539062 78.219219 L 153.449219 76.820781 L 153.449219 74.621562 L 153.359375 72.031719 L 153.269531 69.918437 L 153.179688 68.340312 L 153.179688 67.328594 L 153.269531 66.578594 L 153.359375 65.961406 L 153.988281 65.660625 L 154.890625 65.609844 L 155.699219 65.73875 L 156.410156 66.05125 L 156.769531 66.48875 " transform="matrix(1,0,0,-1,0,149.77)"/>
<path style="fill:none;stroke-width:1.41;stroke-linecap:round;stroke-linejoin:round;stroke:rgb(0%,0%,0%);stroke-opacity:1;stroke-miterlimit:10;" d="M 150.398438 72.598125 L 150.570312 72.910625 L 151.199219 73.078594 L 152.371094 73.258281 L 153.449219 73.430156 L 154.441406 73.570781 L 155.160156 73.789531 L 155.519531 73.961406 " transform="matrix(1,0,0,-1,0,149.77)"/>
<path style="fill:none;stroke-width:1.41;stroke-linecap:round;stroke-linejoin:round;stroke:rgb(0%,0%,0%);stroke-opacity:1;stroke-miterlimit:10;" d="M 158.390625 72.340312 L 158.300781 71.898906 L 158.390625 71.371562 L 158.75 70.230937 L 159.019531 69.441875 L 159.289062 68.379375 L 159.558594 67.410625 L 159.738281 66.668437 L 159.648438 66.27 L 159.46875 66.48875 L 159.199219 67.371562 L 159.019531 68.781719 L 159.019531 70.27 L 159.558594 72.289531 L 160.28125 73.648906 L 161.179688 74.531719 L 162.429688 75.098125 L 163.421875 75.059062 L 164.320312 74.80125 L 165.128906 74.398906 L 165.488281 74.090312 L 165.761719 73.918437 " transform="matrix(1,0,0,-1,0,149.77)"/>
<path style="fill:none;stroke-width:2.26;stroke-linecap:round;stroke-linejoin:round;stroke:rgb(0%,0%,0%);stroke-opacity:1;stroke-miterlimit:10;" d="M 168.988281 70.359844 L 168.71875 70.141094 L 169.171875 70.141094 L 169.890625 70.230937 L 170.96875 70.309062 L 172.320312 70.359844 L 173.839844 70.449687 L 175.28125 70.398906 L 176.539062 70.309062 L 177.800781 70.230937 L 178.878906 70.141094 L 179.859375 70.098125 L 180.761719 70.008281 L 181.480469 70.008281 L 181.929688 69.961406 L 182.378906 69.918437 L 183.460938 69.918437 L 183.910156 69.961406 L 184.359375 70.008281 L 184.71875 70.05125 L 185.699219 70.05125 L 185.96875 70.008281 " transform="matrix(1,0,0,-1,0,149.77)"/>
<path style="fill:none;stroke-width:2.26;stroke-linecap:round;stroke-linejoin:round;stroke:rgb(0%,0%,0%);stroke-opacity:1;stroke-miterlimit:10;" d="M 15.179688 113.730937 L 374.558594 113.730937 " transform="matrix(1,0,0,-1,0,149.77)"/>
<path style="fill:none;stroke-width:2.26;stroke-linecap:round;stroke-linejoin:round;stroke:rgb(0%,0%,0%);stroke-opacity:1;stroke-miterlimit:10;" d="M 374.199219 113.910625 L 373.988281 98.160625 L 373.921875 92.910625 L 373.5 61.410625 L 373.441406 56.160625 L 373.300781 45.660625 " transform="matrix(1,0,0,-1,0,149.77)"/>
<path style="fill:none;stroke-width:2.26;stroke-linecap:round;stroke-linejoin:round;stroke:rgb(0%,0%,0%);stroke-opacity:1;stroke-miterlimit:10;" d="M 373.300781 45.660625 L 380.660156 45.531719 " transform="matrix(1,0,0,-1,0,149.77)"/>
<path style="fill:none;stroke-width:2.26;stroke-linecap:round;stroke-linejoin:round;stroke:rgb(0%,0%,0%);stroke-opacity:1;stroke-miterlimit:10;" d="M 380.839844 45.570781 L 380.691406 40.289531 L 380.53125 35.000469 L 380.371094 29.719219 L 380.21875 24.441875 " transform="matrix(1,0,0,-1,0,149.77)"/>
<path style="fill:none;stroke-width:2.26;stroke-linecap:round;stroke-linejoin:round;stroke:rgb(0%,0%,0%);stroke-opacity:1;stroke-miterlimit:10;" d="M 379.5 24.258281 L 373.300781 24.129375 " transform="matrix(1,0,0,-1,0,149.77)"/>
<path style="fill:none;stroke-width:2.26;stroke-linecap:round;stroke-linejoin:round;stroke:rgb(0%,0%,0%);stroke-opacity:1;stroke-miterlimit:10;" d="M 373.03125 23.949687 L 373.058594 17.980937 L 373.121094 6.02 " transform="matrix(1,0,0,-1,0,149.77)"/>
<path style="fill:none;stroke-width:2.26;stroke-linecap:round;stroke-linejoin:round;stroke:rgb(0%,0%,0%);stroke-opacity:1;stroke-miterlimit:10;" d="M 372.941406 7.031719 L 367.910156 7.070781 L 362.878906 7.098125 L 357.851562 7.129375 L 352.820312 7.160625 L 347.789062 7.199687 L 342.769531 7.230937 L 337.738281 7.258281 L 332.710938 7.30125 L 327.679688 7.328594 L 322.648438 7.359844 L 317.621094 7.391094 L 312.589844 7.430156 L 307.558594 7.461406 L 302.539062 7.48875 L 297.511719 7.531719 L 292.480469 7.559062 L 287.449219 7.590312 L 282.421875 7.621562 L 277.390625 7.660625 L 272.359375 7.691875 L 267.328125 7.719219 L 262.308594 7.758281 L 257.28125 7.789531 L 252.25 7.820781 L 247.21875 7.848125 L 242.191406 7.891094 L 237.160156 7.918437 L 232.128906 7.949687 L 227.109375 7.980937 L 222.078125 8.02 L 217.050781 8.05125 L 212.019531 8.078594 L 206.988281 8.121562 L 201.960938 8.148906 L 191.898438 8.211406 L 186.878906 8.250469 L 181.851562 8.281719 L 176.820312 8.309062 L 171.789062 8.348125 L 166.761719 8.379375 L 156.699219 8.441875 L 151.671875 8.480937 L 146.648438 8.508281 L 141.621094 8.539531 L 136.589844 8.578594 L 131.558594 8.609844 L 126.53125 8.641094 L 121.5 8.668437 L 116.46875 8.711406 L 111.441406 8.73875 L 106.421875 8.77 L 101.390625 8.80125 L 96.359375 8.840312 L 91.328125 8.871562 L 86.300781 8.898906 L 81.269531 8.941875 L 76.238281 8.969219 L 71.210938 9.000469 L 66.191406 9.031719 L 61.160156 9.070781 L 56.128906 9.098125 L 51.101562 9.129375 L 46.070312 9.168437 L 41.039062 9.199687 L 36.011719 9.230937 L 30.988281 9.258281 L 25.960938 9.30125 L 20.929688 9.328594 L 15.898438 9.359844 " transform="matrix(1,0,0,-1,0,149.77)"/>
<path style="fill:none;stroke-width:2.26;stroke-linecap:round;stroke-linejoin:round;stroke:rgb(0%,0%,0%);stroke-opacity:1;stroke-miterlimit:10;" d="M 15.808594 9.539531 L 15.75 14.77 L 15.691406 20.008281 L 15.628906 25.250469 L 15.578125 30.480937 L 15.519531 35.719219 L 15.460938 40.949687 L 15.398438 46.191875 L 15.339844 51.430156 L 15.28125 56.660625 L 15.230469 61.898906 L 15.171875 67.141094 L 15.109375 72.371562 L 15.050781 77.609844 L 14.988281 82.840312 L 14.929688 88.078594 L 14.871094 93.320781 L 14.820312 98.55125 L 14.761719 103.789531 L 14.699219 109.02 L 14.640625 114.258281 " transform="matrix(1,0,0,-1,0,149.77)"/>
<path style="fill:none;stroke-width:2.26;stroke-linecap:round;stroke-linejoin:round;stroke:rgb(0%,0%,0%);stroke-opacity:1;stroke-miterlimit:10;" d="M 299.089844 71.02 L 299.359375 70.711406 L 299.808594 70.668437 L 300.429688 70.621562 L 301.238281 70.621562 L 301.960938 70.668437 L 302.769531 70.711406 L 303.398438 70.80125 L 303.941406 70.891094 L 304.390625 70.930156 L 304.660156 70.930156 " transform="matrix(1,0,0,-1,0,149.77)"/>
<path style="fill:none;stroke-width:2.26;stroke-linecap:round;stroke-linejoin:round;stroke:rgb(0%,0%,0%);stroke-opacity:1;stroke-miterlimit:10;" d="M 354.609375 71.898906 L 354.609375 72.199687 L 355.238281 72.340312 L 356.140625 72.508281 L 357.21875 72.598125 L 358.378906 72.730937 L 359.191406 72.781719 L 359.730469 72.820781 L 360.089844 72.781719 L 360.359375 72.379375 L 360.449219 71.758281 L 360.539062 70.750469 L 360.449219 69.219219 L 360.449219 67.371562 L 360.359375 65.168437 L 360.269531 62.48875 L 360.179688 59.77 L 360 56.961406 L 359.820312 54.008281 L 359.730469 51.418437 L 359.550781 49.05125 L 359.460938 46.719219 L 359.460938 44.781719 L 359.550781 43.02 L 359.550781 41.441875 L 359.640625 40.258281 L 359.640625 39.250469 L 359.730469 38.320781 L 359.730469 37.578594 L 359.820312 36.918437 L 359.910156 36.430156 L 360.089844 36.168437 L 360.449219 35.910625 L 360.988281 35.730937 L 361.710938 35.598125 L 362.429688 35.508281 L 363.058594 35.379375 L 363.589844 35.289531 L 364.128906 35.289531 L 364.578125 35.250469 L 365.121094 35.199687 L 365.570312 35.199687 L 366.019531 35.160625 L 367.191406 35.160625 L 368.269531 35.070781 L 369.789062 35.070781 L 371.769531 35.031719 L 373.839844 34.980937 L 375.539062 34.980937 L 376.800781 34.941875 L 378.058594 34.980937 L 379.320312 35.031719 L 380.570312 35.070781 L 382.011719 35.160625 L 382.910156 35.250469 L 383.628906 35.289531 L 384.441406 35.328594 L 385.070312 35.379375 L 385.609375 35.508281 L 386.148438 35.598125 L 386.5 35.730937 L 386.949219 35.820781 L 387.308594 35.910625 L 387.671875 35.949687 L 387.941406 35.949687 " transform="matrix(1,0,0,-1,0,149.77)"/>
<path style="fill:none;stroke-width:1.41;stroke-linecap:round;stroke-linejoin:round;stroke:rgb(0%,0%,0%);stroke-opacity:1;stroke-miterlimit:10;" d="M 316.699219 74.359844 L 316.789062 74.578594 L 316.699219 74.80125 L 316.519531 75.059062 L 316.070312 75.500469 L 315.261719 75.898906 L 314.359375 76.121562 L 313.28125 75.898906 L 312.289062 75.191875 L 311.480469 74.05125 L 310.769531 72.418437 L 310.410156 70.578594 L 310.320312 68.730937 L 310.5 67.328594 L 310.859375 66.320781 L 311.128906 65.73875 L 311.570312 65.391094 L 312.199219 65.090312 L 313.28125 64.871562 L 314.539062 64.871562 L 315.800781 65.090312 L 316.96875 65.660625 L 317.589844 66.141094 L 318.039062 66.621562 L 318.308594 66.969219 " transform="matrix(1,0,0,-1,0,149.77)"/>
<path style="fill:none;stroke-width:1.41;stroke-linecap:round;stroke-linejoin:round;stroke:rgb(0%,0%,0%);stroke-opacity:1;stroke-miterlimit:10;" d="M 322.359375 70.48875 L 322 70.621562 L 321.640625 70.711406 L 321.191406 70.621562 L 320.558594 70.098125 L 319.929688 69.129375 L 319.660156 67.848125 L 319.929688 66.449687 L 320.921875 65.570781 L 322.269531 65.30125 L 323.429688 65.961406 L 324.058594 67.23875 L 324.058594 68.691875 L 323.699219 69.961406 L 323.160156 70.750469 L 322.898438 71.02 " transform="matrix(1,0,0,-1,0,149.77)"/>
<path style="fill:none;stroke-width:1.41;stroke-linecap:round;stroke-linejoin:round;stroke:rgb(0%,0%,0%);stroke-opacity:1;stroke-miterlimit:10;" d="M 327.210938 66.141094 L 326.851562 66.80125 L 326.851562 68.160625 L 327.300781 69.918437 L 328.199219 71.461406 L 329.179688 72.160625 L 330.171875 72.121562 L 330.710938 71.23875 L 331.070312 69.918437 L 331.160156 68.070781 L 331.25 66.398906 L 331.25 65.129375 L 331.339844 64.289531 " transform="matrix(1,0,0,-1,0,149.77)"/>
<path style="fill:none;stroke-width:1.41;stroke-linecap:round;stroke-linejoin:round;stroke:rgb(0%,0%,0%);stroke-opacity:1;stroke-miterlimit:10;" d="M 336.640625 71.328594 L 335.921875 71.55125 L 335.019531 71.328594 L 334.039062 70.621562 L 333.320312 69.73875 L 332.960938 68.289531 L 333.230469 66.80125 L 334.21875 65.699687 L 335.378906 64.871562 L 336.730469 64.871562 L 338.078125 65.30125 " transform="matrix(1,0,0,-1,0,149.77)"/>
<path style="fill:none;stroke-width:1.41;stroke-linecap:round;stroke-linejoin:round;stroke:rgb(0%,0%,0%);stroke-opacity:1;stroke-miterlimit:10;" d="M 339.339844 71.680156 L 339.160156 72.121562 L 339.25 72.418437 L 339.878906 72.641094 L 340.679688 72.598125 L 341.578125 72.289531 L 342.390625 71.629375 L 342.75 70.891094 L 343.019531 70.05125 L 343.199219 68.949687 L 343.289062 67.848125 L 343.199219 66.48875 L 343.199219 64.691875 L 343.199219 65.391094 L 342.839844 66.05125 L 342.390625 66.80125 L 341.851562 67.500469 L 341.308594 68.031719 L 340.5 68.070781 L 339.789062 67.55125 L 339.070312 66.840312 L 338.53125 65.961406 L 338.441406 65.168437 L 338.621094 64.781719 L 339.070312 64.430156 L 339.96875 64.289531 L 341.039062 64.508281 L 342.121094 64.820781 L 343.109375 65.52 " transform="matrix(1,0,0,-1,0,149.77)"/>
<path style="fill:none;stroke-width:1.41;stroke-linecap:round;stroke-linejoin:round;stroke:rgb(0%,0%,0%);stroke-opacity:1;stroke-miterlimit:10;" d="M 346.789062 80.109844 L 346.878906 79.848125 L 347.058594 78.80125 L 347.148438 76.730937 L 347.058594 73.52 L 347.058594 70.309062 L 347.148438 67.680156 L 347.871094 65.918437 L 348.859375 65.391094 L 349.761719 65.391094 L 350.480469 65.699687 L 350.660156 66.27 " transform="matrix(1,0,0,-1,0,149.77)"/>
<path style="fill:none;stroke-width:1.41;stroke-linecap:round;stroke-linejoin:round;stroke:rgb(0%,0%,0%);stroke-opacity:1;stroke-miterlimit:10;" d="M 343.378906 75.680156 L 344.371094 75.809062 L 345.449219 75.719219 L 346.878906 75.539531 L 348.230469 75.371562 L 349.398438 75.281719 L 350.390625 75.191875 L 351.019531 75.23875 " transform="matrix(1,0,0,-1,0,149.77)"/>
<path style="fill:none;stroke-width:1.41;stroke-linecap:round;stroke-linejoin:round;stroke:rgb(0%,0%,0%);stroke-opacity:1;stroke-miterlimit:10;" d="M 400.070312 40.559062 L 400.25 40.871562 L 400.25 41.441875 L 399.980469 42.230937 L 399.351562 42.80125 L 398.359375 43.070781 L 397.199219 42.668437 L 396.03125 41.570781 L 394.859375 39.598125 L 393.960938 37.27 L 393.601562 34.848125 L 394.050781 32.570781 L 395.308594 31.031719 L 396.929688 30.02 L 398.628906 29.621562 L 399.980469 29.711406 L 400.789062 30.098125 L 401.328125 30.539531 L 401.511719 30.941875 L 401.601562 31.199687 " transform="matrix(1,0,0,-1,0,149.77)"/>
<path style="fill:none;stroke-width:1.41;stroke-linecap:round;stroke-linejoin:round;stroke:rgb(0%,0%,0%);stroke-opacity:1;stroke-miterlimit:10;" d="M 406.988281 36.559062 L 406.71875 36.871562 L 406.449219 37.090312 L 406.089844 37.359844 L 405.730469 37.621562 L 405.011719 37.578594 L 404.019531 37.141094 L 403.21875 36.258281 L 402.5 35.160625 L 402.5 33.711406 L 403.21875 32.30125 L 404.46875 31.199687 L 405.730469 30.371562 L 406.71875 30.23875 L 407.441406 30.539531 L 407.800781 31.379375 L 407.800781 32.699687 L 407.621094 34.148906 L 407.441406 35.328594 L 407.261719 36.078594 L 407.351562 36.30125 " transform="matrix(1,0,0,-1,0,149.77)"/>
<path style="fill:none;stroke-width:1.41;stroke-linecap:round;stroke-linejoin:round;stroke:rgb(0%,0%,0%);stroke-opacity:1;stroke-miterlimit:10;" d="M 411.121094 31.859844 L 410.851562 31.289531 L 410.398438 31.379375 L 410.308594 32.430156 L 410.398438 34.098125 L 410.941406 35.910625 L 412.019531 37.141094 L 413.191406 36.961406 L 414.179688 36.039531 L 414.808594 34.500469 L 414.980469 32.828594 L 414.980469 30.02 " transform="matrix(1,0,0,-1,0,149.77)"/>
<path style="fill:none;stroke-width:1.41;stroke-linecap:round;stroke-linejoin:round;stroke:rgb(0%,0%,0%);stroke-opacity:1;stroke-miterlimit:10;" d="M 419.929688 37.309062 L 419.570312 37.879375 L 418.941406 38.320781 L 418.308594 38.230937 L 417.679688 37.48875 L 417.050781 36.609844 L 416.78125 35.469219 L 416.960938 34.320781 L 417.5 33.398906 L 418.488281 32.648906 L 419.570312 32.168437 L 420.820312 32.258281 " transform="matrix(1,0,0,-1,0,149.77)"/>
<path style="fill:none;stroke-width:1.41;stroke-linecap:round;stroke-linejoin:round;stroke:rgb(0%,0%,0%);stroke-opacity:1;stroke-miterlimit:10;" d="M 423.96875 36.609844 L 423.609375 37.141094 L 423.609375 37.840312 L 423.96875 38.449687 L 424.78125 38.668437 L 425.679688 38.449687 L 426.480469 37.27 L 427.019531 35.508281 L 427.199219 33.711406 L 427.289062 31.949687 L 427.289062 31.031719 L 427.019531 31.469219 L 426.929688 32.168437 L 426.570312 32.961406 L 426.039062 33.578594 L 424.871094 33.711406 L 423.699219 33.48875 L 422.621094 32.648906 L 421.898438 31.250469 L 422.53125 30.148906 L 423.519531 29.359844 L 424.78125 29.05125 L 426.128906 29.27 L 427.378906 30.191875 " transform="matrix(1,0,0,-1,0,149.77)"/>
<path style="fill:none;stroke-width:1.41;stroke-linecap:round;stroke-linejoin:round;stroke:rgb(0%,0%,0%);stroke-opacity:1;stroke-miterlimit:10;" d="M 430.980469 43.820781 L 430.800781 43.328594 L 430.890625 42.371562 L 430.980469 40.430156 L 431.070312 37.531719 L 431.25 34.461406 L 431.609375 31.859844 L 432.230469 30.539531 L 432.949219 30.539531 L 433.671875 30.980937 L 434.210938 32.039531 " transform="matrix(1,0,0,-1,0,149.77)"/>
<path style="fill:none;stroke-width:1.41;stroke-linecap:round;stroke-linejoin:round;stroke:rgb(0%,0%,0%);stroke-opacity:1;stroke-miterlimit:10;" d="M 429.179688 39.469219 L 428.730469 39.859844 L 428.550781 40.078594 L 429 40.211406 L 430.171875 40.258281 L 431.609375 40.258281 L 433.039062 40.121562 L 434.121094 39.98875 L 434.570312 39.820781 L 434.929688 39.598125 L 435.558594 38.941875 " transform="matrix(1,0,0,-1,0,149.77)"/>
<path style="fill:none;stroke-width:1.41;stroke-linecap:round;stroke-linejoin:round;stroke:rgb(0%,0%,0%);stroke-opacity:1;stroke-miterlimit:10;" d="M 438.96875 31.859844 L 438.789062 31.508281 L 438.699219 31.031719 L 438.789062 30.461406 L 438.96875 30.148906 " transform="matrix(1,0,0,-1,0,149.77)"/>
<path style="fill:none;stroke-width:1.41;stroke-linecap:round;stroke-linejoin:round;stroke:rgb(0%,0%,0%);stroke-opacity:1;stroke-miterlimit:10;" d="M 442.75 43.109844 L 442.570312 42.281719 L 442.660156 40.391094 L 442.660156 35.859844 L 442.570312 33.840312 L 442.480469 32.699687 L 442.390625 31.859844 " transform="matrix(1,0,0,-1,0,149.77)"/>
<path style="fill:none;stroke-width:1.41;stroke-linecap:round;stroke-linejoin:round;stroke:rgb(0%,0%,0%);stroke-opacity:1;stroke-miterlimit:10;" d="M 441.398438 38.008281 L 441.488281 39.379375 L 441.941406 41.27 L 442.929688 43.109844 L 444.449219 44.168437 L 446.160156 44.30125 L 447.328125 42.891094 L 447.421875 40.828594 L 446.429688 38.629375 L 445.078125 37.27 L 444.269531 36.609844 L 444.808594 36.559062 L 445.710938 36.52 L 446.429688 36.30125 L 447.148438 35.949687 L 447.871094 35.55125 L 448.589844 34.590312 L 449.039062 33.621562 L 449.21875 32.609844 L 449.128906 31.641094 L 448.679688 31.160625 L 448.140625 30.719219 L 447.238281 30.320781 L 446.160156 30.148906 L 445.078125 30.098125 L 444 30.320781 L 443.199219 30.719219 L 442.660156 31.199687 L 442.390625 31.730937 L 442.210938 32.348125 " transform="matrix(1,0,0,-1,0,149.77)"/>
<path style="fill:none;stroke-width:1.41;stroke-linecap:round;stroke-linejoin:round;stroke:rgb(0%,0%,0%);stroke-opacity:1;stroke-miterlimit:10;" d="M 451.550781 37.48875 L 451.28125 37.441875 L 451.191406 37.000469 L 451.101562 36.391094 L 451.101562 35.508281 L 451.28125 34.320781 L 451.910156 33.27 L 452.808594 32.609844 L 453.890625 32.52 L 454.878906 33.05125 L 455.5 33.80125 L 455.769531 34.500469 L 455.949219 35.508281 L 455.859375 36.73875 L 455.769531 37.531719 L 455.589844 38.008281 L 455.5 37.660625 L 455.410156 36.648906 L 455.5 35.55125 L 455.589844 34.320781 L 455.769531 32.648906 L 455.949219 30.281719 L 455.949219 27.508281 L 455.5 24.52 L 454.519531 22.328594 L 453.171875 21.48875 L 451.910156 21.578594 L 450.828125 23.289531 " transform="matrix(1,0,0,-1,0,149.77)"/>
<path style="fill:none;stroke-width:1.41;stroke-linecap:round;stroke-linejoin:round;stroke:rgb(0%,0%,0%);stroke-opacity:1;stroke-miterlimit:10;" d="M 458.921875 43.070781 L 458.828125 43.379375 L 458.738281 43.109844 L 458.828125 42.449687 L 458.921875 41.441875 L 459.011719 40.078594 L 459.101562 38.891094 L 459.101562 37.578594 L 459.191406 36.211406 L 459.371094 34.23875 L 459.640625 32.480937 L 460.179688 31.199687 L 460.980469 30.539531 L 461.699219 30.941875 L 462.601562 31.98875 " transform="matrix(1,0,0,-1,0,149.77)"/>
<path style="fill:none;stroke-width:1.41;stroke-linecap:round;stroke-linejoin:round;stroke:rgb(0%,0%,0%);stroke-opacity:1;stroke-miterlimit:10;" d="M 457.480469 38.148906 L 457.03125 38.230937 L 456.671875 38.320781 L 457.121094 38.758281 L 457.929688 39.109844 L 458.921875 39.55125 L 459.910156 39.949687 L 460.71875 40.121562 L 461.789062 39.98875 " transform="matrix(1,0,0,-1,0,149.77)"/>
<path style="fill:none;stroke-width:1.41;stroke-linecap:round;stroke-linejoin:round;stroke:rgb(0%,0%,0%);stroke-opacity:1;stroke-miterlimit:10;" d="M 465.121094 35.55125 L 465.570312 35.418437 L 466.289062 35.691875 L 467.269531 36.430156 L 468.351562 37.398906 L 468.890625 38.500469 L 468.710938 39.55125 L 467.988281 40.30125 L 466.730469 40.168437 L 465.390625 39.641094 L 464.308594 38.629375 L 463.679688 37.398906 L 463.589844 36.52 L 463.859375 35.55125 L 464.128906 34.680156 L 465.03125 33.80125 L 466.199219 33.219219 L 467.179688 33.008281 L 468.171875 32.871562 L 469.070312 33.398906 " transform="matrix(1,0,0,-1,0,149.77)"/>
<path style="fill:none;stroke-width:1.41;stroke-linecap:round;stroke-linejoin:round;stroke:rgb(0%,0%,0%);stroke-opacity:1;stroke-miterlimit:10;" d="M 477.070312 41.090312 L 477.160156 41.348125 L 477.160156 41.711406 L 476.710938 42.191875 L 475.808594 42.758281 L 474.371094 43.109844 L 473.109375 42.891094 L 472.308594 41.930156 L 472.21875 40.609844 L 472.75 39.418437 L 473.648438 38.449687 L 474.550781 37.80125 L 475.628906 36.871562 L 476.53125 35.730937 L 477.25 34.539531 L 477.699219 33.359844 L 477.519531 32.609844 L 477.070312 32.168437 L 476.351562 31.77 L 475.179688 31.508281 L 473.921875 31.340312 L 472.570312 31.469219 L 471.5 31.859844 L 471.050781 32.391094 L 470.78125 33.05125 L 470.871094 33.660625 " transform="matrix(1,0,0,-1,0,149.77)"/>
<path style="fill:none;stroke-width:1.41;stroke-linecap:round;stroke-linejoin:round;stroke:rgb(0%,0%,0%);stroke-opacity:1;stroke-miterlimit:10;" d="M 482.28125 43.328594 L 482.011719 42.668437 L 481.921875 41.570781 L 481.738281 40.211406 L 481.648438 38.891094 L 481.46875 37.660625 L 481.289062 35.820781 L 481.199219 33.930156 L 481.289062 32.258281 L 482.011719 31.160625 L 482.730469 31.160625 L 483.539062 31.641094 L 484.339844 32.430156 " transform="matrix(1,0,0,-1,0,149.77)"/>
<path style="fill:none;stroke-width:1.41;stroke-linecap:round;stroke-linejoin:round;stroke:rgb(0%,0%,0%);stroke-opacity:1;stroke-miterlimit:10;" d="M 478.949219 37.141094 L 479.128906 37.48875 L 480.03125 37.80125 L 481.289062 38.008281 L 482.730469 38.148906 L 483.980469 38.230937 L 484.699219 38.230937 L 485.601562 38.281719 " transform="matrix(1,0,0,-1,0,149.77)"/>
<path style="fill:none;stroke-width:1.41;stroke-linecap:round;stroke-linejoin:round;stroke:rgb(0%,0%,0%);stroke-opacity:1;stroke-miterlimit:10;" d="M 487.308594 36.918437 L 487.488281 35.418437 L 487.671875 33.711406 L 487.671875 32.078594 L 487.578125 31.121562 L 487.21875 31.508281 L 487.039062 33.05125 L 487.128906 35.328594 L 487.488281 37.621562 L 488.121094 39.418437 L 489.109375 40.391094 " transform="matrix(1,0,0,-1,0,149.77)"/>
<path style="fill:none;stroke-width:1.41;stroke-linecap:round;stroke-linejoin:round;stroke:rgb(0%,0%,0%);stroke-opacity:1;stroke-miterlimit:10;" d="M 493.058594 41.930156 L 492.96875 42.191875 L 492.789062 42.449687 " transform="matrix(1,0,0,-1,0,149.77)"/>
<path style="fill:none;stroke-width:1.41;stroke-linecap:round;stroke-linejoin:round;stroke:rgb(0%,0%,0%);stroke-opacity:1;stroke-miterlimit:10;" d="M 492.609375 38.008281 L 492.339844 36.348125 L 491.980469 34.719219 L 491.800781 33.090312 L 491.800781 32.348125 L 491.890625 31.98875 L 492.339844 31.77 " transform="matrix(1,0,0,-1,0,149.77)"/>
<path style="fill:none;stroke-width:1.41;stroke-linecap:round;stroke-linejoin:round;stroke:rgb(0%,0%,0%);stroke-opacity:1;stroke-miterlimit:10;" d="M 495.21875 31.949687 L 495.128906 32.828594 L 495.308594 34.590312 L 495.929688 36.609844 L 496.828125 37.969219 L 497.910156 37.930156 L 498.539062 36.391094 L 498.898438 34.461406 L 499.078125 32.73875 L 499.171875 31.949687 " transform="matrix(1,0,0,-1,0,149.77)"/>
<path style="fill:none;stroke-width:1.41;stroke-linecap:round;stroke-linejoin:round;stroke:rgb(0%,0%,0%);stroke-opacity:1;stroke-miterlimit:10;" d="M 505.101562 38.148906 L 504.558594 38.891094 L 503.660156 39.328594 L 502.671875 39.160625 L 501.769531 38.008281 L 501.679688 36.480937 L 502.308594 35.109844 L 503.660156 34.410625 L 505.011719 34.539531 L 506 35.418437 L 506.539062 36.609844 L 506.539062 37.578594 L 506.449219 37.80125 L 506.539062 36.609844 L 506.808594 34.23875 L 506.980469 31.121562 L 506.898438 27.859844 L 506.269531 25.531719 L 505.011719 24.039531 L 503.300781 23.340312 L 501.769531 23.211406 L 500.519531 23.289531 L 499.710938 23.469219 " transform="matrix(1,0,0,-1,0,149.77)"/>
<path style="fill:none;stroke-width:1.41;stroke-linecap:round;stroke-linejoin:round;stroke:rgb(0%,0%,0%);stroke-opacity:1;stroke-miterlimit:10;" d="M 48.421875 28.609844 L 48.601562 28.828594 L 48.328125 29.309062 L 47.878906 29.930156 L 46.980469 30.590312 L 45.910156 30.898906 L 44.921875 30.590312 L 44.109375 29.398906 L 43.839844 27.598125 L 44.199219 25.668437 L 45.371094 23.949687 L 47.070312 23.031719 L 48.691406 22.809062 L 50.039062 22.98875 L 50.761719 23.379375 L 51.121094 23.820781 L 51.390625 24.168437 " transform="matrix(1,0,0,-1,0,149.77)"/>
<path style="fill:none;stroke-width:1.41;stroke-linecap:round;stroke-linejoin:round;stroke:rgb(0%,0%,0%);stroke-opacity:1;stroke-miterlimit:10;" d="M 54.621094 28.699687 L 54.351562 29.008281 L 53.898438 29.141094 L 53.449219 28.961406 L 52.730469 28.391094 L 52.199219 27.160625 L 52.019531 25.668437 L 52.199219 24.348125 L 52.558594 23.430156 L 53.089844 23.070781 L 53.808594 23.121562 L 54.53125 23.289531 L 55.339844 23.730937 L 56.058594 24.609844 L 56.328125 25.80125 L 56.328125 26.980937 L 56.058594 28.039531 L 55.878906 28.609844 L 55.789062 28.871562 " transform="matrix(1,0,0,-1,0,149.77)"/>
<path style="fill:none;stroke-width:1.41;stroke-linecap:round;stroke-linejoin:round;stroke:rgb(0%,0%,0%);stroke-opacity:1;stroke-miterlimit:10;" d="M 58.839844 23.031719 L 58.660156 23.430156 L 58.480469 24.168437 L 58.480469 25.891094 L 58.839844 26.941875 L 59.558594 27.949687 L 60.371094 28.699687 L 61.449219 28.699687 L 62.441406 27.508281 L 63.070312 25.80125 L 63.609375 24.078594 L 63.789062 22.898906 L 64.058594 22.590312 " transform="matrix(1,0,0,-1,0,149.77)"/>
<path style="fill:none;stroke-width:1.41;stroke-linecap:round;stroke-linejoin:round;stroke:rgb(0%,0%,0%);stroke-opacity:1;stroke-miterlimit:10;" d="M 70.339844 28.828594 L 69.628906 29.359844 L 68.910156 29.578594 L 68.191406 29.578594 L 67.558594 29.309062 L 67.019531 28.871562 L 66.660156 28.430156 L 66.480469 27.508281 L 66.75 26.191875 L 67.648438 24.828594 L 68.910156 23.730937 L 70.339844 23.250469 L 71.421875 23.289531 L 72.230469 23.820781 " transform="matrix(1,0,0,-1,0,149.77)"/>
<path style="fill:none;stroke-width:1.41;stroke-linecap:round;stroke-linejoin:round;stroke:rgb(0%,0%,0%);stroke-opacity:1;stroke-miterlimit:10;" d="M 73.851562 27.641094 L 73.398438 28.000469 L 73.308594 28.699687 L 73.578125 29.398906 L 74.03125 29.969219 L 74.660156 30.461406 L 75.289062 30.410625 L 75.910156 30.059062 L 76.539062 29.180156 L 77.078125 27.910625 L 77.441406 26.461406 L 77.621094 25.098125 L 77.621094 24.391094 L 77.351562 24.918437 L 76.988281 25.578594 L 76.269531 26.148906 L 75.289062 26.109844 L 74.121094 25.578594 L 73.398438 24.609844 L 73.488281 23.430156 L 74.480469 22.680156 L 75.558594 22.328594 L 76.71875 22.500469 L 77.980469 23.559062 " transform="matrix(1,0,0,-1,0,149.77)"/>
<path style="fill:none;stroke-width:1.41;stroke-linecap:round;stroke-linejoin:round;stroke:rgb(0%,0%,0%);stroke-opacity:1;stroke-miterlimit:10;" d="M 81.308594 32.918437 L 80.949219 33.05125 L 80.859375 32.699687 L 80.859375 29.008281 L 81.128906 26.500469 L 81.570312 24.078594 L 82.289062 22.500469 L 83.101562 22.109844 L 83.730469 22.281719 L 84.359375 23.070781 L 84.539062 24.168437 " transform="matrix(1,0,0,-1,0,149.77)"/>
<path style="fill:none;stroke-width:1.41;stroke-linecap:round;stroke-linejoin:round;stroke:rgb(0%,0%,0%);stroke-opacity:1;stroke-miterlimit:10;" d="M 78.96875 29.48875 L 79.78125 29.621562 L 81.128906 29.711406 L 82.648438 29.711406 L 84 29.80125 " transform="matrix(1,0,0,-1,0,149.77)"/>
<path style="fill:none;stroke-width:1.41;stroke-linecap:round;stroke-linejoin:round;stroke:rgb(0%,0%,0%);stroke-opacity:1;stroke-miterlimit:10;" d="M 86.878906 25.80125 L 87.230469 26.148906 L 88.128906 26.410625 L 89.121094 26.680156 L 90.199219 26.941875 L 90.828125 27.070781 L 91.191406 27.121562 L 91.550781 27.121562 L 91.910156 27.160625 " transform="matrix(1,0,0,-1,0,149.77)"/>
<path style="fill:none;stroke-width:1.41;stroke-linecap:round;stroke-linejoin:round;stroke:rgb(0%,0%,0%);stroke-opacity:1;stroke-miterlimit:10;" d="M 95.230469 34.23875 L 95.410156 32.391094 L 95.589844 29.711406 L 95.859375 26.758281 L 96.039062 24.828594 L 96.128906 23.949687 L 96.488281 24.961406 L 97.03125 26.02 L 97.75 27.031719 L 98.46875 27.859844 L 99.089844 27.949687 L 99.808594 27.121562 L 100.261719 25.80125 L 100.261719 24.168437 L 99.449219 22.77 L 98.289062 22.23875 L 97.210938 22.55125 L 96.578125 23.379375 " transform="matrix(1,0,0,-1,0,149.77)"/>
<path style="fill:none;stroke-width:1.41;stroke-linecap:round;stroke-linejoin:round;stroke:rgb(0%,0%,0%);stroke-opacity:1;stroke-miterlimit:10;" d="M 103.949219 29.930156 L 103.679688 29.578594 L 103.5 28.789531 L 103.320312 27.820781 L 103.140625 26.680156 L 103.230469 25.930156 L 103.320312 25.27 L 103.5 24.699687 L 104.128906 24.168437 L 105.019531 24.129375 L 106.101562 24.441875 L 107.089844 25.05125 L 107.808594 25.840312 L 108.171875 26.55125 L 108.261719 27.418437 L 108.351562 28.391094 L 108.261719 29.008281 L 108.261719 29.27 L 108.351562 28.828594 L 108.441406 27.910625 L 108.621094 26.500469 L 108.890625 24.480937 L 109.070312 22.059062 L 108.621094 19.508281 L 107.539062 17.668437 L 105.828125 17.141094 L 104.128906 17.359844 L 102.871094 18.23875 L 102.148438 19.508281 " transform="matrix(1,0,0,-1,0,149.77)"/>
<path style="fill:none;stroke-width:1.41;stroke-linecap:round;stroke-linejoin:round;stroke:rgb(0%,0%,0%);stroke-opacity:1;stroke-miterlimit:10;" d="M 112.390625 33.27 L 112.210938 32.52 L 112.210938 30.898906 L 112.121094 28.391094 L 112.210938 25.449687 L 112.480469 22.898906 L 113.019531 21.359844 L 113.921875 21.05125 L 114.820312 21.48875 L 115.449219 22.23875 " transform="matrix(1,0,0,-1,0,149.77)"/>
<path style="fill:none;stroke-width:1.41;stroke-linecap:round;stroke-linejoin:round;stroke:rgb(0%,0%,0%);stroke-opacity:1;stroke-miterlimit:10;" d="M 110.589844 29.48875 L 110.5 30.02 L 111.21875 30.320781 L 112.480469 30.680156 L 113.828125 30.898906 L 115.269531 30.848125 " transform="matrix(1,0,0,-1,0,149.77)"/>
<path style="fill:none;stroke-width:1.41;stroke-linecap:round;stroke-linejoin:round;stroke:rgb(0%,0%,0%);stroke-opacity:1;stroke-miterlimit:10;" d="M 117.238281 27.121562 L 117.421875 26.461406 L 117.871094 26.328594 L 118.679688 26.898906 L 119.488281 27.781719 L 119.851562 28.828594 L 119.941406 29.711406 L 119.578125 30.191875 L 119.039062 30.461406 L 118.5 30.410625 L 117.78125 29.930156 L 117.058594 29.141094 L 116.429688 27.949687 L 116.339844 26.23875 L 116.96875 24.828594 L 117.960938 23.781719 L 119.039062 23.160625 L 119.941406 23.211406 L 120.75 23.379375 " transform="matrix(1,0,0,-1,0,149.77)"/>
<path style="fill:none;stroke-width:1.41;stroke-linecap:round;stroke-linejoin:round;stroke:rgb(0%,0%,0%);stroke-opacity:1;stroke-miterlimit:10;" d="M 127.039062 29.840312 L 126.679688 30.148906 L 126.050781 30.461406 L 125.058594 30.680156 L 124.160156 30.719219 L 123.351562 30.500469 L 122.988281 30.098125 L 123.261719 29.27 L 124.25 28.168437 L 125.511719 27.199687 L 126.769531 26.281719 L 127.660156 25.27 L 127.570312 24.391094 L 127.128906 23.469219 L 126.320312 22.680156 L 124.96875 22.371562 L 123.980469 22.461406 L 122.898438 22.680156 L 122 23.070781 L 121.558594 23.508281 L 121.199219 24.000469 L 121.019531 24.480937 " transform="matrix(1,0,0,-1,0,149.77)"/>
<path style="fill:none;stroke-width:1.41;stroke-linecap:round;stroke-linejoin:round;stroke:rgb(0%,0%,0%);stroke-opacity:1;stroke-miterlimit:10;" d="M 130.089844 33.578594 L 130.089844 33.309062 L 130.179688 32.129375 L 130.269531 29.80125 L 130.269531 27.199687 L 130.179688 24.828594 L 130.179688 23.121562 L 130.359375 22.191875 L 130.808594 21.48875 L 131.441406 21.141094 L 132.160156 20.961406 L 132.878906 21.230937 L 133.320312 21.621562 L 133.589844 22.02 L 133.679688 22.629375 " transform="matrix(1,0,0,-1,0,149.77)"/>
<path style="fill:none;stroke-width:1.41;stroke-linecap:round;stroke-linejoin:round;stroke:rgb(0%,0%,0%);stroke-opacity:1;stroke-miterlimit:10;" d="M 128.289062 26.980937 L 127.929688 27.199687 L 127.75 27.418437 L 128.109375 27.691875 L 129.191406 28.039531 L 130.449219 28.430156 L 131.800781 28.789531 L 133.230469 29.008281 " transform="matrix(1,0,0,-1,0,149.77)"/>
<path style="fill:none;stroke-width:1.41;stroke-linecap:round;stroke-linejoin:round;stroke:rgb(0%,0%,0%);stroke-opacity:1;stroke-miterlimit:10;" d="M 135.480469 26.410625 L 135.660156 25.141094 L 136.019531 23.820781 L 136.199219 22.719219 L 136.289062 22.371562 L 136.199219 22.590312 L 136.019531 23.211406 L 135.929688 23.949687 L 136.019531 25.309062 L 136.199219 26.980937 L 136.46875 28.570781 L 136.828125 30.02 L 137.191406 30.680156 L 137.820312 31.031719 " transform="matrix(1,0,0,-1,0,149.77)"/>
<path style="fill:none;stroke-width:1.41;stroke-linecap:round;stroke-linejoin:round;stroke:rgb(0%,0%,0%);stroke-opacity:1;stroke-miterlimit:10;" d="M 139.519531 31.469219 L 139.699219 31.641094 L 139.789062 31.859844 " transform="matrix(1,0,0,-1,0,149.77)"/>
<path style="fill:none;stroke-width:1.41;stroke-linecap:round;stroke-linejoin:round;stroke:rgb(0%,0%,0%);stroke-opacity:1;stroke-miterlimit:10;" d="M 141.410156 30.191875 L 141.410156 28.609844 L 141.320312 26.898906 L 141.140625 25.27 L 141.140625 23.910625 L 141.230469 23.211406 " transform="matrix(1,0,0,-1,0,149.77)"/>
<path style="fill:none;stroke-width:1.41;stroke-linecap:round;stroke-linejoin:round;stroke:rgb(0%,0%,0%);stroke-opacity:1;stroke-miterlimit:10;" d="M 145.539062 22.461406 L 145.089844 22.898906 L 145.089844 24.660625 L 145.269531 25.531719 L 145.539062 26.590312 L 145.898438 27.641094 L 146.351562 28.52 L 146.800781 29.180156 L 147.339844 29.230937 L 148.058594 28.391094 L 148.691406 26.898906 L 149.230469 24.961406 L 149.5 23.289531 L 149.589844 22.410625 " transform="matrix(1,0,0,-1,0,149.77)"/>
<path style="fill:none;stroke-width:1.41;stroke-linecap:round;stroke-linejoin:round;stroke:rgb(0%,0%,0%);stroke-opacity:1;stroke-miterlimit:10;" d="M 155.070312 28.168437 L 154.710938 29.008281 L 154.351562 29.48875 L 153.71875 29.27 L 153 28.391094 L 152.460938 26.758281 L 152.550781 24.699687 L 153.449219 23.289531 L 154.890625 22.719219 L 156.320312 23.211406 L 157.128906 24.391094 L 157.398438 25.711406 L 157.21875 26.809062 L 156.949219 27.199687 L 156.769531 26.941875 L 156.949219 25.578594 L 157.039062 23.508281 L 157.21875 21.05125 L 156.949219 18.418437 L 156.148438 16.391094 L 154.800781 15.031719 L 153.089844 14.461406 L 151.558594 14.500469 L 150.398438 15.211406 " transform="matrix(1,0,0,-1,0,149.77)"/>
<path style="fill:none;stroke-width:1.41;stroke-linecap:round;stroke-linejoin:round;stroke:rgb(19.999695%,19.999695%,79.998779%);stroke-opacity:1;stroke-miterlimit:10;" d="M 236.199219 108.23875 L 236.558594 108.02 L 237.269531 107.180156 L 238.53125 105.820781 L 239.878906 104.641094 L 241.140625 104.23875 L 242.128906 104.77 L 242.75 105.730937 L 243.199219 106.660625 L 243.46875 107.180156 " transform="matrix(1,0,0,-1,0,149.77)"/>
<path style="fill:none;stroke-width:1.41;stroke-linecap:round;stroke-linejoin:round;stroke:rgb(19.999695%,19.999695%,79.998779%);stroke-opacity:1;stroke-miterlimit:10;" d="M 241.410156 105.078594 L 240.871094 105.730937 L 240.691406 107.141094 L 240.421875 109.508281 L 239.96875 113.289531 L 239.789062 117.641094 L 239.609375 122.168437 L 239.609375 126.699687 L 239.699219 130.168437 L 239.878906 132.848125 L 240.148438 134.609844 L 240.601562 135.398906 L 241.410156 135.840312 L 243.289062 136.359844 L 245.898438 136.891094 L 248.679688 137.328594 L 251.289062 137.641094 L 252.820312 137.680156 L 253.539062 137.55125 L 253.808594 137.418437 L 253.980469 137.23875 L 253.898438 136.848125 L 253.808594 136.629375 " transform="matrix(1,0,0,-1,0,149.77)"/>
<path style="fill:none;stroke-width:1.41;stroke-linecap:round;stroke-linejoin:round;stroke:rgb(19.999695%,19.999695%,79.998779%);stroke-opacity:1;stroke-miterlimit:10;" d="M 262.070312 134.430156 L 261.890625 134.648906 L 261.800781 135.27 L 261.621094 135.711406 L 261.261719 136.141094 L 260.628906 136.539531 L 259.910156 136.230937 L 259.199219 135.48875 L 258.660156 134.039531 L 258.660156 132.371562 L 259.199219 130.961406 L 260.269531 130.168437 L 261.441406 130.52 L 262.429688 131.930156 L 263.148438 134.168437 L 263.328125 136.449687 L 263.328125 138.430156 L 263.058594 140.230937 L 262.878906 141.148906 L 263.058594 139.918437 L 263.691406 137.461406 L 264.589844 134.828594 L 265.480469 132.629375 L 265.929688 131.531719 L 266.378906 131.000469 L 266.558594 130.828594 L 266.738281 131.180156 " transform="matrix(1,0,0,-1,0,149.77)"/>
<path style="fill:none;stroke-width:1.41;stroke-linecap:round;stroke-linejoin:round;stroke:rgb(19.999695%,19.999695%,79.998779%);stroke-opacity:1;stroke-miterlimit:10;" d="M 267.371094 139.750469 L 267.28125 140.141094 " transform="matrix(1,0,0,-1,0,149.77)"/>
<path style="fill:none;stroke-width:1.41;stroke-linecap:round;stroke-linejoin:round;stroke:rgb(19.999695%,19.999695%,79.998779%);stroke-opacity:1;stroke-miterlimit:10;" d="M 268 135.750469 L 268 134.871562 L 268.089844 133.508281 L 268.179688 132.230937 L 268.269531 131.348125 L 268.449219 130.609844 L 268.539062 130.391094 " transform="matrix(1,0,0,-1,0,149.77)"/>
<path style="fill:none;stroke-width:1.41;stroke-linecap:round;stroke-linejoin:round;stroke:rgb(19.999695%,19.999695%,79.998779%);stroke-opacity:1;stroke-miterlimit:10;" d="M 269.890625 135.879375 L 270.070312 135.398906 L 270.25 134.30125 L 270.519531 132.629375 L 270.699219 131.309062 L 270.878906 130.168437 L 270.878906 129.730937 L 270.878906 130.781719 L 271.058594 132.629375 L 271.5 134.691875 L 272.039062 136.500469 L 272.941406 137.55125 L 273.75 137.680156 " transform="matrix(1,0,0,-1,0,149.77)"/>
<path style="fill:none;stroke-width:1.41;stroke-linecap:round;stroke-linejoin:round;stroke:rgb(19.999695%,19.999695%,79.998779%);stroke-opacity:1;stroke-miterlimit:10;" d="M 275.730469 132.941875 L 275.820312 132.668437 L 276.359375 132.719219 L 276.980469 133.23875 L 277.519531 134.168437 L 277.429688 135.219219 L 276.808594 135.840312 L 276 135.711406 L 275.191406 134.609844 L 274.921875 132.941875 L 275.191406 131.309062 L 276 130.078594 L 276.808594 129.55125 L 278.058594 129.55125 L 278.421875 129.641094 L 278.691406 129.641094 " transform="matrix(1,0,0,-1,0,149.77)"/>
<path style="fill:none;stroke-width:1.41;stroke-linecap:round;stroke-linejoin:round;stroke:rgb(19.999695%,19.999695%,79.998779%);stroke-opacity:1;stroke-miterlimit:10;" d="M 283.179688 134.078594 L 283.089844 134.648906 L 282.558594 135.27 L 281.839844 135.789531 L 280.941406 135.789531 L 280.039062 135.090312 L 279.679688 133.730937 L 279.859375 132.148906 L 280.308594 130.73875 L 281.300781 129.949687 L 282.109375 129.641094 L 282.730469 129.730937 L 283.449219 129.949687 L 283.808594 130.52 " transform="matrix(1,0,0,-1,0,149.77)"/>
<path style="fill:none;stroke-width:1.41;stroke-linecap:round;stroke-linejoin:round;stroke:rgb(19.999695%,19.999695%,79.998779%);stroke-opacity:1;stroke-miterlimit:10;" d="M 286.148438 142.30125 L 285.96875 141.590312 L 286.058594 140.098125 L 286.148438 138.30125 L 286.328125 135.789531 L 286.511719 133.680156 L 286.691406 132.148906 L 286.871094 130.828594 L 287.410156 130.258281 L 287.949219 130.168437 L 288.480469 130.121562 L 289.019531 130.391094 L 289.378906 131.090312 " transform="matrix(1,0,0,-1,0,149.77)"/>
<path style="fill:none;stroke-width:1.41;stroke-linecap:round;stroke-linejoin:round;stroke:rgb(19.999695%,19.999695%,79.998779%);stroke-opacity:1;stroke-miterlimit:10;" d="M 282.820312 137.379375 L 282.558594 137.55125 L 282.820312 137.680156 L 283.808594 137.730937 L 285.429688 137.680156 L 287.230469 137.680156 L 288.570312 137.730937 L 289.46875 137.77 L 289.921875 137.809062 L 290.28125 137.859844 " transform="matrix(1,0,0,-1,0,149.77)"/>
<path style="fill:none;stroke-width:1.41;stroke-linecap:round;stroke-linejoin:round;stroke:rgb(19.999695%,19.999695%,79.998779%);stroke-opacity:1;stroke-miterlimit:10;" d="M 299.269531 135.660625 L 298.820312 135.930156 L 298.371094 136.191875 L 297.738281 136.449687 L 297.199219 136.578594 L 296.480469 136.359844 L 295.671875 135.621562 L 295.21875 134.340312 L 294.949219 132.758281 L 295.308594 131.309062 L 295.941406 130.559062 L 296.839844 130.699687 L 297.648438 132.148906 L 298.101562 134.609844 L 298.191406 137.461406 L 298.101562 140.098125 L 297.828125 141.328594 L 297.648438 140.891094 L 298.011719 138.648906 L 298.371094 135.969219 L 298.910156 133.55125 L 299.449219 131.930156 L 299.898438 131.531719 L 300.429688 131.48875 " transform="matrix(1,0,0,-1,0,149.77)"/>
<path style="fill:none;stroke-width:1.41;stroke-linecap:round;stroke-linejoin:round;stroke:rgb(19.999695%,19.999695%,79.998779%);stroke-opacity:1;stroke-miterlimit:10;" d="M 301.238281 132.758281 L 301.511719 132.80125 L 302.230469 133.160625 L 302.949219 133.641094 L 303.761719 134.168437 L 304.570312 135.05125 L 304.839844 135.789531 L 304.570312 136.449687 L 303.761719 136.80125 L 302.589844 136.281719 L 301.511719 135.219219 L 300.878906 133.898906 L 300.789062 132.758281 L 300.878906 131.879375 L 301.421875 131.219219 L 302.410156 130.828594 L 303.488281 130.648906 L 304.570312 130.648906 L 305.558594 130.961406 L 306.179688 131.27 " transform="matrix(1,0,0,-1,0,149.77)"/>
<path style="fill:none;stroke-width:1.41;stroke-linecap:round;stroke-linejoin:round;stroke:rgb(19.999695%,19.999695%,79.998779%);stroke-opacity:1;stroke-miterlimit:10;" d="M 307.890625 134.961406 L 307.710938 134.391094 L 307.890625 132.668437 L 308.070312 129.77 L 308.339844 126.828594 L 308.429688 124.758281 L 307.980469 127.000469 L 307.890625 130.340312 L 308.25 133.859844 L 309.058594 136.141094 L 310.140625 137.23875 L 311.128906 137.289531 L 311.660156 136.141094 L 311.660156 134.52 L 311.21875 132.941875 L 310.589844 131.441875 L 309.78125 130.828594 L 309.148438 130.828594 " transform="matrix(1,0,0,-1,0,149.77)"/>
<path style="fill:none;stroke-width:1.41;stroke-linecap:round;stroke-linejoin:round;stroke:rgb(19.999695%,19.999695%,79.998779%);stroke-opacity:1;stroke-miterlimit:10;" d="M 313.730469 132.230937 L 314.539062 132.230937 L 315.441406 132.629375 L 316.339844 133.23875 L 316.699219 134.211406 L 316.429688 135.000469 L 315.621094 135.309062 L 314.449219 134.828594 L 313.460938 133.77 L 312.921875 132.230937 L 313.101562 130.609844 L 313.820312 129.55125 L 314.628906 128.758281 L 315.441406 128.449687 L 316.160156 128.668437 L 316.699219 129.070781 " transform="matrix(1,0,0,-1,0,149.77)"/>
<path style="fill:none;stroke-width:1.41;stroke-linecap:round;stroke-linejoin:round;stroke:rgb(19.999695%,19.999695%,79.998779%);stroke-opacity:1;stroke-miterlimit:10;" d="M 318.941406 130.30125 L 318.761719 131.309062 L 318.761719 132.891094 L 319.210938 134.52 L 320.109375 135.48875 L 321.191406 135.180156 L 322.269531 133.641094 L 322.898438 131.789531 L 323.339844 130.078594 L 323.609375 128.891094 " transform="matrix(1,0,0,-1,0,149.77)"/>
<path style="fill:none;stroke-width:1.41;stroke-linecap:round;stroke-linejoin:round;stroke:rgb(19.999695%,19.999695%,79.998779%);stroke-opacity:1;stroke-miterlimit:10;" d="M 328.378906 133.598125 L 327.929688 134.340312 L 327.480469 134.961406 L 326.671875 134.828594 L 326.039062 133.949687 L 325.589844 132.668437 L 325.320312 131.180156 L 325.410156 130.168437 L 325.589844 129.469219 L 326.128906 128.891094 L 326.761719 128.629375 L 327.660156 129.070781 L 328.46875 130.168437 L 329 132.281719 L 329.089844 135.180156 L 328.558594 138.211406 L 328.019531 140.230937 L 327.75 140.578594 L 327.839844 139.621562 L 328.289062 137.55125 L 328.820312 135.441875 L 329.269531 133.379375 L 329.808594 131.48875 L 330.351562 129.859844 L 331.070312 128.980937 " transform="matrix(1,0,0,-1,0,149.77)"/>
<path style="fill:none;stroke-width:1.41;stroke-linecap:round;stroke-linejoin:round;stroke:rgb(19.999695%,19.999695%,79.998779%);stroke-opacity:1;stroke-miterlimit:10;" d="M 332.511719 133.328594 L 332.960938 133.418437 L 333.859375 133.859844 L 334.839844 134.691875 L 335.46875 135.750469 L 335.199219 136.629375 L 334.308594 136.980937 L 333.140625 136.500469 L 332.148438 135.48875 L 331.519531 134.258281 L 331.25 133.02 L 331.429688 132.008281 L 331.699219 131.05125 L 332.058594 130.258281 L 333.050781 129.641094 L 334.039062 129.55125 L 335.109375 129.680156 L 336.371094 130.078594 " transform="matrix(1,0,0,-1,0,149.77)"/>
<path style="fill:none;stroke-width:1.41;stroke-linecap:round;stroke-linejoin:round;stroke:rgb(19.999695%,19.999695%,79.998779%);stroke-opacity:1;stroke-miterlimit:10;" d="M 337.71875 129.859844 L 337.359375 129.898906 L 337.089844 130.30125 L 337 130.961406 L 337 131.969219 L 337.269531 133.418437 L 337.898438 134.871562 L 338.621094 136.008281 L 339.609375 136.359844 L 340.410156 135.309062 L 340.949219 133.641094 L 341.398438 132.008281 L 341.488281 130.609844 L 341.671875 130.039531 " transform="matrix(1,0,0,-1,0,149.77)"/>
<path style="fill:none;stroke-width:1.41;stroke-linecap:round;stroke-linejoin:round;stroke:rgb(19.999695%,19.999695%,79.998779%);stroke-opacity:1;stroke-miterlimit:10;" d="M 347.511719 135.129375 L 347.328125 135.789531 L 347.238281 136.141094 L 347.148438 136.449687 L 346.96875 136.80125 L 346.519531 137.070781 L 345.980469 137.23875 L 345.449219 137.199687 L 344.820312 136.980937 L 344.28125 136.500469 L 344.011719 135.930156 L 343.648438 134.648906 L 344.011719 133.109844 L 344.820312 131.789531 L 345.808594 130.828594 L 346.96875 130.699687 L 348.050781 131.531719 " transform="matrix(1,0,0,-1,0,149.77)"/>
<path style="fill:none;stroke-width:1.41;stroke-linecap:round;stroke-linejoin:round;stroke:rgb(19.999695%,19.999695%,79.998779%);stroke-opacity:1;stroke-miterlimit:10;" d="M 350.839844 136.410625 L 350.480469 135.930156 L 350.03125 134.691875 L 350.03125 132.980937 L 350.480469 131.621562 L 351.289062 131.27 L 352.269531 132.148906 L 352.988281 133.820781 L 353.441406 135.398906 L 353.441406 136.449687 L 353.441406 135.348125 L 353.621094 133.199687 L 354.070312 130.648906 L 354.339844 128.281719 L 354.429688 126.30125 L 354.070312 124.980937 L 353.078125 124.148906 L 351.910156 123.711406 L 350.839844 123.578594 L 349.851562 123.80125 L 349.128906 124.148906 " transform="matrix(1,0,0,-1,0,149.77)"/>
<path style="fill:none;stroke-width:1.41;stroke-linecap:round;stroke-linejoin:round;stroke:rgb(19.999695%,19.999695%,79.998779%);stroke-opacity:1;stroke-miterlimit:10;" d="M 362.25 140.141094 L 362.160156 140.629375 L 362.070312 140.930156 L 362.339844 140.449687 L 362.519531 140.008281 L 362.609375 139.621562 " transform="matrix(1,0,0,-1,0,149.77)"/>
<path style="fill:none;stroke-width:1.41;stroke-linecap:round;stroke-linejoin:round;stroke:rgb(19.999695%,19.999695%,79.998779%);stroke-opacity:1;stroke-miterlimit:10;" d="M 362.609375 136.80125 L 362.519531 135.711406 L 362.609375 134.258281 L 362.699219 132.758281 L 362.789062 131.570781 L 362.878906 131.000469 " transform="matrix(1,0,0,-1,0,149.77)"/>
<path style="fill:none;stroke-width:1.41;stroke-linecap:round;stroke-linejoin:round;stroke:rgb(19.999695%,19.999695%,79.998779%);stroke-opacity:1;stroke-miterlimit:10;" d="M 365.390625 131.570781 L 365.480469 132.449687 L 365.839844 133.898906 L 366.738281 135.48875 L 367.910156 136.320781 L 369.160156 136.008281 L 370.148438 134.871562 L 370.691406 133.508281 L 370.78125 132.500469 L 370.78125 131.930156 " transform="matrix(1,0,0,-1,0,149.77)"/>
<path style="fill:none;stroke-width:1.41;stroke-linecap:round;stroke-linejoin:round;stroke:rgb(19.999695%,19.999695%,79.998779%);stroke-opacity:1;stroke-miterlimit:10;" d="M 376.261719 136.230937 L 376.078125 136.578594 L 375.449219 136.980937 L 374.558594 136.941875 L 373.570312 136.059062 L 372.671875 134.73875 L 372.671875 133.109844 L 373.390625 132.148906 L 374.378906 132.590312 L 375.359375 134.391094 L 375.808594 137.328594 L 375.808594 139.879375 L 375.71875 140.980937 L 375.808594 140.449687 L 376.078125 138.609844 L 376.441406 136.449687 L 376.710938 134.910625 L 377.070312 133.508281 L 377.429688 132.371562 L 377.789062 131.48875 " transform="matrix(1,0,0,-1,0,149.77)"/>
<path style="fill:none;stroke-width:1.41;stroke-linecap:round;stroke-linejoin:round;stroke:rgb(19.999695%,19.999695%,79.998779%);stroke-opacity:1;stroke-miterlimit:10;" d="M 379.5 139.789531 L 379.320312 140.500469 L 379.230469 140.930156 L 379.140625 141.199687 L 379.230469 140.891094 " transform="matrix(1,0,0,-1,0,149.77)"/>
<path style="fill:none;stroke-width:1.41;stroke-linecap:round;stroke-linejoin:round;stroke:rgb(19.999695%,19.999695%,79.998779%);stroke-opacity:1;stroke-miterlimit:10;" d="M 380.039062 137.809062 L 380.039062 136.141094 L 380.128906 134.258281 L 380.128906 132.371562 L 380.308594 130.828594 L 380.75 130.609844 " transform="matrix(1,0,0,-1,0,149.77)"/>
<path style="fill:none;stroke-width:1.41;stroke-linecap:round;stroke-linejoin:round;stroke:rgb(19.999695%,19.999695%,79.998779%);stroke-opacity:1;stroke-miterlimit:10;" d="M 386.859375 136.230937 L 386.410156 136.80125 L 385.699219 137.289531 L 384.710938 137.379375 L 383.808594 137.199687 L 383 136.578594 L 382.640625 135.789531 L 382.460938 134.961406 L 382.460938 133.859844 L 382.910156 132.668437 L 383.539062 131.570781 L 384.351562 130.699687 L 385.160156 130.168437 L 386.230469 130.30125 L 387.761719 131.000469 " transform="matrix(1,0,0,-1,0,149.77)"/>
<path style="fill:none;stroke-width:1.41;stroke-linecap:round;stroke-linejoin:round;stroke:rgb(19.999695%,19.999695%,79.998779%);stroke-opacity:1;stroke-miterlimit:10;" d="M 390.550781 136.668437 L 390.371094 137.070781 L 390.550781 137.418437 L 391.269531 137.109844 L 392.160156 135.930156 L 392.878906 134.168437 L 393.238281 132.281719 L 393.238281 130.961406 L 393.148438 130.559062 L 392.96875 131.090312 L 392.609375 132.008281 L 391.980469 133.109844 L 391.089844 133.680156 L 390.28125 133.508281 L 389.46875 132.891094 L 389.109375 131.660625 L 389.46875 130.648906 L 390.28125 130.039531 L 391.359375 129.859844 L 393.058594 130.609844 " transform="matrix(1,0,0,-1,0,149.77)"/>
<path style="fill:none;stroke-width:1.41;stroke-linecap:round;stroke-linejoin:round;stroke:rgb(19.999695%,19.999695%,79.998779%);stroke-opacity:1;stroke-miterlimit:10;" d="M 396.660156 140.80125 L 396.480469 141.148906 L 396.300781 141.418437 L 396.390625 140.848125 L 396.480469 139.840312 L 396.570312 137.898906 L 396.660156 135.48875 L 396.839844 132.980937 L 397.289062 131.090312 L 397.910156 130.30125 L 398.71875 130.480937 L 399.441406 130.918437 L 400.070312 131.930156 " transform="matrix(1,0,0,-1,0,149.77)"/>
<path style="fill:none;stroke-width:1.41;stroke-linecap:round;stroke-linejoin:round;stroke:rgb(19.999695%,19.999695%,79.998779%);stroke-opacity:1;stroke-miterlimit:10;" d="M 395.671875 136.668437 L 395.941406 137.02 L 396.660156 137.418437 L 397.730469 137.730937 L 399.351562 137.77 " transform="matrix(1,0,0,-1,0,149.77)"/>
<path style="fill:none;stroke-width:1.41;stroke-linecap:round;stroke-linejoin:round;stroke:rgb(19.999695%,19.999695%,79.998779%);stroke-opacity:1;stroke-miterlimit:10;" d="M 402.949219 134.828594 L 403.128906 134.391094 L 403.75 134.559062 L 404.46875 135.219219 L 405.101562 136.191875 L 405.371094 137.109844 L 405.191406 137.680156 L 404.828125 137.98875 L 404.019531 138.031719 L 403.039062 137.641094 L 402.050781 136.980937 L 401.058594 135.441875 L 400.96875 133.641094 L 401.511719 132.098125 L 402.320312 130.73875 L 403.570312 130.52 " transform="matrix(1,0,0,-1,0,149.77)"/>
<path style="fill:none;stroke-width:1.41;stroke-linecap:round;stroke-linejoin:round;stroke:rgb(19.999695%,19.999695%,79.998779%);stroke-opacity:1;stroke-miterlimit:10;" d="M 410.398438 135.711406 L 410.039062 135.879375 L 409.230469 135.621562 L 408.339844 134.73875 L 407.441406 133.641094 L 406.808594 132.371562 L 406.71875 131.27 L 407.078125 130.52 L 407.800781 130.168437 L 408.878906 130.871562 L 410.039062 132.008281 L 410.941406 133.598125 L 411.390625 135.27 L 411.390625 136.359844 L 411.210938 137.949687 L 410.851562 139.309062 L 410.488281 139.969219 L 410.128906 140.008281 L 410.308594 137.859844 L 410.851562 135.000469 L 411.660156 132.449687 L 412.558594 130.168437 L 413.820312 129.508281 " transform="matrix(1,0,0,-1,0,149.77)"/>
<path style="fill:none;stroke-width:1.41;stroke-linecap:round;stroke-linejoin:round;stroke:rgb(19.999695%,19.999695%,79.998779%);stroke-opacity:1;stroke-miterlimit:10;" d="M 421.628906 141.418437 L 421.628906 137.328594 L 421.71875 134.910625 L 422.078125 133.379375 L 422.800781 133.379375 L 424.058594 133.859844 L 425.410156 134.258281 L 426.660156 134.078594 L 427.46875 133.109844 L 427.738281 132.008281 L 427.199219 130.828594 L 425.949219 129.98875 L 424.421875 129.949687 L 422.800781 130.340312 L 421.898438 131.219219 L 421.539062 132.008281 " transform="matrix(1,0,0,-1,0,149.77)"/>
<path style="fill:none;stroke-width:1.41;stroke-linecap:round;stroke-linejoin:round;stroke:rgb(19.999695%,19.999695%,79.998779%);stroke-opacity:1;stroke-miterlimit:10;" d="M 427.921875 135.48875 L 427.558594 134.648906 L 427.46875 133.598125 L 427.558594 132.191875 L 428.28125 131.27 L 429 130.73875 L 429.808594 130.52 L 430.53125 130.781719 L 430.980469 131.441875 L 431.25 132.539531 L 431.519531 133.77 L 431.609375 134.609844 L 431.699219 134.871562 L 431.699219 133.328594 L 431.878906 132.230937 L 431.96875 131.000469 L 431.789062 128.719219 L 431.160156 126.30125 L 430.171875 124.23875 L 428.730469 122.789531 L 427.46875 122.871562 L 426.660156 124.191875 " transform="matrix(1,0,0,-1,0,149.77)"/>
<path style="fill:none;stroke-width:1.41;stroke-linecap:round;stroke-linejoin:round;stroke:rgb(19.999695%,19.999695%,79.998779%);stroke-opacity:1;stroke-miterlimit:10;" d="M 441.398438 140.320781 L 441.128906 140.449687 L 440.859375 140.500469 " transform="matrix(1,0,0,-1,0,149.77)"/>
<path style="fill:none;stroke-width:1.41;stroke-linecap:round;stroke-linejoin:round;stroke:rgb(19.999695%,19.999695%,79.998779%);stroke-opacity:1;stroke-miterlimit:10;" d="M 440.949219 137.461406 L 440.769531 136.668437 L 440.679688 135.48875 L 440.679688 132.191875 L 440.769531 130.961406 L 441.039062 130.121562 " transform="matrix(1,0,0,-1,0,149.77)"/>
<path style="fill:none;stroke-width:1.41;stroke-linecap:round;stroke-linejoin:round;stroke:rgb(19.999695%,19.999695%,79.998779%);stroke-opacity:1;stroke-miterlimit:10;" d="M 444 130.480937 L 444.359375 130.828594 L 444.269531 131.27 L 444.179688 131.750469 L 444.089844 132.410625 L 444.269531 133.418437 L 444.808594 134.781719 L 445.890625 135.789531 L 446.96875 136.449687 L 447.960938 136.410625 L 448.679688 135.711406 L 448.859375 134.961406 L 449.039062 133.898906 L 449.128906 132.891094 L 449.128906 132.008281 L 449.308594 131.27 " transform="matrix(1,0,0,-1,0,149.77)"/>
<path style="fill:none;stroke-width:1.41;stroke-linecap:round;stroke-linejoin:round;stroke:rgb(19.999695%,19.999695%,79.998779%);stroke-opacity:1;stroke-miterlimit:10;" d="M 454.25 135.309062 L 454.070312 135.711406 L 453.980469 135.969219 L 453.710938 136.281719 L 453.171875 136.578594 L 452.539062 136.449687 L 451.820312 136.059062 L 451.191406 135.27 L 450.921875 134.258281 L 450.921875 133.379375 L 451.011719 132.371562 L 451.550781 131.398906 L 452.449219 130.918437 L 453.441406 130.73875 L 454.519531 131.141094 L 455.589844 132.148906 " transform="matrix(1,0,0,-1,0,149.77)"/>
<path style="fill:none;stroke-width:1.41;stroke-linecap:round;stroke-linejoin:round;stroke:rgb(19.999695%,19.999695%,79.998779%);stroke-opacity:1;stroke-miterlimit:10;" d="M 456.851562 140.80125 L 456.488281 141.328594 L 456.308594 140.578594 L 456.308594 131.930156 L 456.488281 129.898906 L 456.851562 129.77 " transform="matrix(1,0,0,-1,0,149.77)"/>
<path style="fill:none;stroke-width:1.41;stroke-linecap:round;stroke-linejoin:round;stroke:rgb(19.999695%,19.999695%,79.998779%);stroke-opacity:1;stroke-miterlimit:10;" d="M 460.269531 135.180156 L 460.269531 133.641094 L 460.359375 132.008281 L 460.71875 130.391094 L 461.339844 129.55125 L 462.421875 129.949687 L 463.410156 131.348125 L 463.949219 133.23875 L 464.308594 134.910625 L 464.128906 135.789531 " transform="matrix(1,0,0,-1,0,149.77)"/>
<path style="fill:none;stroke-width:1.41;stroke-linecap:round;stroke-linejoin:round;stroke:rgb(19.999695%,19.999695%,79.998779%);stroke-opacity:1;stroke-miterlimit:10;" d="M 468.351562 135.05125 L 468.351562 135.789531 L 468.171875 136.410625 L 467.71875 136.891094 L 467.089844 137.23875 L 466.558594 137.379375 L 466.199219 137.199687 L 465.929688 136.891094 L 465.839844 136.449687 L 465.75 135.969219 L 466.199219 135.180156 L 467.089844 134.340312 L 468.261719 133.328594 L 469.339844 132.148906 L 469.519531 131.000469 L 468.710938 130.039531 L 467.269531 129.598125 L 465.75 129.641094 L 464.578125 130.609844 " transform="matrix(1,0,0,-1,0,149.77)"/>
<path style="fill:none;stroke-width:1.41;stroke-linecap:round;stroke-linejoin:round;stroke:rgb(19.999695%,19.999695%,79.998779%);stroke-opacity:1;stroke-miterlimit:10;" d="M 470.058594 140.141094 L 470.148438 140.410625 L 470.148438 140.008281 L 470.421875 139.621562 " transform="matrix(1,0,0,-1,0,149.77)"/>
<path style="fill:none;stroke-width:1.41;stroke-linecap:round;stroke-linejoin:round;stroke:rgb(19.999695%,19.999695%,79.998779%);stroke-opacity:1;stroke-miterlimit:10;" d="M 471.589844 136.578594 L 471.679688 135.398906 L 471.769531 133.77 L 471.949219 131.969219 L 472.039062 130.480937 L 472.398438 129.55125 " transform="matrix(1,0,0,-1,0,149.77)"/>
<path style="fill:none;stroke-width:1.41;stroke-linecap:round;stroke-linejoin:round;stroke:rgb(19.999695%,19.999695%,79.998779%);stroke-opacity:1;stroke-miterlimit:10;" d="M 477.339844 135.660625 L 477.070312 136.008281 L 476.621094 136.098125 L 475.898438 135.711406 L 475.179688 134.828594 L 474.730469 133.289531 L 475 131.711406 L 475.898438 130.52 L 477.160156 130.391094 L 478.058594 131.348125 L 478.5 132.941875 L 478.5 134.469219 L 478.230469 135.48875 L 478.230469 135.930156 " transform="matrix(1,0,0,-1,0,149.77)"/>
<path style="fill:none;stroke-width:1.41;stroke-linecap:round;stroke-linejoin:round;stroke:rgb(19.999695%,19.999695%,79.998779%);stroke-opacity:1;stroke-miterlimit:10;" d="M 482.011719 130.828594 L 481.648438 131.180156 L 481.558594 132.539531 L 481.921875 134.73875 L 482.910156 136.80125 L 484.160156 137.730937 L 485.421875 136.578594 L 486.5 133.859844 L 487.21875 131.05125 L 487.761719 128.891094 L 488.75 128.230937 " transform="matrix(1,0,0,-1,0,149.77)"/>
</g>
</svg>
