<?xml version="1.0" encoding="UTF-8"?>
<svg xmlns="http://www.w3.org/2000/svg" xmlns:xlink="http://www.w3.org/1999/xlink" width="215.988281pt" height="84.9375pt" viewBox="0 0 215.988281 84.9375" version="1.1">
<g id="surface1">
<path style="fill:none;stroke-width:2.26;stroke-linecap:round;stroke-linejoin:round;stroke:rgb(0%,0%,0%);stroke-opacity:1;stroke-miterlimit:10;" d="M 27.988281 68.539063 L 27.539062 58.78125 " transform="matrix(1,0,0,-1,0,84.9375)"/>
<path style="fill:none;stroke-width:2.26;stroke-linecap:round;stroke-linejoin:round;stroke:rgb(0%,0%,0%);stroke-opacity:1;stroke-miterlimit:10;" d="M 26.191406 38.214844 L 26.101562 28.460938 " transform="matrix(1,0,0,-1,0,84.9375)"/>
<path style="fill:none;stroke-width:2.26;stroke-linecap:round;stroke-linejoin:round;stroke:rgb(0%,0%,0%);stroke-opacity:1;stroke-miterlimit:10;" d="M 26.191406 28.460938 L 31.359375 28.378906 L 36.523438 28.292969 L 41.691406 28.210938 L 46.855469 28.125 L 52.023438 28.042969 L 57.1875 27.960938 L 62.355469 27.875 L 67.519531 27.792969 L 72.6875 27.710938 L 77.851562 27.625 " transform="matrix(1,0,0,-1,0,84.9375)"/>
<path style="fill:none;stroke-width:2.26;stroke-linecap:round;stroke-linejoin:round;stroke:rgb(0%,0%,0%);stroke-opacity:1;stroke-miterlimit:10;" d="M 77.941406 27.976563 L 78.300781 35.449219 " transform="matrix(1,0,0,-1,0,84.9375)"/>
<path style="fill:none;stroke-width:2.26;stroke-linecap:round;stroke-linejoin:round;stroke:rgb(0%,0%,0%);stroke-opacity:1;stroke-miterlimit:10;" d="M 75.785156 59.222656 L 75.785156 67.921875 " transform="matrix(1,0,0,-1,0,84.9375)"/>
<path style="fill:none;stroke-width:2.26;stroke-linecap:round;stroke-linejoin:round;stroke:rgb(0%,0%,0%);stroke-opacity:1;stroke-miterlimit:10;" d="M 75.964844 67.878906 L 65.441406 67.957031 L 60.183594 67.996094 L 44.398438 68.113281 L 39.140625 68.152344 L 28.617188 68.230469 " transform="matrix(1,0,0,-1,0,84.9375)"/>
<path style="fill:none;stroke-width:2.26;stroke-linecap:round;stroke-linejoin:round;stroke:rgb(0%,0%,0%);stroke-opacity:1;stroke-miterlimit:10;" d="M 27.449219 58.476563 L 33.648438 58.476563 " transform="matrix(1,0,0,-1,0,84.9375)"/>
<path style="fill:none;stroke-width:2.26;stroke-linecap:round;stroke-linejoin:round;stroke:rgb(0%,0%,0%);stroke-opacity:1;stroke-miterlimit:10;" d="M 33.46875 58.035156 L 33.410156 51.546875 L 33.347656 45.058594 L 33.289062 38.566406 " transform="matrix(1,0,0,-1,0,84.9375)"/>
<path style="fill:none;stroke-width:2.26;stroke-linecap:round;stroke-linejoin:round;stroke:rgb(0%,0%,0%);stroke-opacity:1;stroke-miterlimit:10;" d="M 33.289062 38.699219 L 26.371094 38.964844 " transform="matrix(1,0,0,-1,0,84.9375)"/>
<path style="fill:none;stroke-width:2.26;stroke-linecap:round;stroke-linejoin:round;stroke:rgb(0%,0%,0%);stroke-opacity:1;stroke-miterlimit:10;" d="M 77.222656 59.574219 L 81.894531 59.132813 " transform="matrix(1,0,0,-1,0,84.9375)"/>
<path style="fill:none;stroke-width:2.26;stroke-linecap:round;stroke-linejoin:round;stroke:rgb(0%,0%,0%);stroke-opacity:1;stroke-miterlimit:10;" d="M 82.433594 59.132813 L 83.152344 37.335938 " transform="matrix(1,0,0,-1,0,84.9375)"/>
<path style="fill:none;stroke-width:2.26;stroke-linecap:round;stroke-linejoin:round;stroke:rgb(0%,0%,0%);stroke-opacity:1;stroke-miterlimit:10;" d="M 83.332031 37.207031 L 78.121094 36.546875 " transform="matrix(1,0,0,-1,0,84.9375)"/>
<path style="fill:none;stroke-width:1.41;stroke-linecap:round;stroke-linejoin:round;stroke:rgb(0%,0%,0%);stroke-opacity:1;stroke-miterlimit:10;" d="M 37.242188 53.117188 L 37.332031 52.542969 L 37.332031 49.378906 L 37.152344 47.796875 L 36.972656 46.261719 L 36.703125 44.765625 L 36.433594 43.402344 L 36.253906 42.964844 L 36.164062 42.65625 L 36.433594 42.921875 " transform="matrix(1,0,0,-1,0,84.9375)"/>
<path style="fill:none;stroke-width:1.41;stroke-linecap:round;stroke-linejoin:round;stroke:rgb(0%,0%,0%);stroke-opacity:1;stroke-miterlimit:10;" d="M 37.960938 48.28125 L 38.410156 48.371094 L 38.769531 48.371094 L 39.308594 48.324219 L 40.027344 48.195313 L 40.65625 48.019531 L 41.195312 47.84375 L 41.464844 47.710938 " transform="matrix(1,0,0,-1,0,84.9375)"/>
<path style="fill:none;stroke-width:1.41;stroke-linecap:round;stroke-linejoin:round;stroke:rgb(0%,0%,0%);stroke-opacity:1;stroke-miterlimit:10;" d="M 41.734375 51.445313 L 41.644531 51.664063 L 41.644531 51.136719 L 41.734375 50.742188 L 41.734375 49.777344 L 41.644531 48.238281 L 41.554688 46.214844 L 41.554688 44.28125 L 41.464844 43.050781 L 41.554688 42.789063 " transform="matrix(1,0,0,-1,0,84.9375)"/>
<path style="fill:none;stroke-width:1.41;stroke-linecap:round;stroke-linejoin:round;stroke:rgb(0%,0%,0%);stroke-opacity:1;stroke-miterlimit:10;" d="M 71.292969 43.753906 L 71.203125 43.492188 L 71.382812 44.28125 L 71.832031 45.382813 L 72.371094 46.964844 L 73 48.898438 L 73.628906 51.09375 L 74.078125 52.5 L 74.347656 53.335938 L 74.617188 53.117188 L 74.796875 52.414063 L 75.066406 51.488281 L 75.335938 50.347656 L 75.515625 49.25 L 75.875 47.84375 L 76.234375 46.480469 L 76.59375 45.292969 L 76.863281 44.503906 L 76.953125 44.152344 " transform="matrix(1,0,0,-1,0,84.9375)"/>
<path style="fill:none;stroke-width:1.41;stroke-linecap:round;stroke-linejoin:round;stroke:rgb(0%,0%,0%);stroke-opacity:1;stroke-miterlimit:10;" d="M 73 46.566406 L 73.449219 46.65625 L 73.808594 46.566406 L 74.347656 46.523438 L 74.886719 46.4375 L 75.335938 46.4375 " transform="matrix(1,0,0,-1,0,84.9375)"/>
<path style="fill:none;stroke-width:2.26;stroke-linecap:round;stroke-linejoin:round;stroke:rgb(0%,0%,0%);stroke-opacity:1;stroke-miterlimit:10;" d="M 52.964844 56.234375 L 52.695312 56.148438 L 52.605469 55.621094 L 52.515625 54.300781 L 52.335938 52.0625 L 52.066406 49.117188 L 51.796875 46.347656 L 51.707031 44.238281 L 51.617188 42.875 L 51.527344 42.394531 L 51.527344 42.042969 " transform="matrix(1,0,0,-1,0,84.9375)"/>
<path style="fill:none;stroke-width:2.26;stroke-linecap:round;stroke-linejoin:round;stroke:rgb(0%,0%,0%);stroke-opacity:1;stroke-miterlimit:10;" d="M 53.144531 57.070313 L 53.324219 57.464844 L 53.683594 57.773438 L 54.132812 58.125 L 54.941406 58.214844 L 56.019531 58.214844 L 57.007812 57.773438 L 58.175781 57.027344 L 58.984375 56.015625 L 59.523438 54.875 L 59.613281 53.6875 L 59.253906 52.457031 L 58.445312 51.269531 L 57.457031 50.257813 L 56.199219 49.425781 L 55.03125 48.984375 L 53.953125 48.898438 L 53.054688 49.074219 L 52.515625 49.425781 L 52.246094 49.730469 " transform="matrix(1,0,0,-1,0,84.9375)"/>
<path style="fill:none;stroke-width:2.26;stroke-linecap:round;stroke-linejoin:round;stroke:rgb(0%,0%,0%);stroke-opacity:1;stroke-miterlimit:10;" d="M 84.679688 50.082031 L 85.039062 50.082031 L 85.757812 50.128906 L 86.835938 50.214844 L 88.183594 50.347656 L 89.621094 50.523438 L 90.96875 50.699219 L 92.226562 50.742188 L 93.304688 50.65625 L 94.113281 50.523438 L 94.652344 50.390625 L 95.550781 50.082031 L 96.449219 49.777344 L 97.527344 49.335938 L 98.695312 48.589844 L 99.503906 47.886719 L 100.132812 47.183594 L 100.761719 46.304688 L 101.300781 45.292969 L 101.839844 44.195313 L 102.378906 42.875 L 102.917969 41.46875 L 103.367188 40.152344 L 103.726562 38.746094 L 103.996094 37.25 L 104.085938 35.890625 L 104.085938 34.613281 L 103.90625 33.429688 L 103.726562 32.59375 L 103.457031 31.847656 L 103.277344 31.320313 L 103.007812 30.921875 L 102.738281 30.394531 L 102.019531 28.902344 L 101.570312 27.980469 L 101.03125 27.054688 L 100.492188 26.308594 L 99.773438 25.5625 L 99.234375 24.902344 L 97.976562 23.761719 L 97.4375 23.277344 L 96.808594 22.792969 L 96.359375 22.398438 L 95.910156 22.132813 L 95.640625 21.957031 L 95.191406 21.695313 L 95.011719 21.519531 L 94.113281 20.902344 L 93.484375 20.597656 L 92.945312 20.332031 L 92.496094 20.246094 L 92.046875 20.113281 L 91.777344 20.023438 L 91.507812 19.9375 L 91.328125 20.113281 " transform="matrix(1,0,0,-1,0,84.9375)"/>
<path style="fill:none;stroke-width:2.26;stroke-linecap:round;stroke-linejoin:round;stroke:rgb(0%,0%,0%);stroke-opacity:1;stroke-miterlimit:10;" d="M 33.109375 52.765625 L 32.75 52.851563 L 32.300781 53.027344 L 31.492188 53.246094 L 30.59375 53.554688 L 29.695312 53.773438 L 28.617188 53.90625 L 27.359375 53.949219 L 26.011719 53.90625 L 24.574219 53.644531 L 23.136719 53.292969 L 21.96875 52.851563 L 21.070312 52.5 L 20.261719 52.0625 L 19.453125 51.488281 L 18.644531 50.875 L 17.746094 49.996094 L 16.847656 49.027344 L 15.949219 47.929688 L 15.050781 46.789063 L 14.242188 45.558594 L 13.613281 44.371094 L 13.253906 43.050781 L 13.074219 41.558594 L 13.074219 40.019531 L 13.164062 38.4375 L 13.164062 33.207031 L 13.253906 31.273438 L 13.433594 29.605469 L 13.703125 28.023438 L 14.152344 26.441406 L 14.78125 25.121094 L 15.320312 24.113281 L 15.949219 23.234375 L 16.398438 22.660156 L 16.847656 22.179688 L 17.65625 21.429688 L 18.554688 20.683594 L 19.632812 20.070313 L 20.890625 19.542969 L 22.148438 19.320313 L 23.316406 19.191406 L 24.664062 19.058594 L 25.832031 18.96875 L 26.820312 18.925781 L 29.246094 18.925781 L 29.695312 18.882813 L 29.964844 18.925781 " transform="matrix(1,0,0,-1,0,84.9375)"/>
<path style="fill:none;stroke-width:2.26;stroke-linecap:round;stroke-linejoin:round;stroke:rgb(0%,0%,0%);stroke-opacity:1;stroke-miterlimit:10;" d="M 29.246094 18.355469 L 34.382812 18.429688 L 39.519531 18.507813 L 44.652344 18.585938 L 49.789062 18.664063 L 54.925781 18.738281 L 65.199219 18.894531 L 70.335938 18.96875 L 75.46875 19.046875 L 80.605469 19.125 L 85.742188 19.199219 L 90.878906 19.277344 " transform="matrix(1,0,0,-1,0,84.9375)"/>
<path style="fill:none;stroke-width:2.26;stroke-linecap:round;stroke-linejoin:round;stroke:rgb(0%,0%,0%);stroke-opacity:1;stroke-miterlimit:10;" d="M 169.824219 62.476563 L 170.003906 62.695313 L 169.914062 63.136719 L 169.734375 63.355469 L 169.195312 63.441406 L 168.746094 63.046875 L 168.296875 62.476563 L 167.9375 61.730469 L 167.9375 60.761719 L 168.207031 59.925781 L 168.835938 59.269531 L 169.734375 58.917969 L 170.722656 58.917969 L 171.710938 59.398438 L 172.339844 60.191406 L 172.519531 61.15625 L 172.429688 62.210938 L 171.980469 63.046875 L 171.261719 63.574219 L 170.363281 63.617188 L 169.464844 63.222656 L 168.835938 62.433594 L 168.386719 61.464844 L 168.65625 60.453125 L 169.285156 59.621094 L 170.09375 59.046875 L 170.902344 58.917969 L 171.621094 59.269531 L 171.980469 59.972656 L 172.070312 60.980469 L 171.800781 61.949219 L 171.261719 62.695313 L 170.542969 63.089844 L 170.003906 63.046875 L 169.554688 62.652344 L 169.375 61.949219 L 169.734375 61.289063 L 170.363281 60.761719 L 171.082031 60.761719 L 171.621094 61.113281 L 171.800781 61.640625 L 171.710938 62.167969 L 171.171875 62.386719 L 170.722656 62.125 L 170.273438 61.730469 L 170.09375 61.113281 L 170.183594 60.761719 L 170.453125 60.675781 L 170.902344 60.71875 L 171.261719 60.851563 L 171.082031 60.675781 L 170.8125 61.070313 L 170.902344 61.378906 L 171.082031 61.597656 " transform="matrix(1,0,0,-1,0,84.9375)"/>
<path style="fill:none;stroke-width:1.41;stroke-linecap:round;stroke-linejoin:round;stroke:rgb(0%,0%,0%);stroke-opacity:1;stroke-miterlimit:10;" d="M 138.378906 72.582031 L 138.289062 71.835938 L 138.199219 70.210938 L 138.109375 67.835938 L 138.019531 65.550781 L 137.929688 63.925781 L 137.839844 62.828125 L 137.839844 62.167969 " transform="matrix(1,0,0,-1,0,84.9375)"/>
<path style="fill:none;stroke-width:1.41;stroke-linecap:round;stroke-linejoin:round;stroke:rgb(0%,0%,0%);stroke-opacity:1;stroke-miterlimit:10;" d="M 138.378906 72.890625 L 138.738281 73.460938 L 139.457031 73.945313 L 140.535156 73.988281 L 141.613281 73.550781 L 142.421875 72.847656 L 142.871094 71.792969 L 142.601562 70.738281 L 141.703125 69.902344 L 140.535156 69.375 L 139.367188 69.289063 L 138.558594 69.375 L 138.289062 69.683594 L 138.378906 69.945313 " transform="matrix(1,0,0,-1,0,84.9375)"/>
<path style="fill:none;stroke-width:1.41;stroke-linecap:round;stroke-linejoin:round;stroke:rgb(0%,0%,0%);stroke-opacity:1;stroke-miterlimit:10;" d="M 126.519531 76.097656 L 126.429688 75.527344 L 126.339844 73.902344 L 126.160156 71.75 L 126.070312 69.640625 L 125.980469 67.96875 L 125.890625 67.222656 " transform="matrix(1,0,0,-1,0,84.9375)"/>
<path style="fill:none;stroke-width:1.41;stroke-linecap:round;stroke-linejoin:round;stroke:rgb(0%,0%,0%);stroke-opacity:1;stroke-miterlimit:10;" d="M 150.507812 67.925781 L 150.148438 67.707031 L 150.238281 67.925781 L 150.417969 68.410156 L 150.957031 69.945313 L 151.585938 72.101563 L 152.304688 74.386719 L 152.933594 76.539063 L 153.292969 77.460938 L 153.652344 77.328125 L 154.101562 76.144531 L 154.550781 74.738281 L 154.910156 73.242188 L 155.269531 71.835938 L 155.539062 70.824219 L 155.898438 69.816406 L 156.078125 69.023438 L 156.347656 68.496094 L 156.4375 68.277344 " transform="matrix(1,0,0,-1,0,84.9375)"/>
<path style="fill:none;stroke-width:1.41;stroke-linecap:round;stroke-linejoin:round;stroke:rgb(0%,0%,0%);stroke-opacity:1;stroke-miterlimit:10;" d="M 152.214844 70.738281 L 151.855469 70.957031 L 151.855469 71.222656 L 152.125 71.308594 L 152.394531 71.308594 L 153.203125 71.222656 L 154.011719 71.132813 L 154.820312 71.046875 L 155.539062 70.957031 L 155.808594 71 L 155.988281 71.222656 " transform="matrix(1,0,0,-1,0,84.9375)"/>
<path style="fill:none;stroke-width:1.41;stroke-linecap:round;stroke-linejoin:round;stroke:rgb(0%,0%,0%);stroke-opacity:1;stroke-miterlimit:10;" d="M 117.265625 76.625 L 117.625 76.800781 L 117.804688 76.011719 L 117.894531 74.78125 L 117.894531 68.058594 " transform="matrix(1,0,0,-1,0,84.9375)"/>
<path style="fill:none;stroke-width:1.41;stroke-linecap:round;stroke-linejoin:round;stroke:rgb(0%,0%,0%);stroke-opacity:1;stroke-miterlimit:10;" d="M 118.433594 71.878906 L 118.792969 72.054688 L 119.511719 71.878906 L 120.589844 71.660156 L 121.757812 71.527344 L 122.65625 71.484375 L 123.285156 71.617188 L 123.734375 71.792969 L 124.09375 72.011719 L 124.363281 72.1875 L 125.082031 72.453125 " transform="matrix(1,0,0,-1,0,84.9375)"/>
<path style="fill:none;stroke-width:1.41;stroke-linecap:round;stroke-linejoin:round;stroke:rgb(0%,0%,0%);stroke-opacity:1;stroke-miterlimit:10;" d="M 129.125 73.378906 L 129.304688 73.15625 L 129.664062 73.027344 L 130.292969 72.9375 L 130.832031 72.980469 L 131.640625 73.027344 L 132.359375 73.070313 L 132.988281 73.113281 L 133.527344 73.15625 L 133.796875 73.203125 L 134.15625 73.246094 " transform="matrix(1,0,0,-1,0,84.9375)"/>
<path style="fill:none;stroke-width:1.41;stroke-linecap:round;stroke-linejoin:round;stroke:rgb(0%,0%,0%);stroke-opacity:1;stroke-miterlimit:10;" d="M 128.855469 69.773438 L 128.585938 69.730469 L 129.214844 69.554688 L 130.023438 69.511719 L 131.011719 69.554688 L 131.910156 69.640625 L 132.449219 69.6875 L 132.71875 69.6875 L 133.078125 69.730469 " transform="matrix(1,0,0,-1,0,84.9375)"/>
<path style="fill:none;stroke-width:1.41;stroke-linecap:round;stroke-linejoin:round;stroke:rgb(0%,0%,0%);stroke-opacity:1;stroke-miterlimit:10;" d="M 145.296875 74.871094 L 145.386719 75.136719 L 145.027344 75.179688 L 145.566406 75.003906 L 145.835938 74.785156 L 146.015625 74.609375 L 145.566406 74.871094 L 145.386719 75.089844 L 145.65625 75.179688 L 145.835938 75.003906 L 146.015625 74.652344 L 146.105469 74.433594 " transform="matrix(1,0,0,-1,0,84.9375)"/>
<path style="fill:none;stroke-width:1.41;stroke-linecap:round;stroke-linejoin:round;stroke:rgb(0%,0%,0%);stroke-opacity:1;stroke-miterlimit:10;" d="M 144.757812 69.289063 L 145.027344 69.554688 L 145.296875 69.554688 L 145.566406 69.511719 L 145.207031 69.597656 L 145.117188 69.816406 L 145.296875 69.992188 L 145.65625 69.992188 L 146.105469 69.773438 L 146.285156 69.511719 L 146.105469 69.289063 L 145.835938 69.246094 L 145.566406 69.289063 L 145.65625 69.6875 " transform="matrix(1,0,0,-1,0,84.9375)"/>
<path style="fill:none;stroke-width:1.41;stroke-linecap:round;stroke-linejoin:round;stroke:rgb(0%,0%,0%);stroke-opacity:1;stroke-miterlimit:10;" d="M 138.199219 16.90625 L 138.558594 17.039063 L 139.277344 17.171875 L 140.265625 17.304688 L 141.074219 17.433594 L 141.523438 17.480469 " transform="matrix(1,0,0,-1,0,84.9375)"/>
<path style="fill:none;stroke-width:1.41;stroke-linecap:round;stroke-linejoin:round;stroke:rgb(0%,0%,0%);stroke-opacity:1;stroke-miterlimit:10;" d="M 138.917969 14.578125 L 139.367188 14.359375 L 139.996094 14.140625 L 140.984375 14.09375 L 141.792969 14.09375 L 142.332031 14.140625 " transform="matrix(1,0,0,-1,0,84.9375)"/>
<path style="fill:none;stroke-width:1.41;stroke-linecap:round;stroke-linejoin:round;stroke:rgb(0%,0%,0%);stroke-opacity:1;stroke-miterlimit:10;" d="M 151.316406 20.90625 L 150.957031 21.257813 L 150.148438 21.257813 L 148.980469 20.949219 L 147.722656 20.421875 L 146.644531 19.675781 L 146.464844 18.972656 L 147.09375 18.269531 L 148.082031 17.390625 L 148.980469 16.511719 L 149.160156 15.722656 L 148.621094 15.105469 L 147.8125 14.886719 L 147.273438 14.796875 L 147.632812 14.535156 L 148.621094 13.964844 L 149.519531 13.039063 L 150.058594 11.722656 L 149.789062 10.359375 L 149.25 8.996094 L 148.980469 7.722656 L 149.070312 6.976563 L 149.609375 6.535156 L 150.148438 6.359375 L 150.597656 6.449219 L 150.867188 6.625 " transform="matrix(1,0,0,-1,0,84.9375)"/>
<path style="fill:none;stroke-width:1.41;stroke-linecap:round;stroke-linejoin:round;stroke:rgb(0%,0%,0%);stroke-opacity:1;stroke-miterlimit:10;" d="M 155.089844 17.347656 L 155.089844 17.65625 L 155.089844 16.25 L 155.179688 14.445313 L 155.179688 11.195313 L 155.089844 10.449219 " transform="matrix(1,0,0,-1,0,84.9375)"/>
<path style="fill:none;stroke-width:1.41;stroke-linecap:round;stroke-linejoin:round;stroke:rgb(0%,0%,0%);stroke-opacity:1;stroke-miterlimit:10;" d="M 155.179688 12.601563 L 155.359375 13.039063 L 156.257812 13.480469 L 157.425781 13.832031 L 158.414062 14.09375 L 159.402344 14.226563 L 159.761719 14.269531 " transform="matrix(1,0,0,-1,0,84.9375)"/>
<path style="fill:none;stroke-width:1.41;stroke-linecap:round;stroke-linejoin:round;stroke:rgb(0%,0%,0%);stroke-opacity:1;stroke-miterlimit:10;" d="M 160.570312 18.359375 L 160.660156 17.566406 L 160.660156 15.589844 L 160.75 13.304688 L 160.75 9.65625 L 160.660156 9.261719 " transform="matrix(1,0,0,-1,0,84.9375)"/>
<path style="fill:none;stroke-width:1.41;stroke-linecap:round;stroke-linejoin:round;stroke:rgb(0%,0%,0%);stroke-opacity:1;stroke-miterlimit:10;" d="M 163.894531 14.269531 L 164.703125 14.492188 L 165.601562 14.667969 L 166.410156 14.796875 L 166.949219 14.84375 " transform="matrix(1,0,0,-1,0,84.9375)"/>
<path style="fill:none;stroke-width:1.41;stroke-linecap:round;stroke-linejoin:round;stroke:rgb(0%,0%,0%);stroke-opacity:1;stroke-miterlimit:10;" d="M 163.984375 12.25 L 165.691406 12.25 L 166.679688 12.335938 L 167.398438 12.335938 L 167.667969 12.382813 L 167.847656 12.6875 " transform="matrix(1,0,0,-1,0,84.9375)"/>
<path style="fill:none;stroke-width:1.41;stroke-linecap:round;stroke-linejoin:round;stroke:rgb(0%,0%,0%);stroke-opacity:1;stroke-miterlimit:10;" d="M 171.351562 14.09375 L 171.082031 13.4375 L 170.992188 12.03125 L 171.082031 10.316406 L 171.082031 8.074219 L 171.171875 7.855469 " transform="matrix(1,0,0,-1,0,84.9375)"/>
<path style="fill:none;stroke-width:1.41;stroke-linecap:round;stroke-linejoin:round;stroke:rgb(0%,0%,0%);stroke-opacity:1;stroke-miterlimit:10;" d="M 171.082031 14.621094 L 171.441406 15.105469 L 172.160156 15.457031 L 173.328125 15.324219 L 174.316406 14.667969 L 174.855469 13.566406 L 174.585938 12.292969 L 173.6875 11.503906 L 172.699219 11.105469 L 171.800781 11.195313 L 171.441406 11.589844 L 171.351562 11.898438 " transform="matrix(1,0,0,-1,0,84.9375)"/>
<path style="fill:none;stroke-width:1.41;stroke-linecap:round;stroke-linejoin:round;stroke:rgb(0%,0%,0%);stroke-opacity:1;stroke-miterlimit:10;" d="M 177.101562 15.941406 L 176.921875 16.25 L 176.652344 16.117188 L 176.652344 15.851563 " transform="matrix(1,0,0,-1,0,84.9375)"/>
<path style="fill:none;stroke-width:1.41;stroke-linecap:round;stroke-linejoin:round;stroke:rgb(0%,0%,0%);stroke-opacity:1;stroke-miterlimit:10;" d="M 177.460938 11.632813 L 177.101562 11.589844 L 176.832031 11.328125 L 176.5625 11.195313 L 176.652344 11.589844 L 176.832031 11.855469 " transform="matrix(1,0,0,-1,0,84.9375)"/>
<path style="fill:none;stroke-width:1.41;stroke-linecap:round;stroke-linejoin:round;stroke:rgb(0%,0%,0%);stroke-opacity:1;stroke-miterlimit:10;" d="M 180.425781 10.449219 L 180.246094 10.753906 L 180.515625 11.722656 L 180.875 13.347656 L 181.324219 15.5 L 181.863281 17.566406 L 182.222656 18.886719 L 182.671875 19.0625 L 183.210938 18.007813 L 183.660156 16.378906 L 184.199219 14.710938 L 184.648438 13.128906 L 185.007812 11.984375 L 185.277344 10.976563 L 185.546875 10.097656 L 185.636719 9.875 " transform="matrix(1,0,0,-1,0,84.9375)"/>
<path style="fill:none;stroke-width:1.41;stroke-linecap:round;stroke-linejoin:round;stroke:rgb(0%,0%,0%);stroke-opacity:1;stroke-miterlimit:10;" d="M 181.953125 12.074219 L 181.683594 12.25 L 181.773438 12.511719 L 182.222656 12.820313 L 183.480469 13.4375 L 183.929688 13.65625 " transform="matrix(1,0,0,-1,0,84.9375)"/>
<path style="fill:none;stroke-width:1.41;stroke-linecap:round;stroke-linejoin:round;stroke:rgb(0%,0%,0%);stroke-opacity:1;stroke-miterlimit:10;" d="M 188.871094 20.597656 L 189.050781 20.863281 L 189.679688 21.125 L 190.578125 21.257813 L 191.566406 21.082031 L 192.105469 20.554688 L 191.925781 19.71875 L 191.566406 18.664063 L 191.207031 17.523438 L 191.476562 16.601563 L 192.285156 15.851563 L 193.363281 15.414063 L 194.261719 15.195313 L 194.621094 14.972656 L 194.261719 14.667969 L 193.453125 14.09375 L 192.734375 13.390625 L 192.285156 12.6875 L 192.375 12.074219 L 192.644531 11.589844 L 193.902344 10.359375 L 194.261719 9.746094 L 194.171875 8.953125 L 193.722656 8.382813 L 193.09375 8.03125 L 192.285156 7.722656 " transform="matrix(1,0,0,-1,0,84.9375)"/>
<path style="fill:none;stroke-width:1.41;stroke-linecap:round;stroke-linejoin:round;stroke:rgb(0%,0%,0%);stroke-opacity:1;stroke-miterlimit:10;" d="M 131.460938 18.710938 L 131.460938 21.039063 L 131.371094 21.347656 L 131.28125 21.566406 L 130.921875 21.433594 L 130.292969 21.257813 L 129.214844 21.039063 L 127.957031 20.820313 L 126.519531 20.773438 L 124.992188 20.773438 L 123.824219 20.820313 L 122.835938 20.863281 L 122.296875 20.90625 L 122.476562 20.554688 L 123.285156 20.027344 L 124.542969 19.324219 L 125.710938 18.664063 L 126.699219 18.09375 L 127.238281 17.785156 L 127.328125 17.347656 L 126.96875 16.6875 L 126.339844 15.808594 L 125.351562 14.753906 L 124.363281 13.613281 L 123.464844 12.644531 L 122.746094 11.898438 L 122.207031 11.195313 L 122.027344 10.800781 L 121.757812 10.449219 L 121.667969 10.097656 L 121.757812 9.875 L 122.207031 9.65625 L 123.105469 9.523438 L 124.542969 9.480469 L 126.070312 9.613281 L 127.507812 9.832031 L 128.585938 10.050781 L 129.394531 10.140625 L 130.472656 10.140625 L 130.921875 10.226563 L 131.191406 10.492188 L 131.28125 11.019531 L 131.371094 11.589844 L 131.371094 12.6875 L 131.28125 13.039063 L 131.191406 13.261719 " transform="matrix(1,0,0,-1,0,84.9375)"/>
<path style="fill:none;stroke-width:1.41;stroke-linecap:round;stroke-linejoin:round;stroke:rgb(0%,0%,0%);stroke-opacity:1;stroke-miterlimit:10;" d="M 162.082031 61.859375 L 161.8125 61.8125 L 161.273438 61.859375 L 160.734375 61.945313 L 160.105469 62.121094 L 159.386719 62.210938 L 158.578125 62.253906 L 157.679688 62.164063 L 156.871094 62.035156 L 156.0625 61.859375 L 155.164062 61.636719 L 154.445312 61.460938 L 153.816406 61.285156 L 153.097656 61.066406 L 152.46875 60.804688 L 151.839844 60.453125 L 151.390625 60.101563 L 151.03125 59.835938 L 150.671875 59.574219 L 150.402344 59.441406 L 150.132812 59.265625 L 149.773438 59.132813 L 149.503906 58.957031 L 149.234375 58.824219 L 148.875 58.605469 L 148.515625 58.34375 L 147.976562 57.945313 L 147.4375 57.507813 L 146.71875 56.9375 L 146 56.234375 L 145.371094 55.660156 L 144.292969 54.167969 L 143.84375 53.421875 L 143.214844 52.542969 L 142.675781 51.707031 L 142.316406 51.046875 L 141.957031 50.167969 L 141.777344 49.289063 L 141.6875 48.453125 L 141.597656 47.574219 L 141.597656 46.214844 L 141.6875 45.730469 L 141.777344 45.070313 L 141.867188 44.457031 L 141.957031 43.753906 L 142.226562 43.050781 L 142.496094 42.523438 L 142.765625 41.949219 L 143.125 41.421875 L 143.394531 40.851563 L 143.933594 40.191406 L 144.472656 39.402344 L 145.101562 38.699219 L 145.910156 37.953125 L 146.628906 37.292969 L 147.347656 36.765625 L 147.886719 36.28125 L 148.335938 35.972656 L 148.695312 35.753906 L 148.964844 35.535156 L 149.414062 35.269531 L 149.863281 34.964844 L 150.492188 34.566406 L 151.300781 34.171875 L 152.109375 33.734375 L 153.097656 33.382813 L 154.175781 33.074219 L 155.253906 32.898438 L 156.421875 32.808594 L 157.679688 32.722656 L 159.027344 32.722656 L 160.285156 32.765625 L 161.542969 32.855469 L 164.058594 33.292969 L 165.316406 33.558594 L 166.574219 33.820313 L 167.742188 34.261719 L 168.730469 34.699219 L 169.71875 35.316406 L 170.4375 35.972656 L 171.15625 36.765625 L 171.695312 37.730469 L 172.144531 38.609375 L 172.59375 39.535156 L 172.863281 40.324219 L 173.042969 40.984375 L 173.222656 41.511719 L 173.3125 42.082031 L 173.492188 43.050781 L 173.582031 43.53125 L 173.671875 44.015625 L 173.671875 44.542969 L 173.761719 45.289063 L 173.851562 46.082031 L 173.941406 47.046875 L 173.941406 49.246094 L 174.03125 49.683594 L 174.03125 50.433594 L 173.941406 50.695313 L 173.941406 52.015625 L 173.671875 52.015625 L 173.402344 51.792969 L 172.863281 51.222656 L 172.054688 50.386719 L 171.066406 49.421875 L 170.257812 48.542969 L 169.898438 48.234375 L 170.4375 48.804688 L 170.976562 49.421875 L 171.335938 49.859375 L 171.695312 50.300781 L 172.054688 50.738281 L 172.414062 51.136719 L 172.59375 51.488281 L 172.863281 51.882813 L 173.042969 52.101563 L 173.3125 52.320313 L 173.851562 51.792969 L 174.660156 50.695313 L 175.558594 49.464844 L 176.457031 48.191406 L 176.996094 47.53125 " transform="matrix(1,0,0,-1,0,84.9375)"/>
<path style="fill:none;stroke-width:1.41;stroke-linecap:round;stroke-linejoin:round;stroke:rgb(0%,0%,0%);stroke-opacity:1;stroke-miterlimit:10;" d="M 182.386719 66.734375 L 182.207031 66.382813 L 181.488281 65.726563 L 180.5 64.890625 L 179.421875 64.011719 L 178.613281 63.441406 L 178.34375 62.824219 L 178.613281 62.035156 L 179.421875 61.109375 L 180.589844 60.1875 L 181.9375 59.484375 L 182.835938 59.089844 L 183.285156 58.871094 L 183.105469 58.648438 " transform="matrix(1,0,0,-1,0,84.9375)"/>
<path style="fill:none;stroke-width:1.41;stroke-linecap:round;stroke-linejoin:round;stroke:rgb(0%,0%,0%);stroke-opacity:1;stroke-miterlimit:10;" d="M 179.960938 62.515625 L 180.589844 62.515625 L 181.578125 62.429688 L 183.195312 62.386719 L 184.902344 62.296875 L 186.789062 62.296875 L 188.945312 62.386719 L 190.832031 62.515625 L 192.628906 62.691406 L 194.335938 62.867188 L 195.683594 62.957031 L 196.671875 63.042969 L 202.601562 63.042969 L 202.871094 63 " transform="matrix(1,0,0,-1,0,84.9375)"/>
</g>
</svg>
