<?xml version="1.0" encoding="UTF-8"?>
<svg xmlns="http://www.w3.org/2000/svg" xmlns:xlink="http://www.w3.org/1999/xlink" width="358.859375pt" height="114.75pt" viewBox="0 0 358.859375 114.75" version="1.1">
<g id="surface1">
<path style="fill:none;stroke-width:2.26;stroke-linecap:round;stroke-linejoin:round;stroke:rgb(0%,0%,0%);stroke-opacity:1;stroke-miterlimit:10;" d="M 7.304688 16.523438 L 12.472656 16.4375 L 17.636719 16.355469 L 22.804688 16.273438 L 27.96875 16.1875 L 33.136719 16.105469 L 38.300781 16.023438 L 43.46875 15.9375 L 48.632812 15.855469 L 53.800781 15.769531 L 58.964844 15.6875 " transform="matrix(1,0,0,-1,0,114.75)"/>
<path style="fill:none;stroke-width:2.26;stroke-linecap:round;stroke-linejoin:round;stroke:rgb(0%,0%,0%);stroke-opacity:1;stroke-miterlimit:10;" d="M 59.054688 16.039062 L 59.414062 23.511719 " transform="matrix(1,0,0,-1,0,114.75)"/>
<path style="fill:none;stroke-width:2.26;stroke-linecap:round;stroke-linejoin:round;stroke:rgb(0%,0%,0%);stroke-opacity:1;stroke-miterlimit:10;" d="M 56.898438 47.285156 L 56.898438 55.984375 " transform="matrix(1,0,0,-1,0,114.75)"/>
<path style="fill:none;stroke-width:2.26;stroke-linecap:round;stroke-linejoin:round;stroke:rgb(0%,0%,0%);stroke-opacity:1;stroke-miterlimit:10;" d="M 57.078125 55.941406 L 46.554688 56.019531 L 41.296875 56.058594 L 25.511719 56.175781 L 20.253906 56.214844 L 9.730469 56.292969 " transform="matrix(1,0,0,-1,0,114.75)"/>
<path style="fill:none;stroke-width:2.26;stroke-linecap:round;stroke-linejoin:round;stroke:rgb(0%,0%,0%);stroke-opacity:1;stroke-miterlimit:10;" d="M 58.335938 47.636719 L 63.007812 47.195312 " transform="matrix(1,0,0,-1,0,114.75)"/>
<path style="fill:none;stroke-width:2.26;stroke-linecap:round;stroke-linejoin:round;stroke:rgb(0%,0%,0%);stroke-opacity:1;stroke-miterlimit:10;" d="M 63.546875 47.195312 L 64.265625 25.398438 " transform="matrix(1,0,0,-1,0,114.75)"/>
<path style="fill:none;stroke-width:2.26;stroke-linecap:round;stroke-linejoin:round;stroke:rgb(0%,0%,0%);stroke-opacity:1;stroke-miterlimit:10;" d="M 64.445312 25.269531 L 59.234375 24.609375 " transform="matrix(1,0,0,-1,0,114.75)"/>
<path style="fill:none;stroke-width:2.26;stroke-linecap:round;stroke-linejoin:round;stroke:rgb(0%,0%,0%);stroke-opacity:1;stroke-miterlimit:10;" d="M 32.847656 41.996094 L 32.488281 42.300781 L 32.039062 42.875 L 31.230469 43.488281 L 30.242188 43.929688 L 28.894531 43.882812 L 27.726562 43.179688 L 26.648438 42.039062 L 25.929688 40.589844 L 26.019531 39.269531 L 26.738281 38.214844 L 28.355469 37.6875 L 30.0625 37.820312 L 31.679688 38.433594 L 32.9375 39.488281 L 33.566406 40.457031 L 33.835938 40.808594 L 33.746094 40.148438 L 33.296875 38.214844 L 32.488281 35.183594 L 31.679688 32.195312 L 30.960938 29.601562 L 30.601562 27.886719 L 30.511719 26.921875 L 30.421875 26.128906 L 30.421875 24.898438 L 30.601562 24.503906 L 31.050781 24.371094 L 32.128906 24.679688 L 33.476562 25.558594 L 34.734375 26.527344 L 35.722656 27.492188 L 35.8125 28.371094 L 35.542969 29.074219 L 35.003906 29.777344 L 34.375 30.4375 L 33.835938 30.789062 L 33.386719 31.140625 L 32.9375 31.402344 L 32.578125 31.667969 L 32.21875 31.886719 L 32.578125 32.28125 L 33.835938 32.808594 L 35.542969 33.558594 L 37.160156 34.4375 L 38.238281 35.359375 L 38.6875 35.929688 L 38.777344 36.238281 " transform="matrix(1,0,0,-1,0,114.75)"/>
<path style="fill:none;stroke-width:1.41;stroke-linecap:round;stroke-linejoin:round;stroke:rgb(0%,0%,0%);stroke-opacity:1;stroke-miterlimit:10;" d="M 53.367188 40.261719 L 53.367188 39.335938 L 53.457031 37.800781 L 53.457031 36.128906 L 53.367188 34.546875 L 53.367188 33.582031 L 53.277344 33.183594 L 53.277344 32.832031 " transform="matrix(1,0,0,-1,0,114.75)"/>
<path style="fill:none;stroke-width:1.41;stroke-linecap:round;stroke-linejoin:round;stroke:rgb(0%,0%,0%);stroke-opacity:1;stroke-miterlimit:10;" d="M 53.457031 39.996094 L 53.457031 40.304688 L 53.90625 40.699219 L 54.714844 40.964844 L 55.792969 41.183594 L 56.960938 41.050781 L 57.859375 40.613281 L 58.21875 39.863281 L 57.859375 38.984375 L 56.960938 38.238281 L 55.972656 37.710938 L 55.253906 37.449219 L 55.882812 37.402344 L 57.050781 37.226562 L 58.21875 36.832031 L 59.207031 36.128906 L 59.566406 35.117188 L 59.207031 34.019531 L 58.488281 33.097656 L 57.410156 32.4375 L 56.242188 32.21875 L 55.34375 32.304688 L 54.535156 32.613281 L 54.175781 32.964844 L 53.90625 33.273438 " transform="matrix(1,0,0,-1,0,114.75)"/>
<path style="fill:none;stroke-width:2.26;stroke-linecap:round;stroke-linejoin:round;stroke:rgb(0%,0%,0%);stroke-opacity:1;stroke-miterlimit:10;" d="M 7.71875 55.8125 L 7.730469 50.113281 L 7.746094 44.410156 L 7.757812 38.710938 L 7.773438 33.007812 L 7.785156 27.308594 L 7.800781 21.605469 L 7.8125 15.90625 " transform="matrix(1,0,0,-1,0,114.75)"/>
<path style="fill:none;stroke-width:2.26;stroke-linecap:round;stroke-linejoin:round;stroke:rgb(0%,0%,0%);stroke-opacity:1;stroke-miterlimit:10;" d="M 7.773438 63.304688 L 12.941406 63.21875 L 18.105469 63.136719 L 23.273438 63.054688 L 28.4375 62.96875 L 33.605469 62.886719 L 38.769531 62.804688 L 43.9375 62.71875 L 49.101562 62.636719 L 54.269531 62.550781 L 59.433594 62.46875 " transform="matrix(1,0,0,-1,0,114.75)"/>
<path style="fill:none;stroke-width:2.26;stroke-linecap:round;stroke-linejoin:round;stroke:rgb(0%,0%,0%);stroke-opacity:1;stroke-miterlimit:10;" d="M 59.523438 62.820312 L 59.882812 70.292969 " transform="matrix(1,0,0,-1,0,114.75)"/>
<path style="fill:none;stroke-width:2.26;stroke-linecap:round;stroke-linejoin:round;stroke:rgb(0%,0%,0%);stroke-opacity:1;stroke-miterlimit:10;" d="M 57.367188 94.066406 L 57.367188 102.765625 " transform="matrix(1,0,0,-1,0,114.75)"/>
<path style="fill:none;stroke-width:2.26;stroke-linecap:round;stroke-linejoin:round;stroke:rgb(0%,0%,0%);stroke-opacity:1;stroke-miterlimit:10;" d="M 57.546875 102.722656 L 47.023438 102.800781 L 41.765625 102.839844 L 25.980469 102.957031 L 20.722656 102.996094 L 10.199219 103.074219 " transform="matrix(1,0,0,-1,0,114.75)"/>
<path style="fill:none;stroke-width:2.26;stroke-linecap:round;stroke-linejoin:round;stroke:rgb(0%,0%,0%);stroke-opacity:1;stroke-miterlimit:10;" d="M 58.804688 94.417969 L 63.476562 93.976562 " transform="matrix(1,0,0,-1,0,114.75)"/>
<path style="fill:none;stroke-width:2.26;stroke-linecap:round;stroke-linejoin:round;stroke:rgb(0%,0%,0%);stroke-opacity:1;stroke-miterlimit:10;" d="M 64.015625 93.976562 L 64.734375 72.179688 " transform="matrix(1,0,0,-1,0,114.75)"/>
<path style="fill:none;stroke-width:2.26;stroke-linecap:round;stroke-linejoin:round;stroke:rgb(0%,0%,0%);stroke-opacity:1;stroke-miterlimit:10;" d="M 64.914062 72.050781 L 59.703125 71.390625 " transform="matrix(1,0,0,-1,0,114.75)"/>
<path style="fill:none;stroke-width:2.26;stroke-linecap:round;stroke-linejoin:round;stroke:rgb(0%,0%,0%);stroke-opacity:1;stroke-miterlimit:10;" d="M 8.1875 102.59375 L 8.199219 96.894531 L 8.214844 91.191406 L 8.226562 85.492188 L 8.242188 79.789062 L 8.253906 74.089844 L 8.269531 68.386719 L 8.28125 62.6875 " transform="matrix(1,0,0,-1,0,114.75)"/>
<path style="fill:none;stroke-width:2.26;stroke-linecap:round;stroke-linejoin:round;stroke:rgb(0%,0%,0%);stroke-opacity:1;stroke-miterlimit:10;" d="M 28.03125 89.5625 L 28.0625 88.34375 L 28.09375 86.46875 L 28.09375 84.375 L 28.125 82.125 L 28.09375 80.59375 L 28.0625 79.4375 L 28.03125 78.375 L 27.96875 77.34375 L 27.90625 76.46875 L 27.84375 75.875 L 27.8125 75.53125 " transform="matrix(1,0,0,-1,0,114.75)"/>
<path style="fill:none;stroke-width:2.26;stroke-linecap:round;stroke-linejoin:round;stroke:rgb(0%,0%,0%);stroke-opacity:1;stroke-miterlimit:10;" d="M 28.125 89.65625 L 28.4375 90.25 L 29.0625 90.71875 L 30.09375 91.15625 L 31.3125 91.3125 L 32.5 91.15625 L 33.59375 90.46875 L 34.28125 89.4375 L 34.6875 88.34375 L 34.875 87.3125 L 34.8125 86.625 L 34.59375 86 L 34.15625 85.34375 L 33.46875 84.6875 L 32.53125 84.03125 L 31.46875 83.5625 L 30.59375 83.3125 L 29.96875 83.1875 L 29.53125 83.0625 L 29.34375 82.84375 " transform="matrix(1,0,0,-1,0,114.75)"/>
<path style="fill:none;stroke-width:1.41;stroke-linecap:round;stroke-linejoin:round;stroke:rgb(0%,0%,0%);stroke-opacity:1;stroke-miterlimit:10;" d="M 52.90625 78.34375 L 53.15625 78.96875 L 53.59375 80.375 L 54.1875 82.3125 L 54.78125 84.34375 L 55.3125 86.15625 L 55.6875 87.3125 L 55.96875 87.78125 L 56.375 87.375 L 56.6875 86.4375 L 57.0625 84.90625 L 57.53125 83.09375 L 57.90625 81.34375 L 58.1875 79.96875 L 58.3125 79.34375 " transform="matrix(1,0,0,-1,0,114.75)"/>
<path style="fill:none;stroke-width:1.41;stroke-linecap:round;stroke-linejoin:round;stroke:rgb(0%,0%,0%);stroke-opacity:1;stroke-miterlimit:10;" d="M 54.40625 81.53125 L 54 81.8125 L 54.21875 81.9375 L 55.0625 81.8125 L 56.0625 81.75 L 57.0625 81.75 L 57.75 81.8125 L 58.0625 81.9375 " transform="matrix(1,0,0,-1,0,114.75)"/>
<path style="fill:none;stroke-width:2.26;stroke-linecap:round;stroke-linejoin:round;stroke:rgb(0%,0%,0%);stroke-opacity:1;stroke-miterlimit:10;" d="M 89.605469 101.300781 L 89.652344 95.347656 L 89.695312 89.394531 " transform="matrix(1,0,0,-1,0,114.75)"/>
<path style="fill:none;stroke-width:2.26;stroke-linecap:round;stroke-linejoin:round;stroke:rgb(0%,0%,0%);stroke-opacity:1;stroke-miterlimit:10;" d="M 89.695312 89.304688 L 96.164062 89.171875 " transform="matrix(1,0,0,-1,0,114.75)"/>
<path style="fill:none;stroke-width:2.26;stroke-linecap:round;stroke-linejoin:round;stroke:rgb(0%,0%,0%);stroke-opacity:1;stroke-miterlimit:10;" d="M 96.253906 89.085938 L 96.195312 82.597656 L 96.132812 76.105469 L 96.074219 69.617188 " transform="matrix(1,0,0,-1,0,114.75)"/>
<path style="fill:none;stroke-width:2.26;stroke-linecap:round;stroke-linejoin:round;stroke:rgb(0%,0%,0%);stroke-opacity:1;stroke-miterlimit:10;" d="M 96.074219 69.617188 L 90.054688 69.882812 " transform="matrix(1,0,0,-1,0,114.75)"/>
<path style="fill:none;stroke-width:2.26;stroke-linecap:round;stroke-linejoin:round;stroke:rgb(0%,0%,0%);stroke-opacity:1;stroke-miterlimit:10;" d="M 90.324219 69.792969 L 90.59375 50.808594 " transform="matrix(1,0,0,-1,0,114.75)"/>
<path style="fill:none;stroke-width:2.26;stroke-linecap:round;stroke-linejoin:round;stroke:rgb(0%,0%,0%);stroke-opacity:1;stroke-miterlimit:10;" d="M 90.59375 50.238281 L 96.972656 50.28125 " transform="matrix(1,0,0,-1,0,114.75)"/>
<path style="fill:none;stroke-width:2.26;stroke-linecap:round;stroke-linejoin:round;stroke:rgb(0%,0%,0%);stroke-opacity:1;stroke-miterlimit:10;" d="M 96.882812 50.238281 L 96.769531 44.921875 L 96.660156 39.601562 L 96.433594 28.96875 " transform="matrix(1,0,0,-1,0,114.75)"/>
<path style="fill:none;stroke-width:2.26;stroke-linecap:round;stroke-linejoin:round;stroke:rgb(0%,0%,0%);stroke-opacity:1;stroke-miterlimit:10;" d="M 96.253906 28.617188 L 90.953125 28.703125 " transform="matrix(1,0,0,-1,0,114.75)"/>
<path style="fill:none;stroke-width:2.26;stroke-linecap:round;stroke-linejoin:round;stroke:rgb(0%,0%,0%);stroke-opacity:1;stroke-miterlimit:10;" d="M 90.503906 28.660156 L 90.445312 22.832031 L 90.382812 17 L 90.324219 11.171875 " transform="matrix(1,0,0,-1,0,114.75)"/>
<path style="fill:none;stroke-width:2.26;stroke-linecap:round;stroke-linejoin:round;stroke:rgb(0%,0%,0%);stroke-opacity:1;stroke-miterlimit:10;" d="M 91.222656 10.730469 L 101.675781 10.761719 L 106.90625 10.78125 L 133.039062 10.859375 L 138.269531 10.875 L 148.722656 10.90625 " transform="matrix(1,0,0,-1,0,114.75)"/>
<path style="fill:none;stroke-width:2.26;stroke-linecap:round;stroke-linejoin:round;stroke:rgb(0%,0%,0%);stroke-opacity:1;stroke-miterlimit:10;" d="M 148.453125 11.039062 L 148.433594 16.054688 L 148.414062 21.066406 L 148.375 31.097656 L 148.351562 36.113281 L 148.332031 41.125 L 148.273438 56.171875 L 148.253906 61.183594 L 148.195312 76.230469 L 148.171875 81.242188 L 148.113281 96.289062 L 148.09375 101.300781 " transform="matrix(1,0,0,-1,0,114.75)"/>
<path style="fill:none;stroke-width:2.26;stroke-linecap:round;stroke-linejoin:round;stroke:rgb(0%,0%,0%);stroke-opacity:1;stroke-miterlimit:10;" d="M 147.464844 101.082031 L 137.011719 101.316406 L 131.78125 101.429688 L 121.328125 101.664062 L 116.101562 101.777344 L 105.648438 102.011719 L 100.417969 102.125 L 95.191406 102.242188 L 89.964844 102.355469 " transform="matrix(1,0,0,-1,0,114.75)"/>
<path style="fill:none;stroke-width:1.41;stroke-linecap:round;stroke-linejoin:round;stroke:rgb(0%,0%,0%);stroke-opacity:1;stroke-miterlimit:10;" d="M 99.308594 75.332031 L 99.488281 75.988281 L 99.757812 77.132812 L 100.386719 78.890625 L 101.015625 80.78125 L 101.734375 82.625 L 102.542969 84.207031 L 102.992188 85.175781 L 103.351562 85.703125 L 103.53125 85.921875 L 103.890625 85.746094 L 104.25 85 L 104.699219 83.679688 L 105.148438 81.789062 L 105.777344 79.503906 L 106.226562 77.617188 L 106.585938 76.164062 L 106.855469 75.332031 L 106.855469 75.066406 " transform="matrix(1,0,0,-1,0,114.75)"/>
<path style="fill:none;stroke-width:1.41;stroke-linecap:round;stroke-linejoin:round;stroke:rgb(0%,0%,0%);stroke-opacity:1;stroke-miterlimit:10;" d="M 100.835938 79.328125 L 101.195312 79.109375 L 102.09375 79.109375 L 103.351562 79.199219 L 104.609375 79.375 L 105.597656 79.550781 L 106.40625 79.550781 " transform="matrix(1,0,0,-1,0,114.75)"/>
<path style="fill:none;stroke-width:1.41;stroke-linecap:round;stroke-linejoin:round;stroke:rgb(0%,0%,0%);stroke-opacity:1;stroke-miterlimit:10;" d="M 102 43.5 L 102 42.4375 L 101.96875 41.4375 L 101.90625 40.40625 L 101.8125 39.40625 L 101.71875 38.65625 L 101.59375 38 L 101.53125 37.46875 " transform="matrix(1,0,0,-1,0,114.75)"/>
<path style="fill:none;stroke-width:1.41;stroke-linecap:round;stroke-linejoin:round;stroke:rgb(0%,0%,0%);stroke-opacity:1;stroke-miterlimit:10;" d="M 102.25 44 L 102.21875 44.3125 L 102.53125 44.6875 L 103.25 44.90625 L 104.25 45 L 105.21875 44.84375 L 106 44.4375 L 106.4375 43.65625 L 106.5 42.875 L 106.40625 42.09375 L 106.15625 41.28125 L 105.71875 40.875 L 105.3125 40.53125 L 104.90625 40.25 L 104.5 40.03125 L 104.125 39.84375 L 103.71875 39.78125 L 103.40625 39.8125 L 103.625 40.0625 L 104.3125 39.875 L 105.09375 39.46875 L 105.96875 38.84375 L 106.8125 37.84375 L 107.15625 36.875 L 107.03125 35.9375 L 106.34375 35.28125 L 105.3125 35.15625 L 104.21875 35.3125 L 103.3125 35.75 L 102.75 36.1875 L 102.4375 36.59375 L 102.28125 36.90625 L 102.28125 37.1875 " transform="matrix(1,0,0,-1,0,114.75)"/>
<path style="fill:none;stroke-width:2.26;stroke-linecap:round;stroke-linejoin:round;stroke:rgb(0%,0%,0%);stroke-opacity:1;stroke-miterlimit:10;" d="M 124.4375 66.8125 L 124.21875 66.65625 L 124.3125 65.6875 L 124.46875 64.09375 L 124.71875 61.8125 L 124.96875 59.78125 L 125.09375 58.1875 L 125.1875 56.96875 L 125.1875 56.34375 L 125.15625 55.96875 L 124.9375 56.625 L 124.8125 58.0625 L 124.78125 60.03125 L 125.03125 62.375 L 125.625 64.40625 L 126.59375 66.03125 L 127.96875 67.09375 L 129.28125 67.5625 L 130.5625 67.53125 L 131.53125 67.1875 L 132.09375 66.75 L 132.5 66.28125 L 132.71875 66.03125 L 132.875 65.78125 " transform="matrix(1,0,0,-1,0,114.75)"/>
<path style="fill:none;stroke-width:2.26;stroke-linecap:round;stroke-linejoin:round;stroke:rgb(0%,0%,0%);stroke-opacity:1;stroke-miterlimit:10;" d="M 66 81.1875 L 95.0625 80.25 " transform="matrix(1,0,0,-1,0,114.75)"/>
<path style="fill:none;stroke-width:2.26;stroke-linecap:round;stroke-linejoin:round;stroke:rgb(0%,0%,0%);stroke-opacity:1;stroke-miterlimit:10;" d="M 65.4375 36.90625 L 95.34375 36.90625 " transform="matrix(1,0,0,-1,0,114.75)"/>
<path style="fill:none;stroke-width:2.26;stroke-linecap:round;stroke-linejoin:round;stroke:rgb(0%,0%,0%);stroke-opacity:1;stroke-miterlimit:10;" d="M 207.332031 61.28125 L 207.511719 61.5 L 207.421875 61.941406 L 207.242188 62.160156 L 206.703125 62.25 L 206.253906 61.851562 L 205.804688 61.28125 L 205.445312 60.535156 L 205.445312 59.566406 L 205.714844 58.734375 L 206.34375 58.074219 L 207.242188 57.722656 L 208.230469 57.722656 L 209.21875 58.203125 L 209.847656 58.996094 L 210.027344 59.960938 L 209.9375 61.015625 L 209.488281 61.851562 L 208.769531 62.378906 L 207.871094 62.421875 L 206.972656 62.027344 L 206.34375 61.238281 L 205.894531 60.269531 L 206.164062 59.257812 L 206.792969 58.425781 L 207.601562 57.851562 L 208.410156 57.722656 L 209.128906 58.074219 L 209.488281 58.777344 L 209.578125 59.789062 L 209.308594 60.753906 L 208.769531 61.5 L 208.050781 61.898438 L 207.511719 61.851562 L 207.0625 61.457031 L 206.882812 60.753906 L 207.242188 60.09375 L 207.871094 59.566406 L 208.589844 59.566406 L 209.128906 59.917969 L 209.308594 60.445312 L 209.21875 60.972656 L 208.679688 61.195312 L 208.230469 60.929688 L 207.78125 60.535156 L 207.601562 59.917969 L 207.691406 59.566406 L 207.960938 59.480469 L 208.410156 59.523438 L 208.769531 59.65625 L 208.589844 59.480469 L 208.320312 59.875 L 208.410156 60.183594 L 208.589844 60.402344 " transform="matrix(1,0,0,-1,0,114.75)"/>
<path style="fill:none;stroke-width:2.26;stroke-linecap:round;stroke-linejoin:round;stroke:rgb(0%,0%,0%);stroke-opacity:1;stroke-miterlimit:10;" d="M 176.5625 86.476562 L 176.742188 86.699219 L 176.652344 87.136719 L 176.472656 87.355469 L 175.933594 87.445312 L 175.484375 87.050781 L 175.035156 86.476562 L 174.675781 85.730469 L 174.675781 84.765625 L 174.945312 83.929688 L 175.574219 83.269531 L 176.472656 82.917969 L 177.460938 82.917969 L 178.449219 83.402344 L 179.078125 84.191406 L 179.257812 85.160156 L 179.167969 86.214844 L 178.71875 87.050781 L 178 87.578125 L 177.101562 87.621094 L 176.203125 87.226562 L 175.574219 86.433594 L 175.125 85.46875 L 175.394531 84.457031 L 176.023438 83.621094 L 176.832031 83.050781 L 177.640625 82.917969 L 178.359375 83.269531 L 178.71875 83.972656 L 178.808594 84.984375 L 178.539062 85.949219 L 178 86.699219 L 177.28125 87.09375 L 176.742188 87.050781 L 176.292969 86.652344 L 176.113281 85.949219 L 176.472656 85.292969 L 177.101562 84.765625 L 177.820312 84.765625 L 178.359375 85.117188 L 178.539062 85.644531 L 178.449219 86.171875 L 177.910156 86.390625 L 177.460938 86.125 L 177.011719 85.730469 L 176.832031 85.117188 L 176.921875 84.765625 L 177.191406 84.675781 L 177.640625 84.71875 L 178 84.851562 L 177.820312 84.675781 L 177.550781 85.070312 L 177.640625 85.378906 L 177.820312 85.597656 " transform="matrix(1,0,0,-1,0,114.75)"/>
<path style="fill:none;stroke-width:2.26;stroke-linecap:round;stroke-linejoin:round;stroke:rgb(0%,0%,0%);stroke-opacity:1;stroke-miterlimit:10;" d="M 177.8125 41.664062 L 177.992188 41.882812 L 177.902344 42.324219 L 177.722656 42.542969 L 177.183594 42.632812 L 176.734375 42.234375 L 176.285156 41.664062 L 175.925781 40.917969 L 175.925781 39.953125 L 176.195312 39.117188 L 176.824219 38.457031 L 177.722656 38.105469 L 178.710938 38.105469 L 179.699219 38.589844 L 180.328125 39.378906 L 180.507812 40.347656 L 180.417969 41.402344 L 179.96875 42.234375 L 179.25 42.765625 L 178.351562 42.808594 L 177.453125 42.414062 L 176.824219 41.621094 L 176.375 40.65625 L 176.644531 39.644531 L 177.273438 38.808594 L 178.082031 38.238281 L 178.890625 38.105469 L 179.609375 38.457031 L 179.96875 39.160156 L 180.058594 40.171875 L 179.789062 41.136719 L 179.25 41.882812 L 178.53125 42.28125 L 177.992188 42.234375 L 177.542969 41.839844 L 177.363281 41.136719 L 177.722656 40.476562 L 178.351562 39.953125 L 179.070312 39.953125 L 179.609375 40.304688 L 179.789062 40.828125 L 179.699219 41.359375 L 179.160156 41.578125 L 178.710938 41.3125 L 178.261719 40.917969 L 178.082031 40.304688 L 178.171875 39.953125 L 178.441406 39.863281 L 178.890625 39.90625 L 179.25 40.039062 L 179.070312 39.863281 L 178.800781 40.257812 L 178.890625 40.566406 L 179.070312 40.785156 " transform="matrix(1,0,0,-1,0,114.75)"/>
<path style="fill:none;stroke-width:1.41;stroke-linecap:round;stroke-linejoin:round;stroke:rgb(0%,0%,0%);stroke-opacity:1;stroke-miterlimit:10;" d="M 198.183594 77.703125 L 198.621094 78.390625 L 199.027344 79.734375 L 199.621094 81.828125 L 200.152344 83.953125 L 200.589844 85.734375 L 200.871094 86.953125 L 201.089844 87.390625 L 201.339844 87.359375 L 201.777344 86.546875 L 202.339844 84.921875 L 203.027344 82.671875 L 203.714844 80.265625 L 204.246094 78.421875 L 204.621094 77.296875 L 204.808594 76.796875 " transform="matrix(1,0,0,-1,0,114.75)"/>
<path style="fill:none;stroke-width:1.41;stroke-linecap:round;stroke-linejoin:round;stroke:rgb(0%,0%,0%);stroke-opacity:1;stroke-miterlimit:10;" d="M 200.277344 80.359375 L 200.808594 80.546875 L 201.527344 80.609375 L 202.277344 80.609375 L 202.839844 80.578125 L 203.464844 80.671875 " transform="matrix(1,0,0,-1,0,114.75)"/>
<path style="fill:none;stroke-width:1.41;stroke-linecap:round;stroke-linejoin:round;stroke:rgb(0%,0%,0%);stroke-opacity:1;stroke-miterlimit:10;" d="M 207.527344 82.578125 L 207.714844 82.421875 L 208.214844 82.390625 L 208.839844 82.359375 L 209.433594 82.390625 L 209.871094 82.421875 L 210.496094 82.484375 L 210.746094 82.484375 " transform="matrix(1,0,0,-1,0,114.75)"/>
<path style="fill:none;stroke-width:1.41;stroke-linecap:round;stroke-linejoin:round;stroke:rgb(0%,0%,0%);stroke-opacity:1;stroke-miterlimit:10;" d="M 208.277344 79.796875 L 208.902344 79.921875 L 209.621094 80.046875 L 210.433594 80.203125 L 210.933594 80.234375 L 211.246094 80.265625 " transform="matrix(1,0,0,-1,0,114.75)"/>
<path style="fill:none;stroke-width:1.41;stroke-linecap:round;stroke-linejoin:round;stroke:rgb(0%,0%,0%);stroke-opacity:1;stroke-miterlimit:10;" d="M 215.558594 83.140625 L 215.496094 82.296875 L 215.621094 80.953125 L 215.746094 79.171875 L 215.839844 77.609375 L 215.933594 76.453125 L 215.964844 75.796875 L 215.964844 75.515625 L 215.902344 75.078125 " transform="matrix(1,0,0,-1,0,114.75)"/>
<path style="fill:none;stroke-width:1.41;stroke-linecap:round;stroke-linejoin:round;stroke:rgb(0%,0%,0%);stroke-opacity:1;stroke-miterlimit:10;" d="M 215.808594 82.640625 L 215.964844 82.984375 L 216.183594 83.265625 L 216.683594 83.484375 L 217.371094 83.609375 L 218.246094 83.421875 L 219.089844 82.921875 L 219.652344 82.046875 L 219.808594 80.765625 L 219.496094 79.578125 L 218.871094 78.671875 L 218.027344 78.234375 L 217.371094 78.203125 L 216.902344 78.453125 L 216.652344 78.765625 L 216.621094 79.078125 " transform="matrix(1,0,0,-1,0,114.75)"/>
<path style="fill:none;stroke-width:1.41;stroke-linecap:round;stroke-linejoin:round;stroke:rgb(0%,0%,0%);stroke-opacity:1;stroke-miterlimit:10;" d="M 222.871094 83.109375 L 222.996094 83.296875 L 223.058594 83.640625 L 223.371094 83.703125 L 223.714844 83.703125 L 223.464844 83.515625 L 223.152344 83.484375 L 222.808594 83.578125 L 222.558594 83.765625 L 222.496094 83.984375 L 222.777344 84.109375 " transform="matrix(1,0,0,-1,0,114.75)"/>
<path style="fill:none;stroke-width:1.41;stroke-linecap:round;stroke-linejoin:round;stroke:rgb(0%,0%,0%);stroke-opacity:1;stroke-miterlimit:10;" d="M 223.152344 79.609375 L 223.308594 79.390625 L 223.558594 79.296875 L 223.808594 79.046875 L 223.933594 78.765625 L 223.871094 78.515625 L 223.652344 78.453125 L 224.027344 78.671875 L 224.371094 78.671875 L 224.152344 78.453125 L 223.902344 78.390625 L 223.714844 78.515625 " transform="matrix(1,0,0,-1,0,114.75)"/>
<path style="fill:none;stroke-width:1.41;stroke-linecap:round;stroke-linejoin:round;stroke:rgb(0%,0%,0%);stroke-opacity:1;stroke-miterlimit:10;" d="M 228.183594 78.640625 L 228.183594 78.984375 L 228.308594 79.453125 L 228.464844 80.046875 L 228.652344 80.671875 L 228.808594 81.359375 L 229.027344 82.109375 L 229.339844 83.421875 L 229.683594 84.859375 L 230.027344 86.171875 L 230.339844 87.359375 L 230.464844 87.859375 L 230.808594 87.546875 L 231.027344 86.828125 L 231.371094 85.703125 L 231.652344 84.546875 L 232.027344 83.078125 L 232.433594 81.484375 L 232.839844 80.109375 L 233.183594 78.859375 L 233.402344 78.109375 L 233.496094 77.859375 " transform="matrix(1,0,0,-1,0,114.75)"/>
<path style="fill:none;stroke-width:1.41;stroke-linecap:round;stroke-linejoin:round;stroke:rgb(0%,0%,0%);stroke-opacity:1;stroke-miterlimit:10;" d="M 229.683594 81.078125 L 229.808594 81.265625 L 230.277344 81.171875 L 230.871094 81.140625 L 231.308594 81.046875 L 231.714844 81.046875 L 232.089844 81.234375 " transform="matrix(1,0,0,-1,0,114.75)"/>
<path style="fill:none;stroke-width:2.26;stroke-linecap:round;stroke-linejoin:round;stroke:rgb(0%,0%,0%);stroke-opacity:1;stroke-miterlimit:10;" d="M 318.019531 60.28125 L 318.199219 60.5 L 318.109375 60.941406 L 317.929688 61.160156 L 317.390625 61.25 L 316.941406 60.851562 L 316.492188 60.28125 L 316.132812 59.535156 L 316.132812 58.566406 L 316.402344 57.734375 L 317.03125 57.074219 L 317.929688 56.722656 L 318.917969 56.722656 L 319.90625 57.207031 L 320.535156 57.996094 L 320.714844 58.964844 L 320.625 60.019531 L 320.175781 60.851562 L 319.457031 61.378906 L 318.558594 61.425781 L 317.660156 61.027344 L 317.03125 60.238281 L 316.582031 59.269531 L 316.851562 58.261719 L 317.480469 57.425781 L 318.289062 56.855469 L 319.097656 56.722656 L 319.816406 57.074219 L 320.175781 57.777344 L 320.265625 58.789062 L 319.996094 59.753906 L 319.457031 60.5 L 318.738281 60.898438 L 318.199219 60.851562 L 317.75 60.457031 L 317.570312 59.753906 L 317.929688 59.09375 L 318.558594 58.566406 L 319.277344 58.566406 L 319.816406 58.917969 L 319.996094 59.445312 L 319.90625 59.972656 L 319.367188 60.195312 L 318.917969 59.929688 L 318.46875 59.535156 L 318.289062 58.917969 L 318.378906 58.566406 L 318.648438 58.480469 L 319.097656 58.523438 L 319.457031 58.65625 L 319.277344 58.480469 L 319.007812 58.875 L 319.097656 59.183594 L 319.277344 59.402344 " transform="matrix(1,0,0,-1,0,114.75)"/>
<path style="fill:none;stroke-width:2.26;stroke-linecap:round;stroke-linejoin:round;stroke:rgb(0%,0%,0%);stroke-opacity:1;stroke-miterlimit:10;" d="M 285.121094 61.121094 L 285.300781 61.339844 L 285.210938 61.78125 L 285.03125 62 L 284.492188 62.085938 L 284.042969 61.691406 L 283.59375 61.121094 L 283.234375 60.375 L 283.234375 59.40625 L 283.503906 58.570312 L 284.132812 57.914062 L 285.03125 57.5625 L 286.019531 57.5625 L 287.007812 58.042969 L 287.636719 58.835938 L 287.816406 59.800781 L 287.726562 60.855469 L 287.277344 61.691406 L 286.558594 62.21875 L 285.660156 62.261719 L 284.761719 61.867188 L 284.132812 61.078125 L 283.683594 60.109375 L 283.953125 59.097656 L 284.582031 58.265625 L 285.390625 57.691406 L 286.199219 57.5625 L 286.917969 57.914062 L 287.277344 58.617188 L 287.367188 59.625 L 287.097656 60.59375 L 286.558594 61.339844 L 285.839844 61.734375 L 285.300781 61.691406 L 284.851562 61.296875 L 284.671875 60.59375 L 285.03125 59.933594 L 285.660156 59.40625 L 286.378906 59.40625 L 286.917969 59.757812 L 287.097656 60.285156 L 287.007812 60.8125 L 286.46875 61.03125 L 286.019531 60.769531 L 285.570312 60.375 L 285.390625 59.757812 L 285.480469 59.40625 L 285.75 59.320312 L 286.199219 59.363281 L 286.558594 59.496094 L 286.378906 59.320312 L 286.109375 59.714844 L 286.199219 60.023438 L 286.378906 60.242188 " transform="matrix(1,0,0,-1,0,114.75)"/>
<path style="fill:none;stroke-width:1.41;stroke-linecap:round;stroke-linejoin:round;stroke:rgb(0%,0%,0%);stroke-opacity:1;stroke-miterlimit:10;" d="M 286.574219 81.199219 L 287.011719 81.886719 L 287.417969 83.230469 L 288.011719 85.324219 L 288.542969 87.449219 L 288.980469 89.230469 L 289.261719 90.449219 L 289.480469 90.886719 L 289.730469 90.855469 L 290.167969 90.042969 L 290.730469 88.417969 L 291.417969 86.167969 L 292.105469 83.761719 L 292.636719 81.917969 L 293.011719 80.792969 L 293.199219 80.292969 " transform="matrix(1,0,0,-1,0,114.75)"/>
<path style="fill:none;stroke-width:1.41;stroke-linecap:round;stroke-linejoin:round;stroke:rgb(0%,0%,0%);stroke-opacity:1;stroke-miterlimit:10;" d="M 288.667969 83.855469 L 289.199219 84.042969 L 289.917969 84.105469 L 290.667969 84.105469 L 291.230469 84.074219 L 291.855469 84.167969 " transform="matrix(1,0,0,-1,0,114.75)"/>
<path style="fill:none;stroke-width:1.41;stroke-linecap:round;stroke-linejoin:round;stroke:rgb(0%,0%,0%);stroke-opacity:1;stroke-miterlimit:10;" d="M 295.917969 86.074219 L 296.105469 85.917969 L 296.605469 85.886719 L 297.230469 85.855469 L 297.824219 85.886719 L 298.261719 85.917969 L 298.886719 85.980469 L 299.136719 85.980469 " transform="matrix(1,0,0,-1,0,114.75)"/>
<path style="fill:none;stroke-width:1.41;stroke-linecap:round;stroke-linejoin:round;stroke:rgb(0%,0%,0%);stroke-opacity:1;stroke-miterlimit:10;" d="M 296.667969 83.292969 L 297.292969 83.417969 L 298.011719 83.542969 L 298.824219 83.699219 L 299.324219 83.730469 L 299.636719 83.761719 " transform="matrix(1,0,0,-1,0,114.75)"/>
<path style="fill:none;stroke-width:1.41;stroke-linecap:round;stroke-linejoin:round;stroke:rgb(0%,0%,0%);stroke-opacity:1;stroke-miterlimit:10;" d="M 303.949219 86.636719 L 303.886719 85.792969 L 304.011719 84.449219 L 304.136719 82.667969 L 304.230469 81.105469 L 304.324219 79.949219 L 304.355469 79.292969 L 304.355469 79.011719 L 304.292969 78.574219 " transform="matrix(1,0,0,-1,0,114.75)"/>
<path style="fill:none;stroke-width:1.41;stroke-linecap:round;stroke-linejoin:round;stroke:rgb(0%,0%,0%);stroke-opacity:1;stroke-miterlimit:10;" d="M 304.199219 86.136719 L 304.355469 86.480469 L 304.574219 86.761719 L 305.074219 86.980469 L 305.761719 87.105469 L 306.636719 86.917969 L 307.480469 86.417969 L 308.042969 85.542969 L 308.199219 84.261719 L 307.886719 83.074219 L 307.261719 82.167969 L 306.417969 81.730469 L 305.761719 81.699219 L 305.292969 81.949219 L 305.042969 82.261719 L 305.011719 82.574219 " transform="matrix(1,0,0,-1,0,114.75)"/>
<path style="fill:none;stroke-width:1.41;stroke-linecap:round;stroke-linejoin:round;stroke:rgb(0%,0%,0%);stroke-opacity:1;stroke-miterlimit:10;" d="M 311.261719 86.605469 L 311.386719 86.792969 L 311.449219 87.136719 L 311.761719 87.199219 L 312.105469 87.199219 L 311.855469 87.011719 L 311.542969 86.980469 L 311.199219 87.074219 L 310.949219 87.261719 L 310.886719 87.480469 L 311.167969 87.605469 " transform="matrix(1,0,0,-1,0,114.75)"/>
<path style="fill:none;stroke-width:1.41;stroke-linecap:round;stroke-linejoin:round;stroke:rgb(0%,0%,0%);stroke-opacity:1;stroke-miterlimit:10;" d="M 311.542969 83.105469 L 311.699219 82.886719 L 311.949219 82.792969 L 312.199219 82.542969 L 312.324219 82.261719 L 312.261719 82.011719 L 312.042969 81.949219 L 312.417969 82.167969 L 312.761719 82.167969 L 312.542969 81.949219 L 312.292969 81.886719 L 312.105469 82.011719 " transform="matrix(1,0,0,-1,0,114.75)"/>
<path style="fill:none;stroke-width:1.41;stroke-linecap:round;stroke-linejoin:round;stroke:rgb(0%,0%,0%);stroke-opacity:1;stroke-miterlimit:10;" d="M 316.574219 82.136719 L 316.574219 82.480469 L 316.699219 82.949219 L 316.855469 83.542969 L 317.042969 84.167969 L 317.199219 84.855469 L 317.417969 85.605469 L 317.730469 86.917969 L 318.074219 88.355469 L 318.417969 89.667969 L 318.730469 90.855469 L 318.855469 91.355469 L 319.199219 91.042969 L 319.417969 90.324219 L 319.761719 89.199219 L 320.042969 88.042969 L 320.417969 86.574219 L 320.824219 84.980469 L 321.230469 83.605469 L 321.574219 82.355469 L 321.792969 81.605469 L 321.886719 81.355469 " transform="matrix(1,0,0,-1,0,114.75)"/>
<path style="fill:none;stroke-width:1.41;stroke-linecap:round;stroke-linejoin:round;stroke:rgb(0%,0%,0%);stroke-opacity:1;stroke-miterlimit:10;" d="M 318.074219 84.574219 L 318.199219 84.761719 L 318.667969 84.667969 L 319.261719 84.636719 L 319.699219 84.542969 L 320.105469 84.542969 L 320.480469 84.730469 " transform="matrix(1,0,0,-1,0,114.75)"/>
<path style="fill:none;stroke-width:2.26;stroke-linecap:round;stroke-linejoin:round;stroke:rgb(19.999695%,19.999695%,79.998779%);stroke-opacity:1;stroke-miterlimit:10;" d="M 255.65625 61.375 L 255.90625 61.8125 L 256.15625 62.375 L 256.6875 63.28125 L 257.40625 64.46875 L 258.53125 65.53125 L 259.53125 66.3125 L 260.40625 66.71875 L 261.15625 66.71875 L 261.6875 66.46875 L 262.34375 65.9375 L 263.125 65.09375 L 264.0625 63.96875 L 265.0625 62.90625 L 266.15625 62.21875 L 267.40625 62.09375 L 268.59375 62.5625 L 269.53125 63.375 L 270.125 64.4375 L 270.34375 65.34375 L 270.40625 66.0625 L 270.375 66.625 L 270.28125 66.90625 " transform="matrix(1,0,0,-1,0,114.75)"/>
<path style="fill:none;stroke-width:2.26;stroke-linecap:round;stroke-linejoin:round;stroke:rgb(19.999695%,19.999695%,79.998779%);stroke-opacity:1;stroke-miterlimit:10;" d="M 257.40625 56.21875 L 257.46875 56.78125 L 257.8125 57.53125 L 258.53125 58.5 L 259.28125 59.34375 L 260.1875 59.90625 L 261.0625 60.15625 L 261.75 59.9375 L 262.53125 59.5 L 263.28125 58.78125 L 263.9375 58.03125 L 264.71875 57.1875 L 265.34375 56.46875 L 265.90625 56.03125 L 266.59375 55.78125 L 267.34375 55.8125 L 267.9375 55.96875 L 268.59375 56.28125 L 269.21875 56.8125 L 269.75 57.46875 L 270.1875 58.125 L 270.46875 58.6875 L 270.5625 59.03125 L 270.53125 59.28125 " transform="matrix(1,0,0,-1,0,114.75)"/>
<path style="fill:none;stroke-width:1.41;stroke-linecap:round;stroke-linejoin:round;stroke:rgb(0%,0%,0%);stroke-opacity:1;stroke-miterlimit:10;" d="M 183.664062 49.90625 L 183.664062 50.167969 L 183.753906 49.507812 L 183.574219 48.453125 L 183.394531 47.179688 L 183.214844 46.214844 L 183.484375 45.640625 L 184.382812 45.246094 L 185.640625 45.027344 L 186.898438 44.894531 L 187.976562 44.808594 L 188.515625 44.808594 " transform="matrix(1,0,0,-1,0,114.75)"/>
<path style="fill:none;stroke-width:1.41;stroke-linecap:round;stroke-linejoin:round;stroke:rgb(0%,0%,0%);stroke-opacity:1;stroke-miterlimit:10;" d="M 184.921875 45.992188 L 185.011719 46.257812 L 185.730469 46.742188 L 186.71875 47.445312 L 187.886719 48.191406 L 189.234375 49.070312 L 190.222656 49.6875 L 191.121094 50.257812 L 192.019531 50.785156 L 192.648438 51.265625 L 193.367188 51.75 L 193.996094 52.277344 L 194.625 52.71875 L 195.164062 53.113281 L 195.792969 53.597656 L 196.511719 54.125 L 197.140625 54.652344 L 197.949219 55.179688 L 198.398438 55.398438 L 198.667969 55.53125 L 199.027344 55.707031 L 199.296875 55.925781 L 199.386719 56.1875 " transform="matrix(1,0,0,-1,0,114.75)"/>
<path style="fill:none;stroke-width:1.41;stroke-linecap:round;stroke-linejoin:round;stroke:rgb(0%,0%,0%);stroke-opacity:1;stroke-miterlimit:10;" d="M 184.023438 76.054688 L 184.292969 75.832031 L 184.203125 76.710938 L 184.113281 77.765625 L 184.023438 79.039062 L 183.933594 80.140625 L 183.933594 80.84375 L 183.84375 81.28125 L 184.203125 81.546875 L 184.832031 81.457031 L 186 81.238281 L 187.347656 81.019531 L 188.425781 80.886719 L 189.324219 80.796875 L 190.042969 80.796875 " transform="matrix(1,0,0,-1,0,114.75)"/>
<path style="fill:none;stroke-width:1.41;stroke-linecap:round;stroke-linejoin:round;stroke:rgb(0%,0%,0%);stroke-opacity:1;stroke-miterlimit:10;" d="M 184.832031 81.019531 L 184.652344 80.84375 L 184.921875 80.445312 L 185.550781 79.742188 L 186.808594 78.601562 L 188.335938 77.238281 L 189.953125 75.746094 L 191.660156 74.164062 L 193.097656 72.757812 L 194.265625 71.527344 L 195.433594 70.382812 L 196.421875 69.546875 L 197.320312 68.800781 L 198.21875 68.230469 L 198.847656 67.789062 L 199.476562 67.394531 L 200.015625 67.085938 L 200.554688 66.648438 L 201.003906 66.339844 L 201.183594 66.121094 L 201.363281 65.8125 " transform="matrix(1,0,0,-1,0,114.75)"/>
<path style="fill:none;stroke-width:1.41;stroke-linecap:round;stroke-linejoin:round;stroke:rgb(0%,0%,0%);stroke-opacity:1;stroke-miterlimit:10;" d="M 219.691406 64.058594 L 218.972656 63.488281 L 217.984375 62.871094 L 216.816406 62.167969 L 215.828125 61.640625 L 215.378906 61.246094 L 215.289062 60.894531 L 215.738281 60.28125 L 216.636719 59.445312 L 217.804688 58.523438 L 219.0625 57.554688 L 220.050781 56.808594 L 220.769531 56.28125 L 221.039062 56.015625 L 220.859375 56.28125 " transform="matrix(1,0,0,-1,0,114.75)"/>
<path style="fill:none;stroke-width:1.41;stroke-linecap:round;stroke-linejoin:round;stroke:rgb(0%,0%,0%);stroke-opacity:1;stroke-miterlimit:10;" d="M 216.546875 60.804688 L 216.636719 61.027344 L 216.996094 61.246094 L 217.625 61.246094 L 218.433594 61.289062 L 219.332031 61.289062 L 220.410156 61.335938 L 221.398438 61.421875 L 222.566406 61.554688 L 223.824219 61.6875 L 225.082031 61.773438 L 226.160156 61.773438 L 227.417969 61.730469 L 228.675781 61.730469 L 230.023438 61.6875 L 231.550781 61.6875 L 232.898438 61.597656 L 233.976562 61.554688 L 236.042969 61.554688 L 236.851562 61.507812 L 237.75 61.464844 L 238.558594 61.335938 L 239.097656 61.289062 L 239.546875 61.246094 L 239.90625 61.203125 L 240.175781 61.15625 " transform="matrix(1,0,0,-1,0,114.75)"/>
<path style="fill:none;stroke-width:1.41;stroke-linecap:round;stroke-linejoin:round;stroke:rgb(0%,0%,0%);stroke-opacity:1;stroke-miterlimit:10;" d="M 197.859375 46.390625 L 198.039062 46.085938 L 198.128906 44.984375 L 198.21875 43.449219 L 198.21875 39.539062 L 198.128906 39.230469 " transform="matrix(1,0,0,-1,0,114.75)"/>
<path style="fill:none;stroke-width:1.41;stroke-linecap:round;stroke-linejoin:round;stroke:rgb(0%,0%,0%);stroke-opacity:1;stroke-miterlimit:10;" d="M 198.578125 45.425781 L 198.488281 45.734375 L 198.667969 46.085938 L 199.117188 46.390625 L 199.925781 46.523438 L 200.824219 46.65625 L 201.902344 46.4375 L 202.53125 45.777344 L 202.621094 44.898438 L 202.261719 43.929688 L 201.363281 43.226562 L 200.464844 42.921875 L 200.015625 42.832031 L 200.824219 42.746094 L 201.8125 42.4375 L 202.53125 42.042969 L 203.070312 41.382812 L 203.160156 40.59375 L 203.070312 39.800781 L 202.710938 39.054688 L 202.171875 38.4375 L 201.453125 38.132812 L 200.644531 38.085938 L 199.835938 38.304688 L 199.296875 38.65625 L 198.9375 39.007812 L 198.9375 39.359375 " transform="matrix(1,0,0,-1,0,114.75)"/>
<path style="fill:none;stroke-width:1.41;stroke-linecap:round;stroke-linejoin:round;stroke:rgb(0%,0%,0%);stroke-opacity:1;stroke-miterlimit:10;" d="M 206.753906 43.976562 L 207.382812 43.886719 L 208.011719 43.710938 L 209.089844 43.578125 L 209.898438 43.492188 L 210.527344 43.40625 L 211.066406 43.359375 " transform="matrix(1,0,0,-1,0,114.75)"/>
<path style="fill:none;stroke-width:1.41;stroke-linecap:round;stroke-linejoin:round;stroke:rgb(0%,0%,0%);stroke-opacity:1;stroke-miterlimit:10;" d="M 207.382812 41.867188 L 207.292969 41.601562 L 207.472656 41.296875 L 208.191406 40.945312 L 209.179688 40.722656 L 210.078125 40.679688 L 211.246094 40.679688 " transform="matrix(1,0,0,-1,0,114.75)"/>
<path style="fill:none;stroke-width:1.41;stroke-linecap:round;stroke-linejoin:round;stroke:rgb(0%,0%,0%);stroke-opacity:1;stroke-miterlimit:10;" d="M 218.253906 43.316406 L 218.523438 43.449219 L 218.433594 43.667969 L 218.253906 43.929688 L 217.804688 44.195312 L 217.085938 44.152344 L 216.457031 43.667969 L 215.917969 42.65625 L 215.828125 41.515625 L 216.007812 40.59375 L 216.546875 39.976562 L 217.265625 40.019531 L 217.894531 40.460938 L 218.523438 41.074219 L 218.882812 41.691406 L 219.0625 42.042969 L 218.972656 41.207031 L 218.792969 40.109375 L 218.613281 38.613281 L 218.34375 37.296875 L 218.164062 35.976562 L 218.34375 34.921875 L 218.882812 34.21875 L 219.601562 33.734375 L 220.410156 33.867188 L 221.039062 34.308594 L 221.308594 34.835938 L 221.488281 35.40625 L 221.308594 35.800781 L 221.128906 36.109375 L 221.039062 36.328125 L 220.769531 36.59375 L 220.410156 36.769531 L 220.140625 36.988281 L 219.691406 37.207031 L 219.332031 37.339844 L 218.972656 37.429688 L 219.332031 37.78125 L 220.050781 38 L 220.859375 38.304688 L 221.578125 38.613281 L 222.027344 38.964844 L 222.117188 39.1875 L 222.117188 39.667969 " transform="matrix(1,0,0,-1,0,114.75)"/>
<path style="fill:none;stroke-width:1.41;stroke-linecap:round;stroke-linejoin:round;stroke:rgb(0%,0%,0%);stroke-opacity:1;stroke-miterlimit:10;" d="M 224.542969 43.625 L 224.183594 43.710938 L 224.453125 43.625 L 224.09375 43.625 L 223.734375 43.800781 L 223.734375 44.0625 L 224.09375 44.152344 L 224.363281 44.0625 L 224.8125 43.800781 " transform="matrix(1,0,0,-1,0,114.75)"/>
<path style="fill:none;stroke-width:1.41;stroke-linecap:round;stroke-linejoin:round;stroke:rgb(0%,0%,0%);stroke-opacity:1;stroke-miterlimit:10;" d="M 224.992188 39.933594 L 225.171875 39.757812 L 225.351562 39.492188 L 225.261719 39.1875 L 224.992188 38.835938 L 224.632812 38.65625 L 224.363281 38.746094 L 224.363281 39.054688 L 224.453125 39.273438 L 224.722656 39.449219 " transform="matrix(1,0,0,-1,0,114.75)"/>
<path style="fill:none;stroke-width:1.41;stroke-linecap:round;stroke-linejoin:round;stroke:rgb(0%,0%,0%);stroke-opacity:1;stroke-miterlimit:10;" d="M 230.292969 46.304688 L 230.023438 45.820312 L 230.023438 42.480469 L 229.933594 40.636719 L 229.84375 38.921875 L 229.753906 38.394531 " transform="matrix(1,0,0,-1,0,114.75)"/>
<path style="fill:none;stroke-width:1.41;stroke-linecap:round;stroke-linejoin:round;stroke:rgb(0%,0%,0%);stroke-opacity:1;stroke-miterlimit:10;" d="M 229.753906 46.613281 L 230.113281 47.183594 L 230.832031 47.710938 L 232 48.019531 L 233.347656 48.019531 L 234.425781 47.402344 L 234.785156 46.390625 L 234.515625 45.25 L 233.617188 44.328125 L 232.539062 43.710938 L 231.820312 43.449219 L 232.179688 43.359375 L 232.988281 43.273438 L 233.886719 43.097656 L 234.515625 42.789062 L 234.875 42.128906 L 235.144531 41.425781 L 235.324219 40.679688 L 235.234375 39.710938 L 234.695312 38.921875 L 233.796875 38.21875 L 232.628906 37.78125 L 231.640625 37.78125 L 230.921875 38.042969 L 230.472656 38.304688 " transform="matrix(1,0,0,-1,0,114.75)"/>
<path style="fill:none;stroke-width:1.41;stroke-linecap:round;stroke-linejoin:round;stroke:rgb(0%,0%,0%);stroke-opacity:1;stroke-miterlimit:10;" d="M 313.398438 67 L 313.21875 67.175781 L 313.128906 67.394531 L 313.039062 67.660156 L 312.769531 68.1875 L 312.320312 68.933594 L 311.691406 69.726562 L 310.972656 70.648438 L 310.074219 71.484375 L 309.175781 72.097656 L 308.097656 72.710938 L 306.570312 73.152344 L 304.953125 73.371094 L 302.976562 73.371094 L 301.089844 73.328125 L 299.5625 73.152344 L 298.394531 72.933594 L 297.316406 72.710938 L 296.597656 72.40625 L 295.789062 72.054688 L 294.890625 71.613281 L 293.992188 71.042969 L 293.273438 70.429688 L 292.464844 69.726562 L 291.835938 69.023438 L 291.296875 68.363281 L 290.847656 67.835938 L 290.667969 67.527344 L 290.578125 67.308594 " transform="matrix(1,0,0,-1,0,114.75)"/>
<path style="fill:none;stroke-width:1.41;stroke-linecap:round;stroke-linejoin:round;stroke:rgb(0%,0%,0%);stroke-opacity:1;stroke-miterlimit:10;" d="M 288.691406 72.140625 L 288.511719 71.65625 L 288.511719 70.824219 L 288.421875 69.679688 L 288.332031 68.230469 L 288.332031 65.988281 L 288.511719 65.375 L 289.050781 65.242188 L 289.859375 65.460938 L 291.027344 65.902344 L 292.015625 66.339844 L 292.824219 66.734375 L 293.453125 66.867188 L 293.722656 66.957031 L 293.992188 66.867188 " transform="matrix(1,0,0,-1,0,114.75)"/>
<path style="fill:none;stroke-width:1.41;stroke-linecap:round;stroke-linejoin:round;stroke:rgb(0%,0%,0%);stroke-opacity:1;stroke-miterlimit:10;" d="M 316.902344 53.554688 L 316.542969 53.332031 L 316.183594 52.71875 L 315.375 51.664062 L 314.296875 50.519531 L 312.949219 49.421875 L 311.332031 48.410156 L 309.535156 47.707031 L 307.828125 47.3125 L 306.03125 47.179688 L 304.414062 47.269531 L 302.886719 47.398438 L 301.089844 47.621094 L 299.382812 47.75 L 297.765625 47.972656 L 296.328125 48.234375 L 295.339844 48.761719 L 294.53125 49.464844 L 293.902344 50.210938 L 293.09375 51.003906 L 291.835938 52.410156 L 291.027344 53.203125 L 290.21875 53.90625 L 289.589844 54.429688 L 289.050781 54.78125 L 288.871094 54.519531 L 288.871094 53.683594 L 288.960938 52.367188 L 289.050781 50.871094 L 288.960938 49.464844 L 288.871094 48.585938 L 288.78125 48.191406 L 288.691406 48.585938 L 288.691406 49.113281 L 288.78125 49.6875 L 288.78125 50.300781 L 288.871094 51.003906 L 288.871094 51.707031 L 288.960938 52.5 L 288.960938 53.15625 L 289.050781 53.773438 L 289.050781 54.210938 L 289.140625 54.429688 L 289.410156 54.652344 L 290.039062 54.5625 L 291.027344 54.519531 L 292.285156 54.429688 L 293.542969 54.476562 L 294.351562 54.609375 L 294.800781 54.738281 " transform="matrix(1,0,0,-1,0,114.75)"/>
<path style="fill:none;stroke-width:1.41;stroke-linecap:round;stroke-linejoin:round;stroke:rgb(0%,0%,0%);stroke-opacity:1;stroke-miterlimit:10;" d="M 329.480469 64.101562 L 329.210938 63.75 L 328.492188 63.132812 L 327.59375 62.386719 L 326.695312 61.683594 L 325.976562 61.15625 L 325.4375 60.714844 L 324.988281 60.363281 L 324.808594 60.144531 L 324.898438 59.925781 L 325.347656 59.660156 L 326.335938 59.308594 L 327.324219 58.828125 L 328.132812 58.386719 L 328.761719 58.078125 L 329.03125 57.945312 " transform="matrix(1,0,0,-1,0,114.75)"/>
<path style="fill:none;stroke-width:1.41;stroke-linecap:round;stroke-linejoin:round;stroke:rgb(0%,0%,0%);stroke-opacity:1;stroke-miterlimit:10;" d="M 325.707031 61.242188 L 326.066406 61.332031 L 326.964844 61.417969 L 327.863281 61.460938 L 328.761719 61.550781 L 330.917969 61.550781 L 332.265625 61.460938 L 335.050781 61.460938 L 336.128906 61.550781 L 337.835938 61.683594 L 339.542969 61.8125 L 340.980469 61.902344 L 342.328125 61.992188 L 343.136719 61.902344 L 343.945312 61.902344 L 345.203125 62.035156 L 346.640625 62.210938 L 347.898438 62.34375 L 348.976562 62.472656 L 349.425781 62.515625 L 349.695312 62.515625 " transform="matrix(1,0,0,-1,0,114.75)"/>
<path style="fill:none;stroke-width:1.41;stroke-linecap:round;stroke-linejoin:round;stroke:rgb(0%,0%,0%);stroke-opacity:1;stroke-miterlimit:10;" d="M 284.558594 43.054688 L 284.738281 42.746094 L 284.828125 41.648438 L 284.917969 40.109375 L 284.917969 36.195312 L 284.828125 35.890625 " transform="matrix(1,0,0,-1,0,114.75)"/>
<path style="fill:none;stroke-width:1.41;stroke-linecap:round;stroke-linejoin:round;stroke:rgb(0%,0%,0%);stroke-opacity:1;stroke-miterlimit:10;" d="M 285.277344 42.085938 L 285.1875 42.394531 L 285.367188 42.746094 L 285.816406 43.054688 L 286.625 43.183594 L 287.523438 43.316406 L 288.601562 43.097656 L 289.230469 42.4375 L 289.320312 41.558594 L 288.960938 40.59375 L 288.0625 39.890625 L 287.164062 39.582031 L 286.714844 39.492188 L 287.523438 39.40625 L 288.511719 39.097656 L 289.230469 38.703125 L 289.769531 38.042969 L 289.859375 37.25 L 289.769531 36.460938 L 289.410156 35.714844 L 288.871094 35.097656 L 288.152344 34.789062 L 287.34375 34.746094 L 286.535156 34.96875 L 285.996094 35.320312 L 285.636719 35.671875 L 285.636719 36.023438 " transform="matrix(1,0,0,-1,0,114.75)"/>
<path style="fill:none;stroke-width:1.41;stroke-linecap:round;stroke-linejoin:round;stroke:rgb(0%,0%,0%);stroke-opacity:1;stroke-miterlimit:10;" d="M 293.453125 40.636719 L 294.082031 40.546875 L 294.710938 40.371094 L 295.789062 40.242188 L 296.597656 40.152344 L 297.226562 40.0625 L 297.765625 40.019531 " transform="matrix(1,0,0,-1,0,114.75)"/>
<path style="fill:none;stroke-width:1.41;stroke-linecap:round;stroke-linejoin:round;stroke:rgb(0%,0%,0%);stroke-opacity:1;stroke-miterlimit:10;" d="M 294.082031 38.527344 L 293.992188 38.261719 L 294.171875 37.953125 L 294.890625 37.601562 L 295.878906 37.382812 L 296.777344 37.339844 L 297.945312 37.339844 " transform="matrix(1,0,0,-1,0,114.75)"/>
<path style="fill:none;stroke-width:1.41;stroke-linecap:round;stroke-linejoin:round;stroke:rgb(0%,0%,0%);stroke-opacity:1;stroke-miterlimit:10;" d="M 304.953125 39.976562 L 305.222656 40.109375 L 305.132812 40.328125 L 304.953125 40.59375 L 304.503906 40.855469 L 303.785156 40.8125 L 303.15625 40.328125 L 302.617188 39.316406 L 302.527344 38.175781 L 302.707031 37.25 L 303.246094 36.636719 L 303.964844 36.679688 L 304.59375 37.121094 L 305.222656 37.734375 L 305.582031 38.351562 L 305.761719 38.703125 L 305.671875 37.867188 L 305.492188 36.769531 L 305.3125 35.273438 L 305.042969 33.957031 L 304.863281 32.636719 L 305.042969 31.582031 L 305.582031 30.878906 L 306.300781 30.398438 L 307.109375 30.527344 L 307.738281 30.96875 L 308.007812 31.496094 L 308.1875 32.066406 L 308.007812 32.460938 L 307.828125 32.769531 L 307.738281 32.988281 L 307.46875 33.253906 L 307.109375 33.429688 L 306.839844 33.648438 L 306.390625 33.867188 L 306.03125 34 L 305.671875 34.085938 L 306.03125 34.4375 L 306.75 34.660156 L 307.558594 34.96875 L 308.277344 35.273438 L 308.726562 35.625 L 308.816406 35.84375 L 308.816406 36.328125 " transform="matrix(1,0,0,-1,0,114.75)"/>
<path style="fill:none;stroke-width:1.41;stroke-linecap:round;stroke-linejoin:round;stroke:rgb(0%,0%,0%);stroke-opacity:1;stroke-miterlimit:10;" d="M 311.242188 40.285156 L 310.882812 40.371094 L 311.152344 40.285156 L 310.792969 40.285156 L 310.433594 40.460938 L 310.433594 40.722656 L 310.792969 40.8125 L 311.0625 40.722656 L 311.511719 40.460938 " transform="matrix(1,0,0,-1,0,114.75)"/>
<path style="fill:none;stroke-width:1.41;stroke-linecap:round;stroke-linejoin:round;stroke:rgb(0%,0%,0%);stroke-opacity:1;stroke-miterlimit:10;" d="M 311.691406 36.59375 L 311.871094 36.417969 L 312.050781 36.152344 L 311.960938 35.84375 L 311.691406 35.492188 L 311.332031 35.320312 L 311.0625 35.40625 L 311.0625 35.714844 L 311.152344 35.933594 L 311.421875 36.109375 " transform="matrix(1,0,0,-1,0,114.75)"/>
<path style="fill:none;stroke-width:1.41;stroke-linecap:round;stroke-linejoin:round;stroke:rgb(0%,0%,0%);stroke-opacity:1;stroke-miterlimit:10;" d="M 316.992188 42.964844 L 316.722656 42.480469 L 316.722656 39.140625 L 316.632812 37.296875 L 316.542969 35.582031 L 316.453125 35.054688 " transform="matrix(1,0,0,-1,0,114.75)"/>
<path style="fill:none;stroke-width:1.41;stroke-linecap:round;stroke-linejoin:round;stroke:rgb(0%,0%,0%);stroke-opacity:1;stroke-miterlimit:10;" d="M 316.453125 43.273438 L 316.8125 43.84375 L 317.53125 44.371094 L 318.699219 44.679688 L 320.046875 44.679688 L 321.125 44.0625 L 321.484375 43.054688 L 321.214844 41.910156 L 320.316406 40.988281 L 319.238281 40.371094 L 318.519531 40.109375 L 318.878906 40.019531 L 319.6875 39.933594 L 320.585938 39.757812 L 321.214844 39.449219 L 321.574219 38.789062 L 321.84375 38.085938 L 322.023438 37.339844 L 321.933594 36.375 L 321.394531 35.582031 L 320.496094 34.878906 L 319.328125 34.4375 L 318.339844 34.4375 L 317.621094 34.703125 L 317.171875 34.96875 " transform="matrix(1,0,0,-1,0,114.75)"/>
</g>
</svg>
