<?xml version="1.0" encoding="UTF-8"?>
<svg xmlns="http://www.w3.org/2000/svg" xmlns:xlink="http://www.w3.org/1999/xlink" width="259.94pt" height="123pt" viewBox="0 0 259.94 123" version="1.1">
<g id="surface1">
<path style="fill:none;stroke-width:2.26;stroke-linecap:round;stroke-linejoin:round;stroke:rgb(0%,0%,0%);stroke-opacity:1;stroke-miterlimit:10;" d="M 23.980469 118.011719 L 23.53125 108.25 " transform="matrix(1,0,0,-1,0,123)"/>
<path style="fill:none;stroke-width:2.26;stroke-linecap:round;stroke-linejoin:round;stroke:rgb(0%,0%,0%);stroke-opacity:1;stroke-miterlimit:10;" d="M 22.179688 87.691406 L 22.089844 77.929688 " transform="matrix(1,0,0,-1,0,123)"/>
<path style="fill:none;stroke-width:2.26;stroke-linecap:round;stroke-linejoin:round;stroke:rgb(0%,0%,0%);stroke-opacity:1;stroke-miterlimit:10;" d="M 22.179688 77.929688 L 27.351562 77.851562 L 32.511719 77.761719 L 37.679688 77.679688 L 42.851562 77.601562 L 48.011719 77.511719 L 53.179688 77.429688 L 58.339844 77.351562 L 63.511719 77.261719 L 68.679688 77.179688 L 73.839844 77.101562 " transform="matrix(1,0,0,-1,0,123)"/>
<path style="fill:none;stroke-width:2.26;stroke-linecap:round;stroke-linejoin:round;stroke:rgb(0%,0%,0%);stroke-opacity:1;stroke-miterlimit:10;" d="M 73.929688 77.449219 L 74.289062 84.921875 " transform="matrix(1,0,0,-1,0,123)"/>
<path style="fill:none;stroke-width:2.26;stroke-linecap:round;stroke-linejoin:round;stroke:rgb(0%,0%,0%);stroke-opacity:1;stroke-miterlimit:10;" d="M 71.769531 108.691406 L 71.769531 117.390625 " transform="matrix(1,0,0,-1,0,123)"/>
<path style="fill:none;stroke-width:2.26;stroke-linecap:round;stroke-linejoin:round;stroke:rgb(0%,0%,0%);stroke-opacity:1;stroke-miterlimit:10;" d="M 71.949219 117.351562 L 66.691406 117.390625 L 61.429688 117.429688 L 56.171875 117.46875 L 50.910156 117.511719 L 45.648438 117.550781 L 40.390625 117.578125 L 35.128906 117.621094 L 29.871094 117.660156 L 24.609375 117.699219 " transform="matrix(1,0,0,-1,0,123)"/>
<path style="fill:none;stroke-width:2.26;stroke-linecap:round;stroke-linejoin:round;stroke:rgb(0%,0%,0%);stroke-opacity:1;stroke-miterlimit:10;" d="M 23.441406 107.949219 L 29.640625 107.949219 " transform="matrix(1,0,0,-1,0,123)"/>
<path style="fill:none;stroke-width:2.26;stroke-linecap:round;stroke-linejoin:round;stroke:rgb(0%,0%,0%);stroke-opacity:1;stroke-miterlimit:10;" d="M 29.460938 107.511719 L 29.398438 101.019531 L 29.339844 94.53125 L 29.28125 88.039062 " transform="matrix(1,0,0,-1,0,123)"/>
<path style="fill:none;stroke-width:2.26;stroke-linecap:round;stroke-linejoin:round;stroke:rgb(0%,0%,0%);stroke-opacity:1;stroke-miterlimit:10;" d="M 29.28125 88.171875 L 22.359375 88.429688 " transform="matrix(1,0,0,-1,0,123)"/>
<path style="fill:none;stroke-width:2.26;stroke-linecap:round;stroke-linejoin:round;stroke:rgb(0%,0%,0%);stroke-opacity:1;stroke-miterlimit:10;" d="M 73.210938 109.039062 L 77.878906 108.601562 " transform="matrix(1,0,0,-1,0,123)"/>
<path style="fill:none;stroke-width:2.26;stroke-linecap:round;stroke-linejoin:round;stroke:rgb(0%,0%,0%);stroke-opacity:1;stroke-miterlimit:10;" d="M 78.421875 108.601562 L 78.601562 103.160156 L 78.960938 92.261719 L 79.140625 86.808594 " transform="matrix(1,0,0,-1,0,123)"/>
<path style="fill:none;stroke-width:2.26;stroke-linecap:round;stroke-linejoin:round;stroke:rgb(0%,0%,0%);stroke-opacity:1;stroke-miterlimit:10;" d="M 79.320312 86.679688 L 74.109375 86.019531 " transform="matrix(1,0,0,-1,0,123)"/>
<path style="fill:none;stroke-width:1.41;stroke-linecap:round;stroke-linejoin:round;stroke:rgb(0%,0%,0%);stroke-opacity:1;stroke-miterlimit:10;" d="M 33.230469 102.589844 L 33.320312 102.011719 L 33.320312 98.851562 L 33.140625 97.269531 L 32.960938 95.730469 L 32.691406 94.238281 L 32.421875 92.871094 L 32.238281 92.429688 L 32.148438 92.128906 L 32.421875 92.390625 " transform="matrix(1,0,0,-1,0,123)"/>
<path style="fill:none;stroke-width:1.41;stroke-linecap:round;stroke-linejoin:round;stroke:rgb(0%,0%,0%);stroke-opacity:1;stroke-miterlimit:10;" d="M 33.949219 97.75 L 34.398438 97.839844 L 34.761719 97.839844 L 35.300781 97.800781 L 36.019531 97.660156 L 36.648438 97.488281 L 37.191406 97.308594 L 37.449219 97.179688 " transform="matrix(1,0,0,-1,0,123)"/>
<path style="fill:none;stroke-width:1.41;stroke-linecap:round;stroke-linejoin:round;stroke:rgb(0%,0%,0%);stroke-opacity:1;stroke-miterlimit:10;" d="M 37.71875 100.921875 L 37.628906 101.128906 L 37.628906 100.609375 L 37.71875 100.210938 L 37.71875 99.25 L 37.628906 97.710938 L 37.539062 95.691406 L 37.539062 93.75 L 37.449219 92.519531 L 37.539062 92.261719 " transform="matrix(1,0,0,-1,0,123)"/>
<path style="fill:none;stroke-width:1.41;stroke-linecap:round;stroke-linejoin:round;stroke:rgb(0%,0%,0%);stroke-opacity:1;stroke-miterlimit:10;" d="M 67.28125 93.21875 L 67.191406 92.960938 L 67.28125 93.359375 L 67.371094 93.75 L 67.820312 94.851562 L 68.359375 96.429688 L 68.988281 98.371094 L 69.621094 100.558594 L 70.070312 101.96875 L 70.339844 102.800781 L 70.609375 102.589844 L 70.789062 101.878906 L 71.058594 100.960938 L 71.328125 99.820312 L 71.511719 98.71875 L 71.859375 97.308594 L 72.21875 95.949219 L 72.578125 94.761719 L 72.851562 93.96875 L 72.941406 93.621094 " transform="matrix(1,0,0,-1,0,123)"/>
<path style="fill:none;stroke-width:1.41;stroke-linecap:round;stroke-linejoin:round;stroke:rgb(0%,0%,0%);stroke-opacity:1;stroke-miterlimit:10;" d="M 68.988281 96.039062 L 69.441406 96.128906 L 69.800781 96.039062 L 70.339844 95.988281 L 70.878906 95.910156 L 71.328125 95.910156 " transform="matrix(1,0,0,-1,0,123)"/>
<path style="fill:none;stroke-width:2.26;stroke-linecap:round;stroke-linejoin:round;stroke:rgb(0%,0%,0%);stroke-opacity:1;stroke-miterlimit:10;" d="M 48.949219 105.710938 L 48.679688 105.621094 L 48.601562 105.089844 L 48.511719 103.769531 L 48.328125 101.53125 L 48.058594 98.589844 L 47.789062 95.820312 L 47.699219 93.710938 L 47.609375 92.351562 L 47.519531 91.859375 L 47.519531 91.511719 " transform="matrix(1,0,0,-1,0,123)"/>
<path style="fill:none;stroke-width:2.26;stroke-linecap:round;stroke-linejoin:round;stroke:rgb(0%,0%,0%);stroke-opacity:1;stroke-miterlimit:10;" d="M 49.128906 106.539062 L 49.308594 106.941406 L 49.671875 107.238281 L 50.121094 107.589844 L 50.929688 107.679688 L 52.011719 107.679688 L 53 107.238281 L 54.171875 106.5 L 54.96875 105.488281 L 55.511719 104.339844 L 55.601562 103.160156 L 55.238281 101.929688 L 54.441406 100.738281 L 53.449219 99.730469 L 52.191406 98.890625 L 51.019531 98.449219 L 49.941406 98.371094 L 49.039062 98.539062 L 48.511719 98.890625 L 48.238281 99.199219 " transform="matrix(1,0,0,-1,0,123)"/>
<path style="fill:none;stroke-width:2.26;stroke-linecap:round;stroke-linejoin:round;stroke:rgb(0%,0%,0%);stroke-opacity:1;stroke-miterlimit:10;" d="M 24.789062 48.359375 L 24.339844 38.601562 " transform="matrix(1,0,0,-1,0,123)"/>
<path style="fill:none;stroke-width:2.26;stroke-linecap:round;stroke-linejoin:round;stroke:rgb(0%,0%,0%);stroke-opacity:1;stroke-miterlimit:10;" d="M 22.988281 18.03125 L 22.898438 8.28125 " transform="matrix(1,0,0,-1,0,123)"/>
<path style="fill:none;stroke-width:2.26;stroke-linecap:round;stroke-linejoin:round;stroke:rgb(0%,0%,0%);stroke-opacity:1;stroke-miterlimit:10;" d="M 22.988281 8.28125 L 28.160156 8.191406 L 33.320312 8.109375 L 38.488281 8.03125 L 43.648438 7.941406 L 48.820312 7.859375 L 53.988281 7.78125 L 59.148438 7.691406 L 64.320312 7.609375 L 69.480469 7.53125 L 74.648438 7.441406 " transform="matrix(1,0,0,-1,0,123)"/>
<path style="fill:none;stroke-width:2.26;stroke-linecap:round;stroke-linejoin:round;stroke:rgb(0%,0%,0%);stroke-opacity:1;stroke-miterlimit:10;" d="M 74.738281 7.789062 L 75.101562 15.261719 " transform="matrix(1,0,0,-1,0,123)"/>
<path style="fill:none;stroke-width:2.26;stroke-linecap:round;stroke-linejoin:round;stroke:rgb(0%,0%,0%);stroke-opacity:1;stroke-miterlimit:10;" d="M 72.578125 39.039062 L 72.578125 47.738281 " transform="matrix(1,0,0,-1,0,123)"/>
<path style="fill:none;stroke-width:2.26;stroke-linecap:round;stroke-linejoin:round;stroke:rgb(0%,0%,0%);stroke-opacity:1;stroke-miterlimit:10;" d="M 72.761719 47.699219 L 67.5 47.738281 L 62.238281 47.769531 L 56.980469 47.808594 L 51.71875 47.851562 L 46.460938 47.890625 L 41.199219 47.929688 L 35.941406 47.96875 L 30.679688 48.011719 L 25.421875 48.050781 " transform="matrix(1,0,0,-1,0,123)"/>
<path style="fill:none;stroke-width:2.26;stroke-linecap:round;stroke-linejoin:round;stroke:rgb(0%,0%,0%);stroke-opacity:1;stroke-miterlimit:10;" d="M 24.25 38.289062 L 30.449219 38.289062 " transform="matrix(1,0,0,-1,0,123)"/>
<path style="fill:none;stroke-width:2.26;stroke-linecap:round;stroke-linejoin:round;stroke:rgb(0%,0%,0%);stroke-opacity:1;stroke-miterlimit:10;" d="M 30.269531 37.851562 L 30.210938 31.359375 L 30.148438 24.871094 L 30.089844 18.378906 " transform="matrix(1,0,0,-1,0,123)"/>
<path style="fill:none;stroke-width:2.26;stroke-linecap:round;stroke-linejoin:round;stroke:rgb(0%,0%,0%);stroke-opacity:1;stroke-miterlimit:10;" d="M 30.089844 18.519531 L 23.171875 18.78125 " transform="matrix(1,0,0,-1,0,123)"/>
<path style="fill:none;stroke-width:2.26;stroke-linecap:round;stroke-linejoin:round;stroke:rgb(0%,0%,0%);stroke-opacity:1;stroke-miterlimit:10;" d="M 74.019531 39.390625 L 78.691406 38.949219 " transform="matrix(1,0,0,-1,0,123)"/>
<path style="fill:none;stroke-width:2.26;stroke-linecap:round;stroke-linejoin:round;stroke:rgb(0%,0%,0%);stroke-opacity:1;stroke-miterlimit:10;" d="M 79.230469 38.949219 L 79.769531 22.601562 L 79.949219 17.148438 " transform="matrix(1,0,0,-1,0,123)"/>
<path style="fill:none;stroke-width:2.26;stroke-linecap:round;stroke-linejoin:round;stroke:rgb(0%,0%,0%);stroke-opacity:1;stroke-miterlimit:10;" d="M 80.128906 17.019531 L 74.921875 16.359375 " transform="matrix(1,0,0,-1,0,123)"/>
<path style="fill:none;stroke-width:1.41;stroke-linecap:round;stroke-linejoin:round;stroke:rgb(0%,0%,0%);stroke-opacity:1;stroke-miterlimit:10;" d="M 34.039062 32.929688 L 34.128906 32.359375 L 34.128906 29.199219 L 33.949219 27.609375 L 33.769531 26.078125 L 33.5 24.578125 L 33.230469 23.21875 L 33.050781 22.78125 L 32.960938 22.46875 L 33.230469 22.738281 " transform="matrix(1,0,0,-1,0,123)"/>
<path style="fill:none;stroke-width:1.41;stroke-linecap:round;stroke-linejoin:round;stroke:rgb(0%,0%,0%);stroke-opacity:1;stroke-miterlimit:10;" d="M 34.761719 28.101562 L 35.210938 28.191406 L 35.570312 28.191406 L 36.109375 28.140625 L 36.828125 28.011719 L 37.449219 27.828125 L 37.988281 27.660156 L 38.261719 27.53125 " transform="matrix(1,0,0,-1,0,123)"/>
<path style="fill:none;stroke-width:1.41;stroke-linecap:round;stroke-linejoin:round;stroke:rgb(0%,0%,0%);stroke-opacity:1;stroke-miterlimit:10;" d="M 38.53125 31.261719 L 38.441406 31.480469 L 38.441406 30.949219 L 38.53125 30.558594 L 38.53125 29.589844 L 38.441406 28.050781 L 38.351562 26.03125 L 38.351562 24.101562 L 38.261719 22.871094 L 38.351562 22.601562 " transform="matrix(1,0,0,-1,0,123)"/>
<path style="fill:none;stroke-width:2.26;stroke-linecap:round;stroke-linejoin:round;stroke:rgb(0%,0%,0%);stroke-opacity:1;stroke-miterlimit:10;" d="M 55.128906 32.71875 L 54.769531 33.03125 L 54.320312 33.601562 L 53.511719 34.210938 L 52.519531 34.648438 L 51.171875 34.609375 L 50.011719 33.898438 L 48.929688 32.761719 L 48.210938 31.308594 L 48.300781 29.988281 L 49.019531 28.941406 L 50.628906 28.410156 L 52.339844 28.539062 L 53.960938 29.160156 L 55.21875 30.210938 L 55.851562 31.179688 L 56.109375 31.53125 L 56.019531 30.871094 L 55.578125 28.941406 L 54.769531 25.910156 L 53.960938 22.921875 L 53.238281 20.328125 L 52.878906 18.609375 L 52.789062 17.640625 L 52.699219 16.851562 L 52.699219 15.621094 L 52.878906 15.230469 L 53.328125 15.101562 L 54.410156 15.398438 L 55.761719 16.28125 L 57.011719 17.25 L 58 18.21875 L 58.089844 19.089844 L 57.820312 19.800781 L 57.28125 20.5 L 56.648438 21.160156 L 56.109375 21.511719 L 55.671875 21.859375 L 55.21875 22.128906 L 54.859375 22.390625 L 54.5 22.609375 L 54.859375 23.011719 L 56.109375 23.53125 L 57.820312 24.28125 L 59.441406 25.160156 L 60.519531 26.078125 L 60.96875 26.648438 L 61.058594 26.960938 " transform="matrix(1,0,0,-1,0,123)"/>
<path style="fill:none;stroke-width:1.41;stroke-linecap:round;stroke-linejoin:round;stroke:rgb(0%,0%,0%);stroke-opacity:1;stroke-miterlimit:10;" d="M 69.050781 32.011719 L 69.050781 31.089844 L 69.140625 29.550781 L 69.140625 27.878906 L 69.050781 26.300781 L 69.050781 25.339844 L 68.960938 24.941406 L 68.960938 24.589844 " transform="matrix(1,0,0,-1,0,123)"/>
<path style="fill:none;stroke-width:1.41;stroke-linecap:round;stroke-linejoin:round;stroke:rgb(0%,0%,0%);stroke-opacity:1;stroke-miterlimit:10;" d="M 69.140625 31.75 L 69.140625 32.058594 L 69.589844 32.449219 L 70.398438 32.71875 L 71.480469 32.941406 L 72.648438 32.808594 L 73.539062 32.371094 L 73.898438 31.621094 L 73.539062 30.738281 L 72.648438 29.988281 L 71.660156 29.46875 L 70.941406 29.199219 L 71.570312 29.160156 L 72.738281 28.980469 L 73.898438 28.589844 L 74.890625 27.878906 L 75.25 26.871094 L 74.890625 25.769531 L 74.171875 24.851562 L 73.101562 24.191406 L 71.929688 23.96875 L 71.03125 24.058594 L 70.21875 24.371094 L 69.859375 24.71875 L 69.589844 25.03125 " transform="matrix(1,0,0,-1,0,123)"/>
<path style="fill:none;stroke-width:2.26;stroke-linecap:round;stroke-linejoin:round;stroke:rgb(0%,0%,0%);stroke-opacity:1;stroke-miterlimit:10;" d="M 28.710938 27.839844 L 28.53125 27.621094 L 28.261719 27.53125 L 27.808594 27.441406 L 27.191406 27.359375 L 26.46875 27.269531 L 25.570312 27.179688 L 24.308594 27 L 22.78125 26.789062 L 20.898438 26.570312 L 19.011719 26.429688 L 17.570312 26.429688 L 16.488281 26.609375 L 15.511719 27 L 14.519531 27.441406 L 13.351562 27.878906 L 12 28.371094 L 10.828125 28.851562 L 9.851562 29.378906 L 9.039062 30.039062 L 8.320312 30.78125 L 7.601562 31.660156 L 6.878906 32.808594 L 6.339844 33.988281 L 5.980469 35.179688 L 5.890625 36.539062 L 5.890625 37.898438 L 6.070312 39.351562 L 6.339844 40.890625 L 6.699219 42.339844 L 7.148438 43.699219 L 7.78125 44.800781 L 8.589844 45.859375 L 9.398438 46.78125 L 10.46875 47.75 L 11.910156 48.761719 L 13.441406 49.679688 L 15.058594 50.519531 L 16.941406 51.308594 L 18.828125 51.921875 L 20.808594 52.488281 L 23.230469 53.058594 L 25.480469 53.640625 L 27.71875 54.160156 L 30.148438 54.871094 L 32.398438 55.570312 L 34.910156 56.398438 L 37.789062 57.371094 L 40.480469 58.25 L 43.089844 59.039062 L 45.511719 59.789062 L 47.398438 60.398438 L 49.289062 61.019531 L 51.53125 61.71875 L 53.691406 62.339844 L 55.851562 62.949219 L 58.179688 63.609375 L 60.070312 64.179688 L 61.859375 64.839844 L 63.839844 65.550781 L 65.550781 66.160156 L 67.261719 66.730469 L 68.871094 67.261719 L 70.128906 67.699219 L 71.480469 68.179688 L 72.921875 68.800781 L 74.351562 69.410156 L 75.699219 69.980469 L 76.871094 70.550781 L 77.679688 70.910156 L 78.488281 71.429688 L 79.648438 72.179688 L 81 73.191406 L 82.621094 74.289062 L 84.148438 75.390625 L 85.21875 76.179688 L 86.121094 76.96875 L 86.929688 77.671875 L 87.648438 78.378906 L 88.550781 79.261719 L 89.449219 80.179688 L 90.519531 81.191406 L 91.511719 82.160156 L 92.410156 83.121094 L 93.21875 84.179688 L 93.761719 85.011719 L 94.121094 85.941406 L 94.390625 86.808594 L 94.480469 87.558594 L 94.480469 89.410156 L 94.390625 90.289062 L 94.300781 91.339844 L 94.03125 92.398438 L 93.671875 93.359375 L 93.308594 94.371094 L 92.769531 95.46875 L 92.230469 96.390625 L 91.601562 97.320312 L 90.789062 98.199219 L 90.171875 98.859375 L 89.359375 99.558594 L 88.550781 100.039062 L 87.828125 100.441406 L 87.199219 100.75 L 86.570312 100.921875 L 86.121094 101.050781 L 85.488281 101.140625 L 84.691406 101.230469 L 83.878906 101.320312 L 83.160156 101.359375 L 82.621094 101.398438 L 82.351562 101.398438 " transform="matrix(1,0,0,-1,0,123)"/>
<path style="fill:none;stroke-width:2.26;stroke-linecap:round;stroke-linejoin:round;stroke:rgb(0%,0%,0%);stroke-opacity:1;stroke-miterlimit:10;" d="M 29.609375 102.148438 L 29.789062 101.980469 L 29.339844 101.929688 L 28.621094 101.890625 L 26.46875 101.890625 L 25.390625 101.839844 L 24.398438 101.839844 L 23.410156 101.800781 L 22.601562 101.761719 L 21.609375 101.800781 L 19.820312 101.800781 L 19.011719 101.761719 L 17.929688 101.621094 L 16.851562 101.398438 L 15.601562 101.011719 L 14.339844 100.609375 L 13.171875 100.21875 L 12.269531 99.871094 L 11.460938 99.46875 L 10.738281 98.988281 L 10.109375 98.5 L 9.308594 97.710938 L 8.589844 96.921875 L 7.871094 96.089844 L 7.148438 95.078125 L 6.070312 93.140625 L 5.621094 92.039062 L 5.441406 91.03125 L 5.171875 90.019531 L 4.988281 88.96875 L 4.808594 87.03125 L 4.898438 85.941406 L 4.988281 84.839844 L 5.171875 83.738281 L 5.53125 82.601562 L 6.160156 81.539062 L 6.878906 80.621094 L 7.78125 79.699219 L 8.859375 78.820312 L 10.019531 77.941406 L 11.191406 77.101562 L 12.628906 76.21875 L 14.070312 75.480469 L 15.601562 74.820312 L 17.390625 74.160156 L 19.191406 73.539062 L 21.171875 72.929688 L 23.320312 72.308594 L 25.300781 71.828125 L 27.359375 71.390625 L 29.609375 70.910156 L 31.589844 70.421875 L 33.46875 69.808594 L 35.539062 69.058594 L 37.609375 68.398438 L 39.851562 67.648438 L 42.191406 66.910156 L 44.261719 66.25 L 46.140625 65.589844 L 48.210938 64.839844 L 50.449219 64.179688 L 52.878906 63.480469 L 55.671875 62.640625 L 58.179688 61.851562 L 60.609375 61.058594 L 63.210938 60.140625 L 65.820312 59.351562 L 68.421875 58.648438 L 71.210938 57.851562 L 73.628906 57.109375 L 75.878906 56.320312 L 78.308594 55.53125 L 80.730469 54.730469 L 83.160156 53.941406 L 85.488281 53.019531 L 87.199219 52.191406 L 88.550781 51.441406 L 89.628906 50.78125 L 90.441406 50.300781 L 91.238281 49.808594 L 92.140625 49.289062 L 93.128906 48.710938 L 93.941406 48.191406 L 94.929688 47.53125 L 95.738281 46.871094 L 96.449219 46.121094 L 97.171875 45.238281 L 97.710938 44.140625 L 97.980469 43.179688 L 98.25 42.300781 L 98.339844 41.589844 L 98.429688 41.070312 L 98.609375 40.28125 L 98.699219 39.351562 L 98.789062 38.171875 L 98.789062 36.941406 L 98.609375 35.75 L 98.339844 34.558594 L 97.890625 33.550781 L 97.351562 32.539062 L 96.628906 31.621094 L 96.011719 30.960938 L 95.289062 30.429688 L 94.660156 30.128906 L 94.121094 29.910156 L 93.488281 29.769531 L 92.589844 29.640625 L 91.78125 29.550781 L 90.699219 29.46875 L 83.789062 29.46875 L 83.519531 29.511719 L 83.070312 29.550781 " transform="matrix(1,0,0,-1,0,123)"/>
<path style="fill:none;stroke-width:2.26;stroke-linecap:round;stroke-linejoin:round;stroke:rgb(0%,0%,0%);stroke-opacity:1;stroke-miterlimit:10;" d="M 172.359375 108.621094 L 172.539062 108.839844 L 172.449219 109.28125 L 172.269531 109.5 L 171.730469 109.578125 L 171.28125 109.191406 L 170.828125 108.621094 L 170.46875 107.871094 L 170.46875 106.898438 L 170.738281 106.070312 L 171.371094 105.410156 L 172.269531 105.058594 L 173.261719 105.058594 L 174.25 105.539062 L 174.878906 106.328125 L 175.058594 107.300781 L 174.96875 108.351562 L 174.519531 109.191406 L 173.800781 109.710938 L 172.898438 109.761719 L 172 109.359375 L 171.371094 108.570312 L 170.921875 107.609375 L 171.191406 106.589844 L 171.820312 105.761719 L 172.628906 105.191406 L 173.441406 105.058594 L 174.160156 105.410156 L 174.519531 106.109375 L 174.609375 107.121094 L 174.339844 108.089844 L 173.800781 108.839844 L 173.078125 109.230469 L 172.539062 109.191406 L 172.089844 108.789062 L 171.910156 108.089844 L 172.269531 107.429688 L 172.898438 106.898438 L 173.621094 106.898438 L 174.160156 107.25 L 174.339844 107.78125 L 174.25 108.308594 L 173.710938 108.53125 L 173.261719 108.261719 L 172.808594 107.871094 L 172.628906 107.25 L 172.71875 106.898438 L 172.988281 106.808594 L 173.441406 106.859375 L 173.800781 106.988281 L 173.621094 106.808594 L 173.351562 107.210938 L 173.441406 107.519531 L 173.621094 107.738281 " transform="matrix(1,0,0,-1,0,123)"/>
<path style="fill:none;stroke-width:2.26;stroke-linecap:round;stroke-linejoin:round;stroke:rgb(0%,0%,0%);stroke-opacity:1;stroke-miterlimit:10;" d="M 177.609375 46.21875 L 177.789062 46.441406 L 177.699219 46.878906 L 177.519531 47.101562 L 176.980469 47.191406 L 176.53125 46.800781 L 176.078125 46.21875 L 175.71875 45.480469 L 175.71875 44.511719 L 175.988281 43.671875 L 176.621094 43.019531 L 177.519531 42.660156 L 178.511719 42.660156 L 179.5 43.148438 L 180.128906 43.941406 L 180.308594 44.910156 L 180.21875 45.960938 L 179.769531 46.800781 L 179.050781 47.320312 L 178.148438 47.371094 L 177.25 46.96875 L 176.621094 46.179688 L 176.171875 45.210938 L 176.441406 44.199219 L 177.070312 43.371094 L 177.878906 42.800781 L 178.691406 42.660156 L 179.410156 43.019531 L 179.769531 43.71875 L 179.859375 44.730469 L 179.589844 45.699219 L 179.050781 46.441406 L 178.328125 46.839844 L 177.789062 46.800781 L 177.339844 46.398438 L 177.160156 45.699219 L 177.519531 45.039062 L 178.148438 44.511719 L 178.871094 44.511719 L 179.410156 44.859375 L 179.589844 45.390625 L 179.5 45.921875 L 178.960938 46.140625 L 178.511719 45.871094 L 178.058594 45.480469 L 177.878906 44.859375 L 177.96875 44.511719 L 178.238281 44.421875 L 178.691406 44.46875 L 179.050781 44.601562 L 178.871094 44.421875 L 178.601562 44.820312 L 178.691406 45.128906 L 178.871094 45.339844 " transform="matrix(1,0,0,-1,0,123)"/>
<path style="fill:none;stroke-width:1.41;stroke-linecap:round;stroke-linejoin:round;stroke:rgb(0%,0%,0%);stroke-opacity:1;stroke-miterlimit:10;" d="M 181.261719 101.199219 L 181.519531 101.148438 L 181.789062 100.800781 L 182.238281 100.101562 L 182.871094 99.308594 L 183.679688 98.300781 L 184.488281 97.058594 L 185.300781 95.828125 L 186.019531 94.378906 L 186.648438 92.671875 L 187.179688 90.910156 L 187.71875 89.070312 L 188.171875 86.960938 L 188.441406 84.800781 L 188.53125 82.558594 L 188.621094 80.28125 L 188.53125 77.988281 L 188.441406 75.800781 L 188.261719 73.730469 L 188.078125 71.839844 L 187.988281 70.480469 L 187.808594 69.46875 L 187.628906 68.761719 L 187.539062 68.148438 L 187.359375 67.449219 L 187.011719 66.351562 L 186.648438 64.898438 L 186.019531 63.140625 L 185.300781 61.210938 L 184.578125 59.578125 L 183.859375 58.171875 L 183.320312 57.289062 L 183.050781 56.808594 L 182.871094 56.589844 " transform="matrix(1,0,0,-1,0,123)"/>
<path style="fill:none;stroke-width:1.41;stroke-linecap:round;stroke-linejoin:round;stroke:rgb(0%,0%,0%);stroke-opacity:1;stroke-miterlimit:10;" d="M 181.878906 61.730469 L 181.878906 61.210938 L 181.96875 60.109375 L 182.058594 58.828125 L 182.148438 57.558594 L 182.238281 56.589844 L 182.421875 56.109375 L 182.871094 56.019531 L 183.769531 56.109375 L 184.761719 56.460938 L 185.929688 56.898438 L 187.011719 57.289062 L 187.628906 57.558594 L 187.988281 57.691406 " transform="matrix(1,0,0,-1,0,123)"/>
<path style="fill:none;stroke-width:1.41;stroke-linecap:round;stroke-linejoin:round;stroke:rgb(0%,0%,0%);stroke-opacity:1;stroke-miterlimit:10;" d="M 171.640625 57.46875 L 171.550781 57.210938 L 171.011719 57.160156 L 170.648438 57.289062 L 170.019531 57.78125 L 169.128906 58.570312 L 168.230469 59.488281 L 167.238281 60.589844 L 166.160156 61.859375 L 165.171875 63.089844 L 164.269531 64.460938 L 163.558594 65.949219 L 162.929688 67.449219 L 162.480469 68.980469 L 162.121094 70.828125 L 161.761719 72.671875 L 161.578125 74.429688 L 161.308594 76.371094 L 161.128906 77.988281 L 161.128906 81.199219 L 161.308594 82.46875 L 161.488281 83.660156 L 161.851562 84.941406 L 162.210938 86.171875 L 162.570312 87.261719 L 162.929688 88.320312 L 163.199219 89.148438 L 163.558594 89.949219 L 163.921875 90.871094 L 164.449219 91.839844 L 164.898438 92.800781 L 165.351562 93.640625 L 165.800781 94.300781 L 166.070312 94.691406 L 166.25 94.871094 L 166.429688 95.089844 " transform="matrix(1,0,0,-1,0,123)"/>
<path style="fill:none;stroke-width:1.41;stroke-linecap:round;stroke-linejoin:round;stroke:rgb(0%,0%,0%);stroke-opacity:1;stroke-miterlimit:10;" d="M 162.75 95.441406 L 163.648438 95.699219 L 164.808594 96.140625 L 166.25 96.710938 L 167.328125 97.199219 L 168.140625 97.550781 L 168.679688 97.769531 L 168.949219 97.941406 L 168.949219 97.640625 L 168.769531 96.800781 L 168.589844 95.261719 L 168.5 93.550781 L 168.5 91 L 168.589844 90.648438 " transform="matrix(1,0,0,-1,0,123)"/>
<path style="fill:none;stroke-width:1.41;stroke-linecap:round;stroke-linejoin:round;stroke:rgb(0%,0%,0%);stroke-opacity:1;stroke-miterlimit:10;" d="M 193.761719 83.25 L 193.851562 83.03125 L 193.941406 82.148438 L 194.019531 80.621094 L 194.019531 76.75 L 193.941406 75.519531 L 194.019531 74.808594 L 194.019531 74.550781 " transform="matrix(1,0,0,-1,0,123)"/>
<path style="fill:none;stroke-width:1.41;stroke-linecap:round;stroke-linejoin:round;stroke:rgb(0%,0%,0%);stroke-opacity:1;stroke-miterlimit:10;" d="M 195.191406 77.890625 L 195.730469 77.929688 L 196.628906 78.109375 L 197.621094 78.289062 L 198.609375 78.460938 L 199.058594 78.589844 L 199.421875 78.589844 " transform="matrix(1,0,0,-1,0,123)"/>
<path style="fill:none;stroke-width:1.41;stroke-linecap:round;stroke-linejoin:round;stroke:rgb(0%,0%,0%);stroke-opacity:1;stroke-miterlimit:10;" d="M 200.21875 82.5 L 200.128906 82.148438 L 200.128906 77.058594 L 200.039062 75.25 L 200.039062 73.851562 " transform="matrix(1,0,0,-1,0,123)"/>
<path style="fill:none;stroke-width:1.41;stroke-linecap:round;stroke-linejoin:round;stroke:rgb(0%,0%,0%);stroke-opacity:1;stroke-miterlimit:10;" d="M 204.269531 80.179688 L 204 80.089844 L 204.539062 79.960938 L 205.261719 79.871094 L 206.148438 79.910156 L 206.871094 79.960938 L 207.410156 80 " transform="matrix(1,0,0,-1,0,123)"/>
<path style="fill:none;stroke-width:1.41;stroke-linecap:round;stroke-linejoin:round;stroke:rgb(0%,0%,0%);stroke-opacity:1;stroke-miterlimit:10;" d="M 204.269531 77.449219 L 205.078125 77.410156 L 206.78125 77.410156 L 207.5 77.359375 L 207.949219 77.320312 L 208.21875 77.28125 " transform="matrix(1,0,0,-1,0,123)"/>
<path style="fill:none;stroke-width:1.41;stroke-linecap:round;stroke-linejoin:round;stroke:rgb(0%,0%,0%);stroke-opacity:1;stroke-miterlimit:10;" d="M 215.140625 79.46875 L 215.140625 79.871094 L 215.050781 80.089844 L 214.871094 80.441406 L 214.691406 80.660156 L 214.148438 80.789062 L 213.339844 80.75 L 212.351562 80.308594 L 211.269531 79.46875 L 210.921875 78.371094 L 211.011719 77.410156 L 211.988281 76.921875 L 213.25 77.058594 L 214.511719 77.710938 L 215.5 78.589844 L 215.949219 79.339844 L 216.039062 79.601562 L 215.859375 78.988281 L 215.589844 77.851562 L 215.230469 76.128906 L 214.871094 74.460938 L 214.601562 72.96875 L 214.601562 71.429688 L 214.871094 70.378906 L 215.589844 69.589844 L 216.671875 69.5 L 217.558594 69.941406 L 218.101562 70.601562 L 218.28125 71.210938 L 218.101562 71.78125 L 217.828125 72.179688 L 217.558594 72.488281 L 217.019531 72.878906 L 216.578125 73.28125 L 216.128906 73.578125 L 215.859375 73.800781 L 216.21875 74.019531 L 216.578125 74.160156 L 217.019531 74.378906 L 217.648438 74.769531 L 218.191406 75.078125 L 218.730469 75.429688 L 219.089844 75.78125 L 219.179688 76.050781 L 219.179688 76.351562 " transform="matrix(1,0,0,-1,0,123)"/>
<path style="fill:none;stroke-width:1.41;stroke-linecap:round;stroke-linejoin:round;stroke:rgb(0%,0%,0%);stroke-opacity:1;stroke-miterlimit:10;" d="M 221.160156 80.96875 L 220.53125 81.050781 L 220.261719 81.230469 L 220.890625 81.269531 L 221.519531 81.101562 L 221.878906 80.878906 L 221.609375 80.660156 " transform="matrix(1,0,0,-1,0,123)"/>
<path style="fill:none;stroke-width:1.41;stroke-linecap:round;stroke-linejoin:round;stroke:rgb(0%,0%,0%);stroke-opacity:1;stroke-miterlimit:10;" d="M 222.421875 76.398438 L 222.058594 76.441406 L 222.148438 76.089844 L 222.148438 75.828125 L 222.421875 76.089844 L 221.96875 76.050781 L 221.609375 76.128906 L 221.519531 76.441406 L 221.519531 76.699219 " transform="matrix(1,0,0,-1,0,123)"/>
<path style="fill:none;stroke-width:1.41;stroke-linecap:round;stroke-linejoin:round;stroke:rgb(0%,0%,0%);stroke-opacity:1;stroke-miterlimit:10;" d="M 227.089844 83.25 L 226.910156 82.808594 L 226.820312 81.578125 L 226.730469 79.78125 L 226.550781 77.761719 L 226.28125 76.308594 L 226.191406 75.339844 " transform="matrix(1,0,0,-1,0,123)"/>
<path style="fill:none;stroke-width:1.41;stroke-linecap:round;stroke-linejoin:round;stroke:rgb(0%,0%,0%);stroke-opacity:1;stroke-miterlimit:10;" d="M 227.269531 82.421875 L 227.539062 83.25 L 228.351562 84 L 229.511719 84.53125 L 230.769531 84.53125 L 231.761719 83.960938 L 232.03125 83.078125 L 231.761719 82.109375 L 230.769531 81.191406 L 229.78125 80.621094 L 229.058594 80.261719 L 229.511719 80.179688 L 230.140625 80.179688 L 230.949219 80 L 231.761719 79.738281 L 232.570312 78.898438 L 233.109375 77.761719 L 233.019531 76.480469 L 232.480469 75.339844 L 231.761719 74.679688 L 230.859375 74.238281 L 229.871094 74.199219 L 228.878906 74.238281 L 227.988281 74.460938 L 227.359375 74.679688 L 227.269531 75.078125 " transform="matrix(1,0,0,-1,0,123)"/>
<path style="fill:none;stroke-width:1.41;stroke-linecap:round;stroke-linejoin:round;stroke:rgb(0%,0%,0%);stroke-opacity:1;stroke-miterlimit:10;" d="M 117.46875 84.359375 L 117.378906 83.53125 L 117.378906 82.03125 L 117.289062 79.921875 L 117.199219 77.988281 L 117.109375 76.5 L 117.019531 75.699219 L 117.109375 75.441406 " transform="matrix(1,0,0,-1,0,123)"/>
<path style="fill:none;stroke-width:1.41;stroke-linecap:round;stroke-linejoin:round;stroke:rgb(0%,0%,0%);stroke-opacity:1;stroke-miterlimit:10;" d="M 117.558594 79 L 117.921875 79.308594 L 118.628906 79.53125 L 119.710938 79.75 L 120.878906 79.96875 L 121.78125 80.140625 L 122.320312 80.269531 L 122.679688 80.449219 " transform="matrix(1,0,0,-1,0,123)"/>
<path style="fill:none;stroke-width:1.41;stroke-linecap:round;stroke-linejoin:round;stroke:rgb(0%,0%,0%);stroke-opacity:1;stroke-miterlimit:10;" d="M 123.398438 84.320312 L 123.488281 83.53125 L 123.488281 79.53125 L 123.398438 77.371094 L 123.308594 75.699219 L 123.21875 74.960938 " transform="matrix(1,0,0,-1,0,123)"/>
<path style="fill:none;stroke-width:1.41;stroke-linecap:round;stroke-linejoin:round;stroke:rgb(0%,0%,0%);stroke-opacity:1;stroke-miterlimit:10;" d="M 127.53125 81.148438 L 127.261719 81.199219 L 127.53125 81.070312 L 128.25 80.980469 L 129.148438 80.929688 L 130.128906 80.851562 L 130.941406 80.851562 L 131.390625 80.710938 L 131.660156 80.539062 " transform="matrix(1,0,0,-1,0,123)"/>
<path style="fill:none;stroke-width:1.41;stroke-linecap:round;stroke-linejoin:round;stroke:rgb(0%,0%,0%);stroke-opacity:1;stroke-miterlimit:10;" d="M 128.070312 79 L 128.160156 78.78125 L 128.609375 78.558594 L 129.511719 78.378906 L 130.488281 78.25 L 131.300781 78.300781 L 131.839844 78.339844 L 132.019531 78.558594 " transform="matrix(1,0,0,-1,0,123)"/>
<path style="fill:none;stroke-width:1.41;stroke-linecap:round;stroke-linejoin:round;stroke:rgb(0%,0%,0%);stroke-opacity:1;stroke-miterlimit:10;" d="M 136.148438 79.53125 L 135.878906 78.519531 L 135.699219 76.710938 L 135.429688 74.519531 L 135.171875 72.628906 L 134.988281 71.21875 L 134.898438 70.648438 " transform="matrix(1,0,0,-1,0,123)"/>
<path style="fill:none;stroke-width:1.41;stroke-linecap:round;stroke-linejoin:round;stroke:rgb(0%,0%,0%);stroke-opacity:1;stroke-miterlimit:10;" d="M 136.058594 79.660156 L 136.601562 80.230469 L 137.5 80.488281 L 138.761719 80.320312 L 139.660156 79.660156 L 140.289062 78.738281 L 140.289062 77.640625 L 139.660156 76.710938 L 138.578125 76.101562 L 137.679688 75.660156 L 136.960938 75.699219 L 136.601562 75.878906 L 136.421875 76.101562 " transform="matrix(1,0,0,-1,0,123)"/>
<path style="fill:none;stroke-width:1.41;stroke-linecap:round;stroke-linejoin:round;stroke:rgb(0%,0%,0%);stroke-opacity:1;stroke-miterlimit:10;" d="M 142.890625 81.070312 L 142.800781 81.289062 L 142.980469 81.5 L 143.429688 81.421875 L 143.699219 81.289062 L 144.058594 81.371094 L 144.148438 81.679688 L 143.96875 81.289062 L 143.878906 80.929688 " transform="matrix(1,0,0,-1,0,123)"/>
<path style="fill:none;stroke-width:1.41;stroke-linecap:round;stroke-linejoin:round;stroke:rgb(0%,0%,0%);stroke-opacity:1;stroke-miterlimit:10;" d="M 143.699219 76.800781 L 144.058594 76.800781 L 144.148438 76.578125 L 143.789062 76.359375 L 143.519531 76.539062 L 143.429688 76.851562 L 143.429688 77.109375 L 143.789062 77.328125 " transform="matrix(1,0,0,-1,0,123)"/>
<path style="fill:none;stroke-width:1.41;stroke-linecap:round;stroke-linejoin:round;stroke:rgb(0%,0%,0%);stroke-opacity:1;stroke-miterlimit:10;" d="M 146.851562 74.558594 L 147.019531 75.351562 L 147.648438 76.710938 L 148.550781 78.910156 L 149.449219 81.199219 L 150.078125 83.171875 L 150.53125 84.539062 L 150.710938 84.890625 L 150.890625 84.359375 L 151.25 82.691406 L 151.789062 80.410156 L 152.238281 77.949219 L 152.601562 75.921875 L 152.769531 74.871094 L 152.859375 74.429688 " transform="matrix(1,0,0,-1,0,123)"/>
<path style="fill:none;stroke-width:1.41;stroke-linecap:round;stroke-linejoin:round;stroke:rgb(0%,0%,0%);stroke-opacity:1;stroke-miterlimit:10;" d="M 149.089844 77.898438 L 148.820312 78.078125 L 148.910156 78.300781 L 149.628906 78.339844 L 150.351562 78.429688 L 151.160156 78.519531 L 151.789062 78.558594 L 152.058594 78.691406 " transform="matrix(1,0,0,-1,0,123)"/>
<path style="fill:none;stroke-width:1.41;stroke-linecap:round;stroke-linejoin:round;stroke:rgb(0%,0%,0%);stroke-opacity:1;stroke-miterlimit:10;" d="M 134.730469 23.128906 L 135 23.570312 L 135 25.730469 L 134.820312 26.210938 L 134.460938 26.261719 L 133.648438 25.949219 L 132.300781 25.421875 L 130.421875 24.761719 L 128.710938 24.230469 L 127.269531 23.878906 L 126.460938 23.570312 L 126.730469 23.269531 L 127.539062 22.828125 L 128.890625 22.300781 L 130.058594 21.730469 L 130.769531 21.070312 L 130.421875 20.230469 L 129.429688 19.089844 L 128.078125 17.859375 L 126.820312 16.761719 L 126.371094 15.96875 L 126.640625 15.488281 L 127.628906 15.308594 L 128.800781 15.179688 L 129.96875 15.140625 L 131.671875 15.089844 L 134.640625 15.089844 L 135.808594 15.050781 L 136.078125 15 L 135.988281 15.578125 L 135.71875 16.238281 L 135.449219 17.070312 L 135.359375 17.859375 L 135.359375 18.519531 " transform="matrix(1,0,0,-1,0,123)"/>
<path style="fill:none;stroke-width:1.41;stroke-linecap:round;stroke-linejoin:round;stroke:rgb(0%,0%,0%);stroke-opacity:1;stroke-miterlimit:10;" d="M 141.019531 22.171875 L 141.289062 22.261719 L 142.011719 22.261719 L 143.078125 22.390625 L 143.980469 22.429688 L 144.609375 22.480469 " transform="matrix(1,0,0,-1,0,123)"/>
<path style="fill:none;stroke-width:1.41;stroke-linecap:round;stroke-linejoin:round;stroke:rgb(0%,0%,0%);stroke-opacity:1;stroke-miterlimit:10;" d="M 141.109375 20.191406 L 141.648438 20.058594 L 142.359375 19.929688 L 143.261719 19.878906 L 143.890625 19.878906 L 144.25 19.929688 " transform="matrix(1,0,0,-1,0,123)"/>
<path style="fill:none;stroke-width:1.41;stroke-linecap:round;stroke-linejoin:round;stroke:rgb(0%,0%,0%);stroke-opacity:1;stroke-miterlimit:10;" d="M 152.070312 26.300781 L 151.980469 26.609375 L 151.351562 26.429688 L 150.539062 26.121094 L 149.640625 25.601562 L 149.191406 24.800781 L 149.730469 24.101562 L 150.449219 23.398438 L 151.351562 22.828125 L 151.890625 22.339844 L 151.710938 21.859375 L 150.988281 21.421875 L 150.089844 21.070312 L 149.28125 20.808594 L 149.730469 20.449219 L 150.539062 20.230469 L 151.351562 19.929688 L 151.980469 19.53125 L 152.25 19.050781 L 151.980469 18.039062 L 151.53125 16.808594 L 150.898438 15.578125 L 150.539062 14.390625 L 150.71875 13.859375 L 151.261719 13.640625 L 152.070312 13.730469 " transform="matrix(1,0,0,-1,0,123)"/>
<path style="fill:none;stroke-width:1.41;stroke-linecap:round;stroke-linejoin:round;stroke:rgb(0%,0%,0%);stroke-opacity:1;stroke-miterlimit:10;" d="M 157.460938 25.601562 L 157.371094 24.761719 L 157.371094 23.269531 L 157.28125 21.160156 L 157.191406 19.21875 L 157.101562 17.730469 L 157.011719 16.941406 L 157.101562 16.671875 " transform="matrix(1,0,0,-1,0,123)"/>
<path style="fill:none;stroke-width:1.41;stroke-linecap:round;stroke-linejoin:round;stroke:rgb(0%,0%,0%);stroke-opacity:1;stroke-miterlimit:10;" d="M 157.550781 20.230469 L 157.910156 20.539062 L 158.628906 20.761719 L 159.699219 20.980469 L 160.871094 21.199219 L 161.769531 21.378906 L 162.308594 21.511719 L 162.671875 21.679688 " transform="matrix(1,0,0,-1,0,123)"/>
<path style="fill:none;stroke-width:1.41;stroke-linecap:round;stroke-linejoin:round;stroke:rgb(0%,0%,0%);stroke-opacity:1;stroke-miterlimit:10;" d="M 163.390625 25.550781 L 163.480469 24.761719 L 163.480469 20.761719 L 163.390625 18.609375 L 163.300781 16.941406 L 163.210938 16.191406 " transform="matrix(1,0,0,-1,0,123)"/>
<path style="fill:none;stroke-width:1.41;stroke-linecap:round;stroke-linejoin:round;stroke:rgb(0%,0%,0%);stroke-opacity:1;stroke-miterlimit:10;" d="M 167.519531 22.390625 L 167.25 22.429688 L 167.519531 22.300781 L 168.238281 22.210938 L 169.140625 22.171875 L 170.128906 22.078125 L 170.941406 22.078125 L 171.378906 21.949219 L 171.648438 21.769531 " transform="matrix(1,0,0,-1,0,123)"/>
<path style="fill:none;stroke-width:1.41;stroke-linecap:round;stroke-linejoin:round;stroke:rgb(0%,0%,0%);stroke-opacity:1;stroke-miterlimit:10;" d="M 168.058594 20.230469 L 168.148438 20.011719 L 168.601562 19.800781 L 169.5 19.621094 L 170.488281 19.488281 L 171.289062 19.53125 L 171.828125 19.578125 L 172.011719 19.800781 " transform="matrix(1,0,0,-1,0,123)"/>
<path style="fill:none;stroke-width:1.41;stroke-linecap:round;stroke-linejoin:round;stroke:rgb(0%,0%,0%);stroke-opacity:1;stroke-miterlimit:10;" d="M 176.148438 20.761719 L 175.878906 19.75 L 175.699219 17.949219 L 175.429688 15.75 L 175.160156 13.859375 L 174.980469 12.460938 L 174.890625 11.878906 " transform="matrix(1,0,0,-1,0,123)"/>
<path style="fill:none;stroke-width:1.41;stroke-linecap:round;stroke-linejoin:round;stroke:rgb(0%,0%,0%);stroke-opacity:1;stroke-miterlimit:10;" d="M 176.058594 20.890625 L 176.601562 21.460938 L 177.488281 21.730469 L 178.75 21.550781 L 179.648438 20.890625 L 180.28125 19.96875 L 180.28125 18.871094 L 179.648438 17.949219 L 178.570312 17.328125 L 177.671875 16.890625 L 176.949219 16.941406 L 176.601562 17.109375 L 176.421875 17.328125 " transform="matrix(1,0,0,-1,0,123)"/>
<path style="fill:none;stroke-width:1.41;stroke-linecap:round;stroke-linejoin:round;stroke:rgb(0%,0%,0%);stroke-opacity:1;stroke-miterlimit:10;" d="M 182.878906 22.300781 L 182.789062 22.519531 L 182.96875 22.738281 L 183.421875 22.648438 L 183.691406 22.519531 L 184.050781 22.609375 L 184.140625 22.921875 L 183.960938 22.519531 L 183.871094 22.171875 " transform="matrix(1,0,0,-1,0,123)"/>
<path style="fill:none;stroke-width:1.41;stroke-linecap:round;stroke-linejoin:round;stroke:rgb(0%,0%,0%);stroke-opacity:1;stroke-miterlimit:10;" d="M 183.691406 18.039062 L 184.050781 18.039062 L 184.140625 17.820312 L 183.78125 17.601562 L 183.511719 17.769531 L 183.421875 18.078125 L 183.421875 18.339844 L 183.78125 18.558594 " transform="matrix(1,0,0,-1,0,123)"/>
<path style="fill:none;stroke-width:1.41;stroke-linecap:round;stroke-linejoin:round;stroke:rgb(0%,0%,0%);stroke-opacity:1;stroke-miterlimit:10;" d="M 186.839844 15.800781 L 187.019531 16.589844 L 187.648438 17.949219 L 188.539062 20.148438 L 189.441406 22.429688 L 190.070312 24.410156 L 190.519531 25.769531 L 190.699219 26.121094 L 190.878906 25.601562 L 191.238281 23.929688 L 191.78125 21.640625 L 192.230469 19.179688 L 192.589844 17.160156 L 192.769531 16.101562 L 192.859375 15.660156 " transform="matrix(1,0,0,-1,0,123)"/>
<path style="fill:none;stroke-width:1.41;stroke-linecap:round;stroke-linejoin:round;stroke:rgb(0%,0%,0%);stroke-opacity:1;stroke-miterlimit:10;" d="M 189.078125 19.140625 L 188.808594 19.308594 L 188.898438 19.53125 L 189.621094 19.578125 L 190.339844 19.660156 L 191.148438 19.75 L 191.78125 19.800781 L 192.050781 19.929688 " transform="matrix(1,0,0,-1,0,123)"/>
<path style="fill:none;stroke-width:1.41;stroke-linecap:round;stroke-linejoin:round;stroke:rgb(0%,0%,0%);stroke-opacity:1;stroke-miterlimit:10;" d="M 198.519531 16.320312 L 198.25 16.320312 L 197.980469 16.5 L 198.25 16.761719 L 198.609375 16.628906 L 198.699219 16.320312 L 198.519531 15.878906 L 198.160156 15.621094 L 197.890625 15.710938 L 197.980469 15.929688 L 198.339844 16.101562 L 198.789062 15.96875 L 199.058594 15.621094 L 198.789062 15.398438 L 198.339844 15.359375 L 197.800781 15.800781 L 197.710938 16.238281 L 197.890625 16.628906 L 198.429688 16.761719 L 198.699219 16.761719 L 198.699219 17.070312 L 199.238281 16.980469 L 199.949219 16.238281 L 200.398438 15.140625 L 200.308594 13.988281 L 199.769531 13.121094 L 199.058594 12.539062 L 198.429688 12.191406 L 198.070312 12.238281 " transform="matrix(1,0,0,-1,0,123)"/>
<path style="fill:none;stroke-width:1.41;stroke-linecap:round;stroke-linejoin:round;stroke:rgb(0%,0%,0%);stroke-opacity:1;stroke-miterlimit:10;" d="M 205.519531 24.011719 L 205.609375 23.789062 L 205.699219 22.921875 L 205.789062 21.378906 L 205.789062 17.511719 L 205.699219 16.28125 L 205.789062 15.578125 L 205.789062 15.308594 " transform="matrix(1,0,0,-1,0,123)"/>
<path style="fill:none;stroke-width:1.41;stroke-linecap:round;stroke-linejoin:round;stroke:rgb(0%,0%,0%);stroke-opacity:1;stroke-miterlimit:10;" d="M 206.960938 18.648438 L 207.5 18.699219 L 208.398438 18.871094 L 209.390625 19.050781 L 210.378906 19.21875 L 210.828125 19.359375 L 211.191406 19.359375 " transform="matrix(1,0,0,-1,0,123)"/>
<path style="fill:none;stroke-width:1.41;stroke-linecap:round;stroke-linejoin:round;stroke:rgb(0%,0%,0%);stroke-opacity:1;stroke-miterlimit:10;" d="M 211.988281 23.269531 L 211.898438 22.921875 L 211.898438 17.820312 L 211.808594 16.019531 L 211.808594 14.609375 " transform="matrix(1,0,0,-1,0,123)"/>
<path style="fill:none;stroke-width:1.41;stroke-linecap:round;stroke-linejoin:round;stroke:rgb(0%,0%,0%);stroke-opacity:1;stroke-miterlimit:10;" d="M 216.039062 20.941406 L 215.769531 20.851562 L 216.308594 20.71875 L 217.019531 20.628906 L 217.921875 20.671875 L 218.640625 20.71875 L 219.179688 20.761719 " transform="matrix(1,0,0,-1,0,123)"/>
<path style="fill:none;stroke-width:1.41;stroke-linecap:round;stroke-linejoin:round;stroke:rgb(0%,0%,0%);stroke-opacity:1;stroke-miterlimit:10;" d="M 216.039062 18.210938 L 216.851562 18.171875 L 218.550781 18.171875 L 219.269531 18.128906 L 219.71875 18.078125 L 219.988281 18.039062 " transform="matrix(1,0,0,-1,0,123)"/>
<path style="fill:none;stroke-width:1.41;stroke-linecap:round;stroke-linejoin:round;stroke:rgb(0%,0%,0%);stroke-opacity:1;stroke-miterlimit:10;" d="M 226.910156 20.230469 L 226.910156 20.628906 L 226.820312 20.851562 L 226.640625 21.199219 L 226.460938 21.421875 L 225.921875 21.550781 L 225.109375 21.511719 L 224.121094 21.070312 L 223.039062 20.230469 L 222.691406 19.140625 L 222.769531 18.171875 L 223.761719 17.691406 L 225.019531 17.820312 L 226.28125 18.480469 L 227.269531 19.359375 L 227.71875 20.101562 L 227.808594 20.371094 L 227.628906 19.75 L 227.359375 18.609375 L 227 16.890625 L 226.640625 15.21875 L 226.371094 13.730469 L 226.371094 12.191406 L 226.640625 11.140625 L 227.359375 10.351562 L 228.441406 10.261719 L 229.328125 10.699219 L 229.871094 11.359375 L 230.050781 11.96875 L 229.871094 12.539062 L 229.601562 12.941406 L 229.328125 13.25 L 228.789062 13.640625 L 228.351562 14.039062 L 227.898438 14.351562 L 227.628906 14.570312 L 227.988281 14.789062 L 228.351562 14.921875 L 228.789062 15.140625 L 229.421875 15.53125 L 229.960938 15.839844 L 230.5 16.191406 L 230.859375 16.539062 L 230.949219 16.808594 L 230.949219 17.109375 " transform="matrix(1,0,0,-1,0,123)"/>
<path style="fill:none;stroke-width:1.41;stroke-linecap:round;stroke-linejoin:round;stroke:rgb(0%,0%,0%);stroke-opacity:1;stroke-miterlimit:10;" d="M 232.929688 21.730469 L 232.300781 21.820312 L 232.03125 21.988281 L 232.660156 22.039062 L 233.289062 21.859375 L 233.648438 21.640625 L 233.378906 21.421875 " transform="matrix(1,0,0,-1,0,123)"/>
<path style="fill:none;stroke-width:1.41;stroke-linecap:round;stroke-linejoin:round;stroke:rgb(0%,0%,0%);stroke-opacity:1;stroke-miterlimit:10;" d="M 234.191406 17.160156 L 233.828125 17.199219 L 233.921875 16.851562 L 233.921875 16.589844 L 234.191406 16.851562 L 233.738281 16.808594 L 233.378906 16.890625 L 233.289062 17.199219 L 233.289062 17.46875 " transform="matrix(1,0,0,-1,0,123)"/>
<path style="fill:none;stroke-width:1.41;stroke-linecap:round;stroke-linejoin:round;stroke:rgb(0%,0%,0%);stroke-opacity:1;stroke-miterlimit:10;" d="M 238.859375 24.011719 L 238.679688 23.570312 L 238.589844 22.339844 L 238.5 20.539062 L 238.320312 18.519531 L 238.050781 17.070312 L 237.960938 16.101562 " transform="matrix(1,0,0,-1,0,123)"/>
<path style="fill:none;stroke-width:1.41;stroke-linecap:round;stroke-linejoin:round;stroke:rgb(0%,0%,0%);stroke-opacity:1;stroke-miterlimit:10;" d="M 239.039062 23.179688 L 239.308594 24.011719 L 240.109375 24.761719 L 241.28125 25.289062 L 242.539062 25.289062 L 243.53125 24.71875 L 243.800781 23.839844 L 243.53125 22.871094 L 242.539062 21.949219 L 241.550781 21.378906 L 240.828125 21.03125 L 241.28125 20.941406 L 241.910156 20.941406 L 242.71875 20.761719 L 243.53125 20.5 L 244.339844 19.660156 L 244.878906 18.519531 L 244.789062 17.25 L 244.25 16.101562 L 243.53125 15.441406 L 242.628906 15 L 241.640625 14.960938 L 240.648438 15 L 239.761719 15.21875 L 239.128906 15.441406 L 239.039062 15.839844 " transform="matrix(1,0,0,-1,0,123)"/>
<path style="fill:none;stroke-width:1.41;stroke-linecap:round;stroke-linejoin:round;stroke:rgb(0%,0%,0%);stroke-opacity:1;stroke-miterlimit:10;" d="M 247.75 25.460938 L 248.109375 25.238281 L 248.648438 24.941406 L 249.371094 24.410156 L 250 23.75 L 250.179688 23.089844 L 250 22.429688 L 249.460938 21.820312 L 249.011719 21.289062 L 248.828125 20.628906 L 249.101562 20.058594 L 249.550781 19.621094 L 250.179688 19.359375 L 250.539062 19.21875 L 250.449219 19 L 250.089844 18.609375 L 249.820312 18.171875 L 249.730469 17.640625 L 250.179688 16.980469 L 250.808594 16.371094 L 251.351562 15.710938 L 251.609375 15 L 251.519531 14.351562 L 251.171875 13.601562 L 250.628906 13.03125 L 250.089844 12.589844 L 249.460938 12.320312 L 249.191406 12.238281 L 248.921875 12.191406 L 248.828125 11.96875 " transform="matrix(1,0,0,-1,0,123)"/>
<path style="fill:none;stroke-width:1.41;stroke-linecap:round;stroke-linejoin:round;stroke:rgb(0%,0%,0%);stroke-opacity:1;stroke-miterlimit:10;" d="M 188.148438 112.03125 L 187.609375 111.460938 L 186.269531 110.621094 L 184.828125 109.789062 L 183.480469 109.078125 L 182.671875 108.511719 L 182.488281 107.980469 L 182.851562 107.410156 L 183.929688 106.578125 L 185.460938 105.828125 L 186.898438 105.171875 L 188.058594 104.640625 L 188.511719 104.339844 L 188.691406 104.160156 " transform="matrix(1,0,0,-1,0,123)"/>
<path style="fill:none;stroke-width:1.41;stroke-linecap:round;stroke-linejoin:round;stroke:rgb(0%,0%,0%);stroke-opacity:1;stroke-miterlimit:10;" d="M 183.660156 108.339844 L 184.289062 108.511719 L 185.460938 108.421875 L 187.261719 108.339844 L 189.679688 108.199219 L 192.921875 108.121094 L 196.148438 108.070312 L 199.378906 108.070312 L 202.261719 108.160156 L 204.148438 108.289062 L 205.488281 108.421875 L 206.121094 108.46875 L 206.390625 108.46875 " transform="matrix(1,0,0,-1,0,123)"/>
<path style="fill:none;stroke-width:1.41;stroke-linecap:round;stroke-linejoin:round;stroke:rgb(0%,0%,0%);stroke-opacity:1;stroke-miterlimit:10;" d="M 193.191406 48.878906 L 192.648438 48.308594 L 191.300781 47.46875 L 189.859375 46.640625 L 188.511719 45.929688 L 187.699219 45.359375 L 187.519531 44.839844 L 187.878906 44.261719 L 188.960938 43.429688 L 190.488281 42.679688 L 191.929688 42.019531 L 193.101562 41.5 L 193.539062 41.191406 L 193.71875 41.011719 " transform="matrix(1,0,0,-1,0,123)"/>
<path style="fill:none;stroke-width:1.41;stroke-linecap:round;stroke-linejoin:round;stroke:rgb(0%,0%,0%);stroke-opacity:1;stroke-miterlimit:10;" d="M 188.691406 45.191406 L 189.320312 45.359375 L 190.488281 45.269531 L 192.289062 45.191406 L 194.710938 45.050781 L 197.949219 44.96875 L 201.179688 44.921875 L 204.421875 44.921875 L 207.289062 45.011719 L 209.179688 45.140625 L 210.519531 45.269531 L 211.148438 45.320312 L 211.421875 45.320312 " transform="matrix(1,0,0,-1,0,123)"/>
</g>
</svg>
