<?xml version="1.0" encoding="UTF-8"?>
<svg xmlns="http://www.w3.org/2000/svg" xmlns:xlink="http://www.w3.org/1999/xlink" width="259.941406pt" height="123pt" viewBox="0 0 259.941406 123" version="1.1">
<g id="surface1">
<path style="fill:none;stroke-width:2.26;stroke-linecap:round;stroke-linejoin:round;stroke:rgb(0%,0%,0%);stroke-opacity:1;stroke-miterlimit:10;" d="M 23.980469 118.003906 L 23.53125 108.246094 " transform="matrix(1,0,0,-1,0,123)"/>
<path style="fill:none;stroke-width:2.26;stroke-linecap:round;stroke-linejoin:round;stroke:rgb(0%,0%,0%);stroke-opacity:1;stroke-miterlimit:10;" d="M 22.183594 87.679688 L 22.09375 77.925781 " transform="matrix(1,0,0,-1,0,123)"/>
<path style="fill:none;stroke-width:2.26;stroke-linecap:round;stroke-linejoin:round;stroke:rgb(0%,0%,0%);stroke-opacity:1;stroke-miterlimit:10;" d="M 22.183594 77.925781 L 27.351562 77.84375 L 32.515625 77.757812 L 37.683594 77.675781 L 42.847656 77.589844 L 48.015625 77.507812 L 53.179688 77.425781 L 58.347656 77.339844 L 63.511719 77.257812 L 68.679688 77.175781 L 73.84375 77.089844 " transform="matrix(1,0,0,-1,0,123)"/>
<path style="fill:none;stroke-width:2.26;stroke-linecap:round;stroke-linejoin:round;stroke:rgb(0%,0%,0%);stroke-opacity:1;stroke-miterlimit:10;" d="M 73.933594 77.441406 L 74.292969 84.914062 " transform="matrix(1,0,0,-1,0,123)"/>
<path style="fill:none;stroke-width:2.26;stroke-linecap:round;stroke-linejoin:round;stroke:rgb(0%,0%,0%);stroke-opacity:1;stroke-miterlimit:10;" d="M 71.777344 108.6875 L 71.777344 117.386719 " transform="matrix(1,0,0,-1,0,123)"/>
<path style="fill:none;stroke-width:2.26;stroke-linecap:round;stroke-linejoin:round;stroke:rgb(0%,0%,0%);stroke-opacity:1;stroke-miterlimit:10;" d="M 71.957031 117.34375 L 61.433594 117.421875 L 56.175781 117.460938 L 40.390625 117.578125 L 35.132812 117.617188 L 24.609375 117.695312 " transform="matrix(1,0,0,-1,0,123)"/>
<path style="fill:none;stroke-width:2.26;stroke-linecap:round;stroke-linejoin:round;stroke:rgb(0%,0%,0%);stroke-opacity:1;stroke-miterlimit:10;" d="M 23.441406 107.941406 L 29.640625 107.941406 " transform="matrix(1,0,0,-1,0,123)"/>
<path style="fill:none;stroke-width:2.26;stroke-linecap:round;stroke-linejoin:round;stroke:rgb(0%,0%,0%);stroke-opacity:1;stroke-miterlimit:10;" d="M 29.460938 107.5 L 29.402344 101.011719 L 29.339844 94.523438 L 29.28125 88.03125 " transform="matrix(1,0,0,-1,0,123)"/>
<path style="fill:none;stroke-width:2.26;stroke-linecap:round;stroke-linejoin:round;stroke:rgb(0%,0%,0%);stroke-opacity:1;stroke-miterlimit:10;" d="M 29.28125 88.164062 L 22.363281 88.429688 " transform="matrix(1,0,0,-1,0,123)"/>
<path style="fill:none;stroke-width:2.26;stroke-linecap:round;stroke-linejoin:round;stroke:rgb(0%,0%,0%);stroke-opacity:1;stroke-miterlimit:10;" d="M 73.214844 109.039062 L 77.886719 108.597656 " transform="matrix(1,0,0,-1,0,123)"/>
<path style="fill:none;stroke-width:2.26;stroke-linecap:round;stroke-linejoin:round;stroke:rgb(0%,0%,0%);stroke-opacity:1;stroke-miterlimit:10;" d="M 78.425781 108.597656 L 79.144531 86.800781 " transform="matrix(1,0,0,-1,0,123)"/>
<path style="fill:none;stroke-width:2.26;stroke-linecap:round;stroke-linejoin:round;stroke:rgb(0%,0%,0%);stroke-opacity:1;stroke-miterlimit:10;" d="M 79.324219 86.671875 L 74.113281 86.011719 " transform="matrix(1,0,0,-1,0,123)"/>
<path style="fill:none;stroke-width:1.41;stroke-linecap:round;stroke-linejoin:round;stroke:rgb(0%,0%,0%);stroke-opacity:1;stroke-miterlimit:10;" d="M 33.234375 102.578125 L 33.324219 102.007812 L 33.324219 98.84375 L 33.144531 97.261719 L 32.964844 95.726562 L 32.695312 94.230469 L 32.425781 92.867188 L 32.246094 92.429688 L 32.15625 92.121094 L 32.425781 92.382812 " transform="matrix(1,0,0,-1,0,123)"/>
<path style="fill:none;stroke-width:1.41;stroke-linecap:round;stroke-linejoin:round;stroke:rgb(0%,0%,0%);stroke-opacity:1;stroke-miterlimit:10;" d="M 33.953125 97.746094 L 34.402344 97.835938 L 34.761719 97.835938 L 35.300781 97.789062 L 36.019531 97.65625 L 36.648438 97.484375 L 37.1875 97.304688 L 37.457031 97.175781 " transform="matrix(1,0,0,-1,0,123)"/>
<path style="fill:none;stroke-width:1.41;stroke-linecap:round;stroke-linejoin:round;stroke:rgb(0%,0%,0%);stroke-opacity:1;stroke-miterlimit:10;" d="M 37.726562 100.910156 L 37.636719 101.128906 L 37.636719 100.601562 L 37.726562 100.207031 L 37.726562 99.242188 L 37.636719 97.703125 L 37.546875 95.679688 L 37.546875 93.746094 L 37.457031 92.515625 L 37.546875 92.253906 " transform="matrix(1,0,0,-1,0,123)"/>
<path style="fill:none;stroke-width:1.41;stroke-linecap:round;stroke-linejoin:round;stroke:rgb(0%,0%,0%);stroke-opacity:1;stroke-miterlimit:10;" d="M 67.285156 93.21875 L 67.195312 92.957031 L 67.375 93.746094 L 67.824219 94.84375 L 68.363281 96.429688 L 68.992188 98.359375 L 69.621094 100.558594 L 70.070312 101.964844 L 70.339844 102.800781 L 70.609375 102.578125 L 70.789062 101.875 L 71.058594 100.953125 L 71.328125 99.8125 L 71.507812 98.710938 L 71.867188 97.304688 L 72.226562 95.945312 L 72.585938 94.757812 L 72.855469 93.96875 L 72.945312 93.617188 " transform="matrix(1,0,0,-1,0,123)"/>
<path style="fill:none;stroke-width:1.41;stroke-linecap:round;stroke-linejoin:round;stroke:rgb(0%,0%,0%);stroke-opacity:1;stroke-miterlimit:10;" d="M 68.992188 96.03125 L 69.441406 96.121094 L 69.800781 96.03125 L 70.339844 95.988281 L 70.878906 95.898438 L 71.328125 95.898438 " transform="matrix(1,0,0,-1,0,123)"/>
<path style="fill:none;stroke-width:2.26;stroke-linecap:round;stroke-linejoin:round;stroke:rgb(0%,0%,0%);stroke-opacity:1;stroke-miterlimit:10;" d="M 48.957031 105.699219 L 48.6875 105.613281 L 48.597656 105.085938 L 48.507812 103.765625 L 48.328125 101.523438 L 48.058594 98.582031 L 47.789062 95.8125 L 47.699219 93.703125 L 47.609375 92.339844 L 47.519531 91.859375 L 47.519531 91.507812 " transform="matrix(1,0,0,-1,0,123)"/>
<path style="fill:none;stroke-width:2.26;stroke-linecap:round;stroke-linejoin:round;stroke:rgb(0%,0%,0%);stroke-opacity:1;stroke-miterlimit:10;" d="M 49.136719 106.535156 L 49.316406 106.929688 L 49.675781 107.238281 L 50.125 107.589844 L 50.933594 107.679688 L 52.011719 107.679688 L 53 107.238281 L 54.167969 106.492188 L 54.976562 105.480469 L 55.515625 104.335938 L 55.605469 103.152344 L 55.246094 101.921875 L 54.4375 100.734375 L 53.449219 99.722656 L 52.191406 98.890625 L 51.023438 98.449219 L 49.945312 98.359375 L 49.046875 98.539062 L 48.507812 98.890625 L 48.238281 99.195312 " transform="matrix(1,0,0,-1,0,123)"/>
<path style="fill:none;stroke-width:2.26;stroke-linecap:round;stroke-linejoin:round;stroke:rgb(0%,0%,0%);stroke-opacity:1;stroke-miterlimit:10;" d="M 24.789062 48.351562 L 24.339844 38.59375 " transform="matrix(1,0,0,-1,0,123)"/>
<path style="fill:none;stroke-width:2.26;stroke-linecap:round;stroke-linejoin:round;stroke:rgb(0%,0%,0%);stroke-opacity:1;stroke-miterlimit:10;" d="M 22.992188 18.027344 L 22.902344 8.273438 " transform="matrix(1,0,0,-1,0,123)"/>
<path style="fill:none;stroke-width:2.26;stroke-linecap:round;stroke-linejoin:round;stroke:rgb(0%,0%,0%);stroke-opacity:1;stroke-miterlimit:10;" d="M 22.992188 8.273438 L 28.160156 8.1875 L 33.324219 8.105469 L 38.492188 8.023438 L 43.65625 7.9375 L 48.824219 7.855469 L 53.988281 7.769531 L 59.15625 7.6875 L 64.320312 7.605469 L 69.488281 7.519531 L 74.652344 7.4375 " transform="matrix(1,0,0,-1,0,123)"/>
<path style="fill:none;stroke-width:2.26;stroke-linecap:round;stroke-linejoin:round;stroke:rgb(0%,0%,0%);stroke-opacity:1;stroke-miterlimit:10;" d="M 74.742188 7.789062 L 75.101562 15.257812 " transform="matrix(1,0,0,-1,0,123)"/>
<path style="fill:none;stroke-width:2.26;stroke-linecap:round;stroke-linejoin:round;stroke:rgb(0%,0%,0%);stroke-opacity:1;stroke-miterlimit:10;" d="M 72.585938 39.035156 L 72.585938 47.734375 " transform="matrix(1,0,0,-1,0,123)"/>
<path style="fill:none;stroke-width:2.26;stroke-linecap:round;stroke-linejoin:round;stroke:rgb(0%,0%,0%);stroke-opacity:1;stroke-miterlimit:10;" d="M 72.765625 47.691406 L 62.242188 47.769531 L 56.984375 47.808594 L 41.199219 47.925781 L 35.941406 47.964844 L 25.417969 48.042969 " transform="matrix(1,0,0,-1,0,123)"/>
<path style="fill:none;stroke-width:2.26;stroke-linecap:round;stroke-linejoin:round;stroke:rgb(0%,0%,0%);stroke-opacity:1;stroke-miterlimit:10;" d="M 24.25 38.285156 L 30.449219 38.285156 " transform="matrix(1,0,0,-1,0,123)"/>
<path style="fill:none;stroke-width:2.26;stroke-linecap:round;stroke-linejoin:round;stroke:rgb(0%,0%,0%);stroke-opacity:1;stroke-miterlimit:10;" d="M 30.269531 37.847656 L 30.210938 31.359375 L 30.148438 24.867188 L 30.089844 18.378906 " transform="matrix(1,0,0,-1,0,123)"/>
<path style="fill:none;stroke-width:2.26;stroke-linecap:round;stroke-linejoin:round;stroke:rgb(0%,0%,0%);stroke-opacity:1;stroke-miterlimit:10;" d="M 30.089844 18.511719 L 23.171875 18.773438 " transform="matrix(1,0,0,-1,0,123)"/>
<path style="fill:none;stroke-width:2.26;stroke-linecap:round;stroke-linejoin:round;stroke:rgb(0%,0%,0%);stroke-opacity:1;stroke-miterlimit:10;" d="M 74.023438 39.386719 L 78.695312 38.945312 " transform="matrix(1,0,0,-1,0,123)"/>
<path style="fill:none;stroke-width:2.26;stroke-linecap:round;stroke-linejoin:round;stroke:rgb(0%,0%,0%);stroke-opacity:1;stroke-miterlimit:10;" d="M 79.234375 38.945312 L 79.953125 17.148438 " transform="matrix(1,0,0,-1,0,123)"/>
<path style="fill:none;stroke-width:2.26;stroke-linecap:round;stroke-linejoin:round;stroke:rgb(0%,0%,0%);stroke-opacity:1;stroke-miterlimit:10;" d="M 80.132812 17.015625 L 74.921875 16.359375 " transform="matrix(1,0,0,-1,0,123)"/>
<path style="fill:none;stroke-width:1.41;stroke-linecap:round;stroke-linejoin:round;stroke:rgb(0%,0%,0%);stroke-opacity:1;stroke-miterlimit:10;" d="M 34.042969 32.925781 L 34.132812 32.355469 L 34.132812 29.191406 L 33.953125 27.609375 L 33.773438 26.070312 L 33.503906 24.578125 L 33.234375 23.214844 L 33.054688 22.773438 L 32.964844 22.46875 L 33.234375 22.730469 " transform="matrix(1,0,0,-1,0,123)"/>
<path style="fill:none;stroke-width:1.41;stroke-linecap:round;stroke-linejoin:round;stroke:rgb(0%,0%,0%);stroke-opacity:1;stroke-miterlimit:10;" d="M 34.761719 28.09375 L 35.210938 28.179688 L 35.570312 28.179688 L 36.109375 28.136719 L 36.828125 28.003906 L 37.457031 27.828125 L 37.996094 27.652344 L 38.265625 27.523438 " transform="matrix(1,0,0,-1,0,123)"/>
<path style="fill:none;stroke-width:1.41;stroke-linecap:round;stroke-linejoin:round;stroke:rgb(0%,0%,0%);stroke-opacity:1;stroke-miterlimit:10;" d="M 38.535156 31.257812 L 38.445312 31.476562 L 38.445312 30.949219 L 38.535156 30.554688 L 38.535156 29.585938 L 38.445312 28.046875 L 38.355469 26.027344 L 38.355469 24.09375 L 38.265625 22.863281 L 38.355469 22.601562 " transform="matrix(1,0,0,-1,0,123)"/>
<path style="fill:none;stroke-width:2.26;stroke-linecap:round;stroke-linejoin:round;stroke:rgb(0%,0%,0%);stroke-opacity:1;stroke-miterlimit:10;" d="M 55.128906 32.710938 L 54.769531 33.019531 L 54.320312 33.59375 L 53.511719 34.207031 L 52.523438 34.648438 L 51.175781 34.601562 L 50.007812 33.898438 L 48.929688 32.757812 L 48.210938 31.304688 L 48.300781 29.988281 L 49.019531 28.933594 L 50.636719 28.40625 L 52.34375 28.539062 L 53.960938 29.152344 L 55.21875 30.207031 L 55.847656 31.175781 L 56.117188 31.527344 L 56.027344 30.867188 L 55.578125 28.933594 L 54.769531 25.902344 L 53.960938 22.914062 L 53.242188 20.320312 L 52.882812 18.605469 L 52.792969 17.640625 L 52.703125 16.847656 L 52.703125 15.617188 L 52.882812 15.222656 L 53.332031 15.089844 L 54.410156 15.398438 L 55.757812 16.277344 L 57.015625 17.242188 L 58.003906 18.210938 L 58.09375 19.089844 L 57.824219 19.792969 L 57.285156 20.496094 L 56.65625 21.15625 L 56.117188 21.507812 L 55.667969 21.859375 L 55.21875 22.121094 L 54.859375 22.386719 L 54.5 22.605469 L 54.859375 23 L 56.117188 23.527344 L 57.824219 24.273438 L 59.441406 25.15625 L 60.519531 26.078125 L 60.96875 26.648438 L 61.058594 26.957031 " transform="matrix(1,0,0,-1,0,123)"/>
<path style="fill:none;stroke-width:1.41;stroke-linecap:round;stroke-linejoin:round;stroke:rgb(0%,0%,0%);stroke-opacity:1;stroke-miterlimit:10;" d="M 69.054688 32.007812 L 69.054688 31.085938 L 69.144531 29.546875 L 69.144531 27.878906 L 69.054688 26.296875 L 69.054688 25.328125 L 68.964844 24.933594 L 68.964844 24.582031 " transform="matrix(1,0,0,-1,0,123)"/>
<path style="fill:none;stroke-width:1.41;stroke-linecap:round;stroke-linejoin:round;stroke:rgb(0%,0%,0%);stroke-opacity:1;stroke-miterlimit:10;" d="M 69.144531 31.746094 L 69.144531 32.054688 L 69.59375 32.449219 L 70.402344 32.710938 L 71.480469 32.933594 L 72.648438 32.800781 L 73.546875 32.359375 L 73.90625 31.613281 L 73.546875 30.734375 L 72.648438 29.988281 L 71.660156 29.460938 L 70.941406 29.195312 L 71.570312 29.152344 L 72.738281 28.976562 L 73.90625 28.582031 L 74.894531 27.878906 L 75.253906 26.867188 L 74.894531 25.769531 L 74.175781 24.847656 L 73.097656 24.1875 L 71.929688 23.96875 L 71.03125 24.054688 L 70.222656 24.363281 L 69.863281 24.714844 L 69.59375 25.023438 " transform="matrix(1,0,0,-1,0,123)"/>
<path style="fill:none;stroke-width:2.26;stroke-linecap:round;stroke-linejoin:round;stroke:rgb(0%,0%,0%);stroke-opacity:1;stroke-miterlimit:10;" d="M 28.714844 27.835938 L 28.535156 27.617188 L 28.265625 27.527344 L 27.816406 27.4375 L 27.1875 27.351562 L 26.46875 27.265625 L 25.570312 27.175781 L 24.3125 27 L 22.785156 26.78125 L 20.898438 26.5625 L 19.011719 26.429688 L 17.574219 26.429688 L 16.496094 26.605469 L 15.507812 27 L 14.519531 27.4375 L 13.351562 27.878906 L 12.003906 28.363281 L 10.835938 28.84375 L 9.847656 29.375 L 9.039062 30.03125 L 8.320312 30.78125 L 7.601562 31.65625 L 6.882812 32.800781 L 6.34375 33.988281 L 5.984375 35.171875 L 5.894531 36.535156 L 5.894531 37.898438 L 6.074219 39.347656 L 6.34375 40.886719 L 6.703125 42.335938 L 7.152344 43.699219 L 7.78125 44.796875 L 8.589844 45.851562 L 9.398438 46.773438 L 10.476562 47.742188 L 11.914062 48.753906 L 13.441406 49.675781 L 15.058594 50.511719 L 16.945312 51.300781 L 18.832031 51.917969 L 20.808594 52.488281 L 23.234375 53.058594 L 25.480469 53.632812 L 27.726562 54.15625 L 30.152344 54.859375 L 32.398438 55.5625 L 34.914062 56.398438 L 37.789062 57.367188 L 40.484375 58.246094 L 43.089844 59.035156 L 45.515625 59.78125 L 49.289062 61.015625 L 51.535156 61.71875 L 55.847656 62.945312 L 58.183594 63.605469 L 60.070312 64.179688 L 61.867188 64.835938 L 63.84375 65.539062 L 65.550781 66.15625 L 67.257812 66.726562 L 68.875 67.253906 L 70.132812 67.695312 L 71.480469 68.175781 L 72.917969 68.792969 L 74.355469 69.40625 L 75.703125 69.976562 L 76.871094 70.550781 L 77.679688 70.902344 L 78.488281 71.429688 L 79.65625 72.175781 L 81.003906 73.1875 L 82.621094 74.285156 L 84.148438 75.382812 L 85.226562 76.175781 L 86.125 76.964844 L 86.933594 77.667969 L 88.550781 79.25 L 89.449219 80.171875 L 90.527344 81.183594 L 91.515625 82.152344 L 92.414062 83.117188 L 93.222656 84.171875 L 93.761719 85.007812 L 94.121094 85.929688 L 94.390625 86.808594 L 94.480469 87.554688 L 94.480469 89.402344 L 94.390625 90.28125 L 94.300781 91.335938 L 94.03125 92.390625 L 93.671875 93.359375 L 93.3125 94.367188 L 92.773438 95.46875 L 92.234375 96.390625 L 91.605469 97.3125 L 90.796875 98.191406 L 90.167969 98.851562 L 89.359375 99.554688 L 88.550781 100.039062 L 87.832031 100.433594 L 87.203125 100.742188 L 86.574219 100.914062 L 86.125 101.046875 L 85.496094 101.136719 L 84.6875 101.222656 L 83.878906 101.3125 L 83.160156 101.355469 L 82.621094 101.398438 L 82.351562 101.398438 " transform="matrix(1,0,0,-1,0,123)"/>
<path style="fill:none;stroke-width:2.26;stroke-linecap:round;stroke-linejoin:round;stroke:rgb(0%,0%,0%);stroke-opacity:1;stroke-miterlimit:10;" d="M 29.613281 102.148438 L 29.792969 101.96875 L 29.34375 101.925781 L 28.625 101.882812 L 26.46875 101.882812 L 25.390625 101.839844 L 24.402344 101.839844 L 23.414062 101.796875 L 22.605469 101.75 L 21.617188 101.796875 L 19.820312 101.796875 L 19.011719 101.75 L 17.933594 101.617188 L 16.855469 101.398438 L 14.339844 100.609375 L 13.171875 100.210938 L 12.273438 99.859375 L 11.464844 99.464844 L 10.746094 98.984375 L 10.117188 98.5 L 9.308594 97.707031 L 8.589844 96.917969 L 7.871094 96.082031 L 7.152344 95.070312 L 6.613281 94.105469 L 6.074219 93.136719 L 5.625 92.039062 L 5.445312 91.027344 L 5.175781 90.015625 L 4.996094 88.960938 L 4.816406 87.03125 L 4.90625 85.929688 L 4.996094 84.832031 L 5.175781 83.734375 L 5.535156 82.589844 L 6.164062 81.535156 L 6.882812 80.613281 L 7.78125 79.691406 L 8.859375 78.8125 L 10.027344 77.933594 L 11.195312 77.097656 L 12.632812 76.21875 L 14.070312 75.472656 L 15.597656 74.8125 L 17.394531 74.152344 L 19.191406 73.539062 L 21.167969 72.921875 L 23.324219 72.308594 L 25.300781 71.824219 L 27.367188 71.382812 L 29.613281 70.902344 L 31.589844 70.417969 L 33.476562 69.804688 L 35.542969 69.054688 L 37.609375 68.398438 L 39.855469 67.648438 L 42.191406 66.902344 L 44.257812 66.242188 L 46.144531 65.585938 L 48.210938 64.835938 L 50.457031 64.179688 L 52.882812 63.476562 L 55.667969 62.640625 L 58.183594 61.847656 L 60.609375 61.058594 L 63.214844 60.132812 L 65.820312 59.34375 L 68.425781 58.640625 L 71.210938 57.851562 L 73.636719 57.101562 L 75.882812 56.3125 L 78.308594 55.519531 L 80.734375 54.730469 L 83.160156 53.9375 L 85.496094 53.015625 L 87.203125 52.179688 L 88.550781 51.433594 L 89.628906 50.773438 L 90.4375 50.289062 L 91.246094 49.808594 L 92.144531 49.28125 L 93.132812 48.710938 L 93.941406 48.179688 L 94.929688 47.523438 L 95.738281 46.863281 L 96.457031 46.117188 L 97.175781 45.238281 L 97.714844 44.140625 L 97.984375 43.171875 L 98.253906 42.292969 L 98.34375 41.589844 L 98.433594 41.0625 L 98.613281 40.273438 L 98.703125 39.347656 L 98.792969 38.164062 L 98.792969 36.929688 L 98.613281 35.746094 L 98.34375 34.558594 L 97.894531 33.546875 L 97.355469 32.539062 L 96.636719 31.613281 L 96.007812 30.953125 L 95.289062 30.429688 L 94.660156 30.121094 L 94.121094 29.898438 L 93.492188 29.769531 L 92.59375 29.636719 L 91.785156 29.546875 L 90.707031 29.460938 L 83.789062 29.460938 L 83.519531 29.503906 L 83.070312 29.546875 " transform="matrix(1,0,0,-1,0,123)"/>
<path style="fill:none;stroke-width:2.26;stroke-linecap:round;stroke-linejoin:round;stroke:rgb(0%,0%,0%);stroke-opacity:1;stroke-miterlimit:10;" d="M 172.363281 108.609375 L 172.542969 108.832031 L 172.453125 109.269531 L 172.273438 109.492188 L 171.734375 109.578125 L 171.285156 109.183594 L 170.835938 108.609375 L 170.476562 107.863281 L 170.476562 106.898438 L 170.746094 106.0625 L 171.375 105.402344 L 172.273438 105.050781 L 173.261719 105.050781 L 174.25 105.535156 L 174.878906 106.328125 L 175.058594 107.292969 L 174.96875 108.347656 L 174.519531 109.183594 L 173.800781 109.710938 L 172.902344 109.753906 L 172.003906 109.359375 L 171.375 108.566406 L 170.925781 107.601562 L 171.195312 106.589844 L 171.824219 105.753906 L 172.632812 105.183594 L 173.441406 105.050781 L 174.160156 105.402344 L 174.519531 106.105469 L 174.609375 107.117188 L 174.339844 108.085938 L 173.800781 108.832031 L 173.082031 109.226562 L 172.542969 109.183594 L 172.09375 108.789062 L 171.914062 108.085938 L 172.273438 107.425781 L 172.902344 106.898438 L 173.621094 106.898438 L 174.160156 107.25 L 174.339844 107.777344 L 174.25 108.304688 L 173.710938 108.523438 L 173.261719 108.257812 L 172.8125 107.863281 L 172.632812 107.25 L 172.722656 106.898438 L 172.992188 106.808594 L 173.441406 106.851562 L 173.800781 106.984375 L 173.621094 106.808594 L 173.351562 107.203125 L 173.441406 107.511719 L 173.621094 107.734375 " transform="matrix(1,0,0,-1,0,123)"/>
<path style="fill:none;stroke-width:2.26;stroke-linecap:round;stroke-linejoin:round;stroke:rgb(0%,0%,0%);stroke-opacity:1;stroke-miterlimit:10;" d="M 177.613281 46.21875 L 177.792969 46.4375 L 177.703125 46.878906 L 177.523438 47.097656 L 176.984375 47.1875 L 176.535156 46.789062 L 176.085938 46.21875 L 175.726562 45.472656 L 175.726562 44.503906 L 175.996094 43.671875 L 176.625 43.011719 L 177.523438 42.660156 L 178.511719 42.660156 L 179.5 43.144531 L 180.128906 43.933594 L 180.308594 44.902344 L 180.21875 45.957031 L 179.769531 46.789062 L 179.050781 47.316406 L 178.152344 47.363281 L 177.253906 46.964844 L 176.625 46.175781 L 176.175781 45.207031 L 176.445312 44.199219 L 177.074219 43.363281 L 177.882812 42.792969 L 178.691406 42.660156 L 179.410156 43.011719 L 179.769531 43.714844 L 179.859375 44.726562 L 179.589844 45.691406 L 179.050781 46.4375 L 178.332031 46.835938 L 177.792969 46.789062 L 177.34375 46.394531 L 177.164062 45.691406 L 177.523438 45.03125 L 178.152344 44.503906 L 178.871094 44.503906 L 179.410156 44.855469 L 179.589844 45.382812 L 179.5 45.910156 L 178.960938 46.132812 L 178.511719 45.867188 L 178.0625 45.472656 L 177.882812 44.855469 L 177.972656 44.503906 L 178.242188 44.417969 L 178.691406 44.460938 L 179.050781 44.59375 L 178.871094 44.417969 L 178.601562 44.8125 L 178.691406 45.121094 L 178.871094 45.339844 " transform="matrix(1,0,0,-1,0,123)"/>
<path style="fill:none;stroke-width:1.41;stroke-linecap:round;stroke-linejoin:round;stroke:rgb(0%,0%,0%);stroke-opacity:1;stroke-miterlimit:10;" d="M 181.257812 101.191406 L 181.527344 101.148438 L 181.796875 100.796875 L 182.246094 100.09375 L 182.875 99.300781 L 183.683594 98.289062 L 185.300781 95.828125 L 186.019531 94.378906 L 186.648438 92.664062 L 187.1875 90.90625 L 187.726562 89.0625 L 188.175781 86.953125 L 188.445312 84.796875 L 188.535156 82.558594 L 188.625 80.273438 L 188.535156 77.988281 L 188.445312 75.789062 L 188.265625 73.726562 L 188.085938 71.835938 L 187.996094 70.472656 L 187.816406 69.460938 L 187.636719 68.757812 L 187.546875 68.144531 L 187.367188 67.441406 L 187.007812 66.34375 L 186.648438 64.890625 L 186.019531 63.132812 L 185.300781 61.199219 L 184.582031 59.574219 L 183.863281 58.167969 L 183.324219 57.289062 L 183.054688 56.804688 L 182.875 56.585938 " transform="matrix(1,0,0,-1,0,123)"/>
<path style="fill:none;stroke-width:1.41;stroke-linecap:round;stroke-linejoin:round;stroke:rgb(0%,0%,0%);stroke-opacity:1;stroke-miterlimit:10;" d="M 181.886719 61.726562 L 181.886719 61.199219 L 181.976562 60.101562 L 182.15625 57.554688 L 182.246094 56.585938 L 182.425781 56.101562 L 182.875 56.015625 L 183.773438 56.101562 L 184.761719 56.453125 L 185.929688 56.894531 L 187.007812 57.289062 L 187.636719 57.554688 L 187.996094 57.683594 " transform="matrix(1,0,0,-1,0,123)"/>
<path style="fill:none;stroke-width:1.41;stroke-linecap:round;stroke-linejoin:round;stroke:rgb(0%,0%,0%);stroke-opacity:1;stroke-miterlimit:10;" d="M 171.644531 57.464844 L 171.554688 57.203125 L 171.015625 57.15625 L 170.65625 57.289062 L 170.027344 57.773438 L 169.128906 58.5625 L 168.230469 59.484375 L 167.242188 60.585938 L 166.164062 61.859375 L 165.175781 63.089844 L 164.277344 64.453125 L 163.558594 65.945312 L 162.929688 67.441406 L 162.480469 68.976562 L 161.761719 72.671875 L 161.582031 74.429688 L 161.3125 76.359375 L 161.132812 77.988281 L 161.132812 81.195312 L 161.3125 82.46875 L 161.492188 83.65625 L 161.851562 84.929688 L 162.210938 86.160156 L 162.570312 87.257812 L 162.929688 88.3125 L 163.199219 89.148438 L 163.558594 89.941406 L 163.917969 90.863281 L 164.457031 91.828125 L 164.90625 92.796875 L 165.355469 93.632812 L 165.804688 94.289062 L 166.074219 94.6875 L 166.253906 94.863281 L 166.433594 95.082031 " transform="matrix(1,0,0,-1,0,123)"/>
<path style="fill:none;stroke-width:1.41;stroke-linecap:round;stroke-linejoin:round;stroke:rgb(0%,0%,0%);stroke-opacity:1;stroke-miterlimit:10;" d="M 162.75 95.433594 L 163.648438 95.695312 L 164.816406 96.136719 L 166.253906 96.707031 L 167.332031 97.191406 L 168.140625 97.542969 L 168.679688 97.761719 L 168.949219 97.9375 L 168.949219 97.632812 L 168.769531 96.796875 L 168.589844 95.257812 L 168.5 93.542969 L 168.5 90.996094 L 168.589844 90.644531 " transform="matrix(1,0,0,-1,0,123)"/>
<path style="fill:none;stroke-width:1.41;stroke-linecap:round;stroke-linejoin:round;stroke:rgb(0%,0%,0%);stroke-opacity:1;stroke-miterlimit:10;" d="M 193.757812 83.246094 L 193.847656 83.027344 L 193.9375 82.148438 L 194.027344 80.609375 L 194.027344 76.742188 L 193.9375 75.511719 L 194.027344 74.808594 L 194.027344 74.546875 " transform="matrix(1,0,0,-1,0,123)"/>
<path style="fill:none;stroke-width:1.41;stroke-linecap:round;stroke-linejoin:round;stroke:rgb(0%,0%,0%);stroke-opacity:1;stroke-miterlimit:10;" d="M 195.195312 77.886719 L 195.734375 77.929688 L 196.632812 78.105469 L 198.609375 78.457031 L 199.058594 78.589844 L 199.417969 78.589844 " transform="matrix(1,0,0,-1,0,123)"/>
<path style="fill:none;stroke-width:1.41;stroke-linecap:round;stroke-linejoin:round;stroke:rgb(0%,0%,0%);stroke-opacity:1;stroke-miterlimit:10;" d="M 200.226562 82.5 L 200.136719 82.148438 L 200.136719 77.050781 L 200.046875 75.25 L 200.046875 73.84375 " transform="matrix(1,0,0,-1,0,123)"/>
<path style="fill:none;stroke-width:1.41;stroke-linecap:round;stroke-linejoin:round;stroke:rgb(0%,0%,0%);stroke-opacity:1;stroke-miterlimit:10;" d="M 204.269531 80.171875 L 204 80.082031 L 204.539062 79.953125 L 205.257812 79.863281 L 206.15625 79.90625 L 206.875 79.953125 L 207.414062 79.996094 " transform="matrix(1,0,0,-1,0,123)"/>
<path style="fill:none;stroke-width:1.41;stroke-linecap:round;stroke-linejoin:round;stroke:rgb(0%,0%,0%);stroke-opacity:1;stroke-miterlimit:10;" d="M 204.269531 77.445312 L 205.078125 77.402344 L 206.785156 77.402344 L 207.503906 77.359375 L 207.953125 77.3125 L 208.222656 77.269531 " transform="matrix(1,0,0,-1,0,123)"/>
<path style="fill:none;stroke-width:1.41;stroke-linecap:round;stroke-linejoin:round;stroke:rgb(0%,0%,0%);stroke-opacity:1;stroke-miterlimit:10;" d="M 215.140625 79.46875 L 215.140625 79.863281 L 215.050781 80.082031 L 214.871094 80.433594 L 214.691406 80.65625 L 214.152344 80.785156 L 213.34375 80.742188 L 212.355469 80.304688 L 211.277344 79.46875 L 210.917969 78.367188 L 211.007812 77.402344 L 211.996094 76.917969 L 213.253906 77.050781 L 214.511719 77.710938 L 215.5 78.589844 L 215.949219 79.335938 L 216.039062 79.601562 L 215.859375 78.984375 L 215.589844 77.84375 L 215.230469 76.128906 L 214.871094 74.457031 L 214.601562 72.964844 L 214.601562 71.425781 L 214.871094 70.371094 L 215.589844 69.578125 L 216.667969 69.492188 L 217.566406 69.929688 L 218.105469 70.589844 L 218.285156 71.207031 L 218.105469 71.777344 L 217.835938 72.171875 L 217.566406 72.480469 L 217.027344 72.875 L 216.578125 73.273438 L 216.128906 73.578125 L 215.859375 73.796875 L 216.21875 74.019531 L 216.578125 74.148438 L 217.027344 74.371094 L 217.65625 74.765625 L 218.195312 75.074219 L 218.734375 75.425781 L 219.09375 75.777344 L 219.183594 76.039062 L 219.183594 76.347656 " transform="matrix(1,0,0,-1,0,123)"/>
<path style="fill:none;stroke-width:1.41;stroke-linecap:round;stroke-linejoin:round;stroke:rgb(0%,0%,0%);stroke-opacity:1;stroke-miterlimit:10;" d="M 221.160156 80.960938 L 220.53125 81.050781 L 220.261719 81.226562 L 220.890625 81.269531 L 221.519531 81.09375 L 221.878906 80.875 L 221.609375 80.65625 " transform="matrix(1,0,0,-1,0,123)"/>
<path style="fill:none;stroke-width:1.41;stroke-linecap:round;stroke-linejoin:round;stroke:rgb(0%,0%,0%);stroke-opacity:1;stroke-miterlimit:10;" d="M 222.417969 76.390625 L 222.058594 76.4375 L 222.148438 76.085938 L 222.148438 75.820312 L 222.417969 76.085938 L 221.96875 76.039062 L 221.609375 76.128906 L 221.519531 76.4375 L 221.519531 76.699219 " transform="matrix(1,0,0,-1,0,123)"/>
<path style="fill:none;stroke-width:1.41;stroke-linecap:round;stroke-linejoin:round;stroke:rgb(0%,0%,0%);stroke-opacity:1;stroke-miterlimit:10;" d="M 227.089844 83.246094 L 226.910156 82.808594 L 226.820312 81.578125 L 226.730469 79.773438 L 226.550781 77.753906 L 226.28125 76.304688 L 226.191406 75.335938 " transform="matrix(1,0,0,-1,0,123)"/>
<path style="fill:none;stroke-width:1.41;stroke-linecap:round;stroke-linejoin:round;stroke:rgb(0%,0%,0%);stroke-opacity:1;stroke-miterlimit:10;" d="M 227.269531 82.414062 L 227.539062 83.246094 L 228.347656 83.992188 L 229.515625 84.523438 L 230.773438 84.523438 L 231.761719 83.949219 L 232.03125 83.070312 L 231.761719 82.105469 L 230.773438 81.179688 L 229.785156 80.609375 L 229.066406 80.257812 L 229.515625 80.171875 L 230.144531 80.171875 L 230.953125 79.996094 L 231.761719 79.730469 L 232.570312 78.898438 L 233.109375 77.753906 L 233.019531 76.480469 L 232.480469 75.335938 L 231.761719 74.679688 L 230.863281 74.238281 L 229.875 74.195312 L 228.886719 74.238281 L 227.988281 74.457031 L 227.359375 74.679688 L 227.269531 75.074219 " transform="matrix(1,0,0,-1,0,123)"/>
<path style="fill:none;stroke-width:1.41;stroke-linecap:round;stroke-linejoin:round;stroke:rgb(0%,0%,0%);stroke-opacity:1;stroke-miterlimit:10;" d="M 117.46875 84.355469 L 117.378906 83.523438 L 117.378906 82.027344 L 117.289062 79.917969 L 117.199219 77.984375 L 117.109375 76.492188 L 117.019531 75.699219 L 117.109375 75.4375 " transform="matrix(1,0,0,-1,0,123)"/>
<path style="fill:none;stroke-width:1.41;stroke-linecap:round;stroke-linejoin:round;stroke:rgb(0%,0%,0%);stroke-opacity:1;stroke-miterlimit:10;" d="M 117.558594 78.996094 L 117.917969 79.304688 L 118.636719 79.523438 L 119.714844 79.742188 L 120.882812 79.960938 L 121.78125 80.136719 L 122.320312 80.269531 L 122.679688 80.445312 " transform="matrix(1,0,0,-1,0,123)"/>
<path style="fill:none;stroke-width:1.41;stroke-linecap:round;stroke-linejoin:round;stroke:rgb(0%,0%,0%);stroke-opacity:1;stroke-miterlimit:10;" d="M 123.398438 84.3125 L 123.488281 83.523438 L 123.488281 79.523438 L 123.398438 77.367188 L 123.308594 75.699219 L 123.21875 74.953125 " transform="matrix(1,0,0,-1,0,123)"/>
<path style="fill:none;stroke-width:1.41;stroke-linecap:round;stroke-linejoin:round;stroke:rgb(0%,0%,0%);stroke-opacity:1;stroke-miterlimit:10;" d="M 127.53125 81.148438 L 127.261719 81.191406 L 127.53125 81.0625 L 128.25 80.972656 L 129.148438 80.929688 L 130.136719 80.839844 L 130.945312 80.839844 L 131.394531 80.710938 L 131.664062 80.53125 " transform="matrix(1,0,0,-1,0,123)"/>
<path style="fill:none;stroke-width:1.41;stroke-linecap:round;stroke-linejoin:round;stroke:rgb(0%,0%,0%);stroke-opacity:1;stroke-miterlimit:10;" d="M 128.070312 78.996094 L 128.160156 78.773438 L 128.609375 78.554688 L 129.507812 78.378906 L 130.496094 78.25 L 131.304688 78.292969 L 131.84375 78.335938 L 132.023438 78.554688 " transform="matrix(1,0,0,-1,0,123)"/>
<path style="fill:none;stroke-width:1.41;stroke-linecap:round;stroke-linejoin:round;stroke:rgb(0%,0%,0%);stroke-opacity:1;stroke-miterlimit:10;" d="M 136.15625 79.523438 L 135.886719 78.511719 L 135.707031 76.710938 L 135.4375 74.511719 L 135.167969 72.625 L 134.988281 71.21875 L 134.898438 70.644531 " transform="matrix(1,0,0,-1,0,123)"/>
<path style="fill:none;stroke-width:1.41;stroke-linecap:round;stroke-linejoin:round;stroke:rgb(0%,0%,0%);stroke-opacity:1;stroke-miterlimit:10;" d="M 136.066406 79.65625 L 136.605469 80.226562 L 137.503906 80.488281 L 138.761719 80.3125 L 139.660156 79.65625 L 140.289062 78.730469 L 140.289062 77.632812 L 139.660156 76.710938 L 138.582031 76.09375 L 137.683594 75.65625 L 136.964844 75.699219 L 136.605469 75.875 L 136.425781 76.09375 " transform="matrix(1,0,0,-1,0,123)"/>
<path style="fill:none;stroke-width:1.41;stroke-linecap:round;stroke-linejoin:round;stroke:rgb(0%,0%,0%);stroke-opacity:1;stroke-miterlimit:10;" d="M 142.894531 81.0625 L 142.804688 81.28125 L 142.984375 81.5 L 143.433594 81.414062 L 143.703125 81.28125 L 144.0625 81.367188 L 144.152344 81.675781 L 143.972656 81.28125 L 143.882812 80.929688 " transform="matrix(1,0,0,-1,0,123)"/>
<path style="fill:none;stroke-width:1.41;stroke-linecap:round;stroke-linejoin:round;stroke:rgb(0%,0%,0%);stroke-opacity:1;stroke-miterlimit:10;" d="M 143.703125 76.796875 L 144.0625 76.796875 L 144.152344 76.578125 L 143.792969 76.359375 L 143.523438 76.535156 L 143.433594 76.84375 L 143.433594 77.105469 L 143.792969 77.324219 " transform="matrix(1,0,0,-1,0,123)"/>
<path style="fill:none;stroke-width:1.41;stroke-linecap:round;stroke-linejoin:round;stroke:rgb(0%,0%,0%);stroke-opacity:1;stroke-miterlimit:10;" d="M 146.847656 74.554688 L 147.027344 75.347656 L 147.65625 76.710938 L 148.554688 78.90625 L 149.453125 81.191406 L 150.082031 83.171875 L 150.53125 84.53125 L 150.710938 84.882812 L 150.890625 84.355469 L 151.25 82.6875 L 151.789062 80.402344 L 152.238281 77.941406 L 152.597656 75.917969 L 152.777344 74.863281 L 152.867188 74.425781 " transform="matrix(1,0,0,-1,0,123)"/>
<path style="fill:none;stroke-width:1.41;stroke-linecap:round;stroke-linejoin:round;stroke:rgb(0%,0%,0%);stroke-opacity:1;stroke-miterlimit:10;" d="M 149.09375 77.898438 L 148.824219 78.070312 L 148.914062 78.292969 L 149.632812 78.335938 L 150.351562 78.421875 L 151.160156 78.511719 L 151.789062 78.554688 L 152.058594 78.6875 " transform="matrix(1,0,0,-1,0,123)"/>
<path style="fill:none;stroke-width:1.41;stroke-linecap:round;stroke-linejoin:round;stroke:rgb(0%,0%,0%);stroke-opacity:1;stroke-miterlimit:10;" d="M 134.730469 23.128906 L 135 23.570312 L 135 25.722656 L 134.820312 26.207031 L 134.460938 26.25 L 133.652344 25.941406 L 132.304688 25.414062 L 130.417969 24.757812 L 128.710938 24.226562 L 127.273438 23.875 L 126.464844 23.570312 L 126.734375 23.261719 L 127.542969 22.820312 L 128.890625 22.296875 L 130.058594 21.722656 L 130.777344 21.0625 L 130.417969 20.230469 L 129.429688 19.085938 L 128.082031 17.855469 L 126.824219 16.757812 L 126.375 15.96875 L 126.644531 15.484375 L 127.632812 15.308594 L 128.800781 15.175781 L 129.96875 15.132812 L 131.675781 15.085938 L 134.640625 15.085938 L 135.808594 15.042969 L 136.078125 15 L 135.988281 15.570312 L 135.71875 16.230469 L 135.449219 17.066406 L 135.359375 17.855469 L 135.359375 18.515625 " transform="matrix(1,0,0,-1,0,123)"/>
<path style="fill:none;stroke-width:1.41;stroke-linecap:round;stroke-linejoin:round;stroke:rgb(0%,0%,0%);stroke-opacity:1;stroke-miterlimit:10;" d="M 141.019531 22.164062 L 141.289062 22.25 L 142.007812 22.25 L 143.085938 22.382812 L 143.984375 22.425781 L 144.613281 22.46875 " transform="matrix(1,0,0,-1,0,123)"/>
<path style="fill:none;stroke-width:1.41;stroke-linecap:round;stroke-linejoin:round;stroke:rgb(0%,0%,0%);stroke-opacity:1;stroke-miterlimit:10;" d="M 141.109375 20.1875 L 141.648438 20.054688 L 142.367188 19.921875 L 143.265625 19.878906 L 143.894531 19.878906 L 144.253906 19.921875 " transform="matrix(1,0,0,-1,0,123)"/>
<path style="fill:none;stroke-width:1.41;stroke-linecap:round;stroke-linejoin:round;stroke:rgb(0%,0%,0%);stroke-opacity:1;stroke-miterlimit:10;" d="M 152.070312 26.292969 L 151.980469 26.601562 L 151.351562 26.425781 L 150.542969 26.117188 L 149.644531 25.589844 L 149.195312 24.800781 L 149.734375 24.097656 L 150.453125 23.394531 L 151.351562 22.820312 L 151.890625 22.339844 L 151.710938 21.855469 L 150.992188 21.414062 L 150.09375 21.0625 L 149.285156 20.800781 L 149.734375 20.449219 L 150.542969 20.230469 L 151.351562 19.921875 L 151.980469 19.527344 L 152.25 19.042969 L 151.980469 18.03125 L 151.53125 16.800781 L 150.902344 15.570312 L 150.542969 14.382812 L 150.722656 13.859375 L 151.261719 13.636719 L 152.070312 13.726562 " transform="matrix(1,0,0,-1,0,123)"/>
<path style="fill:none;stroke-width:1.41;stroke-linecap:round;stroke-linejoin:round;stroke:rgb(0%,0%,0%);stroke-opacity:1;stroke-miterlimit:10;" d="M 157.460938 25.589844 L 157.371094 24.757812 L 157.371094 23.261719 L 157.28125 21.152344 L 157.191406 19.21875 L 157.101562 17.726562 L 157.011719 16.933594 L 157.101562 16.671875 " transform="matrix(1,0,0,-1,0,123)"/>
<path style="fill:none;stroke-width:1.41;stroke-linecap:round;stroke-linejoin:round;stroke:rgb(0%,0%,0%);stroke-opacity:1;stroke-miterlimit:10;" d="M 157.550781 20.230469 L 157.910156 20.539062 L 158.628906 20.757812 L 159.707031 20.976562 L 160.875 21.195312 L 161.773438 21.371094 L 162.3125 21.503906 L 162.671875 21.679688 " transform="matrix(1,0,0,-1,0,123)"/>
<path style="fill:none;stroke-width:1.41;stroke-linecap:round;stroke-linejoin:round;stroke:rgb(0%,0%,0%);stroke-opacity:1;stroke-miterlimit:10;" d="M 163.390625 25.546875 L 163.480469 24.757812 L 163.480469 20.757812 L 163.390625 18.601562 L 163.300781 16.933594 L 163.210938 16.1875 " transform="matrix(1,0,0,-1,0,123)"/>
<path style="fill:none;stroke-width:1.41;stroke-linecap:round;stroke-linejoin:round;stroke:rgb(0%,0%,0%);stroke-opacity:1;stroke-miterlimit:10;" d="M 167.523438 22.382812 L 167.253906 22.425781 L 167.523438 22.296875 L 168.242188 22.207031 L 169.140625 22.164062 L 170.128906 22.074219 L 170.9375 22.074219 L 171.386719 21.945312 L 171.65625 21.765625 " transform="matrix(1,0,0,-1,0,123)"/>
<path style="fill:none;stroke-width:1.41;stroke-linecap:round;stroke-linejoin:round;stroke:rgb(0%,0%,0%);stroke-opacity:1;stroke-miterlimit:10;" d="M 168.0625 20.230469 L 168.152344 20.007812 L 168.601562 19.789062 L 169.5 19.613281 L 170.488281 19.484375 L 171.296875 19.527344 L 171.835938 19.570312 L 172.015625 19.789062 " transform="matrix(1,0,0,-1,0,123)"/>
<path style="fill:none;stroke-width:1.41;stroke-linecap:round;stroke-linejoin:round;stroke:rgb(0%,0%,0%);stroke-opacity:1;stroke-miterlimit:10;" d="M 176.148438 20.757812 L 175.878906 19.746094 L 175.699219 17.945312 L 175.429688 15.746094 L 175.160156 13.859375 L 174.980469 12.453125 L 174.890625 11.878906 " transform="matrix(1,0,0,-1,0,123)"/>
<path style="fill:none;stroke-width:1.41;stroke-linecap:round;stroke-linejoin:round;stroke:rgb(0%,0%,0%);stroke-opacity:1;stroke-miterlimit:10;" d="M 176.058594 20.890625 L 176.597656 21.460938 L 177.496094 21.722656 L 178.753906 21.546875 L 179.652344 20.890625 L 180.28125 19.964844 L 180.28125 18.867188 L 179.652344 17.945312 L 178.574219 17.328125 L 177.675781 16.890625 L 176.957031 16.933594 L 176.597656 17.109375 L 176.417969 17.328125 " transform="matrix(1,0,0,-1,0,123)"/>
<path style="fill:none;stroke-width:1.41;stroke-linecap:round;stroke-linejoin:round;stroke:rgb(0%,0%,0%);stroke-opacity:1;stroke-miterlimit:10;" d="M 182.886719 22.296875 L 182.796875 22.515625 L 182.976562 22.734375 L 183.425781 22.648438 L 183.695312 22.515625 L 184.054688 22.601562 L 184.144531 22.910156 L 183.964844 22.515625 L 183.875 22.164062 " transform="matrix(1,0,0,-1,0,123)"/>
<path style="fill:none;stroke-width:1.41;stroke-linecap:round;stroke-linejoin:round;stroke:rgb(0%,0%,0%);stroke-opacity:1;stroke-miterlimit:10;" d="M 183.695312 18.03125 L 184.054688 18.03125 L 184.144531 17.8125 L 183.785156 17.59375 L 183.515625 17.769531 L 183.425781 18.078125 L 183.425781 18.339844 L 183.785156 18.558594 " transform="matrix(1,0,0,-1,0,123)"/>
<path style="fill:none;stroke-width:1.41;stroke-linecap:round;stroke-linejoin:round;stroke:rgb(0%,0%,0%);stroke-opacity:1;stroke-miterlimit:10;" d="M 186.839844 15.789062 L 187.019531 16.582031 L 187.648438 17.945312 L 188.546875 20.140625 L 189.445312 22.425781 L 190.074219 24.40625 L 190.523438 25.765625 L 190.703125 26.117188 L 190.882812 25.589844 L 191.242188 23.921875 L 191.78125 21.636719 L 192.230469 19.175781 L 192.589844 17.152344 L 192.769531 16.097656 L 192.859375 15.660156 " transform="matrix(1,0,0,-1,0,123)"/>
<path style="fill:none;stroke-width:1.41;stroke-linecap:round;stroke-linejoin:round;stroke:rgb(0%,0%,0%);stroke-opacity:1;stroke-miterlimit:10;" d="M 189.085938 19.132812 L 188.816406 19.304688 L 188.90625 19.527344 L 189.625 19.570312 L 190.34375 19.65625 L 191.152344 19.746094 L 191.78125 19.789062 L 192.050781 19.921875 " transform="matrix(1,0,0,-1,0,123)"/>
<path style="fill:none;stroke-width:1.41;stroke-linecap:round;stroke-linejoin:round;stroke:rgb(0%,0%,0%);stroke-opacity:1;stroke-miterlimit:10;" d="M 198.519531 16.320312 L 198.25 16.320312 L 197.980469 16.492188 L 198.25 16.757812 L 198.609375 16.625 L 198.699219 16.320312 L 198.519531 15.878906 L 198.160156 15.617188 L 197.890625 15.703125 L 197.980469 15.921875 L 198.339844 16.097656 L 198.789062 15.96875 L 199.058594 15.617188 L 198.789062 15.394531 L 198.339844 15.351562 L 197.800781 15.789062 L 197.710938 16.230469 L 197.890625 16.625 L 198.429688 16.757812 L 198.699219 16.757812 L 198.699219 17.066406 L 199.238281 16.976562 L 199.957031 16.230469 L 200.40625 15.132812 L 200.316406 13.988281 L 199.777344 13.109375 L 199.058594 12.539062 L 198.429688 12.1875 L 198.070312 12.230469 " transform="matrix(1,0,0,-1,0,123)"/>
<path style="fill:none;stroke-width:1.41;stroke-linecap:round;stroke-linejoin:round;stroke:rgb(0%,0%,0%);stroke-opacity:1;stroke-miterlimit:10;" d="M 205.527344 24.007812 L 205.617188 23.789062 L 205.707031 22.910156 L 205.796875 21.371094 L 205.796875 17.503906 L 205.707031 16.273438 L 205.796875 15.570312 L 205.796875 15.308594 " transform="matrix(1,0,0,-1,0,123)"/>
<path style="fill:none;stroke-width:1.41;stroke-linecap:round;stroke-linejoin:round;stroke:rgb(0%,0%,0%);stroke-opacity:1;stroke-miterlimit:10;" d="M 206.964844 18.648438 L 207.503906 18.691406 L 208.402344 18.867188 L 210.378906 19.21875 L 210.828125 19.351562 L 211.1875 19.351562 " transform="matrix(1,0,0,-1,0,123)"/>
<path style="fill:none;stroke-width:1.41;stroke-linecap:round;stroke-linejoin:round;stroke:rgb(0%,0%,0%);stroke-opacity:1;stroke-miterlimit:10;" d="M 211.996094 23.261719 L 211.90625 22.910156 L 211.90625 17.8125 L 211.816406 16.011719 L 211.816406 14.605469 " transform="matrix(1,0,0,-1,0,123)"/>
<path style="fill:none;stroke-width:1.41;stroke-linecap:round;stroke-linejoin:round;stroke:rgb(0%,0%,0%);stroke-opacity:1;stroke-miterlimit:10;" d="M 216.039062 20.933594 L 215.769531 20.84375 L 216.308594 20.710938 L 217.027344 20.625 L 217.925781 20.667969 L 218.644531 20.710938 L 219.183594 20.757812 " transform="matrix(1,0,0,-1,0,123)"/>
<path style="fill:none;stroke-width:1.41;stroke-linecap:round;stroke-linejoin:round;stroke:rgb(0%,0%,0%);stroke-opacity:1;stroke-miterlimit:10;" d="M 216.039062 18.207031 L 216.847656 18.164062 L 218.554688 18.164062 L 219.273438 18.121094 L 219.722656 18.078125 L 219.992188 18.03125 " transform="matrix(1,0,0,-1,0,123)"/>
<path style="fill:none;stroke-width:1.41;stroke-linecap:round;stroke-linejoin:round;stroke:rgb(0%,0%,0%);stroke-opacity:1;stroke-miterlimit:10;" d="M 226.910156 20.230469 L 226.910156 20.625 L 226.820312 20.84375 L 226.640625 21.195312 L 226.460938 21.414062 L 225.921875 21.546875 L 225.113281 21.503906 L 224.125 21.0625 L 223.046875 20.230469 L 222.6875 19.132812 L 222.777344 18.164062 L 223.765625 17.679688 L 225.023438 17.8125 L 226.28125 18.472656 L 227.269531 19.351562 L 227.71875 20.097656 L 227.808594 20.359375 L 227.628906 19.746094 L 227.359375 18.601562 L 227 16.890625 L 226.640625 15.21875 L 226.371094 13.726562 L 226.371094 12.1875 L 226.640625 11.132812 L 227.359375 10.34375 L 228.4375 10.253906 L 229.335938 10.695312 L 229.875 11.351562 L 230.054688 11.96875 L 229.875 12.539062 L 229.605469 12.933594 L 229.335938 13.242188 L 228.796875 13.636719 L 228.347656 14.03125 L 227.898438 14.339844 L 227.628906 14.5625 L 227.988281 14.78125 L 228.347656 14.914062 L 228.796875 15.132812 L 229.425781 15.527344 L 229.964844 15.835938 L 230.503906 16.1875 L 230.863281 16.539062 L 230.953125 16.800781 L 230.953125 17.109375 " transform="matrix(1,0,0,-1,0,123)"/>
<path style="fill:none;stroke-width:1.41;stroke-linecap:round;stroke-linejoin:round;stroke:rgb(0%,0%,0%);stroke-opacity:1;stroke-miterlimit:10;" d="M 232.929688 21.722656 L 232.300781 21.8125 L 232.03125 21.988281 L 232.660156 22.03125 L 233.289062 21.855469 L 233.648438 21.636719 L 233.378906 21.414062 " transform="matrix(1,0,0,-1,0,123)"/>
<path style="fill:none;stroke-width:1.41;stroke-linecap:round;stroke-linejoin:round;stroke:rgb(0%,0%,0%);stroke-opacity:1;stroke-miterlimit:10;" d="M 234.1875 17.152344 L 233.828125 17.195312 L 233.917969 16.84375 L 233.917969 16.582031 L 234.1875 16.84375 L 233.738281 16.800781 L 233.378906 16.890625 L 233.289062 17.195312 L 233.289062 17.460938 " transform="matrix(1,0,0,-1,0,123)"/>
<path style="fill:none;stroke-width:1.41;stroke-linecap:round;stroke-linejoin:round;stroke:rgb(0%,0%,0%);stroke-opacity:1;stroke-miterlimit:10;" d="M 238.859375 24.007812 L 238.679688 23.570312 L 238.589844 22.339844 L 238.5 20.539062 L 238.320312 18.515625 L 238.050781 17.066406 L 237.960938 16.097656 " transform="matrix(1,0,0,-1,0,123)"/>
<path style="fill:none;stroke-width:1.41;stroke-linecap:round;stroke-linejoin:round;stroke:rgb(0%,0%,0%);stroke-opacity:1;stroke-miterlimit:10;" d="M 239.039062 23.171875 L 239.308594 24.007812 L 240.117188 24.757812 L 241.285156 25.28125 L 242.542969 25.28125 L 243.53125 24.710938 L 243.800781 23.832031 L 243.53125 22.867188 L 242.542969 21.945312 L 241.554688 21.371094 L 240.835938 21.019531 L 241.285156 20.933594 L 241.914062 20.933594 L 242.722656 20.757812 L 243.53125 20.492188 L 244.339844 19.65625 L 244.878906 18.515625 L 244.789062 17.242188 L 244.25 16.097656 L 243.53125 15.4375 L 242.632812 15 L 241.644531 14.957031 L 240.65625 15 L 239.757812 15.21875 L 239.128906 15.4375 L 239.039062 15.835938 " transform="matrix(1,0,0,-1,0,123)"/>
<path style="fill:none;stroke-width:1.41;stroke-linecap:round;stroke-linejoin:round;stroke:rgb(0%,0%,0%);stroke-opacity:1;stroke-miterlimit:10;" d="M 247.753906 25.460938 L 248.113281 25.238281 L 248.652344 24.929688 L 249.371094 24.40625 L 250 23.746094 L 250.179688 23.085938 L 250 22.425781 L 249.460938 21.8125 L 249.011719 21.285156 L 248.832031 20.625 L 249.101562 20.054688 L 249.550781 19.613281 L 250.179688 19.351562 L 250.539062 19.21875 L 250.449219 19 L 250.089844 18.601562 L 249.820312 18.164062 L 249.730469 17.636719 L 250.179688 16.976562 L 250.808594 16.363281 L 251.347656 15.703125 L 251.617188 15 L 251.527344 14.339844 L 251.167969 13.59375 L 250.628906 13.023438 L 250.089844 12.582031 L 249.460938 12.320312 L 249.191406 12.230469 L 248.921875 12.1875 L 248.832031 11.96875 " transform="matrix(1,0,0,-1,0,123)"/>
<path style="fill:none;stroke-width:1.41;stroke-linecap:round;stroke-linejoin:round;stroke:rgb(0%,0%,0%);stroke-opacity:1;stroke-miterlimit:10;" d="M 188.15625 112.023438 L 187.617188 111.453125 L 186.269531 110.617188 L 184.832031 109.78125 L 183.484375 109.078125 L 182.675781 108.507812 L 182.496094 107.980469 L 182.855469 107.40625 L 183.933594 106.574219 L 185.460938 105.828125 L 186.898438 105.167969 L 188.066406 104.640625 L 188.515625 104.332031 L 188.695312 104.15625 " transform="matrix(1,0,0,-1,0,123)"/>
<path style="fill:none;stroke-width:1.41;stroke-linecap:round;stroke-linejoin:round;stroke:rgb(0%,0%,0%);stroke-opacity:1;stroke-miterlimit:10;" d="M 183.664062 108.332031 L 184.292969 108.507812 L 185.460938 108.417969 L 187.257812 108.332031 L 189.683594 108.199219 L 192.917969 108.109375 L 196.152344 108.066406 L 199.386719 108.066406 L 202.261719 108.15625 L 204.148438 108.289062 L 205.496094 108.417969 L 206.125 108.460938 L 206.394531 108.460938 " transform="matrix(1,0,0,-1,0,123)"/>
<path style="fill:none;stroke-width:1.41;stroke-linecap:round;stroke-linejoin:round;stroke:rgb(0%,0%,0%);stroke-opacity:1;stroke-miterlimit:10;" d="M 193.1875 48.875 L 192.648438 48.300781 L 191.300781 47.46875 L 189.863281 46.632812 L 188.515625 45.929688 L 187.707031 45.359375 L 187.527344 44.828125 L 187.886719 44.257812 L 188.964844 43.421875 L 190.492188 42.675781 L 191.929688 42.015625 L 193.097656 41.492188 L 193.546875 41.183594 L 193.726562 41.007812 " transform="matrix(1,0,0,-1,0,123)"/>
<path style="fill:none;stroke-width:1.41;stroke-linecap:round;stroke-linejoin:round;stroke:rgb(0%,0%,0%);stroke-opacity:1;stroke-miterlimit:10;" d="M 188.695312 45.179688 L 189.324219 45.359375 L 190.492188 45.269531 L 192.289062 45.179688 L 194.714844 45.050781 L 197.949219 44.960938 L 201.183594 44.917969 L 204.417969 44.917969 L 207.292969 45.007812 L 209.179688 45.136719 L 210.527344 45.269531 L 211.15625 45.3125 L 211.425781 45.3125 " transform="matrix(1,0,0,-1,0,123)"/>
</g>
</svg>
