<?xml version="1.0" encoding="UTF-8"?>
<svg xmlns="http://www.w3.org/2000/svg" xmlns:xlink="http://www.w3.org/1999/xlink" width="358.86pt" height="114.75pt" viewBox="0 0 358.86 114.75" version="1.1">
<g id="surface1">
<path style="fill:none;stroke-width:2.26;stroke-linecap:round;stroke-linejoin:round;stroke:rgb(0%,0%,0%);stroke-opacity:1;stroke-miterlimit:10;" d="M 7.308594 16.519531 L 12.480469 16.441406 L 17.640625 16.359375 L 22.808594 16.269531 L 27.96875 16.191406 L 33.140625 16.109375 L 38.308594 16.019531 L 43.46875 15.941406 L 48.640625 15.859375 L 53.800781 15.769531 L 58.96875 15.691406 " transform="matrix(1,0,0,-1,0,114.75)"/>
<path style="fill:none;stroke-width:2.26;stroke-linecap:round;stroke-linejoin:round;stroke:rgb(0%,0%,0%);stroke-opacity:1;stroke-miterlimit:10;" d="M 59.058594 16.039062 L 59.421875 23.511719 " transform="matrix(1,0,0,-1,0,114.75)"/>
<path style="fill:none;stroke-width:2.26;stroke-linecap:round;stroke-linejoin:round;stroke:rgb(0%,0%,0%);stroke-opacity:1;stroke-miterlimit:10;" d="M 56.898438 47.289062 L 56.898438 55.988281 " transform="matrix(1,0,0,-1,0,114.75)"/>
<path style="fill:none;stroke-width:2.26;stroke-linecap:round;stroke-linejoin:round;stroke:rgb(0%,0%,0%);stroke-opacity:1;stroke-miterlimit:10;" d="M 57.078125 55.941406 L 51.820312 55.980469 L 46.558594 56.019531 L 41.300781 56.058594 L 36.039062 56.101562 L 30.78125 56.140625 L 25.519531 56.179688 L 20.261719 56.21875 L 15 56.261719 L 9.738281 56.289062 " transform="matrix(1,0,0,-1,0,114.75)"/>
<path style="fill:none;stroke-width:2.26;stroke-linecap:round;stroke-linejoin:round;stroke:rgb(0%,0%,0%);stroke-opacity:1;stroke-miterlimit:10;" d="M 58.339844 47.640625 L 63.011719 47.199219 " transform="matrix(1,0,0,-1,0,114.75)"/>
<path style="fill:none;stroke-width:2.26;stroke-linecap:round;stroke-linejoin:round;stroke:rgb(0%,0%,0%);stroke-opacity:1;stroke-miterlimit:10;" d="M 63.550781 47.199219 L 64.089844 30.851562 L 64.269531 25.398438 " transform="matrix(1,0,0,-1,0,114.75)"/>
<path style="fill:none;stroke-width:2.26;stroke-linecap:round;stroke-linejoin:round;stroke:rgb(0%,0%,0%);stroke-opacity:1;stroke-miterlimit:10;" d="M 64.449219 25.269531 L 59.238281 24.609375 " transform="matrix(1,0,0,-1,0,114.75)"/>
<path style="fill:none;stroke-width:2.26;stroke-linecap:round;stroke-linejoin:round;stroke:rgb(0%,0%,0%);stroke-opacity:1;stroke-miterlimit:10;" d="M 32.851562 42 L 32.488281 42.300781 L 32.039062 42.871094 L 31.238281 43.488281 L 30.25 43.929688 L 28.898438 43.890625 L 27.730469 43.179688 L 26.648438 42.039062 L 25.929688 40.589844 L 26.019531 39.269531 L 26.738281 38.21875 L 28.359375 37.691406 L 30.070312 37.820312 L 31.679688 38.441406 L 32.941406 39.488281 L 33.570312 40.460938 L 33.839844 40.808594 L 33.75 40.148438 L 33.300781 38.21875 L 32.488281 35.179688 L 31.679688 32.199219 L 30.96875 29.601562 L 30.609375 27.890625 L 30.519531 26.921875 L 30.429688 26.128906 L 30.429688 24.898438 L 30.609375 24.511719 L 31.058594 24.371094 L 32.128906 24.679688 L 33.480469 25.558594 L 34.738281 26.53125 L 35.730469 27.488281 L 35.820312 28.371094 L 35.550781 29.078125 L 35.011719 29.78125 L 34.378906 30.441406 L 33.839844 30.789062 L 33.390625 31.140625 L 32.941406 31.398438 L 32.578125 31.671875 L 32.21875 31.890625 L 32.578125 32.28125 L 33.839844 32.808594 L 35.550781 33.558594 L 37.171875 34.441406 L 38.238281 35.359375 L 38.691406 35.929688 L 38.78125 36.238281 " transform="matrix(1,0,0,-1,0,114.75)"/>
<path style="fill:none;stroke-width:1.41;stroke-linecap:round;stroke-linejoin:round;stroke:rgb(0%,0%,0%);stroke-opacity:1;stroke-miterlimit:10;" d="M 53.371094 40.261719 L 53.371094 39.339844 L 53.460938 37.800781 L 53.460938 36.128906 L 53.371094 34.550781 L 53.371094 33.578125 L 53.28125 33.191406 L 53.28125 32.828125 " transform="matrix(1,0,0,-1,0,114.75)"/>
<path style="fill:none;stroke-width:1.41;stroke-linecap:round;stroke-linejoin:round;stroke:rgb(0%,0%,0%);stroke-opacity:1;stroke-miterlimit:10;" d="M 53.460938 40 L 53.460938 40.300781 L 53.910156 40.699219 L 54.71875 40.960938 L 55.800781 41.179688 L 56.96875 41.050781 L 57.859375 40.609375 L 58.21875 39.871094 L 57.859375 38.988281 L 56.96875 38.238281 L 55.980469 37.710938 L 55.261719 37.449219 L 55.890625 37.398438 L 57.058594 37.230469 L 58.21875 36.828125 L 59.210938 36.128906 L 59.570312 35.121094 L 59.210938 34.019531 L 58.488281 33.101562 L 57.421875 32.441406 L 56.25 32.21875 L 55.351562 32.308594 L 54.539062 32.609375 L 54.179688 32.96875 L 53.910156 33.269531 " transform="matrix(1,0,0,-1,0,114.75)"/>
<path style="fill:none;stroke-width:2.26;stroke-linecap:round;stroke-linejoin:round;stroke:rgb(0%,0%,0%);stroke-opacity:1;stroke-miterlimit:10;" d="M 7.71875 55.808594 L 7.738281 50.109375 L 7.761719 38.710938 L 7.78125 33.011719 L 7.789062 27.308594 L 7.800781 21.609375 L 7.820312 15.910156 " transform="matrix(1,0,0,-1,0,114.75)"/>
<path style="fill:none;stroke-width:2.26;stroke-linecap:round;stroke-linejoin:round;stroke:rgb(0%,0%,0%);stroke-opacity:1;stroke-miterlimit:10;" d="M 7.78125 63.300781 L 12.941406 63.21875 L 18.109375 63.140625 L 23.28125 63.050781 L 28.441406 62.96875 L 33.609375 62.890625 L 38.769531 62.800781 L 43.941406 62.71875 L 49.109375 62.640625 L 54.269531 62.550781 L 59.441406 62.46875 " transform="matrix(1,0,0,-1,0,114.75)"/>
<path style="fill:none;stroke-width:2.26;stroke-linecap:round;stroke-linejoin:round;stroke:rgb(0%,0%,0%);stroke-opacity:1;stroke-miterlimit:10;" d="M 59.53125 62.820312 L 59.890625 70.289062 " transform="matrix(1,0,0,-1,0,114.75)"/>
<path style="fill:none;stroke-width:2.26;stroke-linecap:round;stroke-linejoin:round;stroke:rgb(0%,0%,0%);stroke-opacity:1;stroke-miterlimit:10;" d="M 57.371094 94.070312 L 57.371094 102.769531 " transform="matrix(1,0,0,-1,0,114.75)"/>
<path style="fill:none;stroke-width:2.26;stroke-linecap:round;stroke-linejoin:round;stroke:rgb(0%,0%,0%);stroke-opacity:1;stroke-miterlimit:10;" d="M 57.550781 102.71875 L 52.289062 102.761719 L 47.03125 102.800781 L 41.769531 102.839844 L 36.511719 102.878906 L 31.25 102.921875 L 25.988281 102.960938 L 20.730469 103 L 15.46875 103.039062 L 10.199219 103.078125 " transform="matrix(1,0,0,-1,0,114.75)"/>
<path style="fill:none;stroke-width:2.26;stroke-linecap:round;stroke-linejoin:round;stroke:rgb(0%,0%,0%);stroke-opacity:1;stroke-miterlimit:10;" d="M 58.808594 94.421875 L 63.480469 93.980469 " transform="matrix(1,0,0,-1,0,114.75)"/>
<path style="fill:none;stroke-width:2.26;stroke-linecap:round;stroke-linejoin:round;stroke:rgb(0%,0%,0%);stroke-opacity:1;stroke-miterlimit:10;" d="M 64.019531 93.980469 L 64.199219 88.53125 L 64.378906 83.078125 L 64.738281 72.179688 " transform="matrix(1,0,0,-1,0,114.75)"/>
<path style="fill:none;stroke-width:2.26;stroke-linecap:round;stroke-linejoin:round;stroke:rgb(0%,0%,0%);stroke-opacity:1;stroke-miterlimit:10;" d="M 64.921875 72.050781 L 59.710938 71.390625 " transform="matrix(1,0,0,-1,0,114.75)"/>
<path style="fill:none;stroke-width:2.26;stroke-linecap:round;stroke-linejoin:round;stroke:rgb(0%,0%,0%);stroke-opacity:1;stroke-miterlimit:10;" d="M 8.191406 102.601562 L 8.210938 96.890625 L 8.21875 91.191406 L 8.230469 85.488281 L 8.25 79.789062 L 8.261719 74.089844 L 8.269531 68.390625 L 8.289062 62.691406 " transform="matrix(1,0,0,-1,0,114.75)"/>
<path style="fill:none;stroke-width:2.26;stroke-linecap:round;stroke-linejoin:round;stroke:rgb(0%,0%,0%);stroke-opacity:1;stroke-miterlimit:10;" d="M 28.039062 89.558594 L 28.070312 88.351562 L 28.101562 86.46875 L 28.101562 84.378906 L 28.128906 82.128906 L 28.101562 80.601562 L 28.070312 79.441406 L 28.039062 78.378906 L 27.96875 77.351562 L 27.910156 76.46875 L 27.851562 75.878906 L 27.820312 75.53125 " transform="matrix(1,0,0,-1,0,114.75)"/>
<path style="fill:none;stroke-width:2.26;stroke-linecap:round;stroke-linejoin:round;stroke:rgb(0%,0%,0%);stroke-opacity:1;stroke-miterlimit:10;" d="M 28.128906 89.660156 L 28.441406 90.25 L 29.070312 90.71875 L 30.101562 91.160156 L 31.320312 91.308594 L 32.5 91.160156 L 33.601562 90.46875 L 34.289062 89.441406 L 34.691406 88.351562 L 34.878906 87.308594 L 34.820312 86.628906 L 34.601562 86 L 34.160156 85.351562 L 33.46875 84.691406 L 32.539062 84.03125 L 31.46875 83.558594 L 30.601562 83.308594 L 29.96875 83.191406 L 29.539062 83.058594 L 29.351562 82.851562 " transform="matrix(1,0,0,-1,0,114.75)"/>
<path style="fill:none;stroke-width:1.41;stroke-linecap:round;stroke-linejoin:round;stroke:rgb(0%,0%,0%);stroke-opacity:1;stroke-miterlimit:10;" d="M 52.910156 78.351562 L 53.160156 78.96875 L 53.601562 80.378906 L 54.191406 82.308594 L 54.789062 84.351562 L 55.320312 86.160156 L 55.691406 87.308594 L 55.96875 87.78125 L 56.378906 87.378906 L 56.691406 86.441406 L 57.070312 84.910156 L 57.539062 83.101562 L 57.910156 81.351562 L 58.191406 79.96875 L 58.320312 79.351562 " transform="matrix(1,0,0,-1,0,114.75)"/>
<path style="fill:none;stroke-width:1.41;stroke-linecap:round;stroke-linejoin:round;stroke:rgb(0%,0%,0%);stroke-opacity:1;stroke-miterlimit:10;" d="M 54.410156 81.53125 L 54 81.808594 L 54.21875 81.941406 L 55.070312 81.808594 L 56.070312 81.75 L 57.070312 81.75 L 57.761719 81.808594 L 58.070312 81.941406 " transform="matrix(1,0,0,-1,0,114.75)"/>
<path style="fill:none;stroke-width:2.26;stroke-linecap:round;stroke-linejoin:round;stroke:rgb(0%,0%,0%);stroke-opacity:1;stroke-miterlimit:10;" d="M 89.609375 101.300781 L 89.660156 95.351562 L 89.699219 89.390625 " transform="matrix(1,0,0,-1,0,114.75)"/>
<path style="fill:none;stroke-width:2.26;stroke-linecap:round;stroke-linejoin:round;stroke:rgb(0%,0%,0%);stroke-opacity:1;stroke-miterlimit:10;" d="M 89.699219 89.308594 L 96.171875 89.179688 " transform="matrix(1,0,0,-1,0,114.75)"/>
<path style="fill:none;stroke-width:2.26;stroke-linecap:round;stroke-linejoin:round;stroke:rgb(0%,0%,0%);stroke-opacity:1;stroke-miterlimit:10;" d="M 96.261719 89.089844 L 96.199219 82.601562 L 96.140625 76.109375 L 96.078125 69.621094 " transform="matrix(1,0,0,-1,0,114.75)"/>
<path style="fill:none;stroke-width:2.26;stroke-linecap:round;stroke-linejoin:round;stroke:rgb(0%,0%,0%);stroke-opacity:1;stroke-miterlimit:10;" d="M 96.078125 69.621094 L 90.058594 69.878906 " transform="matrix(1,0,0,-1,0,114.75)"/>
<path style="fill:none;stroke-width:2.26;stroke-linecap:round;stroke-linejoin:round;stroke:rgb(0%,0%,0%);stroke-opacity:1;stroke-miterlimit:10;" d="M 90.328125 69.800781 L 90.421875 63.46875 L 90.511719 57.140625 L 90.601562 50.808594 " transform="matrix(1,0,0,-1,0,114.75)"/>
<path style="fill:none;stroke-width:2.26;stroke-linecap:round;stroke-linejoin:round;stroke:rgb(0%,0%,0%);stroke-opacity:1;stroke-miterlimit:10;" d="M 90.601562 50.238281 L 96.980469 50.28125 " transform="matrix(1,0,0,-1,0,114.75)"/>
<path style="fill:none;stroke-width:2.26;stroke-linecap:round;stroke-linejoin:round;stroke:rgb(0%,0%,0%);stroke-opacity:1;stroke-miterlimit:10;" d="M 96.890625 50.238281 L 96.78125 44.921875 L 96.660156 39.601562 L 96.550781 34.289062 L 96.441406 28.96875 " transform="matrix(1,0,0,-1,0,114.75)"/>
<path style="fill:none;stroke-width:2.26;stroke-linecap:round;stroke-linejoin:round;stroke:rgb(0%,0%,0%);stroke-opacity:1;stroke-miterlimit:10;" d="M 96.261719 28.621094 L 90.960938 28.710938 " transform="matrix(1,0,0,-1,0,114.75)"/>
<path style="fill:none;stroke-width:2.26;stroke-linecap:round;stroke-linejoin:round;stroke:rgb(0%,0%,0%);stroke-opacity:1;stroke-miterlimit:10;" d="M 90.511719 28.660156 L 90.449219 22.828125 L 90.390625 17 L 90.328125 11.171875 " transform="matrix(1,0,0,-1,0,114.75)"/>
<path style="fill:none;stroke-width:2.26;stroke-linecap:round;stroke-linejoin:round;stroke:rgb(0%,0%,0%);stroke-opacity:1;stroke-miterlimit:10;" d="M 91.230469 10.730469 L 96.449219 10.75 L 101.679688 10.761719 L 112.140625 10.800781 L 117.359375 10.808594 L 122.589844 10.828125 L 127.820312 10.839844 L 133.050781 10.859375 L 138.269531 10.878906 L 143.5 10.890625 L 148.730469 10.910156 " transform="matrix(1,0,0,-1,0,114.75)"/>
<path style="fill:none;stroke-width:2.26;stroke-linecap:round;stroke-linejoin:round;stroke:rgb(0%,0%,0%);stroke-opacity:1;stroke-miterlimit:10;" d="M 148.460938 11.039062 L 148.441406 16.050781 L 148.421875 21.070312 L 148.398438 26.078125 L 148.378906 31.101562 L 148.359375 36.109375 L 148.339844 41.128906 L 148.320312 46.140625 L 148.300781 51.160156 L 148.28125 56.171875 L 148.261719 61.191406 L 148.238281 66.199219 L 148.21875 71.21875 L 148.199219 76.230469 L 148.179688 81.25 L 148.160156 86.261719 L 148.140625 91.269531 L 148.121094 96.289062 L 148.101562 101.300781 " transform="matrix(1,0,0,-1,0,114.75)"/>
<path style="fill:none;stroke-width:2.26;stroke-linecap:round;stroke-linejoin:round;stroke:rgb(0%,0%,0%);stroke-opacity:1;stroke-miterlimit:10;" d="M 147.46875 101.078125 L 142.238281 101.199219 L 137.019531 101.320312 L 131.789062 101.429688 L 126.558594 101.550781 L 121.328125 101.660156 L 116.109375 101.78125 L 110.878906 101.898438 L 105.648438 102.011719 L 100.421875 102.128906 L 95.199219 102.238281 L 89.96875 102.359375 " transform="matrix(1,0,0,-1,0,114.75)"/>
<path style="fill:none;stroke-width:1.41;stroke-linecap:round;stroke-linejoin:round;stroke:rgb(0%,0%,0%);stroke-opacity:1;stroke-miterlimit:10;" d="M 99.308594 75.328125 L 99.488281 75.988281 L 99.761719 77.128906 L 100.390625 78.890625 L 101.019531 80.78125 L 101.738281 82.628906 L 102.550781 84.210938 L 103 85.179688 L 103.359375 85.699219 L 103.539062 85.921875 L 103.898438 85.75 L 104.261719 85 L 104.699219 83.679688 L 105.148438 81.789062 L 105.78125 79.511719 L 106.230469 77.621094 L 106.589844 76.171875 L 106.859375 75.328125 L 106.859375 75.070312 " transform="matrix(1,0,0,-1,0,114.75)"/>
<path style="fill:none;stroke-width:1.41;stroke-linecap:round;stroke-linejoin:round;stroke:rgb(0%,0%,0%);stroke-opacity:1;stroke-miterlimit:10;" d="M 100.839844 79.328125 L 101.199219 79.109375 L 102.101562 79.109375 L 103.359375 79.199219 L 104.609375 79.378906 L 105.601562 79.550781 L 106.410156 79.550781 " transform="matrix(1,0,0,-1,0,114.75)"/>
<path style="fill:none;stroke-width:1.41;stroke-linecap:round;stroke-linejoin:round;stroke:rgb(0%,0%,0%);stroke-opacity:1;stroke-miterlimit:10;" d="M 102 43.5 L 102 42.441406 L 101.96875 41.441406 L 101.910156 40.410156 L 101.820312 39.410156 L 101.71875 38.660156 L 101.601562 38 L 101.539062 37.46875 " transform="matrix(1,0,0,-1,0,114.75)"/>
<path style="fill:none;stroke-width:1.41;stroke-linecap:round;stroke-linejoin:round;stroke:rgb(0%,0%,0%);stroke-opacity:1;stroke-miterlimit:10;" d="M 102.261719 44 L 102.21875 44.308594 L 102.539062 44.691406 L 103.25 44.910156 L 104.261719 45 L 105.21875 44.851562 L 106 44.441406 L 106.441406 43.660156 L 106.5 42.878906 L 106.410156 42.089844 L 106.160156 41.28125 L 105.71875 40.878906 L 105.320312 40.53125 L 104.910156 40.25 L 104.5 40.03125 L 104.128906 39.839844 L 103.71875 39.78125 L 103.410156 39.808594 L 103.628906 40.058594 L 104.320312 39.878906 L 105.101562 39.46875 L 105.96875 38.851562 L 106.820312 37.851562 L 107.160156 36.878906 L 107.039062 35.941406 L 106.351562 35.28125 L 105.320312 35.160156 L 104.21875 35.308594 L 103.320312 35.75 L 102.761719 36.191406 L 102.441406 36.589844 L 102.289062 36.910156 L 102.289062 37.191406 " transform="matrix(1,0,0,-1,0,114.75)"/>
<path style="fill:none;stroke-width:2.26;stroke-linecap:round;stroke-linejoin:round;stroke:rgb(0%,0%,0%);stroke-opacity:1;stroke-miterlimit:10;" d="M 124.441406 66.808594 L 124.21875 66.660156 L 124.320312 65.691406 L 124.46875 64.089844 L 124.71875 61.808594 L 124.96875 59.78125 L 125.101562 58.191406 L 125.191406 56.96875 L 125.191406 56.339844 L 125.160156 55.96875 L 124.941406 56.628906 L 124.820312 58.058594 L 124.789062 60.03125 L 125.039062 62.378906 L 125.628906 64.410156 L 126.601562 66.03125 L 127.96875 67.089844 L 129.289062 67.558594 L 130.570312 67.53125 L 131.539062 67.191406 L 132.101562 66.75 L 132.5 66.28125 L 132.71875 66.03125 L 132.878906 65.78125 " transform="matrix(1,0,0,-1,0,114.75)"/>
<path style="fill:none;stroke-width:2.26;stroke-linecap:round;stroke-linejoin:round;stroke:rgb(0%,0%,0%);stroke-opacity:1;stroke-miterlimit:10;" d="M 66 81.191406 L 71.820312 81 L 77.628906 80.808594 L 83.441406 80.628906 L 89.25 80.441406 L 95.070312 80.25 " transform="matrix(1,0,0,-1,0,114.75)"/>
<path style="fill:none;stroke-width:2.26;stroke-linecap:round;stroke-linejoin:round;stroke:rgb(0%,0%,0%);stroke-opacity:1;stroke-miterlimit:10;" d="M 65.441406 36.910156 L 95.351562 36.910156 " transform="matrix(1,0,0,-1,0,114.75)"/>
<path style="fill:none;stroke-width:2.26;stroke-linecap:round;stroke-linejoin:round;stroke:rgb(0%,0%,0%);stroke-opacity:1;stroke-miterlimit:10;" d="M 207.339844 61.28125 L 207.519531 61.5 L 207.429688 61.941406 L 207.25 62.160156 L 206.710938 62.25 L 206.261719 61.851562 L 205.808594 61.28125 L 205.449219 60.539062 L 205.449219 59.570312 L 205.71875 58.730469 L 206.351562 58.070312 L 207.25 57.71875 L 208.238281 57.71875 L 209.21875 58.210938 L 209.851562 59 L 210.03125 59.960938 L 209.941406 61.019531 L 209.488281 61.851562 L 208.769531 62.378906 L 207.878906 62.429688 L 206.980469 62.03125 L 206.351562 61.238281 L 205.898438 60.269531 L 206.171875 59.261719 L 206.800781 58.429688 L 207.609375 57.851562 L 208.421875 57.71875 L 209.128906 58.070312 L 209.488281 58.78125 L 209.578125 59.789062 L 209.308594 60.761719 L 208.769531 61.5 L 208.058594 61.898438 L 207.519531 61.851562 L 207.070312 61.460938 L 206.890625 60.761719 L 207.25 60.101562 L 207.878906 59.570312 L 208.589844 59.570312 L 209.128906 59.921875 L 209.308594 60.449219 L 209.21875 60.96875 L 208.679688 61.191406 L 208.238281 60.929688 L 207.789062 60.539062 L 207.609375 59.921875 L 207.699219 59.570312 L 207.96875 59.480469 L 208.421875 59.519531 L 208.769531 59.660156 L 208.589844 59.480469 L 208.328125 59.878906 L 208.421875 60.179688 L 208.589844 60.398438 " transform="matrix(1,0,0,-1,0,114.75)"/>
<path style="fill:none;stroke-width:2.26;stroke-linecap:round;stroke-linejoin:round;stroke:rgb(0%,0%,0%);stroke-opacity:1;stroke-miterlimit:10;" d="M 176.570312 86.480469 L 176.75 86.699219 L 176.660156 87.140625 L 176.480469 87.359375 L 175.941406 87.449219 L 175.488281 87.050781 L 175.039062 86.480469 L 174.679688 85.730469 L 174.679688 84.761719 L 174.949219 83.929688 L 175.578125 83.269531 L 176.480469 82.921875 L 177.46875 82.921875 L 178.449219 83.398438 L 179.078125 84.191406 L 179.261719 85.160156 L 179.171875 86.21875 L 178.71875 87.050781 L 178.011719 87.578125 L 177.109375 87.621094 L 176.210938 87.230469 L 175.578125 86.429688 L 175.128906 85.46875 L 175.398438 84.460938 L 176.03125 83.621094 L 176.839844 83.050781 L 177.648438 82.921875 L 178.359375 83.269531 L 178.71875 83.96875 L 178.808594 84.980469 L 178.539062 85.949219 L 178.011719 86.699219 L 177.289062 87.089844 L 176.75 87.050781 L 176.300781 86.648438 L 176.121094 85.949219 L 176.480469 85.289062 L 177.109375 84.761719 L 177.828125 84.761719 L 178.359375 85.121094 L 178.539062 85.640625 L 178.449219 86.171875 L 177.921875 86.390625 L 177.46875 86.128906 L 177.019531 85.730469 L 176.839844 85.121094 L 176.929688 84.761719 L 177.199219 84.679688 L 177.648438 84.71875 L 178.011719 84.851562 L 177.828125 84.679688 L 177.558594 85.070312 L 177.648438 85.378906 L 177.828125 85.601562 " transform="matrix(1,0,0,-1,0,114.75)"/>
<path style="fill:none;stroke-width:2.26;stroke-linecap:round;stroke-linejoin:round;stroke:rgb(0%,0%,0%);stroke-opacity:1;stroke-miterlimit:10;" d="M 177.820312 41.671875 L 178 41.890625 L 177.910156 42.328125 L 177.730469 42.550781 L 177.191406 42.628906 L 176.738281 42.238281 L 176.289062 41.671875 L 175.929688 40.921875 L 175.929688 39.949219 L 176.199219 39.121094 L 176.828125 38.460938 L 177.730469 38.109375 L 178.71875 38.109375 L 179.699219 38.589844 L 180.328125 39.378906 L 180.511719 40.351562 L 180.421875 41.398438 L 179.96875 42.238281 L 179.261719 42.761719 L 178.359375 42.808594 L 177.460938 42.410156 L 176.828125 41.621094 L 176.378906 40.660156 L 176.648438 39.640625 L 177.28125 38.808594 L 178.089844 38.238281 L 178.898438 38.109375 L 179.609375 38.460938 L 179.96875 39.160156 L 180.058594 40.171875 L 179.789062 41.140625 L 179.261719 41.890625 L 178.539062 42.28125 L 178 42.238281 L 177.550781 41.839844 L 177.371094 41.140625 L 177.730469 40.480469 L 178.359375 39.949219 L 179.078125 39.949219 L 179.609375 40.300781 L 179.789062 40.828125 L 179.699219 41.359375 L 179.171875 41.578125 L 178.71875 41.308594 L 178.269531 40.921875 L 178.089844 40.300781 L 178.179688 39.949219 L 178.449219 39.859375 L 178.898438 39.910156 L 179.261719 40.039062 L 179.078125 39.859375 L 178.808594 40.261719 L 178.898438 40.570312 L 179.078125 40.789062 " transform="matrix(1,0,0,-1,0,114.75)"/>
<path style="fill:none;stroke-width:1.41;stroke-linecap:round;stroke-linejoin:round;stroke:rgb(0%,0%,0%);stroke-opacity:1;stroke-miterlimit:10;" d="M 198.191406 77.699219 L 198.628906 78.390625 L 199.03125 79.738281 L 199.628906 81.828125 L 200.160156 83.949219 L 200.589844 85.738281 L 200.878906 86.949219 L 201.089844 87.390625 L 201.339844 87.359375 L 201.78125 86.550781 L 202.339844 84.921875 L 203.03125 82.671875 L 203.71875 80.269531 L 204.25 78.421875 L 204.628906 77.300781 L 204.808594 76.800781 " transform="matrix(1,0,0,-1,0,114.75)"/>
<path style="fill:none;stroke-width:1.41;stroke-linecap:round;stroke-linejoin:round;stroke:rgb(0%,0%,0%);stroke-opacity:1;stroke-miterlimit:10;" d="M 200.28125 80.359375 L 200.808594 80.550781 L 201.53125 80.609375 L 202.28125 80.609375 L 202.839844 80.578125 L 203.46875 80.671875 " transform="matrix(1,0,0,-1,0,114.75)"/>
<path style="fill:none;stroke-width:1.41;stroke-linecap:round;stroke-linejoin:round;stroke:rgb(0%,0%,0%);stroke-opacity:1;stroke-miterlimit:10;" d="M 207.53125 82.578125 L 207.71875 82.421875 L 208.21875 82.390625 L 208.839844 82.359375 L 209.441406 82.390625 L 209.878906 82.421875 L 210.191406 82.449219 L 210.5 82.488281 L 210.75 82.488281 " transform="matrix(1,0,0,-1,0,114.75)"/>
<path style="fill:none;stroke-width:1.41;stroke-linecap:round;stroke-linejoin:round;stroke:rgb(0%,0%,0%);stroke-opacity:1;stroke-miterlimit:10;" d="M 208.28125 79.800781 L 208.910156 79.921875 L 209.628906 80.050781 L 210.441406 80.199219 L 210.941406 80.238281 L 211.25 80.269531 " transform="matrix(1,0,0,-1,0,114.75)"/>
<path style="fill:none;stroke-width:1.41;stroke-linecap:round;stroke-linejoin:round;stroke:rgb(0%,0%,0%);stroke-opacity:1;stroke-miterlimit:10;" d="M 215.558594 83.140625 L 215.5 82.300781 L 215.628906 80.949219 L 215.75 79.171875 L 215.839844 77.609375 L 215.941406 76.449219 L 215.96875 75.800781 L 215.96875 75.519531 L 215.910156 75.078125 " transform="matrix(1,0,0,-1,0,114.75)"/>
<path style="fill:none;stroke-width:1.41;stroke-linecap:round;stroke-linejoin:round;stroke:rgb(0%,0%,0%);stroke-opacity:1;stroke-miterlimit:10;" d="M 215.808594 82.640625 L 215.96875 82.988281 L 216.191406 83.269531 L 216.691406 83.488281 L 217.378906 83.609375 L 218.25 83.421875 L 219.089844 82.921875 L 219.660156 82.050781 L 219.808594 80.769531 L 219.5 79.578125 L 218.878906 78.671875 L 218.03125 78.238281 L 217.378906 78.199219 L 216.910156 78.449219 L 216.660156 78.769531 L 216.628906 79.078125 " transform="matrix(1,0,0,-1,0,114.75)"/>
<path style="fill:none;stroke-width:1.41;stroke-linecap:round;stroke-linejoin:round;stroke:rgb(0%,0%,0%);stroke-opacity:1;stroke-miterlimit:10;" d="M 222.878906 83.109375 L 223 83.300781 L 223.058594 83.640625 L 223.378906 83.699219 L 223.71875 83.699219 L 223.46875 83.519531 L 223.160156 83.488281 L 222.808594 83.578125 L 222.558594 83.769531 L 222.5 83.988281 L 222.78125 84.109375 " transform="matrix(1,0,0,-1,0,114.75)"/>
<path style="fill:none;stroke-width:1.41;stroke-linecap:round;stroke-linejoin:round;stroke:rgb(0%,0%,0%);stroke-opacity:1;stroke-miterlimit:10;" d="M 223.160156 79.609375 L 223.308594 79.390625 L 223.558594 79.300781 L 223.808594 79.050781 L 223.941406 78.769531 L 223.878906 78.519531 L 223.660156 78.449219 L 224.03125 78.671875 L 224.378906 78.671875 L 224.160156 78.449219 L 223.910156 78.390625 L 223.71875 78.519531 " transform="matrix(1,0,0,-1,0,114.75)"/>
<path style="fill:none;stroke-width:1.41;stroke-linecap:round;stroke-linejoin:round;stroke:rgb(0%,0%,0%);stroke-opacity:1;stroke-miterlimit:10;" d="M 228.191406 78.640625 L 228.191406 78.988281 L 228.308594 79.449219 L 228.46875 80.050781 L 228.660156 80.671875 L 228.808594 81.359375 L 229.03125 82.109375 L 229.339844 83.421875 L 229.691406 84.859375 L 230.03125 86.171875 L 230.339844 87.359375 L 230.46875 87.859375 L 230.808594 87.550781 L 231.03125 86.828125 L 231.378906 85.699219 L 231.660156 84.550781 L 232.03125 83.078125 L 232.441406 81.488281 L 232.839844 80.109375 L 233.191406 78.859375 L 233.410156 78.109375 L 233.5 77.859375 " transform="matrix(1,0,0,-1,0,114.75)"/>
<path style="fill:none;stroke-width:1.41;stroke-linecap:round;stroke-linejoin:round;stroke:rgb(0%,0%,0%);stroke-opacity:1;stroke-miterlimit:10;" d="M 229.691406 81.078125 L 229.808594 81.269531 L 230.28125 81.171875 L 230.878906 81.140625 L 231.308594 81.050781 L 231.71875 81.050781 L 232.089844 81.238281 " transform="matrix(1,0,0,-1,0,114.75)"/>
<path style="fill:none;stroke-width:2.26;stroke-linecap:round;stroke-linejoin:round;stroke:rgb(0%,0%,0%);stroke-opacity:1;stroke-miterlimit:10;" d="M 318.019531 60.28125 L 318.199219 60.5 L 318.109375 60.941406 L 317.929688 61.160156 L 317.398438 61.25 L 316.949219 60.851562 L 316.5 60.28125 L 316.140625 59.539062 L 316.140625 58.570312 L 316.410156 57.730469 L 317.039062 57.070312 L 317.929688 56.71875 L 318.921875 56.71875 L 319.910156 57.210938 L 320.539062 58 L 320.71875 58.960938 L 320.628906 60.019531 L 320.179688 60.851562 L 319.460938 61.378906 L 318.558594 61.429688 L 317.671875 61.03125 L 317.039062 60.238281 L 316.589844 59.269531 L 316.859375 58.261719 L 317.488281 57.429688 L 318.289062 56.851562 L 319.101562 56.71875 L 319.820312 57.070312 L 320.179688 57.78125 L 320.269531 58.789062 L 320 59.761719 L 319.460938 60.5 L 318.738281 60.898438 L 318.199219 60.851562 L 317.761719 60.460938 L 317.578125 59.761719 L 317.929688 59.101562 L 318.558594 58.570312 L 319.28125 58.570312 L 319.820312 58.921875 L 320 59.449219 L 319.910156 59.96875 L 319.371094 60.191406 L 318.921875 59.929688 L 318.46875 59.539062 L 318.289062 58.921875 L 318.378906 58.570312 L 318.648438 58.480469 L 319.101562 58.519531 L 319.460938 58.660156 L 319.28125 58.480469 L 319.011719 58.878906 L 319.101562 59.179688 L 319.28125 59.398438 " transform="matrix(1,0,0,-1,0,114.75)"/>
<path style="fill:none;stroke-width:2.26;stroke-linecap:round;stroke-linejoin:round;stroke:rgb(0%,0%,0%);stroke-opacity:1;stroke-miterlimit:10;" d="M 285.128906 61.121094 L 285.308594 61.339844 L 285.21875 61.78125 L 285.039062 62 L 284.5 62.089844 L 284.050781 61.691406 L 283.601562 61.121094 L 283.238281 60.378906 L 283.238281 59.410156 L 283.511719 58.570312 L 284.140625 57.910156 L 285.039062 57.558594 L 286.019531 57.558594 L 287.011719 58.050781 L 287.640625 58.839844 L 287.820312 59.800781 L 287.730469 60.859375 L 287.28125 61.691406 L 286.558594 62.21875 L 285.671875 62.261719 L 284.769531 61.871094 L 284.140625 61.078125 L 283.691406 60.109375 L 283.960938 59.101562 L 284.589844 58.269531 L 285.398438 57.691406 L 286.199219 57.558594 L 286.921875 57.910156 L 287.28125 58.621094 L 287.371094 59.628906 L 287.101562 60.589844 L 286.558594 61.339844 L 285.839844 61.738281 L 285.308594 61.691406 L 284.859375 61.300781 L 284.679688 60.589844 L 285.039062 59.941406 L 285.671875 59.410156 L 286.378906 59.410156 L 286.921875 59.761719 L 287.101562 60.289062 L 287.011719 60.808594 L 286.46875 61.03125 L 286.019531 60.769531 L 285.578125 60.378906 L 285.398438 59.761719 L 285.488281 59.410156 L 285.761719 59.320312 L 286.199219 59.359375 L 286.558594 59.5 L 286.378906 59.320312 L 286.109375 59.71875 L 286.199219 60.019531 L 286.378906 60.238281 " transform="matrix(1,0,0,-1,0,114.75)"/>
<path style="fill:none;stroke-width:1.41;stroke-linecap:round;stroke-linejoin:round;stroke:rgb(0%,0%,0%);stroke-opacity:1;stroke-miterlimit:10;" d="M 286.578125 81.199219 L 287.019531 81.890625 L 287.421875 83.230469 L 288.019531 85.320312 L 288.550781 87.449219 L 288.988281 89.230469 L 289.269531 90.449219 L 289.488281 90.890625 L 289.738281 90.859375 L 290.171875 90.039062 L 290.738281 88.421875 L 291.421875 86.171875 L 292.109375 83.761719 L 292.640625 81.921875 L 293.019531 80.789062 L 293.199219 80.289062 " transform="matrix(1,0,0,-1,0,114.75)"/>
<path style="fill:none;stroke-width:1.41;stroke-linecap:round;stroke-linejoin:round;stroke:rgb(0%,0%,0%);stroke-opacity:1;stroke-miterlimit:10;" d="M 288.671875 83.859375 L 289.199219 84.039062 L 289.921875 84.109375 L 290.671875 84.109375 L 291.238281 84.070312 L 291.859375 84.171875 " transform="matrix(1,0,0,-1,0,114.75)"/>
<path style="fill:none;stroke-width:1.41;stroke-linecap:round;stroke-linejoin:round;stroke:rgb(0%,0%,0%);stroke-opacity:1;stroke-miterlimit:10;" d="M 295.921875 86.070312 L 296.109375 85.921875 L 296.609375 85.890625 L 297.238281 85.859375 L 297.828125 85.890625 L 298.269531 85.921875 L 298.578125 85.949219 L 298.890625 85.980469 L 299.140625 85.980469 " transform="matrix(1,0,0,-1,0,114.75)"/>
<path style="fill:none;stroke-width:1.41;stroke-linecap:round;stroke-linejoin:round;stroke:rgb(0%,0%,0%);stroke-opacity:1;stroke-miterlimit:10;" d="M 296.671875 83.289062 L 297.300781 83.421875 L 298.019531 83.539062 L 298.828125 83.699219 L 299.328125 83.730469 L 299.640625 83.761719 " transform="matrix(1,0,0,-1,0,114.75)"/>
<path style="fill:none;stroke-width:1.41;stroke-linecap:round;stroke-linejoin:round;stroke:rgb(0%,0%,0%);stroke-opacity:1;stroke-miterlimit:10;" d="M 303.949219 86.640625 L 303.890625 85.789062 L 304.019531 84.449219 L 304.140625 82.671875 L 304.238281 81.109375 L 304.328125 79.949219 L 304.359375 79.289062 L 304.359375 79.011719 L 304.300781 78.570312 " transform="matrix(1,0,0,-1,0,114.75)"/>
<path style="fill:none;stroke-width:1.41;stroke-linecap:round;stroke-linejoin:round;stroke:rgb(0%,0%,0%);stroke-opacity:1;stroke-miterlimit:10;" d="M 304.199219 86.140625 L 304.359375 86.480469 L 304.578125 86.761719 L 305.078125 86.980469 L 305.769531 87.109375 L 306.640625 86.921875 L 307.488281 86.421875 L 308.050781 85.539062 L 308.199219 84.261719 L 307.890625 83.070312 L 307.269531 82.171875 L 306.421875 81.730469 L 305.769531 81.699219 L 305.300781 81.949219 L 305.050781 82.261719 L 305.019531 82.570312 " transform="matrix(1,0,0,-1,0,114.75)"/>
<path style="fill:none;stroke-width:1.41;stroke-linecap:round;stroke-linejoin:round;stroke:rgb(0%,0%,0%);stroke-opacity:1;stroke-miterlimit:10;" d="M 311.269531 86.609375 L 311.390625 86.789062 L 311.449219 87.140625 L 311.769531 87.199219 L 312.109375 87.199219 L 311.859375 87.011719 L 311.550781 86.980469 L 311.199219 87.070312 L 310.949219 87.261719 L 310.890625 87.480469 L 311.171875 87.609375 " transform="matrix(1,0,0,-1,0,114.75)"/>
<path style="fill:none;stroke-width:1.41;stroke-linecap:round;stroke-linejoin:round;stroke:rgb(0%,0%,0%);stroke-opacity:1;stroke-miterlimit:10;" d="M 311.550781 83.109375 L 311.699219 82.890625 L 311.949219 82.789062 L 312.199219 82.539062 L 312.328125 82.261719 L 312.269531 82.011719 L 312.050781 81.949219 L 312.421875 82.171875 L 312.769531 82.171875 L 312.550781 81.949219 L 312.300781 81.890625 L 312.109375 82.011719 " transform="matrix(1,0,0,-1,0,114.75)"/>
<path style="fill:none;stroke-width:1.41;stroke-linecap:round;stroke-linejoin:round;stroke:rgb(0%,0%,0%);stroke-opacity:1;stroke-miterlimit:10;" d="M 316.578125 82.140625 L 316.578125 82.480469 L 316.699219 82.949219 L 316.859375 83.539062 L 317.050781 84.171875 L 317.199219 84.859375 L 317.421875 85.609375 L 317.738281 86.921875 L 318.078125 88.359375 L 318.421875 89.671875 L 318.738281 90.859375 L 318.859375 91.359375 L 319.199219 91.039062 L 319.421875 90.320312 L 319.769531 89.199219 L 320.050781 88.039062 L 320.421875 86.570312 L 320.828125 84.980469 L 321.238281 83.609375 L 321.578125 82.359375 L 321.800781 81.609375 L 321.890625 81.359375 " transform="matrix(1,0,0,-1,0,114.75)"/>
<path style="fill:none;stroke-width:1.41;stroke-linecap:round;stroke-linejoin:round;stroke:rgb(0%,0%,0%);stroke-opacity:1;stroke-miterlimit:10;" d="M 318.078125 84.570312 L 318.199219 84.761719 L 318.671875 84.671875 L 319.269531 84.640625 L 319.699219 84.539062 L 320.109375 84.539062 L 320.488281 84.730469 " transform="matrix(1,0,0,-1,0,114.75)"/>
<path style="fill:none;stroke-width:2.26;stroke-linecap:round;stroke-linejoin:round;stroke:rgb(19.999695%,19.999695%,79.998779%);stroke-opacity:1;stroke-miterlimit:10;" d="M 255.660156 61.378906 L 255.910156 61.808594 L 256.160156 62.378906 L 256.691406 63.28125 L 257.410156 64.46875 L 258.539062 65.53125 L 259.539062 66.308594 L 260.410156 66.71875 L 261.160156 66.71875 L 261.691406 66.46875 L 262.351562 65.941406 L 263.128906 65.089844 L 264.070312 63.96875 L 265.070312 62.910156 L 266.160156 62.21875 L 267.410156 62.089844 L 268.601562 62.558594 L 269.539062 63.378906 L 270.128906 64.441406 L 270.351562 65.351562 L 270.410156 66.058594 L 270.378906 66.628906 L 270.289062 66.910156 " transform="matrix(1,0,0,-1,0,114.75)"/>
<path style="fill:none;stroke-width:2.26;stroke-linecap:round;stroke-linejoin:round;stroke:rgb(19.999695%,19.999695%,79.998779%);stroke-opacity:1;stroke-miterlimit:10;" d="M 257.410156 56.21875 L 257.46875 56.78125 L 257.820312 57.53125 L 258.539062 58.5 L 259.289062 59.351562 L 260.191406 59.910156 L 261.070312 60.160156 L 261.761719 59.941406 L 262.539062 59.5 L 263.289062 58.78125 L 263.941406 58.03125 L 264.71875 57.191406 L 265.351562 56.46875 L 265.910156 56.03125 L 266.601562 55.78125 L 267.351562 55.808594 L 267.941406 55.96875 L 268.601562 56.28125 L 269.21875 56.808594 L 269.75 57.46875 L 270.191406 58.128906 L 270.46875 58.691406 L 270.570312 59.03125 L 270.539062 59.28125 " transform="matrix(1,0,0,-1,0,114.75)"/>
<path style="fill:none;stroke-width:1.41;stroke-linecap:round;stroke-linejoin:round;stroke:rgb(0%,0%,0%);stroke-opacity:1;stroke-miterlimit:10;" d="M 183.671875 49.910156 L 183.671875 50.171875 L 183.761719 49.511719 L 183.578125 48.460938 L 183.398438 47.179688 L 183.21875 46.21875 L 183.488281 45.640625 L 184.390625 45.25 L 185.648438 45.03125 L 186.898438 44.898438 L 187.980469 44.808594 L 188.519531 44.808594 " transform="matrix(1,0,0,-1,0,114.75)"/>
<path style="fill:none;stroke-width:1.41;stroke-linecap:round;stroke-linejoin:round;stroke:rgb(0%,0%,0%);stroke-opacity:1;stroke-miterlimit:10;" d="M 184.929688 46 L 185.019531 46.261719 L 185.738281 46.738281 L 186.71875 47.449219 L 187.890625 48.191406 L 189.238281 49.070312 L 190.230469 49.691406 L 191.128906 50.261719 L 192.019531 50.789062 L 192.648438 51.269531 L 193.371094 51.75 L 194 52.28125 L 194.628906 52.71875 L 195.171875 53.109375 L 195.800781 53.601562 L 196.519531 54.128906 L 197.148438 54.648438 L 197.949219 55.179688 L 198.398438 55.398438 L 198.671875 55.53125 L 199.03125 55.710938 L 199.300781 55.929688 L 199.390625 56.191406 " transform="matrix(1,0,0,-1,0,114.75)"/>
<path style="fill:none;stroke-width:1.41;stroke-linecap:round;stroke-linejoin:round;stroke:rgb(0%,0%,0%);stroke-opacity:1;stroke-miterlimit:10;" d="M 184.03125 76.050781 L 184.300781 75.828125 L 184.210938 76.710938 L 184.121094 77.769531 L 184.03125 79.039062 L 183.941406 80.140625 L 183.941406 80.839844 L 183.851562 81.28125 L 184.210938 81.550781 L 184.839844 81.460938 L 186.011719 81.238281 L 187.351562 81.019531 L 188.429688 80.890625 L 189.328125 80.800781 L 190.050781 80.800781 " transform="matrix(1,0,0,-1,0,114.75)"/>
<path style="fill:none;stroke-width:1.41;stroke-linecap:round;stroke-linejoin:round;stroke:rgb(0%,0%,0%);stroke-opacity:1;stroke-miterlimit:10;" d="M 184.839844 81.019531 L 184.660156 80.839844 L 184.929688 80.449219 L 185.558594 79.75 L 186.808594 78.601562 L 188.339844 77.238281 L 189.960938 75.75 L 191.671875 74.160156 L 193.101562 72.761719 L 194.269531 71.53125 L 195.441406 70.390625 L 196.429688 69.550781 L 197.328125 68.800781 L 198.21875 68.230469 L 198.851562 67.789062 L 199.480469 67.398438 L 200.019531 67.089844 L 200.289062 66.871094 L 200.558594 66.648438 L 201.011719 66.339844 L 201.191406 66.121094 L 201.371094 65.808594 " transform="matrix(1,0,0,-1,0,114.75)"/>
<path style="fill:none;stroke-width:1.41;stroke-linecap:round;stroke-linejoin:round;stroke:rgb(0%,0%,0%);stroke-opacity:1;stroke-miterlimit:10;" d="M 219.699219 64.058594 L 218.980469 63.488281 L 217.988281 62.871094 L 216.820312 62.171875 L 215.828125 61.640625 L 215.378906 61.25 L 215.289062 60.898438 L 215.738281 60.28125 L 216.640625 59.449219 L 217.808594 58.519531 L 219.070312 57.558594 L 220.058594 56.808594 L 220.769531 56.28125 L 221.039062 56.019531 L 220.859375 56.28125 " transform="matrix(1,0,0,-1,0,114.75)"/>
<path style="fill:none;stroke-width:1.41;stroke-linecap:round;stroke-linejoin:round;stroke:rgb(0%,0%,0%);stroke-opacity:1;stroke-miterlimit:10;" d="M 216.550781 60.808594 L 216.640625 61.03125 L 217 61.25 L 217.628906 61.25 L 218.441406 61.289062 L 219.339844 61.289062 L 220.421875 61.339844 L 221.398438 61.421875 L 222.570312 61.550781 L 223.828125 61.691406 L 225.089844 61.769531 L 226.171875 61.769531 L 227.421875 61.730469 L 228.679688 61.730469 L 230.03125 61.691406 L 231.558594 61.691406 L 232.898438 61.601562 L 233.980469 61.550781 L 236.050781 61.550781 L 236.859375 61.511719 L 237.761719 61.46875 L 238.558594 61.339844 L 239.101562 61.289062 L 239.550781 61.25 L 239.910156 61.199219 L 240.179688 61.160156 " transform="matrix(1,0,0,-1,0,114.75)"/>
<path style="fill:none;stroke-width:1.41;stroke-linecap:round;stroke-linejoin:round;stroke:rgb(0%,0%,0%);stroke-opacity:1;stroke-miterlimit:10;" d="M 197.859375 46.390625 L 198.039062 46.089844 L 198.128906 44.988281 L 198.21875 43.449219 L 198.21875 39.539062 L 198.128906 39.230469 " transform="matrix(1,0,0,-1,0,114.75)"/>
<path style="fill:none;stroke-width:1.41;stroke-linecap:round;stroke-linejoin:round;stroke:rgb(0%,0%,0%);stroke-opacity:1;stroke-miterlimit:10;" d="M 198.578125 45.429688 L 198.488281 45.730469 L 198.671875 46.089844 L 199.121094 46.390625 L 199.929688 46.53125 L 200.828125 46.660156 L 201.910156 46.441406 L 202.539062 45.78125 L 202.628906 44.898438 L 202.269531 43.929688 L 201.371094 43.230469 L 200.46875 42.921875 L 200.019531 42.828125 L 200.828125 42.75 L 201.820312 42.441406 L 202.539062 42.039062 L 203.078125 41.378906 L 203.171875 40.589844 L 203.078125 39.800781 L 202.71875 39.050781 L 202.179688 38.441406 L 201.460938 38.128906 L 200.648438 38.089844 L 199.839844 38.308594 L 199.300781 38.660156 L 198.941406 39.011719 L 198.941406 39.359375 " transform="matrix(1,0,0,-1,0,114.75)"/>
<path style="fill:none;stroke-width:1.41;stroke-linecap:round;stroke-linejoin:round;stroke:rgb(0%,0%,0%);stroke-opacity:1;stroke-miterlimit:10;" d="M 206.761719 43.980469 L 207.390625 43.890625 L 208.019531 43.710938 L 209.089844 43.578125 L 209.898438 43.488281 L 210.53125 43.410156 L 211.070312 43.359375 " transform="matrix(1,0,0,-1,0,114.75)"/>
<path style="fill:none;stroke-width:1.41;stroke-linecap:round;stroke-linejoin:round;stroke:rgb(0%,0%,0%);stroke-opacity:1;stroke-miterlimit:10;" d="M 207.390625 41.871094 L 207.300781 41.601562 L 207.480469 41.300781 L 208.199219 40.941406 L 209.179688 40.71875 L 210.078125 40.679688 L 211.25 40.679688 " transform="matrix(1,0,0,-1,0,114.75)"/>
<path style="fill:none;stroke-width:1.41;stroke-linecap:round;stroke-linejoin:round;stroke:rgb(0%,0%,0%);stroke-opacity:1;stroke-miterlimit:10;" d="M 218.261719 43.320312 L 218.53125 43.449219 L 218.441406 43.671875 L 218.261719 43.929688 L 217.808594 44.199219 L 217.089844 44.148438 L 216.460938 43.671875 L 215.921875 42.660156 L 215.828125 41.519531 L 216.011719 40.589844 L 216.550781 39.980469 L 217.269531 40.019531 L 217.898438 40.460938 L 218.53125 41.078125 L 218.890625 41.691406 L 219.070312 42.039062 L 218.980469 41.210938 L 218.800781 40.109375 L 218.621094 38.621094 L 218.351562 37.300781 L 218.171875 35.980469 L 218.351562 34.921875 L 218.890625 34.21875 L 219.609375 33.738281 L 220.421875 33.871094 L 221.039062 34.308594 L 221.308594 34.839844 L 221.488281 35.410156 L 221.308594 35.800781 L 221.128906 36.109375 L 221.039062 36.328125 L 220.769531 36.589844 L 220.421875 36.769531 L 220.148438 36.988281 L 219.699219 37.210938 L 219.339844 37.339844 L 218.980469 37.429688 L 219.339844 37.78125 L 220.058594 38 L 220.859375 38.308594 L 221.578125 38.621094 L 222.03125 38.96875 L 222.121094 39.191406 L 222.121094 39.671875 " transform="matrix(1,0,0,-1,0,114.75)"/>
<path style="fill:none;stroke-width:1.41;stroke-linecap:round;stroke-linejoin:round;stroke:rgb(0%,0%,0%);stroke-opacity:1;stroke-miterlimit:10;" d="M 224.550781 43.628906 L 224.191406 43.710938 L 224.460938 43.628906 L 224.101562 43.628906 L 223.738281 43.800781 L 223.738281 44.058594 L 224.101562 44.148438 L 224.371094 44.058594 L 224.820312 43.800781 " transform="matrix(1,0,0,-1,0,114.75)"/>
<path style="fill:none;stroke-width:1.41;stroke-linecap:round;stroke-linejoin:round;stroke:rgb(0%,0%,0%);stroke-opacity:1;stroke-miterlimit:10;" d="M 225 39.929688 L 225.179688 39.761719 L 225.359375 39.488281 L 225.269531 39.191406 L 225 38.839844 L 224.640625 38.660156 L 224.371094 38.75 L 224.371094 39.050781 L 224.460938 39.269531 L 224.730469 39.449219 " transform="matrix(1,0,0,-1,0,114.75)"/>
<path style="fill:none;stroke-width:1.41;stroke-linecap:round;stroke-linejoin:round;stroke:rgb(0%,0%,0%);stroke-opacity:1;stroke-miterlimit:10;" d="M 230.300781 46.308594 L 230.03125 45.820312 L 230.03125 42.480469 L 229.941406 40.640625 L 229.851562 38.921875 L 229.761719 38.398438 " transform="matrix(1,0,0,-1,0,114.75)"/>
<path style="fill:none;stroke-width:1.41;stroke-linecap:round;stroke-linejoin:round;stroke:rgb(0%,0%,0%);stroke-opacity:1;stroke-miterlimit:10;" d="M 229.761719 46.609375 L 230.121094 47.179688 L 230.839844 47.710938 L 232 48.019531 L 233.351562 48.019531 L 234.429688 47.398438 L 234.789062 46.390625 L 234.519531 45.25 L 233.621094 44.328125 L 232.539062 43.710938 L 231.828125 43.449219 L 232.179688 43.359375 L 232.988281 43.269531 L 233.890625 43.101562 L 234.519531 42.789062 L 234.878906 42.128906 L 235.148438 41.429688 L 235.328125 40.679688 L 235.238281 39.710938 L 234.699219 38.921875 L 233.800781 38.21875 L 232.628906 37.78125 L 231.648438 37.78125 L 230.929688 38.039062 L 230.480469 38.308594 " transform="matrix(1,0,0,-1,0,114.75)"/>
<path style="fill:none;stroke-width:1.41;stroke-linecap:round;stroke-linejoin:round;stroke:rgb(0%,0%,0%);stroke-opacity:1;stroke-miterlimit:10;" d="M 313.398438 67 L 313.21875 67.179688 L 313.128906 67.398438 L 313.039062 67.660156 L 312.769531 68.191406 L 312.328125 68.929688 L 311.699219 69.730469 L 310.980469 70.648438 L 310.078125 71.480469 L 309.179688 72.101562 L 308.101562 72.710938 L 306.578125 73.148438 L 304.960938 73.371094 L 302.980469 73.371094 L 301.089844 73.328125 L 299.570312 73.148438 L 298.398438 72.929688 L 297.320312 72.710938 L 296.601562 72.410156 L 295.789062 72.050781 L 294.898438 71.621094 L 294 71.039062 L 293.28125 70.429688 L 292.46875 69.730469 L 291.839844 69.019531 L 291.300781 68.359375 L 290.851562 67.839844 L 290.671875 67.53125 L 290.578125 67.308594 " transform="matrix(1,0,0,-1,0,114.75)"/>
<path style="fill:none;stroke-width:1.41;stroke-linecap:round;stroke-linejoin:round;stroke:rgb(0%,0%,0%);stroke-opacity:1;stroke-miterlimit:10;" d="M 288.699219 72.140625 L 288.519531 71.660156 L 288.519531 70.820312 L 288.429688 69.679688 L 288.339844 68.230469 L 288.339844 65.988281 L 288.519531 65.378906 L 289.058594 65.238281 L 289.859375 65.460938 L 291.03125 65.898438 L 292.019531 66.339844 L 292.828125 66.738281 L 293.460938 66.871094 L 293.730469 66.960938 L 294 66.871094 " transform="matrix(1,0,0,-1,0,114.75)"/>
<path style="fill:none;stroke-width:1.41;stroke-linecap:round;stroke-linejoin:round;stroke:rgb(0%,0%,0%);stroke-opacity:1;stroke-miterlimit:10;" d="M 316.910156 53.550781 L 316.550781 53.328125 L 316.191406 52.71875 L 315.378906 51.660156 L 314.300781 50.519531 L 312.949219 49.421875 L 311.339844 48.410156 L 309.539062 47.710938 L 307.828125 47.308594 L 306.039062 47.179688 L 304.421875 47.269531 L 302.890625 47.398438 L 301.089844 47.621094 L 299.390625 47.75 L 297.769531 47.96875 L 296.328125 48.238281 L 295.339844 48.761719 L 294.539062 49.46875 L 293.910156 50.210938 L 293.101562 51.011719 L 292.46875 51.710938 L 291.839844 52.410156 L 291.03125 53.199219 L 290.21875 53.910156 L 289.589844 54.429688 L 289.058594 54.78125 L 288.878906 54.519531 L 288.878906 53.691406 L 288.96875 52.371094 L 289.058594 50.871094 L 288.96875 49.46875 L 288.878906 48.589844 L 288.789062 48.191406 L 288.699219 48.589844 L 288.699219 49.121094 L 288.789062 49.691406 L 288.789062 50.300781 L 288.878906 51.011719 L 288.878906 51.710938 L 288.96875 52.5 L 288.96875 53.160156 L 289.058594 53.769531 L 289.058594 54.210938 L 289.148438 54.429688 L 289.421875 54.648438 L 290.039062 54.558594 L 291.03125 54.519531 L 292.289062 54.429688 L 293.550781 54.480469 L 294.359375 54.609375 L 294.808594 54.738281 " transform="matrix(1,0,0,-1,0,114.75)"/>
<path style="fill:none;stroke-width:1.41;stroke-linecap:round;stroke-linejoin:round;stroke:rgb(0%,0%,0%);stroke-opacity:1;stroke-miterlimit:10;" d="M 329.488281 64.101562 L 329.21875 63.75 L 328.5 63.128906 L 327.601562 62.390625 L 326.699219 61.679688 L 325.980469 61.160156 L 325.441406 60.71875 L 324.988281 60.371094 L 324.808594 60.148438 L 324.898438 59.929688 L 325.351562 59.660156 L 326.339844 59.308594 L 327.328125 58.828125 L 328.140625 58.390625 L 328.769531 58.078125 L 329.039062 57.949219 " transform="matrix(1,0,0,-1,0,114.75)"/>
<path style="fill:none;stroke-width:1.41;stroke-linecap:round;stroke-linejoin:round;stroke:rgb(0%,0%,0%);stroke-opacity:1;stroke-miterlimit:10;" d="M 325.710938 61.238281 L 326.070312 61.328125 L 326.96875 61.421875 L 327.871094 61.460938 L 328.769531 61.550781 L 330.921875 61.550781 L 332.269531 61.460938 L 335.058594 61.460938 L 336.128906 61.550781 L 337.839844 61.679688 L 339.550781 61.820312 L 340.988281 61.898438 L 342.328125 61.988281 L 343.140625 61.898438 L 343.949219 61.898438 L 345.210938 62.039062 L 346.648438 62.210938 L 347.898438 62.339844 L 348.980469 62.46875 L 349.429688 62.519531 L 349.699219 62.519531 " transform="matrix(1,0,0,-1,0,114.75)"/>
<path style="fill:none;stroke-width:1.41;stroke-linecap:round;stroke-linejoin:round;stroke:rgb(0%,0%,0%);stroke-opacity:1;stroke-miterlimit:10;" d="M 284.558594 43.050781 L 284.738281 42.75 L 284.828125 41.648438 L 284.921875 40.109375 L 284.921875 36.199219 L 284.828125 35.890625 " transform="matrix(1,0,0,-1,0,114.75)"/>
<path style="fill:none;stroke-width:1.41;stroke-linecap:round;stroke-linejoin:round;stroke:rgb(0%,0%,0%);stroke-opacity:1;stroke-miterlimit:10;" d="M 285.28125 42.089844 L 285.191406 42.390625 L 285.371094 42.75 L 285.820312 43.050781 L 286.628906 43.191406 L 287.53125 43.320312 L 288.609375 43.101562 L 289.238281 42.441406 L 289.328125 41.558594 L 288.96875 40.589844 L 288.070312 39.890625 L 287.171875 39.578125 L 286.71875 39.488281 L 287.53125 39.410156 L 288.519531 39.101562 L 289.238281 38.699219 L 289.769531 38.039062 L 289.859375 37.25 L 289.769531 36.460938 L 289.421875 35.71875 L 288.878906 35.101562 L 288.160156 34.789062 L 287.351562 34.75 L 286.539062 34.96875 L 286 35.320312 L 285.640625 35.671875 L 285.640625 36.019531 " transform="matrix(1,0,0,-1,0,114.75)"/>
<path style="fill:none;stroke-width:1.41;stroke-linecap:round;stroke-linejoin:round;stroke:rgb(0%,0%,0%);stroke-opacity:1;stroke-miterlimit:10;" d="M 293.460938 40.640625 L 294.089844 40.550781 L 294.71875 40.371094 L 295.789062 40.238281 L 296.601562 40.148438 L 297.230469 40.070312 L 297.769531 40.019531 " transform="matrix(1,0,0,-1,0,114.75)"/>
<path style="fill:none;stroke-width:1.41;stroke-linecap:round;stroke-linejoin:round;stroke:rgb(0%,0%,0%);stroke-opacity:1;stroke-miterlimit:10;" d="M 294.089844 38.53125 L 294 38.261719 L 294.179688 37.960938 L 294.898438 37.601562 L 295.878906 37.390625 L 296.78125 37.339844 L 297.949219 37.339844 " transform="matrix(1,0,0,-1,0,114.75)"/>
<path style="fill:none;stroke-width:1.41;stroke-linecap:round;stroke-linejoin:round;stroke:rgb(0%,0%,0%);stroke-opacity:1;stroke-miterlimit:10;" d="M 304.960938 39.980469 L 305.230469 40.109375 L 305.140625 40.328125 L 304.960938 40.589844 L 304.511719 40.859375 L 303.789062 40.808594 L 303.160156 40.328125 L 302.621094 39.320312 L 302.53125 38.179688 L 302.710938 37.25 L 303.25 36.640625 L 303.96875 36.679688 L 304.601562 37.121094 L 305.230469 37.738281 L 305.589844 38.351562 L 305.769531 38.699219 L 305.679688 37.871094 L 305.5 36.769531 L 305.320312 35.28125 L 305.050781 33.960938 L 304.871094 32.640625 L 305.050781 31.578125 L 305.589844 30.878906 L 306.308594 30.398438 L 307.109375 30.53125 L 307.738281 30.96875 L 308.011719 31.5 L 308.191406 32.070312 L 308.011719 32.460938 L 307.828125 32.769531 L 307.738281 32.988281 L 307.46875 33.25 L 307.109375 33.429688 L 306.839844 33.648438 L 306.398438 33.871094 L 306.039062 34 L 305.679688 34.089844 L 306.039062 34.441406 L 306.761719 34.660156 L 307.558594 34.96875 L 308.28125 35.28125 L 308.730469 35.628906 L 308.820312 35.851562 L 308.820312 36.328125 " transform="matrix(1,0,0,-1,0,114.75)"/>
<path style="fill:none;stroke-width:1.41;stroke-linecap:round;stroke-linejoin:round;stroke:rgb(0%,0%,0%);stroke-opacity:1;stroke-miterlimit:10;" d="M 311.25 40.289062 L 310.890625 40.371094 L 311.160156 40.289062 L 310.800781 40.289062 L 310.441406 40.460938 L 310.441406 40.71875 L 310.800781 40.808594 L 311.070312 40.71875 L 311.519531 40.460938 " transform="matrix(1,0,0,-1,0,114.75)"/>
<path style="fill:none;stroke-width:1.41;stroke-linecap:round;stroke-linejoin:round;stroke:rgb(0%,0%,0%);stroke-opacity:1;stroke-miterlimit:10;" d="M 311.699219 36.589844 L 311.878906 36.421875 L 312.058594 36.148438 L 311.96875 35.851562 L 311.699219 35.5 L 311.339844 35.320312 L 311.070312 35.410156 L 311.070312 35.71875 L 311.160156 35.929688 L 311.429688 36.109375 " transform="matrix(1,0,0,-1,0,114.75)"/>
<path style="fill:none;stroke-width:1.41;stroke-linecap:round;stroke-linejoin:round;stroke:rgb(0%,0%,0%);stroke-opacity:1;stroke-miterlimit:10;" d="M 317 42.96875 L 316.730469 42.480469 L 316.730469 39.140625 L 316.640625 37.300781 L 316.550781 35.578125 L 316.460938 35.058594 " transform="matrix(1,0,0,-1,0,114.75)"/>
<path style="fill:none;stroke-width:1.41;stroke-linecap:round;stroke-linejoin:round;stroke:rgb(0%,0%,0%);stroke-opacity:1;stroke-miterlimit:10;" d="M 316.460938 43.269531 L 316.820312 43.851562 L 317.539062 44.371094 L 318.699219 44.679688 L 320.050781 44.679688 L 321.128906 44.058594 L 321.488281 43.050781 L 321.21875 41.910156 L 320.320312 40.988281 L 319.238281 40.371094 L 318.519531 40.109375 L 318.878906 40.019531 L 319.691406 39.929688 L 320.589844 39.761719 L 321.21875 39.449219 L 321.578125 38.789062 L 321.851562 38.089844 L 322.03125 37.339844 L 321.941406 36.371094 L 321.398438 35.578125 L 320.5 34.878906 L 319.328125 34.441406 L 318.339844 34.441406 L 317.628906 34.699219 L 317.179688 34.96875 " transform="matrix(1,0,0,-1,0,114.75)"/>
</g>
</svg>
