<?xml version="1.0" encoding="UTF-8"?>
<svg xmlns="http://www.w3.org/2000/svg" xmlns:xlink="http://www.w3.org/1999/xlink" width="215.99pt" height="84.94pt" viewBox="0 0 215.99 84.94" version="1.1">
<g id="surface1">
<path style="fill:none;stroke-width:2.26;stroke-linecap:round;stroke-linejoin:round;stroke:rgb(0%,0%,0%);stroke-opacity:1;stroke-miterlimit:10;" d="M 27.988281 68.541563 L 27.539062 58.779844 " transform="matrix(1,0,0,-1,0,84.94)"/>
<path style="fill:none;stroke-width:2.26;stroke-linecap:round;stroke-linejoin:round;stroke:rgb(0%,0%,0%);stroke-opacity:1;stroke-miterlimit:10;" d="M 26.191406 38.22125 L 26.101562 28.459531 " transform="matrix(1,0,0,-1,0,84.94)"/>
<path style="fill:none;stroke-width:2.26;stroke-linecap:round;stroke-linejoin:round;stroke:rgb(0%,0%,0%);stroke-opacity:1;stroke-miterlimit:10;" d="M 26.191406 28.459531 L 31.359375 28.381406 L 36.519531 28.291563 L 41.691406 28.209531 L 46.859375 28.131406 L 52.019531 28.041563 L 57.191406 27.959531 L 62.351562 27.881406 L 67.519531 27.791563 L 72.691406 27.709531 L 77.851562 27.619688 " transform="matrix(1,0,0,-1,0,84.94)"/>
<path style="fill:none;stroke-width:2.26;stroke-linecap:round;stroke-linejoin:round;stroke:rgb(0%,0%,0%);stroke-opacity:1;stroke-miterlimit:10;" d="M 77.941406 27.979063 L 78.300781 35.451719 " transform="matrix(1,0,0,-1,0,84.94)"/>
<path style="fill:none;stroke-width:2.26;stroke-linecap:round;stroke-linejoin:round;stroke:rgb(0%,0%,0%);stroke-opacity:1;stroke-miterlimit:10;" d="M 75.789062 59.22125 L 75.789062 67.920469 " transform="matrix(1,0,0,-1,0,84.94)"/>
<path style="fill:none;stroke-width:2.26;stroke-linecap:round;stroke-linejoin:round;stroke:rgb(0%,0%,0%);stroke-opacity:1;stroke-miterlimit:10;" d="M 75.960938 67.881406 L 70.699219 67.920469 L 65.441406 67.959531 L 60.179688 67.998594 L 54.921875 68.029844 L 49.660156 68.068906 L 44.398438 68.111875 L 39.140625 68.150938 L 33.878906 68.19 L 28.621094 68.229063 " transform="matrix(1,0,0,-1,0,84.94)"/>
<path style="fill:none;stroke-width:2.26;stroke-linecap:round;stroke-linejoin:round;stroke:rgb(0%,0%,0%);stroke-opacity:1;stroke-miterlimit:10;" d="M 27.449219 58.47125 L 33.648438 58.47125 " transform="matrix(1,0,0,-1,0,84.94)"/>
<path style="fill:none;stroke-width:2.26;stroke-linecap:round;stroke-linejoin:round;stroke:rgb(0%,0%,0%);stroke-opacity:1;stroke-miterlimit:10;" d="M 33.46875 58.029844 L 33.410156 51.549375 L 33.351562 45.061094 L 33.289062 38.568906 " transform="matrix(1,0,0,-1,0,84.94)"/>
<path style="fill:none;stroke-width:2.26;stroke-linecap:round;stroke-linejoin:round;stroke:rgb(0%,0%,0%);stroke-opacity:1;stroke-miterlimit:10;" d="M 33.289062 38.701719 L 26.371094 38.959531 " transform="matrix(1,0,0,-1,0,84.94)"/>
<path style="fill:none;stroke-width:2.26;stroke-linecap:round;stroke-linejoin:round;stroke:rgb(0%,0%,0%);stroke-opacity:1;stroke-miterlimit:10;" d="M 77.21875 59.568906 L 81.890625 59.131406 " transform="matrix(1,0,0,-1,0,84.94)"/>
<path style="fill:none;stroke-width:2.26;stroke-linecap:round;stroke-linejoin:round;stroke:rgb(0%,0%,0%);stroke-opacity:1;stroke-miterlimit:10;" d="M 82.429688 59.131406 L 82.609375 53.678281 L 82.789062 48.240781 L 82.96875 42.791563 L 83.148438 37.338438 " transform="matrix(1,0,0,-1,0,84.94)"/>
<path style="fill:none;stroke-width:2.26;stroke-linecap:round;stroke-linejoin:round;stroke:rgb(0%,0%,0%);stroke-opacity:1;stroke-miterlimit:10;" d="M 83.328125 37.201719 L 78.121094 36.549375 " transform="matrix(1,0,0,-1,0,84.94)"/>
<path style="fill:none;stroke-width:1.41;stroke-linecap:round;stroke-linejoin:round;stroke:rgb(0%,0%,0%);stroke-opacity:1;stroke-miterlimit:10;" d="M 37.238281 53.111875 L 37.328125 52.541563 L 37.328125 49.381406 L 37.148438 47.799375 L 36.96875 46.260313 L 36.699219 44.760313 L 36.429688 43.400938 L 36.25 42.959531 L 36.160156 42.650938 L 36.429688 42.920469 " transform="matrix(1,0,0,-1,0,84.94)"/>
<path style="fill:none;stroke-width:1.41;stroke-linecap:round;stroke-linejoin:round;stroke:rgb(0%,0%,0%);stroke-opacity:1;stroke-miterlimit:10;" d="M 37.960938 48.279844 L 38.410156 48.369688 L 38.769531 48.369688 L 39.308594 48.318906 L 40.03125 48.19 L 40.660156 48.018125 L 41.199219 47.838438 L 41.460938 47.709531 " transform="matrix(1,0,0,-1,0,84.94)"/>
<path style="fill:none;stroke-width:1.41;stroke-linecap:round;stroke-linejoin:round;stroke:rgb(0%,0%,0%);stroke-opacity:1;stroke-miterlimit:10;" d="M 41.730469 51.44 L 41.640625 51.65875 L 41.640625 51.139219 L 41.730469 50.740781 L 41.730469 49.768125 L 41.640625 48.240781 L 41.550781 46.209531 L 41.550781 44.279844 L 41.460938 43.049375 L 41.550781 42.791563 " transform="matrix(1,0,0,-1,0,84.94)"/>
<path style="fill:none;stroke-width:1.41;stroke-linecap:round;stroke-linejoin:round;stroke:rgb(0%,0%,0%);stroke-opacity:1;stroke-miterlimit:10;" d="M 71.289062 43.748594 L 71.199219 43.490781 L 71.289062 43.889219 L 71.378906 44.279844 L 71.828125 45.381406 L 72.371094 46.959531 L 73 48.900938 L 73.628906 51.088438 L 74.078125 52.498594 L 74.351562 53.330625 L 74.621094 53.111875 L 74.800781 52.40875 L 75.070312 51.490781 L 75.339844 50.350156 L 75.519531 49.248594 L 75.871094 47.838438 L 76.230469 46.479063 L 76.589844 45.291563 L 76.859375 44.498594 L 76.949219 44.150938 " transform="matrix(1,0,0,-1,0,84.94)"/>
<path style="fill:none;stroke-width:1.41;stroke-linecap:round;stroke-linejoin:round;stroke:rgb(0%,0%,0%);stroke-opacity:1;stroke-miterlimit:10;" d="M 73 46.568906 L 73.449219 46.650938 L 73.808594 46.568906 L 74.351562 46.518125 L 74.890625 46.428281 L 75.339844 46.428281 " transform="matrix(1,0,0,-1,0,84.94)"/>
<path style="fill:none;stroke-width:2.26;stroke-linecap:round;stroke-linejoin:round;stroke:rgb(0%,0%,0%);stroke-opacity:1;stroke-miterlimit:10;" d="M 52.960938 56.229063 L 52.699219 56.150938 L 52.609375 55.619688 L 52.519531 54.299375 L 52.339844 52.061094 L 52.070312 49.111875 L 51.800781 46.350156 L 51.710938 44.240781 L 51.621094 42.869688 L 51.53125 42.389219 L 51.53125 42.041563 " transform="matrix(1,0,0,-1,0,84.94)"/>
<path style="fill:none;stroke-width:2.26;stroke-linecap:round;stroke-linejoin:round;stroke:rgb(0%,0%,0%);stroke-opacity:1;stroke-miterlimit:10;" d="M 53.140625 57.068906 L 53.320312 57.459531 L 53.679688 57.768125 L 54.128906 58.119688 L 54.941406 58.209531 L 56.019531 58.209531 L 57.011719 57.768125 L 58.179688 57.029844 L 58.980469 56.010313 L 59.519531 54.869688 L 59.609375 53.69 L 59.25 52.451719 L 58.449219 51.268125 L 57.460938 50.260313 L 56.199219 49.420469 L 55.03125 48.979063 L 53.949219 48.900938 L 53.050781 49.068906 L 52.519531 49.420469 L 52.25 49.729063 " transform="matrix(1,0,0,-1,0,84.94)"/>
<path style="fill:none;stroke-width:2.26;stroke-linecap:round;stroke-linejoin:round;stroke:rgb(0%,0%,0%);stroke-opacity:1;stroke-miterlimit:10;" d="M 84.679688 50.080625 L 85.039062 50.080625 L 85.761719 50.131406 L 86.839844 50.209531 L 88.179688 50.350156 L 89.621094 50.518125 L 90.96875 50.701719 L 92.230469 50.740781 L 93.300781 50.650938 L 94.109375 50.518125 L 94.648438 50.389219 L 95.550781 50.080625 L 96.449219 49.768125 L 97.53125 49.330625 L 98.699219 48.588438 L 99.5 47.881406 L 100.128906 47.178281 L 100.761719 46.299375 L 101.300781 45.291563 L 101.839844 44.19 L 102.378906 42.869688 L 102.921875 41.47125 L 103.371094 40.150938 L 103.730469 38.740781 L 104 37.248594 L 104.089844 35.889219 L 104.089844 34.611875 L 103.910156 33.428281 L 103.730469 32.588438 L 103.460938 31.838438 L 103.28125 31.318906 L 103.011719 30.920469 L 102.738281 30.389219 L 102.378906 29.650938 L 102.019531 28.900938 L 101.570312 27.979063 L 101.03125 27.049375 L 100.488281 26.311094 L 99.769531 25.561094 L 99.230469 24.900938 L 98.609375 24.330625 L 97.980469 23.760313 L 97.441406 23.279844 L 96.808594 22.791563 L 96.359375 22.400938 L 95.910156 22.131406 L 95.640625 21.959531 L 95.191406 21.69 L 95.011719 21.518125 L 94.558594 21.209531 L 94.109375 20.900938 L 93.480469 20.588438 L 92.949219 20.330625 L 92.5 20.240781 L 92.050781 20.111875 L 91.78125 20.018125 L 91.511719 19.94 L 91.328125 20.111875 " transform="matrix(1,0,0,-1,0,84.94)"/>
<path style="fill:none;stroke-width:2.26;stroke-linecap:round;stroke-linejoin:round;stroke:rgb(0%,0%,0%);stroke-opacity:1;stroke-miterlimit:10;" d="M 33.109375 52.760313 L 32.75 52.850156 L 32.300781 53.029844 L 31.488281 53.248594 L 30.589844 53.549375 L 29.699219 53.768125 L 28.621094 53.90875 L 27.359375 53.951719 L 26.011719 53.90875 L 24.570312 53.639219 L 23.140625 53.291563 L 21.96875 52.850156 L 21.070312 52.498594 L 20.261719 52.061094 L 19.449219 51.490781 L 18.640625 50.869688 L 17.75 49.990781 L 16.851562 49.029844 L 15.949219 47.928281 L 15.050781 46.791563 L 14.238281 45.561094 L 13.609375 44.369688 L 13.25 43.049375 L 13.070312 41.561094 L 13.070312 40.018125 L 13.160156 38.44 L 13.160156 33.209531 L 13.25 31.268125 L 13.429688 29.600156 L 13.699219 28.018125 L 14.148438 26.44 L 14.78125 25.119688 L 15.320312 24.111875 L 15.949219 23.229063 L 16.398438 22.65875 L 16.851562 22.178281 L 17.660156 21.428281 L 18.550781 20.678281 L 19.628906 20.068906 L 20.890625 19.541563 L 22.148438 19.318906 L 23.320312 19.19 L 24.660156 19.061094 L 25.828125 18.97125 L 26.820312 18.920469 L 29.25 18.920469 L 29.699219 18.881406 L 29.960938 18.920469 " transform="matrix(1,0,0,-1,0,84.94)"/>
<path style="fill:none;stroke-width:2.26;stroke-linecap:round;stroke-linejoin:round;stroke:rgb(0%,0%,0%);stroke-opacity:1;stroke-miterlimit:10;" d="M 29.25 18.350156 L 34.378906 18.428281 L 39.519531 18.510313 L 44.648438 18.580625 L 49.789062 18.65875 L 54.929688 18.740781 L 60.058594 18.811094 L 65.199219 18.889219 L 70.328125 18.97125 L 75.46875 19.049375 L 80.609375 19.119688 L 85.738281 19.201719 L 90.878906 19.279844 " transform="matrix(1,0,0,-1,0,84.94)"/>
<path style="fill:none;stroke-width:2.26;stroke-linecap:round;stroke-linejoin:round;stroke:rgb(0%,0%,0%);stroke-opacity:1;stroke-miterlimit:10;" d="M 169.820312 62.47125 L 170 62.69 L 169.910156 63.131406 L 169.730469 63.350156 L 169.199219 63.44 L 168.75 63.049375 L 168.300781 62.47125 L 167.941406 61.729063 L 167.941406 60.760313 L 168.210938 59.928281 L 168.839844 59.268125 L 169.730469 58.90875 L 170.71875 58.90875 L 171.710938 59.400938 L 172.339844 60.19 L 172.519531 61.15875 L 172.429688 62.209531 L 171.980469 63.049375 L 171.261719 63.568906 L 170.359375 63.619688 L 169.460938 63.22125 L 168.839844 62.428281 L 168.390625 61.459531 L 168.660156 60.451719 L 169.289062 59.619688 L 170.089844 59.049375 L 170.898438 58.90875 L 171.621094 59.268125 L 171.980469 59.97125 L 172.070312 60.979063 L 171.800781 61.951719 L 171.261719 62.69 L 170.539062 63.088438 L 170 63.049375 L 169.550781 62.650938 L 169.378906 61.951719 L 169.730469 61.291563 L 170.359375 60.760313 L 171.078125 60.760313 L 171.621094 61.111875 L 171.800781 61.639219 L 171.710938 62.170469 L 171.171875 62.389219 L 170.71875 62.119688 L 170.269531 61.729063 L 170.089844 61.111875 L 170.179688 60.760313 L 170.449219 60.670469 L 170.898438 60.72125 L 171.261719 60.850156 L 171.078125 60.670469 L 170.808594 61.068906 L 170.898438 61.381406 L 171.078125 61.600156 " transform="matrix(1,0,0,-1,0,84.94)"/>
<path style="fill:none;stroke-width:1.41;stroke-linecap:round;stroke-linejoin:round;stroke:rgb(0%,0%,0%);stroke-opacity:1;stroke-miterlimit:10;" d="M 138.378906 72.580625 L 138.289062 71.830625 L 138.199219 70.209531 L 138.109375 67.838438 L 138.019531 65.549375 L 137.929688 63.920469 L 137.839844 62.830625 L 137.839844 62.170469 " transform="matrix(1,0,0,-1,0,84.94)"/>
<path style="fill:none;stroke-width:1.41;stroke-linecap:round;stroke-linejoin:round;stroke:rgb(0%,0%,0%);stroke-opacity:1;stroke-miterlimit:10;" d="M 138.378906 72.889219 L 138.738281 73.459531 L 139.460938 73.94 L 140.539062 73.990781 L 141.609375 73.549375 L 142.421875 72.850156 L 142.871094 71.791563 L 142.601562 70.740781 L 141.699219 69.900938 L 140.539062 69.369688 L 139.371094 69.291563 L 138.558594 69.369688 L 138.289062 69.678281 L 138.378906 69.951719 " transform="matrix(1,0,0,-1,0,84.94)"/>
<path style="fill:none;stroke-width:1.41;stroke-linecap:round;stroke-linejoin:round;stroke:rgb(0%,0%,0%);stroke-opacity:1;stroke-miterlimit:10;" d="M 126.519531 76.100156 L 126.429688 75.529844 L 126.339844 73.900938 L 126.160156 71.748594 L 126.070312 69.639219 L 125.980469 67.97125 L 125.890625 67.22125 " transform="matrix(1,0,0,-1,0,84.94)"/>
<path style="fill:none;stroke-width:1.41;stroke-linecap:round;stroke-linejoin:round;stroke:rgb(0%,0%,0%);stroke-opacity:1;stroke-miterlimit:10;" d="M 150.511719 67.920469 L 150.148438 67.701719 L 150.238281 67.920469 L 150.421875 68.40875 L 150.960938 69.951719 L 151.589844 72.100156 L 152.300781 74.381406 L 152.929688 76.541563 L 153.289062 77.459531 L 153.648438 77.330625 L 154.101562 76.139219 L 154.550781 74.740781 L 154.910156 73.240781 L 155.269531 71.830625 L 155.539062 70.818906 L 155.898438 69.811094 L 156.078125 69.018125 L 156.351562 68.490781 L 156.441406 68.279844 " transform="matrix(1,0,0,-1,0,84.94)"/>
<path style="fill:none;stroke-width:1.41;stroke-linecap:round;stroke-linejoin:round;stroke:rgb(0%,0%,0%);stroke-opacity:1;stroke-miterlimit:10;" d="M 152.210938 70.740781 L 151.859375 70.959531 L 151.859375 71.22125 L 152.121094 71.311094 L 152.390625 71.311094 L 153.199219 71.22125 L 154.011719 71.131406 L 154.820312 71.041563 L 155.539062 70.959531 L 155.808594 70.998594 L 155.988281 71.22125 " transform="matrix(1,0,0,-1,0,84.94)"/>
<path style="fill:none;stroke-width:1.41;stroke-linecap:round;stroke-linejoin:round;stroke:rgb(0%,0%,0%);stroke-opacity:1;stroke-miterlimit:10;" d="M 117.269531 76.619688 L 117.621094 76.799375 L 117.800781 76.010313 L 117.890625 74.779844 L 117.890625 68.061094 " transform="matrix(1,0,0,-1,0,84.94)"/>
<path style="fill:none;stroke-width:1.41;stroke-linecap:round;stroke-linejoin:round;stroke:rgb(0%,0%,0%);stroke-opacity:1;stroke-miterlimit:10;" d="M 118.429688 71.881406 L 118.789062 72.049375 L 119.511719 71.881406 L 120.589844 71.65875 L 121.761719 71.529844 L 122.660156 71.479063 L 123.289062 71.611875 L 123.730469 71.791563 L 124.089844 72.010313 L 124.359375 72.19 L 124.71875 72.318906 L 125.078125 72.451719 " transform="matrix(1,0,0,-1,0,84.94)"/>
<path style="fill:none;stroke-width:1.41;stroke-linecap:round;stroke-linejoin:round;stroke:rgb(0%,0%,0%);stroke-opacity:1;stroke-miterlimit:10;" d="M 129.121094 73.381406 L 129.300781 73.15875 L 129.660156 73.018125 L 130.289062 72.94 L 130.828125 72.979063 L 131.640625 73.018125 L 132.359375 73.068906 L 132.988281 73.111875 L 133.53125 73.15875 L 133.800781 73.201719 L 134.160156 73.240781 " transform="matrix(1,0,0,-1,0,84.94)"/>
<path style="fill:none;stroke-width:1.41;stroke-linecap:round;stroke-linejoin:round;stroke:rgb(0%,0%,0%);stroke-opacity:1;stroke-miterlimit:10;" d="M 128.859375 69.768125 L 128.589844 69.729063 L 129.210938 69.549375 L 130.019531 69.510313 L 131.011719 69.549375 L 131.910156 69.639219 L 132.449219 69.678281 L 132.71875 69.678281 L 133.078125 69.729063 " transform="matrix(1,0,0,-1,0,84.94)"/>
<path style="fill:none;stroke-width:1.41;stroke-linecap:round;stroke-linejoin:round;stroke:rgb(0%,0%,0%);stroke-opacity:1;stroke-miterlimit:10;" d="M 145.300781 74.869688 L 145.390625 75.131406 L 145.03125 75.178281 L 145.570312 74.998594 L 145.839844 74.779844 L 146.019531 74.611875 L 145.570312 74.869688 L 145.390625 75.088438 L 145.660156 75.178281 L 145.839844 74.998594 L 146.019531 74.650938 L 146.109375 74.428281 " transform="matrix(1,0,0,-1,0,84.94)"/>
<path style="fill:none;stroke-width:1.41;stroke-linecap:round;stroke-linejoin:round;stroke:rgb(0%,0%,0%);stroke-opacity:1;stroke-miterlimit:10;" d="M 144.761719 69.291563 L 145.03125 69.549375 L 145.300781 69.549375 L 145.570312 69.510313 L 145.210938 69.600156 L 145.121094 69.818906 L 145.300781 69.990781 L 145.660156 69.990781 L 146.109375 69.768125 L 146.289062 69.510313 L 146.109375 69.291563 L 145.839844 69.240781 L 145.570312 69.291563 L 145.660156 69.678281 " transform="matrix(1,0,0,-1,0,84.94)"/>
<path style="fill:none;stroke-width:1.41;stroke-linecap:round;stroke-linejoin:round;stroke:rgb(0%,0%,0%);stroke-opacity:1;stroke-miterlimit:10;" d="M 138.199219 16.90875 L 138.558594 17.041563 L 139.28125 17.170469 L 140.269531 17.299375 L 141.070312 17.428281 L 141.519531 17.479063 " transform="matrix(1,0,0,-1,0,84.94)"/>
<path style="fill:none;stroke-width:1.41;stroke-linecap:round;stroke-linejoin:round;stroke:rgb(0%,0%,0%);stroke-opacity:1;stroke-miterlimit:10;" d="M 138.921875 14.580625 L 139.371094 14.361875 L 140 14.139219 L 140.980469 14.088438 L 141.789062 14.088438 L 142.328125 14.139219 " transform="matrix(1,0,0,-1,0,84.94)"/>
<path style="fill:none;stroke-width:1.41;stroke-linecap:round;stroke-linejoin:round;stroke:rgb(0%,0%,0%);stroke-opacity:1;stroke-miterlimit:10;" d="M 151.320312 20.90875 L 150.960938 21.260313 L 150.148438 21.260313 L 148.980469 20.951719 L 147.71875 20.420469 L 146.640625 19.670469 L 146.460938 18.97125 L 147.089844 18.268125 L 148.078125 17.389219 L 148.980469 16.510313 L 149.160156 15.72125 L 148.621094 15.100156 L 147.808594 14.881406 L 147.269531 14.799375 L 147.628906 14.529844 L 148.621094 13.959531 L 149.519531 13.041563 L 150.058594 11.72125 L 149.789062 10.361875 L 149.25 8.998594 L 148.980469 7.72125 L 149.070312 6.97125 L 149.609375 6.529844 L 150.148438 6.361875 L 150.601562 6.451719 L 150.871094 6.619688 " transform="matrix(1,0,0,-1,0,84.94)"/>
<path style="fill:none;stroke-width:1.41;stroke-linecap:round;stroke-linejoin:round;stroke:rgb(0%,0%,0%);stroke-opacity:1;stroke-miterlimit:10;" d="M 155.089844 17.350156 L 155.089844 17.650938 L 155.089844 16.248594 L 155.179688 14.451719 L 155.179688 11.19 L 155.089844 10.451719 " transform="matrix(1,0,0,-1,0,84.94)"/>
<path style="fill:none;stroke-width:1.41;stroke-linecap:round;stroke-linejoin:round;stroke:rgb(0%,0%,0%);stroke-opacity:1;stroke-miterlimit:10;" d="M 155.179688 12.600156 L 155.359375 13.041563 L 156.261719 13.479063 L 157.429688 13.830625 L 158.410156 14.088438 L 159.398438 14.229063 L 159.761719 14.268125 " transform="matrix(1,0,0,-1,0,84.94)"/>
<path style="fill:none;stroke-width:1.41;stroke-linecap:round;stroke-linejoin:round;stroke:rgb(0%,0%,0%);stroke-opacity:1;stroke-miterlimit:10;" d="M 160.570312 18.361875 L 160.660156 17.568906 L 160.660156 15.588438 L 160.75 13.299375 L 160.75 9.650938 L 160.660156 9.260313 " transform="matrix(1,0,0,-1,0,84.94)"/>
<path style="fill:none;stroke-width:1.41;stroke-linecap:round;stroke-linejoin:round;stroke:rgb(0%,0%,0%);stroke-opacity:1;stroke-miterlimit:10;" d="M 163.890625 14.268125 L 164.699219 14.490781 L 165.601562 14.65875 L 166.410156 14.799375 L 166.949219 14.838438 " transform="matrix(1,0,0,-1,0,84.94)"/>
<path style="fill:none;stroke-width:1.41;stroke-linecap:round;stroke-linejoin:round;stroke:rgb(0%,0%,0%);stroke-opacity:1;stroke-miterlimit:10;" d="M 163.980469 12.248594 L 165.691406 12.248594 L 166.679688 12.338438 L 167.398438 12.338438 L 167.671875 12.381406 L 167.851562 12.69 " transform="matrix(1,0,0,-1,0,84.94)"/>
<path style="fill:none;stroke-width:1.41;stroke-linecap:round;stroke-linejoin:round;stroke:rgb(0%,0%,0%);stroke-opacity:1;stroke-miterlimit:10;" d="M 171.351562 14.088438 L 171.078125 13.428281 L 170.988281 12.029844 L 171.078125 10.311094 L 171.078125 8.068906 L 171.171875 7.850156 " transform="matrix(1,0,0,-1,0,84.94)"/>
<path style="fill:none;stroke-width:1.41;stroke-linecap:round;stroke-linejoin:round;stroke:rgb(0%,0%,0%);stroke-opacity:1;stroke-miterlimit:10;" d="M 171.078125 14.619688 L 171.441406 15.100156 L 172.160156 15.459531 L 173.328125 15.318906 L 174.320312 14.65875 L 174.859375 13.568906 L 174.589844 12.291563 L 173.691406 11.498594 L 172.699219 11.111875 L 171.800781 11.19 L 171.441406 11.588438 L 171.351562 11.900938 " transform="matrix(1,0,0,-1,0,84.94)"/>
<path style="fill:none;stroke-width:1.41;stroke-linecap:round;stroke-linejoin:round;stroke:rgb(0%,0%,0%);stroke-opacity:1;stroke-miterlimit:10;" d="M 177.101562 15.94 L 176.921875 16.248594 L 176.648438 16.111875 L 176.648438 15.850156 " transform="matrix(1,0,0,-1,0,84.94)"/>
<path style="fill:none;stroke-width:1.41;stroke-linecap:round;stroke-linejoin:round;stroke:rgb(0%,0%,0%);stroke-opacity:1;stroke-miterlimit:10;" d="M 177.460938 11.631406 L 177.101562 11.588438 L 176.828125 11.318906 L 176.558594 11.19 L 176.648438 11.588438 L 176.828125 11.850156 " transform="matrix(1,0,0,-1,0,84.94)"/>
<path style="fill:none;stroke-width:1.41;stroke-linecap:round;stroke-linejoin:round;stroke:rgb(0%,0%,0%);stroke-opacity:1;stroke-miterlimit:10;" d="M 180.429688 10.451719 L 180.25 10.748594 L 180.519531 11.72125 L 180.878906 13.350156 L 181.320312 15.498594 L 181.859375 17.568906 L 182.21875 18.881406 L 182.671875 19.061094 L 183.210938 17.998594 L 183.660156 16.381406 L 184.199219 14.709531 L 184.648438 13.131406 L 185.011719 11.979063 L 185.28125 10.97125 L 185.550781 10.088438 L 185.640625 9.869688 " transform="matrix(1,0,0,-1,0,84.94)"/>
<path style="fill:none;stroke-width:1.41;stroke-linecap:round;stroke-linejoin:round;stroke:rgb(0%,0%,0%);stroke-opacity:1;stroke-miterlimit:10;" d="M 181.949219 12.068906 L 181.679688 12.248594 L 181.769531 12.510313 L 182.21875 12.818906 L 182.851562 13.131406 L 183.480469 13.428281 L 183.929688 13.650938 " transform="matrix(1,0,0,-1,0,84.94)"/>
<path style="fill:none;stroke-width:1.41;stroke-linecap:round;stroke-linejoin:round;stroke:rgb(0%,0%,0%);stroke-opacity:1;stroke-miterlimit:10;" d="M 188.871094 20.600156 L 189.050781 20.861875 L 189.679688 21.119688 L 190.578125 21.260313 L 191.570312 21.080625 L 192.109375 20.549375 L 191.929688 19.72125 L 191.570312 18.65875 L 191.210938 17.518125 L 191.480469 16.600156 L 192.289062 15.850156 L 193.359375 15.40875 L 194.261719 15.19 L 194.621094 14.97125 L 194.261719 14.65875 L 193.449219 14.088438 L 192.730469 13.389219 L 192.289062 12.69 L 192.371094 12.068906 L 192.640625 11.588438 L 193.179688 11.061094 L 193.898438 10.361875 L 194.261719 9.740781 L 194.171875 8.951719 L 193.71875 8.381406 L 193.089844 8.029844 L 192.289062 7.72125 " transform="matrix(1,0,0,-1,0,84.94)"/>
<path style="fill:none;stroke-width:1.41;stroke-linecap:round;stroke-linejoin:round;stroke:rgb(0%,0%,0%);stroke-opacity:1;stroke-miterlimit:10;" d="M 131.460938 18.709531 L 131.460938 21.041563 L 131.371094 21.338438 L 131.28125 21.561094 L 130.921875 21.428281 L 130.289062 21.260313 L 129.210938 21.041563 L 127.960938 20.818906 L 126.519531 20.768125 L 124.988281 20.768125 L 123.820312 20.818906 L 122.839844 20.861875 L 122.300781 20.90875 L 122.480469 20.549375 L 123.289062 20.029844 L 124.539062 19.318906 L 125.710938 18.65875 L 126.699219 18.088438 L 127.238281 17.779844 L 127.328125 17.350156 L 126.96875 16.69 L 126.339844 15.811094 L 125.351562 14.748594 L 124.359375 13.611875 L 123.460938 12.639219 L 122.75 11.900938 L 122.210938 11.19 L 122.03125 10.799375 L 121.761719 10.451719 L 121.671875 10.088438 L 121.761719 9.869688 L 122.210938 9.650938 L 123.109375 9.518125 L 124.539062 9.479063 L 126.070312 9.611875 L 127.511719 9.830625 L 128.589844 10.049375 L 129.390625 10.139219 L 130.46875 10.139219 L 130.921875 10.229063 L 131.191406 10.490781 L 131.28125 11.018125 L 131.371094 11.588438 L 131.371094 12.69 L 131.28125 13.041563 L 131.191406 13.260313 " transform="matrix(1,0,0,-1,0,84.94)"/>
<path style="fill:none;stroke-width:1.41;stroke-linecap:round;stroke-linejoin:round;stroke:rgb(0%,0%,0%);stroke-opacity:1;stroke-miterlimit:10;" d="M 162.078125 61.861875 L 161.808594 61.811094 L 161.269531 61.861875 L 160.730469 61.94 L 160.109375 62.119688 L 159.390625 62.209531 L 158.578125 62.248594 L 157.679688 62.15875 L 156.871094 62.029844 L 156.058594 61.861875 L 155.160156 61.639219 L 154.449219 61.459531 L 153.820312 61.279844 L 153.101562 61.068906 L 152.46875 60.799375 L 151.839844 60.451719 L 151.390625 60.100156 L 151.03125 59.830625 L 150.671875 59.568906 L 150.398438 59.44 L 150.128906 59.260313 L 149.769531 59.131406 L 149.5 58.959531 L 149.230469 58.818906 L 148.878906 58.600156 L 148.519531 58.338438 L 147.980469 57.951719 L 147.441406 57.510313 L 146.71875 56.928281 L 146 56.229063 L 145.371094 55.65875 L 144.828125 54.90875 L 144.289062 54.170469 L 143.839844 53.420469 L 143.210938 52.541563 L 142.679688 51.701719 L 142.320312 51.049375 L 141.960938 50.170469 L 141.78125 49.291563 L 141.691406 48.451719 L 141.601562 47.568906 L 141.601562 46.209531 L 141.691406 45.729063 L 141.78125 45.068906 L 141.871094 44.451719 L 141.960938 43.748594 L 142.230469 43.049375 L 142.5 42.518125 L 142.769531 41.951719 L 143.121094 41.420469 L 143.390625 40.850156 L 143.929688 40.19 L 144.46875 39.400938 L 145.101562 38.701719 L 145.910156 37.951719 L 146.628906 37.291563 L 147.351562 36.760313 L 147.890625 36.279844 L 148.339844 35.97125 L 148.699219 35.748594 L 148.960938 35.529844 L 149.410156 35.268125 L 149.859375 34.959531 L 150.488281 34.568906 L 151.300781 34.170469 L 152.109375 33.729063 L 153.101562 33.381406 L 154.179688 33.068906 L 155.25 32.900938 L 156.421875 32.811094 L 157.679688 32.72125 L 159.03125 32.72125 L 160.289062 32.760313 L 161.539062 32.850156 L 162.800781 33.068906 L 164.058594 33.291563 L 165.320312 33.561094 L 166.570312 33.818906 L 167.738281 34.260313 L 168.730469 34.701719 L 169.71875 35.311094 L 170.441406 35.97125 L 171.160156 36.760313 L 171.699219 37.729063 L 172.140625 38.611875 L 172.589844 39.529844 L 172.859375 40.318906 L 173.039062 40.979063 L 173.21875 41.510313 L 173.308594 42.080625 L 173.398438 42.561094 L 173.488281 43.049375 L 173.578125 43.529844 L 173.671875 44.010313 L 173.671875 44.541563 L 173.761719 45.291563 L 173.851562 46.080625 L 173.941406 47.049375 L 173.941406 49.240781 L 174.03125 49.678281 L 174.03125 50.428281 L 173.941406 50.69 L 173.941406 52.010313 L 173.671875 52.010313 L 173.398438 51.791563 L 172.859375 51.22125 L 172.050781 50.389219 L 171.070312 49.420469 L 170.261719 48.541563 L 169.898438 48.229063 L 170.441406 48.799375 L 170.980469 49.420469 L 171.339844 49.861875 L 171.699219 50.299375 L 172.050781 50.740781 L 172.410156 51.131406 L 172.589844 51.490781 L 172.859375 51.881406 L 173.039062 52.100156 L 173.308594 52.318906 L 173.851562 51.791563 L 174.660156 50.69 L 175.558594 49.459531 L 176.460938 48.19 L 177 47.529844 " transform="matrix(1,0,0,-1,0,84.94)"/>
<path style="fill:none;stroke-width:1.41;stroke-linecap:round;stroke-linejoin:round;stroke:rgb(0%,0%,0%);stroke-opacity:1;stroke-miterlimit:10;" d="M 182.390625 66.729063 L 182.210938 66.381406 L 181.488281 65.72125 L 180.5 64.889219 L 179.421875 64.010313 L 178.609375 63.44 L 178.339844 62.818906 L 178.609375 62.029844 L 179.421875 61.111875 L 180.589844 60.19 L 181.941406 59.479063 L 182.839844 59.088438 L 183.289062 58.869688 L 183.109375 58.650938 " transform="matrix(1,0,0,-1,0,84.94)"/>
<path style="fill:none;stroke-width:1.41;stroke-linecap:round;stroke-linejoin:round;stroke:rgb(0%,0%,0%);stroke-opacity:1;stroke-miterlimit:10;" d="M 179.960938 62.518125 L 180.589844 62.518125 L 181.578125 62.428281 L 183.199219 62.381406 L 184.898438 62.299375 L 186.789062 62.299375 L 188.949219 62.381406 L 190.828125 62.518125 L 192.628906 62.69 L 194.339844 62.869688 L 195.679688 62.951719 L 196.671875 63.041563 L 202.601562 63.041563 L 202.871094 62.998594 " transform="matrix(1,0,0,-1,0,84.94)"/>
</g>
</svg>
