<?xml version="1.0" encoding="UTF-8"?>
<svg xmlns="http://www.w3.org/2000/svg" xmlns:xlink="http://www.w3.org/1999/xlink" width="134.25pt" height="138.75pt" viewBox="0 0 134.25 138.75" version="1.1">
<g id="surface1">
<path style="fill:none;stroke-width:2.26;stroke-linecap:round;stroke-linejoin:round;stroke:rgb(0%,0%,0%);stroke-opacity:1;stroke-miterlimit:10;" d="M 35.019531 113 L 35.199219 113.261719 L 34.839844 113.21875 L 34.390625 113.128906 L 33.769531 113 L 32.871094 112.691406 L 32.058594 112.378906 L 31.339844 111.808594 L 30.800781 110.890625 L 30.621094 109.609375 L 30.621094 107.941406 L 31.070312 105.789062 L 31.878906 103.460938 L 33.230469 100.871094 L 35.289062 97.398438 L 37.539062 93.53125 L 39.699219 89.308594 L 41.578125 85.050781 L 42.660156 81.929688 L 43.199219 80 L 43.558594 79.070312 L 44.011719 78.898438 L 45.179688 78.808594 L 47.511719 78.761719 L 51.109375 78.898438 L 56.230469 79.25 L 62.960938 79.859375 L 70.058594 80.570312 L 76.800781 81.179688 L 82.730469 81.839844 L 86.949219 82.460938 L 90.28125 83.25 L 93.238281 84.171875 L 95.398438 84.960938 L 97.109375 85.621094 L 98.539062 86.148438 L 99.710938 86.5 L 100.789062 86.808594 L 102.050781 87.25 L 103.039062 87.640625 L 103.75 88.261719 L 104.289062 89.089844 L 104.558594 89.878906 L 104.921875 91.328125 L 105.101562 93.089844 L 105.191406 95.238281 L 105.28125 97.53125 L 105.191406 99.328125 L 105.101562 100.691406 L 104.921875 101.839844 L 104.648438 102.890625 L 104.378906 103.949219 L 104.109375 104.910156 L 103.839844 105.699219 L 103.300781 106.800781 L 102.769531 107.898438 L 101.960938 109.308594 L 100.699219 110.890625 L 99.261719 112.03125 L 97.199219 113.21875 L 94.949219 114.101562 L 92.519531 114.890625 L 89.738281 115.71875 L 87.039062 116.558594 L 84.171875 117.441406 L 80.929688 118.359375 L 77.699219 119.148438 L 74.289062 119.808594 L 71.410156 120.339844 L 69.160156 120.601562 L 67.371094 120.730469 L 65.660156 120.640625 L 63.5 120.558594 L 60.808594 120.25 L 57.75 119.808594 L 54.878906 119.191406 L 51.820312 118.398438 L 49.128906 117.609375 L 46.789062 116.910156 L 44.550781 116.210938 L 42.660156 115.628906 L 41.039062 115.148438 L 39.519531 114.671875 L 38.351562 114.269531 L 37.539062 113.878906 L 36.910156 113.570312 L 36.550781 113.351562 L 36.371094 113.089844 " transform="matrix(1,0,0,-1,0,138.75)"/>
<path style="fill:none;stroke-width:2.26;stroke-linecap:round;stroke-linejoin:round;stroke:rgb(0%,0%,0%);stroke-opacity:1;stroke-miterlimit:10;" d="M 38.980469 106.890625 L 39.25 106.710938 L 39.789062 105.96875 L 40.589844 104.691406 L 41.671875 102.929688 L 42.929688 100.648438 L 44.011719 98.359375 L 45.089844 96.210938 L 46.25 94.148438 L 47.238281 92.339844 L 48.140625 90.808594 L 48.859375 89.398438 L 49.308594 88.300781 L 49.578125 87.46875 L 49.941406 86.808594 L 50.210938 86.5 L 50.390625 86.28125 L 50.75 86.148438 L 51.109375 86.320312 L 51.820312 86.589844 L 52.988281 86.890625 L 54.429688 87.289062 L 56.230469 87.691406 L 58.289062 88.039062 L 60.898438 88.390625 L 63.769531 88.648438 L 66.738281 88.921875 L 69.878906 89.050781 L 72.578125 89.089844 L 75 89.140625 L 77.429688 89.179688 L 79.589844 89.21875 L 81.46875 89.398438 L 83.449219 89.488281 L 84.890625 89.621094 L 86.140625 89.660156 L 87.308594 89.789062 L 88.210938 89.96875 L 89.019531 90.148438 L 89.738281 90.371094 L 90.460938 90.539062 L 91.359375 90.71875 L 92.339844 90.851562 L 93.238281 91.03125 L 93.960938 91.328125 L 94.589844 91.898438 L 94.859375 92.738281 L 95.128906 93.839844 L 95.308594 95.199219 L 95.398438 96.648438 L 95.398438 98.101562 L 95.308594 99.640625 L 94.589844 102.28125 L 94.050781 103.550781 L 93.328125 104.601562 L 92.519531 105.53125 L 91.539062 106.359375 L 90.640625 106.929688 L 89.921875 107.371094 L 89.289062 107.679688 L 88.75 107.859375 L 88.300781 107.988281 L 87.671875 108.121094 L 87.039062 108.210938 L 86.410156 108.339844 L 85.429688 108.519531 L 83.988281 108.78125 L 82.191406 109.128906 L 80.210938 109.570312 L 78.148438 110.050781 L 76.351562 110.488281 L 74.460938 110.890625 L 72.308594 111.199219 L 70.148438 111.371094 L 67.820312 111.5 L 65.300781 111.460938 L 62.878906 111.371094 L 60.539062 111.199219 L 58.378906 111.019531 L 56.410156 110.761719 L 54.429688 110.410156 L 52.359375 109.96875 L 50.121094 109.390625 L 48.140625 108.820312 L 46.609375 108.339844 L 45.359375 107.898438 L 44.460938 107.460938 L 43.738281 107.070312 L 43.019531 106.671875 L 42.390625 106.320312 L 42.03125 106.050781 L 42.300781 106.269531 " transform="matrix(1,0,0,-1,0,138.75)"/>
<path style="fill:none;stroke-width:2.26;stroke-linecap:round;stroke-linejoin:round;stroke:rgb(0%,0%,0%);stroke-opacity:1;stroke-miterlimit:10;" d="M 56.859375 80.300781 L 56.949219 80.078125 L 56.859375 79.640625 L 56.679688 78.898438 L 56.320312 77.710938 L 56.050781 76.171875 L 55.511719 74.238281 L 54.96875 72.21875 L 54.429688 70.019531 L 53.800781 67.558594 L 53.261719 65.269531 L 52.808594 63.25 L 52.539062 61.359375 L 52.269531 59.648438 L 51.910156 57.800781 L 51.460938 55.558594 L 51.019531 53.191406 L 50.570312 50.769531 L 50.121094 48.21875 L 49.851562 45.890625 L 49.761719 43.738281 L 49.941406 41.589844 L 50.210938 39.738281 L 50.660156 38.03125 L 51.289062 36.230469 L 52.179688 34.730469 L 53.441406 33.371094 L 55.421875 32.011719 L 57.839844 30.820312 L 60.71875 29.679688 L 64.21875 28.839844 L 67.910156 28.488281 L 71.859375 28.671875 L 76.53125 29.328125 L 81.109375 30.339844 L 85.429688 31.660156 L 89.558594 33.460938 L 92.519531 35.429688 L 94.769531 37.851562 L 96.210938 41.019531 L 97.019531 43.871094 L 97.378906 46.460938 L 97.550781 48.789062 L 97.640625 50.289062 L 97.730469 52.128906 L 97.730469 54.421875 L 97.640625 56.699219 L 97.550781 58.988281 L 97.378906 60.96875 L 97.199219 62.550781 L 97.109375 64.039062 L 96.929688 65.800781 L 96.75 67.910156 L 96.390625 70.148438 L 95.851562 72.390625 L 95.21875 74.109375 L 94.679688 75.25 L 94.230469 76.128906 L 93.960938 76.828125 L 93.601562 77.890625 L 93.328125 78.898438 L 93.148438 79.78125 L 92.96875 80.570312 L 92.96875 80.960938 L 92.878906 81.359375 L 92.878906 82.058594 " transform="matrix(1,0,0,-1,0,138.75)"/>
<path style="fill:none;stroke-width:2.26;stroke-linecap:round;stroke-linejoin:round;stroke:rgb(0%,0%,0%);stroke-opacity:1;stroke-miterlimit:10;" d="M 50.480469 79.511719 L 50.210938 79.070312 L 50.03125 78.109375 L 49.671875 76.789062 L 49.21875 75.339844 L 48.679688 73.488281 L 48.050781 71.378906 L 47.328125 69.359375 L 46.699219 67.429688 L 46.339844 65.929688 L 45.980469 64.75 L 45.710938 63.429688 L 45.179688 61.359375 L 44.640625 59.121094 L 44.101562 56.96875 L 43.558594 54.679688 L 43.109375 52.878906 L 42.75 51.171875 L 42.300781 49.28125 L 41.941406 47.558594 L 41.671875 45.808594 L 41.488281 44 L 41.398438 42.25 L 41.398438 40.488281 L 41.488281 38.769531 L 41.578125 37.058594 L 41.761719 35.519531 L 42.121094 34.03125 L 42.570312 32.398438 L 43.199219 31.078125 L 43.738281 29.898438 L 44.460938 28.929688 L 45 28.269531 L 45.710938 27.570312 L 46.609375 26.78125 L 47.511719 25.898438 L 48.5 25.019531 L 49.21875 24.320312 L 49.941406 23.660156 L 50.480469 23.21875 L 51.109375 22.78125 L 51.910156 22.289062 L 52.539062 21.988281 L 53.171875 21.808594 L 53.800781 21.640625 L 54.160156 21.640625 L 54.609375 21.589844 L 56.140625 21.589844 L 56.859375 21.640625 L 57.570312 21.679688 L 58.289062 21.679688 L 58.921875 21.71875 L 59.191406 21.769531 L 59.640625 21.808594 L 60.179688 21.808594 L 60.628906 21.859375 L 61.261719 21.898438 L 62.789062 21.898438 L 63.5 21.808594 L 64.398438 21.769531 L 65.210938 21.71875 L 66.921875 21.71875 L 68 21.769531 L 69.339844 21.859375 L 70.601562 21.898438 L 71.859375 22.03125 L 73.03125 22.160156 L 74.019531 22.289062 L 75.089844 22.378906 L 76.171875 22.429688 L 77.429688 22.558594 L 78.960938 22.648438 L 80.480469 22.820312 L 82.640625 23.128906 L 83.089844 23.308594 L 83.359375 23.441406 L 83.808594 23.660156 L 84.53125 24.050781 L 85.25 24.398438 L 86.140625 24.800781 L 87.128906 25.199219 L 88.03125 25.589844 L 88.929688 26.03125 L 89.648438 26.339844 L 90.371094 26.691406 L 91.089844 27 L 91.890625 27.351562 L 93.148438 27.828125 L 94.140625 28.269531 L 95.128906 28.800781 L 95.941406 29.238281 L 96.390625 29.679688 L 96.75 30.121094 L 97.109375 30.511719 L 97.460938 30.910156 L 98.71875 32.050781 L 99.441406 32.671875 L 100.070312 33.191406 L 100.429688 33.539062 L 101.058594 34.03125 L 101.601562 34.601562 L 102.320312 35.351562 L 103.039062 36.179688 L 103.480469 36.839844 L 103.839844 37.460938 L 104.019531 37.851562 L 104.289062 38.378906 L 104.558594 39.078125 L 104.828125 39.789062 L 105.191406 40.53125 L 105.371094 41.148438 L 105.550781 41.539062 L 105.730469 42.25 L 106.269531 43.828125 L 106.539062 45.230469 L 106.808594 46.640625 L 106.988281 48.179688 L 107.171875 49.71875 L 107.261719 50.769531 L 107.261719 53.140625 L 107.171875 54.679688 L 107.078125 56.089844 L 106.988281 57.28125 L 106.898438 58.109375 L 106.808594 58.679688 L 106.628906 59.691406 L 106.269531 61.101562 L 105.910156 62.679688 L 105.460938 64.480469 L 104.921875 66.148438 L 104.46875 67.691406 L 103.929688 69.269531 L 103.390625 71.03125 L 102.859375 72.609375 L 102.410156 74.191406 L 102.050781 75.601562 L 101.78125 76.660156 L 101.421875 77.96875 L 101.148438 79.121094 L 100.878906 80.128906 L 100.609375 81.179688 L 100.429688 81.75 L 100.25 82.679688 L 100.070312 83.730469 L 99.980469 84.699219 L 99.890625 85.621094 L 99.890625 86.5 " transform="matrix(1,0,0,-1,0,138.75)"/>
<path style="fill:none;stroke-width:2.26;stroke-linecap:round;stroke-linejoin:round;stroke:rgb(0%,0%,0%);stroke-opacity:1;stroke-miterlimit:10;" d="M 69.429688 78.238281 L 69.160156 78.148438 L 69.160156 77.179688 L 68.980469 76.171875 L 68.800781 74.679688 L 68.800781 71.871094 L 68.890625 70.898438 L 69.25 70.148438 L 69.699219 69.539062 L 70.601562 68.828125 L 71.859375 68.089844 L 73.300781 67.511719 L 75 67.210938 L 76.800781 67.210938 L 78.511719 67.46875 L 80.210938 67.949219 L 81.558594 68.441406 L 82.730469 68.960938 L 83.628906 69.621094 L 84.351562 70.328125 L 84.980469 71.210938 L 85.429688 72.300781 L 85.609375 73.398438 L 85.609375 74.679688 L 85.429688 76.21875 L 85.070312 77.800781 L 84.800781 79.289062 L 84.53125 80.480469 L 84.351562 81.140625 L 84.171875 81.398438 " transform="matrix(1,0,0,-1,0,138.75)"/>
<path style="fill:none;stroke-width:2.26;stroke-linecap:round;stroke-linejoin:round;stroke:rgb(0%,0%,0%);stroke-opacity:1;stroke-miterlimit:10;" d="M 78.058594 80.261719 L 77.789062 80.300781 L 77.789062 80.039062 L 77.699219 79.511719 L 77.519531 78.679688 L 77.339844 77.621094 L 77.339844 76.660156 L 77.519531 76 L 77.789062 75.820312 L 78.328125 76.039062 L 78.78125 76.660156 L 78.960938 77.269531 L 79.050781 78.019531 L 79.050781 79.421875 L 78.960938 80.078125 L 78.871094 80.648438 L 78.78125 81.011719 " transform="matrix(1,0,0,-1,0,138.75)"/>
<path style="fill:none;stroke-width:2.26;stroke-linecap:round;stroke-linejoin:round;stroke:rgb(0%,0%,0%);stroke-opacity:1;stroke-miterlimit:10;" d="M 30.710938 107.148438 L 30.800781 106.890625 L 30.890625 106.488281 L 30.621094 106.140625 L 30.261719 105.398438 L 29.898438 104.121094 L 29.359375 102.359375 L 29 99.988281 L 28.820312 97.398438 L 28.820312 94.539062 L 28.910156 91.25 L 29 88.078125 L 29 81.488281 L 28.910156 78.371094 L 28.820312 75.25 L 28.730469 71.910156 L 28.550781 68.75 L 28.289062 65.671875 L 27.929688 62.421875 L 27.480469 59.558594 L 27.121094 56.878906 L 26.671875 54.289062 L 26.308594 52.089844 L 25.949219 49.890625 L 25.769531 47.429688 L 25.679688 45.148438 L 25.679688 40.488281 L 25.769531 38.378906 L 25.769531 36.398438 L 25.859375 34.378906 L 26.039062 32.671875 L 26.21875 31.039062 L 26.578125 29.371094 L 27.210938 27.828125 L 28.019531 26.289062 L 29 24.488281 L 30.078125 22.820312 L 31.25 21.238281 L 32.511719 19.828125 L 33.949219 18.648438 L 35.46875 17.71875 L 37.089844 16.980469 L 39.070312 16.359375 L 41.128906 16.011719 L 43.378906 15.660156 L 46.25 15.351562 L 49.039062 15.089844 L 52 14.820312 L 55.148438 14.558594 L 57.839844 14.210938 L 60.269531 13.808594 L 62.519531 13.371094 L 64.488281 13.109375 L 66.46875 12.890625 L 68.539062 12.761719 L 70.601562 12.761719 L 72.761719 12.851562 L 75.089844 13.019531 L 77.070312 13.238281 L 78.78125 13.421875 L 80.570312 13.679688 L 82.28125 13.949219 L 84.171875 14.300781 L 86.230469 14.648438 L 87.941406 15 L 89.378906 15.398438 L 90.730469 15.921875 L 91.980469 16.539062 L 93.328125 17.199219 L 94.679688 17.988281 L 95.761719 18.820312 L 96.839844 19.609375 L 97.640625 20.359375 L 98.269531 20.929688 L 98.808594 21.371094 L 99.171875 21.71875 L 99.621094 22.121094 L 99.890625 22.429688 L 100.339844 22.820312 L 100.789062 23.308594 L 101.328125 23.828125 L 101.871094 24.621094 L 102.320312 25.460938 L 102.589844 26.210938 L 102.859375 27 L 102.949219 27.660156 L 102.949219 28.179688 L 102.859375 28.710938 L 102.769531 29.191406 L 102.679688 29.589844 L 102.5 30.03125 L 102.410156 30.46875 L 102.410156 30.859375 " transform="matrix(1,0,0,-1,0,138.75)"/>
<path style="fill:none;stroke-width:2.26;stroke-linecap:round;stroke-linejoin:round;stroke:rgb(0%,0%,0%);stroke-opacity:1;stroke-miterlimit:10;" d="M 102.410156 27.21875 L 102.410156 27.480469 L 102.679688 27.960938 L 102.949219 28.621094 L 103.210938 29.460938 L 103.480469 30.339844 L 103.570312 31.21875 L 103.75 32.269531 L 103.929688 33.191406 L 104.019531 34.03125 L 104.109375 34.78125 L 104.199219 35.300781 L 104.289062 35.609375 L 104.289062 35.871094 " transform="matrix(1,0,0,-1,0,138.75)"/>
<path style="fill:none;stroke-width:2.26;stroke-linecap:round;stroke-linejoin:round;stroke:rgb(0%,0%,0%);stroke-opacity:1;stroke-miterlimit:10;" d="M 29.179688 64.128906 L 28.910156 63.960938 L 28.820312 63.648438 L 29 63.210938 L 29.359375 62.589844 L 29.808594 61.851562 L 30.53125 61.191406 L 31.339844 60.621094 L 32.78125 60.128906 L 34.390625 59.738281 L 36.101562 59.429688 L 38.53125 59.25 L 44.28125 59.25 L 45.089844 59.210938 L 45.359375 59.210938 " transform="matrix(1,0,0,-1,0,138.75)"/>
<path style="fill:none;stroke-width:2.26;stroke-linecap:round;stroke-linejoin:round;stroke:rgb(0%,0%,0%);stroke-opacity:1;stroke-miterlimit:10;" d="M 27.121094 51.648438 L 27.03125 51.339844 L 27.570312 50.820312 L 28.730469 50.160156 L 30.800781 49.371094 L 33.589844 48.53125 L 36.371094 47.960938 L 38.980469 47.699219 L 40.949219 47.699219 L 42.300781 47.828125 L 43.109375 47.960938 L 43.46875 48.089844 " transform="matrix(1,0,0,-1,0,138.75)"/>
<path style="fill:none;stroke-width:2.26;stroke-linecap:round;stroke-linejoin:round;stroke:rgb(0%,0%,0%);stroke-opacity:1;stroke-miterlimit:10;" d="M 26.308594 115.109375 L 26.398438 114.839844 L 27.03125 113.960938 L 28.109375 112.511719 L 29.179688 110.929688 L 30.078125 109.660156 L 30.800781 108.601562 L 31.339844 107.679688 " transform="matrix(1,0,0,-1,0,138.75)"/>
<path style="fill:none;stroke-width:2.26;stroke-linecap:round;stroke-linejoin:round;stroke:rgb(0%,0%,0%);stroke-opacity:1;stroke-miterlimit:10;" d="M 39.25 116.121094 L 38.890625 116.289062 L 38.351562 116.949219 L 37.628906 117.828125 L 36.640625 118.929688 L 35.738281 119.941406 L 34.75 120.859375 L 33.679688 121.660156 L 32.511719 122.308594 L 31.160156 122.96875 L 29.808594 123.589844 L 28.460938 123.980469 L 27.210938 124.121094 L 25.949219 124.03125 L 24.960938 123.679688 L 23.96875 123.191406 L 23.070312 122.488281 L 22.359375 121.699219 L 21.550781 120.640625 L 20.828125 119.238281 L 20.109375 117.660156 L 19.660156 116.03125 L 19.480469 114.140625 L 19.570312 112.289062 L 19.839844 110.269531 L 20.289062 108.078125 L 20.828125 105.96875 L 21.28125 103.898438 L 21.640625 101.921875 L 21.910156 100.121094 L 22 98.410156 L 22.089844 96.648438 L 22.179688 94.941406 L 22.269531 93.21875 L 22.359375 91.378906 L 22.359375 89.710938 L 22.449219 88.078125 L 22.359375 86.410156 L 22.359375 84.789062 L 22.269531 83.121094 L 22.269531 81.269531 L 22.179688 79.558594 L 22.089844 77.929688 L 21.820312 76.21875 L 21.640625 74.550781 L 21.28125 72.921875 L 20.921875 71.339844 L 20.648438 69.800781 L 20.289062 68.21875 L 20.019531 66.589844 L 19.570312 64.570312 L 19.210938 62.640625 L 18.761719 60.789062 L 18.398438 58.988281 L 17.859375 55.910156 L 17.5 54.160156 L 17.140625 52.351562 L 16.789062 50.550781 L 16.429688 48.621094 L 16.160156 46.898438 L 15.980469 45.101562 L 15.800781 43.210938 L 15.710938 41.5 L 15.710938 39.871094 L 15.890625 38.328125 L 16.160156 37.148438 L 16.519531 36.230469 L 16.789062 35.519531 L 17.050781 35 L 17.230469 34.558594 L 17.5 34.03125 L 17.769531 33.371094 L 18.128906 32.839844 L 18.488281 32.359375 L 18.671875 32.179688 L 18.941406 32.179688 L 19.390625 32.398438 " transform="matrix(1,0,0,-1,0,138.75)"/>
<path style="fill:none;stroke-width:2.26;stroke-linecap:round;stroke-linejoin:round;stroke:rgb(0%,0%,0%);stroke-opacity:1;stroke-miterlimit:10;" d="M 61.171875 120.421875 L 61.351562 120.859375 L 61.621094 121.609375 L 61.890625 122.488281 L 62.339844 123.460938 L 62.878906 124.289062 L 63.679688 125 L 64.671875 125.570312 L 65.75 125.871094 L 67.011719 125.921875 L 68.359375 125.871094 L 69.789062 125.871094 L 71.320312 125.789062 L 72.488281 125.738281 L 73.570312 125.429688 L 74.550781 124.78125 L 75.359375 123.808594 L 76.171875 122.621094 L 76.800781 121.390625 L 77.160156 120.511719 L 77.339844 119.988281 L 77.519531 119.679688 " transform="matrix(1,0,0,-1,0,138.75)"/>
<path style="fill:none;stroke-width:2.26;stroke-linecap:round;stroke-linejoin:round;stroke:rgb(0%,0%,0%);stroke-opacity:1;stroke-miterlimit:10;" d="M 20.289062 31.960938 L 20.738281 32.011719 L 21.101562 31.789062 L 21.910156 31.441406 L 22.890625 31.039062 L 24.058594 30.601562 L 25.140625 30.25 L 25.949219 29.941406 L 26.398438 29.808594 " transform="matrix(1,0,0,-1,0,138.75)"/>
<path style="fill:none;stroke-width:2.26;stroke-linecap:round;stroke-linejoin:round;stroke:rgb(0%,0%,0%);stroke-opacity:1;stroke-miterlimit:10;" d="M 24.511719 38.691406 L 24.238281 38.730469 L 24.148438 39.128906 L 23.96875 39.871094 L 23.699219 41.019531 L 23.429688 42.550781 L 23.160156 44.089844 L 23.070312 45.589844 L 23.160156 47.171875 L 23.429688 48.53125 L 23.699219 49.761719 L 24.058594 51.039062 L 24.601562 52.21875 L 25.230469 53.449219 L 26.039062 54.769531 L 26.671875 55.871094 L 27.300781 56.75 L 27.75 57.410156 L 27.839844 57.710938 L 28.019531 58.109375 L 28.109375 58.421875 " transform="matrix(1,0,0,-1,0,138.75)"/>
</g>
</svg>
