<?xml version="1.0" encoding="UTF-8"?>
<svg xmlns="http://www.w3.org/2000/svg" xmlns:xlink="http://www.w3.org/1999/xlink" width="229.3125pt" height="123pt" viewBox="0 0 229.3125 123" version="1.1">
<g id="surface1">
<path style="fill:none;stroke-width:2.26;stroke-linecap:round;stroke-linejoin:round;stroke:rgb(0%,0%,0%);stroke-opacity:1;stroke-miterlimit:10;" d="M 23.980469 118.003906 L 23.53125 108.246094 " transform="matrix(1,0,0,-1,0,123)"/>
<path style="fill:none;stroke-width:2.26;stroke-linecap:round;stroke-linejoin:round;stroke:rgb(0%,0%,0%);stroke-opacity:1;stroke-miterlimit:10;" d="M 22.183594 87.679688 L 22.09375 77.925781 " transform="matrix(1,0,0,-1,0,123)"/>
<path style="fill:none;stroke-width:2.26;stroke-linecap:round;stroke-linejoin:round;stroke:rgb(0%,0%,0%);stroke-opacity:1;stroke-miterlimit:10;" d="M 22.183594 77.925781 L 27.351562 77.84375 L 32.515625 77.757812 L 37.683594 77.675781 L 42.847656 77.589844 L 48.015625 77.507812 L 53.179688 77.425781 L 58.347656 77.339844 L 63.511719 77.257812 L 68.679688 77.175781 L 73.84375 77.089844 " transform="matrix(1,0,0,-1,0,123)"/>
<path style="fill:none;stroke-width:2.26;stroke-linecap:round;stroke-linejoin:round;stroke:rgb(0%,0%,0%);stroke-opacity:1;stroke-miterlimit:10;" d="M 73.933594 77.441406 L 74.292969 84.914062 " transform="matrix(1,0,0,-1,0,123)"/>
<path style="fill:none;stroke-width:2.26;stroke-linecap:round;stroke-linejoin:round;stroke:rgb(0%,0%,0%);stroke-opacity:1;stroke-miterlimit:10;" d="M 71.777344 108.6875 L 71.777344 117.386719 " transform="matrix(1,0,0,-1,0,123)"/>
<path style="fill:none;stroke-width:2.26;stroke-linecap:round;stroke-linejoin:round;stroke:rgb(0%,0%,0%);stroke-opacity:1;stroke-miterlimit:10;" d="M 71.957031 117.34375 L 61.433594 117.421875 L 56.175781 117.460938 L 40.390625 117.578125 L 35.132812 117.617188 L 24.609375 117.695312 " transform="matrix(1,0,0,-1,0,123)"/>
<path style="fill:none;stroke-width:2.26;stroke-linecap:round;stroke-linejoin:round;stroke:rgb(0%,0%,0%);stroke-opacity:1;stroke-miterlimit:10;" d="M 23.441406 107.941406 L 29.640625 107.941406 " transform="matrix(1,0,0,-1,0,123)"/>
<path style="fill:none;stroke-width:2.26;stroke-linecap:round;stroke-linejoin:round;stroke:rgb(0%,0%,0%);stroke-opacity:1;stroke-miterlimit:10;" d="M 29.460938 107.5 L 29.402344 101.011719 L 29.339844 94.523438 L 29.28125 88.03125 " transform="matrix(1,0,0,-1,0,123)"/>
<path style="fill:none;stroke-width:2.26;stroke-linecap:round;stroke-linejoin:round;stroke:rgb(0%,0%,0%);stroke-opacity:1;stroke-miterlimit:10;" d="M 29.28125 88.164062 L 22.363281 88.429688 " transform="matrix(1,0,0,-1,0,123)"/>
<path style="fill:none;stroke-width:2.26;stroke-linecap:round;stroke-linejoin:round;stroke:rgb(0%,0%,0%);stroke-opacity:1;stroke-miterlimit:10;" d="M 73.214844 109.039062 L 77.886719 108.597656 " transform="matrix(1,0,0,-1,0,123)"/>
<path style="fill:none;stroke-width:2.26;stroke-linecap:round;stroke-linejoin:round;stroke:rgb(0%,0%,0%);stroke-opacity:1;stroke-miterlimit:10;" d="M 78.425781 108.597656 L 79.144531 86.800781 " transform="matrix(1,0,0,-1,0,123)"/>
<path style="fill:none;stroke-width:2.26;stroke-linecap:round;stroke-linejoin:round;stroke:rgb(0%,0%,0%);stroke-opacity:1;stroke-miterlimit:10;" d="M 79.324219 86.671875 L 74.113281 86.011719 " transform="matrix(1,0,0,-1,0,123)"/>
<path style="fill:none;stroke-width:1.41;stroke-linecap:round;stroke-linejoin:round;stroke:rgb(0%,0%,0%);stroke-opacity:1;stroke-miterlimit:10;" d="M 33.234375 102.578125 L 33.324219 102.007812 L 33.324219 98.84375 L 33.144531 97.261719 L 32.964844 95.726562 L 32.695312 94.230469 L 32.425781 92.867188 L 32.246094 92.429688 L 32.15625 92.121094 L 32.425781 92.382812 " transform="matrix(1,0,0,-1,0,123)"/>
<path style="fill:none;stroke-width:1.41;stroke-linecap:round;stroke-linejoin:round;stroke:rgb(0%,0%,0%);stroke-opacity:1;stroke-miterlimit:10;" d="M 33.953125 97.746094 L 34.402344 97.835938 L 34.761719 97.835938 L 35.300781 97.789062 L 36.019531 97.65625 L 36.648438 97.484375 L 37.1875 97.304688 L 37.457031 97.175781 " transform="matrix(1,0,0,-1,0,123)"/>
<path style="fill:none;stroke-width:1.41;stroke-linecap:round;stroke-linejoin:round;stroke:rgb(0%,0%,0%);stroke-opacity:1;stroke-miterlimit:10;" d="M 37.726562 100.910156 L 37.636719 101.128906 L 37.636719 100.601562 L 37.726562 100.207031 L 37.726562 99.242188 L 37.636719 97.703125 L 37.546875 95.679688 L 37.546875 93.746094 L 37.457031 92.515625 L 37.546875 92.253906 " transform="matrix(1,0,0,-1,0,123)"/>
<path style="fill:none;stroke-width:1.41;stroke-linecap:round;stroke-linejoin:round;stroke:rgb(0%,0%,0%);stroke-opacity:1;stroke-miterlimit:10;" d="M 67.285156 93.21875 L 67.195312 92.957031 L 67.375 93.746094 L 67.824219 94.84375 L 68.363281 96.429688 L 68.992188 98.359375 L 69.621094 100.558594 L 70.070312 101.964844 L 70.339844 102.800781 L 70.609375 102.578125 L 70.789062 101.875 L 71.058594 100.953125 L 71.328125 99.8125 L 71.507812 98.710938 L 71.867188 97.304688 L 72.226562 95.945312 L 72.585938 94.757812 L 72.855469 93.96875 L 72.945312 93.617188 " transform="matrix(1,0,0,-1,0,123)"/>
<path style="fill:none;stroke-width:1.41;stroke-linecap:round;stroke-linejoin:round;stroke:rgb(0%,0%,0%);stroke-opacity:1;stroke-miterlimit:10;" d="M 68.992188 96.03125 L 69.441406 96.121094 L 69.800781 96.03125 L 70.339844 95.988281 L 70.878906 95.898438 L 71.328125 95.898438 " transform="matrix(1,0,0,-1,0,123)"/>
<path style="fill:none;stroke-width:2.26;stroke-linecap:round;stroke-linejoin:round;stroke:rgb(0%,0%,0%);stroke-opacity:1;stroke-miterlimit:10;" d="M 48.957031 105.699219 L 48.6875 105.613281 L 48.597656 105.085938 L 48.507812 103.765625 L 48.328125 101.523438 L 48.058594 98.582031 L 47.789062 95.8125 L 47.699219 93.703125 L 47.609375 92.339844 L 47.519531 91.859375 L 47.519531 91.507812 " transform="matrix(1,0,0,-1,0,123)"/>
<path style="fill:none;stroke-width:2.26;stroke-linecap:round;stroke-linejoin:round;stroke:rgb(0%,0%,0%);stroke-opacity:1;stroke-miterlimit:10;" d="M 49.136719 106.535156 L 49.316406 106.929688 L 49.675781 107.238281 L 50.125 107.589844 L 50.933594 107.679688 L 52.011719 107.679688 L 53 107.238281 L 54.167969 106.492188 L 54.976562 105.480469 L 55.515625 104.335938 L 55.605469 103.152344 L 55.246094 101.921875 L 54.4375 100.734375 L 53.449219 99.722656 L 52.191406 98.890625 L 51.023438 98.449219 L 49.945312 98.359375 L 49.046875 98.539062 L 48.507812 98.890625 L 48.238281 99.195312 " transform="matrix(1,0,0,-1,0,123)"/>
<path style="fill:none;stroke-width:2.26;stroke-linecap:round;stroke-linejoin:round;stroke:rgb(0%,0%,0%);stroke-opacity:1;stroke-miterlimit:10;" d="M 24.789062 48.351562 L 24.339844 38.59375 " transform="matrix(1,0,0,-1,0,123)"/>
<path style="fill:none;stroke-width:2.26;stroke-linecap:round;stroke-linejoin:round;stroke:rgb(0%,0%,0%);stroke-opacity:1;stroke-miterlimit:10;" d="M 22.992188 18.027344 L 22.902344 8.273438 " transform="matrix(1,0,0,-1,0,123)"/>
<path style="fill:none;stroke-width:2.26;stroke-linecap:round;stroke-linejoin:round;stroke:rgb(0%,0%,0%);stroke-opacity:1;stroke-miterlimit:10;" d="M 22.992188 8.273438 L 28.160156 8.1875 L 33.324219 8.105469 L 38.492188 8.023438 L 43.65625 7.9375 L 48.824219 7.855469 L 53.988281 7.769531 L 59.15625 7.6875 L 64.320312 7.605469 L 69.488281 7.519531 L 74.652344 7.4375 " transform="matrix(1,0,0,-1,0,123)"/>
<path style="fill:none;stroke-width:2.26;stroke-linecap:round;stroke-linejoin:round;stroke:rgb(0%,0%,0%);stroke-opacity:1;stroke-miterlimit:10;" d="M 74.742188 7.789062 L 75.101562 15.257812 " transform="matrix(1,0,0,-1,0,123)"/>
<path style="fill:none;stroke-width:2.26;stroke-linecap:round;stroke-linejoin:round;stroke:rgb(0%,0%,0%);stroke-opacity:1;stroke-miterlimit:10;" d="M 72.585938 39.035156 L 72.585938 47.734375 " transform="matrix(1,0,0,-1,0,123)"/>
<path style="fill:none;stroke-width:2.26;stroke-linecap:round;stroke-linejoin:round;stroke:rgb(0%,0%,0%);stroke-opacity:1;stroke-miterlimit:10;" d="M 72.765625 47.691406 L 62.242188 47.769531 L 56.984375 47.808594 L 41.199219 47.925781 L 35.941406 47.964844 L 25.417969 48.042969 " transform="matrix(1,0,0,-1,0,123)"/>
<path style="fill:none;stroke-width:2.26;stroke-linecap:round;stroke-linejoin:round;stroke:rgb(0%,0%,0%);stroke-opacity:1;stroke-miterlimit:10;" d="M 24.25 38.285156 L 30.449219 38.285156 " transform="matrix(1,0,0,-1,0,123)"/>
<path style="fill:none;stroke-width:2.26;stroke-linecap:round;stroke-linejoin:round;stroke:rgb(0%,0%,0%);stroke-opacity:1;stroke-miterlimit:10;" d="M 30.269531 37.847656 L 30.210938 31.359375 L 30.148438 24.867188 L 30.089844 18.378906 " transform="matrix(1,0,0,-1,0,123)"/>
<path style="fill:none;stroke-width:2.26;stroke-linecap:round;stroke-linejoin:round;stroke:rgb(0%,0%,0%);stroke-opacity:1;stroke-miterlimit:10;" d="M 30.089844 18.511719 L 23.171875 18.773438 " transform="matrix(1,0,0,-1,0,123)"/>
<path style="fill:none;stroke-width:2.26;stroke-linecap:round;stroke-linejoin:round;stroke:rgb(0%,0%,0%);stroke-opacity:1;stroke-miterlimit:10;" d="M 74.023438 39.386719 L 78.695312 38.945312 " transform="matrix(1,0,0,-1,0,123)"/>
<path style="fill:none;stroke-width:2.26;stroke-linecap:round;stroke-linejoin:round;stroke:rgb(0%,0%,0%);stroke-opacity:1;stroke-miterlimit:10;" d="M 79.234375 38.945312 L 79.953125 17.148438 " transform="matrix(1,0,0,-1,0,123)"/>
<path style="fill:none;stroke-width:2.26;stroke-linecap:round;stroke-linejoin:round;stroke:rgb(0%,0%,0%);stroke-opacity:1;stroke-miterlimit:10;" d="M 80.132812 17.015625 L 74.921875 16.359375 " transform="matrix(1,0,0,-1,0,123)"/>
<path style="fill:none;stroke-width:1.41;stroke-linecap:round;stroke-linejoin:round;stroke:rgb(0%,0%,0%);stroke-opacity:1;stroke-miterlimit:10;" d="M 34.042969 32.925781 L 34.132812 32.355469 L 34.132812 29.191406 L 33.953125 27.609375 L 33.773438 26.070312 L 33.503906 24.578125 L 33.234375 23.214844 L 33.054688 22.773438 L 32.964844 22.46875 L 33.234375 22.730469 " transform="matrix(1,0,0,-1,0,123)"/>
<path style="fill:none;stroke-width:1.41;stroke-linecap:round;stroke-linejoin:round;stroke:rgb(0%,0%,0%);stroke-opacity:1;stroke-miterlimit:10;" d="M 34.761719 28.09375 L 35.210938 28.179688 L 35.570312 28.179688 L 36.109375 28.136719 L 36.828125 28.003906 L 37.457031 27.828125 L 37.996094 27.652344 L 38.265625 27.523438 " transform="matrix(1,0,0,-1,0,123)"/>
<path style="fill:none;stroke-width:1.41;stroke-linecap:round;stroke-linejoin:round;stroke:rgb(0%,0%,0%);stroke-opacity:1;stroke-miterlimit:10;" d="M 38.535156 31.257812 L 38.445312 31.476562 L 38.445312 30.949219 L 38.535156 30.554688 L 38.535156 29.585938 L 38.445312 28.046875 L 38.355469 26.027344 L 38.355469 24.09375 L 38.265625 22.863281 L 38.355469 22.601562 " transform="matrix(1,0,0,-1,0,123)"/>
<path style="fill:none;stroke-width:2.26;stroke-linecap:round;stroke-linejoin:round;stroke:rgb(0%,0%,0%);stroke-opacity:1;stroke-miterlimit:10;" d="M 55.128906 32.710938 L 54.769531 33.019531 L 54.320312 33.59375 L 53.511719 34.207031 L 52.523438 34.648438 L 51.175781 34.601562 L 50.007812 33.898438 L 48.929688 32.757812 L 48.210938 31.304688 L 48.300781 29.988281 L 49.019531 28.933594 L 50.636719 28.40625 L 52.34375 28.539062 L 53.960938 29.152344 L 55.21875 30.207031 L 55.847656 31.175781 L 56.117188 31.527344 L 56.027344 30.867188 L 55.578125 28.933594 L 54.769531 25.902344 L 53.960938 22.914062 L 53.242188 20.320312 L 52.882812 18.605469 L 52.792969 17.640625 L 52.703125 16.847656 L 52.703125 15.617188 L 52.882812 15.222656 L 53.332031 15.089844 L 54.410156 15.398438 L 55.757812 16.277344 L 57.015625 17.242188 L 58.003906 18.210938 L 58.09375 19.089844 L 57.824219 19.792969 L 57.285156 20.496094 L 56.65625 21.15625 L 56.117188 21.507812 L 55.667969 21.859375 L 55.21875 22.121094 L 54.859375 22.386719 L 54.5 22.605469 L 54.859375 23 L 56.117188 23.527344 L 57.824219 24.273438 L 59.441406 25.15625 L 60.519531 26.078125 L 60.96875 26.648438 L 61.058594 26.957031 " transform="matrix(1,0,0,-1,0,123)"/>
<path style="fill:none;stroke-width:1.41;stroke-linecap:round;stroke-linejoin:round;stroke:rgb(0%,0%,0%);stroke-opacity:1;stroke-miterlimit:10;" d="M 69.054688 32.007812 L 69.054688 31.085938 L 69.144531 29.546875 L 69.144531 27.878906 L 69.054688 26.296875 L 69.054688 25.328125 L 68.964844 24.933594 L 68.964844 24.582031 " transform="matrix(1,0,0,-1,0,123)"/>
<path style="fill:none;stroke-width:1.41;stroke-linecap:round;stroke-linejoin:round;stroke:rgb(0%,0%,0%);stroke-opacity:1;stroke-miterlimit:10;" d="M 69.144531 31.746094 L 69.144531 32.054688 L 69.59375 32.449219 L 70.402344 32.710938 L 71.480469 32.933594 L 72.648438 32.800781 L 73.546875 32.359375 L 73.90625 31.613281 L 73.546875 30.734375 L 72.648438 29.988281 L 71.660156 29.460938 L 70.941406 29.195312 L 71.570312 29.152344 L 72.738281 28.976562 L 73.90625 28.582031 L 74.894531 27.878906 L 75.253906 26.867188 L 74.894531 25.769531 L 74.175781 24.847656 L 73.097656 24.1875 L 71.929688 23.96875 L 71.03125 24.054688 L 70.222656 24.363281 L 69.863281 24.714844 L 69.59375 25.023438 " transform="matrix(1,0,0,-1,0,123)"/>
<path style="fill:none;stroke-width:2.26;stroke-linecap:round;stroke-linejoin:round;stroke:rgb(0%,0%,0%);stroke-opacity:1;stroke-miterlimit:10;" d="M 28.714844 27.835938 L 28.535156 27.617188 L 28.265625 27.527344 L 27.816406 27.4375 L 27.1875 27.351562 L 26.46875 27.265625 L 25.570312 27.175781 L 24.3125 27 L 22.785156 26.78125 L 20.898438 26.5625 L 19.011719 26.429688 L 17.574219 26.429688 L 16.496094 26.605469 L 15.507812 27 L 14.519531 27.4375 L 13.351562 27.878906 L 12.003906 28.363281 L 10.835938 28.84375 L 9.847656 29.375 L 9.039062 30.03125 L 8.320312 30.78125 L 7.601562 31.65625 L 6.882812 32.800781 L 6.34375 33.988281 L 5.984375 35.171875 L 5.894531 36.535156 L 5.894531 37.898438 L 6.074219 39.347656 L 6.34375 40.886719 L 6.703125 42.335938 L 7.152344 43.699219 L 7.78125 44.796875 L 8.589844 45.851562 L 9.398438 46.773438 L 10.476562 47.742188 L 11.914062 48.753906 L 13.441406 49.675781 L 15.058594 50.511719 L 16.945312 51.300781 L 18.832031 51.917969 L 20.808594 52.488281 L 23.234375 53.058594 L 25.480469 53.632812 L 27.726562 54.15625 L 30.152344 54.859375 L 32.398438 55.5625 L 34.914062 56.398438 L 37.789062 57.367188 L 40.484375 58.246094 L 43.089844 59.035156 L 45.515625 59.78125 L 49.289062 61.015625 L 51.535156 61.71875 L 55.847656 62.945312 L 58.183594 63.605469 L 60.070312 64.179688 L 61.867188 64.835938 L 63.84375 65.539062 L 65.550781 66.15625 L 67.257812 66.726562 L 68.875 67.253906 L 70.132812 67.695312 L 71.480469 68.175781 L 72.917969 68.792969 L 74.355469 69.40625 L 75.703125 69.976562 L 76.871094 70.550781 L 77.679688 70.902344 L 78.488281 71.429688 L 79.65625 72.175781 L 81.003906 73.1875 L 82.621094 74.285156 L 84.148438 75.382812 L 85.226562 76.175781 L 86.125 76.964844 L 86.933594 77.667969 L 88.550781 79.25 L 89.449219 80.171875 L 90.527344 81.183594 L 91.515625 82.152344 L 92.414062 83.117188 L 93.222656 84.171875 L 93.761719 85.007812 L 94.121094 85.929688 L 94.390625 86.808594 L 94.480469 87.554688 L 94.480469 89.402344 L 94.390625 90.28125 L 94.300781 91.335938 L 94.03125 92.390625 L 93.671875 93.359375 L 93.3125 94.367188 L 92.773438 95.46875 L 92.234375 96.390625 L 91.605469 97.3125 L 90.796875 98.191406 L 90.167969 98.851562 L 89.359375 99.554688 L 88.550781 100.039062 L 87.832031 100.433594 L 87.203125 100.742188 L 86.574219 100.914062 L 86.125 101.046875 L 85.496094 101.136719 L 84.6875 101.222656 L 83.878906 101.3125 L 83.160156 101.355469 L 82.621094 101.398438 L 82.351562 101.398438 " transform="matrix(1,0,0,-1,0,123)"/>
<path style="fill:none;stroke-width:2.26;stroke-linecap:round;stroke-linejoin:round;stroke:rgb(0%,0%,0%);stroke-opacity:1;stroke-miterlimit:10;" d="M 29.613281 102.148438 L 29.792969 101.96875 L 29.34375 101.925781 L 28.625 101.882812 L 26.46875 101.882812 L 25.390625 101.839844 L 24.402344 101.839844 L 23.414062 101.796875 L 22.605469 101.75 L 21.617188 101.796875 L 19.820312 101.796875 L 19.011719 101.75 L 17.933594 101.617188 L 16.855469 101.398438 L 14.339844 100.609375 L 13.171875 100.210938 L 12.273438 99.859375 L 11.464844 99.464844 L 10.746094 98.984375 L 10.117188 98.5 L 9.308594 97.707031 L 8.589844 96.917969 L 7.871094 96.082031 L 7.152344 95.070312 L 6.613281 94.105469 L 6.074219 93.136719 L 5.625 92.039062 L 5.445312 91.027344 L 5.175781 90.015625 L 4.996094 88.960938 L 4.816406 87.03125 L 4.90625 85.929688 L 4.996094 84.832031 L 5.175781 83.734375 L 5.535156 82.589844 L 6.164062 81.535156 L 6.882812 80.613281 L 7.78125 79.691406 L 8.859375 78.8125 L 10.027344 77.933594 L 11.195312 77.097656 L 12.632812 76.21875 L 14.070312 75.472656 L 15.597656 74.8125 L 17.394531 74.152344 L 19.191406 73.539062 L 21.167969 72.921875 L 23.324219 72.308594 L 25.300781 71.824219 L 27.367188 71.382812 L 29.613281 70.902344 L 31.589844 70.417969 L 33.476562 69.804688 L 35.542969 69.054688 L 37.609375 68.398438 L 39.855469 67.648438 L 42.191406 66.902344 L 44.257812 66.242188 L 46.144531 65.585938 L 48.210938 64.835938 L 50.457031 64.179688 L 52.882812 63.476562 L 55.667969 62.640625 L 58.183594 61.847656 L 60.609375 61.058594 L 63.214844 60.132812 L 65.820312 59.34375 L 68.425781 58.640625 L 71.210938 57.851562 L 73.636719 57.101562 L 75.882812 56.3125 L 78.308594 55.519531 L 80.734375 54.730469 L 83.160156 53.9375 L 85.496094 53.015625 L 87.203125 52.179688 L 88.550781 51.433594 L 89.628906 50.773438 L 90.4375 50.289062 L 91.246094 49.808594 L 92.144531 49.28125 L 93.132812 48.710938 L 93.941406 48.179688 L 94.929688 47.523438 L 95.738281 46.863281 L 96.457031 46.117188 L 97.175781 45.238281 L 97.714844 44.140625 L 97.984375 43.171875 L 98.253906 42.292969 L 98.34375 41.589844 L 98.433594 41.0625 L 98.613281 40.273438 L 98.703125 39.347656 L 98.792969 38.164062 L 98.792969 36.929688 L 98.613281 35.746094 L 98.34375 34.558594 L 97.894531 33.546875 L 97.355469 32.539062 L 96.636719 31.613281 L 96.007812 30.953125 L 95.289062 30.429688 L 94.660156 30.121094 L 94.121094 29.898438 L 93.492188 29.769531 L 92.59375 29.636719 L 91.785156 29.546875 L 90.707031 29.460938 L 83.789062 29.460938 L 83.519531 29.503906 L 83.070312 29.546875 " transform="matrix(1,0,0,-1,0,123)"/>
<path style="fill:none;stroke-width:1.41;stroke-linecap:round;stroke-linejoin:round;stroke:rgb(0%,0%,0%);stroke-opacity:1;stroke-miterlimit:10;" d="M 185.101562 99.507812 L 184.832031 99.375 L 183.933594 98.671875 L 182.675781 97.792969 L 181.417969 97 L 180.519531 96.34375 L 180.429688 95.769531 L 181.058594 95.109375 L 182.316406 94.1875 L 183.753906 93.308594 L 184.921875 92.648438 L 185.820312 92.125 L 186.269531 91.816406 L 186.449219 91.59375 L 186.628906 91.421875 " transform="matrix(1,0,0,-1,0,123)"/>
<path style="fill:none;stroke-width:1.41;stroke-linecap:round;stroke-linejoin:round;stroke:rgb(0%,0%,0%);stroke-opacity:1;stroke-miterlimit:10;" d="M 181.238281 95.769531 L 181.597656 95.683594 L 182.136719 95.640625 L 182.855469 95.59375 L 183.664062 95.507812 L 185.101562 95.460938 L 186.71875 95.550781 L 188.964844 95.683594 L 191.390625 95.902344 L 193.546875 96.078125 L 195.433594 96.210938 L 197.320312 96.210938 L 198.847656 96.121094 L 200.375 96.035156 L 201.992188 95.992188 L 203.699219 95.902344 L 205.496094 95.902344 L 207.5625 95.8125 L 209.179688 95.726562 L 210.707031 95.683594 L 211.964844 95.640625 L 214.03125 95.640625 L 214.480469 95.683594 L 215.109375 95.726562 L 215.917969 95.769531 L 216.636719 95.8125 L 217.175781 95.8125 L 217.355469 95.640625 " transform="matrix(1,0,0,-1,0,123)"/>
<path style="fill:none;stroke-width:1.41;stroke-linecap:round;stroke-linejoin:round;stroke:rgb(0%,0%,0%);stroke-opacity:1;stroke-miterlimit:10;" d="M 186 45.015625 L 185.460938 44.664062 L 184.5625 44.003906 L 183.484375 43.125 L 182.316406 42.15625 L 181.417969 41.542969 L 180.878906 41.101562 L 180.609375 40.707031 L 180.878906 40.265625 L 181.597656 39.652344 L 182.855469 38.816406 L 184.382812 37.9375 L 185.640625 37.28125 L 186.539062 36.882812 L 186.988281 36.75 L 187.257812 36.75 " transform="matrix(1,0,0,-1,0,123)"/>
<path style="fill:none;stroke-width:1.41;stroke-linecap:round;stroke-linejoin:round;stroke:rgb(0%,0%,0%);stroke-opacity:1;stroke-miterlimit:10;" d="M 182.046875 41.320312 L 182.316406 41.148438 L 182.765625 40.96875 L 183.484375 40.796875 L 184.023438 40.707031 L 184.742188 40.664062 L 185.820312 40.664062 L 187.257812 40.707031 L 188.875 40.75 L 192.558594 40.75 L 194.445312 40.882812 L 196.242188 40.96875 L 197.679688 41.148438 L 198.757812 41.277344 L 199.476562 41.320312 L 199.925781 41.234375 L 200.554688 41.191406 L 201.632812 41.148438 L 202.980469 41.101562 L 204.328125 40.96875 L 207.5625 40.96875 L 208.550781 41.058594 L 209.359375 41.101562 L 210.4375 41.148438 L 213.042969 41.148438 L 213.402344 41.101562 L 213.761719 41.101562 L 214.210938 41.015625 L 214.660156 40.925781 L 214.929688 40.882812 L 215.289062 40.796875 " transform="matrix(1,0,0,-1,0,123)"/>
<path style="fill:none;stroke-width:1.41;stroke-linecap:round;stroke-linejoin:round;stroke:rgb(0%,0%,0%);stroke-opacity:1;stroke-miterlimit:10;" d="M 157.519531 80.433594 L 157.339844 79.820312 L 156.890625 78.71875 L 156.171875 77.269531 L 155.273438 75.601562 L 154.285156 73.621094 L 153.566406 71.46875 L 152.9375 69.050781 L 152.398438 66.328125 L 152.039062 63.777344 L 151.859375 61.40625 L 151.769531 59.429688 L 151.949219 58.109375 L 152.128906 57.011719 L 152.308594 56.21875 L 152.488281 55.429688 L 152.667969 54.679688 L 153.027344 53.625 L 153.386719 52.398438 L 153.925781 50.992188 L 154.644531 49.40625 L 155.273438 48 L 155.902344 46.773438 L 156.441406 45.9375 L 156.890625 45.367188 L 157.070312 45.101562 " transform="matrix(1,0,0,-1,0,123)"/>
<path style="fill:none;stroke-width:1.41;stroke-linecap:round;stroke-linejoin:round;stroke:rgb(0%,0%,0%);stroke-opacity:1;stroke-miterlimit:10;" d="M 152.667969 45.761719 L 152.9375 45.671875 L 153.65625 45.410156 L 154.644531 44.925781 L 155.902344 44.398438 L 156.890625 44.003906 L 157.699219 43.738281 L 158.148438 43.652344 L 158.417969 43.738281 L 158.417969 44.089844 L 158.507812 45.015625 L 158.6875 46.464844 L 158.957031 48.265625 L 159.136719 49.980469 L 159.316406 51.296875 L 159.496094 52.089844 L 159.496094 52.441406 " transform="matrix(1,0,0,-1,0,123)"/>
<path style="fill:none;stroke-width:1.41;stroke-linecap:round;stroke-linejoin:round;stroke:rgb(0%,0%,0%);stroke-opacity:1;stroke-miterlimit:10;" d="M 174.949219 43.914062 L 175.21875 44.53125 L 175.757812 45.628906 L 176.566406 47.210938 L 177.464844 49.277344 L 178.363281 51.867188 L 179.082031 54.15625 L 179.621094 56.085938 L 179.980469 57.582031 L 180.160156 58.460938 L 180.25 59.296875 L 180.339844 60.746094 L 180.25 62.195312 L 180.160156 63.601562 L 180.070312 65.054688 L 179.980469 65.800781 L 179.800781 66.898438 L 179.621094 68.128906 L 179.351562 69.402344 L 179.082031 70.589844 L 178.8125 71.425781 L 178.542969 72.4375 L 178.183594 73.535156 L 177.734375 74.71875 L 177.285156 76.171875 L 176.835938 77.269531 L 176.566406 78.191406 L 176.296875 78.9375 L 176.117188 79.335938 L 176.027344 79.597656 L 175.667969 79.117188 L 175.128906 78.0625 L 174.589844 76.65625 L 174.140625 75.335938 L 173.691406 74.324219 L 173.511719 73.929688 L 173.691406 74.238281 L 173.78125 74.546875 L 173.871094 74.898438 L 174.050781 75.46875 L 174.230469 75.953125 L 174.320312 76.523438 L 174.5 77.179688 L 174.769531 78.148438 L 174.949219 79.203125 L 175.308594 79.992188 L 175.757812 80.523438 L 176.65625 80.300781 L 177.734375 79.773438 L 178.902344 79.246094 L 179.710938 78.808594 L 180.070312 78.675781 " transform="matrix(1,0,0,-1,0,123)"/>
<path style="fill:none;stroke-width:1.41;stroke-linecap:round;stroke-linejoin:round;stroke:rgb(0%,0%,0%);stroke-opacity:1;stroke-miterlimit:10;" d="M 143.144531 71.203125 L 143.773438 70.808594 L 144.582031 69.929688 L 145.390625 68.832031 L 146.109375 67.207031 L 146.109375 65.492188 L 145.839844 63.777344 L 145.300781 62.242188 L 144.851562 61.273438 L 144.402344 60.964844 L 144.042969 60.921875 " transform="matrix(1,0,0,-1,0,123)"/>
<path style="fill:none;stroke-width:1.41;stroke-linecap:round;stroke-linejoin:round;stroke:rgb(0%,0%,0%);stroke-opacity:1;stroke-miterlimit:10;" d="M 120.953125 71.117188 L 121.132812 70.851562 L 121.132812 70.546875 L 120.953125 70.148438 L 120.683594 69.625 L 120.234375 68.964844 L 119.785156 68.347656 L 119.425781 67.558594 L 119.066406 66.589844 L 118.976562 65.578125 L 118.976562 64.4375 L 119.066406 63.425781 L 119.246094 62.679688 L 119.515625 62.109375 L 119.695312 61.710938 L 119.785156 61.492188 L 120.054688 61.1875 L 120.414062 60.835938 L 120.953125 60.21875 L 121.492188 59.867188 " transform="matrix(1,0,0,-1,0,123)"/>
<path style="fill:none;stroke-width:1.41;stroke-linecap:round;stroke-linejoin:round;stroke:rgb(0%,0%,0%);stroke-opacity:1;stroke-miterlimit:10;" d="M 188.964844 70.941406 L 188.515625 70.328125 L 187.976562 69.667969 L 187.4375 68.964844 L 186.808594 67.996094 L 186.359375 66.898438 L 186.179688 65.886719 L 186.089844 64.832031 L 186.179688 64 L 186.359375 63.425781 L 186.539062 62.898438 L 186.898438 62.242188 L 187.257812 61.667969 L 187.707031 61.1875 L 187.976562 60.789062 L 188.335938 60.65625 " transform="matrix(1,0,0,-1,0,123)"/>
<path style="fill:none;stroke-width:1.41;stroke-linecap:round;stroke-linejoin:round;stroke:rgb(0%,0%,0%);stroke-opacity:1;stroke-miterlimit:10;" d="M 212.953125 70.414062 L 213.492188 70.328125 L 214.300781 69.710938 L 215.199219 68.65625 L 215.828125 67.515625 L 216.1875 66.371094 L 216.277344 65.183594 L 216.007812 64.128906 L 215.46875 63.03125 L 214.929688 62.019531 L 214.300781 61.40625 L 213.851562 61.054688 L 213.582031 60.921875 " transform="matrix(1,0,0,-1,0,123)"/>
<path style="fill:none;stroke-width:1.41;stroke-linecap:round;stroke-linejoin:round;stroke:rgb(100%,0%,0%);stroke-opacity:1;stroke-miterlimit:10;" d="M 158.597656 97.175781 L 158.328125 97.089844 L 157.878906 96.867188 L 157.429688 96.5625 L 156.890625 95.945312 L 156.261719 95.109375 L 155.902344 94.011719 L 155.8125 92.828125 L 156.082031 91.550781 L 156.800781 90.539062 L 157.878906 89.792969 L 159.226562 89.53125 L 160.484375 89.835938 L 161.652344 90.628906 L 162.371094 91.902344 L 162.550781 93.308594 L 162.460938 94.671875 L 161.921875 95.769531 L 161.113281 96.472656 L 160.394531 96.824219 L 159.765625 97.046875 L 159.316406 97 L 159.046875 96.957031 " transform="matrix(1,0,0,-1,0,123)"/>
<path style="fill:none;stroke-width:1.41;stroke-linecap:round;stroke-linejoin:round;stroke:rgb(100%,0%,0%);stroke-opacity:1;stroke-miterlimit:10;" d="M 155.363281 88.476562 L 155.992188 88.914062 L 156.621094 89.574219 L 157.878906 91.289062 L 159.226562 93.089844 L 160.574219 94.847656 L 161.832031 96.695312 L 162.460938 97.527344 L 162.640625 98.011719 L 162.910156 98.363281 " transform="matrix(1,0,0,-1,0,123)"/>
<path style="fill:none;stroke-width:1.41;stroke-linecap:round;stroke-linejoin:round;stroke:rgb(0%,0%,0%);stroke-opacity:1;stroke-miterlimit:10;" d="M 163.628906 85.222656 L 163.449219 84.914062 L 163.628906 85.179688 L 163.898438 85.925781 L 164.4375 87.464844 L 165.15625 89.664062 L 166.144531 92.167969 L 167.402344 94.980469 L 168.480469 97.351562 L 169.378906 99.199219 L 169.917969 100.5625 L 170.1875 101.265625 L 170.367188 101.703125 L 170.457031 102.011719 " transform="matrix(1,0,0,-1,0,123)"/>
<path style="fill:none;stroke-width:1.41;stroke-linecap:round;stroke-linejoin:round;stroke:rgb(0%,0%,0%);stroke-opacity:1;stroke-miterlimit:10;" d="M 171.804688 93.703125 L 171.804688 92.695312 L 171.894531 91.640625 L 171.804688 89.792969 L 171.804688 86.980469 L 171.714844 85.882812 " transform="matrix(1,0,0,-1,0,123)"/>
<path style="fill:none;stroke-width:1.41;stroke-linecap:round;stroke-linejoin:round;stroke:rgb(0%,0%,0%);stroke-opacity:1;stroke-miterlimit:10;" d="M 172.074219 94.539062 L 172.34375 95.15625 L 173.0625 95.726562 L 173.960938 96.078125 L 174.949219 96.078125 L 176.027344 95.726562 L 176.746094 94.980469 L 177.015625 94.011719 L 176.925781 92.914062 L 176.296875 91.945312 L 175.308594 91.199219 L 174.140625 90.847656 L 173.242188 90.761719 L 172.613281 90.890625 L 172.253906 91.070312 " transform="matrix(1,0,0,-1,0,123)"/>
<path style="fill:none;stroke-width:1.41;stroke-linecap:round;stroke-linejoin:round;stroke:rgb(100%,0%,0%);stroke-opacity:1;stroke-miterlimit:10;" d="M 158.058594 32.621094 L 158.6875 32.796875 L 159.316406 33.324219 L 160.035156 34.070312 L 160.574219 34.730469 L 161.023438 35.082031 L 161.292969 34.773438 L 161.472656 33.675781 L 161.472656 32.136719 L 161.5625 30.46875 L 161.5625 28.359375 " transform="matrix(1,0,0,-1,0,123)"/>
<path style="fill:none;stroke-width:1.41;stroke-linecap:round;stroke-linejoin:round;stroke:rgb(100%,0%,0%);stroke-opacity:1;stroke-miterlimit:10;" d="M 157.25 26.953125 L 158.058594 27.039062 L 159.226562 27.128906 L 160.84375 27.214844 L 162.191406 27.304688 L 164.167969 27.304688 " transform="matrix(1,0,0,-1,0,123)"/>
<path style="fill:none;stroke-width:1.41;stroke-linecap:round;stroke-linejoin:round;stroke:rgb(0%,0%,0%);stroke-opacity:1;stroke-miterlimit:10;" d="M 164.796875 23.65625 L 165.15625 23.789062 L 165.695312 24.84375 L 166.59375 26.644531 L 167.761719 29.238281 L 168.839844 31.742188 L 169.828125 33.894531 L 170.546875 35.523438 L 170.90625 36.398438 L 171.175781 36.929688 L 171.355469 37.191406 " transform="matrix(1,0,0,-1,0,123)"/>
<path style="fill:none;stroke-width:1.41;stroke-linecap:round;stroke-linejoin:round;stroke:rgb(0%,0%,0%);stroke-opacity:1;stroke-miterlimit:10;" d="M 174.949219 29.984375 L 175.128906 30.25 L 175.21875 30.773438 L 175.128906 31.523438 L 174.769531 32.226562 L 174.230469 32.796875 L 173.421875 32.753906 L 172.523438 32.050781 L 171.625 30.863281 L 170.996094 29.5 L 170.90625 28.402344 L 171.625 27.832031 L 172.882812 28.007812 L 174.230469 28.710938 L 175.398438 29.808594 L 175.847656 30.46875 L 175.9375 30.027344 L 175.757812 28.972656 L 175.578125 27.4375 L 175.398438 25.898438 L 175.21875 24.796875 L 175.128906 23.699219 L 175.21875 22.6875 L 175.757812 21.898438 L 176.566406 21.632812 L 177.554688 21.8125 L 178.273438 22.292969 L 178.632812 22.867188 L 178.542969 23.480469 L 177.914062 24.140625 L 177.105469 24.710938 L 176.296875 25.148438 L 175.847656 25.722656 L 176.117188 26.292969 L 176.835938 26.996094 L 178.003906 27.875 L 178.902344 28.710938 L 179.441406 29.367188 L 179.621094 29.984375 L 179.621094 30.335938 L 179.53125 30.644531 " transform="matrix(1,0,0,-1,0,123)"/>
<path style="fill:none;stroke-width:1.41;stroke-linecap:round;stroke-linejoin:round;stroke:rgb(100%,0%,0%);stroke-opacity:1;stroke-miterlimit:10;" d="M 36.050781 114.496094 L 35.871094 114.671875 L 35.601562 114.804688 L 35.152344 114.804688 L 34.613281 114.71875 L 34.074219 114.539062 L 33.445312 114.058594 L 33.085938 113.3125 L 32.90625 112.34375 L 33.085938 111.070312 L 33.535156 109.882812 L 34.253906 108.914062 L 35.332031 108.34375 L 36.410156 108.210938 L 37.488281 108.5625 L 38.386719 109.355469 L 38.835938 110.367188 L 39.015625 111.683594 L 38.835938 112.960938 L 38.476562 114.101562 L 38.027344 114.9375 L 37.308594 115.464844 L 36.769531 115.640625 L 36.230469 115.550781 L 35.78125 115.464844 " transform="matrix(1,0,0,-1,0,123)"/>
<path style="fill:none;stroke-width:1.41;stroke-linecap:round;stroke-linejoin:round;stroke:rgb(100%,0%,0%);stroke-opacity:1;stroke-miterlimit:10;" d="M 31.558594 106.9375 L 31.109375 106.804688 L 31.199219 107.203125 L 32.097656 108.082031 L 33.714844 109.796875 L 35.601562 111.726562 L 37.578125 113.75 L 38.835938 115.15625 L 39.375 115.726562 L 39.554688 116.078125 L 39.554688 116.34375 " transform="matrix(1,0,0,-1,0,123)"/>
<path style="fill:none;stroke-width:1.41;stroke-linecap:round;stroke-linejoin:round;stroke:rgb(100%,0%,0%);stroke-opacity:1;stroke-miterlimit:10;" d="M 35.242188 42.074219 L 35.421875 42.25 L 35.871094 42.953125 L 36.320312 43.789062 L 36.949219 44.667969 L 37.308594 45.238281 L 37.578125 45.371094 L 37.667969 44.578125 L 37.667969 43.128906 L 37.757812 41.503906 L 37.757812 38.867188 " transform="matrix(1,0,0,-1,0,123)"/>
<path style="fill:none;stroke-width:1.41;stroke-linecap:round;stroke-linejoin:round;stroke:rgb(100%,0%,0%);stroke-opacity:1;stroke-miterlimit:10;" d="M 34.792969 37.328125 L 34.882812 37.546875 L 35.152344 37.636719 L 35.691406 37.769531 L 36.410156 37.855469 L 37.308594 37.945312 L 38.207031 38.03125 L 39.195312 37.988281 L 40.003906 37.898438 L 40.992188 37.8125 L 41.710938 37.679688 L 41.980469 37.636719 " transform="matrix(1,0,0,-1,0,123)"/>
<path style="fill:none;stroke-width:1.41;stroke-linecap:round;stroke-linejoin:round;stroke:rgb(0%,0%,0%);stroke-opacity:1;stroke-miterlimit:10;" d="M 123.378906 68.265625 L 123.558594 67.210938 L 123.648438 65.933594 L 123.828125 64.660156 L 123.917969 63.648438 L 123.917969 63.210938 " transform="matrix(1,0,0,-1,0,123)"/>
<path style="fill:none;stroke-width:1.41;stroke-linecap:round;stroke-linejoin:round;stroke:rgb(0%,0%,0%);stroke-opacity:1;stroke-miterlimit:10;" d="M 123.558594 68.570312 L 123.558594 69.1875 L 123.917969 69.582031 L 124.636719 69.890625 L 125.625 69.84375 L 126.613281 69.492188 L 127.152344 68.703125 L 126.972656 67.78125 L 126.164062 66.988281 L 125.175781 66.550781 L 124.367188 66.375 L 124.097656 66.417969 L 124.546875 66.460938 L 125.625 66.328125 L 126.972656 65.933594 L 128.050781 65.1875 L 128.679688 64.308594 L 128.679688 63.429688 L 128.050781 62.726562 L 126.792969 62.289062 L 125.445312 62.15625 L 124.277344 62.289062 L 123.558594 62.460938 L 123.289062 62.769531 L 123.378906 63.078125 " transform="matrix(1,0,0,-1,0,123)"/>
<path style="fill:none;stroke-width:1.41;stroke-linecap:round;stroke-linejoin:round;stroke:rgb(0%,0%,0%);stroke-opacity:1;stroke-miterlimit:10;" d="M 130.566406 63.78125 L 131.105469 63.429688 L 131.734375 62.859375 L 132.183594 61.9375 L 132.09375 60.925781 L 131.554688 60.179688 L 131.015625 59.738281 L 130.386719 59.78125 " transform="matrix(1,0,0,-1,0,123)"/>
<path style="fill:none;stroke-width:1.41;stroke-linecap:round;stroke-linejoin:round;stroke:rgb(0%,0%,0%);stroke-opacity:1;stroke-miterlimit:10;" d="M 134.699219 70.023438 L 134.609375 69.582031 L 134.609375 68.265625 L 134.699219 66.59375 L 134.789062 65.101562 L 134.878906 64 L 134.878906 63.695312 " transform="matrix(1,0,0,-1,0,123)"/>
<path style="fill:none;stroke-width:1.41;stroke-linecap:round;stroke-linejoin:round;stroke:rgb(0%,0%,0%);stroke-opacity:1;stroke-miterlimit:10;" d="M 134.699219 65.804688 L 135.238281 66.285156 L 136.136719 66.726562 L 137.304688 66.988281 L 138.203125 67.121094 L 138.832031 67.078125 L 139.101562 66.988281 " transform="matrix(1,0,0,-1,0,123)"/>
<path style="fill:none;stroke-width:1.41;stroke-linecap:round;stroke-linejoin:round;stroke:rgb(0%,0%,0%);stroke-opacity:1;stroke-miterlimit:10;" d="M 139.28125 70.460938 L 139.191406 69.800781 L 139.191406 68.4375 L 139.371094 66.417969 L 139.460938 64.484375 L 139.640625 63.121094 L 139.640625 62.460938 L 139.730469 62.242188 " transform="matrix(1,0,0,-1,0,123)"/>
<path style="fill:none;stroke-width:1.41;stroke-linecap:round;stroke-linejoin:round;stroke:rgb(0%,0%,0%);stroke-opacity:1;stroke-miterlimit:10;" d="M 190.492188 61.363281 L 190.402344 61.144531 L 190.851562 61.804688 L 191.390625 62.859375 L 192.019531 64.570312 L 192.648438 66.285156 L 193.097656 67.734375 L 193.457031 68.703125 L 193.816406 68.746094 L 194.355469 68.175781 L 194.984375 66.8125 L 195.613281 65.101562 L 196.152344 63.515625 L 196.511719 62.332031 L 196.691406 61.890625 " transform="matrix(1,0,0,-1,0,123)"/>
<path style="fill:none;stroke-width:1.41;stroke-linecap:round;stroke-linejoin:round;stroke:rgb(0%,0%,0%);stroke-opacity:1;stroke-miterlimit:10;" d="M 192.109375 63.867188 L 192.558594 64 L 193.097656 64.089844 L 193.726562 64.175781 L 194.355469 64.351562 L 194.714844 64.441406 " transform="matrix(1,0,0,-1,0,123)"/>
<path style="fill:none;stroke-width:1.41;stroke-linecap:round;stroke-linejoin:round;stroke:rgb(0%,0%,0%);stroke-opacity:1;stroke-miterlimit:10;" d="M 198.488281 63.738281 L 198.578125 63.386719 L 199.117188 62.8125 L 199.566406 61.980469 L 199.746094 61.011719 L 199.476562 60.179688 L 199.117188 59.648438 L 198.667969 59.429688 " transform="matrix(1,0,0,-1,0,123)"/>
<path style="fill:none;stroke-width:1.41;stroke-linecap:round;stroke-linejoin:round;stroke:rgb(0%,0%,0%);stroke-opacity:1;stroke-miterlimit:10;" d="M 201.542969 69.1875 L 201.632812 68.570312 L 201.8125 67.339844 L 201.992188 65.714844 L 202.082031 64.21875 L 202.171875 63.210938 L 202.171875 62.683594 " transform="matrix(1,0,0,-1,0,123)"/>
<path style="fill:none;stroke-width:1.41;stroke-linecap:round;stroke-linejoin:round;stroke:rgb(0%,0%,0%);stroke-opacity:1;stroke-miterlimit:10;" d="M 202.710938 66.109375 L 203.070312 66.460938 L 203.789062 66.636719 L 204.597656 66.726562 L 205.496094 66.769531 L 206.035156 66.8125 L 206.394531 66.859375 " transform="matrix(1,0,0,-1,0,123)"/>
<path style="fill:none;stroke-width:1.41;stroke-linecap:round;stroke-linejoin:round;stroke:rgb(0%,0%,0%);stroke-opacity:1;stroke-miterlimit:10;" d="M 207.5625 70.285156 L 207.382812 70.066406 L 207.382812 67.867188 L 207.472656 66.460938 L 207.5625 65.320312 L 207.652344 64.703125 L 207.742188 64.089844 L 207.742188 63.648438 L 207.832031 63.164062 L 207.832031 62.8125 L 207.921875 62.59375 " transform="matrix(1,0,0,-1,0,123)"/>
</g>
</svg>
