<?xml version="1.0" encoding="UTF-8"?>
<svg xmlns="http://www.w3.org/2000/svg" xmlns:xlink="http://www.w3.org/1999/xlink" width="215.99pt" height="84.94pt" viewBox="0 0 215.99 84.94" version="1.1">
<g id="surface1">
<path style="fill:none;stroke-width:2.26;stroke-linecap:round;stroke-linejoin:round;stroke:rgb(0%,0%,0%);stroke-opacity:1;stroke-miterlimit:10;" d="M 27.988281 68.541563 L 27.539062 58.779844 " transform="matrix(1,0,0,-1,0,84.94)"/>
<path style="fill:none;stroke-width:2.26;stroke-linecap:round;stroke-linejoin:round;stroke:rgb(0%,0%,0%);stroke-opacity:1;stroke-miterlimit:10;" d="M 26.191406 38.22125 L 26.101562 28.459531 " transform="matrix(1,0,0,-1,0,84.94)"/>
<path style="fill:none;stroke-width:2.26;stroke-linecap:round;stroke-linejoin:round;stroke:rgb(0%,0%,0%);stroke-opacity:1;stroke-miterlimit:10;" d="M 26.191406 28.459531 L 31.359375 28.381406 L 36.519531 28.291563 L 41.691406 28.209531 L 46.859375 28.131406 L 52.019531 28.041563 L 57.191406 27.959531 L 62.351562 27.881406 L 67.519531 27.791563 L 72.691406 27.709531 L 77.851562 27.619688 " transform="matrix(1,0,0,-1,0,84.94)"/>
<path style="fill:none;stroke-width:2.26;stroke-linecap:round;stroke-linejoin:round;stroke:rgb(0%,0%,0%);stroke-opacity:1;stroke-miterlimit:10;" d="M 77.941406 27.979063 L 78.300781 35.451719 " transform="matrix(1,0,0,-1,0,84.94)"/>
<path style="fill:none;stroke-width:2.26;stroke-linecap:round;stroke-linejoin:round;stroke:rgb(0%,0%,0%);stroke-opacity:1;stroke-miterlimit:10;" d="M 75.789062 59.22125 L 75.789062 67.920469 " transform="matrix(1,0,0,-1,0,84.94)"/>
<path style="fill:none;stroke-width:2.26;stroke-linecap:round;stroke-linejoin:round;stroke:rgb(0%,0%,0%);stroke-opacity:1;stroke-miterlimit:10;" d="M 75.960938 67.881406 L 70.699219 67.920469 L 65.441406 67.959531 L 60.179688 67.998594 L 54.921875 68.029844 L 49.660156 68.068906 L 44.398438 68.111875 L 39.140625 68.150938 L 33.878906 68.19 L 28.621094 68.229063 " transform="matrix(1,0,0,-1,0,84.94)"/>
<path style="fill:none;stroke-width:2.26;stroke-linecap:round;stroke-linejoin:round;stroke:rgb(0%,0%,0%);stroke-opacity:1;stroke-miterlimit:10;" d="M 27.449219 58.47125 L 33.648438 58.47125 " transform="matrix(1,0,0,-1,0,84.94)"/>
<path style="fill:none;stroke-width:2.26;stroke-linecap:round;stroke-linejoin:round;stroke:rgb(0%,0%,0%);stroke-opacity:1;stroke-miterlimit:10;" d="M 33.46875 58.029844 L 33.410156 51.549375 L 33.351562 45.061094 L 33.289062 38.568906 " transform="matrix(1,0,0,-1,0,84.94)"/>
<path style="fill:none;stroke-width:2.26;stroke-linecap:round;stroke-linejoin:round;stroke:rgb(0%,0%,0%);stroke-opacity:1;stroke-miterlimit:10;" d="M 33.289062 38.701719 L 26.371094 38.959531 " transform="matrix(1,0,0,-1,0,84.94)"/>
<path style="fill:none;stroke-width:2.26;stroke-linecap:round;stroke-linejoin:round;stroke:rgb(0%,0%,0%);stroke-opacity:1;stroke-miterlimit:10;" d="M 77.21875 59.568906 L 81.890625 59.131406 " transform="matrix(1,0,0,-1,0,84.94)"/>
<path style="fill:none;stroke-width:2.26;stroke-linecap:round;stroke-linejoin:round;stroke:rgb(0%,0%,0%);stroke-opacity:1;stroke-miterlimit:10;" d="M 82.429688 59.131406 L 82.609375 53.678281 L 82.789062 48.240781 L 82.96875 42.791563 L 83.148438 37.338438 " transform="matrix(1,0,0,-1,0,84.94)"/>
<path style="fill:none;stroke-width:2.26;stroke-linecap:round;stroke-linejoin:round;stroke:rgb(0%,0%,0%);stroke-opacity:1;stroke-miterlimit:10;" d="M 83.328125 37.201719 L 78.121094 36.549375 " transform="matrix(1,0,0,-1,0,84.94)"/>
<path style="fill:none;stroke-width:1.41;stroke-linecap:round;stroke-linejoin:round;stroke:rgb(0%,0%,0%);stroke-opacity:1;stroke-miterlimit:10;" d="M 37.238281 53.111875 L 37.328125 52.541563 L 37.328125 49.381406 L 37.148438 47.799375 L 36.96875 46.260313 L 36.699219 44.760313 L 36.429688 43.400938 L 36.25 42.959531 L 36.160156 42.650938 L 36.429688 42.920469 " transform="matrix(1,0,0,-1,0,84.94)"/>
<path style="fill:none;stroke-width:1.41;stroke-linecap:round;stroke-linejoin:round;stroke:rgb(0%,0%,0%);stroke-opacity:1;stroke-miterlimit:10;" d="M 37.960938 48.279844 L 38.410156 48.369688 L 38.769531 48.369688 L 39.308594 48.318906 L 40.03125 48.19 L 40.660156 48.018125 L 41.199219 47.838438 L 41.460938 47.709531 " transform="matrix(1,0,0,-1,0,84.94)"/>
<path style="fill:none;stroke-width:1.41;stroke-linecap:round;stroke-linejoin:round;stroke:rgb(0%,0%,0%);stroke-opacity:1;stroke-miterlimit:10;" d="M 41.730469 51.44 L 41.640625 51.65875 L 41.640625 51.139219 L 41.730469 50.740781 L 41.730469 49.768125 L 41.640625 48.240781 L 41.550781 46.209531 L 41.550781 44.279844 L 41.460938 43.049375 L 41.550781 42.791563 " transform="matrix(1,0,0,-1,0,84.94)"/>
<path style="fill:none;stroke-width:1.41;stroke-linecap:round;stroke-linejoin:round;stroke:rgb(0%,0%,0%);stroke-opacity:1;stroke-miterlimit:10;" d="M 71.289062 43.748594 L 71.199219 43.490781 L 71.289062 43.889219 L 71.378906 44.279844 L 71.828125 45.381406 L 72.371094 46.959531 L 73 48.900938 L 73.628906 51.088438 L 74.078125 52.498594 L 74.351562 53.330625 L 74.621094 53.111875 L 74.800781 52.40875 L 75.070312 51.490781 L 75.339844 50.350156 L 75.519531 49.248594 L 75.871094 47.838438 L 76.230469 46.479063 L 76.589844 45.291563 L 76.859375 44.498594 L 76.949219 44.150938 " transform="matrix(1,0,0,-1,0,84.94)"/>
<path style="fill:none;stroke-width:1.41;stroke-linecap:round;stroke-linejoin:round;stroke:rgb(0%,0%,0%);stroke-opacity:1;stroke-miterlimit:10;" d="M 73 46.568906 L 73.449219 46.650938 L 73.808594 46.568906 L 74.351562 46.518125 L 74.890625 46.428281 L 75.339844 46.428281 " transform="matrix(1,0,0,-1,0,84.94)"/>
<path style="fill:none;stroke-width:2.26;stroke-linecap:round;stroke-linejoin:round;stroke:rgb(0%,0%,0%);stroke-opacity:1;stroke-miterlimit:10;" d="M 52.960938 56.229063 L 52.699219 56.150938 L 52.609375 55.619688 L 52.519531 54.299375 L 52.339844 52.061094 L 52.070312 49.111875 L 51.800781 46.350156 L 51.710938 44.240781 L 51.621094 42.869688 L 51.53125 42.389219 L 51.53125 42.041563 " transform="matrix(1,0,0,-1,0,84.94)"/>
<path style="fill:none;stroke-width:2.26;stroke-linecap:round;stroke-linejoin:round;stroke:rgb(0%,0%,0%);stroke-opacity:1;stroke-miterlimit:10;" d="M 53.140625 57.068906 L 53.320312 57.459531 L 53.679688 57.768125 L 54.128906 58.119688 L 54.941406 58.209531 L 56.019531 58.209531 L 57.011719 57.768125 L 58.179688 57.029844 L 58.980469 56.010313 L 59.519531 54.869688 L 59.609375 53.69 L 59.25 52.451719 L 58.449219 51.268125 L 57.460938 50.260313 L 56.199219 49.420469 L 55.03125 48.979063 L 53.949219 48.900938 L 53.050781 49.068906 L 52.519531 49.420469 L 52.25 49.729063 " transform="matrix(1,0,0,-1,0,84.94)"/>
<path style="fill:none;stroke-width:2.26;stroke-linecap:round;stroke-linejoin:round;stroke:rgb(0%,0%,0%);stroke-opacity:1;stroke-miterlimit:10;" d="M 84.679688 50.080625 L 85.039062 50.080625 L 85.761719 50.131406 L 86.839844 50.209531 L 88.179688 50.350156 L 89.621094 50.518125 L 90.96875 50.701719 L 92.230469 50.740781 L 93.300781 50.650938 L 94.109375 50.518125 L 94.648438 50.389219 L 95.550781 50.080625 L 96.449219 49.768125 L 97.53125 49.330625 L 98.699219 48.588438 L 99.5 47.881406 L 100.128906 47.178281 L 100.761719 46.299375 L 101.300781 45.291563 L 101.839844 44.19 L 102.378906 42.869688 L 102.921875 41.47125 L 103.371094 40.150938 L 103.730469 38.740781 L 104 37.248594 L 104.089844 35.889219 L 104.089844 34.611875 L 103.910156 33.428281 L 103.730469 32.588438 L 103.460938 31.838438 L 103.28125 31.318906 L 103.011719 30.920469 L 102.738281 30.389219 L 102.378906 29.650938 L 102.019531 28.900938 L 101.570312 27.979063 L 101.03125 27.049375 L 100.488281 26.311094 L 99.769531 25.561094 L 99.230469 24.900938 L 98.609375 24.330625 L 97.980469 23.760313 L 97.441406 23.279844 L 96.808594 22.791563 L 96.359375 22.400938 L 95.910156 22.131406 L 95.640625 21.959531 L 95.191406 21.69 L 95.011719 21.518125 L 94.558594 21.209531 L 94.109375 20.900938 L 93.480469 20.588438 L 92.949219 20.330625 L 92.5 20.240781 L 92.050781 20.111875 L 91.78125 20.018125 L 91.511719 19.94 L 91.328125 20.111875 " transform="matrix(1,0,0,-1,0,84.94)"/>
<path style="fill:none;stroke-width:2.26;stroke-linecap:round;stroke-linejoin:round;stroke:rgb(0%,0%,0%);stroke-opacity:1;stroke-miterlimit:10;" d="M 33.109375 52.760313 L 32.75 52.850156 L 32.300781 53.029844 L 31.488281 53.248594 L 30.589844 53.549375 L 29.699219 53.768125 L 28.621094 53.90875 L 27.359375 53.951719 L 26.011719 53.90875 L 24.570312 53.639219 L 23.140625 53.291563 L 21.96875 52.850156 L 21.070312 52.498594 L 20.261719 52.061094 L 19.449219 51.490781 L 18.640625 50.869688 L 17.75 49.990781 L 16.851562 49.029844 L 15.949219 47.928281 L 15.050781 46.791563 L 14.238281 45.561094 L 13.609375 44.369688 L 13.25 43.049375 L 13.070312 41.561094 L 13.070312 40.018125 L 13.160156 38.44 L 13.160156 33.209531 L 13.25 31.268125 L 13.429688 29.600156 L 13.699219 28.018125 L 14.148438 26.44 L 14.78125 25.119688 L 15.320312 24.111875 L 15.949219 23.229063 L 16.398438 22.65875 L 16.851562 22.178281 L 17.660156 21.428281 L 18.550781 20.678281 L 19.628906 20.068906 L 20.890625 19.541563 L 22.148438 19.318906 L 23.320312 19.19 L 24.660156 19.061094 L 25.828125 18.97125 L 26.820312 18.920469 L 29.25 18.920469 L 29.699219 18.881406 L 29.960938 18.920469 " transform="matrix(1,0,0,-1,0,84.94)"/>
<path style="fill:none;stroke-width:2.26;stroke-linecap:round;stroke-linejoin:round;stroke:rgb(0%,0%,0%);stroke-opacity:1;stroke-miterlimit:10;" d="M 29.25 18.350156 L 34.378906 18.428281 L 39.519531 18.510313 L 44.648438 18.580625 L 49.789062 18.65875 L 54.929688 18.740781 L 60.058594 18.811094 L 65.199219 18.889219 L 70.328125 18.97125 L 75.46875 19.049375 L 80.609375 19.119688 L 85.738281 19.201719 L 90.878906 19.279844 " transform="matrix(1,0,0,-1,0,84.94)"/>
<path style="fill:none;stroke-width:1.41;stroke-linecap:round;stroke-linejoin:round;stroke:rgb(100%,0%,0%);stroke-opacity:1;stroke-miterlimit:10;" d="M 38.101562 65.869688 L 37.828125 65.90875 L 37.558594 65.818906 L 37.378906 65.650938 L 37.019531 65.291563 L 36.75 64.94 L 36.390625 64.459531 L 36.121094 63.889219 L 35.941406 63.229063 L 35.761719 62.389219 L 35.941406 61.428281 L 36.210938 60.498594 L 36.75 59.631406 L 37.738281 58.97125 L 38.820312 58.65875 L 40.160156 58.65875 L 41.421875 59.049375 L 42.320312 59.670469 L 42.769531 60.498594 L 42.949219 61.428281 L 42.769531 62.260313 L 42.320312 63.049375 L 41.78125 63.838438 L 40.96875 64.498594 L 40.160156 65.029844 L 39.449219 65.291563 L 38.820312 65.381406 L 38.460938 65.381406 " transform="matrix(1,0,0,-1,0,84.94)"/>
<path style="fill:none;stroke-width:1.41;stroke-linecap:round;stroke-linejoin:round;stroke:rgb(100%,0%,0%);stroke-opacity:1;stroke-miterlimit:10;" d="M 35.851562 58.088438 L 35.761719 58.311094 L 36.300781 58.97125 L 37.289062 60.240781 L 38.820312 61.951719 L 40.609375 64.150938 L 42.050781 65.951719 L 42.949219 67.139219 L 43.398438 67.709531 " transform="matrix(1,0,0,-1,0,84.94)"/>
<path style="fill:none;stroke-width:1.41;stroke-linecap:round;stroke-linejoin:round;stroke:rgb(100%,0%,0%);stroke-opacity:1;stroke-miterlimit:10;" d="M 165.78125 61.568906 L 165.511719 61.611875 L 164.96875 61.260313 L 164.25 60.639219 L 163.628906 59.811094 L 163.179688 58.799375 L 163.089844 57.701719 L 163.359375 56.510313 L 163.980469 55.40875 L 165.238281 54.580625 L 166.589844 54.229063 L 167.941406 54.361875 L 169.109375 54.97125 L 169.820312 56.029844 L 170.089844 57.260313 L 170 58.748594 L 169.460938 59.979063 L 168.660156 60.951719 L 167.761719 61.568906 L 167.128906 61.830625 L 166.679688 61.920469 L 166.320312 61.830625 L 166.050781 61.740781 " transform="matrix(1,0,0,-1,0,84.94)"/>
<path style="fill:none;stroke-width:1.41;stroke-linecap:round;stroke-linejoin:round;stroke:rgb(100%,0%,0%);stroke-opacity:1;stroke-miterlimit:10;" d="M 162.101562 53.350156 L 162.191406 53.611875 L 162.640625 54.361875 L 163.800781 55.760313 L 165.601562 58.010313 L 167.578125 60.248594 L 169.289062 62.139219 L 170.359375 63.40875 L 170.71875 63.850156 " transform="matrix(1,0,0,-1,0,84.94)"/>
<path style="fill:none;stroke-width:1.41;stroke-linecap:round;stroke-linejoin:round;stroke:rgb(0%,0%,0%);stroke-opacity:1;stroke-miterlimit:10;" d="M 171.890625 51.40875 L 172.25 52.248594 L 172.96875 53.701719 L 174.050781 55.588438 L 175.300781 57.830625 L 176.46875 60.15875 L 177.28125 61.959531 L 177.910156 63.318906 L 178.359375 64.248594 L 178.628906 64.818906 L 178.71875 65.080625 L 178.898438 65.428281 " transform="matrix(1,0,0,-1,0,84.94)"/>
<path style="fill:none;stroke-width:1.41;stroke-linecap:round;stroke-linejoin:round;stroke:rgb(0%,0%,0%);stroke-opacity:1;stroke-miterlimit:10;" d="M 180.339844 58.490781 L 180.160156 58.65875 L 180.070312 58.451719 L 180.070312 57.650938 L 179.980469 55.850156 L 179.890625 53.830625 L 179.800781 51.94 L 179.621094 50.400938 L 179.621094 49.701719 L 179.53125 49.260313 L 179.53125 48.90875 " transform="matrix(1,0,0,-1,0,84.94)"/>
<path style="fill:none;stroke-width:1.41;stroke-linecap:round;stroke-linejoin:round;stroke:rgb(0%,0%,0%);stroke-opacity:1;stroke-miterlimit:10;" d="M 180.339844 57.389219 L 180.429688 58.268125 L 180.878906 59.279844 L 181.769531 60.111875 L 182.851562 60.549375 L 183.929688 60.420469 L 184.738281 59.72125 L 185.191406 58.709531 L 185.191406 57.650938 L 184.738281 56.600156 L 183.929688 55.94 L 182.851562 55.498594 L 181.769531 55.369688 L 181.050781 55.40875 L 180.429688 55.498594 L 180.160156 55.541563 " transform="matrix(1,0,0,-1,0,84.94)"/>
<path style="fill:none;stroke-width:1.41;stroke-linecap:round;stroke-linejoin:round;stroke:rgb(0%,0%,0%);stroke-opacity:1;stroke-miterlimit:10;" d="M 153.921875 58.490781 L 153.558594 58.139219 L 153.199219 58.049375 L 152.570312 57.959531 L 151.589844 57.869688 L 150.421875 57.791563 L 149.160156 57.650938 L 147.808594 57.428281 L 146.730469 57.170469 L 145.570312 56.779844 L 144.398438 56.15875 L 143.410156 55.459531 L 142.601562 54.670469 L 141.789062 53.568906 L 141.070312 52.420469 L 140.359375 51.150938 L 139.730469 49.701719 L 139.28125 48.291563 L 138.921875 46.889219 L 138.828125 45.260313 L 138.738281 43.768125 L 138.828125 42.229063 L 138.921875 40.600156 L 139.191406 39.018125 L 139.460938 37.479063 L 139.910156 35.900938 L 140.449219 34.490781 L 140.980469 33.178281 L 141.789062 31.729063 L 142.601562 30.361875 L 143.5 28.959531 L 144.671875 27.510313 L 145.75 26.318906 L 147 25.311094 L 148.53125 24.389219 L 150.058594 23.729063 L 151.679688 23.240781 L 153.289062 22.760313 L 154.820312 22.40875 L 156.351562 22.150938 L 157.960938 22.010313 L 159.671875 22.010313 L 161.46875 22.150938 L 163.269531 22.498594 L 165.328125 23.068906 L 167.128906 23.818906 L 168.929688 24.701719 L 170.628906 25.619688 L 171.890625 26.541563 L 173.058594 27.639219 L 174.230469 28.959531 L 175.128906 30.100156 L 175.839844 31.150938 L 176.46875 32.248594 L 176.921875 33.311094 L 177.371094 34.541563 L 177.730469 35.990781 L 177.910156 37.350156 L 178 38.541563 L 178 40.869688 L 177.910156 41.881406 L 177.820312 42.709531 L 177.730469 43.498594 L 177.730469 44.381406 L 177.011719 44.029844 L 176.378906 43.369688 L 175.570312 42.619688 L 174.949219 41.920469 L 174.679688 41.44 L 174.5 41.22125 L 174.769531 41.44 L 175.210938 41.97125 L 175.75 42.709531 L 176.378906 43.588438 L 177.011719 44.291563 L 177.460938 44.90875 L 177.730469 45.350156 L 178 45.479063 L 178.449219 45.260313 L 178.808594 44.869688 L 179.351562 44.381406 L 179.890625 43.990781 L 180.519531 43.549375 L 181.230469 43.061094 L 181.859375 42.580625 L 182.398438 42.19 L 182.671875 41.97125 " transform="matrix(1,0,0,-1,0,84.94)"/>
<path style="fill:none;stroke-width:1.41;stroke-linecap:round;stroke-linejoin:round;stroke:rgb(0%,0%,0%);stroke-opacity:1;stroke-miterlimit:10;" d="M 195.519531 60.47125 L 195.25 60.029844 L 194.351562 59.279844 L 193.269531 58.361875 L 192.019531 57.479063 L 191.121094 56.818906 L 190.851562 56.291563 L 191.210938 55.631406 L 192.289062 54.529844 L 193.628906 53.389219 L 194.980469 52.420469 L 195.878906 51.72125 L 196.238281 51.549375 " transform="matrix(1,0,0,-1,0,84.94)"/>
<path style="fill:none;stroke-width:1.41;stroke-linecap:round;stroke-linejoin:round;stroke:rgb(0%,0%,0%);stroke-opacity:1;stroke-miterlimit:10;" d="M 191.839844 54.889219 L 192.199219 55.150938 L 193.089844 55.318906 L 194.261719 55.588438 L 195.609375 55.850156 L 197.050781 56.068906 L 198.390625 56.201719 L 199.648438 56.291563 L 201.179688 56.338438 L 202.710938 56.510313 L 204.230469 56.69 L 205.578125 56.818906 L 206.570312 56.90875 L 207.46875 56.818906 L 208.460938 56.779844 L 209.539062 56.729063 L 213.128906 56.729063 L 213.488281 56.69 L 213.761719 56.600156 L 214.121094 56.47125 " transform="matrix(1,0,0,-1,0,84.94)"/>
<path style="fill:none;stroke-width:1.41;stroke-linecap:round;stroke-linejoin:round;stroke:rgb(0%,0%,0%);stroke-opacity:1;stroke-miterlimit:10;" d="M 119.058594 66.709531 L 118.789062 66.490781 L 118.339844 65.998594 L 117.800781 65.209531 L 117.089844 64.111875 L 116.550781 62.928281 L 116.191406 61.611875 L 116.191406 60.029844 L 116.550781 58.580625 L 116.910156 57.428281 L 117.449219 56.510313 L 117.800781 56.119688 L 118.070312 56.068906 L 118.429688 56.029844 L 118.699219 56.201719 " transform="matrix(1,0,0,-1,0,84.94)"/>
<path style="fill:none;stroke-width:1.41;stroke-linecap:round;stroke-linejoin:round;stroke:rgb(0%,0%,0%);stroke-opacity:1;stroke-miterlimit:10;" d="M 138.289062 67.631406 L 138.828125 67.100156 L 139.730469 65.740781 L 140.539062 63.811094 L 141.070312 61.428281 L 140.890625 59.061094 L 140.359375 57.350156 L 139.730469 56.248594 L 139.191406 55.631406 " transform="matrix(1,0,0,-1,0,84.94)"/>
<path style="fill:none;stroke-width:1.41;stroke-linecap:round;stroke-linejoin:round;stroke:rgb(0%,0%,0%);stroke-opacity:1;stroke-miterlimit:10;" d="M 120.390625 57.119688 L 120.660156 57.959531 L 120.929688 59.100156 L 121.289062 60.72125 L 121.738281 62.568906 L 122.101562 63.928281 L 122.460938 64.588438 L 122.910156 63.979063 L 123.449219 62.311094 L 124.160156 60.150938 L 124.789062 58.088438 L 125.238281 56.811094 L 125.511719 56.201719 " transform="matrix(1,0,0,-1,0,84.94)"/>
<path style="fill:none;stroke-width:1.41;stroke-linecap:round;stroke-linejoin:round;stroke:rgb(0%,0%,0%);stroke-opacity:1;stroke-miterlimit:10;" d="M 121.289062 59.631406 L 121.921875 59.580625 L 122.730469 59.541563 L 123.800781 59.40875 L 124.519531 59.361875 L 124.96875 59.361875 " transform="matrix(1,0,0,-1,0,84.94)"/>
<path style="fill:none;stroke-width:1.41;stroke-linecap:round;stroke-linejoin:round;stroke:rgb(0%,0%,0%);stroke-opacity:1;stroke-miterlimit:10;" d="M 128.300781 58.748594 L 128.390625 58.44 L 128.75 58.131406 L 129.289062 57.518125 L 129.550781 56.678281 L 129.550781 55.709531 L 129.378906 54.920469 L 129.019531 54.568906 L 128.75 54.44 " transform="matrix(1,0,0,-1,0,84.94)"/>
<path style="fill:none;stroke-width:1.41;stroke-linecap:round;stroke-linejoin:round;stroke:rgb(0%,0%,0%);stroke-opacity:1;stroke-miterlimit:10;" d="M 131.800781 63.709531 L 131.800781 62.791563 L 131.890625 61.248594 L 131.890625 59.541563 L 131.980469 57.959531 L 131.890625 56.990781 L 131.890625 56.639219 " transform="matrix(1,0,0,-1,0,84.94)"/>
<path style="fill:none;stroke-width:1.41;stroke-linecap:round;stroke-linejoin:round;stroke:rgb(0%,0%,0%);stroke-opacity:1;stroke-miterlimit:10;" d="M 132.519531 58.97125 L 133.148438 59.361875 L 133.78125 59.580625 L 134.5 59.709531 L 135.039062 59.799375 L 135.390625 59.889219 " transform="matrix(1,0,0,-1,0,84.94)"/>
<path style="fill:none;stroke-width:1.41;stroke-linecap:round;stroke-linejoin:round;stroke:rgb(0%,0%,0%);stroke-opacity:1;stroke-miterlimit:10;" d="M 135.660156 63.361875 L 135.570312 63.100156 L 135.660156 62.311094 L 135.75 61.119688 L 135.929688 59.889219 L 136.019531 58.830625 L 136.019531 56.068906 " transform="matrix(1,0,0,-1,0,84.94)"/>
</g>
</svg>
