<?xml version="1.0" encoding="UTF-8"?>
<svg xmlns="http://www.w3.org/2000/svg" xmlns:xlink="http://www.w3.org/1999/xlink" width="215.988281pt" height="84.9375pt" viewBox="0 0 215.988281 84.9375" version="1.1">
<g id="surface1">
<path style="fill:none;stroke-width:2.26;stroke-linecap:round;stroke-linejoin:round;stroke:rgb(0%,0%,0%);stroke-opacity:1;stroke-miterlimit:10;" d="M 27.988281 68.539063 L 27.539062 58.78125 " transform="matrix(1,0,0,-1,0,84.9375)"/>
<path style="fill:none;stroke-width:2.26;stroke-linecap:round;stroke-linejoin:round;stroke:rgb(0%,0%,0%);stroke-opacity:1;stroke-miterlimit:10;" d="M 26.191406 38.214844 L 26.101562 28.460938 " transform="matrix(1,0,0,-1,0,84.9375)"/>
<path style="fill:none;stroke-width:2.26;stroke-linecap:round;stroke-linejoin:round;stroke:rgb(0%,0%,0%);stroke-opacity:1;stroke-miterlimit:10;" d="M 26.191406 28.460938 L 31.359375 28.378906 L 36.523438 28.292969 L 41.691406 28.210938 L 46.855469 28.125 L 52.023438 28.042969 L 57.1875 27.960938 L 62.355469 27.875 L 67.519531 27.792969 L 72.6875 27.710938 L 77.851562 27.625 " transform="matrix(1,0,0,-1,0,84.9375)"/>
<path style="fill:none;stroke-width:2.26;stroke-linecap:round;stroke-linejoin:round;stroke:rgb(0%,0%,0%);stroke-opacity:1;stroke-miterlimit:10;" d="M 77.941406 27.976563 L 78.300781 35.449219 " transform="matrix(1,0,0,-1,0,84.9375)"/>
<path style="fill:none;stroke-width:2.26;stroke-linecap:round;stroke-linejoin:round;stroke:rgb(0%,0%,0%);stroke-opacity:1;stroke-miterlimit:10;" d="M 75.785156 59.222656 L 75.785156 67.921875 " transform="matrix(1,0,0,-1,0,84.9375)"/>
<path style="fill:none;stroke-width:2.26;stroke-linecap:round;stroke-linejoin:round;stroke:rgb(0%,0%,0%);stroke-opacity:1;stroke-miterlimit:10;" d="M 75.964844 67.878906 L 65.441406 67.957031 L 60.183594 67.996094 L 44.398438 68.113281 L 39.140625 68.152344 L 28.617188 68.230469 " transform="matrix(1,0,0,-1,0,84.9375)"/>
<path style="fill:none;stroke-width:2.26;stroke-linecap:round;stroke-linejoin:round;stroke:rgb(0%,0%,0%);stroke-opacity:1;stroke-miterlimit:10;" d="M 27.449219 58.476563 L 33.648438 58.476563 " transform="matrix(1,0,0,-1,0,84.9375)"/>
<path style="fill:none;stroke-width:2.26;stroke-linecap:round;stroke-linejoin:round;stroke:rgb(0%,0%,0%);stroke-opacity:1;stroke-miterlimit:10;" d="M 33.46875 58.035156 L 33.410156 51.546875 L 33.347656 45.058594 L 33.289062 38.566406 " transform="matrix(1,0,0,-1,0,84.9375)"/>
<path style="fill:none;stroke-width:2.26;stroke-linecap:round;stroke-linejoin:round;stroke:rgb(0%,0%,0%);stroke-opacity:1;stroke-miterlimit:10;" d="M 33.289062 38.699219 L 26.371094 38.964844 " transform="matrix(1,0,0,-1,0,84.9375)"/>
<path style="fill:none;stroke-width:2.26;stroke-linecap:round;stroke-linejoin:round;stroke:rgb(0%,0%,0%);stroke-opacity:1;stroke-miterlimit:10;" d="M 77.222656 59.574219 L 81.894531 59.132813 " transform="matrix(1,0,0,-1,0,84.9375)"/>
<path style="fill:none;stroke-width:2.26;stroke-linecap:round;stroke-linejoin:round;stroke:rgb(0%,0%,0%);stroke-opacity:1;stroke-miterlimit:10;" d="M 82.433594 59.132813 L 83.152344 37.335938 " transform="matrix(1,0,0,-1,0,84.9375)"/>
<path style="fill:none;stroke-width:2.26;stroke-linecap:round;stroke-linejoin:round;stroke:rgb(0%,0%,0%);stroke-opacity:1;stroke-miterlimit:10;" d="M 83.332031 37.207031 L 78.121094 36.546875 " transform="matrix(1,0,0,-1,0,84.9375)"/>
<path style="fill:none;stroke-width:1.41;stroke-linecap:round;stroke-linejoin:round;stroke:rgb(0%,0%,0%);stroke-opacity:1;stroke-miterlimit:10;" d="M 37.242188 53.117188 L 37.332031 52.542969 L 37.332031 49.378906 L 37.152344 47.796875 L 36.972656 46.261719 L 36.703125 44.765625 L 36.433594 43.402344 L 36.253906 42.964844 L 36.164062 42.65625 L 36.433594 42.921875 " transform="matrix(1,0,0,-1,0,84.9375)"/>
<path style="fill:none;stroke-width:1.41;stroke-linecap:round;stroke-linejoin:round;stroke:rgb(0%,0%,0%);stroke-opacity:1;stroke-miterlimit:10;" d="M 37.960938 48.28125 L 38.410156 48.371094 L 38.769531 48.371094 L 39.308594 48.324219 L 40.027344 48.195313 L 40.65625 48.019531 L 41.195312 47.84375 L 41.464844 47.710938 " transform="matrix(1,0,0,-1,0,84.9375)"/>
<path style="fill:none;stroke-width:1.41;stroke-linecap:round;stroke-linejoin:round;stroke:rgb(0%,0%,0%);stroke-opacity:1;stroke-miterlimit:10;" d="M 41.734375 51.445313 L 41.644531 51.664063 L 41.644531 51.136719 L 41.734375 50.742188 L 41.734375 49.777344 L 41.644531 48.238281 L 41.554688 46.214844 L 41.554688 44.28125 L 41.464844 43.050781 L 41.554688 42.789063 " transform="matrix(1,0,0,-1,0,84.9375)"/>
<path style="fill:none;stroke-width:1.41;stroke-linecap:round;stroke-linejoin:round;stroke:rgb(0%,0%,0%);stroke-opacity:1;stroke-miterlimit:10;" d="M 71.292969 43.753906 L 71.203125 43.492188 L 71.382812 44.28125 L 71.832031 45.382813 L 72.371094 46.964844 L 73 48.898438 L 73.628906 51.09375 L 74.078125 52.5 L 74.347656 53.335938 L 74.617188 53.117188 L 74.796875 52.414063 L 75.066406 51.488281 L 75.335938 50.347656 L 75.515625 49.25 L 75.875 47.84375 L 76.234375 46.480469 L 76.59375 45.292969 L 76.863281 44.503906 L 76.953125 44.152344 " transform="matrix(1,0,0,-1,0,84.9375)"/>
<path style="fill:none;stroke-width:1.41;stroke-linecap:round;stroke-linejoin:round;stroke:rgb(0%,0%,0%);stroke-opacity:1;stroke-miterlimit:10;" d="M 73 46.566406 L 73.449219 46.65625 L 73.808594 46.566406 L 74.347656 46.523438 L 74.886719 46.4375 L 75.335938 46.4375 " transform="matrix(1,0,0,-1,0,84.9375)"/>
<path style="fill:none;stroke-width:2.26;stroke-linecap:round;stroke-linejoin:round;stroke:rgb(0%,0%,0%);stroke-opacity:1;stroke-miterlimit:10;" d="M 52.964844 56.234375 L 52.695312 56.148438 L 52.605469 55.621094 L 52.515625 54.300781 L 52.335938 52.0625 L 52.066406 49.117188 L 51.796875 46.347656 L 51.707031 44.238281 L 51.617188 42.875 L 51.527344 42.394531 L 51.527344 42.042969 " transform="matrix(1,0,0,-1,0,84.9375)"/>
<path style="fill:none;stroke-width:2.26;stroke-linecap:round;stroke-linejoin:round;stroke:rgb(0%,0%,0%);stroke-opacity:1;stroke-miterlimit:10;" d="M 53.144531 57.070313 L 53.324219 57.464844 L 53.683594 57.773438 L 54.132812 58.125 L 54.941406 58.214844 L 56.019531 58.214844 L 57.007812 57.773438 L 58.175781 57.027344 L 58.984375 56.015625 L 59.523438 54.875 L 59.613281 53.6875 L 59.253906 52.457031 L 58.445312 51.269531 L 57.457031 50.257813 L 56.199219 49.425781 L 55.03125 48.984375 L 53.953125 48.898438 L 53.054688 49.074219 L 52.515625 49.425781 L 52.246094 49.730469 " transform="matrix(1,0,0,-1,0,84.9375)"/>
<path style="fill:none;stroke-width:2.26;stroke-linecap:round;stroke-linejoin:round;stroke:rgb(0%,0%,0%);stroke-opacity:1;stroke-miterlimit:10;" d="M 84.679688 50.082031 L 85.039062 50.082031 L 85.757812 50.128906 L 86.835938 50.214844 L 88.183594 50.347656 L 89.621094 50.523438 L 90.96875 50.699219 L 92.226562 50.742188 L 93.304688 50.65625 L 94.113281 50.523438 L 94.652344 50.390625 L 95.550781 50.082031 L 96.449219 49.777344 L 97.527344 49.335938 L 98.695312 48.589844 L 99.503906 47.886719 L 100.132812 47.183594 L 100.761719 46.304688 L 101.300781 45.292969 L 101.839844 44.195313 L 102.378906 42.875 L 102.917969 41.46875 L 103.367188 40.152344 L 103.726562 38.746094 L 103.996094 37.25 L 104.085938 35.890625 L 104.085938 34.613281 L 103.90625 33.429688 L 103.726562 32.59375 L 103.457031 31.847656 L 103.277344 31.320313 L 103.007812 30.921875 L 102.738281 30.394531 L 102.019531 28.902344 L 101.570312 27.980469 L 101.03125 27.054688 L 100.492188 26.308594 L 99.773438 25.5625 L 99.234375 24.902344 L 97.976562 23.761719 L 97.4375 23.277344 L 96.808594 22.792969 L 96.359375 22.398438 L 95.910156 22.132813 L 95.640625 21.957031 L 95.191406 21.695313 L 95.011719 21.519531 L 94.113281 20.902344 L 93.484375 20.597656 L 92.945312 20.332031 L 92.496094 20.246094 L 92.046875 20.113281 L 91.777344 20.023438 L 91.507812 19.9375 L 91.328125 20.113281 " transform="matrix(1,0,0,-1,0,84.9375)"/>
<path style="fill:none;stroke-width:2.26;stroke-linecap:round;stroke-linejoin:round;stroke:rgb(0%,0%,0%);stroke-opacity:1;stroke-miterlimit:10;" d="M 33.109375 52.765625 L 32.75 52.851563 L 32.300781 53.027344 L 31.492188 53.246094 L 30.59375 53.554688 L 29.695312 53.773438 L 28.617188 53.90625 L 27.359375 53.949219 L 26.011719 53.90625 L 24.574219 53.644531 L 23.136719 53.292969 L 21.96875 52.851563 L 21.070312 52.5 L 20.261719 52.0625 L 19.453125 51.488281 L 18.644531 50.875 L 17.746094 49.996094 L 16.847656 49.027344 L 15.949219 47.929688 L 15.050781 46.789063 L 14.242188 45.558594 L 13.613281 44.371094 L 13.253906 43.050781 L 13.074219 41.558594 L 13.074219 40.019531 L 13.164062 38.4375 L 13.164062 33.207031 L 13.253906 31.273438 L 13.433594 29.605469 L 13.703125 28.023438 L 14.152344 26.441406 L 14.78125 25.121094 L 15.320312 24.113281 L 15.949219 23.234375 L 16.398438 22.660156 L 16.847656 22.179688 L 17.65625 21.429688 L 18.554688 20.683594 L 19.632812 20.070313 L 20.890625 19.542969 L 22.148438 19.320313 L 23.316406 19.191406 L 24.664062 19.058594 L 25.832031 18.96875 L 26.820312 18.925781 L 29.246094 18.925781 L 29.695312 18.882813 L 29.964844 18.925781 " transform="matrix(1,0,0,-1,0,84.9375)"/>
<path style="fill:none;stroke-width:2.26;stroke-linecap:round;stroke-linejoin:round;stroke:rgb(0%,0%,0%);stroke-opacity:1;stroke-miterlimit:10;" d="M 29.246094 18.355469 L 34.382812 18.429688 L 39.519531 18.507813 L 44.652344 18.585938 L 49.789062 18.664063 L 54.925781 18.738281 L 65.199219 18.894531 L 70.335938 18.96875 L 75.46875 19.046875 L 80.605469 19.125 L 85.742188 19.199219 L 90.878906 19.277344 " transform="matrix(1,0,0,-1,0,84.9375)"/>
<path style="fill:none;stroke-width:1.41;stroke-linecap:round;stroke-linejoin:round;stroke:rgb(100%,0%,0%);stroke-opacity:1;stroke-miterlimit:10;" d="M 38.097656 65.867188 L 37.828125 65.910156 L 37.558594 65.824219 L 37.019531 65.296875 L 36.75 64.945313 L 36.390625 64.460938 L 36.121094 63.890625 L 35.941406 63.230469 L 35.761719 62.394531 L 35.941406 61.429688 L 36.210938 60.507813 L 36.75 59.628906 L 37.738281 58.96875 L 38.816406 58.660156 L 40.164062 58.660156 L 41.421875 59.054688 L 42.320312 59.671875 L 42.769531 60.507813 L 42.949219 61.429688 L 42.769531 62.265625 L 42.320312 63.054688 L 41.78125 63.847656 L 40.972656 64.503906 L 40.164062 65.03125 L 39.445312 65.296875 L 38.816406 65.382813 L 38.457031 65.382813 " transform="matrix(1,0,0,-1,0,84.9375)"/>
<path style="fill:none;stroke-width:1.41;stroke-linecap:round;stroke-linejoin:round;stroke:rgb(100%,0%,0%);stroke-opacity:1;stroke-miterlimit:10;" d="M 35.851562 58.089844 L 35.761719 58.308594 L 36.300781 58.96875 L 37.289062 60.242188 L 38.816406 61.957031 L 40.613281 64.152344 L 42.050781 65.957031 L 42.949219 67.140625 L 43.398438 67.714844 " transform="matrix(1,0,0,-1,0,84.9375)"/>
<path style="fill:none;stroke-width:1.41;stroke-linecap:round;stroke-linejoin:round;stroke:rgb(100%,0%,0%);stroke-opacity:1;stroke-miterlimit:10;" d="M 165.78125 61.566406 L 165.511719 61.609375 L 164.972656 61.257813 L 164.253906 60.644531 L 163.625 59.808594 L 163.175781 58.796875 L 163.085938 57.699219 L 163.355469 56.511719 L 163.984375 55.414063 L 165.242188 54.578125 L 166.589844 54.226563 L 167.9375 54.359375 L 169.105469 54.976563 L 169.824219 56.03125 L 170.09375 57.261719 L 170.003906 58.753906 L 169.464844 59.984375 L 168.65625 60.953125 L 167.757812 61.566406 L 167.128906 61.832031 L 166.679688 61.917969 L 166.320312 61.832031 L 166.050781 61.742188 " transform="matrix(1,0,0,-1,0,84.9375)"/>
<path style="fill:none;stroke-width:1.41;stroke-linecap:round;stroke-linejoin:round;stroke:rgb(100%,0%,0%);stroke-opacity:1;stroke-miterlimit:10;" d="M 162.097656 53.347656 L 162.1875 53.613281 L 162.636719 54.359375 L 163.804688 55.765625 L 165.601562 58.007813 L 167.578125 60.25 L 169.285156 62.136719 L 170.363281 63.414063 L 170.722656 63.851563 " transform="matrix(1,0,0,-1,0,84.9375)"/>
<path style="fill:none;stroke-width:1.41;stroke-linecap:round;stroke-linejoin:round;stroke:rgb(0%,0%,0%);stroke-opacity:1;stroke-miterlimit:10;" d="M 171.890625 51.414063 L 172.25 52.25 L 172.96875 53.699219 L 174.046875 55.589844 L 175.304688 57.832031 L 176.472656 60.160156 L 177.28125 61.960938 L 177.910156 63.324219 L 178.359375 64.246094 L 178.628906 64.820313 L 178.71875 65.082031 L 178.898438 65.433594 " transform="matrix(1,0,0,-1,0,84.9375)"/>
<path style="fill:none;stroke-width:1.41;stroke-linecap:round;stroke-linejoin:round;stroke:rgb(0%,0%,0%);stroke-opacity:1;stroke-miterlimit:10;" d="M 180.335938 58.492188 L 180.15625 58.667969 L 180.066406 58.445313 L 180.066406 57.65625 L 179.976562 55.855469 L 179.886719 53.832031 L 179.796875 51.941406 L 179.617188 50.40625 L 179.617188 49.703125 L 179.527344 49.261719 L 179.527344 48.910156 " transform="matrix(1,0,0,-1,0,84.9375)"/>
<path style="fill:none;stroke-width:1.41;stroke-linecap:round;stroke-linejoin:round;stroke:rgb(0%,0%,0%);stroke-opacity:1;stroke-miterlimit:10;" d="M 180.335938 57.390625 L 180.425781 58.269531 L 180.875 59.28125 L 181.773438 60.117188 L 182.851562 60.554688 L 183.929688 60.425781 L 184.738281 59.722656 L 185.1875 58.710938 L 185.1875 57.65625 L 184.738281 56.601563 L 183.929688 55.941406 L 182.851562 55.503906 L 181.773438 55.371094 L 181.054688 55.414063 L 180.425781 55.503906 L 180.15625 55.546875 " transform="matrix(1,0,0,-1,0,84.9375)"/>
<path style="fill:none;stroke-width:1.41;stroke-linecap:round;stroke-linejoin:round;stroke:rgb(0%,0%,0%);stroke-opacity:1;stroke-miterlimit:10;" d="M 153.921875 58.492188 L 153.5625 58.140625 L 153.203125 58.050781 L 152.574219 57.964844 L 151.585938 57.875 L 150.417969 57.789063 L 149.160156 57.65625 L 147.8125 57.4375 L 146.734375 57.171875 L 145.566406 56.777344 L 144.398438 56.160156 L 143.410156 55.457031 L 142.601562 54.667969 L 141.792969 53.570313 L 141.074219 52.425781 L 140.355469 51.152344 L 139.726562 49.703125 L 139.277344 48.296875 L 138.917969 46.890625 L 138.828125 45.261719 L 138.738281 43.769531 L 138.828125 42.230469 L 138.917969 40.605469 L 139.1875 39.023438 L 139.457031 37.484375 L 139.90625 35.902344 L 140.445312 34.496094 L 140.984375 33.179688 L 141.792969 31.726563 L 142.601562 30.367188 L 143.5 28.960938 L 144.667969 27.507813 L 145.746094 26.324219 L 147.003906 25.3125 L 148.53125 24.390625 L 150.058594 23.730469 L 153.292969 22.761719 L 154.820312 22.410156 L 156.347656 22.148438 L 157.964844 22.015625 L 159.671875 22.015625 L 161.46875 22.148438 L 163.265625 22.5 L 165.332031 23.070313 L 167.128906 23.816406 L 168.925781 24.695313 L 170.632812 25.621094 L 171.890625 26.542969 L 173.058594 27.640625 L 174.226562 28.960938 L 175.125 30.101563 L 175.84375 31.15625 L 176.472656 32.253906 L 176.921875 33.308594 L 177.371094 34.539063 L 177.730469 35.992188 L 177.910156 37.351563 L 178 38.539063 L 178 40.867188 L 177.910156 41.878906 L 177.820312 42.714844 L 177.730469 43.503906 L 177.730469 44.382813 L 177.011719 44.03125 L 176.382812 43.375 L 175.574219 42.625 L 174.945312 41.921875 L 174.675781 41.441406 L 174.496094 41.21875 L 174.765625 41.441406 L 175.214844 41.96875 L 175.753906 42.714844 L 176.382812 43.59375 L 177.011719 44.296875 L 177.460938 44.910156 L 177.730469 45.351563 L 178 45.484375 L 178.449219 45.261719 L 178.808594 44.867188 L 179.347656 44.382813 L 179.886719 43.988281 L 180.515625 43.550781 L 181.234375 43.066406 L 181.863281 42.582031 L 182.402344 42.1875 L 182.671875 41.96875 " transform="matrix(1,0,0,-1,0,84.9375)"/>
<path style="fill:none;stroke-width:1.41;stroke-linecap:round;stroke-linejoin:round;stroke:rgb(0%,0%,0%);stroke-opacity:1;stroke-miterlimit:10;" d="M 195.519531 60.46875 L 195.25 60.027344 L 194.351562 59.28125 L 193.273438 58.359375 L 192.015625 57.480469 L 191.117188 56.820313 L 190.847656 56.292969 L 191.207031 55.632813 L 192.285156 54.535156 L 193.632812 53.394531 L 194.980469 52.425781 L 195.878906 51.722656 L 196.238281 51.546875 " transform="matrix(1,0,0,-1,0,84.9375)"/>
<path style="fill:none;stroke-width:1.41;stroke-linecap:round;stroke-linejoin:round;stroke:rgb(0%,0%,0%);stroke-opacity:1;stroke-miterlimit:10;" d="M 191.835938 54.886719 L 192.195312 55.152344 L 193.09375 55.328125 L 194.261719 55.589844 L 195.609375 55.855469 L 197.046875 56.074219 L 198.394531 56.207031 L 199.652344 56.292969 L 201.179688 56.335938 L 204.234375 56.6875 L 205.582031 56.820313 L 206.570312 56.910156 L 207.46875 56.820313 L 208.457031 56.777344 L 209.535156 56.734375 L 213.128906 56.734375 L 213.488281 56.6875 L 213.757812 56.601563 L 214.117188 56.46875 " transform="matrix(1,0,0,-1,0,84.9375)"/>
<path style="fill:none;stroke-width:1.41;stroke-linecap:round;stroke-linejoin:round;stroke:rgb(0%,0%,0%);stroke-opacity:1;stroke-miterlimit:10;" d="M 119.0625 66.707031 L 118.792969 66.488281 L 118.34375 66.003906 L 117.804688 65.214844 L 117.085938 64.117188 L 116.546875 62.929688 L 116.1875 61.609375 L 116.1875 60.027344 L 116.546875 58.578125 L 116.90625 57.4375 L 117.445312 56.511719 L 117.804688 56.117188 L 118.074219 56.074219 L 118.433594 56.03125 L 118.703125 56.207031 " transform="matrix(1,0,0,-1,0,84.9375)"/>
<path style="fill:none;stroke-width:1.41;stroke-linecap:round;stroke-linejoin:round;stroke:rgb(0%,0%,0%);stroke-opacity:1;stroke-miterlimit:10;" d="M 138.289062 67.632813 L 138.828125 67.105469 L 139.726562 65.742188 L 140.535156 63.808594 L 141.074219 61.433594 L 140.894531 59.0625 L 140.355469 57.347656 L 139.726562 56.25 L 139.1875 55.632813 " transform="matrix(1,0,0,-1,0,84.9375)"/>
<path style="fill:none;stroke-width:1.41;stroke-linecap:round;stroke-linejoin:round;stroke:rgb(0%,0%,0%);stroke-opacity:1;stroke-miterlimit:10;" d="M 120.390625 57.121094 L 120.660156 57.957031 L 120.929688 59.101563 L 121.289062 60.726563 L 121.738281 62.570313 L 122.097656 63.933594 L 122.457031 64.59375 L 122.90625 63.976563 L 123.445312 62.308594 L 124.164062 60.15625 L 124.792969 58.089844 L 125.242188 56.816406 L 125.511719 56.199219 " transform="matrix(1,0,0,-1,0,84.9375)"/>
<path style="fill:none;stroke-width:1.41;stroke-linecap:round;stroke-linejoin:round;stroke:rgb(0%,0%,0%);stroke-opacity:1;stroke-miterlimit:10;" d="M 121.289062 59.628906 L 121.917969 59.582031 L 122.726562 59.539063 L 123.804688 59.40625 L 124.523438 59.363281 L 124.972656 59.363281 " transform="matrix(1,0,0,-1,0,84.9375)"/>
<path style="fill:none;stroke-width:1.41;stroke-linecap:round;stroke-linejoin:round;stroke:rgb(0%,0%,0%);stroke-opacity:1;stroke-miterlimit:10;" d="M 128.296875 58.75 L 128.386719 58.441406 L 128.746094 58.132813 L 129.285156 57.519531 L 129.554688 56.683594 L 129.554688 55.714844 L 129.375 54.925781 L 129.015625 54.574219 L 128.746094 54.441406 " transform="matrix(1,0,0,-1,0,84.9375)"/>
<path style="fill:none;stroke-width:1.41;stroke-linecap:round;stroke-linejoin:round;stroke:rgb(0%,0%,0%);stroke-opacity:1;stroke-miterlimit:10;" d="M 131.800781 63.714844 L 131.800781 62.792969 L 131.890625 61.253906 L 131.890625 59.539063 L 131.980469 57.957031 L 131.890625 56.992188 L 131.890625 56.640625 " transform="matrix(1,0,0,-1,0,84.9375)"/>
<path style="fill:none;stroke-width:1.41;stroke-linecap:round;stroke-linejoin:round;stroke:rgb(0%,0%,0%);stroke-opacity:1;stroke-miterlimit:10;" d="M 132.519531 58.96875 L 133.148438 59.363281 L 133.777344 59.582031 L 134.496094 59.714844 L 135.035156 59.804688 L 135.394531 59.890625 " transform="matrix(1,0,0,-1,0,84.9375)"/>
<path style="fill:none;stroke-width:1.41;stroke-linecap:round;stroke-linejoin:round;stroke:rgb(0%,0%,0%);stroke-opacity:1;stroke-miterlimit:10;" d="M 135.664062 63.363281 L 135.574219 63.097656 L 135.664062 62.308594 L 135.753906 61.121094 L 135.933594 59.890625 L 136.023438 58.835938 L 136.023438 56.066406 " transform="matrix(1,0,0,-1,0,84.9375)"/>
</g>
</svg>
