<?xml version="1.0" encoding="UTF-8"?>
<svg xmlns="http://www.w3.org/2000/svg" xmlns:xlink="http://www.w3.org/1999/xlink" width="229.31pt" height="123pt" viewBox="0 0 229.31 123" version="1.1">
<g id="surface1">
<path style="fill:none;stroke-width:2.26;stroke-linecap:round;stroke-linejoin:round;stroke:rgb(0%,0%,0%);stroke-opacity:1;stroke-miterlimit:10;" d="M 23.980469 118 L 23.53125 108.238281 " transform="matrix(1,0,0,-1,0,123)"/>
<path style="fill:none;stroke-width:2.26;stroke-linecap:round;stroke-linejoin:round;stroke:rgb(0%,0%,0%);stroke-opacity:1;stroke-miterlimit:10;" d="M 22.179688 87.679688 L 22.089844 77.921875 " transform="matrix(1,0,0,-1,0,123)"/>
<path style="fill:none;stroke-width:2.26;stroke-linecap:round;stroke-linejoin:round;stroke:rgb(0%,0%,0%);stroke-opacity:1;stroke-miterlimit:10;" d="M 22.179688 77.921875 L 27.351562 77.839844 L 32.511719 77.75 L 37.679688 77.671875 L 42.851562 77.589844 L 48.011719 77.5 L 53.179688 77.421875 L 58.339844 77.339844 L 63.511719 77.25 L 68.679688 77.171875 L 73.839844 77.089844 " transform="matrix(1,0,0,-1,0,123)"/>
<path style="fill:none;stroke-width:2.26;stroke-linecap:round;stroke-linejoin:round;stroke:rgb(0%,0%,0%);stroke-opacity:1;stroke-miterlimit:10;" d="M 73.929688 77.441406 L 74.289062 84.910156 " transform="matrix(1,0,0,-1,0,123)"/>
<path style="fill:none;stroke-width:2.26;stroke-linecap:round;stroke-linejoin:round;stroke:rgb(0%,0%,0%);stroke-opacity:1;stroke-miterlimit:10;" d="M 71.769531 108.679688 L 71.769531 117.378906 " transform="matrix(1,0,0,-1,0,123)"/>
<path style="fill:none;stroke-width:2.26;stroke-linecap:round;stroke-linejoin:round;stroke:rgb(0%,0%,0%);stroke-opacity:1;stroke-miterlimit:10;" d="M 71.949219 117.339844 L 66.691406 117.378906 L 61.429688 117.421875 L 56.171875 117.460938 L 45.648438 117.539062 L 40.390625 117.570312 L 35.128906 117.609375 L 29.871094 117.648438 L 24.609375 117.691406 " transform="matrix(1,0,0,-1,0,123)"/>
<path style="fill:none;stroke-width:2.26;stroke-linecap:round;stroke-linejoin:round;stroke:rgb(0%,0%,0%);stroke-opacity:1;stroke-miterlimit:10;" d="M 23.441406 107.941406 L 29.640625 107.941406 " transform="matrix(1,0,0,-1,0,123)"/>
<path style="fill:none;stroke-width:2.26;stroke-linecap:round;stroke-linejoin:round;stroke:rgb(0%,0%,0%);stroke-opacity:1;stroke-miterlimit:10;" d="M 29.460938 107.5 L 29.398438 101.011719 L 29.339844 94.519531 L 29.28125 88.03125 " transform="matrix(1,0,0,-1,0,123)"/>
<path style="fill:none;stroke-width:2.26;stroke-linecap:round;stroke-linejoin:round;stroke:rgb(0%,0%,0%);stroke-opacity:1;stroke-miterlimit:10;" d="M 29.28125 88.160156 L 22.359375 88.421875 " transform="matrix(1,0,0,-1,0,123)"/>
<path style="fill:none;stroke-width:2.26;stroke-linecap:round;stroke-linejoin:round;stroke:rgb(0%,0%,0%);stroke-opacity:1;stroke-miterlimit:10;" d="M 73.210938 109.03125 L 77.878906 108.589844 " transform="matrix(1,0,0,-1,0,123)"/>
<path style="fill:none;stroke-width:2.26;stroke-linecap:round;stroke-linejoin:round;stroke:rgb(0%,0%,0%);stroke-opacity:1;stroke-miterlimit:10;" d="M 78.421875 108.589844 L 78.601562 103.148438 L 79.140625 86.800781 " transform="matrix(1,0,0,-1,0,123)"/>
<path style="fill:none;stroke-width:2.26;stroke-linecap:round;stroke-linejoin:round;stroke:rgb(0%,0%,0%);stroke-opacity:1;stroke-miterlimit:10;" d="M 79.320312 86.671875 L 74.109375 86.011719 " transform="matrix(1,0,0,-1,0,123)"/>
<path style="fill:none;stroke-width:1.41;stroke-linecap:round;stroke-linejoin:round;stroke:rgb(0%,0%,0%);stroke-opacity:1;stroke-miterlimit:10;" d="M 33.230469 102.578125 L 33.320312 102 L 33.320312 98.839844 L 33.140625 97.261719 L 32.960938 95.71875 L 32.691406 94.230469 L 32.421875 92.859375 L 32.238281 92.421875 L 32.148438 92.121094 L 32.421875 92.378906 " transform="matrix(1,0,0,-1,0,123)"/>
<path style="fill:none;stroke-width:1.41;stroke-linecap:round;stroke-linejoin:round;stroke:rgb(0%,0%,0%);stroke-opacity:1;stroke-miterlimit:10;" d="M 33.949219 97.738281 L 34.398438 97.828125 L 34.761719 97.828125 L 35.300781 97.789062 L 36.019531 97.648438 L 36.648438 97.480469 L 37.191406 97.300781 L 37.449219 97.171875 " transform="matrix(1,0,0,-1,0,123)"/>
<path style="fill:none;stroke-width:1.41;stroke-linecap:round;stroke-linejoin:round;stroke:rgb(0%,0%,0%);stroke-opacity:1;stroke-miterlimit:10;" d="M 37.71875 100.910156 L 37.628906 101.121094 L 37.628906 100.601562 L 37.71875 100.199219 L 37.71875 99.238281 L 37.628906 97.699219 L 37.539062 95.679688 L 37.539062 93.738281 L 37.449219 92.511719 L 37.539062 92.25 " transform="matrix(1,0,0,-1,0,123)"/>
<path style="fill:none;stroke-width:1.41;stroke-linecap:round;stroke-linejoin:round;stroke:rgb(0%,0%,0%);stroke-opacity:1;stroke-miterlimit:10;" d="M 67.28125 93.210938 L 67.191406 92.949219 L 67.28125 93.351562 L 67.371094 93.738281 L 67.820312 94.839844 L 68.359375 96.421875 L 68.988281 98.359375 L 69.621094 100.550781 L 70.070312 101.960938 L 70.339844 102.789062 L 70.609375 102.578125 L 70.789062 101.871094 L 71.058594 100.949219 L 71.328125 99.808594 L 71.511719 98.710938 L 71.859375 97.300781 L 72.21875 95.941406 L 72.578125 94.75 L 72.851562 93.960938 L 72.941406 93.609375 " transform="matrix(1,0,0,-1,0,123)"/>
<path style="fill:none;stroke-width:1.41;stroke-linecap:round;stroke-linejoin:round;stroke:rgb(0%,0%,0%);stroke-opacity:1;stroke-miterlimit:10;" d="M 68.988281 96.03125 L 69.441406 96.121094 L 69.800781 96.03125 L 70.339844 95.980469 L 70.878906 95.898438 L 71.328125 95.898438 " transform="matrix(1,0,0,-1,0,123)"/>
<path style="fill:none;stroke-width:2.26;stroke-linecap:round;stroke-linejoin:round;stroke:rgb(0%,0%,0%);stroke-opacity:1;stroke-miterlimit:10;" d="M 48.949219 105.699219 L 48.679688 105.609375 L 48.601562 105.078125 L 48.511719 103.761719 L 48.328125 101.519531 L 48.058594 98.578125 L 47.789062 95.808594 L 47.699219 93.699219 L 47.609375 92.339844 L 47.519531 91.851562 L 47.519531 91.5 " transform="matrix(1,0,0,-1,0,123)"/>
<path style="fill:none;stroke-width:2.26;stroke-linecap:round;stroke-linejoin:round;stroke:rgb(0%,0%,0%);stroke-opacity:1;stroke-miterlimit:10;" d="M 49.128906 106.53125 L 49.308594 106.929688 L 49.671875 107.230469 L 50.121094 107.578125 L 50.929688 107.671875 L 52.011719 107.671875 L 53 107.230469 L 54.171875 106.488281 L 54.96875 105.480469 L 55.511719 104.328125 L 55.601562 103.148438 L 55.238281 101.921875 L 54.441406 100.730469 L 53.449219 99.71875 L 52.191406 98.878906 L 51.019531 98.441406 L 49.941406 98.359375 L 49.039062 98.53125 L 48.511719 98.878906 L 48.238281 99.191406 " transform="matrix(1,0,0,-1,0,123)"/>
<path style="fill:none;stroke-width:2.26;stroke-linecap:round;stroke-linejoin:round;stroke:rgb(0%,0%,0%);stroke-opacity:1;stroke-miterlimit:10;" d="M 24.789062 48.351562 L 24.339844 38.589844 " transform="matrix(1,0,0,-1,0,123)"/>
<path style="fill:none;stroke-width:2.26;stroke-linecap:round;stroke-linejoin:round;stroke:rgb(0%,0%,0%);stroke-opacity:1;stroke-miterlimit:10;" d="M 22.988281 18.019531 L 22.898438 8.269531 " transform="matrix(1,0,0,-1,0,123)"/>
<path style="fill:none;stroke-width:2.26;stroke-linecap:round;stroke-linejoin:round;stroke:rgb(0%,0%,0%);stroke-opacity:1;stroke-miterlimit:10;" d="M 22.988281 8.269531 L 28.160156 8.179688 L 33.320312 8.101562 L 38.488281 8.019531 L 43.648438 7.929688 L 48.820312 7.851562 L 53.988281 7.769531 L 59.148438 7.679688 L 64.320312 7.601562 L 69.480469 7.519531 L 74.648438 7.429688 " transform="matrix(1,0,0,-1,0,123)"/>
<path style="fill:none;stroke-width:2.26;stroke-linecap:round;stroke-linejoin:round;stroke:rgb(0%,0%,0%);stroke-opacity:1;stroke-miterlimit:10;" d="M 74.738281 7.78125 L 75.101562 15.25 " transform="matrix(1,0,0,-1,0,123)"/>
<path style="fill:none;stroke-width:2.26;stroke-linecap:round;stroke-linejoin:round;stroke:rgb(0%,0%,0%);stroke-opacity:1;stroke-miterlimit:10;" d="M 72.578125 39.03125 L 72.578125 47.730469 " transform="matrix(1,0,0,-1,0,123)"/>
<path style="fill:none;stroke-width:2.26;stroke-linecap:round;stroke-linejoin:round;stroke:rgb(0%,0%,0%);stroke-opacity:1;stroke-miterlimit:10;" d="M 72.761719 47.691406 L 67.5 47.730469 L 62.238281 47.761719 L 56.980469 47.800781 L 51.71875 47.839844 L 46.460938 47.878906 L 41.199219 47.921875 L 35.941406 47.960938 L 30.679688 48 L 25.421875 48.039062 " transform="matrix(1,0,0,-1,0,123)"/>
<path style="fill:none;stroke-width:2.26;stroke-linecap:round;stroke-linejoin:round;stroke:rgb(0%,0%,0%);stroke-opacity:1;stroke-miterlimit:10;" d="M 24.25 38.28125 L 30.449219 38.28125 " transform="matrix(1,0,0,-1,0,123)"/>
<path style="fill:none;stroke-width:2.26;stroke-linecap:round;stroke-linejoin:round;stroke:rgb(0%,0%,0%);stroke-opacity:1;stroke-miterlimit:10;" d="M 30.269531 37.839844 L 30.210938 31.351562 L 30.148438 24.859375 L 30.089844 18.371094 " transform="matrix(1,0,0,-1,0,123)"/>
<path style="fill:none;stroke-width:2.26;stroke-linecap:round;stroke-linejoin:round;stroke:rgb(0%,0%,0%);stroke-opacity:1;stroke-miterlimit:10;" d="M 30.089844 18.511719 L 23.171875 18.769531 " transform="matrix(1,0,0,-1,0,123)"/>
<path style="fill:none;stroke-width:2.26;stroke-linecap:round;stroke-linejoin:round;stroke:rgb(0%,0%,0%);stroke-opacity:1;stroke-miterlimit:10;" d="M 74.019531 39.378906 L 78.691406 38.941406 " transform="matrix(1,0,0,-1,0,123)"/>
<path style="fill:none;stroke-width:2.26;stroke-linecap:round;stroke-linejoin:round;stroke:rgb(0%,0%,0%);stroke-opacity:1;stroke-miterlimit:10;" d="M 79.230469 38.941406 L 79.410156 33.488281 L 79.949219 17.140625 " transform="matrix(1,0,0,-1,0,123)"/>
<path style="fill:none;stroke-width:2.26;stroke-linecap:round;stroke-linejoin:round;stroke:rgb(0%,0%,0%);stroke-opacity:1;stroke-miterlimit:10;" d="M 80.128906 17.011719 L 74.921875 16.351562 " transform="matrix(1,0,0,-1,0,123)"/>
<path style="fill:none;stroke-width:1.41;stroke-linecap:round;stroke-linejoin:round;stroke:rgb(0%,0%,0%);stroke-opacity:1;stroke-miterlimit:10;" d="M 34.039062 32.921875 L 34.128906 32.351562 L 34.128906 29.191406 L 33.949219 27.601562 L 33.769531 26.070312 L 33.5 24.570312 L 33.230469 23.210938 L 33.050781 22.769531 L 32.960938 22.460938 L 33.230469 22.730469 " transform="matrix(1,0,0,-1,0,123)"/>
<path style="fill:none;stroke-width:1.41;stroke-linecap:round;stroke-linejoin:round;stroke:rgb(0%,0%,0%);stroke-opacity:1;stroke-miterlimit:10;" d="M 34.761719 28.089844 L 35.210938 28.179688 L 35.570312 28.179688 L 36.109375 28.128906 L 36.828125 28 L 37.449219 27.820312 L 37.988281 27.648438 L 38.261719 27.519531 " transform="matrix(1,0,0,-1,0,123)"/>
<path style="fill:none;stroke-width:1.41;stroke-linecap:round;stroke-linejoin:round;stroke:rgb(0%,0%,0%);stroke-opacity:1;stroke-miterlimit:10;" d="M 38.53125 31.25 L 38.441406 31.46875 L 38.441406 30.941406 L 38.53125 30.550781 L 38.53125 29.578125 L 38.441406 28.039062 L 38.351562 26.019531 L 38.351562 24.089844 L 38.261719 22.859375 L 38.351562 22.589844 " transform="matrix(1,0,0,-1,0,123)"/>
<path style="fill:none;stroke-width:2.26;stroke-linecap:round;stroke-linejoin:round;stroke:rgb(0%,0%,0%);stroke-opacity:1;stroke-miterlimit:10;" d="M 55.128906 32.710938 L 54.769531 33.019531 L 54.320312 33.589844 L 53.511719 34.199219 L 52.519531 34.640625 L 51.171875 34.601562 L 50.011719 33.890625 L 48.929688 32.75 L 48.210938 31.300781 L 48.300781 29.980469 L 49.019531 28.929688 L 50.628906 28.398438 L 52.339844 28.53125 L 53.960938 29.148438 L 55.21875 30.199219 L 55.851562 31.171875 L 56.109375 31.519531 L 56.019531 30.859375 L 55.578125 28.929688 L 54.769531 25.898438 L 53.960938 22.910156 L 53.238281 20.320312 L 52.878906 18.601562 L 52.789062 17.628906 L 52.699219 16.839844 L 52.699219 15.609375 L 52.878906 15.21875 L 53.328125 15.089844 L 54.410156 15.390625 L 55.761719 16.269531 L 57.011719 17.238281 L 58 18.210938 L 58.089844 19.078125 L 57.820312 19.789062 L 57.28125 20.488281 L 56.648438 21.148438 L 56.109375 21.5 L 55.671875 21.851562 L 55.21875 22.121094 L 54.859375 22.378906 L 54.5 22.601562 L 54.859375 23 L 56.109375 23.519531 L 57.820312 24.269531 L 59.441406 25.148438 L 60.519531 26.070312 L 60.96875 26.640625 L 61.058594 26.949219 " transform="matrix(1,0,0,-1,0,123)"/>
<path style="fill:none;stroke-width:1.41;stroke-linecap:round;stroke-linejoin:round;stroke:rgb(0%,0%,0%);stroke-opacity:1;stroke-miterlimit:10;" d="M 69.050781 32 L 69.050781 31.078125 L 69.140625 29.539062 L 69.140625 27.871094 L 69.050781 26.289062 L 69.050781 25.328125 L 68.960938 24.929688 L 68.960938 24.578125 " transform="matrix(1,0,0,-1,0,123)"/>
<path style="fill:none;stroke-width:1.41;stroke-linecap:round;stroke-linejoin:round;stroke:rgb(0%,0%,0%);stroke-opacity:1;stroke-miterlimit:10;" d="M 69.140625 31.738281 L 69.140625 32.050781 L 69.589844 32.441406 L 70.398438 32.710938 L 71.480469 32.929688 L 72.648438 32.800781 L 73.539062 32.359375 L 73.898438 31.609375 L 73.539062 30.730469 L 72.648438 29.980469 L 71.660156 29.460938 L 70.941406 29.191406 L 71.570312 29.148438 L 72.738281 28.96875 L 73.898438 28.578125 L 74.890625 27.871094 L 75.25 26.859375 L 74.890625 25.761719 L 74.171875 24.839844 L 73.101562 24.179688 L 71.929688 23.960938 L 71.03125 24.050781 L 70.21875 24.359375 L 69.859375 24.710938 L 69.589844 25.019531 " transform="matrix(1,0,0,-1,0,123)"/>
<path style="fill:none;stroke-width:2.26;stroke-linecap:round;stroke-linejoin:round;stroke:rgb(0%,0%,0%);stroke-opacity:1;stroke-miterlimit:10;" d="M 28.710938 27.828125 L 28.53125 27.609375 L 28.261719 27.519531 L 27.808594 27.429688 L 27.191406 27.351562 L 26.46875 27.261719 L 25.570312 27.171875 L 24.308594 27 L 22.78125 26.78125 L 20.898438 26.558594 L 19.011719 26.421875 L 17.570312 26.421875 L 16.488281 26.601562 L 15.511719 27 L 14.519531 27.429688 L 13.351562 27.871094 L 12 28.359375 L 10.828125 28.839844 L 9.851562 29.371094 L 9.039062 30.03125 L 8.320312 30.769531 L 7.601562 31.648438 L 6.878906 32.800781 L 6.339844 33.980469 L 5.980469 35.171875 L 5.890625 36.53125 L 5.890625 37.890625 L 6.070312 39.339844 L 6.339844 40.878906 L 6.699219 42.328125 L 7.148438 43.691406 L 7.78125 44.789062 L 8.589844 45.851562 L 9.398438 46.769531 L 10.46875 47.738281 L 11.910156 48.75 L 13.441406 49.671875 L 15.058594 50.511719 L 16.941406 51.300781 L 18.828125 51.910156 L 20.808594 52.480469 L 23.230469 53.050781 L 25.480469 53.628906 L 27.71875 54.148438 L 30.148438 54.859375 L 32.398438 55.558594 L 34.910156 56.390625 L 37.789062 57.359375 L 40.480469 58.238281 L 43.089844 59.03125 L 45.511719 59.78125 L 47.398438 60.390625 L 49.289062 61.011719 L 51.53125 61.710938 L 53.691406 62.328125 L 55.851562 62.941406 L 58.179688 63.601562 L 60.070312 64.171875 L 61.859375 64.828125 L 63.839844 65.539062 L 65.550781 66.148438 L 67.261719 66.71875 L 68.871094 67.25 L 70.128906 67.691406 L 71.480469 68.171875 L 72.921875 68.789062 L 74.351562 69.398438 L 75.699219 69.96875 L 76.871094 70.539062 L 77.679688 70.898438 L 78.488281 71.421875 L 79.648438 72.171875 L 81 73.179688 L 82.621094 74.28125 L 84.148438 75.378906 L 85.21875 76.171875 L 86.121094 76.960938 L 86.929688 77.660156 L 87.648438 78.371094 L 88.550781 79.25 L 89.449219 80.171875 L 90.519531 81.179688 L 91.511719 82.148438 L 92.410156 83.109375 L 93.21875 84.171875 L 93.761719 85 L 94.121094 85.929688 L 94.390625 86.800781 L 94.480469 87.550781 L 94.480469 89.398438 L 94.390625 90.28125 L 94.300781 91.328125 L 94.03125 92.390625 L 93.671875 93.351562 L 93.308594 94.359375 L 92.769531 95.460938 L 92.230469 96.378906 L 91.601562 97.308594 L 90.789062 98.191406 L 90.171875 98.851562 L 89.359375 99.550781 L 88.550781 100.03125 L 87.828125 100.429688 L 87.199219 100.738281 L 86.570312 100.910156 L 86.121094 101.039062 L 85.488281 101.128906 L 84.691406 101.21875 L 83.878906 101.308594 L 83.160156 101.351562 L 82.621094 101.390625 L 82.351562 101.390625 " transform="matrix(1,0,0,-1,0,123)"/>
<path style="fill:none;stroke-width:2.26;stroke-linecap:round;stroke-linejoin:round;stroke:rgb(0%,0%,0%);stroke-opacity:1;stroke-miterlimit:10;" d="M 29.609375 102.140625 L 29.789062 101.96875 L 29.339844 101.921875 L 28.621094 101.878906 L 26.46875 101.878906 L 25.390625 101.828125 L 24.398438 101.828125 L 23.410156 101.789062 L 22.601562 101.75 L 21.609375 101.789062 L 19.820312 101.789062 L 19.011719 101.75 L 17.929688 101.609375 L 16.851562 101.390625 L 15.601562 101 L 14.339844 100.601562 L 13.171875 100.210938 L 12.269531 99.859375 L 11.460938 99.460938 L 10.738281 98.980469 L 10.109375 98.488281 L 9.308594 97.699219 L 8.589844 96.910156 L 7.871094 96.078125 L 7.148438 95.070312 L 6.609375 94.101562 L 6.070312 93.128906 L 5.621094 92.03125 L 5.441406 91.019531 L 5.171875 90.011719 L 4.988281 88.960938 L 4.898438 87.988281 L 4.808594 87.019531 L 4.898438 85.929688 L 4.988281 84.828125 L 5.171875 83.730469 L 5.53125 82.589844 L 6.160156 81.53125 L 6.878906 80.609375 L 7.78125 79.691406 L 8.859375 78.808594 L 10.019531 77.929688 L 11.191406 77.089844 L 12.628906 76.210938 L 14.070312 75.46875 L 15.601562 74.808594 L 17.390625 74.148438 L 19.191406 73.53125 L 21.171875 72.921875 L 23.320312 72.300781 L 25.300781 71.820312 L 27.359375 71.378906 L 29.609375 70.898438 L 31.589844 70.410156 L 33.46875 69.800781 L 35.539062 69.050781 L 37.609375 68.390625 L 39.851562 67.640625 L 42.191406 66.898438 L 44.261719 66.238281 L 46.140625 65.578125 L 48.210938 64.828125 L 50.449219 64.171875 L 52.878906 63.46875 L 55.671875 62.628906 L 58.179688 61.839844 L 60.609375 61.050781 L 63.210938 60.128906 L 65.820312 59.339844 L 68.421875 58.640625 L 71.210938 57.839844 L 73.628906 57.101562 L 75.878906 56.308594 L 78.308594 55.519531 L 80.730469 54.71875 L 83.160156 53.929688 L 85.488281 53.011719 L 87.199219 52.179688 L 88.550781 51.429688 L 89.628906 50.769531 L 90.441406 50.289062 L 91.238281 49.800781 L 92.140625 49.28125 L 93.128906 48.699219 L 93.941406 48.179688 L 94.929688 47.519531 L 95.738281 46.859375 L 96.449219 46.109375 L 97.171875 45.230469 L 97.710938 44.128906 L 97.980469 43.171875 L 98.25 42.289062 L 98.339844 41.578125 L 98.429688 41.058594 L 98.609375 40.269531 L 98.699219 39.339844 L 98.789062 38.160156 L 98.789062 36.929688 L 98.609375 35.738281 L 98.339844 34.550781 L 97.890625 33.539062 L 97.351562 32.53125 L 96.628906 31.609375 L 96.011719 30.949219 L 95.289062 30.421875 L 94.660156 30.121094 L 94.121094 29.898438 L 93.488281 29.761719 L 92.589844 29.628906 L 91.78125 29.539062 L 90.699219 29.460938 L 83.789062 29.460938 L 83.519531 29.5 L 83.070312 29.539062 " transform="matrix(1,0,0,-1,0,123)"/>
<path style="fill:none;stroke-width:1.41;stroke-linecap:round;stroke-linejoin:round;stroke:rgb(0%,0%,0%);stroke-opacity:1;stroke-miterlimit:10;" d="M 185.101562 99.5 L 184.828125 99.371094 L 183.929688 98.671875 L 182.671875 97.789062 L 181.421875 97 L 180.519531 96.339844 L 180.429688 95.769531 L 181.058594 95.109375 L 182.308594 94.179688 L 183.75 93.300781 L 184.921875 92.648438 L 185.820312 92.121094 L 186.269531 91.808594 L 186.449219 91.589844 L 186.628906 91.410156 " transform="matrix(1,0,0,-1,0,123)"/>
<path style="fill:none;stroke-width:1.41;stroke-linecap:round;stroke-linejoin:round;stroke:rgb(0%,0%,0%);stroke-opacity:1;stroke-miterlimit:10;" d="M 181.238281 95.769531 L 181.601562 95.679688 L 182.128906 95.628906 L 182.851562 95.589844 L 183.660156 95.5 L 185.101562 95.460938 L 186.71875 95.550781 L 188.960938 95.679688 L 191.390625 95.898438 L 193.539062 96.070312 L 195.429688 96.199219 L 197.320312 96.199219 L 198.851562 96.121094 L 200.371094 96.03125 L 201.988281 95.988281 L 203.699219 95.898438 L 205.488281 95.898438 L 207.558594 95.808594 L 209.179688 95.71875 L 210.699219 95.679688 L 211.960938 95.628906 L 214.03125 95.628906 L 214.480469 95.679688 L 215.109375 95.71875 L 215.921875 95.769531 L 216.628906 95.808594 L 217.171875 95.808594 L 217.351562 95.628906 " transform="matrix(1,0,0,-1,0,123)"/>
<path style="fill:none;stroke-width:1.41;stroke-linecap:round;stroke-linejoin:round;stroke:rgb(0%,0%,0%);stroke-opacity:1;stroke-miterlimit:10;" d="M 186 45.011719 L 185.460938 44.660156 L 184.558594 44 L 183.480469 43.121094 L 182.308594 42.148438 L 181.421875 41.539062 L 180.878906 41.101562 L 180.609375 40.699219 L 180.878906 40.261719 L 181.601562 39.648438 L 182.851562 38.808594 L 184.378906 37.929688 L 185.640625 37.269531 L 186.539062 36.878906 L 186.988281 36.75 L 187.261719 36.75 " transform="matrix(1,0,0,-1,0,123)"/>
<path style="fill:none;stroke-width:1.41;stroke-linecap:round;stroke-linejoin:round;stroke:rgb(0%,0%,0%);stroke-opacity:1;stroke-miterlimit:10;" d="M 182.039062 41.320312 L 182.308594 41.140625 L 182.761719 40.96875 L 183.480469 40.789062 L 184.019531 40.699219 L 184.738281 40.660156 L 185.820312 40.660156 L 187.261719 40.699219 L 188.871094 40.75 L 192.558594 40.75 L 194.441406 40.878906 L 196.238281 40.96875 L 197.679688 41.140625 L 198.761719 41.269531 L 199.46875 41.320312 L 199.921875 41.230469 L 200.550781 41.191406 L 201.628906 41.140625 L 202.980469 41.101562 L 204.328125 40.96875 L 207.558594 40.96875 L 208.550781 41.050781 L 209.359375 41.101562 L 210.441406 41.140625 L 213.039062 41.140625 L 213.398438 41.101562 L 213.761719 41.101562 L 214.660156 40.921875 L 214.929688 40.878906 L 215.289062 40.789062 " transform="matrix(1,0,0,-1,0,123)"/>
<path style="fill:none;stroke-width:1.41;stroke-linecap:round;stroke-linejoin:round;stroke:rgb(0%,0%,0%);stroke-opacity:1;stroke-miterlimit:10;" d="M 157.519531 80.429688 L 157.339844 79.808594 L 156.890625 78.710938 L 156.171875 77.261719 L 155.269531 75.589844 L 154.28125 73.621094 L 153.558594 71.460938 L 152.941406 69.050781 L 152.398438 66.320312 L 152.039062 63.769531 L 151.859375 61.398438 L 151.769531 59.421875 L 151.949219 58.101562 L 152.128906 57.011719 L 152.308594 56.210938 L 152.488281 55.421875 L 152.671875 54.679688 L 153.019531 53.621094 L 153.378906 52.390625 L 153.921875 50.988281 L 154.640625 49.398438 L 155.269531 48 L 155.898438 46.769531 L 156.441406 45.929688 L 156.890625 45.359375 L 157.070312 45.101562 " transform="matrix(1,0,0,-1,0,123)"/>
<path style="fill:none;stroke-width:1.41;stroke-linecap:round;stroke-linejoin:round;stroke:rgb(0%,0%,0%);stroke-opacity:1;stroke-miterlimit:10;" d="M 152.671875 45.761719 L 152.941406 45.671875 L 153.648438 45.398438 L 154.640625 44.921875 L 155.898438 44.390625 L 156.890625 44 L 157.699219 43.730469 L 158.148438 43.648438 L 158.421875 43.730469 L 158.421875 44.089844 L 158.511719 45.011719 L 158.691406 46.460938 L 158.949219 48.261719 L 159.128906 49.96875 L 159.308594 51.289062 L 159.488281 52.078125 L 159.488281 52.441406 " transform="matrix(1,0,0,-1,0,123)"/>
<path style="fill:none;stroke-width:1.41;stroke-linecap:round;stroke-linejoin:round;stroke:rgb(0%,0%,0%);stroke-opacity:1;stroke-miterlimit:10;" d="M 174.949219 43.910156 L 175.21875 44.53125 L 175.761719 45.621094 L 176.558594 47.210938 L 177.460938 49.269531 L 178.359375 51.859375 L 179.078125 54.148438 L 179.621094 56.078125 L 179.980469 57.578125 L 180.160156 58.460938 L 180.25 59.289062 L 180.339844 60.738281 L 180.25 62.191406 L 180.160156 63.601562 L 180.070312 65.050781 L 179.980469 65.789062 L 179.800781 66.890625 L 179.621094 68.121094 L 179.351562 69.398438 L 179.078125 70.578125 L 178.808594 71.421875 L 178.539062 72.429688 L 178.179688 73.53125 L 177.730469 74.71875 L 177.28125 76.171875 L 176.828125 77.261719 L 176.558594 78.191406 L 176.289062 78.929688 L 176.109375 79.328125 L 176.019531 79.589844 L 175.671875 79.109375 L 175.128906 78.058594 L 174.589844 76.648438 L 174.140625 75.328125 L 173.691406 74.320312 L 173.511719 73.921875 L 173.691406 74.230469 L 173.78125 74.539062 L 173.871094 74.890625 L 174.050781 75.460938 L 174.230469 75.949219 L 174.320312 76.519531 L 174.5 77.179688 L 174.769531 78.140625 L 174.949219 79.199219 L 175.308594 79.988281 L 175.761719 80.519531 L 176.648438 80.300781 L 177.730469 79.769531 L 178.898438 79.238281 L 179.710938 78.800781 L 180.070312 78.671875 " transform="matrix(1,0,0,-1,0,123)"/>
<path style="fill:none;stroke-width:1.41;stroke-linecap:round;stroke-linejoin:round;stroke:rgb(0%,0%,0%);stroke-opacity:1;stroke-miterlimit:10;" d="M 143.140625 71.199219 L 143.769531 70.800781 L 144.578125 69.929688 L 145.390625 68.828125 L 146.109375 67.199219 L 146.109375 65.488281 L 145.839844 63.769531 L 145.300781 62.238281 L 144.851562 61.269531 L 144.398438 60.960938 L 144.039062 60.921875 " transform="matrix(1,0,0,-1,0,123)"/>
<path style="fill:none;stroke-width:1.41;stroke-linecap:round;stroke-linejoin:round;stroke:rgb(0%,0%,0%);stroke-opacity:1;stroke-miterlimit:10;" d="M 120.949219 71.109375 L 121.128906 70.851562 L 121.128906 70.539062 L 120.949219 70.148438 L 120.679688 69.621094 L 120.230469 68.960938 L 119.78125 68.339844 L 119.421875 67.550781 L 119.058594 66.589844 L 118.96875 65.578125 L 118.96875 64.429688 L 119.058594 63.421875 L 119.238281 62.671875 L 119.511719 62.101562 L 119.691406 61.710938 L 119.78125 61.488281 L 120.050781 61.179688 L 120.410156 60.828125 L 120.949219 60.210938 L 121.21875 60.039062 L 121.488281 59.859375 " transform="matrix(1,0,0,-1,0,123)"/>
<path style="fill:none;stroke-width:1.41;stroke-linecap:round;stroke-linejoin:round;stroke:rgb(0%,0%,0%);stroke-opacity:1;stroke-miterlimit:10;" d="M 188.960938 70.941406 L 188.511719 70.320312 L 187.96875 69.660156 L 187.441406 68.960938 L 186.808594 67.988281 L 186.359375 66.890625 L 186.179688 65.878906 L 186.089844 64.828125 L 186.179688 63.988281 L 186.359375 63.421875 L 186.539062 62.890625 L 186.898438 62.238281 L 187.261719 61.660156 L 187.699219 61.179688 L 187.96875 60.789062 L 188.328125 60.648438 " transform="matrix(1,0,0,-1,0,123)"/>
<path style="fill:none;stroke-width:1.41;stroke-linecap:round;stroke-linejoin:round;stroke:rgb(0%,0%,0%);stroke-opacity:1;stroke-miterlimit:10;" d="M 212.949219 70.410156 L 213.488281 70.320312 L 214.300781 69.710938 L 215.199219 68.648438 L 215.828125 67.511719 L 216.179688 66.371094 L 216.269531 65.179688 L 216.011719 64.121094 L 215.46875 63.03125 L 214.929688 62.019531 L 214.300781 61.398438 L 213.851562 61.050781 L 213.578125 60.921875 " transform="matrix(1,0,0,-1,0,123)"/>
<path style="fill:none;stroke-width:1.41;stroke-linecap:round;stroke-linejoin:round;stroke:rgb(100%,0%,0%);stroke-opacity:1;stroke-miterlimit:10;" d="M 158.601562 97.171875 L 158.328125 97.078125 L 157.878906 96.859375 L 157.429688 96.558594 L 156.890625 95.941406 L 156.261719 95.109375 L 155.898438 94.011719 L 155.808594 92.820312 L 156.078125 91.550781 L 156.800781 90.539062 L 157.878906 89.789062 L 159.21875 89.53125 L 160.480469 89.828125 L 161.648438 90.621094 L 162.371094 91.898438 L 162.550781 93.300781 L 162.460938 94.671875 L 161.921875 95.769531 L 161.109375 96.46875 L 160.390625 96.820312 L 159.761719 97.039062 L 159.308594 97 L 159.039062 96.949219 " transform="matrix(1,0,0,-1,0,123)"/>
<path style="fill:none;stroke-width:1.41;stroke-linecap:round;stroke-linejoin:round;stroke:rgb(100%,0%,0%);stroke-opacity:1;stroke-miterlimit:10;" d="M 155.359375 88.46875 L 155.988281 88.910156 L 156.621094 89.570312 L 157.878906 91.28125 L 159.21875 93.078125 L 160.570312 94.839844 L 161.828125 96.691406 L 162.460938 97.519531 L 162.640625 98.011719 L 162.910156 98.359375 " transform="matrix(1,0,0,-1,0,123)"/>
<path style="fill:none;stroke-width:1.41;stroke-linecap:round;stroke-linejoin:round;stroke:rgb(0%,0%,0%);stroke-opacity:1;stroke-miterlimit:10;" d="M 163.628906 85.21875 L 163.449219 84.910156 L 163.628906 85.171875 L 163.898438 85.921875 L 164.441406 87.460938 L 165.148438 89.660156 L 166.140625 92.160156 L 167.398438 94.96875 L 168.480469 97.351562 L 169.378906 99.191406 L 169.921875 100.558594 L 170.179688 101.261719 L 170.359375 101.699219 L 170.449219 102.011719 " transform="matrix(1,0,0,-1,0,123)"/>
<path style="fill:none;stroke-width:1.41;stroke-linecap:round;stroke-linejoin:round;stroke:rgb(0%,0%,0%);stroke-opacity:1;stroke-miterlimit:10;" d="M 171.800781 93.699219 L 171.800781 92.691406 L 171.890625 91.628906 L 171.800781 89.789062 L 171.800781 86.980469 L 171.710938 85.878906 " transform="matrix(1,0,0,-1,0,123)"/>
<path style="fill:none;stroke-width:1.41;stroke-linecap:round;stroke-linejoin:round;stroke:rgb(0%,0%,0%);stroke-opacity:1;stroke-miterlimit:10;" d="M 172.070312 94.539062 L 172.339844 95.148438 L 173.058594 95.71875 L 173.960938 96.070312 L 174.949219 96.070312 L 176.019531 95.71875 L 176.738281 94.96875 L 177.011719 94.011719 L 176.921875 92.910156 L 176.289062 91.941406 L 175.308594 91.199219 L 174.140625 90.839844 L 173.238281 90.761719 L 172.609375 90.890625 L 172.25 91.058594 " transform="matrix(1,0,0,-1,0,123)"/>
<path style="fill:none;stroke-width:1.41;stroke-linecap:round;stroke-linejoin:round;stroke:rgb(100%,0%,0%);stroke-opacity:1;stroke-miterlimit:10;" d="M 158.058594 32.621094 L 158.691406 32.789062 L 159.308594 33.320312 L 160.03125 34.070312 L 160.570312 34.730469 L 161.019531 35.078125 L 161.289062 34.769531 L 161.46875 33.671875 L 161.46875 32.128906 L 161.558594 30.460938 L 161.558594 28.351562 " transform="matrix(1,0,0,-1,0,123)"/>
<path style="fill:none;stroke-width:1.41;stroke-linecap:round;stroke-linejoin:round;stroke:rgb(100%,0%,0%);stroke-opacity:1;stroke-miterlimit:10;" d="M 157.25 26.949219 L 158.058594 27.039062 L 159.21875 27.121094 L 160.839844 27.210938 L 162.191406 27.300781 L 164.171875 27.300781 " transform="matrix(1,0,0,-1,0,123)"/>
<path style="fill:none;stroke-width:1.41;stroke-linecap:round;stroke-linejoin:round;stroke:rgb(0%,0%,0%);stroke-opacity:1;stroke-miterlimit:10;" d="M 164.789062 23.648438 L 165.148438 23.78125 L 165.691406 24.839844 L 166.589844 26.640625 L 167.761719 29.230469 L 168.839844 31.738281 L 169.828125 33.890625 L 170.539062 35.519531 L 170.898438 36.398438 L 171.171875 36.921875 L 171.351562 37.191406 " transform="matrix(1,0,0,-1,0,123)"/>
<path style="fill:none;stroke-width:1.41;stroke-linecap:round;stroke-linejoin:round;stroke:rgb(0%,0%,0%);stroke-opacity:1;stroke-miterlimit:10;" d="M 174.949219 29.980469 L 175.128906 30.238281 L 175.21875 30.769531 L 175.128906 31.519531 L 174.769531 32.21875 L 174.230469 32.789062 L 173.421875 32.75 L 172.519531 32.039062 L 171.621094 30.859375 L 170.988281 29.5 L 170.898438 28.398438 L 171.621094 27.828125 L 172.878906 28 L 174.230469 28.699219 L 175.398438 29.800781 L 175.851562 30.460938 L 175.941406 30.019531 L 175.761719 28.96875 L 175.578125 27.429688 L 175.398438 25.890625 L 175.21875 24.789062 L 175.128906 23.699219 L 175.21875 22.679688 L 175.761719 21.890625 L 176.558594 21.628906 L 177.550781 21.808594 L 178.269531 22.289062 L 178.628906 22.859375 L 178.539062 23.480469 L 177.910156 24.128906 L 177.101562 24.710938 L 176.289062 25.148438 L 175.851562 25.71875 L 176.109375 26.289062 L 176.828125 26.988281 L 178 27.871094 L 178.898438 28.699219 L 179.441406 29.359375 L 179.621094 29.980469 L 179.621094 30.328125 L 179.53125 30.640625 " transform="matrix(1,0,0,-1,0,123)"/>
<path style="fill:none;stroke-width:1.41;stroke-linecap:round;stroke-linejoin:round;stroke:rgb(100%,0%,0%);stroke-opacity:1;stroke-miterlimit:10;" d="M 36.050781 114.488281 L 35.871094 114.671875 L 35.601562 114.800781 L 35.148438 114.800781 L 34.609375 114.710938 L 34.070312 114.539062 L 33.441406 114.050781 L 33.078125 113.308594 L 32.898438 112.339844 L 33.078125 111.058594 L 33.53125 109.878906 L 34.25 108.910156 L 35.328125 108.339844 L 36.410156 108.210938 L 37.488281 108.558594 L 38.378906 109.351562 L 38.828125 110.359375 L 39.011719 111.679688 L 38.828125 112.949219 L 38.46875 114.101562 L 38.019531 114.929688 L 37.308594 115.460938 L 36.769531 115.628906 L 36.230469 115.550781 L 35.78125 115.460938 " transform="matrix(1,0,0,-1,0,123)"/>
<path style="fill:none;stroke-width:1.41;stroke-linecap:round;stroke-linejoin:round;stroke:rgb(100%,0%,0%);stroke-opacity:1;stroke-miterlimit:10;" d="M 31.558594 106.929688 L 31.109375 106.800781 L 31.199219 107.199219 L 32.101562 108.078125 L 33.710938 109.789062 L 35.601562 111.71875 L 37.578125 113.738281 L 38.828125 115.148438 L 39.371094 115.71875 L 39.550781 116.070312 L 39.550781 116.339844 " transform="matrix(1,0,0,-1,0,123)"/>
<path style="fill:none;stroke-width:1.41;stroke-linecap:round;stroke-linejoin:round;stroke:rgb(100%,0%,0%);stroke-opacity:1;stroke-miterlimit:10;" d="M 35.238281 42.070312 L 35.421875 42.25 L 35.871094 42.949219 L 36.320312 43.78125 L 36.949219 44.660156 L 37.308594 45.230469 L 37.578125 45.371094 L 37.671875 44.578125 L 37.671875 43.121094 L 37.761719 41.5 L 37.761719 38.859375 " transform="matrix(1,0,0,-1,0,123)"/>
<path style="fill:none;stroke-width:1.41;stroke-linecap:round;stroke-linejoin:round;stroke:rgb(100%,0%,0%);stroke-opacity:1;stroke-miterlimit:10;" d="M 34.789062 37.320312 L 34.878906 37.539062 L 35.148438 37.628906 L 35.691406 37.761719 L 36.410156 37.851562 L 37.308594 37.941406 L 38.199219 38.03125 L 39.191406 37.980469 L 40 37.898438 L 40.988281 37.808594 L 41.710938 37.679688 L 41.980469 37.628906 " transform="matrix(1,0,0,-1,0,123)"/>
<path style="fill:none;stroke-width:1.41;stroke-linecap:round;stroke-linejoin:round;stroke:rgb(0%,0%,0%);stroke-opacity:1;stroke-miterlimit:10;" d="M 123.378906 68.261719 L 123.558594 67.199219 L 123.648438 65.929688 L 123.828125 64.660156 L 123.921875 63.640625 L 123.921875 63.199219 " transform="matrix(1,0,0,-1,0,123)"/>
<path style="fill:none;stroke-width:1.41;stroke-linecap:round;stroke-linejoin:round;stroke:rgb(0%,0%,0%);stroke-opacity:1;stroke-miterlimit:10;" d="M 123.558594 68.570312 L 123.558594 69.179688 L 123.921875 69.578125 L 124.628906 69.878906 L 125.621094 69.839844 L 126.609375 69.488281 L 127.148438 68.699219 L 126.96875 67.78125 L 126.160156 66.980469 L 125.171875 66.539062 L 124.359375 66.371094 L 124.101562 66.410156 L 124.539062 66.460938 L 125.621094 66.328125 L 126.96875 65.929688 L 128.050781 65.179688 L 128.679688 64.300781 L 128.679688 63.421875 L 128.050781 62.71875 L 126.789062 62.28125 L 125.441406 62.148438 L 124.269531 62.28125 L 123.558594 62.460938 L 123.289062 62.769531 L 123.378906 63.070312 " transform="matrix(1,0,0,-1,0,123)"/>
<path style="fill:none;stroke-width:1.41;stroke-linecap:round;stroke-linejoin:round;stroke:rgb(0%,0%,0%);stroke-opacity:1;stroke-miterlimit:10;" d="M 130.558594 63.78125 L 131.101562 63.421875 L 131.730469 62.851562 L 132.179688 61.929688 L 132.089844 60.921875 L 131.550781 60.171875 L 131.011719 59.730469 L 130.378906 59.78125 " transform="matrix(1,0,0,-1,0,123)"/>
<path style="fill:none;stroke-width:1.41;stroke-linecap:round;stroke-linejoin:round;stroke:rgb(0%,0%,0%);stroke-opacity:1;stroke-miterlimit:10;" d="M 134.699219 70.019531 L 134.609375 69.578125 L 134.609375 68.261719 L 134.699219 66.589844 L 134.789062 65.089844 L 134.878906 64 L 134.878906 63.691406 " transform="matrix(1,0,0,-1,0,123)"/>
<path style="fill:none;stroke-width:1.41;stroke-linecap:round;stroke-linejoin:round;stroke:rgb(0%,0%,0%);stroke-opacity:1;stroke-miterlimit:10;" d="M 134.699219 65.800781 L 135.238281 66.28125 L 136.128906 66.71875 L 137.300781 66.980469 L 138.199219 67.121094 L 138.828125 67.070312 L 139.101562 66.980469 " transform="matrix(1,0,0,-1,0,123)"/>
<path style="fill:none;stroke-width:1.41;stroke-linecap:round;stroke-linejoin:round;stroke:rgb(0%,0%,0%);stroke-opacity:1;stroke-miterlimit:10;" d="M 139.28125 70.460938 L 139.191406 69.800781 L 139.191406 68.429688 L 139.371094 66.410156 L 139.460938 64.480469 L 139.640625 63.121094 L 139.640625 62.460938 L 139.730469 62.238281 " transform="matrix(1,0,0,-1,0,123)"/>
<path style="fill:none;stroke-width:1.41;stroke-linecap:round;stroke-linejoin:round;stroke:rgb(0%,0%,0%);stroke-opacity:1;stroke-miterlimit:10;" d="M 190.488281 61.359375 L 190.398438 61.140625 L 190.851562 61.800781 L 191.390625 62.851562 L 192.019531 64.570312 L 192.648438 66.28125 L 193.101562 67.730469 L 193.449219 68.699219 L 193.808594 68.738281 L 194.351562 68.171875 L 194.980469 66.808594 L 195.609375 65.089844 L 196.148438 63.511719 L 196.511719 62.328125 L 196.691406 61.890625 " transform="matrix(1,0,0,-1,0,123)"/>
<path style="fill:none;stroke-width:1.41;stroke-linecap:round;stroke-linejoin:round;stroke:rgb(0%,0%,0%);stroke-opacity:1;stroke-miterlimit:10;" d="M 192.109375 63.859375 L 192.558594 64 L 193.101562 64.078125 L 193.71875 64.171875 L 194.351562 64.351562 L 194.710938 64.441406 " transform="matrix(1,0,0,-1,0,123)"/>
<path style="fill:none;stroke-width:1.41;stroke-linecap:round;stroke-linejoin:round;stroke:rgb(0%,0%,0%);stroke-opacity:1;stroke-miterlimit:10;" d="M 198.488281 63.730469 L 198.578125 63.378906 L 199.109375 62.808594 L 199.558594 61.96875 L 199.738281 61.011719 L 199.46875 60.171875 L 199.109375 59.648438 L 198.671875 59.429688 " transform="matrix(1,0,0,-1,0,123)"/>
<path style="fill:none;stroke-width:1.41;stroke-linecap:round;stroke-linejoin:round;stroke:rgb(0%,0%,0%);stroke-opacity:1;stroke-miterlimit:10;" d="M 201.539062 69.179688 L 201.628906 68.570312 L 201.808594 67.339844 L 201.988281 65.710938 L 202.078125 64.21875 L 202.171875 63.199219 L 202.171875 62.679688 " transform="matrix(1,0,0,-1,0,123)"/>
<path style="fill:none;stroke-width:1.41;stroke-linecap:round;stroke-linejoin:round;stroke:rgb(0%,0%,0%);stroke-opacity:1;stroke-miterlimit:10;" d="M 202.710938 66.109375 L 203.070312 66.460938 L 203.789062 66.628906 L 204.601562 66.71875 L 205.488281 66.761719 L 206.03125 66.808594 L 206.390625 66.851562 " transform="matrix(1,0,0,-1,0,123)"/>
<path style="fill:none;stroke-width:1.41;stroke-linecap:round;stroke-linejoin:round;stroke:rgb(0%,0%,0%);stroke-opacity:1;stroke-miterlimit:10;" d="M 207.558594 70.28125 L 207.378906 70.058594 L 207.378906 67.859375 L 207.46875 66.460938 L 207.558594 65.308594 L 207.648438 64.699219 L 207.738281 64.078125 L 207.738281 63.640625 L 207.828125 63.160156 L 207.828125 62.808594 L 207.921875 62.589844 " transform="matrix(1,0,0,-1,0,123)"/>
</g>
</svg>
