<?xml version="1.0" encoding="UTF-8"?>
<svg xmlns="http://www.w3.org/2000/svg" xmlns:xlink="http://www.w3.org/1999/xlink" width="270.789063pt" height="188.833008pt" viewBox="0 0 270.789063 188.833008" version="1.1">
<g id="surface1">
<path style="fill:none;stroke-width:2.26;stroke-linecap:round;stroke-linejoin:round;stroke:rgb(0%,0%,0%);stroke-opacity:1;stroke-miterlimit:10;" d="M 97.75 164.266602 L 102.867188 164.286133 L 107.984375 164.301758 L 118.21875 164.340821 L 123.335938 164.356446 L 128.453125 164.375977 L 133.570312 164.391602 L 143.804688 164.430664 L 148.921875 164.446289 L 154.039062 164.465821 L 159.152344 164.481446 L 169.386719 164.520508 L 174.503906 164.536133 L 179.621094 164.555664 L 184.738281 164.571289 L 194.972656 164.610352 L 200.089844 164.625977 L 210.324219 164.665039 " transform="matrix(1,0,0,-1,0,188.833008)"/>
<path style="fill:none;stroke-width:2.26;stroke-linecap:round;stroke-linejoin:round;stroke:rgb(0%,0%,0%);stroke-opacity:1;stroke-miterlimit:10;" d="M 211.042969 164.399414 L 211.085938 158.399414 L 211.132812 152.403321 " transform="matrix(1,0,0,-1,0,188.833008)"/>
<path style="fill:none;stroke-width:2.26;stroke-linecap:round;stroke-linejoin:round;stroke:rgb(0%,0%,0%);stroke-opacity:1;stroke-miterlimit:10;" d="M 211.132812 151.875977 L 216.703125 151.700196 " transform="matrix(1,0,0,-1,0,188.833008)"/>
<path style="fill:none;stroke-width:2.26;stroke-linecap:round;stroke-linejoin:round;stroke:rgb(0%,0%,0%);stroke-opacity:1;stroke-miterlimit:10;" d="M 216.703125 151.348633 L 216.667969 145.961914 L 216.632812 140.571289 L 216.59375 135.184571 L 216.523438 124.411133 " transform="matrix(1,0,0,-1,0,188.833008)"/>
<path style="fill:none;stroke-width:2.26;stroke-linecap:round;stroke-linejoin:round;stroke:rgb(0%,0%,0%);stroke-opacity:1;stroke-miterlimit:10;" d="M 216.703125 124.629883 L 211.851562 123.883789 " transform="matrix(1,0,0,-1,0,188.833008)"/>
<path style="fill:none;stroke-width:2.26;stroke-linecap:round;stroke-linejoin:round;stroke:rgb(0%,0%,0%);stroke-opacity:1;stroke-miterlimit:10;" d="M 212.300781 124.629883 L 212.089844 119.180664 L 211.882812 113.731446 L 211.671875 108.282227 " transform="matrix(1,0,0,-1,0,188.833008)"/>
<path style="fill:none;stroke-width:2.26;stroke-linecap:round;stroke-linejoin:round;stroke:rgb(0%,0%,0%);stroke-opacity:1;stroke-miterlimit:10;" d="M 212.210938 107.930664 L 207.0625 107.989258 L 201.910156 108.047852 L 196.761719 108.110352 L 191.613281 108.168946 L 186.460938 108.227539 L 181.3125 108.290039 L 176.164062 108.348633 L 171.011719 108.407227 L 165.863281 108.469727 L 160.714844 108.528321 L 155.5625 108.590821 L 145.265625 108.708008 L 140.117188 108.770508 L 134.964844 108.829102 L 129.816406 108.887696 L 124.667969 108.950196 L 119.515625 109.008789 L 114.367188 109.067383 L 109.21875 109.129883 L 104.066406 109.188477 L 98.917969 109.247071 " transform="matrix(1,0,0,-1,0,188.833008)"/>
<path style="fill:none;stroke-width:2.26;stroke-linecap:round;stroke-linejoin:round;stroke:rgb(0%,0%,0%);stroke-opacity:1;stroke-miterlimit:10;" d="M 99.097656 109.598633 L 98.917969 116.543946 L 98.738281 123.485352 " transform="matrix(1,0,0,-1,0,188.833008)"/>
<path style="fill:none;stroke-width:2.26;stroke-linecap:round;stroke-linejoin:round;stroke:rgb(0%,0%,0%);stroke-opacity:1;stroke-miterlimit:10;" d="M 98.558594 122.915039 L 105.835938 123.309571 " transform="matrix(1,0,0,-1,0,188.833008)"/>
<path style="fill:none;stroke-width:2.26;stroke-linecap:round;stroke-linejoin:round;stroke:rgb(0%,0%,0%);stroke-opacity:1;stroke-miterlimit:10;" d="M 105.386719 122.872071 L 105.1875 128.540039 L 104.992188 134.208008 L 104.792969 139.879883 L 104.597656 145.547852 L 104.398438 151.215821 " transform="matrix(1,0,0,-1,0,188.833008)"/>
<path style="fill:none;stroke-width:2.26;stroke-linecap:round;stroke-linejoin:round;stroke:rgb(0%,0%,0%);stroke-opacity:1;stroke-miterlimit:10;" d="M 104.308594 151.129883 L 98.199219 150.688477 " transform="matrix(1,0,0,-1,0,188.833008)"/>
<path style="fill:none;stroke-width:2.26;stroke-linecap:round;stroke-linejoin:round;stroke:rgb(0%,0%,0%);stroke-opacity:1;stroke-miterlimit:10;" d="M 98.199219 150.602539 L 98.199219 163.036133 " transform="matrix(1,0,0,-1,0,188.833008)"/>
<path style="fill:none;stroke-width:1.41;stroke-linecap:round;stroke-linejoin:round;stroke:rgb(0%,0%,0%);stroke-opacity:1;stroke-miterlimit:10;" d="M 126.679688 140.711914 L 126.5 141.063477 L 126.050781 141.329102 L 125.511719 141.547852 L 124.613281 141.590821 L 123.714844 141.196289 L 122.816406 140.317383 L 122.007812 138.825196 L 121.738281 137.196289 L 122.007812 135.661133 L 122.996094 134.473633 L 124.34375 133.813477 L 125.601562 133.637696 L 126.589844 133.813477 L 127.039062 134.208008 L 127.398438 134.735352 L 127.578125 135.176758 L 127.847656 135.571289 " transform="matrix(1,0,0,-1,0,188.833008)"/>
<path style="fill:none;stroke-width:1.41;stroke-linecap:round;stroke-linejoin:round;stroke:rgb(0%,0%,0%);stroke-opacity:1;stroke-miterlimit:10;" d="M 131.710938 139.833008 L 131.53125 140.141602 L 131.082031 140.141602 L 130.363281 139.528321 L 129.554688 138.383789 L 128.835938 136.844727 L 128.566406 135.352539 L 128.925781 134.297852 L 129.644531 133.637696 L 130.453125 133.375977 L 131.261719 133.375977 L 132.070312 133.813477 L 132.519531 134.692383 L 132.699219 136.098633 L 132.609375 137.594727 L 132.25 138.778321 L 132.070312 139.614258 " transform="matrix(1,0,0,-1,0,188.833008)"/>
<path style="fill:none;stroke-width:1.41;stroke-linecap:round;stroke-linejoin:round;stroke:rgb(0%,0%,0%);stroke-opacity:1;stroke-miterlimit:10;" d="M 135.574219 134.079102 L 135.214844 134.297852 L 135.035156 135.043946 L 135.035156 136.274414 L 135.394531 137.813477 L 136.203125 139.176758 L 137.101562 139.790039 L 137.910156 139.747071 L 138.539062 138.911133 L 138.808594 137.946289 L 139.078125 136.668946 L 139.167969 135.219727 L 139.257812 133.946289 L 139.347656 132.934571 L 139.347656 132.407227 " transform="matrix(1,0,0,-1,0,188.833008)"/>
<path style="fill:none;stroke-width:1.41;stroke-linecap:round;stroke-linejoin:round;stroke:rgb(0%,0%,0%);stroke-opacity:1;stroke-miterlimit:10;" d="M 144.289062 138.602539 L 144.289062 139.176758 L 144.199219 139.571289 L 144.109375 139.790039 L 143.75 139.790039 L 143.210938 139.657227 L 142.761719 139.305664 L 142.132812 138.340821 L 141.683594 137.372071 L 141.503906 136.317383 L 141.683594 135.043946 L 142.3125 134.254883 L 143.03125 133.594727 L 143.75 133.286133 L 144.289062 133.243164 L 144.917969 133.594727 " transform="matrix(1,0,0,-1,0,188.833008)"/>
<path style="fill:none;stroke-width:1.41;stroke-linecap:round;stroke-linejoin:round;stroke:rgb(0%,0%,0%);stroke-opacity:1;stroke-miterlimit:10;" d="M 147.972656 138.426758 L 147.523438 139.000977 L 147.253906 139.481446 L 147.34375 140.008789 L 147.972656 140.407227 L 148.78125 140.360352 L 149.679688 139.965821 L 150.308594 138.954102 L 150.578125 137.153321 L 150.488281 135.528321 L 150.398438 133.989258 L 150.398438 133.110352 L 150.578125 133.594727 L 150.398438 134.340821 L 150.21875 135.000977 L 149.859375 135.485352 L 149.140625 135.922852 L 148.0625 135.704102 L 147.074219 135.043946 L 146.445312 134.122071 L 146.714844 133.110352 L 147.703125 132.625977 L 148.78125 132.540039 L 149.949219 132.891602 " transform="matrix(1,0,0,-1,0,188.833008)"/>
<path style="fill:none;stroke-width:1.41;stroke-linecap:round;stroke-linejoin:round;stroke:rgb(0%,0%,0%);stroke-opacity:1;stroke-miterlimit:10;" d="M 154.351562 145.020508 L 154.261719 145.504883 L 154.171875 144.844727 L 154.171875 144.317383 L 154.082031 143.614258 L 154.082031 142.692383 L 153.992188 141.329102 L 153.8125 139.305664 L 153.722656 137.067383 L 153.992188 135.043946 L 154.621094 133.680664 L 155.429688 133.153321 L 156.238281 133.153321 L 156.6875 133.594727 " transform="matrix(1,0,0,-1,0,188.833008)"/>
<path style="fill:none;stroke-width:1.41;stroke-linecap:round;stroke-linejoin:round;stroke:rgb(0%,0%,0%);stroke-opacity:1;stroke-miterlimit:10;" d="M 151.835938 140.407227 L 151.65625 140.711914 L 152.195312 140.977539 L 152.914062 141.063477 L 153.632812 141.020508 L 154.351562 141.020508 L 155.25 140.977539 L 156.058594 140.934571 L 156.867188 140.758789 " transform="matrix(1,0,0,-1,0,188.833008)"/>
<path style="fill:none;stroke-width:1.41;stroke-linecap:round;stroke-linejoin:round;stroke:rgb(0%,0%,0%);stroke-opacity:1;stroke-miterlimit:10;" d="M 159.113281 136.407227 L 159.742188 136.231446 L 160.550781 136.188477 L 161.269531 136.188477 L 161.898438 136.274414 L 162.257812 136.493164 " transform="matrix(1,0,0,-1,0,188.833008)"/>
<path style="fill:none;stroke-width:1.41;stroke-linecap:round;stroke-linejoin:round;stroke:rgb(0%,0%,0%);stroke-opacity:1;stroke-miterlimit:10;" d="M 163.695312 140.583008 L 163.605469 140.934571 L 163.515625 141.153321 " transform="matrix(1,0,0,-1,0,188.833008)"/>
<path style="fill:none;stroke-width:1.41;stroke-linecap:round;stroke-linejoin:round;stroke:rgb(0%,0%,0%);stroke-opacity:1;stroke-miterlimit:10;" d="M 164.59375 139.000977 L 164.683594 137.723633 L 164.773438 136.188477 L 164.863281 134.735352 L 164.953125 133.594727 L 165.042969 132.891602 " transform="matrix(1,0,0,-1,0,188.833008)"/>
<path style="fill:none;stroke-width:1.41;stroke-linecap:round;stroke-linejoin:round;stroke:rgb(0%,0%,0%);stroke-opacity:1;stroke-miterlimit:10;" d="M 167.558594 133.375977 L 167.558594 134.825196 L 168.007812 136.493164 L 168.816406 137.946289 L 169.984375 138.032227 L 170.882812 136.758789 L 171.421875 134.782227 L 171.601562 132.934571 L 171.691406 131.969727 " transform="matrix(1,0,0,-1,0,188.833008)"/>
<path style="fill:none;stroke-width:1.41;stroke-linecap:round;stroke-linejoin:round;stroke:rgb(0%,0%,0%);stroke-opacity:1;stroke-miterlimit:10;" d="M 178.339844 137.813477 L 178.070312 138.383789 L 177.890625 138.649414 L 177.53125 138.868164 L 176.8125 138.825196 L 176.003906 138.559571 L 175.195312 137.723633 L 174.65625 136.715821 L 174.386719 135.614258 L 174.65625 134.208008 L 175.644531 133.286133 L 176.902344 133.067383 L 178.160156 133.680664 L 179.058594 135.438477 L 179.417969 137.770508 L 179.148438 140.317383 L 178.789062 142.340821 L 178.519531 142.868164 L 178.609375 141.813477 L 178.96875 139.352539 L 179.507812 136.625977 L 179.957031 134.782227 L 180.496094 133.946289 " transform="matrix(1,0,0,-1,0,188.833008)"/>
<path style="fill:none;stroke-width:1.41;stroke-linecap:round;stroke-linejoin:round;stroke:rgb(0%,0%,0%);stroke-opacity:1;stroke-miterlimit:10;" d="M 183.730469 137.196289 L 184.539062 137.196289 L 185.527344 137.594727 L 186.515625 138.473633 L 187.234375 139.438477 L 187.324219 140.407227 L 186.785156 141.020508 L 185.707031 140.887696 L 184.628906 140.493164 L 183.730469 139.833008 L 183.101562 138.911133 L 182.921875 138.208008 L 183.011719 136.891602 L 183.371094 135.395508 L 184.179688 134.079102 L 185.167969 133.153321 L 186.15625 133.110352 L 187.234375 133.594727 " transform="matrix(1,0,0,-1,0,188.833008)"/>
<path style="fill:none;stroke-width:1.41;stroke-linecap:round;stroke-linejoin:round;stroke:rgb(0%,0%,0%);stroke-opacity:1;stroke-miterlimit:10;" d="M 195.410156 145.856446 L 195.230469 146.778321 L 194.691406 147.657227 L 193.792969 148.008789 L 192.894531 147.567383 L 192.085938 146.602539 L 191.636719 145.372071 L 191.457031 144.227539 L 191.636719 142.692383 L 191.996094 140.711914 L 192.445312 138.165039 L 192.804688 135.528321 L 193.074219 133.551758 L 193.074219 132.188477 L 192.625 131.793946 " transform="matrix(1,0,0,-1,0,188.833008)"/>
<path style="fill:none;stroke-width:1.41;stroke-linecap:round;stroke-linejoin:round;stroke:rgb(0%,0%,0%);stroke-opacity:1;stroke-miterlimit:10;" d="M 190.109375 136.625977 L 189.929688 137.418946 L 190.738281 138.032227 L 192.175781 138.559571 L 194.0625 138.911133 L 195.769531 139.086914 L 196.757812 139.129883 L 197.117188 139.219727 " transform="matrix(1,0,0,-1,0,188.833008)"/>
<path style="fill:none;stroke-width:2.26;stroke-linecap:round;stroke-linejoin:round;stroke:rgb(0%,0%,0%);stroke-opacity:1;stroke-miterlimit:10;" d="M 98.738281 96.286133 L 103.855469 96.301758 L 108.972656 96.321289 L 114.089844 96.336914 L 124.324219 96.375977 L 129.441406 96.391602 L 134.558594 96.411133 L 139.675781 96.426758 L 149.910156 96.465821 L 155.027344 96.481446 L 160.140625 96.500977 L 165.257812 96.516602 L 175.492188 96.555664 L 180.609375 96.571289 L 185.726562 96.590821 L 190.84375 96.606446 L 201.078125 96.645508 L 206.195312 96.661133 L 211.3125 96.680664 " transform="matrix(1,0,0,-1,0,188.833008)"/>
<path style="fill:none;stroke-width:2.26;stroke-linecap:round;stroke-linejoin:round;stroke:rgb(0%,0%,0%);stroke-opacity:1;stroke-miterlimit:10;" d="M 212.03125 96.415039 L 212.078125 90.418946 L 212.121094 84.418946 " transform="matrix(1,0,0,-1,0,188.833008)"/>
<path style="fill:none;stroke-width:2.26;stroke-linecap:round;stroke-linejoin:round;stroke:rgb(0%,0%,0%);stroke-opacity:1;stroke-miterlimit:10;" d="M 212.121094 83.891602 L 217.691406 83.715821 " transform="matrix(1,0,0,-1,0,188.833008)"/>
<path style="fill:none;stroke-width:2.26;stroke-linecap:round;stroke-linejoin:round;stroke:rgb(0%,0%,0%);stroke-opacity:1;stroke-miterlimit:10;" d="M 217.691406 83.364258 L 217.621094 72.590821 L 217.582031 67.200196 L 217.511719 56.426758 " transform="matrix(1,0,0,-1,0,188.833008)"/>
<path style="fill:none;stroke-width:2.26;stroke-linecap:round;stroke-linejoin:round;stroke:rgb(0%,0%,0%);stroke-opacity:1;stroke-miterlimit:10;" d="M 217.691406 56.645508 L 212.839844 55.899414 " transform="matrix(1,0,0,-1,0,188.833008)"/>
<path style="fill:none;stroke-width:2.26;stroke-linecap:round;stroke-linejoin:round;stroke:rgb(0%,0%,0%);stroke-opacity:1;stroke-miterlimit:10;" d="M 213.289062 56.645508 L 213.078125 51.196289 L 212.871094 45.747071 L 212.660156 40.297852 " transform="matrix(1,0,0,-1,0,188.833008)"/>
<path style="fill:none;stroke-width:2.26;stroke-linecap:round;stroke-linejoin:round;stroke:rgb(0%,0%,0%);stroke-opacity:1;stroke-miterlimit:10;" d="M 213.199219 39.946289 L 208.050781 40.004883 L 202.898438 40.067383 L 192.601562 40.184571 L 187.449219 40.247071 L 177.152344 40.364258 L 172 40.426758 L 161.703125 40.543946 L 156.554688 40.606446 L 151.402344 40.665039 L 146.253906 40.723633 L 141.105469 40.786133 L 135.953125 40.844727 L 130.804688 40.903321 L 125.65625 40.965821 L 120.503906 41.024414 L 115.355469 41.083008 L 110.207031 41.145508 L 105.054688 41.204102 L 99.90625 41.266602 " transform="matrix(1,0,0,-1,0,188.833008)"/>
<path style="fill:none;stroke-width:2.26;stroke-linecap:round;stroke-linejoin:round;stroke:rgb(0%,0%,0%);stroke-opacity:1;stroke-miterlimit:10;" d="M 100.085938 41.618164 L 99.90625 48.559571 L 99.726562 55.504883 " transform="matrix(1,0,0,-1,0,188.833008)"/>
<path style="fill:none;stroke-width:2.26;stroke-linecap:round;stroke-linejoin:round;stroke:rgb(0%,0%,0%);stroke-opacity:1;stroke-miterlimit:10;" d="M 99.546875 54.930664 L 106.824219 55.329102 " transform="matrix(1,0,0,-1,0,188.833008)"/>
<path style="fill:none;stroke-width:2.26;stroke-linecap:round;stroke-linejoin:round;stroke:rgb(0%,0%,0%);stroke-opacity:1;stroke-miterlimit:10;" d="M 106.375 54.887696 L 106.175781 60.555664 L 105.980469 66.227539 L 105.78125 71.895508 L 105.585938 77.563477 L 105.386719 83.231446 " transform="matrix(1,0,0,-1,0,188.833008)"/>
<path style="fill:none;stroke-width:2.26;stroke-linecap:round;stroke-linejoin:round;stroke:rgb(0%,0%,0%);stroke-opacity:1;stroke-miterlimit:10;" d="M 105.296875 83.145508 L 99.1875 82.704102 " transform="matrix(1,0,0,-1,0,188.833008)"/>
<path style="fill:none;stroke-width:2.26;stroke-linecap:round;stroke-linejoin:round;stroke:rgb(0%,0%,0%);stroke-opacity:1;stroke-miterlimit:10;" d="M 99.1875 82.618164 L 99.1875 95.055664 " transform="matrix(1,0,0,-1,0,188.833008)"/>
<path style="fill:none;stroke-width:1.41;stroke-linecap:round;stroke-linejoin:round;stroke:rgb(0%,0%,0%);stroke-opacity:1;stroke-miterlimit:10;" d="M 119.671875 72.153321 L 119.492188 72.333008 L 119.222656 72.551758 L 118.59375 72.989258 L 117.875 73.254883 L 117.15625 73.122071 L 116.707031 72.551758 L 116.707031 71.583008 L 117.335938 70.395508 L 118.324219 69.168946 L 119.132812 67.891602 L 119.402344 66.708008 L 119.042969 65.696289 L 118.234375 65.122071 L 117.335938 65.036133 L 116.796875 65.301758 L 116.347656 65.739258 L 116.257812 66.176758 L 116.167969 66.575196 " transform="matrix(1,0,0,-1,0,188.833008)"/>
<path style="fill:none;stroke-width:1.41;stroke-linecap:round;stroke-linejoin:round;stroke:rgb(0%,0%,0%);stroke-opacity:1;stroke-miterlimit:10;" d="M 122.277344 78.614258 L 122.277344 76.110352 L 122.367188 74.043946 L 122.367188 68.333008 L 122.457031 66.618164 L 122.90625 65.168946 L 123.535156 64.114258 L 124.34375 63.848633 L 125.0625 63.938477 L 125.421875 64.508789 " transform="matrix(1,0,0,-1,0,188.833008)"/>
<path style="fill:none;stroke-width:1.41;stroke-linecap:round;stroke-linejoin:round;stroke:rgb(0%,0%,0%);stroke-opacity:1;stroke-miterlimit:10;" d="M 120.570312 70.575196 L 120.390625 70.836914 L 120.839844 71.145508 L 121.558594 71.278321 L 122.367188 71.278321 L 123.445312 71.364258 L 124.34375 71.497071 L 124.972656 71.629883 L 125.601562 71.848633 " transform="matrix(1,0,0,-1,0,188.833008)"/>
<path style="fill:none;stroke-width:1.41;stroke-linecap:round;stroke-linejoin:round;stroke:rgb(0%,0%,0%);stroke-opacity:1;stroke-miterlimit:10;" d="M 126.859375 71.231446 L 127.039062 70.090821 L 127.398438 68.465821 L 127.757812 66.661133 L 128.027344 65.079102 L 128.027344 64.418946 L 127.667969 64.950196 L 127.398438 66.356446 L 127.398438 68.243164 L 127.667969 70.043946 L 128.207031 71.407227 L 128.746094 72.200196 L 129.285156 72.684571 " transform="matrix(1,0,0,-1,0,188.833008)"/>
<path style="fill:none;stroke-width:1.41;stroke-linecap:round;stroke-linejoin:round;stroke:rgb(0%,0%,0%);stroke-opacity:1;stroke-miterlimit:10;" d="M 130.992188 74.262696 L 131.082031 74.485352 " transform="matrix(1,0,0,-1,0,188.833008)"/>
<path style="fill:none;stroke-width:1.41;stroke-linecap:round;stroke-linejoin:round;stroke:rgb(0%,0%,0%);stroke-opacity:1;stroke-miterlimit:10;" d="M 132.429688 70.926758 L 132.429688 70.043946 L 132.339844 69.168946 L 132.25 67.891602 L 132.25 65.301758 L 132.339844 64.418946 " transform="matrix(1,0,0,-1,0,188.833008)"/>
<path style="fill:none;stroke-width:1.41;stroke-linecap:round;stroke-linejoin:round;stroke:rgb(0%,0%,0%);stroke-opacity:1;stroke-miterlimit:10;" d="M 135.214844 64.247071 L 135.304688 64.508789 L 135.125 65.473633 L 135.304688 67.059571 L 135.84375 68.817383 L 136.5625 70.266602 L 137.28125 70.747071 L 138 69.692383 L 138.539062 67.891602 L 138.898438 66.004883 L 139.167969 64.200196 L 139.257812 63.411133 " transform="matrix(1,0,0,-1,0,188.833008)"/>
<path style="fill:none;stroke-width:1.41;stroke-linecap:round;stroke-linejoin:round;stroke:rgb(0%,0%,0%);stroke-opacity:1;stroke-miterlimit:10;" d="M 141.414062 68.333008 L 141.054688 68.860352 L 140.695312 68.860352 L 140.335938 68.418946 L 140.246094 67.540039 L 140.515625 66.090821 L 141.054688 64.950196 L 141.863281 64.465821 L 142.761719 64.465821 L 143.300781 65.168946 L 143.660156 66.176758 L 143.660156 67.012696 L 143.570312 67.981446 L 143.480469 68.727539 L 143.390625 69.168946 L 143.390625 68.770508 L 143.570312 66.926758 L 143.839844 64.114258 L 143.839844 60.333008 L 143.390625 56.864258 L 142.402344 54.754883 L 141.234375 53.918946 L 140.246094 54.446289 L 139.4375 55.895508 " transform="matrix(1,0,0,-1,0,188.833008)"/>
<path style="fill:none;stroke-width:1.41;stroke-linecap:round;stroke-linejoin:round;stroke:rgb(0%,0%,0%);stroke-opacity:1;stroke-miterlimit:10;" d="M 144.558594 70.043946 L 144.558594 69.606446 L 144.648438 68.770508 L 144.828125 67.715821 L 145.007812 66.485352 L 145.097656 65.825196 L 145.636719 65.168946 L 146.355469 64.993164 L 147.253906 65.254883 L 148.152344 65.782227 L 148.691406 67.188477 L 148.960938 68.637696 L 149.050781 69.606446 L 149.050781 70.176758 L 149.050781 69.825196 L 149.140625 68.946289 L 149.320312 68.067383 L 149.5 67.012696 L 150.039062 65.825196 L 150.398438 64.860352 L 150.847656 64.333008 L 151.296875 64.684571 " transform="matrix(1,0,0,-1,0,188.833008)"/>
<path style="fill:none;stroke-width:1.41;stroke-linecap:round;stroke-linejoin:round;stroke:rgb(0%,0%,0%);stroke-opacity:1;stroke-miterlimit:10;" d="M 152.464844 78.614258 L 152.554688 78.309571 L 152.734375 77.649414 L 152.824219 75.583008 L 152.824219 69.563477 L 153.003906 66.528321 L 153.273438 64.817383 L 153.992188 64.114258 L 154.621094 64.157227 L 155.25 64.418946 L 155.699219 65.122071 " transform="matrix(1,0,0,-1,0,188.833008)"/>
<path style="fill:none;stroke-width:1.41;stroke-linecap:round;stroke-linejoin:round;stroke:rgb(0%,0%,0%);stroke-opacity:1;stroke-miterlimit:10;" d="M 150.757812 70.879883 L 151.117188 71.540039 L 151.835938 72.067383 L 153.003906 72.551758 L 154.351562 72.637696 L 155.070312 72.684571 L 155.878906 72.856446 " transform="matrix(1,0,0,-1,0,188.833008)"/>
<path style="fill:none;stroke-width:1.41;stroke-linecap:round;stroke-linejoin:round;stroke:rgb(0%,0%,0%);stroke-opacity:1;stroke-miterlimit:10;" d="M 157.136719 74.309571 L 157.316406 74.704102 L 157.40625 74.922852 " transform="matrix(1,0,0,-1,0,188.833008)"/>
<path style="fill:none;stroke-width:1.41;stroke-linecap:round;stroke-linejoin:round;stroke:rgb(0%,0%,0%);stroke-opacity:1;stroke-miterlimit:10;" d="M 157.945312 71.583008 L 157.945312 69.739258 L 158.125 67.762696 L 158.304688 65.739258 L 158.484375 64.024414 L 158.664062 63.364258 " transform="matrix(1,0,0,-1,0,188.833008)"/>
<path style="fill:none;stroke-width:1.41;stroke-linecap:round;stroke-linejoin:round;stroke:rgb(0%,0%,0%);stroke-opacity:1;stroke-miterlimit:10;" d="M 161.359375 78.571289 L 161.269531 79.012696 L 161.269531 78.043946 L 161.449219 75.715821 L 161.539062 72.333008 L 161.539062 65.739258 L 161.449219 64.114258 L 161.449219 63.762696 " transform="matrix(1,0,0,-1,0,188.833008)"/>
<path style="fill:none;stroke-width:1.41;stroke-linecap:round;stroke-linejoin:round;stroke:rgb(0%,0%,0%);stroke-opacity:1;stroke-miterlimit:10;" d="M 167.109375 71.012696 L 167.109375 71.981446 L 167.019531 72.813477 L 166.929688 73.387696 L 166.660156 73.825196 L 166.300781 74.176758 L 166.03125 74.309571 L 165.492188 74.485352 L 164.863281 74.219727 L 164.234375 73.825196 L 163.695312 72.989258 L 163.695312 71.758789 L 164.59375 70.528321 L 165.941406 69.168946 L 167.289062 67.805664 L 167.917969 66.661133 L 167.558594 65.606446 L 166.570312 64.950196 L 165.402344 64.770508 L 164.503906 65.122071 " transform="matrix(1,0,0,-1,0,188.833008)"/>
<path style="fill:none;stroke-width:1.41;stroke-linecap:round;stroke-linejoin:round;stroke:rgb(0%,0%,0%);stroke-opacity:1;stroke-miterlimit:10;" d="M 171.0625 69.122071 L 170.792969 69.122071 L 171.691406 69.122071 L 172.949219 69.079102 L 174.027344 69.036133 L 175.015625 68.989258 L 175.285156 69.036133 " transform="matrix(1,0,0,-1,0,188.833008)"/>
<path style="fill:none;stroke-width:1.41;stroke-linecap:round;stroke-linejoin:round;stroke:rgb(0%,0%,0%);stroke-opacity:1;stroke-miterlimit:10;" d="M 175.734375 73.559571 L 175.644531 73.868164 L 175.644531 74.133789 L 175.914062 74.219727 L 176.453125 73.739258 " transform="matrix(1,0,0,-1,0,188.833008)"/>
<path style="fill:none;stroke-width:1.41;stroke-linecap:round;stroke-linejoin:round;stroke:rgb(0%,0%,0%);stroke-opacity:1;stroke-miterlimit:10;" d="M 177.171875 70.223633 L 177.171875 68.989258 L 177.261719 67.411133 L 177.441406 65.872071 L 177.53125 64.641602 L 177.710938 63.981446 " transform="matrix(1,0,0,-1,0,188.833008)"/>
<path style="fill:none;stroke-width:1.41;stroke-linecap:round;stroke-linejoin:round;stroke:rgb(0%,0%,0%);stroke-opacity:1;stroke-miterlimit:10;" d="M 180.136719 65.606446 L 180.046875 66.356446 L 180.226562 67.540039 L 180.496094 68.903321 L 181.035156 70.043946 L 181.84375 70.266602 L 182.652344 69.563477 L 183.28125 68.243164 L 183.910156 66.575196 L 184.179688 65.254883 L 184.269531 64.418946 " transform="matrix(1,0,0,-1,0,188.833008)"/>
<path style="fill:none;stroke-width:1.41;stroke-linecap:round;stroke-linejoin:round;stroke:rgb(0%,0%,0%);stroke-opacity:1;stroke-miterlimit:10;" d="M 188.851562 67.762696 L 188.671875 67.981446 L 188.582031 68.418946 L 188.402344 68.770508 L 188.222656 69.036133 L 187.59375 69.211914 L 186.964844 69.122071 L 186.335938 68.770508 L 185.707031 68.200196 L 185.4375 67.583008 L 185.347656 66.485352 L 185.617188 65.301758 L 186.425781 64.465821 L 187.503906 64.200196 L 188.492188 64.817383 L 189.300781 65.958008 L 189.75 67.231446 L 189.929688 68.418946 L 189.75 70.575196 L 189.390625 72.989258 L 188.941406 74.836914 L 188.582031 76.067383 L 188.492188 75.758789 L 188.671875 74.485352 L 189.121094 72.684571 L 189.75 70.485352 L 190.46875 68.024414 L 191.1875 66.004883 L 191.816406 65.122071 " transform="matrix(1,0,0,-1,0,188.833008)"/>
<path style="fill:none;stroke-width:1.41;stroke-linecap:round;stroke-linejoin:round;stroke:rgb(0%,0%,0%);stroke-opacity:1;stroke-miterlimit:10;" d="M 193.523438 67.454102 L 193.703125 67.715821 L 194.242188 68.157227 L 194.960938 68.727539 L 195.679688 69.211914 L 196.128906 69.692383 L 196.308594 70.043946 L 196.128906 70.575196 L 195.679688 71.231446 L 194.960938 71.583008 L 193.882812 71.188477 L 192.984375 70.395508 L 192.355469 69.079102 L 192.355469 67.411133 L 192.984375 65.958008 L 193.792969 64.551758 L 194.601562 63.543946 L 195.320312 63.192383 L 196.039062 63.848633 " transform="matrix(1,0,0,-1,0,188.833008)"/>
<path style="fill:none;stroke-width:1.41;stroke-linecap:round;stroke-linejoin:round;stroke:rgb(0%,0%,0%);stroke-opacity:1;stroke-miterlimit:10;" d="M 202.058594 74.836914 L 202.058594 75.407227 L 201.96875 75.891602 L 201.789062 76.329102 L 201.339844 76.723633 L 200.53125 76.989258 L 199.722656 76.856446 L 199.09375 76.329102 L 198.734375 75.540039 L 198.644531 74.614258 L 198.914062 73.079102 L 199.363281 70.836914 L 199.902344 68.067383 L 200.351562 65.387696 L 200.621094 63.543946 L 200.621094 62.532227 L 200.53125 62.266602 L 200.082031 62.356446 " transform="matrix(1,0,0,-1,0,188.833008)"/>
<path style="fill:none;stroke-width:1.41;stroke-linecap:round;stroke-linejoin:round;stroke:rgb(0%,0%,0%);stroke-opacity:1;stroke-miterlimit:10;" d="M 197.835938 67.231446 L 198.375 67.583008 L 199.542969 67.848633 L 201.878906 68.200196 L 202.6875 68.333008 " transform="matrix(1,0,0,-1,0,188.833008)"/>
<path style="fill:none;stroke-width:2.26;stroke-linecap:round;stroke-linejoin:round;stroke:rgb(0%,0%,0%);stroke-opacity:1;stroke-miterlimit:10;" d="M 261.265625 171.075196 L 256.191406 171.083008 L 251.113281 171.086914 L 246.039062 171.090821 L 240.960938 171.098633 L 235.886719 171.102539 L 230.808594 171.106446 L 225.734375 171.114258 L 220.65625 171.118164 L 215.582031 171.122071 L 210.503906 171.129883 L 205.429688 171.133789 L 200.351562 171.137696 L 195.277344 171.145508 L 190.199219 171.149414 L 185.125 171.153321 L 180.046875 171.161133 L 174.972656 171.165039 L 169.894531 171.168946 L 164.820312 171.176758 L 159.742188 171.180664 L 154.667969 171.184571 L 149.589844 171.192383 L 144.515625 171.196289 L 139.4375 171.200196 L 134.363281 171.208008 L 129.285156 171.211914 L 124.210938 171.215821 L 119.132812 171.223633 L 114.058594 171.227539 L 108.980469 171.231446 L 103.90625 171.239258 L 98.828125 171.243164 L 93.753906 171.247071 L 88.675781 171.254883 L 83.601562 171.258789 L 78.523438 171.262696 L 73.449219 171.270508 L 68.371094 171.274414 L 63.296875 171.278321 L 58.21875 171.286133 L 53.144531 171.290039 L 48.066406 171.293946 " transform="matrix(1,0,0,-1,0,188.833008)"/>
<path style="fill:none;stroke-width:1.41;stroke-linecap:round;stroke-linejoin:round;stroke:rgb(0%,0%,0%);stroke-opacity:1;stroke-miterlimit:10;" d="M 13.027344 114.829102 L 13.296875 114.918946 L 13.386719 115.137696 L 13.207031 115.575196 L 12.667969 116.145508 L 11.679688 116.629883 L 10.421875 116.805664 L 9.164062 116.454102 L 8.265625 115.750977 L 8.085938 114.696289 L 8.804688 113.512696 L 10.332031 112.235352 L 12.128906 110.786133 L 13.65625 109.336914 L 14.464844 107.887696 L 14.375 106.434571 L 13.65625 105.336914 L 12.667969 104.458008 L 11.5 103.840821 L 10.0625 103.579102 L 8.175781 103.930664 L 6.558594 104.458008 L 5.390625 105.204102 L 4.851562 106.083008 L 5.03125 106.524414 L 5.300781 107.004883 " transform="matrix(1,0,0,-1,0,188.833008)"/>
<path style="fill:none;stroke-width:1.41;stroke-linecap:round;stroke-linejoin:round;stroke:rgb(0%,0%,0%);stroke-opacity:1;stroke-miterlimit:10;" d="M 17.070312 116.411133 L 17.160156 116.016602 L 17.160156 114.387696 L 17.070312 111.797852 L 16.980469 108.895508 L 17.160156 106.391602 L 17.699219 104.985352 L 18.597656 104.500977 L 19.496094 104.500977 L 20.125 104.676758 L 20.574219 104.895508 L 20.574219 105.204102 " transform="matrix(1,0,0,-1,0,188.833008)"/>
<path style="fill:none;stroke-width:1.41;stroke-linecap:round;stroke-linejoin:round;stroke:rgb(0%,0%,0%);stroke-opacity:1;stroke-miterlimit:10;" d="M 14.375 111.180664 L 14.105469 111.403321 L 14.375 111.575196 L 15.542969 111.754883 L 16.980469 112.016602 L 18.597656 112.235352 L 19.945312 112.458008 L 20.574219 112.586914 L 20.84375 112.586914 L 21.113281 112.500977 " transform="matrix(1,0,0,-1,0,188.833008)"/>
<path style="fill:none;stroke-width:1.41;stroke-linecap:round;stroke-linejoin:round;stroke:rgb(0%,0%,0%);stroke-opacity:1;stroke-miterlimit:10;" d="M 22.101562 108.368164 L 22.371094 107.137696 L 22.730469 105.645508 L 23.089844 104.239258 L 23.179688 103.622071 L 23 104.192383 L 22.820312 105.688477 L 22.910156 107.622071 L 23.359375 109.204102 L 23.898438 110.391602 L 24.707031 110.829102 L 25.335938 110.700196 L 25.964844 110.348633 L 26.503906 109.864258 L 26.863281 109.379883 L 27.042969 108.985352 " transform="matrix(1,0,0,-1,0,188.833008)"/>
<path style="fill:none;stroke-width:2.26;stroke-linecap:round;stroke-linejoin:round;stroke:rgb(0%,0%,0%);stroke-opacity:1;stroke-miterlimit:10;" d="M 48.875 170.684571 L 49.085938 165.333008 L 49.292969 159.981446 L 49.714844 149.278321 L 49.921875 143.926758 L 50.34375 133.223633 L 50.550781 127.872071 L 50.761719 122.520508 " transform="matrix(1,0,0,-1,0,188.833008)"/>
<path style="fill:none;stroke-width:2.26;stroke-linecap:round;stroke-linejoin:round;stroke:rgb(0%,0%,0%);stroke-opacity:1;stroke-miterlimit:10;" d="M 50.492188 122.301758 L 57.050781 122.211914 " transform="matrix(1,0,0,-1,0,188.833008)"/>
<path style="fill:none;stroke-width:2.26;stroke-linecap:round;stroke-linejoin:round;stroke:rgb(0%,0%,0%);stroke-opacity:1;stroke-miterlimit:10;" d="M 57.050781 122.211914 L 57.015625 116.403321 L 56.980469 110.590821 L 56.941406 104.782227 L 56.871094 93.165039 " transform="matrix(1,0,0,-1,0,188.833008)"/>
<path style="fill:none;stroke-width:2.26;stroke-linecap:round;stroke-linejoin:round;stroke:rgb(0%,0%,0%);stroke-opacity:1;stroke-miterlimit:10;" d="M 56.78125 92.989258 L 50.132812 93.426758 " transform="matrix(1,0,0,-1,0,188.833008)"/>
<path style="fill:none;stroke-width:2.26;stroke-linecap:round;stroke-linejoin:round;stroke:rgb(0%,0%,0%);stroke-opacity:1;stroke-miterlimit:10;" d="M 50.222656 92.856446 L 50.425781 82.606446 L 50.527344 77.485352 L 50.730469 67.235352 L 50.832031 62.114258 L 50.933594 56.989258 L 51.039062 51.864258 L 51.242188 41.614258 L 51.34375 36.493164 L 51.546875 26.243164 L 51.648438 21.122071 L 51.75 15.997071 " transform="matrix(1,0,0,-1,0,188.833008)"/>
<path style="fill:none;stroke-width:2.26;stroke-linecap:round;stroke-linejoin:round;stroke:rgb(0%,0%,0%);stroke-opacity:1;stroke-miterlimit:10;" d="M 51.480469 15.204102 L 56.558594 15.122071 L 61.636719 15.043946 L 66.710938 14.961914 L 81.945312 14.715821 L 87.019531 14.633789 L 92.097656 14.551758 L 97.175781 14.473633 L 107.332031 14.309571 L 112.40625 14.227539 L 127.640625 13.981446 L 132.714844 13.903321 L 153.027344 13.575196 L 158.101562 13.493164 L 163.179688 13.411133 L 168.257812 13.333008 L 178.414062 13.168946 L 183.488281 13.086914 L 198.722656 12.840821 L 203.796875 12.762696 L 224.109375 12.434571 L 229.183594 12.352539 L 234.261719 12.274414 L 244.417969 12.110352 L 249.492188 12.028321 L 259.648438 11.864258 " transform="matrix(1,0,0,-1,0,188.833008)"/>
<path style="fill:none;stroke-width:2.26;stroke-linecap:round;stroke-linejoin:round;stroke:rgb(0%,0%,0%);stroke-opacity:1;stroke-miterlimit:10;" d="M 259.558594 12.524414 L 259.632812 17.618164 L 259.703125 22.711914 L 259.777344 27.805664 L 259.847656 32.899414 L 259.921875 37.993164 L 259.992188 43.083008 L 260.066406 48.176758 L 260.136719 53.270508 L 260.210938 58.364258 L 260.28125 63.458008 L 260.429688 73.645508 L 260.5 78.739258 L 260.574219 83.833008 L 260.644531 88.926758 L 260.71875 94.020508 L 260.789062 99.110352 L 260.863281 104.204102 L 260.933594 109.297852 L 261.082031 119.485352 L 261.152344 124.579102 L 261.226562 129.672852 L 261.296875 134.766602 L 261.371094 139.860352 L 261.441406 144.954102 L 261.515625 150.047852 L 261.585938 155.141602 L 261.660156 160.231446 L 261.730469 165.325196 L 261.804688 170.418946 " transform="matrix(1,0,0,-1,0,188.833008)"/>
<path style="fill:none;stroke-width:2.26;stroke-linecap:round;stroke-linejoin:round;stroke:rgb(0%,0%,0%);stroke-opacity:1;stroke-miterlimit:10;" d="M 32.164062 108.543946 L 32.164062 108.282227 L 32.703125 108.016602 L 33.78125 107.930664 L 35.308594 107.887696 L 37.285156 107.887696 L 39.53125 107.840821 L 41.597656 107.708008 L 43.484375 107.579102 L 45.460938 107.403321 L 47.347656 107.313477 L 49.234375 107.270508 L 57.410156 107.270508 L 58.757812 107.313477 L 60.285156 107.489258 L 61.8125 107.840821 L 63.429688 108.325196 L 65.40625 109.204102 L 67.203125 110.168946 L 68.910156 111.270508 L 70.347656 112.458008 L 71.335938 113.555664 L 72.234375 114.696289 L 73.132812 116.102539 L 74.03125 117.551758 L 74.929688 118.958008 L 75.558594 120.321289 L 75.917969 121.465821 L 76.1875 122.473633 L 76.546875 123.661133 L 77.085938 124.891602 L 77.984375 126.387696 L 79.242188 128.055664 L 80.5 129.551758 L 81.757812 130.825196 L 83.105469 132.055664 L 84.542969 133.110352 L 85.980469 134.122071 L 87.507812 135.000977 L 88.765625 135.614258 L 90.023438 136.141602 L 91.640625 136.668946 L 93.257812 137.110352 L 94.785156 137.504883 L 96.042969 137.770508 L 96.851562 137.899414 L 97.570312 137.989258 L 98.199219 138.075196 L 98.917969 138.165039 L 99.546875 138.165039 L 99.90625 138.122071 L 100.445312 138.122071 L 100.804688 138.075196 L 101.164062 138.075196 L 101.613281 137.989258 L 101.882812 137.856446 " transform="matrix(1,0,0,-1,0,188.833008)"/>
<path style="fill:none;stroke-width:2.26;stroke-linecap:round;stroke-linejoin:round;stroke:rgb(0%,0%,0%);stroke-opacity:1;stroke-miterlimit:10;" d="M 63.878906 108.458008 L 64.6875 108.239258 L 65.675781 108.059571 L 67.023438 107.797852 L 68.460938 107.446289 L 70.167969 107.004883 L 71.605469 106.610352 L 72.683594 106.301758 L 73.851562 105.731446 L 74.660156 104.985352 L 75.46875 103.973633 L 76.457031 102.614258 L 77.265625 101.075196 L 77.894531 99.450196 L 78.433594 97.559571 L 78.882812 95.668946 L 79.332031 93.735352 L 79.691406 91.668946 L 79.960938 89.825196 L 80.140625 88.020508 L 80.320312 86.176758 L 80.410156 84.418946 L 80.5 82.704102 L 80.859375 81.036133 L 81.21875 79.629883 L 81.757812 78.266602 L 82.476562 76.903321 L 83.285156 75.672852 L 84.09375 74.489258 L 85.351562 73.301758 L 86.699219 72.290039 L 88.226562 71.325196 L 89.574219 70.622071 L 90.832031 70.047852 L 92 69.567383 L 93.257812 69.301758 L 94.785156 69.083008 L 96.3125 68.993164 L 97.75 68.950196 L 99.007812 68.950196 L 99.996094 68.864258 L 101.703125 68.864258 L 102.421875 68.950196 L 103.050781 68.993164 L 103.589844 69.083008 L 103.949219 69.168946 L 104.308594 69.215821 L 104.578125 69.258789 L 104.667969 69.520508 " transform="matrix(1,0,0,-1,0,188.833008)"/>
<path style="fill:none;stroke-width:2.26;stroke-linecap:round;stroke-linejoin:round;stroke:rgb(0%,0%,0%);stroke-opacity:1;stroke-miterlimit:10;" d="M 103.140625 138.645508 L 102.871094 138.516602 L 102.421875 138.426758 L 101.703125 138.426758 L 101.34375 138.473633 " transform="matrix(1,0,0,-1,0,188.833008)"/>
<path style="fill:none;stroke-width:1.41;stroke-linecap:round;stroke-linejoin:round;stroke:rgb(0%,0%,0%);stroke-opacity:1;stroke-miterlimit:10;" d="M 176.8125 28.168946 L 176.902344 28.477539 L 176.992188 28.739258 L 176.632812 28.872071 L 176.003906 28.520508 L 175.285156 27.817383 L 174.65625 26.497071 L 174.65625 25.004883 L 175.195312 23.598633 L 176.363281 22.762696 L 177.800781 22.762696 L 179.058594 23.422852 L 179.867188 24.696289 L 179.957031 25.926758 L 179.597656 27.071289 L 179.058594 27.860352 L 178.789062 28.211914 L 178.609375 28.434571 " transform="matrix(1,0,0,-1,0,188.833008)"/>
<path style="fill:none;stroke-width:1.41;stroke-linecap:round;stroke-linejoin:round;stroke:rgb(0%,0%,0%);stroke-opacity:1;stroke-miterlimit:10;" d="M 183.191406 27.028321 L 183.011719 26.805664 L 182.832031 26.325196 L 182.832031 25.575196 L 182.921875 24.829102 L 182.832031 24.344727 L 182.742188 24.696289 L 182.832031 25.883789 L 183.371094 27.422852 L 184.269531 28.520508 L 185.257812 28.829102 L 186.15625 28.477539 L 186.695312 27.200196 L 186.964844 25.840821 L 186.964844 23.731446 L 187.144531 23.512696 " transform="matrix(1,0,0,-1,0,188.833008)"/>
<path style="fill:none;stroke-width:1.41;stroke-linecap:round;stroke-linejoin:round;stroke:rgb(0%,0%,0%);stroke-opacity:1;stroke-miterlimit:10;" d="M 189.929688 25.840821 L 190.738281 26.059571 L 191.546875 26.543946 L 192.445312 27.333008 L 192.804688 28.211914 L 192.625 28.915039 L 191.90625 29.137696 L 191.007812 28.434571 L 190.289062 27.333008 L 189.839844 26.016602 L 189.660156 24.786133 L 189.75 24.083008 L 190.019531 23.422852 L 190.289062 22.895508 L 191.007812 22.500977 L 191.996094 22.325196 L 192.894531 22.368164 L 193.882812 22.500977 L 194.601562 22.938477 " transform="matrix(1,0,0,-1,0,188.833008)"/>
<path style="fill:none;stroke-width:1.41;stroke-linecap:round;stroke-linejoin:round;stroke:rgb(0%,0%,0%);stroke-opacity:1;stroke-miterlimit:10;" d="M 196.039062 25.270508 L 196.488281 25.399414 L 197.296875 25.489258 L 198.105469 25.622071 L 198.734375 25.750977 L 199.183594 25.840821 " transform="matrix(1,0,0,-1,0,188.833008)"/>
<path style="fill:none;stroke-width:1.41;stroke-linecap:round;stroke-linejoin:round;stroke:rgb(0%,0%,0%);stroke-opacity:1;stroke-miterlimit:10;" d="M 205.832031 28.520508 L 205.382812 28.872071 L 204.753906 29.266602 L 203.945312 29.399414 L 203.046875 29.137696 L 202.328125 28.563477 L 201.96875 27.774414 L 202.417969 27.028321 L 203.40625 26.411133 L 204.574219 25.665039 L 205.5625 24.610352 L 205.742188 23.512696 L 204.84375 22.676758 L 203.40625 22.458008 L 202.238281 22.676758 L 201.339844 23.204102 L 201.160156 23.864258 " transform="matrix(1,0,0,-1,0,188.833008)"/>
<path style="fill:none;stroke-width:1.41;stroke-linecap:round;stroke-linejoin:round;stroke:rgb(0%,0%,0%);stroke-opacity:1;stroke-miterlimit:10;" d="M 209.875 32.739258 L 209.875 33.004883 L 209.875 29.489258 L 209.785156 27.333008 L 209.785156 24.387696 L 209.875 23.774414 L 209.964844 23.290039 L 210.234375 22.852539 L 210.773438 22.676758 L 211.402344 22.762696 L 212.121094 22.981446 L 212.570312 23.422852 L 212.839844 23.950196 " transform="matrix(1,0,0,-1,0,188.833008)"/>
<path style="fill:none;stroke-width:1.41;stroke-linecap:round;stroke-linejoin:round;stroke:rgb(0%,0%,0%);stroke-opacity:1;stroke-miterlimit:10;" d="M 208.257812 27.598633 L 208.707031 27.817383 L 209.785156 28.083008 L 211.042969 28.301758 L 212.210938 28.477539 L 212.929688 28.477539 L 213.558594 28.434571 " transform="matrix(1,0,0,-1,0,188.833008)"/>
<path style="fill:none;stroke-width:1.41;stroke-linecap:round;stroke-linejoin:round;stroke:rgb(0%,0%,0%);stroke-opacity:1;stroke-miterlimit:10;" d="M 215.535156 27.950196 L 215.355469 27.333008 L 215.445312 26.235352 L 215.804688 24.829102 L 216.253906 23.465821 L 216.523438 22.676758 L 216.253906 23.864258 L 216.253906 25.575196 L 216.703125 27.333008 L 217.332031 29.004883 L 218.140625 29.793946 L 219.128906 30.012696 " transform="matrix(1,0,0,-1,0,188.833008)"/>
<path style="fill:none;stroke-width:1.41;stroke-linecap:round;stroke-linejoin:round;stroke:rgb(0%,0%,0%);stroke-opacity:1;stroke-miterlimit:10;" d="M 221.464844 31.200196 L 221.375 31.418946 L 221.285156 31.114258 " transform="matrix(1,0,0,-1,0,188.833008)"/>
<path style="fill:none;stroke-width:1.41;stroke-linecap:round;stroke-linejoin:round;stroke:rgb(0%,0%,0%);stroke-opacity:1;stroke-miterlimit:10;" d="M 221.554688 27.731446 L 221.464844 26.762696 L 221.464844 24.036133 L 221.734375 22.938477 L 221.914062 22.235352 L 222.183594 22.235352 " transform="matrix(1,0,0,-1,0,188.833008)"/>
<path style="fill:none;stroke-width:1.41;stroke-linecap:round;stroke-linejoin:round;stroke:rgb(0%,0%,0%);stroke-opacity:1;stroke-miterlimit:10;" d="M 225.328125 22.500977 L 225.058594 23.204102 L 225.058594 24.434571 L 225.507812 26.102539 L 226.226562 27.551758 L 227.035156 28.520508 L 227.84375 28.606446 L 228.472656 27.774414 L 228.921875 26.235352 L 229.191406 24.696289 L 229.371094 23.333008 L 229.371094 22.325196 " transform="matrix(1,0,0,-1,0,188.833008)"/>
<path style="fill:none;stroke-width:1.41;stroke-linecap:round;stroke-linejoin:round;stroke:rgb(0%,0%,0%);stroke-opacity:1;stroke-miterlimit:10;" d="M 236.558594 27.157227 L 236.378906 27.950196 L 236.019531 28.739258 L 235.300781 29.004883 L 234.402344 28.696289 L 233.59375 27.551758 L 232.964844 26.016602 L 233.054688 24.567383 L 233.773438 23.512696 L 234.851562 23.114258 L 236.109375 23.598633 L 237.007812 24.567383 L 237.636719 25.708008 L 237.726562 26.895508 L 237.636719 27.774414 L 237.457031 28.344727 L 237.277344 28.653321 L 237.277344 28.083008 L 237.367188 27.290039 L 237.636719 26.145508 L 237.816406 24.434571 L 237.816406 22.500977 L 237.636719 20.477539 L 236.917969 18.676758 L 235.570312 17.665039 L 234.222656 17.356446 L 233.144531 17.446289 L 232.15625 18.149414 " transform="matrix(1,0,0,-1,0,188.833008)"/>
</g>
</svg>
