<?xml version="1.0" encoding="UTF-8"?>
<svg xmlns="http://www.w3.org/2000/svg" xmlns:xlink="http://www.w3.org/1999/xlink" width="270.79pt" height="188.83pt" viewBox="0 0 270.79 188.83" version="1.1">
<g id="surface1">
<path style="fill:none;stroke-width:2.26;stroke-linecap:round;stroke-linejoin:round;stroke:rgb(0%,0%,0%);stroke-opacity:1;stroke-miterlimit:10;" d="M 97.75 164.259688 L 102.871094 164.279219 L 107.980469 164.29875 L 113.101562 164.318281 L 118.21875 164.341719 L 123.328125 164.349531 L 138.691406 164.408125 L 143.800781 164.431563 L 148.921875 164.439375 L 154.039062 164.458906 L 159.148438 164.478438 L 164.269531 164.501875 L 169.390625 164.521406 L 174.5 164.529219 L 179.621094 164.54875 L 184.738281 164.568281 L 189.859375 164.591719 L 194.96875 164.61125 L 200.089844 164.619063 L 205.210938 164.638594 L 210.320312 164.658125 " transform="matrix(1,0,0,-1,0,188.83)"/>
<path style="fill:none;stroke-width:2.26;stroke-linecap:round;stroke-linejoin:round;stroke:rgb(0%,0%,0%);stroke-opacity:1;stroke-miterlimit:10;" d="M 211.039062 164.400313 L 211.089844 158.400313 L 211.128906 152.400313 " transform="matrix(1,0,0,-1,0,188.83)"/>
<path style="fill:none;stroke-width:2.26;stroke-linecap:round;stroke-linejoin:round;stroke:rgb(0%,0%,0%);stroke-opacity:1;stroke-miterlimit:10;" d="M 211.128906 151.869063 L 216.699219 151.701094 " transform="matrix(1,0,0,-1,0,188.83)"/>
<path style="fill:none;stroke-width:2.26;stroke-linecap:round;stroke-linejoin:round;stroke:rgb(0%,0%,0%);stroke-opacity:1;stroke-miterlimit:10;" d="M 216.699219 151.341719 L 216.671875 145.958906 L 216.628906 140.568281 L 216.589844 135.181563 L 216.558594 129.790938 L 216.519531 124.408125 " transform="matrix(1,0,0,-1,0,188.83)"/>
<path style="fill:none;stroke-width:2.26;stroke-linecap:round;stroke-linejoin:round;stroke:rgb(0%,0%,0%);stroke-opacity:1;stroke-miterlimit:10;" d="M 216.699219 124.630781 L 211.851562 123.880781 " transform="matrix(1,0,0,-1,0,188.83)"/>
<path style="fill:none;stroke-width:2.26;stroke-linecap:round;stroke-linejoin:round;stroke:rgb(0%,0%,0%);stroke-opacity:1;stroke-miterlimit:10;" d="M 212.300781 124.630781 L 212.089844 119.181563 L 211.878906 113.728438 L 211.671875 108.279219 " transform="matrix(1,0,0,-1,0,188.83)"/>
<path style="fill:none;stroke-width:2.26;stroke-linecap:round;stroke-linejoin:round;stroke:rgb(0%,0%,0%);stroke-opacity:1;stroke-miterlimit:10;" d="M 212.210938 107.931563 L 207.058594 107.990156 L 201.910156 108.04875 L 196.761719 108.11125 L 191.609375 108.169844 L 186.460938 108.228438 L 181.308594 108.290938 L 171.011719 108.408125 L 165.859375 108.470625 L 160.710938 108.529219 L 155.558594 108.591719 L 145.261719 108.708906 L 140.109375 108.771406 L 134.960938 108.83 L 129.820312 108.888594 L 124.671875 108.951094 L 119.519531 109.009688 L 114.371094 109.068281 L 109.21875 109.130781 L 104.070312 109.189375 L 98.921875 109.240156 " transform="matrix(1,0,0,-1,0,188.83)"/>
<path style="fill:none;stroke-width:2.26;stroke-linecap:round;stroke-linejoin:round;stroke:rgb(0%,0%,0%);stroke-opacity:1;stroke-miterlimit:10;" d="M 99.101562 109.599531 L 98.921875 116.540938 L 98.738281 123.478438 " transform="matrix(1,0,0,-1,0,188.83)"/>
<path style="fill:none;stroke-width:2.26;stroke-linecap:round;stroke-linejoin:round;stroke:rgb(0%,0%,0%);stroke-opacity:1;stroke-miterlimit:10;" d="M 98.558594 122.908125 L 105.839844 123.310469 " transform="matrix(1,0,0,-1,0,188.83)"/>
<path style="fill:none;stroke-width:2.26;stroke-linecap:round;stroke-linejoin:round;stroke:rgb(0%,0%,0%);stroke-opacity:1;stroke-miterlimit:10;" d="M 105.390625 122.869063 L 105.191406 128.540938 L 104.988281 134.208906 L 104.789062 139.869063 L 104.601562 145.540938 L 104.398438 151.208906 " transform="matrix(1,0,0,-1,0,188.83)"/>
<path style="fill:none;stroke-width:2.26;stroke-linecap:round;stroke-linejoin:round;stroke:rgb(0%,0%,0%);stroke-opacity:1;stroke-miterlimit:10;" d="M 104.308594 151.119063 L 98.199219 150.689375 " transform="matrix(1,0,0,-1,0,188.83)"/>
<path style="fill:none;stroke-width:2.26;stroke-linecap:round;stroke-linejoin:round;stroke:rgb(0%,0%,0%);stroke-opacity:1;stroke-miterlimit:10;" d="M 98.199219 150.599531 L 98.199219 163.029219 " transform="matrix(1,0,0,-1,0,188.83)"/>
<path style="fill:none;stroke-width:1.41;stroke-linecap:round;stroke-linejoin:round;stroke:rgb(0%,0%,0%);stroke-opacity:1;stroke-miterlimit:10;" d="M 126.679688 140.708906 L 126.5 141.060469 L 126.050781 141.33 L 125.511719 141.540938 L 124.609375 141.591719 L 123.710938 141.189375 L 122.820312 140.310469 L 122.011719 138.818281 L 121.738281 137.189375 L 122.011719 135.658125 L 123 134.470625 L 124.339844 133.810469 L 125.601562 133.630781 L 126.589844 133.810469 L 127.039062 134.208906 L 127.398438 134.728438 L 127.578125 135.169844 L 127.851562 135.568281 " transform="matrix(1,0,0,-1,0,188.83)"/>
<path style="fill:none;stroke-width:1.41;stroke-linecap:round;stroke-linejoin:round;stroke:rgb(0%,0%,0%);stroke-opacity:1;stroke-miterlimit:10;" d="M 131.710938 139.83 L 131.53125 140.138594 L 131.078125 140.138594 L 130.359375 139.521406 L 129.550781 138.380781 L 128.839844 136.841719 L 128.570312 135.349531 L 128.921875 134.290938 L 129.640625 133.630781 L 130.449219 133.369063 L 131.261719 133.369063 L 132.070312 133.810469 L 132.519531 134.689375 L 132.699219 136.099531 L 132.609375 137.591719 L 132.25 138.779219 L 132.070312 139.61125 " transform="matrix(1,0,0,-1,0,188.83)"/>
<path style="fill:none;stroke-width:1.41;stroke-linecap:round;stroke-linejoin:round;stroke:rgb(0%,0%,0%);stroke-opacity:1;stroke-miterlimit:10;" d="M 135.570312 134.068281 L 135.210938 134.290938 L 135.03125 135.040938 L 135.03125 136.271406 L 135.390625 137.810469 L 136.199219 139.169844 L 137.101562 139.790938 L 137.910156 139.740156 L 138.539062 138.908125 L 138.808594 137.939375 L 139.078125 136.669844 L 139.171875 135.220625 L 139.261719 133.939375 L 139.351562 132.931563 L 139.351562 132.400313 " transform="matrix(1,0,0,-1,0,188.83)"/>
<path style="fill:none;stroke-width:1.41;stroke-linecap:round;stroke-linejoin:round;stroke:rgb(0%,0%,0%);stroke-opacity:1;stroke-miterlimit:10;" d="M 144.289062 138.599531 L 144.289062 139.169844 L 144.199219 139.568281 L 144.109375 139.790938 L 143.75 139.790938 L 143.210938 139.658125 L 142.761719 139.29875 L 142.128906 138.341719 L 141.679688 137.369063 L 141.5 136.318281 L 141.679688 135.040938 L 142.308594 134.251875 L 143.03125 133.591719 L 143.75 133.279219 L 144.289062 133.240156 L 144.921875 133.591719 " transform="matrix(1,0,0,-1,0,188.83)"/>
<path style="fill:none;stroke-width:1.41;stroke-linecap:round;stroke-linejoin:round;stroke:rgb(0%,0%,0%);stroke-opacity:1;stroke-miterlimit:10;" d="M 147.96875 138.419844 L 147.519531 139.001875 L 147.25 139.478438 L 147.339844 140.009688 L 147.96875 140.400313 L 148.78125 140.36125 L 149.679688 139.958906 L 150.308594 138.951094 L 150.578125 137.150313 L 150.488281 135.521406 L 150.398438 133.990156 L 150.398438 133.11125 L 150.578125 133.591719 L 150.398438 134.341719 L 150.21875 135.001875 L 149.859375 135.478438 L 149.140625 135.919844 L 148.058594 135.701094 L 147.070312 135.040938 L 146.441406 134.119063 L 146.710938 133.11125 L 147.699219 132.619063 L 148.78125 132.540938 L 149.949219 132.888594 " transform="matrix(1,0,0,-1,0,188.83)"/>
<path style="fill:none;stroke-width:1.41;stroke-linecap:round;stroke-linejoin:round;stroke:rgb(0%,0%,0%);stroke-opacity:1;stroke-miterlimit:10;" d="M 154.351562 145.021406 L 154.261719 145.501875 L 154.171875 144.841719 L 154.171875 144.310469 L 154.078125 143.61125 L 154.078125 142.689375 L 153.988281 141.33 L 153.808594 139.29875 L 153.71875 137.060469 L 153.988281 135.040938 L 154.621094 133.681563 L 155.429688 133.150313 L 156.238281 133.150313 L 156.691406 133.591719 " transform="matrix(1,0,0,-1,0,188.83)"/>
<path style="fill:none;stroke-width:1.41;stroke-linecap:round;stroke-linejoin:round;stroke:rgb(0%,0%,0%);stroke-opacity:1;stroke-miterlimit:10;" d="M 151.839844 140.400313 L 151.660156 140.708906 L 152.191406 140.970625 L 152.910156 141.060469 L 153.628906 141.021406 L 154.351562 141.021406 L 155.25 140.970625 L 156.058594 140.931563 L 156.871094 140.751875 " transform="matrix(1,0,0,-1,0,188.83)"/>
<path style="fill:none;stroke-width:1.41;stroke-linecap:round;stroke-linejoin:round;stroke:rgb(0%,0%,0%);stroke-opacity:1;stroke-miterlimit:10;" d="M 159.109375 136.400313 L 159.738281 136.228438 L 160.550781 136.181563 L 161.269531 136.181563 L 161.898438 136.271406 L 162.261719 136.490156 " transform="matrix(1,0,0,-1,0,188.83)"/>
<path style="fill:none;stroke-width:1.41;stroke-linecap:round;stroke-linejoin:round;stroke:rgb(0%,0%,0%);stroke-opacity:1;stroke-miterlimit:10;" d="M 163.691406 140.58 L 163.601562 140.931563 L 163.511719 141.150313 " transform="matrix(1,0,0,-1,0,188.83)"/>
<path style="fill:none;stroke-width:1.41;stroke-linecap:round;stroke-linejoin:round;stroke:rgb(0%,0%,0%);stroke-opacity:1;stroke-miterlimit:10;" d="M 164.589844 139.001875 L 164.679688 137.720625 L 164.769531 136.181563 L 164.859375 134.728438 L 164.949219 133.591719 L 165.039062 132.888594 " transform="matrix(1,0,0,-1,0,188.83)"/>
<path style="fill:none;stroke-width:1.41;stroke-linecap:round;stroke-linejoin:round;stroke:rgb(0%,0%,0%);stroke-opacity:1;stroke-miterlimit:10;" d="M 167.558594 133.369063 L 167.558594 134.818281 L 168.011719 136.490156 L 168.820312 137.939375 L 169.980469 138.029219 L 170.878906 136.751875 L 171.421875 134.779219 L 171.601562 132.931563 L 171.691406 131.958906 " transform="matrix(1,0,0,-1,0,188.83)"/>
<path style="fill:none;stroke-width:1.41;stroke-linecap:round;stroke-linejoin:round;stroke:rgb(0%,0%,0%);stroke-opacity:1;stroke-miterlimit:10;" d="M 178.339844 137.810469 L 178.070312 138.380781 L 177.890625 138.638594 L 177.53125 138.86125 L 176.808594 138.818281 L 176 138.560469 L 175.191406 137.720625 L 174.660156 136.708906 L 174.390625 135.61125 L 174.660156 134.208906 L 175.640625 133.279219 L 176.898438 133.060469 L 178.160156 133.681563 L 179.058594 135.439375 L 179.421875 137.771406 L 179.148438 140.310469 L 178.789062 142.341719 L 178.519531 142.86125 L 178.609375 141.810469 L 178.96875 139.349531 L 179.511719 136.619063 L 179.960938 134.779219 L 180.5 133.939375 " transform="matrix(1,0,0,-1,0,188.83)"/>
<path style="fill:none;stroke-width:1.41;stroke-linecap:round;stroke-linejoin:round;stroke:rgb(0%,0%,0%);stroke-opacity:1;stroke-miterlimit:10;" d="M 183.730469 137.189375 L 184.539062 137.189375 L 185.53125 137.591719 L 186.511719 138.470625 L 187.230469 139.439375 L 187.320312 140.400313 L 186.78125 141.021406 L 185.710938 140.888594 L 184.628906 140.490156 L 183.730469 139.83 L 183.101562 138.908125 L 182.921875 138.201094 L 183.011719 136.888594 L 183.371094 135.388594 L 184.179688 134.068281 L 185.171875 133.150313 L 186.160156 133.11125 L 187.230469 133.591719 " transform="matrix(1,0,0,-1,0,188.83)"/>
<path style="fill:none;stroke-width:1.41;stroke-linecap:round;stroke-linejoin:round;stroke:rgb(0%,0%,0%);stroke-opacity:1;stroke-miterlimit:10;" d="M 195.410156 145.849531 L 195.230469 146.771406 L 194.691406 147.650313 L 193.789062 148.001875 L 192.890625 147.568281 L 192.089844 146.599531 L 191.640625 145.369063 L 191.460938 144.228438 L 191.640625 142.689375 L 192 140.708906 L 192.441406 138.158125 L 192.800781 135.521406 L 193.070312 133.54875 L 193.070312 132.181563 L 192.621094 131.790938 " transform="matrix(1,0,0,-1,0,188.83)"/>
<path style="fill:none;stroke-width:1.41;stroke-linecap:round;stroke-linejoin:round;stroke:rgb(0%,0%,0%);stroke-opacity:1;stroke-miterlimit:10;" d="M 190.109375 136.619063 L 189.929688 137.408125 L 190.738281 138.029219 L 192.179688 138.560469 L 194.058594 138.908125 L 195.769531 139.08 L 196.761719 139.130781 L 197.121094 139.220625 " transform="matrix(1,0,0,-1,0,188.83)"/>
<path style="fill:none;stroke-width:2.26;stroke-linecap:round;stroke-linejoin:round;stroke:rgb(0%,0%,0%);stroke-opacity:1;stroke-miterlimit:10;" d="M 98.738281 96.279219 L 103.851562 96.29875 L 108.96875 96.318281 L 114.089844 96.341719 L 119.210938 96.349531 L 124.320312 96.369063 L 129.441406 96.388594 L 134.558594 96.408125 L 139.671875 96.419844 L 144.789062 96.439375 L 149.910156 96.458906 L 155.019531 96.478438 L 160.140625 96.501875 L 165.261719 96.509688 L 170.378906 96.529219 L 175.488281 96.54875 L 180.609375 96.568281 L 185.730469 96.591719 L 190.839844 96.599531 L 195.960938 96.619063 L 201.078125 96.638594 L 206.191406 96.658125 L 211.308594 96.681563 " transform="matrix(1,0,0,-1,0,188.83)"/>
<path style="fill:none;stroke-width:2.26;stroke-linecap:round;stroke-linejoin:round;stroke:rgb(0%,0%,0%);stroke-opacity:1;stroke-miterlimit:10;" d="M 212.03125 96.408125 L 212.078125 90.408125 L 212.121094 84.419844 " transform="matrix(1,0,0,-1,0,188.83)"/>
<path style="fill:none;stroke-width:2.26;stroke-linecap:round;stroke-linejoin:round;stroke:rgb(0%,0%,0%);stroke-opacity:1;stroke-miterlimit:10;" d="M 212.121094 83.888594 L 217.691406 83.708906 " transform="matrix(1,0,0,-1,0,188.83)"/>
<path style="fill:none;stroke-width:2.26;stroke-linecap:round;stroke-linejoin:round;stroke:rgb(0%,0%,0%);stroke-opacity:1;stroke-miterlimit:10;" d="M 217.691406 83.36125 L 217.648438 77.970625 L 217.621094 72.591719 L 217.578125 67.201094 L 217.550781 61.810469 L 217.511719 56.419844 " transform="matrix(1,0,0,-1,0,188.83)"/>
<path style="fill:none;stroke-width:2.26;stroke-linecap:round;stroke-linejoin:round;stroke:rgb(0%,0%,0%);stroke-opacity:1;stroke-miterlimit:10;" d="M 217.691406 56.638594 L 212.839844 55.900313 " transform="matrix(1,0,0,-1,0,188.83)"/>
<path style="fill:none;stroke-width:2.26;stroke-linecap:round;stroke-linejoin:round;stroke:rgb(0%,0%,0%);stroke-opacity:1;stroke-miterlimit:10;" d="M 213.289062 56.638594 L 213.078125 51.189375 L 212.871094 45.740156 L 212.660156 40.290938 " transform="matrix(1,0,0,-1,0,188.83)"/>
<path style="fill:none;stroke-width:2.26;stroke-linecap:round;stroke-linejoin:round;stroke:rgb(0%,0%,0%);stroke-opacity:1;stroke-miterlimit:10;" d="M 213.199219 39.939375 L 208.050781 40.001875 L 202.898438 40.060469 L 197.75 40.119063 L 192.601562 40.181563 L 187.449219 40.240156 L 182.300781 40.29875 L 177.148438 40.36125 L 166.851562 40.478438 L 161.699219 40.540938 L 156.550781 40.599531 L 151.398438 40.658125 L 146.25 40.720625 L 141.101562 40.779219 L 135.949219 40.841719 L 130.800781 40.900313 L 125.648438 40.958906 L 120.5 41.021406 L 115.351562 41.08 L 110.199219 41.138594 L 105.058594 41.201094 L 99.910156 41.259688 " transform="matrix(1,0,0,-1,0,188.83)"/>
<path style="fill:none;stroke-width:2.26;stroke-linecap:round;stroke-linejoin:round;stroke:rgb(0%,0%,0%);stroke-opacity:1;stroke-miterlimit:10;" d="M 100.089844 41.61125 L 99.910156 48.560469 L 99.730469 55.501875 " transform="matrix(1,0,0,-1,0,188.83)"/>
<path style="fill:none;stroke-width:2.26;stroke-linecap:round;stroke-linejoin:round;stroke:rgb(0%,0%,0%);stroke-opacity:1;stroke-miterlimit:10;" d="M 99.550781 54.931563 L 106.820312 55.318281 " transform="matrix(1,0,0,-1,0,188.83)"/>
<path style="fill:none;stroke-width:2.26;stroke-linecap:round;stroke-linejoin:round;stroke:rgb(0%,0%,0%);stroke-opacity:1;stroke-miterlimit:10;" d="M 106.371094 54.880781 L 106.179688 60.54875 L 105.980469 66.220625 L 105.78125 71.888594 L 105.578125 77.560469 L 105.390625 83.228438 " transform="matrix(1,0,0,-1,0,188.83)"/>
<path style="fill:none;stroke-width:2.26;stroke-linecap:round;stroke-linejoin:round;stroke:rgb(0%,0%,0%);stroke-opacity:1;stroke-miterlimit:10;" d="M 105.300781 83.138594 L 99.191406 82.701094 " transform="matrix(1,0,0,-1,0,188.83)"/>
<path style="fill:none;stroke-width:2.26;stroke-linecap:round;stroke-linejoin:round;stroke:rgb(0%,0%,0%);stroke-opacity:1;stroke-miterlimit:10;" d="M 99.191406 82.61125 L 99.191406 95.04875 " transform="matrix(1,0,0,-1,0,188.83)"/>
<path style="fill:none;stroke-width:1.41;stroke-linecap:round;stroke-linejoin:round;stroke:rgb(0%,0%,0%);stroke-opacity:1;stroke-miterlimit:10;" d="M 119.671875 72.150313 L 119.488281 72.33 L 119.21875 72.54875 L 118.589844 72.990156 L 117.871094 73.251875 L 117.160156 73.119063 L 116.710938 72.54875 L 116.710938 71.58 L 117.339844 70.388594 L 118.320312 69.158125 L 119.128906 67.888594 L 119.398438 66.701094 L 119.039062 65.689375 L 118.230469 65.119063 L 117.339844 65.029219 L 116.800781 65.29875 L 116.351562 65.740156 L 116.261719 66.181563 L 116.171875 66.568281 " transform="matrix(1,0,0,-1,0,188.83)"/>
<path style="fill:none;stroke-width:1.41;stroke-linecap:round;stroke-linejoin:round;stroke:rgb(0%,0%,0%);stroke-opacity:1;stroke-miterlimit:10;" d="M 122.28125 78.61125 L 122.28125 76.11125 L 122.371094 74.040938 L 122.371094 68.33 L 122.460938 66.619063 L 122.910156 65.158125 L 123.53125 64.11125 L 124.339844 63.849531 L 125.058594 63.931563 L 125.421875 64.509688 " transform="matrix(1,0,0,-1,0,188.83)"/>
<path style="fill:none;stroke-width:1.41;stroke-linecap:round;stroke-linejoin:round;stroke:rgb(0%,0%,0%);stroke-opacity:1;stroke-miterlimit:10;" d="M 120.570312 70.568281 L 120.390625 70.83 L 120.839844 71.138594 L 121.558594 71.271406 L 122.371094 71.271406 L 123.441406 71.36125 L 124.339844 71.490156 L 124.96875 71.619063 L 125.601562 71.841719 " transform="matrix(1,0,0,-1,0,188.83)"/>
<path style="fill:none;stroke-width:1.41;stroke-linecap:round;stroke-linejoin:round;stroke:rgb(0%,0%,0%);stroke-opacity:1;stroke-miterlimit:10;" d="M 126.859375 71.228438 L 127.039062 70.091719 L 127.398438 68.458906 L 127.761719 66.658125 L 128.03125 65.08 L 128.03125 64.419844 L 127.671875 64.951094 L 127.398438 66.349531 L 127.398438 68.240156 L 127.671875 70.040938 L 128.210938 71.408125 L 128.75 72.201094 L 129.28125 72.681563 " transform="matrix(1,0,0,-1,0,188.83)"/>
<path style="fill:none;stroke-width:1.41;stroke-linecap:round;stroke-linejoin:round;stroke:rgb(0%,0%,0%);stroke-opacity:1;stroke-miterlimit:10;" d="M 130.988281 74.259688 L 131.078125 74.478438 " transform="matrix(1,0,0,-1,0,188.83)"/>
<path style="fill:none;stroke-width:1.41;stroke-linecap:round;stroke-linejoin:round;stroke:rgb(0%,0%,0%);stroke-opacity:1;stroke-miterlimit:10;" d="M 132.429688 70.919844 L 132.429688 70.040938 L 132.339844 69.158125 L 132.25 67.888594 L 132.25 65.29875 L 132.339844 64.419844 " transform="matrix(1,0,0,-1,0,188.83)"/>
<path style="fill:none;stroke-width:1.41;stroke-linecap:round;stroke-linejoin:round;stroke:rgb(0%,0%,0%);stroke-opacity:1;stroke-miterlimit:10;" d="M 135.210938 64.240156 L 135.300781 64.509688 L 135.121094 65.470625 L 135.300781 67.04875 L 135.839844 68.810469 L 136.558594 70.259688 L 137.28125 70.751875 L 138 69.689375 L 138.539062 67.888594 L 138.898438 66.001875 L 139.171875 64.201094 L 139.261719 63.408125 " transform="matrix(1,0,0,-1,0,188.83)"/>
<path style="fill:none;stroke-width:1.41;stroke-linecap:round;stroke-linejoin:round;stroke:rgb(0%,0%,0%);stroke-opacity:1;stroke-miterlimit:10;" d="M 141.410156 68.33 L 141.050781 68.86125 L 140.691406 68.86125 L 140.339844 68.419844 L 140.25 67.540938 L 140.511719 66.091719 L 141.050781 64.951094 L 141.859375 64.458906 L 142.761719 64.458906 L 143.300781 65.158125 L 143.660156 66.181563 L 143.660156 67.009688 L 143.570312 67.978438 L 143.480469 68.720625 L 143.390625 69.158125 L 143.390625 68.771406 L 143.570312 66.919844 L 143.839844 64.11125 L 143.839844 60.33 L 143.390625 56.86125 L 142.398438 54.751875 L 141.230469 53.908125 L 140.25 54.439375 L 139.441406 55.888594 " transform="matrix(1,0,0,-1,0,188.83)"/>
<path style="fill:none;stroke-width:1.41;stroke-linecap:round;stroke-linejoin:round;stroke:rgb(0%,0%,0%);stroke-opacity:1;stroke-miterlimit:10;" d="M 144.558594 70.040938 L 144.558594 69.599531 L 144.648438 68.771406 L 144.828125 67.708906 L 145.011719 66.478438 L 145.101562 65.818281 L 145.640625 65.158125 L 146.351562 64.990156 L 147.25 65.251875 L 148.148438 65.779219 L 148.691406 67.189375 L 148.960938 68.638594 L 149.050781 69.599531 L 149.050781 70.169844 L 149.050781 69.818281 L 149.140625 68.939375 L 149.320312 68.068281 L 149.5 67.009688 L 150.039062 65.818281 L 150.398438 64.86125 L 150.851562 64.33 L 151.300781 64.681563 " transform="matrix(1,0,0,-1,0,188.83)"/>
<path style="fill:none;stroke-width:1.41;stroke-linecap:round;stroke-linejoin:round;stroke:rgb(0%,0%,0%);stroke-opacity:1;stroke-miterlimit:10;" d="M 152.460938 78.61125 L 152.550781 78.29875 L 152.730469 77.650313 L 152.820312 75.58 L 152.820312 69.560469 L 153 66.529219 L 153.269531 64.810469 L 153.988281 64.11125 L 154.621094 64.150313 L 155.25 64.419844 L 155.699219 65.119063 " transform="matrix(1,0,0,-1,0,188.83)"/>
<path style="fill:none;stroke-width:1.41;stroke-linecap:round;stroke-linejoin:round;stroke:rgb(0%,0%,0%);stroke-opacity:1;stroke-miterlimit:10;" d="M 150.761719 70.880781 L 151.121094 71.540938 L 151.839844 72.060469 L 153 72.54875 L 154.351562 72.638594 L 155.070312 72.681563 L 155.878906 72.86125 " transform="matrix(1,0,0,-1,0,188.83)"/>
<path style="fill:none;stroke-width:1.41;stroke-linecap:round;stroke-linejoin:round;stroke:rgb(0%,0%,0%);stroke-opacity:1;stroke-miterlimit:10;" d="M 157.140625 74.310469 L 157.320312 74.701094 L 157.410156 74.919844 " transform="matrix(1,0,0,-1,0,188.83)"/>
<path style="fill:none;stroke-width:1.41;stroke-linecap:round;stroke-linejoin:round;stroke:rgb(0%,0%,0%);stroke-opacity:1;stroke-miterlimit:10;" d="M 157.941406 71.58 L 157.941406 69.740156 L 158.121094 67.759688 L 158.300781 65.740156 L 158.480469 64.021406 L 158.660156 63.36125 " transform="matrix(1,0,0,-1,0,188.83)"/>
<path style="fill:none;stroke-width:1.41;stroke-linecap:round;stroke-linejoin:round;stroke:rgb(0%,0%,0%);stroke-opacity:1;stroke-miterlimit:10;" d="M 161.359375 78.568281 L 161.269531 79.009688 L 161.269531 78.040938 L 161.449219 75.708906 L 161.539062 72.33 L 161.539062 65.740156 L 161.449219 64.11125 L 161.449219 63.759688 " transform="matrix(1,0,0,-1,0,188.83)"/>
<path style="fill:none;stroke-width:1.41;stroke-linecap:round;stroke-linejoin:round;stroke:rgb(0%,0%,0%);stroke-opacity:1;stroke-miterlimit:10;" d="M 167.109375 71.009688 L 167.109375 71.978438 L 167.019531 72.810469 L 166.929688 73.380781 L 166.660156 73.818281 L 166.300781 74.169844 L 166.03125 74.310469 L 165.488281 74.478438 L 164.859375 74.220625 L 164.230469 73.818281 L 163.691406 72.990156 L 163.691406 71.759688 L 164.589844 70.529219 L 165.941406 69.158125 L 167.289062 67.79875 L 167.921875 66.658125 L 167.558594 65.599531 L 166.570312 64.951094 L 165.398438 64.771406 L 164.5 65.119063 " transform="matrix(1,0,0,-1,0,188.83)"/>
<path style="fill:none;stroke-width:1.41;stroke-linecap:round;stroke-linejoin:round;stroke:rgb(0%,0%,0%);stroke-opacity:1;stroke-miterlimit:10;" d="M 171.058594 69.119063 L 170.789062 69.119063 L 171.691406 69.119063 L 172.949219 69.08 L 174.03125 69.029219 L 175.011719 68.990156 L 175.28125 69.029219 " transform="matrix(1,0,0,-1,0,188.83)"/>
<path style="fill:none;stroke-width:1.41;stroke-linecap:round;stroke-linejoin:round;stroke:rgb(0%,0%,0%);stroke-opacity:1;stroke-miterlimit:10;" d="M 175.730469 73.560469 L 175.640625 73.869063 L 175.640625 74.130781 L 175.910156 74.220625 L 176.449219 73.728438 " transform="matrix(1,0,0,-1,0,188.83)"/>
<path style="fill:none;stroke-width:1.41;stroke-linecap:round;stroke-linejoin:round;stroke:rgb(0%,0%,0%);stroke-opacity:1;stroke-miterlimit:10;" d="M 177.171875 70.220625 L 177.171875 68.990156 L 177.261719 67.408125 L 177.441406 65.869063 L 177.53125 64.638594 L 177.710938 63.978438 " transform="matrix(1,0,0,-1,0,188.83)"/>
<path style="fill:none;stroke-width:1.41;stroke-linecap:round;stroke-linejoin:round;stroke:rgb(0%,0%,0%);stroke-opacity:1;stroke-miterlimit:10;" d="M 180.140625 65.599531 L 180.050781 66.349531 L 180.230469 67.540938 L 180.5 68.900313 L 181.03125 70.040938 L 181.839844 70.259688 L 182.648438 69.560469 L 183.28125 68.240156 L 183.910156 66.568281 L 184.179688 65.251875 L 184.269531 64.419844 " transform="matrix(1,0,0,-1,0,188.83)"/>
<path style="fill:none;stroke-width:1.41;stroke-linecap:round;stroke-linejoin:round;stroke:rgb(0%,0%,0%);stroke-opacity:1;stroke-miterlimit:10;" d="M 188.851562 67.759688 L 188.671875 67.978438 L 188.578125 68.419844 L 188.398438 68.771406 L 188.21875 69.029219 L 187.589844 69.208906 L 186.960938 69.119063 L 186.339844 68.771406 L 185.710938 68.201094 L 185.441406 67.58 L 185.351562 66.478438 L 185.621094 65.29875 L 186.429688 64.458906 L 187.5 64.201094 L 188.488281 64.810469 L 189.300781 65.958906 L 189.75 67.228438 L 189.929688 68.419844 L 189.75 70.568281 L 189.390625 72.990156 L 188.941406 74.83 L 188.578125 76.060469 L 188.488281 75.759688 L 188.671875 74.478438 L 189.121094 72.681563 L 189.75 70.478438 L 190.46875 68.021406 L 191.191406 66.001875 L 191.820312 65.119063 " transform="matrix(1,0,0,-1,0,188.83)"/>
<path style="fill:none;stroke-width:1.41;stroke-linecap:round;stroke-linejoin:round;stroke:rgb(0%,0%,0%);stroke-opacity:1;stroke-miterlimit:10;" d="M 193.519531 67.451094 L 193.699219 67.708906 L 194.238281 68.150313 L 194.960938 68.720625 L 195.679688 69.208906 L 196.128906 69.689375 L 196.308594 70.040938 L 196.128906 70.568281 L 195.679688 71.228438 L 194.960938 71.58 L 193.878906 71.189375 L 192.980469 70.388594 L 192.351562 69.08 L 192.351562 67.408125 L 192.980469 65.958906 L 193.789062 64.54875 L 194.601562 63.540938 L 195.320312 63.189375 L 196.039062 63.849531 " transform="matrix(1,0,0,-1,0,188.83)"/>
<path style="fill:none;stroke-width:1.41;stroke-linecap:round;stroke-linejoin:round;stroke:rgb(0%,0%,0%);stroke-opacity:1;stroke-miterlimit:10;" d="M 202.058594 74.83 L 202.058594 75.400313 L 201.96875 75.888594 L 201.789062 76.33 L 201.339844 76.720625 L 200.53125 76.990156 L 199.71875 76.849531 L 199.089844 76.33 L 198.730469 75.540938 L 198.640625 74.61125 L 198.910156 73.08 L 199.359375 70.83 L 199.898438 68.068281 L 200.351562 65.380781 L 200.621094 63.540938 L 200.621094 62.529219 L 200.53125 62.259688 L 200.078125 62.349531 " transform="matrix(1,0,0,-1,0,188.83)"/>
<path style="fill:none;stroke-width:1.41;stroke-linecap:round;stroke-linejoin:round;stroke:rgb(0%,0%,0%);stroke-opacity:1;stroke-miterlimit:10;" d="M 197.839844 67.228438 L 198.371094 67.58 L 199.539062 67.849531 L 200.710938 68.021406 L 201.878906 68.201094 L 202.691406 68.33 " transform="matrix(1,0,0,-1,0,188.83)"/>
<path style="fill:none;stroke-width:2.26;stroke-linecap:round;stroke-linejoin:round;stroke:rgb(0%,0%,0%);stroke-opacity:1;stroke-miterlimit:10;" d="M 261.261719 171.068281 L 256.191406 171.08 L 251.109375 171.08 L 246.039062 171.091719 L 240.960938 171.091719 L 235.878906 171.099531 L 230.808594 171.099531 L 225.730469 171.11125 L 220.660156 171.11125 L 215.578125 171.119063 L 210.5 171.130781 L 205.429688 171.130781 L 200.351562 171.138594 L 195.269531 171.138594 L 190.199219 171.150313 L 185.121094 171.150313 L 180.050781 171.158125 L 174.96875 171.158125 L 169.890625 171.169844 L 164.820312 171.169844 L 159.738281 171.181563 L 154.671875 171.181563 L 149.589844 171.189375 L 144.511719 171.189375 L 139.441406 171.201094 L 134.359375 171.201094 L 129.28125 171.208906 L 124.210938 171.208906 L 119.128906 171.220625 L 114.058594 171.220625 L 108.980469 171.228438 L 103.898438 171.240156 L 98.828125 171.240156 L 93.75 171.251875 L 88.679688 171.251875 L 83.601562 171.259688 L 78.519531 171.259688 L 73.449219 171.271406 L 68.371094 171.271406 L 63.289062 171.279219 L 58.21875 171.279219 L 53.140625 171.290938 L 48.070312 171.290938 " transform="matrix(1,0,0,-1,0,188.83)"/>
<path style="fill:none;stroke-width:1.41;stroke-linecap:round;stroke-linejoin:round;stroke:rgb(0%,0%,0%);stroke-opacity:1;stroke-miterlimit:10;" d="M 13.03125 114.83 L 13.300781 114.908125 L 13.390625 115.130781 L 13.210938 115.568281 L 12.671875 116.138594 L 11.679688 116.630781 L 10.421875 116.79875 L 9.160156 116.451094 L 8.261719 115.751875 L 8.089844 114.689375 L 8.800781 113.509688 L 10.328125 112.228438 L 12.128906 110.779219 L 13.660156 109.33 L 14.460938 107.880781 L 14.371094 106.431563 L 13.660156 105.33 L 12.671875 104.451094 L 11.5 103.841719 L 10.058594 103.58 L 8.171875 103.931563 L 6.558594 104.451094 L 5.390625 105.201094 L 4.851562 106.08 L 5.03125 106.521406 L 5.300781 107.001875 " transform="matrix(1,0,0,-1,0,188.83)"/>
<path style="fill:none;stroke-width:1.41;stroke-linecap:round;stroke-linejoin:round;stroke:rgb(0%,0%,0%);stroke-opacity:1;stroke-miterlimit:10;" d="M 17.070312 116.408125 L 17.160156 116.009688 L 17.160156 114.388594 L 17.070312 111.790938 L 16.980469 108.888594 L 17.160156 106.388594 L 17.699219 104.978438 L 18.601562 104.501875 L 19.5 104.501875 L 20.121094 104.669844 L 20.570312 104.888594 L 20.570312 105.201094 " transform="matrix(1,0,0,-1,0,188.83)"/>
<path style="fill:none;stroke-width:1.41;stroke-linecap:round;stroke-linejoin:round;stroke:rgb(0%,0%,0%);stroke-opacity:1;stroke-miterlimit:10;" d="M 14.371094 111.181563 L 14.101562 111.400313 L 14.371094 111.568281 L 15.539062 111.751875 L 16.980469 112.009688 L 18.601562 112.228438 L 19.941406 112.451094 L 20.570312 112.58 L 20.839844 112.58 L 21.109375 112.501875 " transform="matrix(1,0,0,-1,0,188.83)"/>
<path style="fill:none;stroke-width:1.41;stroke-linecap:round;stroke-linejoin:round;stroke:rgb(0%,0%,0%);stroke-opacity:1;stroke-miterlimit:10;" d="M 22.101562 108.369063 L 22.371094 107.138594 L 22.730469 105.638594 L 23.089844 104.240156 L 23.179688 103.619063 L 23 104.189375 L 22.820312 105.689375 L 22.910156 107.619063 L 23.359375 109.201094 L 23.898438 110.388594 L 24.710938 110.83 L 25.339844 110.701094 L 25.960938 110.341719 L 26.5 109.86125 L 26.859375 109.380781 L 27.039062 108.978438 " transform="matrix(1,0,0,-1,0,188.83)"/>
<path style="fill:none;stroke-width:2.26;stroke-linecap:round;stroke-linejoin:round;stroke:rgb(0%,0%,0%);stroke-opacity:1;stroke-miterlimit:10;" d="M 48.871094 170.681563 L 49.078125 165.33 L 49.289062 159.978438 L 49.5 154.630781 L 49.710938 149.271406 L 49.921875 143.919844 L 50.128906 138.568281 L 50.339844 133.220625 L 50.550781 127.869063 L 50.761719 122.521406 " transform="matrix(1,0,0,-1,0,188.83)"/>
<path style="fill:none;stroke-width:2.26;stroke-linecap:round;stroke-linejoin:round;stroke:rgb(0%,0%,0%);stroke-opacity:1;stroke-miterlimit:10;" d="M 50.488281 122.29875 L 57.050781 122.208906 " transform="matrix(1,0,0,-1,0,188.83)"/>
<path style="fill:none;stroke-width:2.26;stroke-linecap:round;stroke-linejoin:round;stroke:rgb(0%,0%,0%);stroke-opacity:1;stroke-miterlimit:10;" d="M 57.050781 122.208906 L 57.011719 116.400313 L 56.980469 110.591719 L 56.941406 104.779219 L 56.910156 98.970625 L 56.871094 93.158125 " transform="matrix(1,0,0,-1,0,188.83)"/>
<path style="fill:none;stroke-width:2.26;stroke-linecap:round;stroke-linejoin:round;stroke:rgb(0%,0%,0%);stroke-opacity:1;stroke-miterlimit:10;" d="M 56.78125 92.990156 L 50.128906 93.419844 " transform="matrix(1,0,0,-1,0,188.83)"/>
<path style="fill:none;stroke-width:2.26;stroke-linecap:round;stroke-linejoin:round;stroke:rgb(0%,0%,0%);stroke-opacity:1;stroke-miterlimit:10;" d="M 50.21875 92.849531 L 50.320312 87.728438 L 50.429688 82.61125 L 50.53125 77.478438 L 50.628906 72.36125 L 50.730469 67.228438 L 50.828125 62.11125 L 50.929688 56.990156 L 51.039062 51.86125 L 51.140625 46.740156 L 51.238281 41.61125 L 51.441406 31.369063 L 51.550781 26.240156 L 51.648438 21.119063 L 51.75 15.990156 " transform="matrix(1,0,0,-1,0,188.83)"/>
<path style="fill:none;stroke-width:2.26;stroke-linecap:round;stroke-linejoin:round;stroke:rgb(0%,0%,0%);stroke-opacity:1;stroke-miterlimit:10;" d="M 51.480469 15.201094 L 56.558594 15.119063 L 61.628906 15.040938 L 66.710938 14.958906 L 71.789062 14.880781 L 76.871094 14.790938 L 81.941406 14.708906 L 87.019531 14.630781 L 92.101562 14.54875 L 97.179688 14.470625 L 102.25 14.388594 L 107.328125 14.310469 L 112.410156 14.220625 L 117.480469 14.138594 L 122.558594 14.060469 L 127.640625 13.978438 L 132.71875 13.900313 L 137.789062 13.818281 L 142.871094 13.740156 L 147.949219 13.650313 L 153.03125 13.568281 L 158.101562 13.490156 L 163.179688 13.408125 L 168.261719 13.33 L 173.328125 13.251875 L 178.410156 13.169844 L 183.488281 13.08 L 188.570312 13.001875 L 193.640625 12.919844 L 198.71875 12.841719 L 203.800781 12.759688 L 208.871094 12.681563 L 213.949219 12.599531 L 219.03125 12.509688 L 224.109375 12.431563 L 229.179688 12.349531 L 234.261719 12.271406 L 239.339844 12.189375 L 244.421875 12.11125 L 249.488281 12.029219 L 254.570312 11.939375 L 259.648438 11.86125 " transform="matrix(1,0,0,-1,0,188.83)"/>
<path style="fill:none;stroke-width:2.26;stroke-linecap:round;stroke-linejoin:round;stroke:rgb(0%,0%,0%);stroke-opacity:1;stroke-miterlimit:10;" d="M 259.558594 12.521406 L 259.628906 17.61125 L 259.699219 22.708906 L 259.78125 27.79875 L 259.851562 32.888594 L 259.921875 37.990156 L 259.988281 43.08 L 260.058594 48.181563 L 260.140625 53.271406 L 260.210938 58.36125 L 260.28125 63.458906 L 260.351562 68.54875 L 260.429688 73.638594 L 260.5 78.740156 L 260.640625 88.919844 L 260.71875 94.021406 L 260.859375 104.201094 L 260.929688 109.29875 L 261.011719 114.388594 L 261.078125 119.478438 L 261.148438 124.58 L 261.21875 129.669844 L 261.300781 134.759688 L 261.371094 139.86125 L 261.511719 150.040938 L 261.589844 155.138594 L 261.730469 165.318281 L 261.800781 170.419844 " transform="matrix(1,0,0,-1,0,188.83)"/>
<path style="fill:none;stroke-width:2.26;stroke-linecap:round;stroke-linejoin:round;stroke:rgb(0%,0%,0%);stroke-opacity:1;stroke-miterlimit:10;" d="M 32.160156 108.540938 L 32.160156 108.279219 L 32.699219 108.009688 L 33.78125 107.931563 L 35.308594 107.880781 L 37.28125 107.880781 L 39.53125 107.841719 L 41.601562 107.708906 L 43.480469 107.58 L 45.460938 107.400313 L 47.351562 107.310469 L 49.230469 107.271406 L 57.410156 107.271406 L 58.761719 107.310469 L 60.28125 107.490156 L 61.808594 107.841719 L 63.429688 108.318281 L 65.410156 109.201094 L 67.199219 110.169844 L 68.910156 111.271406 L 70.351562 112.451094 L 71.339844 113.54875 L 72.230469 114.689375 L 73.128906 116.099531 L 74.03125 117.54875 L 74.929688 118.958906 L 75.558594 120.318281 L 75.921875 121.458906 L 76.191406 122.470625 L 76.550781 123.658125 L 77.089844 124.888594 L 77.980469 126.380781 L 79.238281 128.04875 L 80.5 129.54875 L 81.761719 130.818281 L 83.101562 132.04875 L 84.539062 133.11125 L 85.980469 134.119063 L 87.511719 135.001875 L 88.761719 135.61125 L 90.019531 136.138594 L 91.640625 136.669844 L 93.261719 137.11125 L 94.78125 137.501875 L 96.039062 137.771406 L 96.851562 137.900313 L 97.570312 137.990156 L 98.199219 138.068281 L 98.921875 138.158125 L 99.550781 138.158125 L 99.910156 138.119063 L 100.441406 138.119063 L 100.800781 138.068281 L 101.160156 138.068281 L 101.609375 137.990156 L 101.878906 137.849531 " transform="matrix(1,0,0,-1,0,188.83)"/>
<path style="fill:none;stroke-width:2.26;stroke-linecap:round;stroke-linejoin:round;stroke:rgb(0%,0%,0%);stroke-opacity:1;stroke-miterlimit:10;" d="M 63.878906 108.451094 L 64.691406 108.228438 L 65.679688 108.060469 L 67.019531 107.790938 L 68.460938 107.439375 L 70.171875 107.001875 L 71.601562 106.61125 L 72.679688 106.29875 L 73.851562 105.728438 L 74.660156 104.978438 L 75.46875 103.970625 L 76.460938 102.61125 L 77.261719 101.068281 L 77.890625 99.451094 L 78.429688 97.560469 L 78.878906 95.669844 L 79.328125 93.728438 L 79.691406 91.669844 L 79.960938 89.818281 L 80.140625 88.021406 L 80.320312 86.169844 L 80.410156 84.419844 L 80.5 82.701094 L 80.859375 81.029219 L 81.21875 79.630781 L 81.761719 78.259688 L 82.480469 76.900313 L 83.28125 75.669844 L 84.089844 74.478438 L 85.351562 73.29875 L 86.699219 72.290938 L 88.230469 71.318281 L 89.570312 70.619063 L 90.828125 70.04875 L 92 69.560469 L 93.261719 69.29875 L 94.78125 69.08 L 96.308594 68.990156 L 97.75 68.951094 L 99.011719 68.951094 L 100 68.86125 L 101.699219 68.86125 L 102.421875 68.951094 L 103.050781 68.990156 L 103.589844 69.08 L 103.949219 69.169844 L 104.308594 69.208906 L 104.578125 69.251875 L 104.671875 69.521406 " transform="matrix(1,0,0,-1,0,188.83)"/>
<path style="fill:none;stroke-width:2.26;stroke-linecap:round;stroke-linejoin:round;stroke:rgb(0%,0%,0%);stroke-opacity:1;stroke-miterlimit:10;" d="M 103.140625 138.638594 L 102.871094 138.509688 L 102.421875 138.419844 L 101.699219 138.419844 L 101.339844 138.470625 " transform="matrix(1,0,0,-1,0,188.83)"/>
<path style="fill:none;stroke-width:1.41;stroke-linecap:round;stroke-linejoin:round;stroke:rgb(0%,0%,0%);stroke-opacity:1;stroke-miterlimit:10;" d="M 176.808594 28.169844 L 176.898438 28.470625 L 176.988281 28.740156 L 176.628906 28.869063 L 176 28.521406 L 175.28125 27.810469 L 174.660156 26.501875 L 174.660156 25.001875 L 175.191406 23.599531 L 176.359375 22.759688 L 177.800781 22.759688 L 179.058594 23.419844 L 179.871094 24.689375 L 179.960938 25.919844 L 179.601562 27.068281 L 179.058594 27.86125 L 178.789062 28.208906 L 178.609375 28.431563 " transform="matrix(1,0,0,-1,0,188.83)"/>
<path style="fill:none;stroke-width:1.41;stroke-linecap:round;stroke-linejoin:round;stroke:rgb(0%,0%,0%);stroke-opacity:1;stroke-miterlimit:10;" d="M 183.191406 27.021406 L 183.011719 26.79875 L 182.828125 26.318281 L 182.828125 25.568281 L 182.921875 24.83 L 182.828125 24.341719 L 182.738281 24.689375 L 182.828125 25.880781 L 183.371094 27.419844 L 184.269531 28.521406 L 185.261719 28.83 L 186.160156 28.470625 L 186.691406 27.201094 L 186.960938 25.841719 L 186.960938 23.728438 L 187.140625 23.509688 " transform="matrix(1,0,0,-1,0,188.83)"/>
<path style="fill:none;stroke-width:1.41;stroke-linecap:round;stroke-linejoin:round;stroke:rgb(0%,0%,0%);stroke-opacity:1;stroke-miterlimit:10;" d="M 189.929688 25.841719 L 190.738281 26.060469 L 191.550781 26.540938 L 192.441406 27.33 L 192.800781 28.208906 L 192.621094 28.908125 L 191.910156 29.130781 L 191.011719 28.431563 L 190.289062 27.33 L 189.839844 26.009688 L 189.660156 24.779219 L 189.75 24.08 L 190.019531 23.419844 L 190.289062 22.888594 L 191.011719 22.501875 L 192 22.318281 L 192.890625 22.369063 L 193.878906 22.501875 L 194.601562 22.939375 " transform="matrix(1,0,0,-1,0,188.83)"/>
<path style="fill:none;stroke-width:1.41;stroke-linecap:round;stroke-linejoin:round;stroke:rgb(0%,0%,0%);stroke-opacity:1;stroke-miterlimit:10;" d="M 196.039062 25.271406 L 196.488281 25.400313 L 197.300781 25.490156 L 198.101562 25.619063 L 198.730469 25.751875 L 199.179688 25.841719 " transform="matrix(1,0,0,-1,0,188.83)"/>
<path style="fill:none;stroke-width:1.41;stroke-linecap:round;stroke-linejoin:round;stroke:rgb(0%,0%,0%);stroke-opacity:1;stroke-miterlimit:10;" d="M 205.828125 28.521406 L 205.378906 28.869063 L 204.75 29.259688 L 203.941406 29.400313 L 203.050781 29.130781 L 202.328125 28.560469 L 201.96875 27.771406 L 202.421875 27.021406 L 203.410156 26.408125 L 204.570312 25.658125 L 205.558594 24.61125 L 205.738281 23.509688 L 204.839844 22.669844 L 203.410156 22.451094 L 202.238281 22.669844 L 201.339844 23.201094 L 201.160156 23.86125 " transform="matrix(1,0,0,-1,0,188.83)"/>
<path style="fill:none;stroke-width:1.41;stroke-linecap:round;stroke-linejoin:round;stroke:rgb(0%,0%,0%);stroke-opacity:1;stroke-miterlimit:10;" d="M 209.871094 32.740156 L 209.871094 33.001875 L 209.871094 29.478438 L 209.78125 27.33 L 209.78125 24.388594 L 209.871094 23.771406 L 209.960938 23.290938 L 210.230469 22.849531 L 210.769531 22.669844 L 211.398438 22.759688 L 212.121094 22.978438 L 212.570312 23.419844 L 212.839844 23.951094 " transform="matrix(1,0,0,-1,0,188.83)"/>
<path style="fill:none;stroke-width:1.41;stroke-linecap:round;stroke-linejoin:round;stroke:rgb(0%,0%,0%);stroke-opacity:1;stroke-miterlimit:10;" d="M 208.261719 27.591719 L 208.710938 27.810469 L 209.78125 28.08 L 211.039062 28.29875 L 212.210938 28.470625 L 212.929688 28.470625 L 213.558594 28.431563 " transform="matrix(1,0,0,-1,0,188.83)"/>
<path style="fill:none;stroke-width:1.41;stroke-linecap:round;stroke-linejoin:round;stroke:rgb(0%,0%,0%);stroke-opacity:1;stroke-miterlimit:10;" d="M 215.53125 27.951094 L 215.351562 27.33 L 215.441406 26.228438 L 215.800781 24.83 L 216.25 23.458906 L 216.519531 22.669844 L 216.25 23.86125 L 216.25 25.568281 L 216.699219 27.33 L 217.328125 29.001875 L 218.140625 29.790938 L 219.128906 30.009688 " transform="matrix(1,0,0,-1,0,188.83)"/>
<path style="fill:none;stroke-width:1.41;stroke-linecap:round;stroke-linejoin:round;stroke:rgb(0%,0%,0%);stroke-opacity:1;stroke-miterlimit:10;" d="M 221.460938 31.201094 L 221.371094 31.419844 L 221.28125 31.11125 " transform="matrix(1,0,0,-1,0,188.83)"/>
<path style="fill:none;stroke-width:1.41;stroke-linecap:round;stroke-linejoin:round;stroke:rgb(0%,0%,0%);stroke-opacity:1;stroke-miterlimit:10;" d="M 221.550781 27.728438 L 221.460938 26.759688 L 221.460938 24.029219 L 221.730469 22.939375 L 221.910156 22.228438 L 222.179688 22.228438 " transform="matrix(1,0,0,-1,0,188.83)"/>
<path style="fill:none;stroke-width:1.41;stroke-linecap:round;stroke-linejoin:round;stroke:rgb(0%,0%,0%);stroke-opacity:1;stroke-miterlimit:10;" d="M 225.328125 22.501875 L 225.058594 23.201094 L 225.058594 24.431563 L 225.511719 26.099531 L 226.230469 27.54875 L 227.03125 28.521406 L 227.839844 28.61125 L 228.46875 27.771406 L 228.921875 26.228438 L 229.191406 24.689375 L 229.371094 23.33 L 229.371094 22.318281 " transform="matrix(1,0,0,-1,0,188.83)"/>
<path style="fill:none;stroke-width:1.41;stroke-linecap:round;stroke-linejoin:round;stroke:rgb(0%,0%,0%);stroke-opacity:1;stroke-miterlimit:10;" d="M 236.558594 27.158125 L 236.378906 27.951094 L 236.019531 28.740156 L 235.300781 29.001875 L 234.398438 28.689375 L 233.589844 27.54875 L 232.960938 26.009688 L 233.050781 24.560469 L 233.769531 23.509688 L 234.851562 23.11125 L 236.109375 23.599531 L 237.011719 24.560469 L 237.640625 25.701094 L 237.730469 26.888594 L 237.640625 27.771406 L 237.460938 28.341719 L 237.28125 28.650313 L 237.28125 28.08 L 237.371094 27.290938 L 237.640625 26.138594 L 237.820312 24.431563 L 237.820312 22.501875 L 237.640625 20.478438 L 236.921875 18.669844 L 235.570312 17.658125 L 234.21875 17.36125 L 233.140625 17.439375 L 232.160156 18.150313 " transform="matrix(1,0,0,-1,0,188.83)"/>
</g>
</svg>
