<?xml version="1.0" encoding="UTF-8"?>
<svg xmlns="http://www.w3.org/2000/svg" xmlns:xlink="http://www.w3.org/1999/xlink" width="360.363281pt" height="66.972656pt" viewBox="0 0 360.363281 66.972656" version="1.1">
<g id="surface1">
<path style="fill:none;stroke-width:2.26;stroke-linecap:round;stroke-linejoin:round;stroke:rgb(0%,0%,0%);stroke-opacity:1;stroke-miterlimit:10;" d="M 22.910156 59.296875 L 22.460938 49.539062 " transform="matrix(1,0,0,-1,0,66.972656)"/>
<path style="fill:none;stroke-width:2.26;stroke-linecap:round;stroke-linejoin:round;stroke:rgb(0%,0%,0%);stroke-opacity:1;stroke-miterlimit:10;" d="M 21.113281 28.972656 L 21.023438 19.21875 " transform="matrix(1,0,0,-1,0,66.972656)"/>
<path style="fill:none;stroke-width:2.26;stroke-linecap:round;stroke-linejoin:round;stroke:rgb(0%,0%,0%);stroke-opacity:1;stroke-miterlimit:10;" d="M 21.113281 19.21875 L 26.28125 19.132812 L 31.445312 19.050781 L 36.613281 18.96875 L 41.777344 18.882812 L 46.945312 18.800781 L 52.109375 18.714844 L 57.277344 18.632812 L 62.441406 18.550781 L 67.609375 18.464844 L 72.773438 18.382812 " transform="matrix(1,0,0,-1,0,66.972656)"/>
<path style="fill:none;stroke-width:2.26;stroke-linecap:round;stroke-linejoin:round;stroke:rgb(0%,0%,0%);stroke-opacity:1;stroke-miterlimit:10;" d="M 72.863281 18.734375 L 73.222656 26.203125 " transform="matrix(1,0,0,-1,0,66.972656)"/>
<path style="fill:none;stroke-width:2.26;stroke-linecap:round;stroke-linejoin:round;stroke:rgb(0%,0%,0%);stroke-opacity:1;stroke-miterlimit:10;" d="M 70.707031 49.980469 L 70.707031 58.679687 " transform="matrix(1,0,0,-1,0,66.972656)"/>
<path style="fill:none;stroke-width:2.26;stroke-linecap:round;stroke-linejoin:round;stroke:rgb(0%,0%,0%);stroke-opacity:1;stroke-miterlimit:10;" d="M 70.886719 58.636719 L 60.363281 58.714844 L 55.105469 58.753906 L 39.320312 58.871094 L 34.0625 58.910156 L 23.539062 58.988281 " transform="matrix(1,0,0,-1,0,66.972656)"/>
<path style="fill:none;stroke-width:2.26;stroke-linecap:round;stroke-linejoin:round;stroke:rgb(0%,0%,0%);stroke-opacity:1;stroke-miterlimit:10;" d="M 22.371094 49.230469 L 28.570312 49.230469 " transform="matrix(1,0,0,-1,0,66.972656)"/>
<path style="fill:none;stroke-width:2.26;stroke-linecap:round;stroke-linejoin:round;stroke:rgb(0%,0%,0%);stroke-opacity:1;stroke-miterlimit:10;" d="M 28.390625 48.792969 L 28.332031 42.304687 L 28.269531 35.8125 L 28.210938 29.324219 " transform="matrix(1,0,0,-1,0,66.972656)"/>
<path style="fill:none;stroke-width:2.26;stroke-linecap:round;stroke-linejoin:round;stroke:rgb(0%,0%,0%);stroke-opacity:1;stroke-miterlimit:10;" d="M 28.210938 29.457031 L 21.292969 29.71875 " transform="matrix(1,0,0,-1,0,66.972656)"/>
<path style="fill:none;stroke-width:2.26;stroke-linecap:round;stroke-linejoin:round;stroke:rgb(0%,0%,0%);stroke-opacity:1;stroke-miterlimit:10;" d="M 72.144531 50.332031 L 76.816406 49.890625 " transform="matrix(1,0,0,-1,0,66.972656)"/>
<path style="fill:none;stroke-width:2.26;stroke-linecap:round;stroke-linejoin:round;stroke:rgb(0%,0%,0%);stroke-opacity:1;stroke-miterlimit:10;" d="M 77.355469 49.890625 L 78.074219 28.09375 " transform="matrix(1,0,0,-1,0,66.972656)"/>
<path style="fill:none;stroke-width:2.26;stroke-linecap:round;stroke-linejoin:round;stroke:rgb(0%,0%,0%);stroke-opacity:1;stroke-miterlimit:10;" d="M 78.253906 27.960937 L 73.042969 27.304687 " transform="matrix(1,0,0,-1,0,66.972656)"/>
<path style="fill:none;stroke-width:1.41;stroke-linecap:round;stroke-linejoin:round;stroke:rgb(0%,0%,0%);stroke-opacity:1;stroke-miterlimit:10;" d="M 32.164062 43.871094 L 32.253906 43.300781 L 32.253906 40.136719 L 32.074219 38.554687 L 31.894531 37.015625 L 31.625 35.523437 L 31.355469 34.160156 L 31.175781 33.722656 L 31.085938 33.414062 L 31.355469 33.675781 " transform="matrix(1,0,0,-1,0,66.972656)"/>
<path style="fill:none;stroke-width:1.41;stroke-linecap:round;stroke-linejoin:round;stroke:rgb(0%,0%,0%);stroke-opacity:1;stroke-miterlimit:10;" d="M 32.882812 39.039062 L 33.332031 39.125 L 33.691406 39.125 L 34.230469 39.082031 L 34.949219 38.949219 L 35.578125 38.773437 L 36.117188 38.597656 L 36.386719 38.464844 " transform="matrix(1,0,0,-1,0,66.972656)"/>
<path style="fill:none;stroke-width:1.41;stroke-linecap:round;stroke-linejoin:round;stroke:rgb(0%,0%,0%);stroke-opacity:1;stroke-miterlimit:10;" d="M 36.65625 42.203125 L 36.566406 42.421875 L 36.566406 41.894531 L 36.65625 41.5 L 36.65625 40.53125 L 36.566406 38.996094 L 36.476562 36.972656 L 36.476562 35.039062 L 36.386719 33.808594 L 36.476562 33.542969 " transform="matrix(1,0,0,-1,0,66.972656)"/>
<path style="fill:none;stroke-width:1.41;stroke-linecap:round;stroke-linejoin:round;stroke:rgb(0%,0%,0%);stroke-opacity:1;stroke-miterlimit:10;" d="M 66.214844 34.511719 L 66.125 34.246094 L 66.214844 34.644531 L 66.304688 35.039062 L 66.753906 36.136719 L 67.292969 37.71875 L 67.921875 39.652344 L 68.550781 41.851562 L 69 43.257812 L 69.269531 44.089844 L 69.539062 43.871094 L 69.71875 43.167969 L 69.988281 42.246094 L 70.257812 41.105469 L 70.4375 40.003906 L 70.796875 38.597656 L 71.15625 37.238281 L 71.515625 36.050781 L 71.785156 35.257812 L 71.875 34.90625 " transform="matrix(1,0,0,-1,0,66.972656)"/>
<path style="fill:none;stroke-width:1.41;stroke-linecap:round;stroke-linejoin:round;stroke:rgb(0%,0%,0%);stroke-opacity:1;stroke-miterlimit:10;" d="M 67.921875 37.324219 L 68.371094 37.410156 L 68.730469 37.324219 L 69.269531 37.28125 L 69.808594 37.191406 L 70.257812 37.191406 " transform="matrix(1,0,0,-1,0,66.972656)"/>
<path style="fill:none;stroke-width:2.26;stroke-linecap:round;stroke-linejoin:round;stroke:rgb(0%,0%,0%);stroke-opacity:1;stroke-miterlimit:10;" d="M 47.886719 46.992187 L 47.617188 46.902344 L 47.527344 46.378906 L 47.4375 45.058594 L 47.257812 42.816406 L 46.988281 39.871094 L 46.71875 37.105469 L 46.628906 34.996094 L 46.539062 33.632812 L 46.449219 33.148437 L 46.449219 32.796875 " transform="matrix(1,0,0,-1,0,66.972656)"/>
<path style="fill:none;stroke-width:2.26;stroke-linecap:round;stroke-linejoin:round;stroke:rgb(0%,0%,0%);stroke-opacity:1;stroke-miterlimit:10;" d="M 48.066406 47.828125 L 48.246094 48.222656 L 48.605469 48.53125 L 49.054688 48.882812 L 49.863281 48.96875 L 50.941406 48.96875 L 51.929688 48.53125 L 53.097656 47.785156 L 53.90625 46.773437 L 54.445312 45.628906 L 54.535156 44.441406 L 54.175781 43.214844 L 53.367188 42.027344 L 52.378906 41.015625 L 51.121094 40.179687 L 49.953125 39.742187 L 48.875 39.652344 L 47.976562 39.828125 L 47.4375 40.179687 L 47.167969 40.488281 " transform="matrix(1,0,0,-1,0,66.972656)"/>
<path style="fill:none;stroke-width:2.26;stroke-linecap:round;stroke-linejoin:round;stroke:rgb(0%,0%,0%);stroke-opacity:1;stroke-miterlimit:10;" d="M 79.601562 40.839844 L 79.960938 40.839844 L 80.679688 40.882812 L 81.757812 40.972656 L 83.105469 41.105469 L 84.542969 41.277344 L 85.890625 41.457031 L 87.148438 41.5 L 88.226562 41.410156 L 89.035156 41.277344 L 89.574219 41.148437 L 91.371094 40.53125 L 92.449219 40.09375 L 93.617188 39.347656 L 94.425781 38.644531 L 95.054688 37.941406 L 95.683594 37.058594 L 96.222656 36.050781 L 96.761719 34.949219 L 97.300781 33.632812 L 97.839844 32.226562 L 98.289062 30.910156 L 98.648438 29.503906 L 98.917969 28.007812 L 99.007812 26.644531 L 99.007812 25.371094 L 98.828125 24.183594 L 98.648438 23.347656 L 98.378906 22.601562 L 98.199219 22.074219 L 97.929688 21.679687 L 97.660156 21.152344 L 96.941406 19.660156 L 96.492188 18.734375 L 95.953125 17.8125 L 95.414062 17.066406 L 94.695312 16.316406 L 94.15625 15.660156 L 93.527344 15.089844 L 92.898438 14.515625 L 92.359375 14.035156 L 91.730469 13.550781 L 91.28125 13.152344 L 90.832031 12.890625 L 90.5625 12.714844 L 90.113281 12.449219 L 89.933594 12.277344 L 89.035156 11.660156 L 88.40625 11.351562 L 87.867188 11.089844 L 87.417969 11 L 86.96875 10.871094 L 86.429688 10.691406 L 86.25 10.871094 " transform="matrix(1,0,0,-1,0,66.972656)"/>
<path style="fill:none;stroke-width:2.26;stroke-linecap:round;stroke-linejoin:round;stroke:rgb(0%,0%,0%);stroke-opacity:1;stroke-miterlimit:10;" d="M 28.03125 43.519531 L 27.671875 43.609375 L 27.222656 43.785156 L 26.414062 44.003906 L 25.515625 44.3125 L 24.617188 44.53125 L 23.539062 44.664062 L 22.28125 44.707031 L 20.933594 44.664062 L 19.496094 44.398437 L 18.058594 44.046875 L 16.890625 43.609375 L 15.992188 43.257812 L 15.183594 42.816406 L 14.375 42.246094 L 13.566406 41.628906 L 12.667969 40.753906 L 11.769531 39.785156 L 10.871094 38.6875 L 9.972656 37.542969 L 9.164062 36.3125 L 8.535156 35.128906 L 8.175781 33.808594 L 7.996094 32.316406 L 7.996094 30.777344 L 8.085938 29.195312 L 8.085938 23.964844 L 8.175781 22.03125 L 8.355469 20.363281 L 8.625 18.777344 L 9.074219 17.199219 L 9.703125 15.878906 L 10.242188 14.867187 L 10.871094 13.988281 L 11.320312 13.417969 L 11.769531 12.933594 L 12.578125 12.1875 L 13.476562 11.441406 L 14.554688 10.824219 L 15.8125 10.296875 L 17.070312 10.078125 L 18.238281 9.945312 L 19.585938 9.816406 L 20.753906 9.726562 L 21.742188 9.683594 L 24.167969 9.683594 L 24.617188 9.636719 L 24.886719 9.683594 " transform="matrix(1,0,0,-1,0,66.972656)"/>
<path style="fill:none;stroke-width:2.26;stroke-linecap:round;stroke-linejoin:round;stroke:rgb(0%,0%,0%);stroke-opacity:1;stroke-miterlimit:10;" d="M 24.167969 9.113281 L 29.304688 9.1875 L 34.441406 9.265625 L 39.574219 9.34375 L 44.710938 9.417969 L 54.984375 9.574219 L 60.121094 9.648437 L 65.257812 9.726562 L 70.390625 9.804687 L 75.527344 9.878906 L 85.800781 10.035156 " transform="matrix(1,0,0,-1,0,66.972656)"/>
<path style="fill:none;stroke-width:2.26;stroke-linecap:round;stroke-linejoin:round;stroke:rgb(19.999695%,19.999695%,79.998779%);stroke-opacity:1;stroke-miterlimit:10;" d="M 111.316406 43.109375 L 111.765625 43.066406 L 112.664062 42.890625 L 114.371094 42.757812 L 116.707031 42.714844 L 119.3125 42.714844 L 121.558594 42.628906 L 122.816406 42.582031 L 123.445312 42.582031 L 123.714844 42.628906 L 123.804688 42.847656 " transform="matrix(1,0,0,-1,0,66.972656)"/>
<path style="fill:none;stroke-width:2.26;stroke-linecap:round;stroke-linejoin:round;stroke:rgb(19.999695%,19.999695%,79.998779%);stroke-opacity:1;stroke-miterlimit:10;" d="M 112.753906 39.332031 L 113.113281 38.933594 L 113.742188 38.761719 L 114.640625 38.582031 L 115.539062 38.496094 L 117.695312 38.496094 L 119.402344 38.628906 L 121.289062 38.671875 L 122.726562 38.714844 L 123.984375 38.714844 L 124.34375 38.671875 " transform="matrix(1,0,0,-1,0,66.972656)"/>
<path style="fill:none;stroke-width:2.26;stroke-linecap:round;stroke-linejoin:round;stroke:rgb(19.999695%,19.999695%,79.998779%);stroke-opacity:1;stroke-miterlimit:10;" d="M 113.832031 34.410156 L 113.832031 34.058594 L 114.191406 34.058594 L 114.640625 34.191406 L 115.179688 34.320312 L 115.988281 34.496094 L 116.886719 34.628906 L 117.785156 34.714844 L 118.683594 34.714844 L 119.582031 34.761719 L 121.46875 34.761719 L 122.367188 34.714844 L 123.265625 34.714844 L 123.894531 34.628906 L 124.34375 34.628906 L 124.882812 34.542969 L 125.152344 34.410156 " transform="matrix(1,0,0,-1,0,66.972656)"/>
<path style="fill:none;stroke-width:1.41;stroke-linecap:round;stroke-linejoin:round;stroke:rgb(0%,0%,0%);stroke-opacity:1;stroke-miterlimit:10;" d="M 131.890625 28.035156 L 131.980469 27.773437 L 132.070312 28.082031 L 132.25 29.3125 L 132.699219 31.332031 L 133.148438 34.058594 L 133.6875 37.527344 L 134.226562 40.472656 L 134.585938 42.714844 L 134.765625 44.035156 L 134.945312 42.800781 L 134.945312 40.738281 L 135.035156 38.410156 L 135.214844 36.386719 L 135.394531 34.847656 L 135.664062 34.011719 L 135.933594 33.574219 L 136.652344 33.707031 L 137.820312 34.671875 L 139.078125 36.253906 L 140.335938 38.410156 L 141.144531 40.738281 L 141.414062 42.539062 L 141.503906 43.8125 L 141.503906 44.207031 L 141.503906 43.460937 L 141.59375 41.527344 L 141.683594 39.375 L 141.863281 37.355469 L 141.953125 35.726562 L 142.132812 35.023437 L 142.222656 34.410156 L 142.3125 33.882812 L 142.492188 33.441406 L 142.761719 33.089844 " transform="matrix(1,0,0,-1,0,66.972656)"/>
<path style="fill:none;stroke-width:1.41;stroke-linecap:round;stroke-linejoin:round;stroke:rgb(0%,0%,0%);stroke-opacity:1;stroke-miterlimit:10;" d="M 153.09375 43.8125 L 153.003906 43.375 L 152.914062 42.671875 L 152.734375 41.746094 L 152.375 40.691406 L 151.566406 38.980469 L 150.308594 36.914062 L 148.511719 34.9375 L 146.804688 33.53125 L 145.457031 33.308594 L 144.738281 33.96875 L 144.558594 34.980469 L 144.558594 36.167969 L 144.738281 37.527344 L 145.097656 39.066406 L 146.085938 40.914062 L 147.433594 42.230469 L 148.960938 42.40625 L 150.488281 41.484375 L 151.566406 39.417969 L 152.375 37.046875 L 153.003906 35.113281 L 153.8125 33.441406 L 154.710938 32.34375 L 155.429688 31.683594 L 156.058594 31.332031 L 156.597656 31.378906 " transform="matrix(1,0,0,-1,0,66.972656)"/>
<path style="fill:none;stroke-width:1.41;stroke-linecap:round;stroke-linejoin:round;stroke:rgb(0%,0%,0%);stroke-opacity:1;stroke-miterlimit:10;" d="M 161.539062 33.441406 L 161.449219 33.75 L 161.449219 34.058594 L 161.628906 33.707031 L 161.359375 33.222656 L 160.910156 33.136719 L 160.550781 33.488281 L 160.371094 34.058594 L 160.371094 34.542969 L 160.640625 34.410156 " transform="matrix(1,0,0,-1,0,66.972656)"/>
<path style="fill:none;stroke-width:1.41;stroke-linecap:round;stroke-linejoin:round;stroke:rgb(0%,0%,0%);stroke-opacity:1;stroke-miterlimit:10;" d="M 166.210938 44.253906 L 166.03125 43.109375 L 166.03125 41.089844 L 165.941406 37.878906 L 165.851562 34.363281 L 165.761719 31.378906 L 165.671875 29.222656 L 165.492188 27.816406 L 165.402344 26.851562 L 165.222656 25.839844 L 165.042969 24.871094 L 164.953125 24.257812 L 164.863281 23.597656 L 164.773438 22.984375 L 164.773438 22.542969 L 164.683594 22.28125 L 164.863281 22.851562 " transform="matrix(1,0,0,-1,0,66.972656)"/>
<path style="fill:none;stroke-width:1.41;stroke-linecap:round;stroke-linejoin:round;stroke:rgb(0%,0%,0%);stroke-opacity:1;stroke-miterlimit:10;" d="M 166.75 43.902344 L 167.199219 44.339844 L 167.917969 44.691406 L 168.816406 44.691406 L 169.804688 44.296875 L 170.792969 43.550781 L 171.691406 42.363281 L 172.230469 41 L 172.589844 39.59375 L 172.589844 38.320312 L 172.230469 37.265625 L 171.78125 36.34375 L 171.0625 35.507812 L 170.433594 34.761719 L 169.625 34.277344 L 168.726562 34.058594 L 167.828125 34.101562 L 167.199219 34.234375 L 166.660156 34.363281 L 166.300781 34.410156 " transform="matrix(1,0,0,-1,0,66.972656)"/>
<path style="fill:none;stroke-width:1.41;stroke-linecap:round;stroke-linejoin:round;stroke:rgb(0%,0%,0%);stroke-opacity:1;stroke-miterlimit:10;" d="M 179.507812 51.722656 L 179.417969 51.941406 L 178.699219 52.03125 L 177.710938 52.164062 L 176.632812 52.292969 L 175.644531 52.472656 L 175.105469 52.25 L 174.925781 51.328125 L 175.105469 48.648437 L 175.375 45.441406 L 175.554688 42.054687 L 175.644531 38.890625 L 175.644531 36.695312 L 175.554688 34.191406 L 175.464844 31.816406 L 175.375 29.707031 L 175.375 28.433594 L 175.824219 28.125 L 176.722656 28.214844 L 177.800781 28.433594 L 178.878906 28.566406 L 179.6875 28.476562 L 179.957031 28.386719 L 180.226562 28.257812 " transform="matrix(1,0,0,-1,0,66.972656)"/>
<path style="fill:none;stroke-width:1.41;stroke-linecap:round;stroke-linejoin:round;stroke:rgb(0%,0%,0%);stroke-opacity:1;stroke-miterlimit:10;" d="M 182.113281 45.878906 L 182.382812 43.59375 L 182.5625 40.824219 L 182.652344 37.835937 L 182.742188 34.585937 L 182.742188 33.179687 " transform="matrix(1,0,0,-1,0,66.972656)"/>
<path style="fill:none;stroke-width:1.41;stroke-linecap:round;stroke-linejoin:round;stroke:rgb(0%,0%,0%);stroke-opacity:1;stroke-miterlimit:10;" d="M 182.5625 36.300781 L 182.652344 36.871094 L 183.101562 37.441406 L 183.640625 37.878906 L 184.359375 38.1875 L 185.347656 38.410156 L 186.246094 38.496094 L 187.054688 38.496094 L 187.773438 38.539062 L 188.222656 38.582031 L 188.492188 38.714844 " transform="matrix(1,0,0,-1,0,66.972656)"/>
<path style="fill:none;stroke-width:1.41;stroke-linecap:round;stroke-linejoin:round;stroke:rgb(0%,0%,0%);stroke-opacity:1;stroke-miterlimit:10;" d="M 189.121094 45.835937 L 189.03125 46.1875 L 189.03125 45.921875 L 189.121094 45.042969 L 189.121094 44.078125 L 189.210938 42.800781 L 189.210938 34.234375 L 189.121094 31.730469 L 189.210938 31.070312 " transform="matrix(1,0,0,-1,0,66.972656)"/>
<path style="fill:none;stroke-width:1.41;stroke-linecap:round;stroke-linejoin:round;stroke:rgb(0%,0%,0%);stroke-opacity:1;stroke-miterlimit:10;" d="M 194.242188 40.339844 L 194.421875 40.5625 L 195.140625 40.691406 L 196.398438 40.78125 L 197.746094 40.78125 L 198.914062 40.691406 L 199.542969 40.691406 L 199.902344 40.648437 L 200.261719 40.648437 " transform="matrix(1,0,0,-1,0,66.972656)"/>
<path style="fill:none;stroke-width:1.41;stroke-linecap:round;stroke-linejoin:round;stroke:rgb(0%,0%,0%);stroke-opacity:1;stroke-miterlimit:10;" d="M 193.882812 37.878906 L 193.613281 37.792969 L 194.332031 37.660156 L 195.5 37.617187 L 197.027344 37.441406 L 198.464844 37.308594 L 199.542969 37.222656 L 200.082031 37.089844 L 200.351562 37.175781 " transform="matrix(1,0,0,-1,0,66.972656)"/>
<path style="fill:none;stroke-width:1.41;stroke-linecap:round;stroke-linejoin:round;stroke:rgb(0%,0%,0%);stroke-opacity:1;stroke-miterlimit:10;" d="M 211.042969 43.769531 L 211.222656 43.550781 L 211.042969 42.628906 L 210.683594 41.222656 L 209.695312 39.375 L 208.4375 37.660156 L 207 36.5625 L 205.5625 36.210937 L 204.664062 36.78125 L 204.304688 37.96875 L 204.574219 39.464844 L 205.292969 40.605469 L 206.28125 41.132812 L 207.539062 40.914062 L 208.617188 40.253906 L 209.605469 39.15625 L 210.414062 38.1875 L 210.953125 37.355469 L 211.492188 36.472656 L 211.761719 35.816406 L 212.03125 35.15625 L 212.390625 34.496094 L 212.75 33.839844 L 213.199219 33.308594 L 213.558594 32.914062 L 214.097656 32.785156 L 214.457031 32.695312 L 214.816406 32.652344 L 215.175781 32.695312 " transform="matrix(1,0,0,-1,0,66.972656)"/>
<path style="fill:none;stroke-width:1.41;stroke-linecap:round;stroke-linejoin:round;stroke:rgb(0%,0%,0%);stroke-opacity:1;stroke-miterlimit:10;" d="M 216.882812 41.308594 L 216.882812 41.660156 L 216.972656 42.054687 L 217.242188 42.097656 L 217.0625 41.878906 L 216.792969 41.792969 L 216.34375 41.925781 L 216.074219 42.1875 L 215.894531 42.496094 L 216.253906 42.230469 " transform="matrix(1,0,0,-1,0,66.972656)"/>
<path style="fill:none;stroke-width:1.41;stroke-linecap:round;stroke-linejoin:round;stroke:rgb(0%,0%,0%);stroke-opacity:1;stroke-miterlimit:10;" d="M 216.433594 34.453125 L 216.164062 34.714844 L 216.34375 34.980469 L 216.613281 35.113281 L 216.972656 34.9375 L 217.0625 34.628906 L 216.792969 34.761719 L 216.792969 35.332031 L 216.972656 35.859375 L 217.332031 36.253906 L 217.601562 36.386719 " transform="matrix(1,0,0,-1,0,66.972656)"/>
<path style="fill:none;stroke-width:1.41;stroke-linecap:round;stroke-linejoin:round;stroke:rgb(0%,0%,0%);stroke-opacity:1;stroke-miterlimit:10;" d="M 221.285156 31.597656 L 221.195312 31.816406 L 221.195312 32.125 L 221.375 32.695312 L 221.824219 34.320312 L 222.632812 36.78125 L 223.53125 39.769531 L 224.519531 42.800781 L 225.148438 44.867187 L 225.597656 45.964844 L 225.867188 45.921875 L 226.316406 44.910156 L 226.675781 43.460937 L 227.125 41.746094 L 227.574219 39.816406 L 227.753906 38.410156 L 228.113281 36.957031 L 228.5625 35.246094 L 229.011719 34.144531 L 229.28125 33.222656 L 229.550781 32.5625 L 229.460938 32.828125 " transform="matrix(1,0,0,-1,0,66.972656)"/>
<path style="fill:none;stroke-width:1.41;stroke-linecap:round;stroke-linejoin:round;stroke:rgb(0%,0%,0%);stroke-opacity:1;stroke-miterlimit:10;" d="M 223.980469 36.914062 L 223.710938 36.914062 L 224.25 37.175781 L 224.789062 37.308594 L 225.238281 37.355469 L 225.957031 37.441406 L 226.496094 37.441406 L 227.035156 37.355469 L 227.484375 37.308594 L 227.753906 37.308594 " transform="matrix(1,0,0,-1,0,66.972656)"/>
<path style="fill:none;stroke-width:1.41;stroke-linecap:round;stroke-linejoin:round;stroke:rgb(0%,0%,0%);stroke-opacity:1;stroke-miterlimit:10;" d="M 229.730469 50.097656 L 230.179688 50.363281 L 231.167969 50.40625 L 232.695312 50.582031 L 234.222656 50.714844 L 235.390625 50.84375 L 236.199219 50.84375 L 236.378906 50.535156 L 236.378906 43.988281 L 236.46875 41.089844 L 236.558594 38.1875 L 236.648438 35.683594 L 236.738281 33.925781 L 236.828125 32.871094 L 237.007812 31.378906 L 237.1875 29.882812 L 237.277344 28.652344 L 237.1875 27.683594 L 236.648438 27.421875 L 236.019531 27.464844 L 234.582031 27.464844 L 234.222656 27.554687 L 233.773438 27.640625 L 233.234375 27.816406 " transform="matrix(1,0,0,-1,0,66.972656)"/>
<path style="fill:none;stroke-width:2.26;stroke-linecap:round;stroke-linejoin:round;stroke:rgb(19.999695%,19.999695%,79.998779%);stroke-opacity:1;stroke-miterlimit:10;" d="M 246.53125 42.449219 L 246.980469 42.40625 L 247.878906 42.230469 L 249.585938 42.097656 L 251.921875 42.054687 L 254.527344 42.054687 L 256.773438 41.96875 L 258.03125 41.925781 L 258.660156 41.925781 L 258.929688 41.96875 L 259.019531 42.1875 " transform="matrix(1,0,0,-1,0,66.972656)"/>
<path style="fill:none;stroke-width:2.26;stroke-linecap:round;stroke-linejoin:round;stroke:rgb(19.999695%,19.999695%,79.998779%);stroke-opacity:1;stroke-miterlimit:10;" d="M 247.96875 38.671875 L 248.328125 38.277344 L 248.957031 38.101562 L 249.855469 37.925781 L 250.753906 37.835937 L 252.910156 37.835937 L 254.617188 37.96875 L 256.503906 38.011719 L 257.941406 38.058594 L 259.199219 38.058594 L 259.558594 38.011719 " transform="matrix(1,0,0,-1,0,66.972656)"/>
<path style="fill:none;stroke-width:2.26;stroke-linecap:round;stroke-linejoin:round;stroke:rgb(19.999695%,19.999695%,79.998779%);stroke-opacity:1;stroke-miterlimit:10;" d="M 249.046875 33.75 L 249.046875 33.398437 L 249.40625 33.398437 L 249.855469 33.53125 L 250.394531 33.660156 L 251.203125 33.839844 L 252.101562 33.96875 L 253 34.058594 L 253.898438 34.058594 L 254.796875 34.101562 L 256.683594 34.101562 L 257.582031 34.058594 L 258.480469 34.058594 L 259.109375 33.96875 L 259.558594 33.96875 L 260.097656 33.882812 L 260.367188 33.75 " transform="matrix(1,0,0,-1,0,66.972656)"/>
<path style="fill:none;stroke-width:1.41;stroke-linecap:round;stroke-linejoin:round;stroke:rgb(0%,0%,0%);stroke-opacity:1;stroke-miterlimit:10;" d="M 272.046875 40.121094 L 272.046875 40.386719 L 272.046875 39.726562 L 272.136719 38.1875 L 272.136719 32.253906 L 272.046875 29.222656 L 271.957031 26.9375 L 271.957031 24.785156 " transform="matrix(1,0,0,-1,0,66.972656)"/>
<path style="fill:none;stroke-width:1.41;stroke-linecap:round;stroke-linejoin:round;stroke:rgb(0%,0%,0%);stroke-opacity:1;stroke-miterlimit:10;" d="M 272.765625 40.035156 L 272.585938 40.339844 L 272.675781 40.691406 L 273.125 41.089844 L 273.84375 41.527344 L 275.011719 41.835937 L 276.449219 41.746094 L 277.796875 41.308594 L 278.964844 40.472656 L 279.773438 39.242187 L 280.042969 37.96875 L 279.773438 36.78125 L 278.875 35.683594 L 277.617188 34.9375 L 276.089844 34.453125 L 274.742188 34.191406 L 273.84375 34.144531 L 273.304688 34.277344 L 273.035156 34.453125 L 272.945312 34.714844 " transform="matrix(1,0,0,-1,0,66.972656)"/>
<path style="fill:none;stroke-width:1.41;stroke-linecap:round;stroke-linejoin:round;stroke:rgb(0%,0%,0%);stroke-opacity:1;stroke-miterlimit:10;" d="M 287.230469 52.03125 L 286.871094 51.941406 L 283.367188 51.941406 L 282.917969 51.636719 L 282.828125 50.40625 L 282.917969 47.988281 L 283.097656 44.429687 L 283.277344 39.902344 L 283.277344 35.816406 L 283.1875 32.605469 L 283.097656 30.496094 L 283.1875 29.664062 L 283.367188 29.441406 L 283.636719 29.398437 L 284.625 29.53125 L 285.792969 29.75 L 286.960938 29.972656 L 288.128906 30.234375 L 288.667969 30.410156 L 288.9375 30.496094 " transform="matrix(1,0,0,-1,0,66.972656)"/>
<path style="fill:none;stroke-width:1.41;stroke-linecap:round;stroke-linejoin:round;stroke:rgb(0%,0%,0%);stroke-opacity:1;stroke-miterlimit:10;" d="M 290.375 47.550781 L 290.464844 46.625 L 290.554688 44.472656 L 290.644531 41.265625 L 290.824219 37.878906 L 290.824219 35.289062 L 290.734375 33.882812 " transform="matrix(1,0,0,-1,0,66.972656)"/>
<path style="fill:none;stroke-width:1.41;stroke-linecap:round;stroke-linejoin:round;stroke:rgb(0%,0%,0%);stroke-opacity:1;stroke-miterlimit:10;" d="M 290.824219 38.628906 L 291.183594 39.199219 L 291.8125 39.683594 L 292.710938 40.035156 L 293.878906 40.253906 L 294.957031 40.386719 L 295.855469 40.429687 L 296.664062 40.472656 L 297.113281 40.5625 L 297.5625 40.648437 L 297.832031 40.957031 L 297.652344 41.132812 " transform="matrix(1,0,0,-1,0,66.972656)"/>
<path style="fill:none;stroke-width:1.41;stroke-linecap:round;stroke-linejoin:round;stroke:rgb(0%,0%,0%);stroke-opacity:1;stroke-miterlimit:10;" d="M 297.921875 48.253906 L 298.191406 47.019531 L 298.28125 45.132812 L 298.191406 42.757812 L 298.011719 39.59375 L 297.832031 36.824219 L 297.742188 34.804687 L 297.5625 33.179687 " transform="matrix(1,0,0,-1,0,66.972656)"/>
<path style="fill:none;stroke-width:1.41;stroke-linecap:round;stroke-linejoin:round;stroke:rgb(0%,0%,0%);stroke-opacity:1;stroke-miterlimit:10;" d="M 303.941406 41.835937 L 303.761719 42.011719 L 304.300781 42.097656 L 305.109375 42.144531 L 306.007812 42.1875 L 306.726562 42.230469 L 307.355469 42.320312 L 307.714844 42.40625 L 307.984375 42.449219 L 308.253906 42.496094 L 308.523438 42.496094 L 308.792969 42.320312 L 308.523438 41.96875 " transform="matrix(1,0,0,-1,0,66.972656)"/>
<path style="fill:none;stroke-width:1.41;stroke-linecap:round;stroke-linejoin:round;stroke:rgb(0%,0%,0%);stroke-opacity:1;stroke-miterlimit:10;" d="M 303.761719 39.285156 L 304.839844 39.285156 L 306.097656 39.332031 L 307.355469 39.417969 L 308.792969 39.417969 " transform="matrix(1,0,0,-1,0,66.972656)"/>
<path style="fill:none;stroke-width:1.41;stroke-linecap:round;stroke-linejoin:round;stroke:rgb(0%,0%,0%);stroke-opacity:1;stroke-miterlimit:10;" d="M 319.574219 47.371094 L 319.214844 47.636719 L 318.855469 47.59375 L 318.136719 47.371094 L 317.417969 46.933594 L 316.699219 46.40625 L 315.980469 45.660156 L 315.351562 44.824219 L 314.8125 43.988281 L 314.273438 42.933594 L 313.914062 42.054687 L 313.644531 41.132812 L 313.644531 40.121094 L 313.914062 39.066406 L 314.183594 37.925781 L 314.8125 36.738281 L 315.621094 35.769531 L 316.519531 34.980469 L 317.507812 34.410156 L 318.316406 34.101562 L 319.125 33.96875 L 319.84375 33.96875 L 320.652344 34.011719 L 321.550781 34.410156 L 322.449219 35.066406 L 323.257812 35.992187 L 323.886719 37.222656 L 324.066406 38.496094 L 324.066406 39.816406 L 323.886719 41.222656 L 323.617188 42.496094 L 323.347656 43.683594 L 322.898438 44.691406 L 322.449219 45.527344 L 321.910156 46.230469 L 321.28125 46.757812 L 320.742188 47.066406 L 320.472656 47.152344 " transform="matrix(1,0,0,-1,0,66.972656)"/>
<path style="fill:none;stroke-width:1.41;stroke-linecap:round;stroke-linejoin:round;stroke:rgb(0%,0%,0%);stroke-opacity:1;stroke-miterlimit:10;" d="M 314.992188 33.003906 L 314.902344 33.222656 L 315.082031 33.574219 L 315.53125 34.277344 L 316.519531 35.902344 L 318.136719 38.410156 L 320.203125 41.703125 L 322.449219 45.261719 L 323.976562 47.855469 L 324.875 49.480469 L 325.234375 50.273437 L 324.964844 50.273437 " transform="matrix(1,0,0,-1,0,66.972656)"/>
<path style="fill:none;stroke-width:1.41;stroke-linecap:round;stroke-linejoin:round;stroke:rgb(0%,0%,0%);stroke-opacity:1;stroke-miterlimit:10;" d="M 329.457031 43.726562 L 329.726562 44.035156 L 329.996094 43.988281 L 330.175781 43.726562 L 330.265625 43.417969 L 329.996094 43.285156 L 329.636719 43.332031 L 329.367188 43.726562 L 329.546875 43.988281 L 329.90625 44.035156 L 330.175781 43.769531 L 330.085938 43.417969 L 329.816406 43.332031 L 329.457031 43.636719 L 329.726562 43.769531 " transform="matrix(1,0,0,-1,0,66.972656)"/>
<path style="fill:none;stroke-width:1.41;stroke-linecap:round;stroke-linejoin:round;stroke:rgb(0%,0%,0%);stroke-opacity:1;stroke-miterlimit:10;" d="M 329.816406 35.597656 L 329.636719 35.949219 L 329.816406 36.386719 L 329.996094 36.78125 L 329.726562 36.738281 L 329.726562 37.089844 L 329.90625 37.398437 L 330.175781 37.398437 L 330.445312 37.132812 L 330.175781 36.871094 L 329.90625 36.824219 L 329.726562 37.046875 L 329.457031 37.308594 L 329.726562 37.660156 " transform="matrix(1,0,0,-1,0,66.972656)"/>
<path style="fill:none;stroke-width:1.41;stroke-linecap:round;stroke-linejoin:round;stroke:rgb(0%,0%,0%);stroke-opacity:1;stroke-miterlimit:10;" d="M 334.847656 34.058594 L 334.488281 33.660156 L 334.667969 34.144531 L 335.027344 34.894531 L 335.476562 36.078125 L 336.375 38.671875 L 337.363281 41.703125 L 338.351562 44.691406 L 339.160156 47.285156 L 339.609375 48.558594 L 339.878906 49.21875 L 340.238281 49.128906 L 340.507812 48.605469 L 340.6875 47.722656 L 340.957031 46.625 L 341.226562 45.792969 L 341.40625 44.910156 L 341.585938 43.945312 L 342.035156 42.144531 L 342.484375 39.816406 L 343.023438 37.308594 L 343.472656 34.980469 L 343.652344 33.75 L 343.652344 33.222656 L 343.5625 33.441406 L 343.472656 33.75 " transform="matrix(1,0,0,-1,0,66.972656)"/>
<path style="fill:none;stroke-width:1.41;stroke-linecap:round;stroke-linejoin:round;stroke:rgb(0%,0%,0%);stroke-opacity:1;stroke-miterlimit:10;" d="M 337.273438 39.332031 L 336.914062 39.507812 L 337.453125 39.816406 L 338.171875 40.035156 L 339.339844 40.121094 L 340.417969 40.210937 L 341.316406 40.253906 L 341.855469 40.167969 " transform="matrix(1,0,0,-1,0,66.972656)"/>
<path style="fill:none;stroke-width:1.41;stroke-linecap:round;stroke-linejoin:round;stroke:rgb(0%,0%,0%);stroke-opacity:1;stroke-miterlimit:10;" d="M 345.808594 51.855469 L 345.628906 52.03125 L 345.898438 52.074219 L 347.964844 52.074219 L 349.3125 52.164062 L 351.199219 52.164062 L 351.199219 50.140625 L 351.109375 48.253906 L 351.109375 35.332031 L 351.019531 33.308594 L 351.019531 31.070312 L 350.929688 30.761719 L 350.660156 30.71875 L 349.3125 30.847656 L 348.863281 30.847656 " transform="matrix(1,0,0,-1,0,66.972656)"/>
</g>
</svg>
