<?xml version="1.0" encoding="UTF-8"?>
<svg xmlns="http://www.w3.org/2000/svg" xmlns:xlink="http://www.w3.org/1999/xlink" width="360.36pt" height="66.97pt" viewBox="0 0 360.36 66.97" version="1.1">
<g id="surface1">
<path style="fill:none;stroke-width:2.26;stroke-linecap:round;stroke-linejoin:round;stroke:rgb(0%,0%,0%);stroke-opacity:1;stroke-miterlimit:10;" d="M 22.910156 59.298125 L 22.460938 49.540312 " transform="matrix(1,0,0,-1,0,66.97)"/>
<path style="fill:none;stroke-width:2.26;stroke-linecap:round;stroke-linejoin:round;stroke:rgb(0%,0%,0%);stroke-opacity:1;stroke-miterlimit:10;" d="M 21.109375 28.981719 L 21.019531 19.22 " transform="matrix(1,0,0,-1,0,66.97)"/>
<path style="fill:none;stroke-width:2.26;stroke-linecap:round;stroke-linejoin:round;stroke:rgb(0%,0%,0%);stroke-opacity:1;stroke-miterlimit:10;" d="M 21.109375 19.22 L 26.28125 19.141875 L 31.441406 19.048125 L 36.609375 18.97 L 41.78125 18.891875 L 46.941406 18.798125 L 52.109375 18.72 L 57.269531 18.641875 L 62.441406 18.548125 L 67.609375 18.47 L 72.769531 18.380156 " transform="matrix(1,0,0,-1,0,66.97)"/>
<path style="fill:none;stroke-width:2.26;stroke-linecap:round;stroke-linejoin:round;stroke:rgb(0%,0%,0%);stroke-opacity:1;stroke-miterlimit:10;" d="M 72.859375 18.739531 L 73.21875 26.208281 " transform="matrix(1,0,0,-1,0,66.97)"/>
<path style="fill:none;stroke-width:2.26;stroke-linecap:round;stroke-linejoin:round;stroke:rgb(0%,0%,0%);stroke-opacity:1;stroke-miterlimit:10;" d="M 70.710938 49.981719 L 70.710938 58.680937 " transform="matrix(1,0,0,-1,0,66.97)"/>
<path style="fill:none;stroke-width:2.26;stroke-linecap:round;stroke-linejoin:round;stroke:rgb(0%,0%,0%);stroke-opacity:1;stroke-miterlimit:10;" d="M 70.878906 58.641875 L 65.621094 58.680937 L 60.359375 58.72 L 55.101562 58.759062 L 49.839844 58.790312 L 44.578125 58.829375 L 39.320312 58.868437 L 34.058594 58.911406 L 28.800781 58.950469 L 23.539062 58.989531 " transform="matrix(1,0,0,-1,0,66.97)"/>
<path style="fill:none;stroke-width:2.26;stroke-linecap:round;stroke-linejoin:round;stroke:rgb(0%,0%,0%);stroke-opacity:1;stroke-miterlimit:10;" d="M 22.371094 49.231719 L 28.570312 49.231719 " transform="matrix(1,0,0,-1,0,66.97)"/>
<path style="fill:none;stroke-width:2.26;stroke-linecap:round;stroke-linejoin:round;stroke:rgb(0%,0%,0%);stroke-opacity:1;stroke-miterlimit:10;" d="M 28.390625 48.790312 L 28.328125 42.309844 L 28.269531 35.821562 L 28.210938 29.329375 " transform="matrix(1,0,0,-1,0,66.97)"/>
<path style="fill:none;stroke-width:2.26;stroke-linecap:round;stroke-linejoin:round;stroke:rgb(0%,0%,0%);stroke-opacity:1;stroke-miterlimit:10;" d="M 28.210938 29.458281 L 21.289062 29.72 " transform="matrix(1,0,0,-1,0,66.97)"/>
<path style="fill:none;stroke-width:2.26;stroke-linecap:round;stroke-linejoin:round;stroke:rgb(0%,0%,0%);stroke-opacity:1;stroke-miterlimit:10;" d="M 72.140625 50.329375 L 76.808594 49.891875 " transform="matrix(1,0,0,-1,0,66.97)"/>
<path style="fill:none;stroke-width:2.26;stroke-linecap:round;stroke-linejoin:round;stroke:rgb(0%,0%,0%);stroke-opacity:1;stroke-miterlimit:10;" d="M 77.351562 49.891875 L 77.53125 44.43875 L 77.710938 39.00125 L 77.890625 33.548125 L 78.070312 28.098906 " transform="matrix(1,0,0,-1,0,66.97)"/>
<path style="fill:none;stroke-width:2.26;stroke-linecap:round;stroke-linejoin:round;stroke:rgb(0%,0%,0%);stroke-opacity:1;stroke-miterlimit:10;" d="M 78.25 27.958281 L 73.039062 27.309844 " transform="matrix(1,0,0,-1,0,66.97)"/>
<path style="fill:none;stroke-width:1.41;stroke-linecap:round;stroke-linejoin:round;stroke:rgb(0%,0%,0%);stroke-opacity:1;stroke-miterlimit:10;" d="M 32.160156 43.868437 L 32.25 43.298125 L 32.25 40.141875 L 32.070312 38.559844 L 31.890625 37.020781 L 31.621094 35.520781 L 31.351562 34.161406 L 31.171875 33.72 L 31.078125 33.411406 L 31.351562 33.680937 " transform="matrix(1,0,0,-1,0,66.97)"/>
<path style="fill:none;stroke-width:1.41;stroke-linecap:round;stroke-linejoin:round;stroke:rgb(0%,0%,0%);stroke-opacity:1;stroke-miterlimit:10;" d="M 32.878906 39.040312 L 33.328125 39.130156 L 33.691406 39.130156 L 34.230469 39.079375 L 34.949219 38.950469 L 35.578125 38.778594 L 36.121094 38.598906 L 36.378906 38.47 " transform="matrix(1,0,0,-1,0,66.97)"/>
<path style="fill:none;stroke-width:1.41;stroke-linecap:round;stroke-linejoin:round;stroke:rgb(0%,0%,0%);stroke-opacity:1;stroke-miterlimit:10;" d="M 36.648438 42.200469 L 36.558594 42.419219 L 36.558594 41.899687 L 36.648438 41.50125 L 36.648438 40.528594 L 36.558594 39.00125 L 36.46875 36.97 L 36.46875 35.040312 L 36.378906 33.809844 L 36.46875 33.548125 " transform="matrix(1,0,0,-1,0,66.97)"/>
<path style="fill:none;stroke-width:1.41;stroke-linecap:round;stroke-linejoin:round;stroke:rgb(0%,0%,0%);stroke-opacity:1;stroke-miterlimit:10;" d="M 66.210938 34.509062 L 66.121094 34.25125 L 66.210938 34.649687 L 66.300781 35.040312 L 66.75 36.141875 L 67.289062 37.72 L 67.921875 39.661406 L 68.550781 41.848906 L 69 43.259062 L 69.269531 44.091094 L 69.539062 43.868437 L 69.71875 43.169219 L 69.988281 42.25125 L 70.261719 41.110625 L 70.441406 40.009062 L 70.789062 38.598906 L 71.148438 37.239531 L 71.511719 36.048125 L 71.78125 35.259062 L 71.871094 34.911406 " transform="matrix(1,0,0,-1,0,66.97)"/>
<path style="fill:none;stroke-width:1.41;stroke-linecap:round;stroke-linejoin:round;stroke:rgb(0%,0%,0%);stroke-opacity:1;stroke-miterlimit:10;" d="M 67.921875 37.329375 L 68.371094 37.411406 L 68.730469 37.329375 L 69.269531 37.278594 L 69.808594 37.18875 L 70.261719 37.18875 " transform="matrix(1,0,0,-1,0,66.97)"/>
<path style="fill:none;stroke-width:2.26;stroke-linecap:round;stroke-linejoin:round;stroke:rgb(0%,0%,0%);stroke-opacity:1;stroke-miterlimit:10;" d="M 47.878906 46.989531 L 47.621094 46.911406 L 47.53125 46.380156 L 47.441406 45.059844 L 47.261719 42.821562 L 46.988281 39.868437 L 46.71875 37.110625 L 46.628906 35.00125 L 46.539062 33.630156 L 46.449219 33.149687 L 46.449219 32.798125 " transform="matrix(1,0,0,-1,0,66.97)"/>
<path style="fill:none;stroke-width:2.26;stroke-linecap:round;stroke-linejoin:round;stroke:rgb(0%,0%,0%);stroke-opacity:1;stroke-miterlimit:10;" d="M 48.058594 47.829375 L 48.238281 48.22 L 48.601562 48.528594 L 49.050781 48.880156 L 49.859375 48.97 L 50.941406 48.97 L 51.929688 48.528594 L 53.101562 47.790312 L 53.898438 46.770781 L 54.441406 45.630156 L 54.53125 44.450469 L 54.171875 43.208281 L 53.371094 42.028594 L 52.378906 41.020781 L 51.121094 40.180937 L 49.949219 39.739531 L 48.871094 39.661406 L 47.96875 39.829375 L 47.441406 40.180937 L 47.171875 40.489531 " transform="matrix(1,0,0,-1,0,66.97)"/>
<path style="fill:none;stroke-width:2.26;stroke-linecap:round;stroke-linejoin:round;stroke:rgb(0%,0%,0%);stroke-opacity:1;stroke-miterlimit:10;" d="M 79.601562 40.841094 L 79.960938 40.841094 L 80.679688 40.891875 L 81.761719 40.97 L 83.101562 41.110625 L 84.539062 41.278594 L 85.890625 41.458281 L 87.148438 41.50125 L 88.21875 41.411406 L 89.03125 41.278594 L 89.570312 41.149687 L 90.46875 40.841094 L 91.371094 40.528594 L 92.449219 40.091094 L 93.621094 39.348906 L 94.421875 38.641875 L 95.050781 37.93875 L 95.679688 37.059844 L 96.21875 36.048125 L 96.761719 34.950469 L 97.300781 33.630156 L 97.839844 32.231719 L 98.289062 30.911406 L 98.648438 29.50125 L 98.921875 28.009062 L 99.011719 26.649687 L 99.011719 25.368437 L 98.828125 24.18875 L 98.648438 23.348906 L 98.378906 22.598906 L 98.199219 22.079375 L 97.929688 21.680937 L 97.660156 21.149687 L 97.300781 20.411406 L 96.941406 19.661406 L 96.488281 18.739531 L 95.949219 17.809844 L 95.410156 17.071562 L 94.691406 16.321562 L 94.148438 15.661406 L 93.53125 15.091094 L 92.898438 14.520781 L 92.359375 14.040312 L 91.730469 13.548125 L 91.28125 13.161406 L 90.828125 12.891875 L 90.558594 12.72 L 90.109375 12.450469 L 89.929688 12.278594 L 89.03125 11.661406 L 88.398438 11.348906 L 87.871094 11.091094 L 87.421875 11.00125 L 86.96875 10.868437 L 86.699219 10.778594 L 86.429688 10.700469 L 86.25 10.868437 " transform="matrix(1,0,0,-1,0,66.97)"/>
<path style="fill:none;stroke-width:2.26;stroke-linecap:round;stroke-linejoin:round;stroke:rgb(0%,0%,0%);stroke-opacity:1;stroke-miterlimit:10;" d="M 28.03125 43.520781 L 27.671875 43.610625 L 27.21875 43.790312 L 26.410156 44.009062 L 25.511719 44.309844 L 24.621094 44.528594 L 23.539062 44.669219 L 22.28125 44.708281 L 20.929688 44.669219 L 19.488281 44.399687 L 18.058594 44.048125 L 16.890625 43.610625 L 15.988281 43.259062 L 15.179688 42.821562 L 14.371094 42.25125 L 13.558594 41.630156 L 12.671875 40.75125 L 11.769531 39.790312 L 10.871094 38.68875 L 9.96875 37.548125 L 9.160156 36.321562 L 8.53125 35.130156 L 8.171875 33.809844 L 7.988281 32.321562 L 7.988281 30.778594 L 8.078125 29.200469 L 8.078125 23.97 L 8.171875 22.028594 L 8.351562 20.360625 L 8.621094 18.778594 L 9.070312 17.200469 L 9.699219 15.880156 L 10.238281 14.868437 L 10.871094 13.989531 L 11.320312 13.419219 L 11.769531 12.93875 L 12.578125 12.18875 L 13.46875 11.43875 L 14.550781 10.829375 L 15.808594 10.298125 L 17.070312 10.079375 L 18.238281 9.950469 L 19.578125 9.821562 L 20.75 9.731719 L 21.738281 9.680937 L 24.171875 9.680937 L 24.621094 9.641875 L 24.878906 9.680937 " transform="matrix(1,0,0,-1,0,66.97)"/>
<path style="fill:none;stroke-width:2.26;stroke-linecap:round;stroke-linejoin:round;stroke:rgb(0%,0%,0%);stroke-opacity:1;stroke-miterlimit:10;" d="M 24.171875 9.110625 L 29.300781 9.18875 L 34.441406 9.270781 L 39.570312 9.341094 L 44.710938 9.419219 L 49.851562 9.50125 L 54.980469 9.571562 L 60.121094 9.649687 L 65.25 9.731719 L 70.390625 9.809844 L 75.53125 9.880156 L 80.660156 9.958281 L 85.800781 10.040312 " transform="matrix(1,0,0,-1,0,66.97)"/>
<path style="fill:none;stroke-width:2.26;stroke-linecap:round;stroke-linejoin:round;stroke:rgb(19.999695%,19.999695%,79.998779%);stroke-opacity:1;stroke-miterlimit:10;" d="M 111.308594 43.110625 L 111.761719 43.071562 L 112.660156 42.891875 L 114.371094 42.759062 L 116.710938 42.72 L 119.308594 42.72 L 121.558594 42.630156 L 122.808594 42.579375 L 123.441406 42.579375 L 123.710938 42.630156 L 123.800781 42.848906 " transform="matrix(1,0,0,-1,0,66.97)"/>
<path style="fill:none;stroke-width:2.26;stroke-linecap:round;stroke-linejoin:round;stroke:rgb(19.999695%,19.999695%,79.998779%);stroke-opacity:1;stroke-miterlimit:10;" d="M 112.75 39.329375 L 113.109375 38.93875 L 113.738281 38.759062 L 114.640625 38.591094 L 115.539062 38.50125 L 117.691406 38.50125 L 119.398438 38.630156 L 121.289062 38.669219 L 122.71875 38.72 L 123.980469 38.72 L 124.339844 38.669219 " transform="matrix(1,0,0,-1,0,66.97)"/>
<path style="fill:none;stroke-width:2.26;stroke-linecap:round;stroke-linejoin:round;stroke:rgb(19.999695%,19.999695%,79.998779%);stroke-opacity:1;stroke-miterlimit:10;" d="M 113.828125 34.411406 L 113.828125 34.059844 L 114.191406 34.059844 L 114.640625 34.18875 L 115.179688 34.321562 L 115.988281 34.50125 L 116.878906 34.630156 L 117.78125 34.72 L 118.679688 34.72 L 119.578125 34.759062 L 121.46875 34.759062 L 122.371094 34.72 L 123.261719 34.72 L 123.890625 34.630156 L 124.339844 34.630156 L 124.609375 34.591094 L 124.878906 34.540312 L 125.148438 34.411406 " transform="matrix(1,0,0,-1,0,66.97)"/>
<path style="fill:none;stroke-width:1.41;stroke-linecap:round;stroke-linejoin:round;stroke:rgb(0%,0%,0%);stroke-opacity:1;stroke-miterlimit:10;" d="M 131.890625 28.040312 L 131.980469 27.778594 L 132.070312 28.079375 L 132.25 29.309844 L 132.699219 31.329375 L 133.148438 34.059844 L 133.691406 37.528594 L 134.21875 40.481719 L 134.578125 42.72 L 134.761719 44.040312 L 134.941406 42.798125 L 134.941406 40.739531 L 135.03125 38.411406 L 135.210938 36.391875 L 135.390625 34.848906 L 135.660156 34.020781 L 135.929688 33.579375 L 136.648438 33.708281 L 137.820312 34.669219 L 139.078125 36.259062 L 140.328125 38.411406 L 141.140625 40.739531 L 141.410156 42.540312 L 141.5 43.821562 L 141.5 44.208281 L 141.5 43.458281 L 141.589844 41.528594 L 141.679688 39.380156 L 141.859375 37.360625 L 141.949219 35.731719 L 142.128906 35.028594 L 142.21875 34.411406 L 142.308594 33.880156 L 142.488281 33.43875 L 142.761719 33.091094 " transform="matrix(1,0,0,-1,0,66.97)"/>
<path style="fill:none;stroke-width:1.41;stroke-linecap:round;stroke-linejoin:round;stroke:rgb(0%,0%,0%);stroke-opacity:1;stroke-miterlimit:10;" d="M 153.089844 43.821562 L 153 43.380156 L 152.910156 42.669219 L 152.730469 41.75125 L 152.371094 40.700469 L 151.558594 38.981719 L 150.308594 36.919219 L 148.511719 34.93875 L 146.800781 33.528594 L 145.460938 33.309844 L 144.738281 33.97 L 144.558594 34.981719 L 144.558594 36.169219 L 144.738281 37.528594 L 145.101562 39.071562 L 146.078125 40.911406 L 147.429688 42.231719 L 148.960938 42.411406 L 150.488281 41.489531 L 151.558594 39.419219 L 152.371094 37.048125 L 153 35.110625 L 153.808594 33.43875 L 154.710938 32.348906 L 155.429688 31.68875 L 156.058594 31.329375 L 156.601562 31.380156 " transform="matrix(1,0,0,-1,0,66.97)"/>
<path style="fill:none;stroke-width:1.41;stroke-linecap:round;stroke-linejoin:round;stroke:rgb(0%,0%,0%);stroke-opacity:1;stroke-miterlimit:10;" d="M 161.539062 33.43875 L 161.449219 33.75125 L 161.449219 34.059844 L 161.628906 33.708281 L 161.359375 33.22 L 160.910156 33.141875 L 160.550781 33.489531 L 160.371094 34.059844 L 160.371094 34.540312 L 160.640625 34.411406 " transform="matrix(1,0,0,-1,0,66.97)"/>
<path style="fill:none;stroke-width:1.41;stroke-linecap:round;stroke-linejoin:round;stroke:rgb(0%,0%,0%);stroke-opacity:1;stroke-miterlimit:10;" d="M 166.210938 44.25125 L 166.03125 43.110625 L 166.03125 41.091094 L 165.941406 37.880156 L 165.851562 34.368437 L 165.761719 31.380156 L 165.671875 29.231719 L 165.488281 27.821562 L 165.398438 26.848906 L 165.21875 25.841094 L 165.039062 24.868437 L 164.949219 24.259062 L 164.859375 23.598906 L 164.769531 22.989531 L 164.769531 22.548125 L 164.679688 22.278594 L 164.859375 22.848906 " transform="matrix(1,0,0,-1,0,66.97)"/>
<path style="fill:none;stroke-width:1.41;stroke-linecap:round;stroke-linejoin:round;stroke:rgb(0%,0%,0%);stroke-opacity:1;stroke-miterlimit:10;" d="M 166.75 43.899687 L 167.199219 44.341094 L 167.921875 44.68875 L 168.808594 44.68875 L 169.800781 44.298125 L 170.789062 43.548125 L 171.691406 42.368437 L 172.230469 41.00125 L 172.589844 39.598906 L 172.589844 38.321562 L 172.230469 37.270781 L 171.78125 36.341094 L 171.058594 35.509062 L 170.429688 34.759062 L 169.621094 34.278594 L 168.71875 34.059844 L 167.828125 34.098906 L 167.199219 34.239531 L 166.660156 34.368437 L 166.300781 34.411406 " transform="matrix(1,0,0,-1,0,66.97)"/>
<path style="fill:none;stroke-width:1.41;stroke-linecap:round;stroke-linejoin:round;stroke:rgb(0%,0%,0%);stroke-opacity:1;stroke-miterlimit:10;" d="M 179.511719 51.731719 L 179.421875 51.950469 L 178.699219 52.028594 L 177.710938 52.169219 L 176.628906 52.298125 L 175.640625 52.47 L 175.101562 52.25125 L 174.921875 51.329375 L 175.101562 48.649687 L 175.371094 45.43875 L 175.550781 42.059844 L 175.640625 38.891875 L 175.640625 36.700469 L 175.550781 34.18875 L 175.460938 31.821562 L 175.371094 29.708281 L 175.371094 28.430937 L 175.820312 28.130156 L 176.71875 28.208281 L 177.800781 28.430937 L 178.878906 28.571562 L 179.691406 28.481719 L 179.960938 28.391875 L 180.21875 28.259062 " transform="matrix(1,0,0,-1,0,66.97)"/>
<path style="fill:none;stroke-width:1.41;stroke-linecap:round;stroke-linejoin:round;stroke:rgb(0%,0%,0%);stroke-opacity:1;stroke-miterlimit:10;" d="M 182.109375 45.880156 L 182.378906 43.598906 L 182.558594 40.829375 L 182.648438 37.841094 L 182.738281 34.591094 L 182.738281 33.180937 " transform="matrix(1,0,0,-1,0,66.97)"/>
<path style="fill:none;stroke-width:1.41;stroke-linecap:round;stroke-linejoin:round;stroke:rgb(0%,0%,0%);stroke-opacity:1;stroke-miterlimit:10;" d="M 182.558594 36.298125 L 182.648438 36.868437 L 183.101562 37.43875 L 183.640625 37.880156 L 184.359375 38.18875 L 185.351562 38.411406 L 186.238281 38.50125 L 187.050781 38.50125 L 187.769531 38.540312 L 188.21875 38.591094 L 188.488281 38.72 " transform="matrix(1,0,0,-1,0,66.97)"/>
<path style="fill:none;stroke-width:1.41;stroke-linecap:round;stroke-linejoin:round;stroke:rgb(0%,0%,0%);stroke-opacity:1;stroke-miterlimit:10;" d="M 189.121094 45.841094 L 189.03125 46.18875 L 189.03125 45.919219 L 189.121094 45.048125 L 189.121094 44.079375 L 189.210938 42.798125 L 189.210938 34.239531 L 189.121094 31.731719 L 189.210938 31.071562 " transform="matrix(1,0,0,-1,0,66.97)"/>
<path style="fill:none;stroke-width:1.41;stroke-linecap:round;stroke-linejoin:round;stroke:rgb(0%,0%,0%);stroke-opacity:1;stroke-miterlimit:10;" d="M 194.238281 40.341094 L 194.421875 40.559844 L 195.140625 40.700469 L 196.398438 40.778594 L 197.738281 40.778594 L 198.910156 40.700469 L 199.539062 40.700469 L 199.898438 40.649687 L 200.261719 40.649687 " transform="matrix(1,0,0,-1,0,66.97)"/>
<path style="fill:none;stroke-width:1.41;stroke-linecap:round;stroke-linejoin:round;stroke:rgb(0%,0%,0%);stroke-opacity:1;stroke-miterlimit:10;" d="M 193.878906 37.880156 L 193.609375 37.790312 L 194.328125 37.661406 L 195.5 37.618437 L 197.03125 37.43875 L 198.460938 37.309844 L 199.539062 37.22 L 200.078125 37.091094 L 200.351562 37.180937 " transform="matrix(1,0,0,-1,0,66.97)"/>
<path style="fill:none;stroke-width:1.41;stroke-linecap:round;stroke-linejoin:round;stroke:rgb(0%,0%,0%);stroke-opacity:1;stroke-miterlimit:10;" d="M 211.039062 43.770781 L 211.21875 43.548125 L 211.039062 42.630156 L 210.679688 41.22 L 209.691406 39.380156 L 208.441406 37.661406 L 207 36.559844 L 205.558594 36.208281 L 204.660156 36.778594 L 204.300781 37.97 L 204.570312 39.458281 L 205.289062 40.610625 L 206.28125 41.130156 L 207.539062 40.911406 L 208.621094 40.259062 L 209.601562 39.161406 L 210.410156 38.18875 L 210.949219 37.360625 L 211.488281 36.481719 L 211.761719 35.821562 L 212.03125 35.161406 L 212.75 33.841094 L 213.199219 33.309844 L 213.558594 32.919219 L 214.101562 32.790312 L 214.460938 32.700469 L 214.808594 32.649687 L 215.171875 32.700469 " transform="matrix(1,0,0,-1,0,66.97)"/>
<path style="fill:none;stroke-width:1.41;stroke-linecap:round;stroke-linejoin:round;stroke:rgb(0%,0%,0%);stroke-opacity:1;stroke-miterlimit:10;" d="M 216.878906 41.309844 L 216.878906 41.661406 L 216.96875 42.059844 L 217.238281 42.098906 L 217.058594 41.880156 L 216.789062 41.790312 L 216.339844 41.930937 L 216.070312 42.18875 L 215.890625 42.50125 L 216.25 42.231719 " transform="matrix(1,0,0,-1,0,66.97)"/>
<path style="fill:none;stroke-width:1.41;stroke-linecap:round;stroke-linejoin:round;stroke:rgb(0%,0%,0%);stroke-opacity:1;stroke-miterlimit:10;" d="M 216.429688 34.458281 L 216.160156 34.72 L 216.339844 34.981719 L 216.609375 35.110625 L 216.96875 34.93875 L 217.058594 34.630156 L 216.789062 34.759062 L 216.789062 35.329375 L 216.96875 35.860625 L 217.328125 36.259062 L 217.601562 36.391875 " transform="matrix(1,0,0,-1,0,66.97)"/>
<path style="fill:none;stroke-width:1.41;stroke-linecap:round;stroke-linejoin:round;stroke:rgb(0%,0%,0%);stroke-opacity:1;stroke-miterlimit:10;" d="M 221.28125 31.598906 L 221.191406 31.821562 L 221.191406 32.130156 L 221.371094 32.700469 L 221.820312 34.321562 L 222.628906 36.778594 L 223.53125 39.770781 L 224.519531 42.798125 L 225.148438 44.868437 L 225.601562 45.97 L 225.871094 45.919219 L 226.308594 44.911406 L 226.671875 43.458281 L 227.121094 41.75125 L 227.570312 39.821562 L 227.75 38.411406 L 228.109375 36.958281 L 228.558594 35.25125 L 229.011719 34.149687 L 229.28125 33.22 L 229.550781 32.571562 L 229.460938 32.829375 " transform="matrix(1,0,0,-1,0,66.97)"/>
<path style="fill:none;stroke-width:1.41;stroke-linecap:round;stroke-linejoin:round;stroke:rgb(0%,0%,0%);stroke-opacity:1;stroke-miterlimit:10;" d="M 223.980469 36.919219 L 223.710938 36.919219 L 224.25 37.180937 L 224.789062 37.309844 L 225.238281 37.360625 L 225.960938 37.43875 L 226.488281 37.43875 L 227.03125 37.360625 L 227.480469 37.309844 L 227.75 37.309844 " transform="matrix(1,0,0,-1,0,66.97)"/>
<path style="fill:none;stroke-width:1.41;stroke-linecap:round;stroke-linejoin:round;stroke:rgb(0%,0%,0%);stroke-opacity:1;stroke-miterlimit:10;" d="M 229.730469 50.098906 L 230.179688 50.360625 L 231.171875 50.411406 L 232.691406 50.579375 L 234.21875 50.708281 L 235.390625 50.848906 L 236.199219 50.848906 L 236.378906 50.540312 L 236.378906 43.989531 L 236.46875 41.091094 L 236.558594 38.18875 L 236.648438 35.68875 L 236.738281 33.930937 L 236.828125 32.868437 L 237.011719 31.380156 L 237.191406 29.880156 L 237.28125 28.649687 L 237.191406 27.68875 L 236.648438 27.419219 L 236.019531 27.47 L 234.578125 27.47 L 234.21875 27.559844 L 233.769531 27.641875 L 233.230469 27.821562 " transform="matrix(1,0,0,-1,0,66.97)"/>
<path style="fill:none;stroke-width:2.26;stroke-linecap:round;stroke-linejoin:round;stroke:rgb(19.999695%,19.999695%,79.998779%);stroke-opacity:1;stroke-miterlimit:10;" d="M 246.53125 42.450469 L 246.980469 42.411406 L 247.878906 42.231719 L 249.578125 42.098906 L 251.921875 42.059844 L 254.53125 42.059844 L 256.769531 41.97 L 258.03125 41.930937 L 258.660156 41.930937 L 258.929688 41.97 L 259.019531 42.18875 " transform="matrix(1,0,0,-1,0,66.97)"/>
<path style="fill:none;stroke-width:2.26;stroke-linecap:round;stroke-linejoin:round;stroke:rgb(19.999695%,19.999695%,79.998779%);stroke-opacity:1;stroke-miterlimit:10;" d="M 247.96875 38.669219 L 248.328125 38.278594 L 248.960938 38.098906 L 249.851562 37.930937 L 250.75 37.841094 L 252.910156 37.841094 L 254.621094 37.97 L 256.5 38.009062 L 257.941406 38.059844 L 259.199219 38.059844 L 259.558594 38.009062 " transform="matrix(1,0,0,-1,0,66.97)"/>
<path style="fill:none;stroke-width:2.26;stroke-linecap:round;stroke-linejoin:round;stroke:rgb(19.999695%,19.999695%,79.998779%);stroke-opacity:1;stroke-miterlimit:10;" d="M 249.050781 33.75125 L 249.050781 33.399687 L 249.398438 33.399687 L 249.851562 33.528594 L 250.390625 33.661406 L 251.199219 33.841094 L 252.101562 33.97 L 253 34.059844 L 253.898438 34.059844 L 254.789062 34.098906 L 256.679688 34.098906 L 257.578125 34.059844 L 258.480469 34.059844 L 259.109375 33.97 L 259.558594 33.97 L 259.828125 33.930937 L 260.101562 33.880156 L 260.371094 33.75125 " transform="matrix(1,0,0,-1,0,66.97)"/>
<path style="fill:none;stroke-width:1.41;stroke-linecap:round;stroke-linejoin:round;stroke:rgb(0%,0%,0%);stroke-opacity:1;stroke-miterlimit:10;" d="M 272.039062 40.118437 L 272.039062 40.391875 L 272.039062 39.731719 L 272.128906 38.18875 L 272.128906 32.259062 L 272.039062 29.231719 L 271.960938 26.93875 L 271.960938 24.790312 " transform="matrix(1,0,0,-1,0,66.97)"/>
<path style="fill:none;stroke-width:1.41;stroke-linecap:round;stroke-linejoin:round;stroke:rgb(0%,0%,0%);stroke-opacity:1;stroke-miterlimit:10;" d="M 272.761719 40.040312 L 272.578125 40.341094 L 272.671875 40.700469 L 273.121094 41.091094 L 273.839844 41.528594 L 275.011719 41.841094 L 276.449219 41.75125 L 277.789062 41.309844 L 278.960938 40.481719 L 279.769531 39.25125 L 280.039062 37.97 L 279.769531 36.778594 L 278.871094 35.68875 L 277.621094 34.93875 L 276.089844 34.458281 L 274.738281 34.18875 L 273.839844 34.149687 L 273.300781 34.278594 L 273.03125 34.458281 L 272.941406 34.72 " transform="matrix(1,0,0,-1,0,66.97)"/>
<path style="fill:none;stroke-width:1.41;stroke-linecap:round;stroke-linejoin:round;stroke:rgb(0%,0%,0%);stroke-opacity:1;stroke-miterlimit:10;" d="M 287.230469 52.028594 L 286.871094 51.950469 L 283.371094 51.950469 L 282.921875 51.641875 L 282.828125 50.411406 L 282.921875 47.989531 L 283.101562 44.430937 L 283.28125 39.899687 L 283.28125 35.821562 L 283.191406 32.610625 L 283.101562 30.50125 L 283.191406 29.669219 L 283.371094 29.450469 L 283.628906 29.399687 L 284.621094 29.528594 L 285.789062 29.75125 L 286.960938 29.97 L 288.128906 30.239531 L 288.671875 30.411406 L 288.941406 30.50125 " transform="matrix(1,0,0,-1,0,66.97)"/>
<path style="fill:none;stroke-width:1.41;stroke-linecap:round;stroke-linejoin:round;stroke:rgb(0%,0%,0%);stroke-opacity:1;stroke-miterlimit:10;" d="M 290.371094 47.548125 L 290.460938 46.630156 L 290.550781 44.47 L 290.640625 41.270781 L 290.820312 37.880156 L 290.820312 35.290312 L 290.730469 33.880156 " transform="matrix(1,0,0,-1,0,66.97)"/>
<path style="fill:none;stroke-width:1.41;stroke-linecap:round;stroke-linejoin:round;stroke:rgb(0%,0%,0%);stroke-opacity:1;stroke-miterlimit:10;" d="M 290.820312 38.630156 L 291.179688 39.200469 L 291.808594 39.680937 L 292.710938 40.040312 L 293.878906 40.259062 L 294.960938 40.391875 L 295.851562 40.430937 L 296.660156 40.481719 L 297.109375 40.559844 L 297.558594 40.649687 L 297.828125 40.958281 L 297.648438 41.130156 " transform="matrix(1,0,0,-1,0,66.97)"/>
<path style="fill:none;stroke-width:1.41;stroke-linecap:round;stroke-linejoin:round;stroke:rgb(0%,0%,0%);stroke-opacity:1;stroke-miterlimit:10;" d="M 297.921875 48.25125 L 298.191406 47.020781 L 298.28125 45.130156 L 298.191406 42.759062 L 298.011719 39.598906 L 297.828125 36.829375 L 297.738281 34.809844 L 297.558594 33.180937 " transform="matrix(1,0,0,-1,0,66.97)"/>
<path style="fill:none;stroke-width:1.41;stroke-linecap:round;stroke-linejoin:round;stroke:rgb(0%,0%,0%);stroke-opacity:1;stroke-miterlimit:10;" d="M 303.941406 41.841094 L 303.761719 42.009062 L 304.300781 42.098906 L 305.109375 42.149687 L 306.011719 42.18875 L 306.71875 42.231719 L 307.351562 42.321562 L 307.710938 42.411406 L 307.980469 42.450469 L 308.25 42.50125 L 308.519531 42.50125 L 308.789062 42.321562 L 308.519531 41.97 " transform="matrix(1,0,0,-1,0,66.97)"/>
<path style="fill:none;stroke-width:1.41;stroke-linecap:round;stroke-linejoin:round;stroke:rgb(0%,0%,0%);stroke-opacity:1;stroke-miterlimit:10;" d="M 303.761719 39.290312 L 304.839844 39.290312 L 306.101562 39.329375 L 307.351562 39.419219 L 308.789062 39.419219 " transform="matrix(1,0,0,-1,0,66.97)"/>
<path style="fill:none;stroke-width:1.41;stroke-linecap:round;stroke-linejoin:round;stroke:rgb(0%,0%,0%);stroke-opacity:1;stroke-miterlimit:10;" d="M 319.570312 47.368437 L 319.210938 47.641875 L 318.851562 47.591094 L 318.128906 47.368437 L 317.421875 46.93875 L 316.699219 46.411406 L 315.980469 45.661406 L 315.351562 44.829375 L 314.808594 43.989531 L 314.269531 42.93875 L 313.910156 42.059844 L 313.640625 41.130156 L 313.640625 40.118437 L 313.910156 39.071562 L 314.179688 37.930937 L 314.808594 36.739531 L 315.621094 35.770781 L 316.519531 34.981719 L 317.511719 34.411406 L 318.308594 34.098906 L 319.121094 33.97 L 319.839844 33.97 L 320.648438 34.020781 L 321.550781 34.411406 L 322.449219 35.071562 L 323.261719 35.989531 L 323.878906 37.22 L 324.058594 38.50125 L 324.058594 39.821562 L 323.878906 41.22 L 323.621094 42.50125 L 323.351562 43.680937 L 322.898438 44.68875 L 322.449219 45.528594 L 321.910156 46.231719 L 321.28125 46.759062 L 320.738281 47.071562 L 320.46875 47.161406 " transform="matrix(1,0,0,-1,0,66.97)"/>
<path style="fill:none;stroke-width:1.41;stroke-linecap:round;stroke-linejoin:round;stroke:rgb(0%,0%,0%);stroke-opacity:1;stroke-miterlimit:10;" d="M 314.988281 33.00125 L 314.898438 33.22 L 315.078125 33.579375 L 315.53125 34.278594 L 316.519531 35.911406 L 318.128906 38.411406 L 320.199219 41.708281 L 322.449219 45.270781 L 323.96875 47.860625 L 324.871094 49.481719 L 325.230469 50.278594 L 324.960938 50.278594 " transform="matrix(1,0,0,-1,0,66.97)"/>
<path style="fill:none;stroke-width:1.41;stroke-linecap:round;stroke-linejoin:round;stroke:rgb(0%,0%,0%);stroke-opacity:1;stroke-miterlimit:10;" d="M 329.460938 43.731719 L 329.71875 44.040312 L 329.988281 43.989531 L 330.171875 43.731719 L 330.261719 43.419219 L 329.988281 43.290312 L 329.628906 43.329375 L 329.371094 43.731719 L 329.539062 43.989531 L 329.898438 44.040312 L 330.171875 43.770781 L 330.078125 43.419219 L 329.808594 43.329375 L 329.460938 43.641875 L 329.71875 43.770781 " transform="matrix(1,0,0,-1,0,66.97)"/>
<path style="fill:none;stroke-width:1.41;stroke-linecap:round;stroke-linejoin:round;stroke:rgb(0%,0%,0%);stroke-opacity:1;stroke-miterlimit:10;" d="M 329.808594 35.598906 L 329.628906 35.950469 L 329.808594 36.391875 L 329.988281 36.778594 L 329.71875 36.739531 L 329.71875 37.091094 L 329.898438 37.399687 L 330.171875 37.399687 L 330.441406 37.141875 L 330.171875 36.868437 L 329.898438 36.829375 L 329.71875 37.048125 L 329.460938 37.309844 L 329.71875 37.661406 " transform="matrix(1,0,0,-1,0,66.97)"/>
<path style="fill:none;stroke-width:1.41;stroke-linecap:round;stroke-linejoin:round;stroke:rgb(0%,0%,0%);stroke-opacity:1;stroke-miterlimit:10;" d="M 334.851562 34.059844 L 334.488281 33.661406 L 334.671875 34.149687 L 335.03125 34.891875 L 335.46875 36.079375 L 336.371094 38.669219 L 337.359375 41.708281 L 338.351562 44.68875 L 339.160156 47.290312 L 339.609375 48.559844 L 339.878906 49.22 L 340.238281 49.130156 L 340.511719 48.610625 L 340.691406 47.731719 L 340.960938 46.630156 L 341.21875 45.790312 L 341.398438 44.911406 L 341.578125 43.950469 L 342.03125 42.149687 L 342.480469 39.821562 L 343.019531 37.309844 L 343.46875 34.981719 L 343.648438 33.75125 L 343.648438 33.22 L 343.558594 33.43875 L 343.46875 33.75125 " transform="matrix(1,0,0,-1,0,66.97)"/>
<path style="fill:none;stroke-width:1.41;stroke-linecap:round;stroke-linejoin:round;stroke:rgb(0%,0%,0%);stroke-opacity:1;stroke-miterlimit:10;" d="M 337.269531 39.329375 L 336.910156 39.509062 L 337.449219 39.821562 L 338.171875 40.040312 L 339.339844 40.118437 L 340.421875 40.208281 L 341.308594 40.259062 L 341.851562 40.169219 " transform="matrix(1,0,0,-1,0,66.97)"/>
<path style="fill:none;stroke-width:1.41;stroke-linecap:round;stroke-linejoin:round;stroke:rgb(0%,0%,0%);stroke-opacity:1;stroke-miterlimit:10;" d="M 345.808594 51.860625 L 345.628906 52.028594 L 345.898438 52.079375 L 347.960938 52.079375 L 349.308594 52.169219 L 351.199219 52.169219 L 351.199219 50.141875 L 351.109375 48.25125 L 351.109375 35.329375 L 351.019531 33.309844 L 351.019531 31.071562 L 350.929688 30.759062 L 350.660156 30.72 L 350.210938 30.759062 L 349.761719 30.809844 L 349.308594 30.848906 L 348.859375 30.848906 " transform="matrix(1,0,0,-1,0,66.97)"/>
</g>
</svg>
