<?xml version="1.0" encoding="UTF-8"?>
<svg xmlns="http://www.w3.org/2000/svg" xmlns:xlink="http://www.w3.org/1999/xlink" width="283.18pt" height="179.56pt" viewBox="0 0 283.18 179.56" version="1.1">
<g id="surface1">
<path style="fill:none;stroke-width:2.26;stroke-linecap:round;stroke-linejoin:round;stroke:rgb(0%,0%,0%);stroke-opacity:1;stroke-miterlimit:10;" d="M 158.371094 134.759219 L 158.410156 128.81 L 158.460938 122.849063 " transform="matrix(1,0,0,-1,0,179.56)"/>
<path style="fill:none;stroke-width:2.26;stroke-linecap:round;stroke-linejoin:round;stroke:rgb(0%,0%,0%);stroke-opacity:1;stroke-miterlimit:10;" d="M 158.460938 122.770938 L 164.929688 122.630313 " transform="matrix(1,0,0,-1,0,179.56)"/>
<path style="fill:none;stroke-width:2.26;stroke-linecap:round;stroke-linejoin:round;stroke:rgb(0%,0%,0%);stroke-opacity:1;stroke-miterlimit:10;" d="M 165.019531 122.548281 L 164.960938 116.06 L 164.898438 109.571719 L 164.839844 103.079531 " transform="matrix(1,0,0,-1,0,179.56)"/>
<path style="fill:none;stroke-width:2.26;stroke-linecap:round;stroke-linejoin:round;stroke:rgb(0%,0%,0%);stroke-opacity:1;stroke-miterlimit:10;" d="M 164.839844 103.079531 L 158.820312 103.34125 " transform="matrix(1,0,0,-1,0,179.56)"/>
<path style="fill:none;stroke-width:2.26;stroke-linecap:round;stroke-linejoin:round;stroke:rgb(0%,0%,0%);stroke-opacity:1;stroke-miterlimit:10;" d="M 159.089844 103.251406 L 159.179688 96.931094 L 159.269531 90.599063 L 159.359375 84.270938 " transform="matrix(1,0,0,-1,0,179.56)"/>
<path style="fill:none;stroke-width:2.26;stroke-linecap:round;stroke-linejoin:round;stroke:rgb(0%,0%,0%);stroke-opacity:1;stroke-miterlimit:10;" d="M 159.359375 83.700625 L 165.738281 83.739688 " transform="matrix(1,0,0,-1,0,179.56)"/>
<path style="fill:none;stroke-width:2.26;stroke-linecap:round;stroke-linejoin:round;stroke:rgb(0%,0%,0%);stroke-opacity:1;stroke-miterlimit:10;" d="M 165.648438 83.700625 L 165.53125 78.380313 L 165.421875 73.06 L 165.308594 67.751406 L 165.199219 62.431094 " transform="matrix(1,0,0,-1,0,179.56)"/>
<path style="fill:none;stroke-width:2.26;stroke-linecap:round;stroke-linejoin:round;stroke:rgb(0%,0%,0%);stroke-opacity:1;stroke-miterlimit:10;" d="M 165.019531 62.079531 L 159.71875 62.169375 " transform="matrix(1,0,0,-1,0,179.56)"/>
<path style="fill:none;stroke-width:2.26;stroke-linecap:round;stroke-linejoin:round;stroke:rgb(0%,0%,0%);stroke-opacity:1;stroke-miterlimit:10;" d="M 159.269531 62.118594 L 159.210938 56.290469 L 159.148438 50.458438 L 159.089844 44.630313 " transform="matrix(1,0,0,-1,0,179.56)"/>
<path style="fill:none;stroke-width:2.26;stroke-linecap:round;stroke-linejoin:round;stroke:rgb(0%,0%,0%);stroke-opacity:1;stroke-miterlimit:10;" d="M 159.988281 44.188906 L 165.210938 44.208438 L 170.441406 44.220156 L 175.671875 44.239688 L 180.890625 44.259219 L 186.121094 44.270938 L 191.351562 44.290469 L 196.578125 44.298281 L 201.800781 44.321719 L 207.03125 44.34125 L 212.261719 44.349063 L 217.488281 44.368594 " transform="matrix(1,0,0,-1,0,179.56)"/>
<path style="fill:none;stroke-width:2.26;stroke-linecap:round;stroke-linejoin:round;stroke:rgb(0%,0%,0%);stroke-opacity:1;stroke-miterlimit:10;" d="M 217.21875 44.501406 L 217.199219 49.509219 L 217.179688 54.52875 L 217.160156 59.540469 L 217.140625 64.56 L 217.121094 69.571719 L 217.101562 74.59125 L 217.078125 79.599063 L 217.058594 84.618594 L 217.039062 89.630313 L 217.019531 94.649844 L 217 99.661563 L 216.980469 104.681094 L 216.960938 109.688906 L 216.941406 114.708438 L 216.921875 119.720156 L 216.898438 124.731875 L 216.878906 129.751406 L 216.859375 134.759219 " transform="matrix(1,0,0,-1,0,179.56)"/>
<path style="fill:none;stroke-width:2.26;stroke-linecap:round;stroke-linejoin:round;stroke:rgb(0%,0%,0%);stroke-opacity:1;stroke-miterlimit:10;" d="M 216.230469 134.540469 L 211 134.661563 L 205.769531 134.77875 L 200.550781 134.888125 L 195.320312 135.009219 L 190.089844 135.118594 L 184.859375 135.239688 L 179.640625 135.349063 L 169.179688 135.59125 L 163.960938 135.700625 L 158.730469 135.821719 " transform="matrix(1,0,0,-1,0,179.56)"/>
<path style="fill:none;stroke-width:2.26;stroke-linecap:round;stroke-linejoin:round;stroke:rgb(0%,0%,0%);stroke-opacity:1;stroke-miterlimit:10;" d="M 69.058594 135.688906 L 68.609375 125.931094 " transform="matrix(1,0,0,-1,0,179.56)"/>
<path style="fill:none;stroke-width:2.26;stroke-linecap:round;stroke-linejoin:round;stroke:rgb(0%,0%,0%);stroke-opacity:1;stroke-miterlimit:10;" d="M 67.269531 105.360781 L 67.179688 95.610781 " transform="matrix(1,0,0,-1,0,179.56)"/>
<path style="fill:none;stroke-width:2.26;stroke-linecap:round;stroke-linejoin:round;stroke:rgb(0%,0%,0%);stroke-opacity:1;stroke-miterlimit:10;" d="M 67.269531 95.610781 L 72.429688 95.520938 L 77.601562 95.438906 L 82.761719 95.360781 L 87.929688 95.270938 L 93.101562 95.188906 L 98.261719 95.110781 L 103.429688 95.020938 L 108.601562 94.938906 L 113.761719 94.860781 L 118.929688 94.770938 " transform="matrix(1,0,0,-1,0,179.56)"/>
<path style="fill:none;stroke-width:2.26;stroke-linecap:round;stroke-linejoin:round;stroke:rgb(0%,0%,0%);stroke-opacity:1;stroke-miterlimit:10;" d="M 119.019531 95.118594 L 119.378906 102.599063 " transform="matrix(1,0,0,-1,0,179.56)"/>
<path style="fill:none;stroke-width:2.26;stroke-linecap:round;stroke-linejoin:round;stroke:rgb(0%,0%,0%);stroke-opacity:1;stroke-miterlimit:10;" d="M 116.859375 126.368594 L 116.859375 135.071719 " transform="matrix(1,0,0,-1,0,179.56)"/>
<path style="fill:none;stroke-width:2.26;stroke-linecap:round;stroke-linejoin:round;stroke:rgb(0%,0%,0%);stroke-opacity:1;stroke-miterlimit:10;" d="M 117.039062 135.02875 L 111.78125 135.071719 L 106.519531 135.110781 L 101.261719 135.138125 L 96 135.181094 L 90.738281 135.220156 L 85.480469 135.259219 L 80.210938 135.298281 L 74.949219 135.34125 L 69.691406 135.380313 " transform="matrix(1,0,0,-1,0,179.56)"/>
<path style="fill:none;stroke-width:2.26;stroke-linecap:round;stroke-linejoin:round;stroke:rgb(0%,0%,0%);stroke-opacity:1;stroke-miterlimit:10;" d="M 68.519531 125.618594 L 74.71875 125.618594 " transform="matrix(1,0,0,-1,0,179.56)"/>
<path style="fill:none;stroke-width:2.26;stroke-linecap:round;stroke-linejoin:round;stroke:rgb(0%,0%,0%);stroke-opacity:1;stroke-miterlimit:10;" d="M 74.539062 125.181094 L 74.480469 118.688906 L 74.421875 112.208438 L 74.359375 105.720156 " transform="matrix(1,0,0,-1,0,179.56)"/>
<path style="fill:none;stroke-width:2.26;stroke-linecap:round;stroke-linejoin:round;stroke:rgb(0%,0%,0%);stroke-opacity:1;stroke-miterlimit:10;" d="M 74.359375 105.849063 L 67.449219 106.110781 " transform="matrix(1,0,0,-1,0,179.56)"/>
<path style="fill:none;stroke-width:2.26;stroke-linecap:round;stroke-linejoin:round;stroke:rgb(0%,0%,0%);stroke-opacity:1;stroke-miterlimit:10;" d="M 118.300781 126.720156 L 122.96875 126.27875 " transform="matrix(1,0,0,-1,0,179.56)"/>
<path style="fill:none;stroke-width:2.26;stroke-linecap:round;stroke-linejoin:round;stroke:rgb(0%,0%,0%);stroke-opacity:1;stroke-miterlimit:10;" d="M 123.511719 126.27875 L 124.050781 109.931094 L 124.230469 104.489688 " transform="matrix(1,0,0,-1,0,179.56)"/>
<path style="fill:none;stroke-width:2.26;stroke-linecap:round;stroke-linejoin:round;stroke:rgb(0%,0%,0%);stroke-opacity:1;stroke-miterlimit:10;" d="M 124.410156 104.349063 L 119.199219 103.688906 " transform="matrix(1,0,0,-1,0,179.56)"/>
<path style="fill:none;stroke-width:2.26;stroke-linecap:round;stroke-linejoin:round;stroke:rgb(0%,0%,0%);stroke-opacity:1;stroke-miterlimit:10;" d="M 124.230469 115.380313 L 129.851562 115.270938 L 135.46875 115.161563 L 141.089844 115.040469 L 146.710938 114.931094 L 152.339844 114.821719 L 157.960938 114.708438 L 163.578125 114.59125 " transform="matrix(1,0,0,-1,0,179.56)"/>
<path style="fill:none;stroke-width:1.41;stroke-linecap:round;stroke-linejoin:round;stroke:rgb(0%,0%,0%);stroke-opacity:1;stroke-miterlimit:10;" d="M 168.070312 108.790469 L 168.25 109.450625 L 168.519531 110.59125 L 169.148438 112.349063 L 169.78125 114.239688 L 170.5 116.09125 L 171.308594 117.669375 L 171.761719 118.638125 L 172.109375 119.161563 L 172.289062 119.380313 L 172.648438 119.208438 L 173.011719 118.458438 L 173.460938 117.138125 L 173.910156 115.251406 L 174.539062 112.970156 L 174.988281 111.079531 L 175.351562 109.630313 L 175.621094 108.790469 L 175.621094 108.52875 " transform="matrix(1,0,0,-1,0,179.56)"/>
<path style="fill:none;stroke-width:1.41;stroke-linecap:round;stroke-linejoin:round;stroke:rgb(0%,0%,0%);stroke-opacity:1;stroke-miterlimit:10;" d="M 169.601562 112.790469 L 169.960938 112.571719 L 170.859375 112.571719 L 172.109375 112.661563 L 173.371094 112.829531 L 174.359375 113.009219 L 175.171875 113.009219 " transform="matrix(1,0,0,-1,0,179.56)"/>
<path style="fill:none;stroke-width:1.41;stroke-linecap:round;stroke-linejoin:round;stroke:rgb(0%,0%,0%);stroke-opacity:1;stroke-miterlimit:10;" d="M 170.320312 77.020938 L 170.320312 77.27875 L 170.230469 76.540469 L 170.140625 75.09125 L 170.050781 72.981875 L 169.960938 70.950625 L 169.78125 69.419375 L 169.691406 68.540469 " transform="matrix(1,0,0,-1,0,179.56)"/>
<path style="fill:none;stroke-width:1.41;stroke-linecap:round;stroke-linejoin:round;stroke:rgb(0%,0%,0%);stroke-opacity:1;stroke-miterlimit:10;" d="M 169.78125 76.009219 L 169.78125 76.360781 L 170.050781 76.618594 L 170.769531 76.888125 L 171.929688 77.06 L 173.28125 77.110781 L 174.539062 76.84125 L 175.53125 76.270938 L 176.070312 75.349063 L 176.429688 74.161563 L 176.609375 73.020938 L 176.519531 72.009219 L 176.25 71.040469 L 175.710938 70.251406 L 174.898438 69.638125 L 173.820312 69.200625 L 172.738281 68.931094 L 171.761719 68.888125 L 170.5 68.888125 " transform="matrix(1,0,0,-1,0,179.56)"/>
<path style="fill:none;stroke-width:1.41;stroke-linecap:round;stroke-linejoin:round;stroke:rgb(0%,0%,0%);stroke-opacity:1;stroke-miterlimit:10;" d="M 117.671875 119.290469 L 117.578125 119.599063 L 116.949219 119.950625 L 116.5 120.130313 L 115.871094 120.220156 L 115.148438 120.130313 L 114.519531 120.001406 L 113.808594 119.649844 L 113.269531 119.118594 L 112.820312 118.548281 L 112.371094 117.708438 L 112.191406 116.970156 L 112.101562 116.349063 L 112.101562 115.34125 L 112.28125 114.860781 L 112.550781 114.239688 L 112.820312 113.630313 L 113.089844 113.009219 L 113.359375 112.52875 L 113.71875 112.181094 L 114.078125 111.821719 L 114.519531 111.599063 L 114.878906 111.431094 L 115.238281 111.380313 L 115.871094 111.431094 L 116.589844 111.599063 L 117.308594 111.868594 L 118.121094 112.181094 L 118.570312 112.399844 L 118.929688 112.700625 L 119.019531 112.919375 " transform="matrix(1,0,0,-1,0,179.56)"/>
<path style="fill:none;stroke-width:1.41;stroke-linecap:round;stroke-linejoin:round;stroke:rgb(0%,0%,0%);stroke-opacity:1;stroke-miterlimit:10;" d="M 79.039062 118.938906 L 79.21875 119.208438 L 79.488281 118.501406 L 79.488281 115.56 L 79.398438 113.931094 L 79.308594 112.700625 L 79.308594 111.911563 L 79.398438 111.599063 " transform="matrix(1,0,0,-1,0,179.56)"/>
<path style="fill:none;stroke-width:1.41;stroke-linecap:round;stroke-linejoin:round;stroke:rgb(0%,0%,0%);stroke-opacity:1;stroke-miterlimit:10;" d="M 79.488281 118.27875 L 79.398438 118.81 L 79.488281 119.290469 L 79.761719 119.911563 L 80.378906 120.571719 L 81.460938 121.009219 L 82.539062 121.099063 L 83.53125 120.571719 L 83.890625 119.688906 L 83.710938 118.638125 L 82.71875 117.669375 L 81.550781 116.919375 L 80.46875 116.388125 L 79.929688 116.130313 L 80.738281 116.169375 L 81.730469 116.130313 L 82.808594 115.868594 L 83.800781 115.520938 L 84.429688 114.860781 L 84.519531 114.110781 L 84.429688 113.321719 L 84.160156 112.618594 L 83.800781 112.130313 L 83.441406 111.868594 L 82.988281 111.599063 L 82.269531 111.298281 L 81.460938 111.079531 L 80.558594 111.118594 L 79.851562 111.251406 L 79.488281 111.56 L 79.21875 111.911563 " transform="matrix(1,0,0,-1,0,179.56)"/>
<path style="fill:none;stroke-width:2.26;stroke-linecap:round;stroke-linejoin:round;stroke:rgb(0%,0%,0%);stroke-opacity:1;stroke-miterlimit:10;" d="M 100.511719 124.040469 L 100.328125 124.388125 L 100.148438 124.790469 L 99.609375 125.231875 L 98.621094 125.618594 L 97.359375 125.579531 L 95.929688 125.181094 L 94.671875 124.259219 L 93.859375 123.071719 L 93.5 121.669375 L 94.039062 120.349063 L 95.210938 119.509219 L 96.921875 119.290469 L 98.710938 119.731875 L 99.96875 120.700625 L 100.871094 121.669375 L 101.230469 122.630313 L 101.320312 123.161563 L 101.230469 123.380313 L 101.050781 122.720156 L 100.691406 121.669375 L 100.328125 120.220156 L 100.058594 118.419375 L 99.609375 116.52875 L 99.160156 113.798281 L 98.710938 110.638125 L 98.351562 107.298281 L 98.261719 104.751406 L 98.710938 103.470156 L 99.699219 103.298281 L 100.871094 103.958438 L 101.859375 104.970156 L 102.578125 105.888125 L 102.578125 106.59125 L 101.949219 107.298281 L 100.960938 107.911563 L 99.878906 108.481875 L 99.070312 109.099063 L 98.890625 109.540469 L 99.160156 109.888125 L 99.699219 110.329531 L 100.238281 110.731875 L 101.050781 111.298281 L 101.769531 111.868594 L 102.308594 112.481875 L 102.671875 113.048281 L 102.761719 113.411563 L 102.761719 113.708438 " transform="matrix(1,0,0,-1,0,179.56)"/>
<path style="fill:none;stroke-width:2.26;stroke-linecap:round;stroke-linejoin:round;stroke:rgb(0%,0%,0%);stroke-opacity:1;stroke-miterlimit:10;" d="M 189.71875 99.298281 L 189.359375 98.860781 L 189.269531 98.200625 L 189.011719 96.438906 L 188.648438 93.630313 L 188.199219 90.419375 L 187.660156 87.040469 L 187.300781 84.618594 L 187.03125 83.438906 L 186.941406 82.950625 " transform="matrix(1,0,0,-1,0,179.56)"/>
<path style="fill:none;stroke-width:2.26;stroke-linecap:round;stroke-linejoin:round;stroke:rgb(0%,0%,0%);stroke-opacity:1;stroke-miterlimit:10;" d="M 188.46875 98.110781 L 188.648438 98.860781 L 189.089844 99.700625 L 189.808594 100.489688 L 191.25 101.231875 L 192.871094 101.579531 L 194.488281 101.540469 L 196.101562 101.149844 L 197 100.438906 L 197.539062 99.700625 L 197.628906 98.638125 L 197.449219 97.450625 L 197 96.001406 L 196.101562 94.509219 L 194.761719 93.501406 L 193.230469 93.099063 L 191.789062 93.149844 L 190.710938 93.411563 L 190.078125 93.759219 L 189.808594 94.02875 " transform="matrix(1,0,0,-1,0,179.56)"/>
<path style="fill:none;stroke-width:1.41;stroke-linecap:round;stroke-linejoin:round;stroke:rgb(100%,0%,0%);stroke-opacity:1;stroke-miterlimit:10;" d="M 10.308594 97.501406 L 10.308594 95.34125 L 10.398438 92.798281 L 10.488281 89.938906 L 10.488281 85.720156 " transform="matrix(1,0,0,-1,0,179.56)"/>
<path style="fill:none;stroke-width:1.41;stroke-linecap:round;stroke-linejoin:round;stroke:rgb(100%,0%,0%);stroke-opacity:1;stroke-miterlimit:10;" d="M 10.851562 89.938906 L 11.199219 90.380313 L 11.921875 90.509219 L 13.179688 90.770938 L 14.800781 91.040469 L 16.058594 91.169375 L 17.039062 91.259219 L 17.671875 91.298281 L 17.941406 91.388125 L 18.121094 91.571719 " transform="matrix(1,0,0,-1,0,179.56)"/>
<path style="fill:none;stroke-width:1.41;stroke-linecap:round;stroke-linejoin:round;stroke:rgb(100%,0%,0%);stroke-opacity:1;stroke-miterlimit:10;" d="M 18.210938 96.220156 L 18.300781 95.649844 L 18.480469 94.290469 L 18.480469 92.84125 L 18.570312 91.169375 L 18.570312 85.411563 L 18.480469 84.231875 L 18.480469 83.520938 " transform="matrix(1,0,0,-1,0,179.56)"/>
<path style="fill:none;stroke-width:1.41;stroke-linecap:round;stroke-linejoin:round;stroke:rgb(19.999695%,19.999695%,79.998779%);stroke-opacity:1;stroke-miterlimit:10;" d="M 145.179688 62.669375 L 145.988281 62.669375 L 146.980469 62.888125 L 148.421875 63.149844 L 149.679688 63.290469 L 150.398438 62.981875 L 150.398438 61.829531 L 149.859375 60.118594 L 149.230469 58.360781 L 148.78125 56.911563 L 148.601562 56.251406 " transform="matrix(1,0,0,-1,0,179.56)"/>
<path style="fill:none;stroke-width:1.41;stroke-linecap:round;stroke-linejoin:round;stroke:rgb(19.999695%,19.999695%,79.998779%);stroke-opacity:1;stroke-miterlimit:10;" d="M 149.320312 62.931094 L 149.050781 62.798281 L 148.691406 62.450625 L 148.148438 61.790469 L 147.429688 60.911563 L 146.53125 59.860781 L 145.539062 58.708438 L 144.378906 57.349063 L 143.210938 55.950625 L 141.949219 54.231875 L 140.871094 52.688906 L 140.058594 51.458438 L 139.351562 50.231875 L 138.898438 49.270938 L 138.539062 48.388125 L 138.179688 47.200625 L 138 46.149844 L 137.730469 44.919375 L 137.460938 43.200625 L 137.101562 41.489688 L 136.738281 39.731875 L 136.378906 37.931094 L 136.199219 36.388125 L 136.109375 35.118594 L 136.109375 33.09125 " transform="matrix(1,0,0,-1,0,179.56)"/>
<path style="fill:none;stroke-width:1.41;stroke-linecap:round;stroke-linejoin:round;stroke:rgb(19.999695%,19.999695%,79.998779%);stroke-opacity:1;stroke-miterlimit:10;" d="M 130.898438 23.02875 L 130.71875 23.34125 L 130.628906 22.899844 L 130.628906 22.329531 L 130.71875 21.321719 L 130.71875 20.001406 L 130.808594 18.329531 L 130.808594 11.610781 " transform="matrix(1,0,0,-1,0,179.56)"/>
<path style="fill:none;stroke-width:1.41;stroke-linecap:round;stroke-linejoin:round;stroke:rgb(19.999695%,19.999695%,79.998779%);stroke-opacity:1;stroke-miterlimit:10;" d="M 130.71875 21.579531 L 130.71875 22.419375 L 130.988281 22.720156 L 131.351562 23.079531 L 131.890625 23.509219 L 132.789062 23.821719 L 133.589844 23.911563 L 134.488281 23.731875 L 135.03125 23.290469 L 135.390625 22.548281 L 135.660156 21.759219 L 135.660156 20.880313 L 135.480469 19.911563 L 135.121094 19.298281 L 134.488281 18.720156 L 133.679688 18.419375 L 132.789062 18.329531 L 132.070312 18.419375 L 131.53125 18.59125 L 131.261719 18.720156 " transform="matrix(1,0,0,-1,0,179.56)"/>
<path style="fill:none;stroke-width:1.41;stroke-linecap:round;stroke-linejoin:round;stroke:rgb(19.999695%,19.999695%,79.998779%);stroke-opacity:1;stroke-miterlimit:10;" d="M 140.871094 27.731875 L 141.050781 27.950625 L 141.230469 28.130313 L 140.78125 28.259219 L 140.238281 28.388125 L 139.429688 28.571719 L 138.71875 28.700625 L 138.269531 28.571719 L 137.910156 28.349063 L 137.820312 27.77875 L 137.910156 26.938906 L 138.179688 25.708438 L 138.539062 24.001406 L 138.808594 22.329531 L 138.988281 20.880313 L 139.078125 19.688906 L 138.988281 19.02875 L 138.988281 17.888125 L 138.898438 17.411563 L 138.898438 16.130313 L 139.261719 15.868594 L 139.609375 15.739688 L 140.148438 15.688906 L 140.511719 15.688906 L 140.78125 15.739688 L 141.140625 15.821719 L 141.589844 15.868594 " transform="matrix(1,0,0,-1,0,179.56)"/>
<path style="fill:none;stroke-width:1.41;stroke-linecap:round;stroke-linejoin:round;stroke:rgb(19.999695%,19.999695%,79.998779%);stroke-opacity:1;stroke-miterlimit:10;" d="M 144.109375 17.489688 L 144.109375 18.368594 L 144.378906 19.821719 L 144.738281 21.888125 L 145.179688 24.259219 L 145.539062 26.27875 L 145.71875 27.731875 L 146.078125 28.298281 L 146.351562 27.731875 L 146.890625 26.239688 L 147.609375 23.950625 L 148.238281 21.84125 L 148.691406 20.130313 L 148.960938 19.079531 L 149.140625 18.501406 L 149.230469 17.981875 L 149.230469 17.489688 L 149.320312 17.099063 " transform="matrix(1,0,0,-1,0,179.56)"/>
<path style="fill:none;stroke-width:1.41;stroke-linecap:round;stroke-linejoin:round;stroke:rgb(19.999695%,19.999695%,79.998779%);stroke-opacity:1;stroke-miterlimit:10;" d="M 144.828125 20.829531 L 145.179688 20.700625 L 145.898438 20.790469 L 146.53125 20.829531 L 147.160156 20.919375 L 147.429688 20.919375 " transform="matrix(1,0,0,-1,0,179.56)"/>
<path style="fill:none;stroke-width:1.41;stroke-linecap:round;stroke-linejoin:round;stroke:rgb(19.999695%,19.999695%,79.998779%);stroke-opacity:1;stroke-miterlimit:10;" d="M 151.46875 22.989688 L 151.828125 23.161563 L 152.550781 23.290469 L 153.539062 23.431094 L 154.53125 23.56 L 155.160156 23.599063 L 155.519531 23.649844 " transform="matrix(1,0,0,-1,0,179.56)"/>
<path style="fill:none;stroke-width:1.41;stroke-linecap:round;stroke-linejoin:round;stroke:rgb(19.999695%,19.999695%,79.998779%);stroke-opacity:1;stroke-miterlimit:10;" d="M 151.828125 21.411563 L 152.011719 21.231875 L 152.550781 21.270938 L 153.449219 21.450625 L 154.351562 21.540469 L 155.519531 21.540469 " transform="matrix(1,0,0,-1,0,179.56)"/>
<path style="fill:none;stroke-width:1.41;stroke-linecap:round;stroke-linejoin:round;stroke:rgb(19.999695%,19.999695%,79.998779%);stroke-opacity:1;stroke-miterlimit:10;" d="M 160.820312 22.368594 L 161.089844 22.458438 L 161.269531 22.681094 L 161.359375 23.079531 L 161.269531 23.509219 L 160.730469 23.821719 L 160.011719 23.950625 L 159.019531 23.599063 L 158.210938 22.770938 L 157.761719 21.708438 L 157.851562 20.700625 L 158.570312 20.09125 L 159.558594 20.130313 L 160.550781 20.700625 L 161.449219 21.618594 L 161.898438 22.458438 L 161.988281 21.231875 L 161.898438 18.81 L 161.808594 15.868594 L 161.898438 13.231875 L 162.078125 11.649844 L 162.429688 10.59125 L 162.878906 9.938906 L 163.328125 9.501406 L 163.960938 9.231875 L 164.320312 9.450625 L 164.679688 10.020938 L 165.039062 10.770938 L 165.398438 11.610781 L 165.578125 12.481875 L 165.578125 13.630313 L 165.398438 14.110781 L 165.128906 14.509219 L 164.679688 14.989688 L 164.140625 15.380313 L 163.601562 15.739688 L 162.96875 16.09125 L 162.519531 16.259219 L 162.078125 16.481875 L 161.71875 16.661563 L 161.539062 16.919375 L 161.808594 17.450625 L 162.429688 18.239688 L 163.328125 19.118594 L 164.050781 19.868594 L 164.5 20.31 L 164.679688 20.481875 " transform="matrix(1,0,0,-1,0,179.56)"/>
<path style="fill:none;stroke-width:1.41;stroke-linecap:round;stroke-linejoin:round;stroke:rgb(19.999695%,19.999695%,79.998779%);stroke-opacity:1;stroke-miterlimit:10;" d="M 169.078125 29.669375 L 168.898438 30.110781 L 168.359375 30.329531 L 167.828125 30.548281 L 167.199219 30.720156 L 166.929688 30.849063 L 166.660156 30.329531 L 166.660156 29.751406 L 166.75 28.919375 L 166.75 28.040469 L 166.839844 27.161563 L 166.929688 26.110781 L 167.019531 24.349063 L 167.019531 22.020938 L 167.109375 19.380313 L 167.109375 17.009219 L 167.289062 15.599063 L 167.648438 15.079531 L 168.089844 15.118594 L 168.71875 15.208438 L 169.351562 15.251406 L 169.621094 15.208438 L 169.800781 15.739688 " transform="matrix(1,0,0,-1,0,179.56)"/>
<path style="fill:none;stroke-width:1.41;stroke-linecap:round;stroke-linejoin:round;stroke:rgb(19.999695%,19.999695%,79.998779%);stroke-opacity:1;stroke-miterlimit:10;" d="M 171.960938 25.981875 L 171.78125 25.450625 L 171.78125 22.899844 L 171.871094 21.618594 L 171.871094 20.259219 L 171.960938 18.989688 L 171.960938 17.849063 L 171.871094 17.321719 " transform="matrix(1,0,0,-1,0,179.56)"/>
<path style="fill:none;stroke-width:1.41;stroke-linecap:round;stroke-linejoin:round;stroke:rgb(19.999695%,19.999695%,79.998779%);stroke-opacity:1;stroke-miterlimit:10;" d="M 171.601562 24.829531 L 171.601562 25.618594 L 171.78125 26.06 L 172.320312 26.720156 L 173.039062 27.34125 L 174.019531 27.821719 L 174.828125 28.220156 L 175.460938 28.169375 L 175.820312 28.001406 L 176.179688 27.599063 L 176.449219 27.118594 L 176.71875 26.59125 L 176.898438 26.020938 L 176.988281 25.540469 L 177.078125 25.099063 L 177.078125 24.700625 L 176.628906 24.130313 L 176 23.688906 L 175.101562 23.290469 L 174.199219 22.938906 L 173.761719 22.860781 L 174.199219 22.770938 L 174.648438 22.720156 L 175.101562 22.638125 L 175.640625 22.501406 L 176.089844 22.27875 L 176.628906 21.931094 L 177.078125 21.411563 L 177.351562 20.349063 L 177.261719 19.208438 L 176.539062 18.200625 L 175.191406 17.669375 L 173.761719 17.849063 L 172.589844 18.290469 L 171.871094 18.720156 L 171.78125 19.161563 " transform="matrix(1,0,0,-1,0,179.56)"/>
<path style="fill:none;stroke-width:1.41;stroke-linecap:round;stroke-linejoin:round;stroke:rgb(19.999695%,19.999695%,79.998779%);stroke-opacity:1;stroke-miterlimit:10;" d="M 180.941406 23.688906 L 181.480469 23.599063 L 183.550781 23.599063 L 184.539062 23.649844 L 185.078125 23.649844 " transform="matrix(1,0,0,-1,0,179.56)"/>
<path style="fill:none;stroke-width:1.41;stroke-linecap:round;stroke-linejoin:round;stroke:rgb(19.999695%,19.999695%,79.998779%);stroke-opacity:1;stroke-miterlimit:10;" d="M 180.851562 20.040469 L 181.390625 19.950625 L 182.289062 20.001406 L 183.28125 20.001406 L 184.269531 20.09125 L 184.808594 20.130313 " transform="matrix(1,0,0,-1,0,179.56)"/>
<path style="fill:none;stroke-width:1.41;stroke-linecap:round;stroke-linejoin:round;stroke:rgb(19.999695%,19.999695%,79.998779%);stroke-opacity:1;stroke-miterlimit:10;" d="M 191.808594 26.149844 L 191.808594 25.759219 L 191.269531 24.790469 L 190.46875 23.599063 L 189.480469 22.458438 L 188.851562 21.540469 L 189.03125 20.970156 L 189.570312 20.481875 L 190.46875 19.911563 L 191.269531 19.380313 L 191.808594 18.860781 L 192.171875 18.419375 L 192.351562 18.149844 L 192.441406 17.931094 " transform="matrix(1,0,0,-1,0,179.56)"/>
<path style="fill:none;stroke-width:1.41;stroke-linecap:round;stroke-linejoin:round;stroke:rgb(19.999695%,19.999695%,79.998779%);stroke-opacity:1;stroke-miterlimit:10;" d="M 194.511719 25.931094 L 194.511719 26.200625 L 194.511719 24.751406 L 194.601562 23.688906 L 194.601562 20.790469 L 194.691406 19.688906 L 194.691406 18.681094 L 194.78125 18.329531 " transform="matrix(1,0,0,-1,0,179.56)"/>
<path style="fill:none;stroke-width:1.41;stroke-linecap:round;stroke-linejoin:round;stroke:rgb(19.999695%,19.999695%,79.998779%);stroke-opacity:1;stroke-miterlimit:10;" d="M 194.691406 20.610781 L 195.050781 21.188906 L 195.859375 21.579531 L 196.929688 21.888125 L 197.921875 21.981875 L 198.640625 22.110781 L 199 22.419375 " transform="matrix(1,0,0,-1,0,179.56)"/>
<path style="fill:none;stroke-width:1.41;stroke-linecap:round;stroke-linejoin:round;stroke:rgb(19.999695%,19.999695%,79.998779%);stroke-opacity:1;stroke-miterlimit:10;" d="M 199.539062 25.888125 L 199.628906 26.411563 L 199.808594 26.110781 L 199.808594 24.790469 L 199.898438 22.860781 L 199.898438 18.419375 " transform="matrix(1,0,0,-1,0,179.56)"/>
<path style="fill:none;stroke-width:1.41;stroke-linecap:round;stroke-linejoin:round;stroke:rgb(19.999695%,19.999695%,79.998779%);stroke-opacity:1;stroke-miterlimit:10;" d="M 202.679688 27.161563 L 202.328125 27.599063 L 202.511719 27.290469 L 202.859375 26.81 L 203.578125 26.200625 L 204.390625 25.489688 L 205.199219 24.829531 L 205.648438 24.220156 L 205.558594 23.290469 L 204.929688 21.981875 L 204.121094 20.52875 L 203.398438 19.208438 L 203.039062 18.458438 " transform="matrix(1,0,0,-1,0,179.56)"/>
<path style="fill:none;stroke-width:1.41;stroke-linecap:round;stroke-linejoin:round;stroke:rgb(19.999695%,19.999695%,79.998779%);stroke-opacity:1;stroke-miterlimit:10;" d="M 207.449219 30.06 L 207.179688 30.06 L 207.628906 30.110781 L 208.078125 30.188906 L 208.519531 30.329531 L 209.148438 30.411563 L 209.601562 30.548281 L 210.140625 30.368594 L 210.410156 30.020938 L 210.589844 29.450625 L 210.5 28.700625 L 210.410156 27.731875 L 210.320312 25.981875 L 210.320312 23.599063 L 210.230469 20.751406 L 210.230469 16.31 L 210.140625 15.161563 L 209.78125 14.770938 L 209.148438 14.681094 L 208.351562 14.770938 L 207.71875 14.899844 L 207.269531 15.02875 L 207 15.298281 " transform="matrix(1,0,0,-1,0,179.56)"/>
<path style="fill:none;stroke-width:1.41;stroke-linecap:round;stroke-linejoin:round;stroke:rgb(19.999695%,19.999695%,79.998779%);stroke-opacity:1;stroke-miterlimit:10;" d="M 214.71875 18.548281 L 214.898438 18.239688 L 215.261719 17.708438 L 215.621094 16.970156 L 215.710938 16.130313 L 215.621094 15.380313 L 215.351562 14.860781 L 215.078125 14.509219 " transform="matrix(1,0,0,-1,0,179.56)"/>
<path style="fill:none;stroke-width:1.41;stroke-linecap:round;stroke-linejoin:round;stroke:rgb(19.999695%,19.999695%,79.998779%);stroke-opacity:1;stroke-miterlimit:10;" d="M 219.578125 25.759219 L 219.578125 19.118594 " transform="matrix(1,0,0,-1,0,179.56)"/>
<path style="fill:none;stroke-width:1.41;stroke-linecap:round;stroke-linejoin:round;stroke:rgb(19.999695%,19.999695%,79.998779%);stroke-opacity:1;stroke-miterlimit:10;" d="M 219.851562 25.931094 L 220.109375 26.630313 L 220.738281 27.251406 L 221.640625 27.290469 L 222.71875 26.548281 L 223.621094 25.270938 L 224.160156 23.509219 L 224.25 21.888125 L 223.710938 20.481875 L 222.71875 19.520938 L 221.640625 19.02875 L 220.648438 18.860781 L 220.019531 18.899844 L 219.929688 19.208438 " transform="matrix(1,0,0,-1,0,179.56)"/>
<path style="fill:none;stroke-width:1.41;stroke-linecap:round;stroke-linejoin:round;stroke:rgb(19.999695%,19.999695%,79.998779%);stroke-opacity:1;stroke-miterlimit:10;" d="M 227.570312 23.290469 L 227.929688 23.380313 L 230.359375 23.380313 " transform="matrix(1,0,0,-1,0,179.56)"/>
<path style="fill:none;stroke-width:1.41;stroke-linecap:round;stroke-linejoin:round;stroke:rgb(19.999695%,19.999695%,79.998779%);stroke-opacity:1;stroke-miterlimit:10;" d="M 227.480469 20.661563 L 227.570312 20.438906 L 228.199219 20.438906 L 229.011719 20.52875 L 229.820312 20.700625 L 230.269531 20.751406 L 230.539062 20.829531 " transform="matrix(1,0,0,-1,0,179.56)"/>
<path style="fill:none;stroke-width:1.41;stroke-linecap:round;stroke-linejoin:round;stroke:rgb(19.999695%,19.999695%,79.998779%);stroke-opacity:1;stroke-miterlimit:10;" d="M 238.261719 28.481875 L 238.261719 28.169375 L 237.988281 27.509219 L 237.539062 26.770938 L 237.011719 25.931094 L 236.558594 25.321719 L 235.660156 24.481875 L 234.761719 23.599063 L 233.949219 22.720156 L 233.769531 21.888125 L 234.488281 21.231875 L 235.75 20.52875 L 237.179688 19.649844 L 238.171875 18.81 L 238.800781 18.149844 L 238.980469 17.888125 " transform="matrix(1,0,0,-1,0,179.56)"/>
<path style="fill:none;stroke-width:1.41;stroke-linecap:round;stroke-linejoin:round;stroke:rgb(19.999695%,19.999695%,79.998779%);stroke-opacity:1;stroke-miterlimit:10;" d="M 240.238281 25.759219 L 240.238281 26.06 L 240.328125 25.759219 L 240.511719 24.790469 L 240.601562 23.34125 L 240.601562 19.599063 " transform="matrix(1,0,0,-1,0,179.56)"/>
<path style="fill:none;stroke-width:1.41;stroke-linecap:round;stroke-linejoin:round;stroke:rgb(19.999695%,19.999695%,79.998779%);stroke-opacity:1;stroke-miterlimit:10;" d="M 240.691406 21.931094 L 241.050781 22.419375 L 241.769531 22.770938 L 242.578125 23.079531 L 243.378906 23.208438 L 244.011719 23.380313 " transform="matrix(1,0,0,-1,0,179.56)"/>
<path style="fill:none;stroke-width:1.41;stroke-linecap:round;stroke-linejoin:round;stroke:rgb(19.999695%,19.999695%,79.998779%);stroke-opacity:1;stroke-miterlimit:10;" d="M 244.910156 26.329531 L 245 25.981875 L 245.179688 24.790469 L 245.269531 23.118594 L 245.269531 21.489688 L 245.449219 20.571719 " transform="matrix(1,0,0,-1,0,179.56)"/>
<path style="fill:none;stroke-width:1.41;stroke-linecap:round;stroke-linejoin:round;stroke:rgb(19.999695%,19.999695%,79.998779%);stroke-opacity:1;stroke-miterlimit:10;" d="M 247.878906 29.669375 L 247.699219 29.360781 L 248.148438 28.919375 L 248.769531 28.349063 L 249.578125 27.688906 L 250.660156 26.938906 L 251.558594 26.239688 L 252.28125 25.579531 L 252.460938 24.958438 L 251.921875 24.169375 L 250.929688 22.899844 L 249.851562 21.270938 L 249.039062 19.821719 L 248.511719 18.681094 L 248.328125 18.239688 L 248.769531 18.720156 " transform="matrix(1,0,0,-1,0,179.56)"/>
<path style="fill:none;stroke-width:1.41;stroke-linecap:round;stroke-linejoin:round;stroke:rgb(19.999695%,19.999695%,79.998779%);stroke-opacity:1;stroke-miterlimit:10;" d="M 251.289062 31.509219 L 251.921875 31.56 L 252.640625 31.599063 L 253.539062 31.638125 L 254.171875 31.731875 L 254.609375 31.731875 L 254.699219 31.380313 L 254.878906 30.720156 L 254.96875 29.450625 L 255.058594 28.040469 L 255.148438 26.59125 L 255.148438 20.481875 L 255.058594 18.720156 L 254.878906 17.009219 L 254.789062 15.77875 L 254.519531 15.079531 L 254.078125 14.860781 L 253.539062 14.770938 L 253 14.770938 L 252.640625 14.860781 L 252.371094 14.860781 " transform="matrix(1,0,0,-1,0,179.56)"/>
<path style="fill:none;stroke-width:1.41;stroke-linecap:round;stroke-linejoin:round;stroke:rgb(19.999695%,19.999695%,79.998779%);stroke-opacity:1;stroke-miterlimit:10;" d="M 259.199219 25.138125 L 259.289062 25.360781 L 259.558594 25.360781 L 259.828125 25.099063 L 260.011719 24.751406 L 259.738281 24.481875 L 259.46875 24.481875 L 259.199219 24.880313 L 259.199219 25.231875 L 259.46875 25.360781 L 259.738281 25.138125 L 259.828125 24.751406 L 259.738281 24.388125 L 259.558594 24.220156 " transform="matrix(1,0,0,-1,0,179.56)"/>
<path style="fill:none;stroke-width:1.41;stroke-linecap:round;stroke-linejoin:round;stroke:rgb(19.999695%,19.999695%,79.998779%);stroke-opacity:1;stroke-miterlimit:10;" d="M 260.179688 18.329531 L 259.921875 18.419375 L 260.011719 18.638125 L 260.011719 18.938906 L 260.269531 18.770938 L 260.269531 18.200625 L 260.011719 18.020938 L 259.738281 18.239688 L 259.648438 18.501406 L 259.738281 18.81 L 260.011719 18.938906 L 260.269531 18.860781 L 260.449219 18.681094 L 260.269531 18.419375 L 260.011719 18.501406 " transform="matrix(1,0,0,-1,0,179.56)"/>
<path style="fill:none;stroke-width:1.41;stroke-linecap:round;stroke-linejoin:round;stroke:rgb(19.999695%,19.999695%,79.998779%);stroke-opacity:1;stroke-miterlimit:10;" d="M 264.589844 26.938906 L 264.769531 26.110781 L 264.769531 24.700625 L 264.679688 22.860781 L 264.679688 17.888125 " transform="matrix(1,0,0,-1,0,179.56)"/>
<path style="fill:none;stroke-width:1.41;stroke-linecap:round;stroke-linejoin:round;stroke:rgb(19.999695%,19.999695%,79.998779%);stroke-opacity:1;stroke-miterlimit:10;" d="M 265.21875 27.161563 L 265.398438 27.431094 L 266.109375 27.599063 L 267.011719 27.599063 L 268.089844 27.380313 L 269.171875 26.630313 L 269.980469 25.540469 L 270.519531 24.259219 L 270.789062 22.860781 L 270.878906 21.708438 L 270.699219 20.661563 L 270.25 19.599063 L 269.621094 18.81 L 268.808594 18.149844 L 267.910156 17.759219 L 267.191406 17.540469 L 266.648438 17.489688 L 266.109375 17.450625 L 265.671875 17.540469 " transform="matrix(1,0,0,-1,0,179.56)"/>
<path style="fill:none;stroke-width:1.41;stroke-linecap:round;stroke-linejoin:round;stroke:rgb(19.999695%,19.999695%,79.998779%);stroke-opacity:1;stroke-miterlimit:10;" d="M 52.199219 128.27875 L 52.828125 128.020938 L 53.359375 127.880313 L 54.078125 127.661563 L 54.710938 127.360781 L 55.160156 127.138125 L 55.609375 126.829531 L 56.058594 126.610781 L 56.421875 126.349063 L 56.78125 126.169375 L 57.140625 126.298281 L 57.589844 126.919375 L 58.128906 128.020938 L 58.761719 129.509219 L 59.289062 130.739688 L 59.648438 131.661563 L 59.828125 132.239688 L 59.921875 132.501406 " transform="matrix(1,0,0,-1,0,179.56)"/>
<path style="fill:none;stroke-width:1.41;stroke-linecap:round;stroke-linejoin:round;stroke:rgb(19.999695%,19.999695%,79.998779%);stroke-opacity:1;stroke-miterlimit:10;" d="M 57.859375 127.360781 L 57.320312 127.52875 L 56.960938 127.798281 L 56.328125 128.321719 L 55.699219 129.200625 L 55.070312 130.298281 L 54.53125 131.798281 L 54.171875 133.731875 L 53.988281 135.790469 L 53.988281 137.899844 L 54.441406 140.06 L 55.25 141.950625 L 56.328125 143.661563 L 57.769531 145.419375 L 59.378906 146.958438 L 61.089844 148.450625 L 62.710938 149.638125 L 63.699219 150.431094 L 64.328125 150.868594 L 64.769531 151.001406 L 65.039062 150.958438 " transform="matrix(1,0,0,-1,0,179.56)"/>
<path style="fill:none;stroke-width:1.41;stroke-linecap:round;stroke-linejoin:round;stroke:rgb(19.999695%,19.999695%,79.998779%);stroke-opacity:1;stroke-miterlimit:10;" d="M 77.351562 161.110781 L 76.988281 161.720156 L 76.449219 162.290469 L 75.738281 162.599063 L 74.839844 162.509219 L 74.03125 161.989688 L 73.398438 161.110781 L 73.128906 159.958438 L 73.488281 159.040469 L 74.300781 158.509219 L 75.648438 158.509219 L 76.71875 158.950625 L 77.621094 159.661563 L 77.980469 160.270938 L 77.441406 159.52875 L 76.988281 157.81 L 76.71875 155.349063 L 76.539062 153.200625 L 76.628906 151.571719 L 76.71875 150.649844 L 76.988281 150.34125 L 77.800781 150.118594 L 78.609375 149.989688 L 79.511719 149.989688 L 80.410156 150.118594 L 80.769531 150.380313 L 81.128906 150.649844 L 81.398438 150.958438 L 81.488281 151.349063 L 81.21875 151.970156 L 80.589844 152.540469 L 79.78125 153.020938 L 78.96875 153.501406 L 78.878906 153.938906 L 79.328125 154.56 L 80.320312 155.388125 L 81.398438 156.188906 L 82.019531 156.759219 L 82.378906 157.149844 " transform="matrix(1,0,0,-1,0,179.56)"/>
<path style="fill:none;stroke-width:1.41;stroke-linecap:round;stroke-linejoin:round;stroke:rgb(19.999695%,19.999695%,79.998779%);stroke-opacity:1;stroke-miterlimit:10;" d="M 88.398438 166.731875 L 88.308594 167.001406 L 87.859375 167.169375 L 87.238281 167.259219 L 86.339844 167.259219 L 85.441406 167.040469 L 84.898438 166.419375 L 84.628906 164.888125 L 84.628906 162.470156 L 84.808594 159.481875 L 84.898438 156.489688 L 85.078125 154.470156 L 85.351562 153.329531 L 85.980469 152.888125 L 86.878906 152.798281 L 87.679688 152.708438 L 88.21875 152.759219 L 88.488281 152.798281 L 88.578125 153.020938 " transform="matrix(1,0,0,-1,0,179.56)"/>
<path style="fill:none;stroke-width:1.41;stroke-linecap:round;stroke-linejoin:round;stroke:rgb(19.999695%,19.999695%,79.998779%);stroke-opacity:1;stroke-miterlimit:10;" d="M 91.011719 161.458438 L 90.828125 160.888125 L 90.648438 159.661563 L 90.648438 156.759219 L 90.558594 155.919375 L 90.558594 155.571719 " transform="matrix(1,0,0,-1,0,179.56)"/>
<path style="fill:none;stroke-width:1.41;stroke-linecap:round;stroke-linejoin:round;stroke:rgb(19.999695%,19.999695%,79.998779%);stroke-opacity:1;stroke-miterlimit:10;" d="M 90.199219 158.821719 L 90.199219 159.919375 L 90.738281 161.458438 L 91.640625 162.821719 L 92.808594 163.700625 L 93.96875 164.099063 L 94.691406 163.481875 L 95.050781 162.731875 L 94.960938 161.938906 L 94.421875 160.981875 L 93.519531 160.270938 L 92.628906 159.700625 L 92.089844 159.349063 L 92.449219 159.259219 L 93.261719 159.169375 L 94.238281 159.001406 L 95.230469 158.079531 L 95.769531 157.149844 L 96.128906 156.231875 L 96.21875 155.388125 L 95.949219 155.040469 L 95.5 154.77875 L 95.050781 154.470156 L 94.421875 154.208438 L 93.351562 154.079531 L 92.359375 154.079531 L 91.371094 154.298281 L 90.558594 154.739688 L 90.828125 155.438906 " transform="matrix(1,0,0,-1,0,179.56)"/>
<path style="fill:none;stroke-width:1.41;stroke-linecap:round;stroke-linejoin:round;stroke:rgb(19.999695%,19.999695%,79.998779%);stroke-opacity:1;stroke-miterlimit:10;" d="M 99.988281 159.700625 L 99.71875 159.790469 L 99.988281 159.919375 L 100.351562 159.958438 L 100.980469 160.009219 L 101.789062 160.009219 L 102.328125 160.048281 L 102.78125 160.099063 L 103.140625 160.099063 " transform="matrix(1,0,0,-1,0,179.56)"/>
<path style="fill:none;stroke-width:1.41;stroke-linecap:round;stroke-linejoin:round;stroke:rgb(19.999695%,19.999695%,79.998779%);stroke-opacity:1;stroke-miterlimit:10;" d="M 100.171875 157.548281 L 99.898438 157.27875 L 100.171875 157.110781 L 100.890625 157.06 L 102.058594 157.06 L 102.960938 157.110781 L 103.949219 157.110781 " transform="matrix(1,0,0,-1,0,179.56)"/>
<path style="fill:none;stroke-width:1.41;stroke-linecap:round;stroke-linejoin:round;stroke:rgb(19.999695%,19.999695%,79.998779%);stroke-opacity:1;stroke-miterlimit:10;" d="M 111.578125 163.349063 L 111.671875 163.571719 L 111.398438 163.130313 L 110.859375 162.470156 L 110.148438 161.630313 L 109.25 160.759219 L 108.710938 160.231875 L 107.988281 159.610781 L 107.359375 159.040469 L 106.910156 158.470156 L 106.910156 157.770938 L 107.628906 157.06 L 108.621094 156.270938 L 109.699219 155.481875 L 110.421875 154.911563 L 110.769531 154.649844 " transform="matrix(1,0,0,-1,0,179.56)"/>
<path style="fill:none;stroke-width:1.41;stroke-linecap:round;stroke-linejoin:round;stroke:rgb(19.999695%,19.999695%,79.998779%);stroke-opacity:1;stroke-miterlimit:10;" d="M 113.828125 162.34125 L 113.828125 162.950625 L 113.921875 161.849063 L 113.921875 160.231875 L 113.828125 158.509219 L 113.738281 157.110781 L 113.558594 156.618594 L 113.46875 157.149844 L 113.558594 157.770938 L 114.011719 158.380313 L 114.820312 159.001406 L 115.988281 159.52875 L 117.058594 159.790469 L 117.960938 160.009219 L 118.589844 160.540469 " transform="matrix(1,0,0,-1,0,179.56)"/>
<path style="fill:none;stroke-width:1.41;stroke-linecap:round;stroke-linejoin:round;stroke:rgb(19.999695%,19.999695%,79.998779%);stroke-opacity:1;stroke-miterlimit:10;" d="M 119.128906 163.001406 L 119.308594 162.208438 L 119.398438 160.618594 L 119.488281 158.821719 L 119.578125 157.419375 L 119.578125 156.618594 L 119.851562 156.540469 " transform="matrix(1,0,0,-1,0,179.56)"/>
<path style="fill:none;stroke-width:1.41;stroke-linecap:round;stroke-linejoin:round;stroke:rgb(19.999695%,19.999695%,79.998779%);stroke-opacity:1;stroke-miterlimit:10;" d="M 122.71875 163.700625 L 122.449219 164.138125 L 122.628906 163.919375 L 123.171875 163.349063 L 123.890625 162.688906 L 124.878906 161.938906 L 125.511719 161.501406 L 125.78125 160.981875 L 125.328125 159.919375 L 124.519531 158.56 L 123.621094 157.110781 L 122.988281 155.970156 L 122.628906 155.52875 " transform="matrix(1,0,0,-1,0,179.56)"/>
<path style="fill:none;stroke-width:1.41;stroke-linecap:round;stroke-linejoin:round;stroke:rgb(19.999695%,19.999695%,79.998779%);stroke-opacity:1;stroke-miterlimit:10;" d="M 126.320312 167.169375 L 126.050781 167.259219 L 126.859375 167.481875 L 127.851562 167.700625 L 129.011719 167.829531 L 130.089844 168.009219 L 130.71875 167.739688 L 130.808594 167.001406 L 130.71875 166.02875 L 130.628906 164.84125 L 130.449219 163.700625 L 130.359375 162.649844 L 130.269531 161.06 L 130.179688 159.09125 L 130.179688 155.349063 L 130.089844 154.298281 L 129.820312 153.860781 L 129.371094 153.81 L 128.738281 153.860781 L 128.199219 154.079531 L 128.019531 154.298281 " transform="matrix(1,0,0,-1,0,179.56)"/>
<path style="fill:none;stroke-width:1.41;stroke-linecap:round;stroke-linejoin:round;stroke:rgb(19.999695%,19.999695%,79.998779%);stroke-opacity:1;stroke-miterlimit:10;" d="M 134.578125 162.599063 L 134.398438 162.821719 L 134.671875 162.731875 L 134.761719 162.470156 L 134.488281 162.34125 L 134.21875 162.431094 L 134.128906 162.649844 L 134.21875 162.950625 L 134.488281 163.040469 L 134.761719 163.040469 L 135.03125 162.950625 L 135.300781 162.649844 " transform="matrix(1,0,0,-1,0,179.56)"/>
<path style="fill:none;stroke-width:1.41;stroke-linecap:round;stroke-linejoin:round;stroke:rgb(19.999695%,19.999695%,79.998779%);stroke-opacity:1;stroke-miterlimit:10;" d="M 134.941406 157.81 L 134.671875 157.938906 L 135.121094 157.938906 L 135.300781 157.638125 L 135.300781 157.27875 L 135.121094 156.981875 L 134.851562 157.110781 L 134.578125 157.368594 L 134.851562 157.899844 " transform="matrix(1,0,0,-1,0,179.56)"/>
<path style="fill:none;stroke-width:1.41;stroke-linecap:round;stroke-linejoin:round;stroke:rgb(19.999695%,19.999695%,79.998779%);stroke-opacity:1;stroke-miterlimit:10;" d="M 139.878906 165.411563 L 139.789062 165.630313 L 139.699219 165.188906 L 139.699219 164.669375 L 139.519531 162.821719 L 139.351562 160.981875 L 139.171875 159.130313 L 139.078125 157.548281 " transform="matrix(1,0,0,-1,0,179.56)"/>
<path style="fill:none;stroke-width:1.41;stroke-linecap:round;stroke-linejoin:round;stroke:rgb(19.999695%,19.999695%,79.998779%);stroke-opacity:1;stroke-miterlimit:10;" d="M 139.429688 159.829531 L 139.878906 160.360781 L 140.78125 160.669375 L 142.039062 160.931094 L 143.210938 161.110781 L 143.929688 161.200625 L 144.289062 161.27875 " transform="matrix(1,0,0,-1,0,179.56)"/>
<path style="fill:none;stroke-width:1.41;stroke-linecap:round;stroke-linejoin:round;stroke:rgb(19.999695%,19.999695%,79.998779%);stroke-opacity:1;stroke-miterlimit:10;" d="M 145.449219 166.56 L 145.71875 165.188906 L 145.898438 162.821719 L 146.078125 160.138125 L 146.171875 157.899844 L 146.441406 156.411563 L 146.710938 156.048281 " transform="matrix(1,0,0,-1,0,179.56)"/>
<path style="fill:none;stroke-width:2.26;stroke-linecap:round;stroke-linejoin:round;stroke:rgb(100%,0%,0%);stroke-opacity:1;stroke-miterlimit:10;" d="M 25.421875 90.048281 L 25.691406 90.220156 L 26.050781 90.181094 L 26.769531 90.138125 L 27.671875 90.09125 L 28.75 90.138125 L 29.828125 90.220156 L 30.898438 90.270938 L 31.980469 90.360781 L 33.148438 90.360781 L 34.410156 90.438906 L 35.671875 90.579531 L 36.921875 90.708438 L 38.179688 90.931094 L 39.351562 91.231875 L 40.609375 91.720156 L 41.859375 92.380313 L 42.941406 93.040469 L 43.929688 93.868594 L 45.101562 95.009219 L 46.359375 96.329531 L 47.609375 97.688906 L 48.691406 99.009219 L 49.230469 100.071719 L 49.589844 100.950625 L 49.769531 101.911563 L 49.949219 103.009219 L 50.308594 104.200625 L 50.578125 105.380313 L 51.121094 106.880313 L 51.929688 108.368594 L 52.738281 109.821719 L 53.539062 111.099063 L 54.441406 112.110781 L 55.519531 113.079531 L 56.871094 114.169375 L 58.308594 115.138125 L 59.558594 115.84125 L 60.640625 116.329531 L 61.628906 116.630313 L 62.800781 116.938906 L 64.148438 117.34125 L 65.308594 117.599063 L 66.300781 117.77875 L 67.019531 117.821719 L 67.378906 117.821719 L 67.921875 117.77875 L 68.550781 117.731875 L 69.089844 117.688906 L 69.71875 117.649844 L 70.261719 117.599063 L 70.699219 117.599063 L 71.148438 117.688906 L 71.421875 117.731875 L 71.960938 117.731875 " transform="matrix(1,0,0,-1,0,179.56)"/>
<path style="fill:none;stroke-width:2.26;stroke-linecap:round;stroke-linejoin:round;stroke:rgb(100%,0%,0%);stroke-opacity:1;stroke-miterlimit:10;" d="M 39.261719 91.630313 L 39.53125 91.321719 L 39.890625 91.188906 L 40.429688 90.84125 L 41.148438 90.438906 L 41.769531 90.001406 L 42.488281 89.610781 L 43.210938 89.259219 L 43.839844 88.989688 L 44.558594 88.638125 L 45.28125 88.251406 L 45.820312 87.849063 L 46.539062 87.099063 L 47.078125 86.438906 L 47.609375 85.610781 L 48.328125 84.638125 L 48.78125 83.938906 L 49.230469 83.149844 L 49.589844 82.360781 L 49.859375 81.700625 L 50.128906 80.950625 L 50.488281 80.290469 L 50.761719 79.720156 L 51.121094 79.020938 L 51.480469 78.138125 L 51.929688 77.298281 L 52.289062 76.509219 L 52.921875 75.770938 L 53.359375 75.188906 L 54.078125 74.579531 L 54.980469 74.009219 L 56.058594 73.438906 L 57.320312 72.821719 L 58.761719 72.251406 L 60.101562 71.770938 L 61.539062 71.329531 L 63.25 70.931094 L 64.859375 70.579531 L 66.480469 70.321719 L 68.28125 70.009219 L 69.898438 69.829531 L 71.511719 69.661563 L 73.488281 69.571719 L 75.378906 69.571719 L 77.53125 69.610781 L 79.78125 69.790469 L 82.109375 69.919375 L 84.449219 70.009219 L 86.699219 70.048281 L 89.121094 70.099063 L 91.28125 70.181094 L 93.429688 70.231875 L 95.589844 70.231875 L 97.480469 70.138125 L 99.539062 70.009219 L 101.878906 69.958438 L 104.398438 70.048281 L 107.089844 70.181094 L 110.058594 70.321719 L 112.839844 70.450625 L 115.539062 70.489688 L 118.230469 70.540469 L 123.261719 70.540469 L 125.960938 70.618594 L 128.46875 70.708438 L 130.808594 70.759219 L 135.121094 70.759219 L 137.101562 70.798281 L 139.351562 70.84125 L 141.5 70.981875 L 143.570312 71.110781 L 145.71875 71.239688 L 147.699219 71.368594 L 149.679688 71.501406 L 151.648438 71.630313 L 153.179688 71.770938 L 154.351562 71.849063 L 155.429688 71.938906 L 156.148438 72.02875 L 156.949219 72.071719 L 157.761719 72.161563 L 158.480469 72.251406 L 159.109375 72.290469 L 159.738281 72.431094 L 160.28125 72.509219 L 160.730469 72.599063 L 161.179688 72.649844 L 161.539062 72.731875 L 161.898438 72.77875 L 162.171875 72.821719 L 162.789062 72.821719 L 163.238281 72.77875 L 163.511719 72.649844 L 163.511719 73.169375 " transform="matrix(1,0,0,-1,0,179.56)"/>
<path style="fill:none;stroke-width:2.26;stroke-linecap:round;stroke-linejoin:round;stroke:rgb(100%,0%,0%);stroke-opacity:1;stroke-miterlimit:10;" d="M 76.808594 123.399844 L 76.898438 123.181094 L 76.628906 123.009219 L 76.011719 122.571719 L 75.558594 122.220156 L 75.109375 121.77875 L 74.75 121.290469 L 74.480469 120.849063 L 74.210938 120.411563 L 73.941406 119.888125 L 73.671875 119.450625 L 73.398438 118.880313 L 73.21875 118.349063 L 73.039062 117.868594 L 72.949219 117.380313 L 72.949219 116.548281 L 73.039062 116.020938 L 73.039062 115.540469 L 73.128906 115.099063 L 73.21875 114.661563 L 73.308594 114.259219 L 73.398438 113.911563 L 73.671875 113.470156 L 73.941406 113.02875 L 74.210938 112.548281 L 74.570312 112.020938 L 74.75 111.618594 L 75.019531 111.138125 L 75.289062 110.700625 L 75.648438 110.31 L 76.011719 109.821719 L 76.449219 109.380313 L 76.898438 108.989688 L 77.441406 108.638125 L 77.980469 108.368594 L 78.429688 108.200625 L 78.96875 108.071719 L 79.511719 107.931094 L 80.140625 107.849063 L 80.679688 107.708438 L 81.21875 107.540469 L 81.578125 107.411563 L 81.929688 107.270938 L 82.199219 107.188906 L 82.558594 107.138125 L 82.921875 107.138125 L 83.371094 107.231875 L 84.269531 107.669375 L 84.71875 107.981875 L 85.078125 108.149844 L 85.351562 108.290469 L 85.800781 108.419375 L 86.25 108.501406 L 86.609375 108.681094 L 86.96875 108.899844 L 87.238281 109.161563 L 87.511719 109.470156 L 87.859375 109.739688 L 88.128906 110.09125 L 88.398438 110.481875 L 88.671875 110.880313 L 88.941406 111.270938 L 89.300781 111.888125 L 89.390625 112.27875 L 89.570312 112.770938 L 89.839844 113.251406 L 90.019531 113.821719 L 90.199219 114.349063 L 90.378906 114.751406 L 90.558594 115.231875 L 90.558594 115.759219 L 90.648438 116.149844 L 90.648438 116.548281 L 90.558594 116.938906 L 90.46875 117.34125 L 90.378906 117.821719 L 90.289062 118.388125 L 90.109375 118.919375 L 90.019531 119.399844 L 89.839844 119.931094 L 89.75 120.411563 L 89.570312 120.849063 L 89.390625 121.290469 L 89.300781 121.688906 L 89.121094 122.040469 L 88.851562 122.388125 L 88.671875 122.790469 L 88.398438 123.231875 L 88.039062 123.708438 L 87.679688 124.188906 L 87.328125 124.630313 L 86.878906 124.981875 L 86.429688 125.200625 L 85.890625 125.380313 L 85.261719 125.470156 L 84.71875 125.509219 L 84.179688 125.599063 L 83.550781 125.599063 L 83.101562 125.56 L 82.648438 125.509219 L 82.199219 125.380313 L 81.761719 125.290469 L 81.308594 125.200625 L 80.859375 125.071719 L 80.320312 124.938906 L 79.871094 124.759219 L 79.328125 124.501406 L 78.878906 124.188906 L 78.609375 123.970156 L 78.339844 123.669375 " transform="matrix(1,0,0,-1,0,179.56)"/>
<path style="fill:none;stroke-width:2.26;stroke-linecap:round;stroke-linejoin:round;stroke:rgb(100%,0%,0%);stroke-opacity:1;stroke-miterlimit:10;" d="M 168.269531 79.329531 L 168.089844 79.020938 L 167.828125 78.751406 L 167.648438 78.489688 L 167.378906 78.138125 L 167.109375 77.700625 L 166.660156 77.169375 L 166.210938 76.599063 L 165.671875 75.989688 L 165.21875 75.458438 L 164.859375 74.888125 L 164.589844 74.231875 L 164.410156 73.661563 L 164.230469 72.950625 L 164.140625 72.161563 L 164.140625 70.181094 L 164.230469 69.661563 L 164.410156 69.09125 L 164.589844 68.509219 L 164.859375 68.079531 L 165.128906 67.59125 L 165.488281 67.110781 L 166.03125 66.618594 L 166.480469 66.188906 L 166.929688 65.751406 L 167.378906 65.349063 L 167.828125 65.001406 L 168.359375 64.649844 L 168.988281 64.298281 L 169.621094 63.938906 L 170.160156 63.720156 L 170.878906 63.458438 L 171.691406 63.290469 L 172.320312 63.149844 L 173.039062 63.071719 L 173.851562 63.071719 L 174.648438 63.110781 L 175.550781 63.329531 L 176.539062 63.501406 L 177.351562 63.720156 L 178.160156 63.938906 L 178.878906 64.161563 L 179.511719 64.470156 L 180.128906 64.868594 L 180.761719 65.31 L 181.121094 65.700625 L 181.480469 66.188906 L 181.839844 66.669375 L 182.019531 67.200625 L 182.289062 67.681094 L 182.46875 68.161563 L 182.558594 68.599063 L 182.738281 69.130313 L 182.828125 69.829531 L 182.921875 70.489688 L 182.921875 73.349063 L 182.828125 74.048281 L 182.738281 74.669375 L 182.558594 75.329531 L 182.289062 75.989688 L 182.109375 76.599063 L 181.75 77.388125 L 181.480469 78.009219 L 181.300781 78.489688 L 181.03125 78.888125 L 180.761719 79.188906 L 180.488281 79.540469 L 180.039062 79.899844 L 179.511719 80.290469 L 178.789062 80.731875 L 177.890625 81.169375 L 176.988281 81.388125 L 176.179688 81.610781 L 175.460938 81.649844 L 174.738281 81.610781 L 174.019531 81.520938 L 173.398438 81.388125 L 172.769531 81.208438 L 172.140625 81.040469 L 171.78125 80.950625 L 171.238281 80.821719 L 170.789062 80.821719 L 170.429688 80.77875 L 169.980469 80.731875 L 169.710938 80.638125 L 169.351562 80.470156 L 169.078125 80.290469 L 168.71875 80.071719 " transform="matrix(1,0,0,-1,0,179.56)"/>
</g>
</svg>
