<?xml version="1.0" encoding="UTF-8"?>
<svg xmlns="http://www.w3.org/2000/svg" xmlns:xlink="http://www.w3.org/1999/xlink" width="283.1875pt" height="179.560547pt" viewBox="0 0 283.1875 179.560547" version="1.1">
<g id="surface1">
<path style="fill:none;stroke-width:2.26;stroke-linecap:round;stroke-linejoin:round;stroke:rgb(0%,0%,0%);stroke-opacity:1;stroke-miterlimit:10;" d="M 158.371094 134.759766 L 158.414062 128.806641 L 158.460938 122.84961 " transform="matrix(1,0,0,-1,0,179.560547)"/>
<path style="fill:none;stroke-width:2.26;stroke-linecap:round;stroke-linejoin:round;stroke:rgb(0%,0%,0%);stroke-opacity:1;stroke-miterlimit:10;" d="M 158.460938 122.763672 L 164.929688 122.63086 " transform="matrix(1,0,0,-1,0,179.560547)"/>
<path style="fill:none;stroke-width:2.26;stroke-linecap:round;stroke-linejoin:round;stroke:rgb(0%,0%,0%);stroke-opacity:1;stroke-miterlimit:10;" d="M 165.019531 122.544922 L 164.960938 116.052735 L 164.898438 109.564453 L 164.839844 103.076172 " transform="matrix(1,0,0,-1,0,179.560547)"/>
<path style="fill:none;stroke-width:2.26;stroke-linecap:round;stroke-linejoin:round;stroke:rgb(0%,0%,0%);stroke-opacity:1;stroke-miterlimit:10;" d="M 164.839844 103.076172 L 158.820312 103.337891 " transform="matrix(1,0,0,-1,0,179.560547)"/>
<path style="fill:none;stroke-width:2.26;stroke-linecap:round;stroke-linejoin:round;stroke:rgb(0%,0%,0%);stroke-opacity:1;stroke-miterlimit:10;" d="M 159.089844 103.251953 L 159.359375 84.267578 " transform="matrix(1,0,0,-1,0,179.560547)"/>
<path style="fill:none;stroke-width:2.26;stroke-linecap:round;stroke-linejoin:round;stroke:rgb(0%,0%,0%);stroke-opacity:1;stroke-miterlimit:10;" d="M 159.359375 83.69336 L 165.738281 83.740235 " transform="matrix(1,0,0,-1,0,179.560547)"/>
<path style="fill:none;stroke-width:2.26;stroke-linecap:round;stroke-linejoin:round;stroke:rgb(0%,0%,0%);stroke-opacity:1;stroke-miterlimit:10;" d="M 165.648438 83.69336 L 165.421875 73.060547 L 165.3125 67.744141 L 165.199219 62.427735 " transform="matrix(1,0,0,-1,0,179.560547)"/>
<path style="fill:none;stroke-width:2.26;stroke-linecap:round;stroke-linejoin:round;stroke:rgb(0%,0%,0%);stroke-opacity:1;stroke-miterlimit:10;" d="M 165.019531 62.076172 L 159.71875 62.16211 " transform="matrix(1,0,0,-1,0,179.560547)"/>
<path style="fill:none;stroke-width:2.26;stroke-linecap:round;stroke-linejoin:round;stroke:rgb(0%,0%,0%);stroke-opacity:1;stroke-miterlimit:10;" d="M 159.269531 62.119141 L 159.210938 56.28711 L 159.148438 50.458985 L 159.089844 44.626953 " transform="matrix(1,0,0,-1,0,179.560547)"/>
<path style="fill:none;stroke-width:2.26;stroke-linecap:round;stroke-linejoin:round;stroke:rgb(0%,0%,0%);stroke-opacity:1;stroke-miterlimit:10;" d="M 159.988281 44.189453 L 170.441406 44.220703 L 175.671875 44.236328 L 201.804688 44.314453 L 207.035156 44.333985 L 217.488281 44.365235 " transform="matrix(1,0,0,-1,0,179.560547)"/>
<path style="fill:none;stroke-width:2.26;stroke-linecap:round;stroke-linejoin:round;stroke:rgb(0%,0%,0%);stroke-opacity:1;stroke-miterlimit:10;" d="M 217.21875 44.498047 L 217.199219 49.509766 L 217.160156 59.541016 L 217.140625 64.552735 L 217.117188 69.56836 L 217.058594 84.615235 L 217.039062 89.626953 L 217 99.658203 L 216.980469 104.669922 L 216.960938 109.685547 L 216.9375 114.701172 L 216.898438 124.732422 L 216.878906 129.744141 L 216.859375 134.759766 " transform="matrix(1,0,0,-1,0,179.560547)"/>
<path style="fill:none;stroke-width:2.26;stroke-linecap:round;stroke-linejoin:round;stroke:rgb(0%,0%,0%);stroke-opacity:1;stroke-miterlimit:10;" d="M 216.230469 134.541016 L 211.003906 134.654297 L 205.777344 134.771485 L 200.546875 134.888672 L 195.320312 135.001953 L 184.867188 135.236328 L 179.640625 135.34961 L 174.414062 135.466797 L 169.183594 135.583985 L 163.957031 135.697266 L 158.730469 135.814453 " transform="matrix(1,0,0,-1,0,179.560547)"/>
<path style="fill:none;stroke-width:2.26;stroke-linecap:round;stroke-linejoin:round;stroke:rgb(0%,0%,0%);stroke-opacity:1;stroke-miterlimit:10;" d="M 69.066406 135.681641 L 68.617188 125.927735 " transform="matrix(1,0,0,-1,0,179.560547)"/>
<path style="fill:none;stroke-width:2.26;stroke-linecap:round;stroke-linejoin:round;stroke:rgb(0%,0%,0%);stroke-opacity:1;stroke-miterlimit:10;" d="M 67.269531 105.361328 L 67.179688 95.603516 " transform="matrix(1,0,0,-1,0,179.560547)"/>
<path style="fill:none;stroke-width:2.26;stroke-linecap:round;stroke-linejoin:round;stroke:rgb(0%,0%,0%);stroke-opacity:1;stroke-miterlimit:10;" d="M 67.269531 95.603516 L 72.4375 95.521485 L 77.601562 95.435547 L 82.769531 95.353516 L 87.933594 95.271485 L 93.101562 95.185547 L 98.265625 95.103516 L 103.433594 95.021485 L 108.597656 94.935547 L 113.765625 94.853516 L 118.929688 94.771485 " transform="matrix(1,0,0,-1,0,179.560547)"/>
<path style="fill:none;stroke-width:2.26;stroke-linecap:round;stroke-linejoin:round;stroke:rgb(0%,0%,0%);stroke-opacity:1;stroke-miterlimit:10;" d="M 119.019531 95.123047 L 119.378906 102.591797 " transform="matrix(1,0,0,-1,0,179.560547)"/>
<path style="fill:none;stroke-width:2.26;stroke-linecap:round;stroke-linejoin:round;stroke:rgb(0%,0%,0%);stroke-opacity:1;stroke-miterlimit:10;" d="M 116.863281 126.365235 L 116.863281 135.06836 " transform="matrix(1,0,0,-1,0,179.560547)"/>
<path style="fill:none;stroke-width:2.26;stroke-linecap:round;stroke-linejoin:round;stroke:rgb(0%,0%,0%);stroke-opacity:1;stroke-miterlimit:10;" d="M 117.042969 135.021485 L 106.519531 135.09961 L 101.261719 135.138672 L 85.476562 135.25586 L 80.21875 135.294922 L 69.695312 135.373047 " transform="matrix(1,0,0,-1,0,179.560547)"/>
<path style="fill:none;stroke-width:2.26;stroke-linecap:round;stroke-linejoin:round;stroke:rgb(0%,0%,0%);stroke-opacity:1;stroke-miterlimit:10;" d="M 68.527344 125.619141 L 74.726562 125.619141 " transform="matrix(1,0,0,-1,0,179.560547)"/>
<path style="fill:none;stroke-width:2.26;stroke-linecap:round;stroke-linejoin:round;stroke:rgb(0%,0%,0%);stroke-opacity:1;stroke-miterlimit:10;" d="M 74.546875 125.177735 L 74.488281 118.689453 L 74.425781 112.201172 L 74.367188 105.712891 " transform="matrix(1,0,0,-1,0,179.560547)"/>
<path style="fill:none;stroke-width:2.26;stroke-linecap:round;stroke-linejoin:round;stroke:rgb(0%,0%,0%);stroke-opacity:1;stroke-miterlimit:10;" d="M 74.367188 105.841797 L 67.449219 106.107422 " transform="matrix(1,0,0,-1,0,179.560547)"/>
<path style="fill:none;stroke-width:2.26;stroke-linecap:round;stroke-linejoin:round;stroke:rgb(0%,0%,0%);stroke-opacity:1;stroke-miterlimit:10;" d="M 118.300781 126.716797 L 122.972656 126.279297 " transform="matrix(1,0,0,-1,0,179.560547)"/>
<path style="fill:none;stroke-width:2.26;stroke-linecap:round;stroke-linejoin:round;stroke:rgb(0%,0%,0%);stroke-opacity:1;stroke-miterlimit:10;" d="M 123.511719 126.279297 L 124.230469 104.482422 " transform="matrix(1,0,0,-1,0,179.560547)"/>
<path style="fill:none;stroke-width:2.26;stroke-linecap:round;stroke-linejoin:round;stroke:rgb(0%,0%,0%);stroke-opacity:1;stroke-miterlimit:10;" d="M 124.410156 104.34961 L 119.199219 103.689453 " transform="matrix(1,0,0,-1,0,179.560547)"/>
<path style="fill:none;stroke-width:2.26;stroke-linecap:round;stroke-linejoin:round;stroke:rgb(0%,0%,0%);stroke-opacity:1;stroke-miterlimit:10;" d="M 124.230469 115.38086 L 141.09375 115.041016 L 146.71875 114.927735 L 163.582031 114.587891 " transform="matrix(1,0,0,-1,0,179.560547)"/>
<path style="fill:none;stroke-width:1.41;stroke-linecap:round;stroke-linejoin:round;stroke:rgb(0%,0%,0%);stroke-opacity:1;stroke-miterlimit:10;" d="M 168.074219 108.78711 L 168.253906 109.447266 L 168.523438 110.591797 L 169.152344 112.34961 L 169.78125 114.236328 L 170.5 116.083985 L 171.308594 117.666016 L 171.757812 118.63086 L 172.117188 119.158203 L 172.296875 119.38086 L 172.65625 119.201172 L 173.015625 118.455078 L 173.464844 117.138672 L 173.914062 115.248047 L 174.542969 112.962891 L 174.992188 111.072266 L 175.351562 109.623047 L 175.621094 108.78711 L 175.621094 108.525391 " transform="matrix(1,0,0,-1,0,179.560547)"/>
<path style="fill:none;stroke-width:1.41;stroke-linecap:round;stroke-linejoin:round;stroke:rgb(0%,0%,0%);stroke-opacity:1;stroke-miterlimit:10;" d="M 169.601562 112.78711 L 169.960938 112.56836 L 170.859375 112.56836 L 172.117188 112.654297 L 173.375 112.830078 L 174.363281 113.00586 L 175.171875 113.00586 " transform="matrix(1,0,0,-1,0,179.560547)"/>
<path style="fill:none;stroke-width:1.41;stroke-linecap:round;stroke-linejoin:round;stroke:rgb(0%,0%,0%);stroke-opacity:1;stroke-miterlimit:10;" d="M 170.320312 77.013672 L 170.320312 77.279297 L 170.230469 76.533203 L 170.140625 75.083985 L 170.050781 72.97461 L 169.960938 70.951172 L 169.78125 69.41211 L 169.691406 68.533203 " transform="matrix(1,0,0,-1,0,179.560547)"/>
<path style="fill:none;stroke-width:1.41;stroke-linecap:round;stroke-linejoin:round;stroke:rgb(0%,0%,0%);stroke-opacity:1;stroke-miterlimit:10;" d="M 169.78125 76.00586 L 169.78125 76.357422 L 170.050781 76.619141 L 170.769531 76.884766 L 171.9375 77.060547 L 173.285156 77.103516 L 174.542969 76.841797 L 175.53125 76.267578 L 176.070312 75.345703 L 176.429688 74.158203 L 176.609375 73.017578 L 176.519531 72.00586 L 176.25 71.03711 L 175.710938 70.248047 L 174.902344 69.63086 L 173.824219 69.19336 L 172.746094 68.927735 L 171.757812 68.884766 L 170.5 68.884766 " transform="matrix(1,0,0,-1,0,179.560547)"/>
<path style="fill:none;stroke-width:1.41;stroke-linecap:round;stroke-linejoin:round;stroke:rgb(0%,0%,0%);stroke-opacity:1;stroke-miterlimit:10;" d="M 117.671875 119.291016 L 117.582031 119.59961 L 116.953125 119.951172 L 116.503906 120.126953 L 115.875 120.212891 L 115.15625 120.126953 L 114.527344 119.994141 L 113.808594 119.642578 L 113.269531 119.115235 L 112.820312 118.544922 L 112.371094 117.708985 L 112.191406 116.962891 L 112.101562 116.345703 L 112.101562 115.333985 L 112.28125 114.853516 L 112.550781 114.236328 L 112.820312 113.623047 L 113.089844 113.00586 L 113.359375 112.521485 L 114.078125 111.81836 L 114.527344 111.59961 L 114.886719 111.423828 L 115.246094 111.38086 L 115.875 111.423828 L 116.59375 111.59961 L 117.3125 111.865235 L 118.121094 112.169922 L 118.570312 112.392578 L 118.929688 112.701172 L 119.019531 112.919922 " transform="matrix(1,0,0,-1,0,179.560547)"/>
<path style="fill:none;stroke-width:1.41;stroke-linecap:round;stroke-linejoin:round;stroke:rgb(0%,0%,0%);stroke-opacity:1;stroke-miterlimit:10;" d="M 79.039062 118.939453 L 79.21875 119.201172 L 79.488281 118.498047 L 79.488281 115.556641 L 79.398438 113.927735 L 79.308594 112.701172 L 79.308594 111.908203 L 79.398438 111.59961 " transform="matrix(1,0,0,-1,0,179.560547)"/>
<path style="fill:none;stroke-width:1.41;stroke-linecap:round;stroke-linejoin:round;stroke:rgb(0%,0%,0%);stroke-opacity:1;stroke-miterlimit:10;" d="M 79.488281 118.279297 L 79.398438 118.806641 L 79.488281 119.291016 L 79.757812 119.904297 L 80.386719 120.564453 L 81.464844 121.00586 L 82.542969 121.091797 L 83.53125 120.564453 L 83.890625 119.685547 L 83.710938 118.63086 L 82.722656 117.666016 L 81.554688 116.919922 L 80.476562 116.388672 L 79.9375 116.126953 L 80.746094 116.169922 L 81.734375 116.126953 L 82.8125 115.865235 L 83.800781 115.513672 L 84.429688 114.853516 L 84.519531 114.107422 L 84.429688 113.314453 L 84.160156 112.611328 L 83.800781 112.126953 L 83.441406 111.865235 L 82.992188 111.59961 L 82.273438 111.294922 L 81.464844 111.072266 L 80.566406 111.115235 L 79.847656 111.248047 L 79.488281 111.556641 L 79.21875 111.908203 " transform="matrix(1,0,0,-1,0,179.560547)"/>
<path style="fill:none;stroke-width:2.26;stroke-linecap:round;stroke-linejoin:round;stroke:rgb(0%,0%,0%);stroke-opacity:1;stroke-miterlimit:10;" d="M 100.511719 124.03711 L 100.332031 124.388672 L 100.152344 124.783203 L 99.613281 125.22461 L 98.625 125.619141 L 97.367188 125.576172 L 95.929688 125.177735 L 94.671875 124.25586 L 93.863281 123.06836 L 93.503906 121.66211 L 94.042969 120.345703 L 95.210938 119.509766 L 96.917969 119.291016 L 98.714844 119.732422 L 99.972656 120.697266 L 100.871094 121.66211 L 101.230469 122.63086 L 101.320312 123.158203 L 101.230469 123.376953 L 101.050781 122.716797 L 100.691406 121.66211 L 100.332031 120.212891 L 100.0625 118.41211 L 99.613281 116.521485 L 99.164062 113.798828 L 98.714844 110.634766 L 98.355469 107.294922 L 98.265625 104.744141 L 98.714844 103.470703 L 99.703125 103.294922 L 100.871094 103.955078 L 101.859375 104.966797 L 102.578125 105.888672 L 102.578125 106.591797 L 101.949219 107.294922 L 100.960938 107.908203 L 99.882812 108.482422 L 99.074219 109.095703 L 98.894531 109.53711 L 99.164062 109.888672 L 99.703125 110.326172 L 100.242188 110.720703 L 101.050781 111.294922 L 101.769531 111.865235 L 102.308594 112.478516 L 102.667969 113.052735 L 102.757812 113.404297 L 102.757812 113.708985 " transform="matrix(1,0,0,-1,0,179.560547)"/>
<path style="fill:none;stroke-width:2.26;stroke-linecap:round;stroke-linejoin:round;stroke:rgb(0%,0%,0%);stroke-opacity:1;stroke-miterlimit:10;" d="M 189.726562 99.294922 L 189.367188 98.857422 L 189.277344 98.197266 L 189.007812 96.439453 L 188.648438 93.626953 L 188.199219 90.419922 L 187.660156 87.03711 L 187.300781 84.619141 L 187.03125 83.431641 L 186.941406 82.947266 " transform="matrix(1,0,0,-1,0,179.560547)"/>
<path style="fill:none;stroke-width:2.26;stroke-linecap:round;stroke-linejoin:round;stroke:rgb(0%,0%,0%);stroke-opacity:1;stroke-miterlimit:10;" d="M 188.46875 98.107422 L 188.648438 98.857422 L 189.097656 99.69336 L 189.816406 100.482422 L 191.253906 101.228516 L 192.871094 101.580078 L 194.488281 101.53711 L 196.105469 101.142578 L 197.003906 100.439453 L 197.542969 99.69336 L 197.632812 98.638672 L 197.453125 97.451172 L 197.003906 95.998047 L 196.105469 94.50586 L 194.757812 93.494141 L 193.230469 93.09961 L 191.792969 93.142578 L 190.714844 93.408203 L 190.085938 93.759766 L 189.816406 94.021485 " transform="matrix(1,0,0,-1,0,179.560547)"/>
<path style="fill:none;stroke-width:1.41;stroke-linecap:round;stroke-linejoin:round;stroke:rgb(100%,0%,0%);stroke-opacity:1;stroke-miterlimit:10;" d="M 10.308594 97.494141 L 10.308594 95.341797 L 10.398438 92.791016 L 10.488281 89.935547 L 10.488281 85.716797 " transform="matrix(1,0,0,-1,0,179.560547)"/>
<path style="fill:none;stroke-width:1.41;stroke-linecap:round;stroke-linejoin:round;stroke:rgb(100%,0%,0%);stroke-opacity:1;stroke-miterlimit:10;" d="M 10.847656 89.935547 L 11.207031 90.373047 L 11.925781 90.50586 L 13.183594 90.771485 L 14.800781 91.033203 L 16.058594 91.166016 L 17.046875 91.25586 L 17.675781 91.298828 L 17.945312 91.384766 L 18.125 91.560547 " transform="matrix(1,0,0,-1,0,179.560547)"/>
<path style="fill:none;stroke-width:1.41;stroke-linecap:round;stroke-linejoin:round;stroke:rgb(100%,0%,0%);stroke-opacity:1;stroke-miterlimit:10;" d="M 18.214844 96.220703 L 18.304688 95.646485 L 18.484375 94.28711 L 18.484375 92.833985 L 18.574219 91.166016 L 18.574219 85.408203 L 18.484375 84.22461 L 18.484375 83.521485 " transform="matrix(1,0,0,-1,0,179.560547)"/>
<path style="fill:none;stroke-width:1.41;stroke-linecap:round;stroke-linejoin:round;stroke:rgb(19.999695%,19.999695%,79.998779%);stroke-opacity:1;stroke-miterlimit:10;" d="M 145.1875 62.666016 L 145.996094 62.666016 L 146.984375 62.884766 L 148.421875 63.150391 L 149.679688 63.279297 L 150.398438 62.97461 L 150.398438 61.830078 L 149.859375 60.115235 L 149.230469 58.357422 L 148.78125 56.908203 L 148.601562 56.248047 " transform="matrix(1,0,0,-1,0,179.560547)"/>
<path style="fill:none;stroke-width:1.41;stroke-linecap:round;stroke-linejoin:round;stroke:rgb(19.999695%,19.999695%,79.998779%);stroke-opacity:1;stroke-miterlimit:10;" d="M 149.320312 62.927735 L 149.050781 62.798828 L 148.691406 62.447266 L 148.152344 61.78711 L 147.433594 60.908203 L 146.535156 59.853516 L 145.546875 58.708985 L 144.378906 57.34961 L 143.210938 55.94336 L 141.953125 54.228516 L 140.875 52.689453 L 140.066406 51.458985 L 139.347656 50.228516 L 138.898438 49.263672 L 138.539062 48.384766 L 138.179688 47.197266 L 138 46.142578 L 137.730469 44.91211 L 137.460938 43.197266 L 137.101562 41.482422 L 136.742188 39.72461 L 136.382812 37.923828 L 136.203125 36.388672 L 136.113281 35.111328 L 136.113281 33.091797 " transform="matrix(1,0,0,-1,0,179.560547)"/>
<path style="fill:none;stroke-width:1.41;stroke-linecap:round;stroke-linejoin:round;stroke:rgb(19.999695%,19.999695%,79.998779%);stroke-opacity:1;stroke-miterlimit:10;" d="M 130.902344 23.029297 L 130.722656 23.333985 L 130.632812 22.896485 L 130.632812 22.326172 L 130.722656 21.314453 L 130.722656 19.994141 L 130.8125 18.326172 L 130.8125 11.59961 " transform="matrix(1,0,0,-1,0,179.560547)"/>
<path style="fill:none;stroke-width:1.41;stroke-linecap:round;stroke-linejoin:round;stroke:rgb(19.999695%,19.999695%,79.998779%);stroke-opacity:1;stroke-miterlimit:10;" d="M 130.722656 21.576172 L 130.722656 22.41211 L 130.992188 22.720703 L 131.351562 23.072266 L 131.890625 23.509766 L 132.789062 23.81836 L 133.597656 23.904297 L 134.496094 23.732422 L 135.035156 23.291016 L 135.394531 22.544922 L 135.664062 21.751953 L 135.664062 20.873047 L 135.484375 19.908203 L 135.125 19.291016 L 134.496094 18.720703 L 133.6875 18.41211 L 132.789062 18.326172 L 132.070312 18.41211 L 131.53125 18.587891 L 131.261719 18.720703 " transform="matrix(1,0,0,-1,0,179.560547)"/>
<path style="fill:none;stroke-width:1.41;stroke-linecap:round;stroke-linejoin:round;stroke:rgb(19.999695%,19.999695%,79.998779%);stroke-opacity:1;stroke-miterlimit:10;" d="M 140.875 27.728516 L 141.054688 27.951172 L 141.234375 28.123047 L 140.785156 28.25586 L 140.246094 28.388672 L 139.4375 28.564453 L 138.71875 28.697266 L 138.269531 28.564453 L 137.910156 28.345703 L 137.820312 27.771485 L 137.910156 26.939453 L 138.179688 25.708985 L 138.539062 23.994141 L 138.808594 22.326172 L 138.988281 20.873047 L 139.078125 19.685547 L 138.988281 19.029297 L 138.988281 17.884766 L 138.898438 17.404297 L 138.898438 16.126953 L 139.257812 15.865235 L 139.617188 15.732422 L 140.15625 15.689453 L 140.515625 15.689453 L 140.785156 15.732422 L 141.144531 15.81836 L 141.59375 15.865235 " transform="matrix(1,0,0,-1,0,179.560547)"/>
<path style="fill:none;stroke-width:1.41;stroke-linecap:round;stroke-linejoin:round;stroke:rgb(19.999695%,19.999695%,79.998779%);stroke-opacity:1;stroke-miterlimit:10;" d="M 144.109375 17.490235 L 144.109375 18.369141 L 144.378906 19.81836 L 144.738281 21.884766 L 145.1875 24.25586 L 145.546875 26.279297 L 145.726562 27.728516 L 146.085938 28.302735 L 146.355469 27.728516 L 146.894531 26.236328 L 147.613281 23.951172 L 148.242188 21.841797 L 148.691406 20.126953 L 148.960938 19.072266 L 149.140625 18.501953 L 149.230469 17.97461 L 149.230469 17.490235 L 149.320312 17.095703 " transform="matrix(1,0,0,-1,0,179.560547)"/>
<path style="fill:none;stroke-width:1.41;stroke-linecap:round;stroke-linejoin:round;stroke:rgb(19.999695%,19.999695%,79.998779%);stroke-opacity:1;stroke-miterlimit:10;" d="M 144.828125 20.830078 L 145.1875 20.697266 L 145.90625 20.78711 L 146.535156 20.830078 L 147.164062 20.919922 L 147.433594 20.919922 " transform="matrix(1,0,0,-1,0,179.560547)"/>
<path style="fill:none;stroke-width:1.41;stroke-linecap:round;stroke-linejoin:round;stroke:rgb(19.999695%,19.999695%,79.998779%);stroke-opacity:1;stroke-miterlimit:10;" d="M 151.476562 22.982422 L 151.835938 23.158203 L 152.554688 23.291016 L 153.542969 23.423828 L 154.53125 23.552735 L 155.160156 23.59961 L 155.519531 23.642578 " transform="matrix(1,0,0,-1,0,179.560547)"/>
<path style="fill:none;stroke-width:1.41;stroke-linecap:round;stroke-linejoin:round;stroke:rgb(19.999695%,19.999695%,79.998779%);stroke-opacity:1;stroke-miterlimit:10;" d="M 151.835938 21.400391 L 152.015625 21.22461 L 152.554688 21.271485 L 153.453125 21.44336 L 154.351562 21.533203 L 155.519531 21.533203 " transform="matrix(1,0,0,-1,0,179.560547)"/>
<path style="fill:none;stroke-width:1.41;stroke-linecap:round;stroke-linejoin:round;stroke:rgb(19.999695%,19.999695%,79.998779%);stroke-opacity:1;stroke-miterlimit:10;" d="M 160.820312 22.369141 L 161.089844 22.455078 L 161.269531 22.677735 L 161.359375 23.072266 L 161.269531 23.509766 L 160.730469 23.81836 L 160.011719 23.951172 L 159.023438 23.59961 L 158.214844 22.763672 L 157.765625 21.708985 L 157.855469 20.697266 L 158.574219 20.083985 L 159.5625 20.126953 L 160.550781 20.697266 L 161.449219 21.623047 L 161.898438 22.455078 L 161.988281 21.22461 L 161.898438 18.810547 L 161.808594 15.865235 L 161.898438 13.228516 L 162.078125 11.646485 L 162.4375 10.591797 L 162.886719 9.931641 L 163.335938 9.490235 L 163.964844 9.228516 L 164.324219 9.447266 L 164.683594 10.021485 L 165.042969 10.767578 L 165.402344 11.59961 L 165.582031 12.482422 L 165.582031 13.623047 L 165.402344 14.107422 L 165.132812 14.501953 L 164.683594 14.986328 L 164.144531 15.38086 L 163.605469 15.732422 L 162.976562 16.083985 L 162.527344 16.259766 L 162.078125 16.478516 L 161.71875 16.654297 L 161.539062 16.919922 L 161.808594 17.447266 L 162.4375 18.236328 L 163.335938 19.115235 L 164.054688 19.865235 L 164.503906 20.302735 L 164.683594 20.478516 " transform="matrix(1,0,0,-1,0,179.560547)"/>
<path style="fill:none;stroke-width:1.41;stroke-linecap:round;stroke-linejoin:round;stroke:rgb(19.999695%,19.999695%,79.998779%);stroke-opacity:1;stroke-miterlimit:10;" d="M 169.085938 29.66211 L 168.90625 30.103516 L 167.828125 30.541016 L 167.199219 30.716797 L 166.929688 30.84961 L 166.660156 30.322266 L 166.660156 29.751953 L 166.75 28.916016 L 166.75 28.03711 L 166.839844 27.158203 L 166.929688 26.103516 L 167.019531 24.345703 L 167.019531 22.017578 L 167.109375 19.38086 L 167.109375 17.00586 L 167.289062 15.59961 L 167.648438 15.072266 L 168.097656 15.115235 L 168.726562 15.205078 L 169.355469 15.248047 L 169.625 15.205078 L 169.804688 15.732422 " transform="matrix(1,0,0,-1,0,179.560547)"/>
<path style="fill:none;stroke-width:1.41;stroke-linecap:round;stroke-linejoin:round;stroke:rgb(19.999695%,19.999695%,79.998779%);stroke-opacity:1;stroke-miterlimit:10;" d="M 171.960938 25.970703 L 171.78125 25.44336 L 171.78125 22.896485 L 171.871094 21.623047 L 171.871094 20.259766 L 171.960938 18.982422 L 171.960938 17.841797 L 171.871094 17.314453 " transform="matrix(1,0,0,-1,0,179.560547)"/>
<path style="fill:none;stroke-width:1.41;stroke-linecap:round;stroke-linejoin:round;stroke:rgb(19.999695%,19.999695%,79.998779%);stroke-opacity:1;stroke-miterlimit:10;" d="M 171.601562 24.830078 L 171.601562 25.619141 L 171.78125 26.060547 L 172.320312 26.716797 L 173.039062 27.333985 L 174.027344 27.81836 L 174.835938 28.212891 L 175.464844 28.169922 L 175.824219 27.994141 L 176.183594 27.59961 L 176.453125 27.115235 L 176.722656 26.587891 L 176.902344 26.013672 L 176.992188 25.533203 L 177.082031 25.091797 L 177.082031 24.697266 L 176.632812 24.126953 L 176.003906 23.685547 L 175.105469 23.291016 L 174.207031 22.939453 L 173.757812 22.84961 L 174.207031 22.763672 L 174.65625 22.720703 L 175.105469 22.63086 L 175.644531 22.498047 L 176.09375 22.279297 L 176.632812 21.927735 L 177.082031 21.400391 L 177.351562 20.345703 L 177.261719 19.205078 L 176.542969 18.19336 L 175.195312 17.666016 L 173.757812 17.841797 L 172.589844 18.279297 L 171.871094 18.720703 L 171.78125 19.16211 " transform="matrix(1,0,0,-1,0,179.560547)"/>
<path style="fill:none;stroke-width:1.41;stroke-linecap:round;stroke-linejoin:round;stroke:rgb(19.999695%,19.999695%,79.998779%);stroke-opacity:1;stroke-miterlimit:10;" d="M 180.945312 23.685547 L 181.484375 23.59961 L 183.550781 23.59961 L 184.539062 23.642578 L 185.078125 23.642578 " transform="matrix(1,0,0,-1,0,179.560547)"/>
<path style="fill:none;stroke-width:1.41;stroke-linecap:round;stroke-linejoin:round;stroke:rgb(19.999695%,19.999695%,79.998779%);stroke-opacity:1;stroke-miterlimit:10;" d="M 180.855469 20.03711 L 181.394531 19.951172 L 182.292969 19.994141 L 183.28125 19.994141 L 184.269531 20.083985 L 184.808594 20.126953 " transform="matrix(1,0,0,-1,0,179.560547)"/>
<path style="fill:none;stroke-width:1.41;stroke-linecap:round;stroke-linejoin:round;stroke:rgb(19.999695%,19.999695%,79.998779%);stroke-opacity:1;stroke-miterlimit:10;" d="M 191.816406 26.146485 L 191.816406 25.751953 L 191.277344 24.78711 L 190.46875 23.59961 L 189.480469 22.455078 L 188.851562 21.533203 L 189.03125 20.962891 L 189.570312 20.478516 L 190.46875 19.908203 L 191.277344 19.38086 L 191.816406 18.853516 L 192.175781 18.41211 L 192.355469 18.150391 L 192.445312 17.927735 " transform="matrix(1,0,0,-1,0,179.560547)"/>
<path style="fill:none;stroke-width:1.41;stroke-linecap:round;stroke-linejoin:round;stroke:rgb(19.999695%,19.999695%,79.998779%);stroke-opacity:1;stroke-miterlimit:10;" d="M 194.511719 25.927735 L 194.511719 26.19336 L 194.511719 24.740235 L 194.601562 23.685547 L 194.601562 20.78711 L 194.691406 19.685547 L 194.691406 18.677735 L 194.78125 18.326172 " transform="matrix(1,0,0,-1,0,179.560547)"/>
<path style="fill:none;stroke-width:1.41;stroke-linecap:round;stroke-linejoin:round;stroke:rgb(19.999695%,19.999695%,79.998779%);stroke-opacity:1;stroke-miterlimit:10;" d="M 194.691406 20.611328 L 195.050781 21.181641 L 195.859375 21.576172 L 196.9375 21.884766 L 197.925781 21.97461 L 198.644531 22.103516 L 199.003906 22.41211 " transform="matrix(1,0,0,-1,0,179.560547)"/>
<path style="fill:none;stroke-width:1.41;stroke-linecap:round;stroke-linejoin:round;stroke:rgb(19.999695%,19.999695%,79.998779%);stroke-opacity:1;stroke-miterlimit:10;" d="M 199.542969 25.884766 L 199.632812 26.41211 L 199.8125 26.103516 L 199.8125 24.78711 L 199.902344 22.84961 L 199.902344 18.41211 " transform="matrix(1,0,0,-1,0,179.560547)"/>
<path style="fill:none;stroke-width:1.41;stroke-linecap:round;stroke-linejoin:round;stroke:rgb(19.999695%,19.999695%,79.998779%);stroke-opacity:1;stroke-miterlimit:10;" d="M 202.6875 27.158203 L 202.328125 27.59961 L 202.507812 27.291016 L 202.867188 26.806641 L 203.585938 26.19336 L 204.394531 25.490235 L 205.203125 24.830078 L 205.652344 24.212891 L 205.5625 23.291016 L 204.933594 21.97461 L 204.125 20.521485 L 203.40625 19.205078 L 203.046875 18.458985 " transform="matrix(1,0,0,-1,0,179.560547)"/>
<path style="fill:none;stroke-width:1.41;stroke-linecap:round;stroke-linejoin:round;stroke:rgb(19.999695%,19.999695%,79.998779%);stroke-opacity:1;stroke-miterlimit:10;" d="M 207.449219 30.060547 L 207.179688 30.060547 L 207.628906 30.103516 L 208.078125 30.189453 L 208.527344 30.322266 L 209.15625 30.41211 L 209.605469 30.541016 L 210.144531 30.365235 L 210.414062 30.013672 L 210.59375 29.44336 L 210.503906 28.697266 L 210.414062 27.728516 L 210.324219 25.970703 L 210.324219 23.59961 L 210.234375 20.740235 L 210.234375 16.302735 L 210.144531 15.16211 L 209.785156 14.763672 L 209.15625 14.677735 L 208.347656 14.763672 L 207.71875 14.896485 L 207.269531 15.029297 L 207 15.294922 " transform="matrix(1,0,0,-1,0,179.560547)"/>
<path style="fill:none;stroke-width:1.41;stroke-linecap:round;stroke-linejoin:round;stroke:rgb(19.999695%,19.999695%,79.998779%);stroke-opacity:1;stroke-miterlimit:10;" d="M 214.726562 18.544922 L 214.90625 18.236328 L 215.265625 17.708985 L 215.625 16.962891 L 215.714844 16.126953 L 215.625 15.38086 L 215.355469 14.853516 L 215.085938 14.501953 " transform="matrix(1,0,0,-1,0,179.560547)"/>
<path style="fill:none;stroke-width:1.41;stroke-linecap:round;stroke-linejoin:round;stroke:rgb(19.999695%,19.999695%,79.998779%);stroke-opacity:1;stroke-miterlimit:10;" d="M 219.578125 25.751953 L 219.578125 19.115235 " transform="matrix(1,0,0,-1,0,179.560547)"/>
<path style="fill:none;stroke-width:1.41;stroke-linecap:round;stroke-linejoin:round;stroke:rgb(19.999695%,19.999695%,79.998779%);stroke-opacity:1;stroke-miterlimit:10;" d="M 219.847656 25.927735 L 220.117188 26.63086 L 220.746094 27.248047 L 221.644531 27.291016 L 222.722656 26.544922 L 223.621094 25.267578 L 224.160156 23.509766 L 224.25 21.884766 L 223.710938 20.478516 L 222.722656 19.513672 L 221.644531 19.029297 L 220.65625 18.853516 L 220.027344 18.896485 L 219.9375 19.205078 " transform="matrix(1,0,0,-1,0,179.560547)"/>
<path style="fill:none;stroke-width:1.41;stroke-linecap:round;stroke-linejoin:round;stroke:rgb(19.999695%,19.999695%,79.998779%);stroke-opacity:1;stroke-miterlimit:10;" d="M 227.574219 23.291016 L 227.933594 23.38086 L 230.359375 23.38086 " transform="matrix(1,0,0,-1,0,179.560547)"/>
<path style="fill:none;stroke-width:1.41;stroke-linecap:round;stroke-linejoin:round;stroke:rgb(19.999695%,19.999695%,79.998779%);stroke-opacity:1;stroke-miterlimit:10;" d="M 227.484375 20.654297 L 227.574219 20.435547 L 228.203125 20.435547 L 229.011719 20.521485 L 229.820312 20.697266 L 230.269531 20.740235 L 230.539062 20.830078 " transform="matrix(1,0,0,-1,0,179.560547)"/>
<path style="fill:none;stroke-width:1.41;stroke-linecap:round;stroke-linejoin:round;stroke:rgb(19.999695%,19.999695%,79.998779%);stroke-opacity:1;stroke-miterlimit:10;" d="M 238.265625 28.47461 L 238.265625 28.169922 L 237.996094 27.509766 L 237.546875 26.763672 L 237.007812 25.927735 L 236.558594 25.310547 L 235.660156 24.478516 L 234.761719 23.59961 L 233.953125 22.720703 L 233.773438 21.884766 L 234.492188 21.22461 L 235.75 20.521485 L 237.1875 19.642578 L 238.175781 18.810547 L 238.804688 18.150391 L 238.984375 17.884766 " transform="matrix(1,0,0,-1,0,179.560547)"/>
<path style="fill:none;stroke-width:1.41;stroke-linecap:round;stroke-linejoin:round;stroke:rgb(19.999695%,19.999695%,79.998779%);stroke-opacity:1;stroke-miterlimit:10;" d="M 240.242188 25.751953 L 240.242188 26.060547 L 240.332031 25.751953 L 240.511719 24.78711 L 240.601562 23.333985 L 240.601562 19.59961 " transform="matrix(1,0,0,-1,0,179.560547)"/>
<path style="fill:none;stroke-width:1.41;stroke-linecap:round;stroke-linejoin:round;stroke:rgb(19.999695%,19.999695%,79.998779%);stroke-opacity:1;stroke-miterlimit:10;" d="M 240.691406 21.927735 L 241.050781 22.41211 L 241.769531 22.763672 L 242.578125 23.072266 L 243.386719 23.201172 L 244.015625 23.38086 " transform="matrix(1,0,0,-1,0,179.560547)"/>
<path style="fill:none;stroke-width:1.41;stroke-linecap:round;stroke-linejoin:round;stroke:rgb(19.999695%,19.999695%,79.998779%);stroke-opacity:1;stroke-miterlimit:10;" d="M 244.914062 26.322266 L 245.003906 25.970703 L 245.183594 24.78711 L 245.273438 23.115235 L 245.273438 21.490235 L 245.453125 20.56836 " transform="matrix(1,0,0,-1,0,179.560547)"/>
<path style="fill:none;stroke-width:1.41;stroke-linecap:round;stroke-linejoin:round;stroke:rgb(19.999695%,19.999695%,79.998779%);stroke-opacity:1;stroke-miterlimit:10;" d="M 247.878906 29.66211 L 247.699219 29.357422 L 248.148438 28.916016 L 248.777344 28.345703 L 249.585938 27.685547 L 250.664062 26.939453 L 251.5625 26.236328 L 252.28125 25.576172 L 252.460938 24.958985 L 251.921875 24.169922 L 250.933594 22.896485 L 249.855469 21.271485 L 249.046875 19.81836 L 248.507812 18.677735 L 248.328125 18.236328 L 248.777344 18.720703 " transform="matrix(1,0,0,-1,0,179.560547)"/>
<path style="fill:none;stroke-width:1.41;stroke-linecap:round;stroke-linejoin:round;stroke:rgb(19.999695%,19.999695%,79.998779%);stroke-opacity:1;stroke-miterlimit:10;" d="M 251.292969 31.509766 L 251.921875 31.552735 L 252.640625 31.595703 L 253.539062 31.638672 L 254.167969 31.728516 L 254.617188 31.728516 L 254.707031 31.376953 L 254.886719 30.716797 L 254.976562 29.44336 L 255.066406 28.03711 L 255.15625 26.587891 L 255.15625 20.478516 L 255.066406 18.720703 L 254.886719 17.00586 L 254.796875 15.775391 L 254.527344 15.072266 L 254.078125 14.853516 L 253.539062 14.763672 L 253 14.763672 L 252.640625 14.853516 L 252.371094 14.853516 " transform="matrix(1,0,0,-1,0,179.560547)"/>
<path style="fill:none;stroke-width:1.41;stroke-linecap:round;stroke-linejoin:round;stroke:rgb(19.999695%,19.999695%,79.998779%);stroke-opacity:1;stroke-miterlimit:10;" d="M 259.199219 25.138672 L 259.289062 25.357422 L 259.558594 25.357422 L 259.828125 25.091797 L 260.007812 24.740235 L 259.738281 24.478516 L 259.46875 24.478516 L 259.199219 24.873047 L 259.199219 25.22461 L 259.46875 25.357422 L 259.738281 25.138672 L 259.828125 24.740235 L 259.738281 24.388672 L 259.558594 24.212891 " transform="matrix(1,0,0,-1,0,179.560547)"/>
<path style="fill:none;stroke-width:1.41;stroke-linecap:round;stroke-linejoin:round;stroke:rgb(19.999695%,19.999695%,79.998779%);stroke-opacity:1;stroke-miterlimit:10;" d="M 260.1875 18.326172 L 259.917969 18.41211 L 260.007812 18.63086 L 260.007812 18.939453 L 260.277344 18.763672 L 260.277344 18.19336 L 260.007812 18.017578 L 259.738281 18.236328 L 259.648438 18.501953 L 259.738281 18.810547 L 260.007812 18.939453 L 260.277344 18.853516 L 260.457031 18.677735 L 260.277344 18.41211 L 260.007812 18.501953 " transform="matrix(1,0,0,-1,0,179.560547)"/>
<path style="fill:none;stroke-width:1.41;stroke-linecap:round;stroke-linejoin:round;stroke:rgb(19.999695%,19.999695%,79.998779%);stroke-opacity:1;stroke-miterlimit:10;" d="M 264.589844 26.939453 L 264.769531 26.103516 L 264.769531 24.697266 L 264.679688 22.84961 L 264.679688 17.884766 " transform="matrix(1,0,0,-1,0,179.560547)"/>
<path style="fill:none;stroke-width:1.41;stroke-linecap:round;stroke-linejoin:round;stroke:rgb(19.999695%,19.999695%,79.998779%);stroke-opacity:1;stroke-miterlimit:10;" d="M 265.21875 27.158203 L 265.398438 27.419922 L 266.117188 27.59961 L 267.015625 27.59961 L 268.09375 27.376953 L 269.171875 26.63086 L 269.980469 25.533203 L 270.519531 24.25586 L 270.789062 22.84961 L 270.878906 21.708985 L 270.699219 20.654297 L 270.25 19.59961 L 269.621094 18.810547 L 268.8125 18.150391 L 267.914062 17.75586 L 267.195312 17.533203 L 266.117188 17.447266 L 265.667969 17.533203 " transform="matrix(1,0,0,-1,0,179.560547)"/>
<path style="fill:none;stroke-width:1.41;stroke-linecap:round;stroke-linejoin:round;stroke:rgb(19.999695%,19.999695%,79.998779%);stroke-opacity:1;stroke-miterlimit:10;" d="M 52.199219 128.275391 L 52.828125 128.013672 L 53.367188 127.88086 L 54.085938 127.66211 L 54.714844 127.353516 L 55.164062 127.134766 L 55.613281 126.826172 L 56.0625 126.607422 L 56.421875 126.341797 L 56.78125 126.166016 L 57.140625 126.298828 L 57.589844 126.91211 L 58.128906 128.013672 L 58.757812 129.50586 L 59.296875 130.736328 L 59.65625 131.66211 L 59.835938 132.232422 L 59.925781 132.494141 " transform="matrix(1,0,0,-1,0,179.560547)"/>
<path style="fill:none;stroke-width:1.41;stroke-linecap:round;stroke-linejoin:round;stroke:rgb(19.999695%,19.999695%,79.998779%);stroke-opacity:1;stroke-miterlimit:10;" d="M 57.859375 127.353516 L 57.320312 127.529297 L 56.960938 127.794922 L 56.332031 128.31836 L 55.703125 129.201172 L 55.074219 130.298828 L 54.535156 131.791016 L 54.175781 133.72461 L 53.996094 135.791016 L 53.996094 137.900391 L 54.445312 140.052735 L 55.253906 141.94336 L 56.332031 143.658203 L 57.769531 145.416016 L 59.386719 146.951172 L 61.09375 148.447266 L 62.710938 149.634766 L 63.699219 150.423828 L 64.328125 150.865235 L 64.777344 150.998047 L 65.046875 150.951172 " transform="matrix(1,0,0,-1,0,179.560547)"/>
<path style="fill:none;stroke-width:1.41;stroke-linecap:round;stroke-linejoin:round;stroke:rgb(19.999695%,19.999695%,79.998779%);stroke-opacity:1;stroke-miterlimit:10;" d="M 77.355469 161.103516 L 76.996094 161.716797 L 76.457031 162.291016 L 75.738281 162.59961 L 74.839844 162.509766 L 74.03125 161.982422 L 73.402344 161.103516 L 73.132812 159.958985 L 73.492188 159.03711 L 74.300781 158.509766 L 75.648438 158.509766 L 76.726562 158.951172 L 77.625 159.654297 L 77.984375 160.267578 L 77.445312 159.521485 L 76.996094 157.806641 L 76.726562 155.345703 L 76.546875 153.19336 L 76.636719 151.56836 L 76.726562 150.646485 L 76.996094 150.337891 L 77.804688 150.115235 L 78.613281 149.986328 L 79.511719 149.986328 L 80.410156 150.115235 L 81.128906 150.646485 L 81.398438 150.951172 L 81.488281 151.34961 L 81.21875 151.962891 L 80.589844 152.533203 L 78.972656 153.501953 L 78.882812 153.939453 L 79.332031 154.556641 L 80.320312 155.388672 L 81.398438 156.181641 L 82.027344 156.751953 L 82.386719 157.146485 " transform="matrix(1,0,0,-1,0,179.560547)"/>
<path style="fill:none;stroke-width:1.41;stroke-linecap:round;stroke-linejoin:round;stroke:rgb(19.999695%,19.999695%,79.998779%);stroke-opacity:1;stroke-miterlimit:10;" d="M 88.40625 166.728516 L 88.316406 166.990235 L 87.867188 167.169922 L 87.238281 167.25586 L 86.339844 167.25586 L 85.441406 167.03711 L 84.902344 166.419922 L 84.632812 164.88086 L 84.632812 162.466797 L 84.8125 159.478516 L 84.902344 156.490235 L 85.082031 154.466797 L 85.351562 153.326172 L 85.980469 152.884766 L 86.878906 152.798828 L 87.6875 152.708985 L 88.226562 152.75586 L 88.496094 152.798828 L 88.585938 153.017578 " transform="matrix(1,0,0,-1,0,179.560547)"/>
<path style="fill:none;stroke-width:1.41;stroke-linecap:round;stroke-linejoin:round;stroke:rgb(19.999695%,19.999695%,79.998779%);stroke-opacity:1;stroke-miterlimit:10;" d="M 91.011719 161.455078 L 90.832031 160.884766 L 90.652344 159.654297 L 90.652344 156.751953 L 90.5625 155.919922 L 90.5625 155.56836 " transform="matrix(1,0,0,-1,0,179.560547)"/>
<path style="fill:none;stroke-width:1.41;stroke-linecap:round;stroke-linejoin:round;stroke:rgb(19.999695%,19.999695%,79.998779%);stroke-opacity:1;stroke-miterlimit:10;" d="M 90.203125 158.81836 L 90.203125 159.916016 L 90.742188 161.455078 L 91.640625 162.81836 L 92.808594 163.697266 L 93.976562 164.091797 L 94.695312 163.47461 L 95.054688 162.728516 L 94.964844 161.939453 L 94.425781 160.970703 L 93.527344 160.267578 L 92.628906 159.697266 L 92.089844 159.345703 L 92.449219 159.25586 L 93.257812 159.169922 L 94.246094 158.994141 L 95.234375 158.072266 L 95.773438 157.146485 L 96.132812 156.22461 L 96.222656 155.388672 L 95.953125 155.03711 L 95.503906 154.775391 L 95.054688 154.466797 L 94.425781 154.205078 L 93.347656 154.072266 L 92.359375 154.072266 L 91.371094 154.291016 L 90.5625 154.732422 L 90.832031 155.435547 " transform="matrix(1,0,0,-1,0,179.560547)"/>
<path style="fill:none;stroke-width:1.41;stroke-linecap:round;stroke-linejoin:round;stroke:rgb(19.999695%,19.999695%,79.998779%);stroke-opacity:1;stroke-miterlimit:10;" d="M 99.996094 159.697266 L 99.726562 159.78711 L 99.996094 159.916016 L 100.355469 159.958985 L 100.984375 160.00586 L 101.792969 160.00586 L 102.332031 160.048828 L 102.78125 160.091797 L 103.140625 160.091797 " transform="matrix(1,0,0,-1,0,179.560547)"/>
<path style="fill:none;stroke-width:1.41;stroke-linecap:round;stroke-linejoin:round;stroke:rgb(19.999695%,19.999695%,79.998779%);stroke-opacity:1;stroke-miterlimit:10;" d="M 100.175781 157.544922 L 99.90625 157.279297 L 100.175781 157.103516 L 100.894531 157.060547 L 102.0625 157.060547 L 102.960938 157.103516 L 103.949219 157.103516 " transform="matrix(1,0,0,-1,0,179.560547)"/>
<path style="fill:none;stroke-width:1.41;stroke-linecap:round;stroke-linejoin:round;stroke:rgb(19.999695%,19.999695%,79.998779%);stroke-opacity:1;stroke-miterlimit:10;" d="M 111.585938 163.345703 L 111.675781 163.564453 L 111.40625 163.123047 L 110.867188 162.466797 L 110.148438 161.63086 L 108.710938 160.22461 L 107.992188 159.607422 L 107.363281 159.03711 L 106.914062 158.466797 L 106.914062 157.763672 L 107.632812 157.060547 L 108.621094 156.271485 L 109.699219 155.478516 L 110.417969 154.908203 L 110.777344 154.642578 " transform="matrix(1,0,0,-1,0,179.560547)"/>
<path style="fill:none;stroke-width:1.41;stroke-linecap:round;stroke-linejoin:round;stroke:rgb(19.999695%,19.999695%,79.998779%);stroke-opacity:1;stroke-miterlimit:10;" d="M 113.832031 162.333985 L 113.832031 162.951172 L 113.921875 161.84961 L 113.921875 160.22461 L 113.832031 158.509766 L 113.742188 157.103516 L 113.5625 156.623047 L 113.472656 157.146485 L 113.5625 157.763672 L 114.011719 158.38086 L 114.820312 158.994141 L 115.988281 159.521485 L 117.066406 159.78711 L 117.964844 160.00586 L 118.59375 160.533203 " transform="matrix(1,0,0,-1,0,179.560547)"/>
<path style="fill:none;stroke-width:1.41;stroke-linecap:round;stroke-linejoin:round;stroke:rgb(19.999695%,19.999695%,79.998779%);stroke-opacity:1;stroke-miterlimit:10;" d="M 119.132812 162.994141 L 119.3125 162.201172 L 119.402344 160.619141 L 119.492188 158.81836 L 119.582031 157.41211 L 119.582031 156.623047 L 119.851562 156.533203 " transform="matrix(1,0,0,-1,0,179.560547)"/>
<path style="fill:none;stroke-width:1.41;stroke-linecap:round;stroke-linejoin:round;stroke:rgb(19.999695%,19.999695%,79.998779%);stroke-opacity:1;stroke-miterlimit:10;" d="M 122.726562 163.697266 L 122.457031 164.134766 L 122.636719 163.916016 L 123.175781 163.345703 L 123.894531 162.685547 L 124.882812 161.939453 L 125.511719 161.498047 L 125.78125 160.970703 L 125.332031 159.916016 L 124.523438 158.552735 L 123.625 157.103516 L 122.996094 155.962891 L 122.636719 155.521485 " transform="matrix(1,0,0,-1,0,179.560547)"/>
<path style="fill:none;stroke-width:1.41;stroke-linecap:round;stroke-linejoin:round;stroke:rgb(19.999695%,19.999695%,79.998779%);stroke-opacity:1;stroke-miterlimit:10;" d="M 126.320312 167.169922 L 126.050781 167.25586 L 126.859375 167.47461 L 127.847656 167.69336 L 129.015625 167.826172 L 130.09375 168.001953 L 130.722656 167.740235 L 130.8125 166.990235 L 130.722656 166.025391 L 130.632812 164.837891 L 130.453125 163.697266 L 130.363281 162.642578 L 130.273438 161.060547 L 130.183594 159.083985 L 130.183594 155.345703 L 130.09375 154.291016 L 129.824219 153.853516 L 129.375 153.810547 L 128.746094 153.853516 L 128.207031 154.072266 L 128.027344 154.291016 " transform="matrix(1,0,0,-1,0,179.560547)"/>
<path style="fill:none;stroke-width:1.41;stroke-linecap:round;stroke-linejoin:round;stroke:rgb(19.999695%,19.999695%,79.998779%);stroke-opacity:1;stroke-miterlimit:10;" d="M 134.585938 162.59961 L 134.40625 162.81836 L 134.675781 162.728516 L 134.765625 162.466797 L 134.496094 162.333985 L 134.226562 162.419922 L 134.136719 162.642578 L 134.226562 162.951172 L 134.496094 163.03711 L 134.765625 163.03711 L 135.035156 162.951172 L 135.304688 162.642578 " transform="matrix(1,0,0,-1,0,179.560547)"/>
<path style="fill:none;stroke-width:1.41;stroke-linecap:round;stroke-linejoin:round;stroke:rgb(19.999695%,19.999695%,79.998779%);stroke-opacity:1;stroke-miterlimit:10;" d="M 134.945312 157.806641 L 134.675781 157.939453 L 135.125 157.939453 L 135.304688 157.63086 L 135.304688 157.279297 L 135.125 156.97461 L 134.855469 157.103516 L 134.585938 157.369141 L 134.855469 157.896485 " transform="matrix(1,0,0,-1,0,179.560547)"/>
<path style="fill:none;stroke-width:1.41;stroke-linecap:round;stroke-linejoin:round;stroke:rgb(19.999695%,19.999695%,79.998779%);stroke-opacity:1;stroke-miterlimit:10;" d="M 139.886719 165.41211 L 139.796875 165.63086 L 139.707031 165.189453 L 139.707031 164.66211 L 139.527344 162.81836 L 139.347656 160.970703 L 139.167969 159.126953 L 139.078125 157.544922 " transform="matrix(1,0,0,-1,0,179.560547)"/>
<path style="fill:none;stroke-width:1.41;stroke-linecap:round;stroke-linejoin:round;stroke:rgb(19.999695%,19.999695%,79.998779%);stroke-opacity:1;stroke-miterlimit:10;" d="M 139.4375 159.830078 L 139.886719 160.357422 L 140.785156 160.66211 L 142.042969 160.927735 L 143.210938 161.103516 L 143.929688 161.19336 L 144.289062 161.279297 " transform="matrix(1,0,0,-1,0,179.560547)"/>
<path style="fill:none;stroke-width:1.41;stroke-linecap:round;stroke-linejoin:round;stroke:rgb(19.999695%,19.999695%,79.998779%);stroke-opacity:1;stroke-miterlimit:10;" d="M 145.457031 166.552735 L 145.726562 165.189453 L 145.90625 162.81836 L 146.085938 160.138672 L 146.175781 157.896485 L 146.445312 156.400391 L 146.714844 156.048828 " transform="matrix(1,0,0,-1,0,179.560547)"/>
<path style="fill:none;stroke-width:2.26;stroke-linecap:round;stroke-linejoin:round;stroke:rgb(100%,0%,0%);stroke-opacity:1;stroke-miterlimit:10;" d="M 25.425781 90.044922 L 25.695312 90.220703 L 26.054688 90.177735 L 26.773438 90.13086 L 27.671875 90.087891 L 28.75 90.13086 L 29.828125 90.220703 L 30.90625 90.263672 L 31.984375 90.34961 L 33.152344 90.34961 L 34.410156 90.439453 L 35.667969 90.572266 L 36.925781 90.701172 L 38.183594 90.923828 L 39.351562 91.232422 L 40.609375 91.712891 L 41.867188 92.373047 L 42.945312 93.033203 L 43.933594 93.865235 L 45.101562 95.009766 L 46.359375 96.326172 L 47.617188 97.689453 L 48.695312 99.009766 L 49.234375 100.064453 L 49.59375 100.94336 L 49.773438 101.908203 L 49.953125 103.00586 L 50.3125 104.19336 L 50.582031 105.38086 L 51.121094 106.873047 L 51.929688 108.369141 L 52.738281 109.81836 L 53.546875 111.091797 L 54.445312 112.103516 L 55.523438 113.072266 L 56.871094 114.169922 L 58.308594 115.138672 L 59.566406 115.841797 L 60.644531 116.322266 L 61.632812 116.63086 L 62.800781 116.939453 L 64.148438 117.333985 L 65.316406 117.59961 L 66.304688 117.771485 L 67.023438 117.81836 L 67.382812 117.81836 L 67.921875 117.771485 L 68.550781 117.728516 L 69.089844 117.685547 L 69.71875 117.642578 L 70.257812 117.59961 L 70.707031 117.59961 L 71.15625 117.685547 L 71.425781 117.728516 L 71.964844 117.728516 " transform="matrix(1,0,0,-1,0,179.560547)"/>
<path style="fill:none;stroke-width:2.26;stroke-linecap:round;stroke-linejoin:round;stroke:rgb(100%,0%,0%);stroke-opacity:1;stroke-miterlimit:10;" d="M 39.261719 91.626953 L 39.53125 91.31836 L 39.890625 91.185547 L 40.429688 90.833985 L 41.148438 90.439453 L 41.777344 89.998047 L 42.496094 89.603516 L 43.214844 89.251953 L 43.84375 88.990235 L 44.5625 88.638672 L 45.28125 88.240235 L 45.820312 87.845703 L 46.539062 87.09961 L 47.078125 86.439453 L 47.617188 85.607422 L 48.335938 84.638672 L 48.785156 83.935547 L 49.234375 83.146485 L 49.59375 82.353516 L 49.863281 81.69336 L 50.132812 80.947266 L 50.492188 80.28711 L 50.761719 79.716797 L 51.121094 79.013672 L 51.480469 78.134766 L 51.929688 77.298828 L 52.289062 76.509766 L 52.917969 75.763672 L 53.367188 75.189453 L 54.085938 74.576172 L 54.984375 74.00586 L 56.0625 73.431641 L 57.320312 72.81836 L 58.757812 72.248047 L 60.105469 71.763672 L 61.542969 71.322266 L 63.25 70.927735 L 64.867188 70.576172 L 66.484375 70.310547 L 68.28125 70.00586 L 71.515625 69.654297 L 73.492188 69.564453 L 75.378906 69.564453 L 77.535156 69.607422 L 79.78125 69.78711 L 82.117188 69.916016 L 84.453125 70.00586 L 86.699219 70.048828 L 89.125 70.091797 L 91.28125 70.181641 L 93.4375 70.22461 L 95.59375 70.22461 L 97.480469 70.138672 L 99.546875 70.00586 L 101.882812 69.958985 L 104.398438 70.048828 L 107.09375 70.181641 L 110.058594 70.310547 L 112.84375 70.44336 L 115.539062 70.490235 L 118.234375 70.533203 L 123.265625 70.533203 L 125.960938 70.619141 L 128.476562 70.708985 L 130.8125 70.751953 L 135.125 70.751953 L 137.101562 70.794922 L 139.347656 70.841797 L 141.503906 70.970703 L 143.570312 71.103516 L 145.726562 71.236328 L 147.703125 71.365235 L 151.65625 71.63086 L 153.183594 71.763672 L 154.351562 71.84961 L 155.429688 71.939453 L 156.148438 72.025391 L 156.957031 72.06836 L 157.765625 72.158203 L 158.484375 72.248047 L 159.113281 72.291016 L 159.742188 72.419922 L 160.28125 72.509766 L 160.730469 72.59961 L 161.179688 72.642578 L 161.539062 72.728516 L 161.898438 72.771485 L 162.167969 72.81836 L 162.796875 72.81836 L 163.246094 72.771485 L 163.515625 72.642578 L 163.515625 73.169922 " transform="matrix(1,0,0,-1,0,179.560547)"/>
<path style="fill:none;stroke-width:2.26;stroke-linecap:round;stroke-linejoin:round;stroke:rgb(100%,0%,0%);stroke-opacity:1;stroke-miterlimit:10;" d="M 76.816406 123.396485 L 76.90625 123.177735 L 76.636719 123.001953 L 76.007812 122.564453 L 75.558594 122.212891 L 75.109375 121.771485 L 74.75 121.28711 L 74.210938 120.41211 L 73.941406 119.88086 L 73.671875 119.44336 L 73.402344 118.873047 L 73.222656 118.345703 L 73.042969 117.861328 L 72.953125 117.376953 L 72.953125 116.544922 L 73.042969 116.013672 L 73.042969 115.533203 L 73.132812 115.091797 L 73.222656 114.654297 L 73.3125 114.25586 L 73.402344 113.904297 L 73.941406 113.029297 L 74.210938 112.544922 L 74.570312 112.017578 L 74.75 111.623047 L 75.019531 111.138672 L 75.289062 110.697266 L 75.648438 110.302735 L 76.007812 109.81836 L 76.457031 109.38086 L 76.90625 108.982422 L 77.445312 108.63086 L 77.984375 108.369141 L 78.433594 108.19336 L 79.511719 107.927735 L 80.140625 107.841797 L 80.679688 107.708985 L 81.21875 107.533203 L 81.578125 107.404297 L 81.9375 107.271485 L 82.207031 107.181641 L 82.566406 107.138672 L 82.925781 107.138672 L 83.375 107.22461 L 83.824219 107.447266 L 84.273438 107.666016 L 84.722656 107.97461 L 85.082031 108.150391 L 85.351562 108.279297 L 85.800781 108.41211 L 86.25 108.501953 L 86.609375 108.677735 L 86.96875 108.896485 L 87.238281 109.16211 L 87.507812 109.466797 L 87.867188 109.732422 L 88.136719 110.083985 L 88.675781 110.873047 L 88.945312 111.271485 L 89.125 111.576172 L 89.304688 111.884766 L 89.394531 112.279297 L 89.574219 112.763672 L 89.84375 113.248047 L 90.023438 113.81836 L 90.203125 114.345703 L 90.382812 114.740235 L 90.5625 115.22461 L 90.5625 115.751953 L 90.652344 116.146485 L 90.652344 116.544922 L 90.472656 117.333985 L 90.382812 117.81836 L 90.292969 118.388672 L 90.113281 118.916016 L 90.023438 119.400391 L 89.84375 119.927735 L 89.753906 120.41211 L 89.394531 121.28711 L 89.304688 121.685547 L 89.125 122.03711 L 88.855469 122.388672 L 88.675781 122.783203 L 88.40625 123.22461 L 88.046875 123.705078 L 87.6875 124.189453 L 87.328125 124.63086 L 86.878906 124.982422 L 86.429688 125.201172 L 85.890625 125.376953 L 85.261719 125.462891 L 84.722656 125.50586 L 84.183594 125.595703 L 83.554688 125.595703 L 83.105469 125.552735 L 82.65625 125.50586 L 82.207031 125.376953 L 81.757812 125.28711 L 81.308594 125.201172 L 80.859375 125.06836 L 80.320312 124.935547 L 79.871094 124.759766 L 79.332031 124.498047 L 78.882812 124.189453 L 78.613281 123.970703 L 78.34375 123.66211 " transform="matrix(1,0,0,-1,0,179.560547)"/>
<path style="fill:none;stroke-width:2.26;stroke-linecap:round;stroke-linejoin:round;stroke:rgb(100%,0%,0%);stroke-opacity:1;stroke-miterlimit:10;" d="M 168.277344 79.322266 L 168.097656 79.013672 L 167.828125 78.748047 L 167.648438 78.486328 L 167.378906 78.134766 L 167.109375 77.69336 L 166.660156 77.169922 L 166.210938 76.595703 L 165.671875 75.982422 L 165.222656 75.455078 L 164.863281 74.88086 L 164.59375 74.22461 L 164.414062 73.654297 L 164.234375 72.951172 L 164.144531 72.158203 L 164.144531 70.181641 L 164.234375 69.654297 L 164.414062 69.083985 L 164.59375 68.509766 L 164.863281 68.072266 L 165.132812 67.587891 L 165.492188 67.103516 L 166.03125 66.623047 L 166.929688 65.740235 L 167.378906 65.345703 L 167.828125 64.994141 L 168.367188 64.642578 L 169.625 63.939453 L 170.164062 63.720703 L 170.882812 63.458985 L 171.691406 63.279297 L 172.320312 63.150391 L 173.039062 63.060547 L 173.847656 63.060547 L 174.65625 63.107422 L 175.554688 63.326172 L 176.542969 63.501953 L 178.160156 63.939453 L 178.878906 64.16211 L 179.507812 64.466797 L 180.136719 64.865235 L 180.765625 65.302735 L 181.125 65.697266 L 181.84375 66.666016 L 182.023438 67.19336 L 182.292969 67.677735 L 182.472656 68.158203 L 182.5625 68.59961 L 182.742188 69.126953 L 182.832031 69.830078 L 182.921875 70.490235 L 182.921875 73.345703 L 182.832031 74.048828 L 182.742188 74.66211 L 182.5625 75.322266 L 182.292969 75.982422 L 182.113281 76.595703 L 181.753906 77.388672 L 181.484375 78.001953 L 181.304688 78.486328 L 181.035156 78.88086 L 180.765625 79.189453 L 180.496094 79.541016 L 180.046875 79.892578 L 179.507812 80.28711 L 178.789062 80.728516 L 177.890625 81.166016 L 176.992188 81.388672 L 176.183594 81.607422 L 175.464844 81.650391 L 174.746094 81.607422 L 174.027344 81.517578 L 173.398438 81.388672 L 172.769531 81.208985 L 172.140625 81.03711 L 171.78125 80.947266 L 171.242188 80.814453 L 170.792969 80.814453 L 170.433594 80.771485 L 169.984375 80.728516 L 169.714844 80.638672 L 169.355469 80.462891 L 169.085938 80.28711 L 168.726562 80.06836 " transform="matrix(1,0,0,-1,0,179.560547)"/>
</g>
</svg>
