<?xml version="1.0" encoding="UTF-8"?>
<svg xmlns="http://www.w3.org/2000/svg" xmlns:xlink="http://www.w3.org/1999/xlink" width="367.28125pt" height="104.589844pt" viewBox="0 0 367.28125 104.589844" version="1.1">
<g id="surface1">
<path style="fill:none;stroke-width:2.26;stroke-linecap:round;stroke-linejoin:round;stroke:rgb(0%,0%,0%);stroke-opacity:1;stroke-miterlimit:10;" d="M 85.351562 87.101563 L 90.46875 87.117188 L 95.585938 87.136719 L 100.703125 87.152344 L 110.9375 87.191406 L 116.054688 87.207031 L 121.171875 87.226563 L 126.289062 87.242188 L 136.523438 87.28125 L 141.640625 87.296875 L 146.753906 87.316406 L 151.871094 87.332031 L 162.105469 87.371094 L 167.222656 87.386719 L 172.339844 87.40625 L 177.457031 87.421875 L 187.691406 87.460938 L 192.808594 87.476563 L 197.925781 87.496094 " transform="matrix(1,0,0,-1,0,104.589844)"/>
<path style="fill:none;stroke-width:2.26;stroke-linecap:round;stroke-linejoin:round;stroke:rgb(0%,0%,0%);stroke-opacity:1;stroke-miterlimit:10;" d="M 198.644531 87.230469 L 198.6875 81.234375 L 198.734375 75.234375 " transform="matrix(1,0,0,-1,0,104.589844)"/>
<path style="fill:none;stroke-width:2.26;stroke-linecap:round;stroke-linejoin:round;stroke:rgb(0%,0%,0%);stroke-opacity:1;stroke-miterlimit:10;" d="M 198.734375 74.707031 L 204.304688 74.53125 " transform="matrix(1,0,0,-1,0,104.589844)"/>
<path style="fill:none;stroke-width:2.26;stroke-linecap:round;stroke-linejoin:round;stroke:rgb(0%,0%,0%);stroke-opacity:1;stroke-miterlimit:10;" d="M 204.304688 74.179688 L 204.234375 63.40625 L 204.195312 58.015625 L 204.125 47.242188 " transform="matrix(1,0,0,-1,0,104.589844)"/>
<path style="fill:none;stroke-width:2.26;stroke-linecap:round;stroke-linejoin:round;stroke:rgb(0%,0%,0%);stroke-opacity:1;stroke-miterlimit:10;" d="M 204.304688 47.460938 L 199.453125 46.714844 " transform="matrix(1,0,0,-1,0,104.589844)"/>
<path style="fill:none;stroke-width:2.26;stroke-linecap:round;stroke-linejoin:round;stroke:rgb(0%,0%,0%);stroke-opacity:1;stroke-miterlimit:10;" d="M 199.902344 47.460938 L 199.691406 42.011719 L 199.484375 36.5625 L 199.273438 31.113281 " transform="matrix(1,0,0,-1,0,104.589844)"/>
<path style="fill:none;stroke-width:2.26;stroke-linecap:round;stroke-linejoin:round;stroke:rgb(0%,0%,0%);stroke-opacity:1;stroke-miterlimit:10;" d="M 199.8125 30.761719 L 194.664062 30.820313 L 189.511719 30.882813 L 179.214844 31 L 174.0625 31.0625 L 163.765625 31.179688 L 158.613281 31.242188 L 148.316406 31.359375 L 143.164062 31.421875 L 132.867188 31.539063 L 127.71875 31.601563 L 122.566406 31.660156 L 117.417969 31.71875 L 112.269531 31.78125 L 107.117188 31.839844 L 101.96875 31.898438 L 96.820312 31.960938 L 91.667969 32.019531 L 86.519531 32.082031 " transform="matrix(1,0,0,-1,0,104.589844)"/>
<path style="fill:none;stroke-width:2.26;stroke-linecap:round;stroke-linejoin:round;stroke:rgb(0%,0%,0%);stroke-opacity:1;stroke-miterlimit:10;" d="M 86.699219 32.433594 L 86.339844 46.316406 " transform="matrix(1,0,0,-1,0,104.589844)"/>
<path style="fill:none;stroke-width:2.26;stroke-linecap:round;stroke-linejoin:round;stroke:rgb(0%,0%,0%);stroke-opacity:1;stroke-miterlimit:10;" d="M 86.160156 45.746094 L 93.4375 46.144531 " transform="matrix(1,0,0,-1,0,104.589844)"/>
<path style="fill:none;stroke-width:2.26;stroke-linecap:round;stroke-linejoin:round;stroke:rgb(0%,0%,0%);stroke-opacity:1;stroke-miterlimit:10;" d="M 92.988281 45.703125 L 92.789062 51.371094 L 92.59375 57.042969 L 92.394531 62.710938 L 92.199219 68.378906 L 92 74.046875 " transform="matrix(1,0,0,-1,0,104.589844)"/>
<path style="fill:none;stroke-width:2.26;stroke-linecap:round;stroke-linejoin:round;stroke:rgb(0%,0%,0%);stroke-opacity:1;stroke-miterlimit:10;" d="M 91.910156 73.960938 L 85.800781 73.519531 " transform="matrix(1,0,0,-1,0,104.589844)"/>
<path style="fill:none;stroke-width:2.26;stroke-linecap:round;stroke-linejoin:round;stroke:rgb(0%,0%,0%);stroke-opacity:1;stroke-miterlimit:10;" d="M 85.800781 73.433594 L 85.800781 85.871094 " transform="matrix(1,0,0,-1,0,104.589844)"/>
<path style="fill:none;stroke-width:2.26;stroke-linecap:round;stroke-linejoin:round;stroke:rgb(0%,0%,0%);stroke-opacity:1;stroke-miterlimit:10;" d="M 58.039062 94.085938 L 63.160156 94.105469 L 73.402344 94.136719 L 78.523438 94.15625 L 88.765625 94.1875 L 93.886719 94.207031 L 104.128906 94.238281 L 109.25 94.257813 L 119.492188 94.289063 L 124.613281 94.308594 L 139.976562 94.355469 L 145.097656 94.375 L 155.339844 94.40625 L 160.460938 94.425781 L 170.703125 94.457031 L 175.824219 94.476563 L 186.066406 94.507813 L 191.1875 94.527344 L 201.429688 94.558594 L 206.550781 94.578125 L 216.792969 94.609375 L 221.914062 94.628906 L 232.15625 94.660156 L 237.277344 94.679688 L 247.519531 94.710938 L 252.640625 94.730469 L 257.761719 94.746094 " transform="matrix(1,0,0,-1,0,104.589844)"/>
<path style="fill:none;stroke-width:2.26;stroke-linecap:round;stroke-linejoin:round;stroke:rgb(0%,0%,0%);stroke-opacity:1;stroke-miterlimit:10;" d="M 257.671875 94.660156 L 257.601562 84.425781 L 257.5625 79.3125 L 257.527344 74.199219 L 257.492188 69.082031 " transform="matrix(1,0,0,-1,0,104.589844)"/>
<path style="fill:none;stroke-width:2.26;stroke-linecap:round;stroke-linejoin:round;stroke:rgb(0%,0%,0%);stroke-opacity:1;stroke-miterlimit:10;" d="M 257.761719 69.214844 L 265.21875 69.082031 " transform="matrix(1,0,0,-1,0,104.589844)"/>
<path style="fill:none;stroke-width:2.26;stroke-linecap:round;stroke-linejoin:round;stroke:rgb(0%,0%,0%);stroke-opacity:1;stroke-miterlimit:10;" d="M 265.21875 69.347656 L 264.679688 39.066406 " transform="matrix(1,0,0,-1,0,104.589844)"/>
<path style="fill:none;stroke-width:2.26;stroke-linecap:round;stroke-linejoin:round;stroke:rgb(0%,0%,0%);stroke-opacity:1;stroke-miterlimit:10;" d="M 264.230469 39.242188 L 258.660156 39.285156 " transform="matrix(1,0,0,-1,0,104.589844)"/>
<path style="fill:none;stroke-width:2.26;stroke-linecap:round;stroke-linejoin:round;stroke:rgb(0%,0%,0%);stroke-opacity:1;stroke-miterlimit:10;" d="M 258.480469 39.023438 L 258.34375 33.917969 L 258.078125 23.707031 L 257.941406 18.601563 L 257.804688 13.5 L 257.671875 8.394531 " transform="matrix(1,0,0,-1,0,104.589844)"/>
<path style="fill:none;stroke-width:2.26;stroke-linecap:round;stroke-linejoin:round;stroke:rgb(0%,0%,0%);stroke-opacity:1;stroke-miterlimit:10;" d="M 257.3125 8.523438 L 252.210938 8.542969 L 247.113281 8.558594 L 242.011719 8.574219 L 236.910156 8.59375 L 231.8125 8.609375 L 226.710938 8.625 L 221.609375 8.644531 L 216.507812 8.660156 L 211.410156 8.675781 L 206.308594 8.695313 L 201.207031 8.710938 L 196.109375 8.726563 L 191.007812 8.746094 L 185.90625 8.761719 L 180.808594 8.777344 L 175.707031 8.796875 L 170.605469 8.8125 L 165.507812 8.828125 L 160.40625 8.847656 L 150.203125 8.878906 L 145.105469 8.898438 L 134.902344 8.929688 L 129.804688 8.949219 L 119.601562 8.980469 L 114.503906 9 L 104.300781 9.03125 L 99.203125 9.050781 L 89 9.082031 L 83.898438 9.101563 L 78.800781 9.117188 L 73.699219 9.132813 L 68.597656 9.152344 L 63.5 9.167969 L 58.398438 9.183594 " transform="matrix(1,0,0,-1,0,104.589844)"/>
<path style="fill:none;stroke-width:2.26;stroke-linecap:round;stroke-linejoin:round;stroke:rgb(0%,0%,0%);stroke-opacity:1;stroke-miterlimit:10;" d="M 58.398438 10.0625 L 58.273438 15.695313 L 58.148438 21.332031 L 58.019531 26.964844 L 57.769531 38.230469 " transform="matrix(1,0,0,-1,0,104.589844)"/>
<path style="fill:none;stroke-width:2.26;stroke-linecap:round;stroke-linejoin:round;stroke:rgb(0%,0%,0%);stroke-opacity:1;stroke-miterlimit:10;" d="M 58.039062 38.582031 L 64.328125 38.671875 " transform="matrix(1,0,0,-1,0,104.589844)"/>
<path style="fill:none;stroke-width:2.26;stroke-linecap:round;stroke-linejoin:round;stroke:rgb(0%,0%,0%);stroke-opacity:1;stroke-miterlimit:10;" d="M 64.148438 38.847656 L 63.898438 44.3125 L 63.644531 49.78125 L 63.394531 55.246094 L 63.140625 60.714844 L 62.890625 66.183594 " transform="matrix(1,0,0,-1,0,104.589844)"/>
<path style="fill:none;stroke-width:2.26;stroke-linecap:round;stroke-linejoin:round;stroke:rgb(0%,0%,0%);stroke-opacity:1;stroke-miterlimit:10;" d="M 63.25 66.355469 L 57.769531 66.226563 " transform="matrix(1,0,0,-1,0,104.589844)"/>
<path style="fill:none;stroke-width:2.26;stroke-linecap:round;stroke-linejoin:round;stroke:rgb(0%,0%,0%);stroke-opacity:1;stroke-miterlimit:10;" d="M 57.859375 66.269531 L 57.929688 71.570313 L 58.003906 76.871094 L 58.074219 82.167969 L 58.148438 87.46875 L 58.21875 92.769531 " transform="matrix(1,0,0,-1,0,104.589844)"/>
<path style="fill:none;stroke-width:2.26;stroke-linecap:round;stroke-linejoin:round;stroke:rgb(0%,0%,0%);stroke-opacity:1;stroke-miterlimit:10;" d="M 266.117188 53.480469 L 271.566406 53.453125 L 277.019531 53.421875 L 282.46875 53.394531 " transform="matrix(1,0,0,-1,0,104.589844)"/>
<path style="fill:none;stroke-width:1.41;stroke-linecap:round;stroke-linejoin:round;stroke:rgb(0%,0%,0%);stroke-opacity:1;stroke-miterlimit:10;" d="M 296.125 58.445313 L 296.304688 58.710938 L 296.214844 59.195313 L 295.855469 59.675781 L 295.136719 60.25 L 293.878906 60.644531 L 292.351562 60.644531 L 290.824219 60.160156 L 289.65625 59.148438 L 289.296875 58.050781 L 289.925781 56.996094 L 291.363281 55.941406 L 293.339844 54.976563 L 295.226562 53.832031 L 296.574219 52.425781 L 296.933594 51.019531 L 296.574219 49.832031 L 295.226562 48.953125 L 293.429688 48.691406 L 291.453125 49.042969 L 289.835938 49.65625 L 288.847656 50.40625 L 288.488281 51.019531 L 288.398438 51.460938 " transform="matrix(1,0,0,-1,0,104.589844)"/>
<path style="fill:none;stroke-width:1.41;stroke-linecap:round;stroke-linejoin:round;stroke:rgb(0%,0%,0%);stroke-opacity:1;stroke-miterlimit:10;" d="M 301.515625 59.371094 L 301.425781 59.589844 L 301.425781 53.304688 L 301.515625 50.625 L 302.054688 48.953125 L 302.863281 48.207031 L 303.941406 48.121094 L 304.75 48.296875 L 305.46875 48.734375 " transform="matrix(1,0,0,-1,0,104.589844)"/>
<path style="fill:none;stroke-width:1.41;stroke-linecap:round;stroke-linejoin:round;stroke:rgb(0%,0%,0%);stroke-opacity:1;stroke-miterlimit:10;" d="M 299.269531 54.710938 L 299.179688 54.929688 L 299.71875 55.019531 L 300.527344 55.195313 L 301.515625 55.371094 L 302.59375 55.414063 L 303.492188 55.546875 L 304.300781 55.632813 L 305.019531 55.679688 L 305.738281 55.722656 " transform="matrix(1,0,0,-1,0,104.589844)"/>
<path style="fill:none;stroke-width:1.41;stroke-linecap:round;stroke-linejoin:round;stroke:rgb(0%,0%,0%);stroke-opacity:1;stroke-miterlimit:10;" d="M 307.085938 54.273438 L 307.175781 53.746094 L 307.355469 52.644531 L 307.625 51.328125 L 307.984375 50.140625 L 308.164062 48.953125 L 307.894531 49.921875 L 307.804688 51.503906 L 308.074219 53.613281 L 308.523438 55.28125 L 309.242188 56.292969 L 310.050781 56.558594 L 310.769531 56.425781 L 311.578125 56.292969 " transform="matrix(1,0,0,-1,0,104.589844)"/>
<path style="fill:none;stroke-width:1.41;stroke-linecap:round;stroke-linejoin:round;stroke:rgb(0%,0%,0%);stroke-opacity:1;stroke-miterlimit:10;" d="M 314.183594 58.183594 L 314.183594 58.445313 " transform="matrix(1,0,0,-1,0,104.589844)"/>
<path style="fill:none;stroke-width:1.41;stroke-linecap:round;stroke-linejoin:round;stroke:rgb(0%,0%,0%);stroke-opacity:1;stroke-miterlimit:10;" d="M 313.644531 54.753906 L 313.464844 53.523438 L 313.464844 52.074219 L 313.375 50.800781 L 313.554688 49.878906 " transform="matrix(1,0,0,-1,0,104.589844)"/>
<path style="fill:none;stroke-width:1.41;stroke-linecap:round;stroke-linejoin:round;stroke:rgb(0%,0%,0%);stroke-opacity:1;stroke-miterlimit:10;" d="M 315.082031 49.042969 L 315.082031 50.800781 L 315.261719 51.546875 L 315.441406 52.382813 L 316.070312 53.4375 L 316.789062 54.316406 L 317.867188 54.578125 L 319.125 54.140625 L 320.023438 52.691406 L 320.652344 51.152344 L 320.832031 49.878906 L 320.742188 49.128906 L 320.742188 48.867188 " transform="matrix(1,0,0,-1,0,104.589844)"/>
<path style="fill:none;stroke-width:1.41;stroke-linecap:round;stroke-linejoin:round;stroke:rgb(0%,0%,0%);stroke-opacity:1;stroke-miterlimit:10;" d="M 325.59375 52.777344 L 325.414062 53.480469 L 325.144531 53.964844 L 324.785156 54.226563 L 324.515625 54.316406 L 324.066406 54.273438 L 323.617188 53.746094 L 323.257812 52.867188 L 323.167969 51.589844 L 323.347656 50.183594 L 324.066406 49.304688 L 325.054688 49.175781 L 325.953125 49.921875 L 326.492188 51.328125 L 326.671875 52.867188 L 326.671875 54.273438 L 326.761719 54.050781 L 327.03125 53.261719 L 327.390625 51.722656 L 327.839844 49.480469 L 328.019531 46.582031 L 327.570312 43.902344 L 326.402344 42.1875 L 324.695312 41.660156 L 322.988281 42.363281 L 321.550781 43.726563 " transform="matrix(1,0,0,-1,0,104.589844)"/>
<path style="fill:none;stroke-width:1.41;stroke-linecap:round;stroke-linejoin:round;stroke:rgb(0%,0%,0%);stroke-opacity:1;stroke-miterlimit:10;" d="M 331.164062 59.984375 L 331.164062 55.589844 L 331.253906 52.953125 L 331.792969 50.535156 L 332.691406 49.21875 L 333.769531 49.042969 L 335.117188 50.183594 L 336.105469 52.382813 L 336.824219 55.019531 L 337.183594 57.4375 L 337.09375 58.710938 L 337.273438 57.039063 L 337.632812 54.578125 L 338.261719 52.164063 L 338.890625 50.273438 L 339.339844 49.480469 L 339.609375 49.394531 L 339.878906 49.65625 " transform="matrix(1,0,0,-1,0,104.589844)"/>
<path style="fill:none;stroke-width:1.41;stroke-linecap:round;stroke-linejoin:round;stroke:rgb(0%,0%,0%);stroke-opacity:1;stroke-miterlimit:10;" d="M 342.664062 61.699219 L 342.574219 61.304688 L 342.574219 57.613281 L 342.484375 55.238281 L 342.484375 50.535156 L 342.664062 49.394531 L 343.023438 48.425781 L 343.742188 47.945313 L 344.550781 47.898438 L 345.269531 48.339844 L 345.71875 49.042969 " transform="matrix(1,0,0,-1,0,104.589844)"/>
<path style="fill:none;stroke-width:1.41;stroke-linecap:round;stroke-linejoin:round;stroke:rgb(0%,0%,0%);stroke-opacity:1;stroke-miterlimit:10;" d="M 340.507812 55.765625 L 340.777344 55.984375 L 341.316406 56.160156 L 342.214844 56.335938 L 343.292969 56.425781 L 344.011719 56.511719 L 344.640625 56.558594 L 345.179688 56.644531 L 345.628906 56.734375 " transform="matrix(1,0,0,-1,0,104.589844)"/>
<path style="fill:none;stroke-width:1.41;stroke-linecap:round;stroke-linejoin:round;stroke:rgb(0%,0%,0%);stroke-opacity:1;stroke-miterlimit:10;" d="M 346.257812 57.128906 L 346.617188 57.390625 L 346.707031 57.613281 L 346.886719 57.789063 " transform="matrix(1,0,0,-1,0,104.589844)"/>
<path style="fill:none;stroke-width:1.41;stroke-linecap:round;stroke-linejoin:round;stroke:rgb(0%,0%,0%);stroke-opacity:1;stroke-miterlimit:10;" d="M 347.15625 55.414063 L 347.15625 54.359375 L 347.515625 51.109375 L 347.785156 49.703125 L 347.964844 48.515625 " transform="matrix(1,0,0,-1,0,104.589844)"/>
<path style="fill:none;stroke-width:1.41;stroke-linecap:round;stroke-linejoin:round;stroke:rgb(0%,0%,0%);stroke-opacity:1;stroke-miterlimit:10;" d="M 349.851562 59.28125 L 349.851562 58.929688 L 349.941406 57.523438 L 350.210938 55.238281 L 350.480469 52.867188 L 350.660156 50.933594 L 350.929688 49.789063 " transform="matrix(1,0,0,-1,0,104.589844)"/>
<path style="fill:none;stroke-width:1.41;stroke-linecap:round;stroke-linejoin:round;stroke:rgb(0%,0%,0%);stroke-opacity:1;stroke-miterlimit:10;" d="M 357.847656 55.195313 L 357.578125 55.765625 L 357.398438 56.25 L 357.128906 56.644531 L 356.769531 57.085938 L 356.140625 57.304688 L 355.421875 57.4375 L 354.613281 57.4375 L 354.074219 57.171875 L 353.625 56.820313 L 353.804688 55.855469 L 354.523438 54.535156 L 355.78125 52.953125 L 357.21875 51.238281 L 358.207031 50.054688 L 358.386719 49.304688 L 357.488281 48.910156 L 356.140625 48.867188 L 354.972656 48.953125 L 354.253906 49.175781 " transform="matrix(1,0,0,-1,0,104.589844)"/>
<path style="fill:none;stroke-width:1.41;stroke-linecap:round;stroke-linejoin:round;stroke:rgb(0%,0%,0%);stroke-opacity:1;stroke-miterlimit:10;" d="M 16.621094 58.535156 L 16.710938 58.929688 L 16.441406 59.546875 L 15.722656 60.292969 L 14.285156 61.039063 L 12.667969 61.304688 L 11.230469 60.953125 L 10.601562 59.851563 L 10.960938 58.492188 L 12.308594 57.085938 L 13.925781 56.03125 L 15.8125 55.195313 L 17.429688 54.402344 L 18.417969 53.746094 L 19.136719 52.867188 L 18.507812 51.988281 L 16.980469 51.328125 L 15.183594 50.84375 L 13.386719 50.710938 L 11.859375 51.019531 L 10.960938 51.460938 L 10.332031 52.03125 L 9.972656 52.691406 " transform="matrix(1,0,0,-1,0,104.589844)"/>
<path style="fill:none;stroke-width:1.41;stroke-linecap:round;stroke-linejoin:round;stroke:rgb(0%,0%,0%);stroke-opacity:1;stroke-miterlimit:10;" d="M 22.011719 61.832031 L 21.921875 62.050781 L 22.011719 60.863281 L 22.101562 59.019531 L 22.191406 56.863281 L 22.191406 54.273438 L 22.371094 51.898438 L 22.550781 50.316406 L 23 49.085938 L 23.71875 48.824219 L 24.617188 49.085938 L 25.515625 49.527344 L 26.144531 50.097656 " transform="matrix(1,0,0,-1,0,104.589844)"/>
<path style="fill:none;stroke-width:1.41;stroke-linecap:round;stroke-linejoin:round;stroke:rgb(0%,0%,0%);stroke-opacity:1;stroke-miterlimit:10;" d="M 20.84375 56.25 L 21.382812 56.601563 L 22.191406 56.863281 L 23.449219 57.039063 L 24.4375 57.085938 L 25.066406 57.085938 L 25.605469 57.171875 L 25.964844 57.304688 L 26.324219 57.523438 " transform="matrix(1,0,0,-1,0,104.589844)"/>
<path style="fill:none;stroke-width:1.41;stroke-linecap:round;stroke-linejoin:round;stroke:rgb(0%,0%,0%);stroke-opacity:1;stroke-miterlimit:10;" d="M 27.941406 55.371094 L 28.03125 54.140625 L 28.300781 52.46875 L 28.660156 50.800781 L 28.929688 49.832031 L 28.929688 49.480469 L 28.75 49.746094 L 28.570312 50.886719 L 28.570312 52.25 L 28.75 53.875 L 29.199219 55.457031 L 29.738281 56.425781 L 30.457031 56.953125 L 31.085938 57.128906 L 32.074219 56.953125 L 32.972656 56.644531 L 33.691406 56.335938 L 34.320312 55.898438 " transform="matrix(1,0,0,-1,0,104.589844)"/>
<path style="fill:none;stroke-width:1.41;stroke-linecap:round;stroke-linejoin:round;stroke:rgb(0%,0%,0%);stroke-opacity:1;stroke-miterlimit:10;" d="M 114.28125 63.542969 L 114.101562 63.894531 L 113.652344 64.160156 L 113.113281 64.378906 L 112.214844 64.425781 L 111.316406 64.027344 L 110.417969 63.148438 L 109.609375 61.65625 L 109.339844 60.027344 L 109.609375 58.492188 L 110.597656 57.304688 L 111.945312 56.644531 L 113.203125 56.46875 L 114.191406 56.644531 L 114.640625 57.042969 L 115 57.566406 L 115.179688 58.007813 L 115.449219 58.402344 " transform="matrix(1,0,0,-1,0,104.589844)"/>
<path style="fill:none;stroke-width:1.41;stroke-linecap:round;stroke-linejoin:round;stroke:rgb(0%,0%,0%);stroke-opacity:1;stroke-miterlimit:10;" d="M 119.3125 62.667969 L 119.132812 62.972656 L 118.683594 62.972656 L 117.964844 62.359375 L 117.15625 61.214844 L 116.4375 59.675781 L 116.167969 58.183594 L 116.527344 57.128906 L 117.246094 56.46875 L 118.054688 56.207031 L 118.863281 56.207031 L 119.671875 56.644531 L 120.121094 57.523438 L 120.300781 58.929688 L 120.210938 60.425781 L 119.851562 61.613281 L 119.671875 62.445313 " transform="matrix(1,0,0,-1,0,104.589844)"/>
<path style="fill:none;stroke-width:1.41;stroke-linecap:round;stroke-linejoin:round;stroke:rgb(0%,0%,0%);stroke-opacity:1;stroke-miterlimit:10;" d="M 123.175781 56.910156 L 122.816406 57.128906 L 122.636719 57.875 L 122.636719 59.105469 L 122.996094 60.644531 L 123.804688 62.007813 L 124.703125 62.621094 L 125.511719 62.578125 L 126.140625 61.742188 L 126.410156 60.777344 L 126.679688 59.503906 L 126.769531 58.050781 L 126.859375 56.777344 L 126.949219 55.765625 L 126.949219 55.238281 " transform="matrix(1,0,0,-1,0,104.589844)"/>
<path style="fill:none;stroke-width:1.41;stroke-linecap:round;stroke-linejoin:round;stroke:rgb(0%,0%,0%);stroke-opacity:1;stroke-miterlimit:10;" d="M 131.890625 61.433594 L 131.890625 62.007813 L 131.800781 62.402344 L 131.710938 62.621094 L 131.351562 62.621094 L 130.8125 62.488281 L 130.363281 62.136719 L 129.734375 61.171875 L 129.285156 60.207031 L 129.105469 59.152344 L 129.285156 57.875 L 129.914062 57.085938 L 130.632812 56.425781 L 131.351562 56.117188 L 131.890625 56.074219 L 132.519531 56.425781 " transform="matrix(1,0,0,-1,0,104.589844)"/>
<path style="fill:none;stroke-width:1.41;stroke-linecap:round;stroke-linejoin:round;stroke:rgb(0%,0%,0%);stroke-opacity:1;stroke-miterlimit:10;" d="M 135.574219 61.261719 L 135.125 61.832031 L 134.855469 62.316406 L 134.945312 62.839844 L 135.574219 63.238281 L 136.382812 63.191406 L 137.28125 62.796875 L 137.910156 61.785156 L 138.179688 59.984375 L 138.089844 58.359375 L 138 56.820313 L 138 55.941406 L 138.179688 56.425781 L 138 57.171875 L 137.820312 57.832031 L 137.460938 58.316406 L 136.742188 58.753906 L 135.664062 58.535156 L 134.675781 57.875 L 134.046875 56.953125 L 134.316406 55.941406 L 135.304688 55.457031 L 136.382812 55.371094 L 137.550781 55.722656 " transform="matrix(1,0,0,-1,0,104.589844)"/>
<path style="fill:none;stroke-width:1.41;stroke-linecap:round;stroke-linejoin:round;stroke:rgb(0%,0%,0%);stroke-opacity:1;stroke-miterlimit:10;" d="M 141.953125 67.851563 L 141.863281 68.335938 L 141.773438 67.675781 L 141.773438 67.148438 L 141.683594 66.445313 L 141.683594 65.523438 L 141.59375 64.160156 L 141.414062 62.136719 L 141.324219 59.898438 L 141.59375 57.875 L 142.222656 56.511719 L 143.03125 55.988281 L 143.839844 55.988281 L 144.289062 56.425781 " transform="matrix(1,0,0,-1,0,104.589844)"/>
<path style="fill:none;stroke-width:1.41;stroke-linecap:round;stroke-linejoin:round;stroke:rgb(0%,0%,0%);stroke-opacity:1;stroke-miterlimit:10;" d="M 139.4375 63.238281 L 139.257812 63.542969 L 139.796875 63.808594 L 140.515625 63.894531 L 141.234375 63.851563 L 141.953125 63.851563 L 142.851562 63.808594 L 143.660156 63.765625 L 144.46875 63.589844 " transform="matrix(1,0,0,-1,0,104.589844)"/>
<path style="fill:none;stroke-width:1.41;stroke-linecap:round;stroke-linejoin:round;stroke:rgb(0%,0%,0%);stroke-opacity:1;stroke-miterlimit:10;" d="M 146.714844 59.238281 L 147.34375 59.0625 L 148.152344 59.019531 L 148.871094 59.019531 L 149.5 59.105469 L 149.859375 59.324219 " transform="matrix(1,0,0,-1,0,104.589844)"/>
<path style="fill:none;stroke-width:1.41;stroke-linecap:round;stroke-linejoin:round;stroke:rgb(0%,0%,0%);stroke-opacity:1;stroke-miterlimit:10;" d="M 151.296875 63.414063 L 151.207031 63.765625 L 151.117188 63.984375 " transform="matrix(1,0,0,-1,0,104.589844)"/>
<path style="fill:none;stroke-width:1.41;stroke-linecap:round;stroke-linejoin:round;stroke:rgb(0%,0%,0%);stroke-opacity:1;stroke-miterlimit:10;" d="M 152.195312 61.832031 L 152.285156 60.558594 L 152.375 59.019531 L 152.464844 57.566406 L 152.554688 56.425781 L 152.644531 55.722656 " transform="matrix(1,0,0,-1,0,104.589844)"/>
<path style="fill:none;stroke-width:1.41;stroke-linecap:round;stroke-linejoin:round;stroke:rgb(0%,0%,0%);stroke-opacity:1;stroke-miterlimit:10;" d="M 155.160156 56.207031 L 155.160156 57.65625 L 155.609375 59.324219 L 156.417969 60.777344 L 157.585938 60.863281 L 158.484375 59.589844 L 159.023438 57.613281 L 159.203125 55.765625 L 159.292969 54.800781 " transform="matrix(1,0,0,-1,0,104.589844)"/>
<path style="fill:none;stroke-width:1.41;stroke-linecap:round;stroke-linejoin:round;stroke:rgb(0%,0%,0%);stroke-opacity:1;stroke-miterlimit:10;" d="M 165.941406 60.644531 L 165.671875 61.214844 L 165.492188 61.480469 L 165.132812 61.699219 L 164.414062 61.65625 L 163.605469 61.390625 L 162.796875 60.558594 L 162.257812 59.546875 L 161.988281 58.449219 L 162.257812 57.042969 L 163.246094 56.117188 L 164.503906 55.898438 L 165.761719 56.511719 L 166.660156 58.269531 L 167.019531 60.601563 L 166.75 63.148438 L 166.390625 65.171875 L 166.121094 65.699219 L 166.210938 64.644531 L 166.570312 62.183594 L 167.109375 59.457031 L 167.558594 57.613281 L 168.097656 56.777344 " transform="matrix(1,0,0,-1,0,104.589844)"/>
<path style="fill:none;stroke-width:1.41;stroke-linecap:round;stroke-linejoin:round;stroke:rgb(0%,0%,0%);stroke-opacity:1;stroke-miterlimit:10;" d="M 171.332031 60.027344 L 172.140625 60.027344 L 173.128906 60.425781 L 174.117188 61.304688 L 174.835938 62.269531 L 174.925781 63.238281 L 174.386719 63.851563 L 173.308594 63.722656 L 172.230469 63.324219 L 171.332031 62.667969 L 170.703125 61.742188 L 170.523438 61.039063 L 170.613281 59.722656 L 170.972656 58.226563 L 171.78125 56.910156 L 172.769531 55.988281 L 173.757812 55.941406 L 174.835938 56.425781 " transform="matrix(1,0,0,-1,0,104.589844)"/>
<path style="fill:none;stroke-width:1.41;stroke-linecap:round;stroke-linejoin:round;stroke:rgb(0%,0%,0%);stroke-opacity:1;stroke-miterlimit:10;" d="M 183.011719 68.6875 L 182.832031 69.609375 L 182.292969 70.488281 L 181.394531 70.839844 L 180.496094 70.402344 L 179.6875 69.433594 L 179.238281 68.203125 L 179.058594 67.058594 L 179.238281 65.523438 L 179.597656 63.542969 L 180.046875 60.996094 L 180.40625 58.359375 L 180.675781 56.382813 L 180.675781 55.019531 L 180.226562 54.625 " transform="matrix(1,0,0,-1,0,104.589844)"/>
<path style="fill:none;stroke-width:1.41;stroke-linecap:round;stroke-linejoin:round;stroke:rgb(0%,0%,0%);stroke-opacity:1;stroke-miterlimit:10;" d="M 177.710938 59.457031 L 177.53125 60.25 L 178.339844 60.863281 L 179.777344 61.390625 L 181.664062 61.742188 L 183.371094 61.917969 L 184.359375 61.964844 L 184.71875 62.050781 " transform="matrix(1,0,0,-1,0,104.589844)"/>
<path style="fill:none;stroke-width:1.41;stroke-linecap:round;stroke-linejoin:round;stroke:rgb(0%,0%,0%);stroke-opacity:1;stroke-miterlimit:10;" d="M 145.546875 22.761719 L 145.726562 22.984375 L 145.277344 23.421875 L 144.46875 23.597656 L 143.480469 23.378906 L 142.492188 22.984375 L 141.863281 22.324219 L 141.503906 21.664063 L 141.503906 21.269531 L 141.59375 20.875 L 141.773438 20.523438 L 142.492188 20.082031 L 143.660156 19.511719 L 144.917969 18.632813 L 145.996094 17.578125 L 146.085938 16.699219 L 145.277344 16.257813 L 144.109375 16.257813 L 142.851562 16.65625 L 142.132812 17.136719 L 141.773438 17.535156 L 141.683594 17.886719 " transform="matrix(1,0,0,-1,0,104.589844)"/>
<path style="fill:none;stroke-width:1.41;stroke-linecap:round;stroke-linejoin:round;stroke:rgb(0%,0%,0%);stroke-opacity:1;stroke-miterlimit:10;" d="M 148.421875 24.742188 L 148.421875 24.476563 L 148.511719 23.378906 L 148.601562 21.621094 L 148.691406 19.46875 L 148.960938 17.621094 L 149.679688 16.480469 L 150.578125 16.039063 L 151.566406 16.039063 L 152.285156 16.257813 L 152.644531 16.742188 " transform="matrix(1,0,0,-1,0,104.589844)"/>
<path style="fill:none;stroke-width:1.41;stroke-linecap:round;stroke-linejoin:round;stroke:rgb(0%,0%,0%);stroke-opacity:1;stroke-miterlimit:10;" d="M 146.265625 19.730469 L 146.804688 19.949219 L 147.792969 20.039063 L 149.410156 20.214844 L 151.117188 20.390625 L 152.195312 20.523438 L 153.183594 20.699219 " transform="matrix(1,0,0,-1,0,104.589844)"/>
<path style="fill:none;stroke-width:1.41;stroke-linecap:round;stroke-linejoin:round;stroke:rgb(0%,0%,0%);stroke-opacity:1;stroke-miterlimit:10;" d="M 153.992188 19.90625 L 154.351562 18.851563 L 154.710938 17.886719 L 155.070312 16.960938 L 155.25 16.304688 L 155.070312 16.523438 L 154.800781 17.402344 L 154.890625 18.71875 L 155.070312 20.171875 L 155.609375 21.445313 L 156.328125 22.324219 " transform="matrix(1,0,0,-1,0,104.589844)"/>
<path style="fill:none;stroke-width:1.41;stroke-linecap:round;stroke-linejoin:round;stroke:rgb(0%,0%,0%);stroke-opacity:1;stroke-miterlimit:10;" d="M 158.484375 23.949219 L 158.664062 24.257813 " transform="matrix(1,0,0,-1,0,104.589844)"/>
<path style="fill:none;stroke-width:1.41;stroke-linecap:round;stroke-linejoin:round;stroke:rgb(0%,0%,0%);stroke-opacity:1;stroke-miterlimit:10;" d="M 159.652344 21.664063 L 159.742188 20.433594 L 159.832031 19.160156 L 159.921875 17.796875 L 160.101562 16.480469 L 160.191406 15.863281 " transform="matrix(1,0,0,-1,0,104.589844)"/>
<path style="fill:none;stroke-width:1.41;stroke-linecap:round;stroke-linejoin:round;stroke:rgb(0%,0%,0%);stroke-opacity:1;stroke-miterlimit:10;" d="M 162.527344 16.480469 L 162.527344 17.796875 L 162.886719 19.335938 L 163.515625 20.875 L 164.324219 22.191406 L 165.132812 22.808594 L 165.671875 22.542969 L 166.121094 22.015625 L 166.480469 21.050781 L 166.929688 19.730469 L 167.109375 18.324219 L 167.289062 17.007813 L 167.378906 16.128906 L 167.648438 15.863281 " transform="matrix(1,0,0,-1,0,104.589844)"/>
<path style="fill:none;stroke-width:1.41;stroke-linecap:round;stroke-linejoin:round;stroke:rgb(0%,0%,0%);stroke-opacity:1;stroke-miterlimit:10;" d="M 172.589844 20.917969 L 171.871094 21.269531 L 171.332031 21.445313 L 170.433594 21.355469 L 169.714844 20.875 L 169.085938 20.214844 L 168.726562 19.070313 L 169.265625 18.015625 L 170.34375 17.402344 L 171.511719 17.226563 L 172.5 17.664063 L 173.128906 18.414063 L 173.21875 19.070313 L 173.128906 19.644531 L 173.039062 20.257813 L 172.859375 20.476563 L 172.769531 19.996094 L 172.949219 19.117188 L 173.128906 18.105469 L 173.398438 17.050781 L 173.578125 15.160156 L 173.308594 12.964844 L 172.320312 11.074219 L 170.972656 9.667969 L 169.355469 9.449219 L 168.007812 10.238281 L 167.289062 11.511719 " transform="matrix(1,0,0,-1,0,104.589844)"/>
<path style="fill:none;stroke-width:1.41;stroke-linecap:round;stroke-linejoin:round;stroke:rgb(0%,0%,0%);stroke-opacity:1;stroke-miterlimit:10;" d="M 175.824219 22.234375 L 175.644531 22.058594 L 175.644531 21.179688 L 176.003906 19.820313 L 176.632812 18.542969 L 177.53125 17.839844 L 178.519531 18.148438 L 179.328125 19.335938 L 179.777344 20.875 L 179.957031 22.058594 L 180.046875 22.28125 L 180.226562 21.664063 L 180.585938 20.609375 L 181.214844 19.160156 L 182.023438 18.148438 L 182.742188 17.578125 L 183.371094 17.269531 L 183.820312 17.445313 L 184.089844 17.664063 L 184.449219 18.105469 " transform="matrix(1,0,0,-1,0,104.589844)"/>
<path style="fill:none;stroke-width:1.41;stroke-linecap:round;stroke-linejoin:round;stroke:rgb(0%,0%,0%);stroke-opacity:1;stroke-miterlimit:10;" d="M 185.976562 26.324219 L 185.976562 22.851563 L 185.886719 21.003906 L 186.066406 19.160156 L 186.425781 17.445313 L 187.054688 16.171875 L 187.953125 15.863281 L 188.851562 16.257813 L 189.480469 16.875 L 189.929688 17.488281 " transform="matrix(1,0,0,-1,0,104.589844)"/>
<path style="fill:none;stroke-width:1.41;stroke-linecap:round;stroke-linejoin:round;stroke:rgb(0%,0%,0%);stroke-opacity:1;stroke-miterlimit:10;" d="M 184.628906 21.226563 L 184.179688 21.445313 L 183.820312 21.664063 L 183.910156 21.882813 L 185.078125 22.105469 L 186.515625 22.28125 L 188.042969 22.410156 L 189.660156 22.632813 " transform="matrix(1,0,0,-1,0,104.589844)"/>
<path style="fill:none;stroke-width:1.41;stroke-linecap:round;stroke-linejoin:round;stroke:rgb(0%,0%,0%);stroke-opacity:1;stroke-miterlimit:10;" d="M 191.277344 23.421875 L 191.726562 23.816406 L 191.996094 24.125 L 192.265625 24.039063 " transform="matrix(1,0,0,-1,0,104.589844)"/>
<path style="fill:none;stroke-width:1.41;stroke-linecap:round;stroke-linejoin:round;stroke:rgb(0%,0%,0%);stroke-opacity:1;stroke-miterlimit:10;" d="M 192.535156 19.597656 L 192.535156 18.894531 L 192.625 18.238281 L 192.804688 17.359375 L 192.984375 16.433594 L 193.074219 15.644531 L 193.164062 15.425781 " transform="matrix(1,0,0,-1,0,104.589844)"/>
<path style="fill:none;stroke-width:1.41;stroke-linecap:round;stroke-linejoin:round;stroke:rgb(0%,0%,0%);stroke-opacity:1;stroke-miterlimit:10;" d="M 196.308594 26.234375 L 196.128906 26.453125 L 196.21875 26.234375 L 196.308594 25.574219 L 196.488281 24.125 L 196.578125 22.058594 L 196.667969 19.820313 L 196.757812 17.972656 L 196.9375 16.875 " transform="matrix(1,0,0,-1,0,104.589844)"/>
<path style="fill:none;stroke-width:1.41;stroke-linecap:round;stroke-linejoin:round;stroke:rgb(0%,0%,0%);stroke-opacity:1;stroke-miterlimit:10;" d="M 201.878906 22.234375 L 201.96875 22.808594 L 201.96875 23.289063 L 201.878906 23.730469 L 201.609375 24.039063 L 200.890625 23.773438 L 200.082031 22.984375 L 199.273438 22.058594 L 198.914062 21.050781 L 199.09375 20.390625 L 199.632812 20.039063 L 200.53125 19.644531 L 201.699219 18.984375 L 202.777344 18.28125 L 203.316406 17.359375 L 203.316406 16.609375 L 202.867188 16.039063 L 202.238281 15.601563 L 201.699219 15.46875 L 201.070312 15.46875 L 200.351562 15.730469 L 199.722656 16.082031 L 199.183594 16.609375 " transform="matrix(1,0,0,-1,0,104.589844)"/>
<path style="fill:none;stroke-width:1.41;stroke-linecap:round;stroke-linejoin:round;stroke:rgb(0%,0%,0%);stroke-opacity:1;stroke-miterlimit:10;" d="M 206.28125 20.171875 L 206.820312 20.390625 L 209.246094 20.390625 L 210.324219 20.347656 L 211.3125 20.257813 L 211.851562 20.125 L 212.210938 20.039063 L 212.480469 19.996094 L 212.660156 20.257813 " transform="matrix(1,0,0,-1,0,104.589844)"/>
<path style="fill:none;stroke-width:1.41;stroke-linecap:round;stroke-linejoin:round;stroke:rgb(0%,0%,0%);stroke-opacity:1;stroke-miterlimit:10;" d="M 215.714844 24.476563 L 215.535156 24.695313 L 215.894531 24.433594 " transform="matrix(1,0,0,-1,0,104.589844)"/>
<path style="fill:none;stroke-width:1.41;stroke-linecap:round;stroke-linejoin:round;stroke:rgb(0%,0%,0%);stroke-opacity:1;stroke-miterlimit:10;" d="M 216.253906 21.796875 L 216.164062 20.609375 L 216.164062 18.148438 L 216.253906 17.226563 L 216.613281 16.742188 " transform="matrix(1,0,0,-1,0,104.589844)"/>
<path style="fill:none;stroke-width:1.41;stroke-linecap:round;stroke-linejoin:round;stroke:rgb(0%,0%,0%);stroke-opacity:1;stroke-miterlimit:10;" d="M 218.949219 17.578125 L 219.128906 17.886719 L 219.21875 18.71875 L 219.578125 19.949219 L 220.386719 21.09375 L 221.285156 22.015625 L 222.183594 22.28125 L 222.8125 21.972656 L 222.992188 21.445313 L 223.171875 20.699219 L 223.261719 19.730469 L 223.261719 17.621094 " transform="matrix(1,0,0,-1,0,104.589844)"/>
<path style="fill:none;stroke-width:1.41;stroke-linecap:round;stroke-linejoin:round;stroke:rgb(0%,0%,0%);stroke-opacity:1;stroke-miterlimit:10;" d="M 227.933594 20.917969 L 227.933594 21.445313 L 227.394531 21.664063 L 226.765625 21.621094 L 225.957031 21.355469 L 225.238281 20.828125 L 224.789062 20.171875 L 224.609375 19.554688 L 224.609375 19.070313 L 224.789062 18.542969 L 224.96875 18.105469 L 225.417969 17.664063 L 225.957031 17.269531 L 227.035156 17.535156 L 228.113281 18.5 L 229.011719 20.125 L 229.550781 22.015625 L 229.460938 24.257813 L 229.191406 25.882813 L 228.921875 26.894531 L 228.652344 27.421875 L 228.742188 25.925781 L 229.101562 23.597656 L 229.820312 20.960938 L 230.539062 18.457031 L 231.078125 17.136719 L 231.527344 16.742188 " transform="matrix(1,0,0,-1,0,104.589844)"/>
<path style="fill:none;stroke-width:1.41;stroke-linecap:round;stroke-linejoin:round;stroke:rgb(0%,0%,0%);stroke-opacity:1;stroke-miterlimit:10;" d="M 234.222656 19.554688 L 234.582031 19.773438 L 235.121094 20.125 L 235.75 20.699219 L 236.109375 21.445313 L 236.109375 22.191406 L 235.660156 22.851563 L 234.851562 22.9375 L 233.953125 22.585938 L 233.144531 21.796875 L 232.695312 20.476563 L 232.964844 19.203125 L 233.683594 18.105469 L 234.671875 17.359375 L 235.929688 17.226563 L 237.457031 18.015625 " transform="matrix(1,0,0,-1,0,104.589844)"/>
<path style="fill:none;stroke-width:1.41;stroke-linecap:round;stroke-linejoin:round;stroke:rgb(0%,0%,0%);stroke-opacity:1;stroke-miterlimit:10;" d="M 243.386719 25.003906 L 243.386719 25.445313 L 243.296875 25.75 L 243.207031 26.015625 L 243.027344 26.234375 L 242.667969 26.277344 L 242.128906 26.101563 L 241.679688 25.796875 L 241.230469 25.269531 L 240.960938 24.609375 L 240.871094 24.039063 L 240.871094 23.203125 L 241.140625 21.796875 L 241.589844 19.949219 L 241.949219 17.886719 L 242.21875 16.214844 L 242.308594 15.203125 L 241.949219 15.25 " transform="matrix(1,0,0,-1,0,104.589844)"/>
<path style="fill:none;stroke-width:1.41;stroke-linecap:round;stroke-linejoin:round;stroke:rgb(0%,0%,0%);stroke-opacity:1;stroke-miterlimit:10;" d="M 239.074219 20.699219 L 239.523438 21.050781 L 240.871094 21.269531 L 242.488281 21.445313 L 244.015625 21.402344 L 245.09375 21.355469 L 245.542969 21.269531 " transform="matrix(1,0,0,-1,0,104.589844)"/>
<path style="fill:none;stroke-width:2.26;stroke-linecap:round;stroke-linejoin:round;stroke:rgb(0%,0%,0%);stroke-opacity:1;stroke-miterlimit:10;" d="M 43.214844 54.359375 L 43.304688 54.050781 L 43.664062 53.832031 L 44.292969 53.699219 L 45.28125 53.570313 L 46.71875 53.613281 L 48.425781 53.746094 L 50.132812 53.832031 L 52.109375 53.964844 L 53.90625 54.140625 L 55.792969 54.359375 L 57.769531 54.667969 L 59.386719 54.886719 L 60.914062 55.105469 L 62.441406 55.414063 L 63.878906 55.722656 L 65.226562 56.117188 L 66.84375 56.601563 L 68.28125 57.085938 L 69.71875 57.613281 L 71.066406 58.09375 L 72.234375 58.578125 L 73.222656 59.105469 L 74.570312 59.675781 L 76.097656 60.292969 L 77.535156 60.777344 L 78.792969 61.128906 L 79.691406 61.347656 L 80.410156 61.523438 L 81.21875 61.65625 L 82.207031 61.832031 L 83.105469 61.960938 L 83.914062 62.050781 L 84.632812 62.183594 L 85.171875 62.3125 L 85.800781 62.488281 L 86.699219 62.710938 L 87.597656 62.839844 L 88.40625 62.929688 L 89.214844 63.015625 L 89.664062 62.972656 L 90.023438 62.972656 L 90.382812 63.015625 L 90.742188 63.015625 L 91.101562 63.0625 L 91.371094 63.105469 L 91.910156 63.105469 L 91.640625 63.238281 " transform="matrix(1,0,0,-1,0,104.589844)"/>
</g>
</svg>
