<?xml version="1.0" encoding="UTF-8"?>
<svg xmlns="http://www.w3.org/2000/svg" xmlns:xlink="http://www.w3.org/1999/xlink" width="367.28pt" height="104.59pt" viewBox="0 0 367.28 104.59" version="1.1">
<g id="surface1">
<path style="fill:none;stroke-width:2.26;stroke-linecap:round;stroke-linejoin:round;stroke:rgb(0%,0%,0%);stroke-opacity:1;stroke-miterlimit:10;" d="M 85.351562 87.101719 L 90.460938 87.12125 L 95.578125 87.140781 L 100.699219 87.160313 L 105.808594 87.179844 L 110.929688 87.191563 L 121.171875 87.230625 L 126.28125 87.250156 L 131.398438 87.269688 L 136.519531 87.281406 L 141.628906 87.300938 L 151.871094 87.34 L 156.980469 87.359531 L 162.101562 87.37125 L 167.21875 87.390781 L 172.339844 87.410313 L 177.449219 87.429844 L 182.570312 87.449375 L 187.691406 87.461094 L 192.800781 87.480625 L 197.921875 87.500156 " transform="matrix(1,0,0,-1,0,104.59)"/>
<path style="fill:none;stroke-width:2.26;stroke-linecap:round;stroke-linejoin:round;stroke:rgb(0%,0%,0%);stroke-opacity:1;stroke-miterlimit:10;" d="M 198.640625 87.238438 L 198.679688 81.238438 L 198.730469 75.238438 " transform="matrix(1,0,0,-1,0,104.59)"/>
<path style="fill:none;stroke-width:2.26;stroke-linecap:round;stroke-linejoin:round;stroke:rgb(0%,0%,0%);stroke-opacity:1;stroke-miterlimit:10;" d="M 198.730469 74.711094 L 204.300781 74.539219 " transform="matrix(1,0,0,-1,0,104.59)"/>
<path style="fill:none;stroke-width:2.26;stroke-linecap:round;stroke-linejoin:round;stroke:rgb(0%,0%,0%);stroke-opacity:1;stroke-miterlimit:10;" d="M 204.300781 74.179844 L 204.261719 68.800938 L 204.230469 63.410313 L 204.191406 58.019688 L 204.160156 52.629063 L 204.121094 47.250156 " transform="matrix(1,0,0,-1,0,104.59)"/>
<path style="fill:none;stroke-width:2.26;stroke-linecap:round;stroke-linejoin:round;stroke:rgb(0%,0%,0%);stroke-opacity:1;stroke-miterlimit:10;" d="M 204.300781 47.468906 L 199.449219 46.718906 " transform="matrix(1,0,0,-1,0,104.59)"/>
<path style="fill:none;stroke-width:2.26;stroke-linecap:round;stroke-linejoin:round;stroke:rgb(0%,0%,0%);stroke-opacity:1;stroke-miterlimit:10;" d="M 199.898438 47.468906 L 199.691406 42.019688 L 199.269531 31.12125 " transform="matrix(1,0,0,-1,0,104.59)"/>
<path style="fill:none;stroke-width:2.26;stroke-linecap:round;stroke-linejoin:round;stroke:rgb(0%,0%,0%);stroke-opacity:1;stroke-miterlimit:10;" d="M 199.808594 30.769688 L 194.660156 30.828281 L 189.511719 30.890781 L 184.359375 30.949375 L 179.210938 31.011875 L 174.058594 31.070469 L 168.910156 31.129063 L 163.761719 31.191563 L 158.609375 31.250156 L 153.460938 31.30875 L 148.308594 31.37125 L 138.011719 31.488438 L 132.859375 31.539219 L 127.710938 31.601719 L 122.558594 31.660313 L 117.410156 31.718906 L 112.261719 31.781406 L 107.109375 31.84 L 101.960938 31.898594 L 96.808594 31.961094 L 86.511719 32.078281 " transform="matrix(1,0,0,-1,0,104.59)"/>
<path style="fill:none;stroke-width:2.26;stroke-linecap:round;stroke-linejoin:round;stroke:rgb(0%,0%,0%);stroke-opacity:1;stroke-miterlimit:10;" d="M 86.691406 32.441563 L 86.511719 39.379063 L 86.339844 46.320469 " transform="matrix(1,0,0,-1,0,104.59)"/>
<path style="fill:none;stroke-width:2.26;stroke-linecap:round;stroke-linejoin:round;stroke:rgb(0%,0%,0%);stroke-opacity:1;stroke-miterlimit:10;" d="M 86.160156 45.750156 L 93.429688 46.148594 " transform="matrix(1,0,0,-1,0,104.59)"/>
<path style="fill:none;stroke-width:2.26;stroke-linecap:round;stroke-linejoin:round;stroke:rgb(0%,0%,0%);stroke-opacity:1;stroke-miterlimit:10;" d="M 92.980469 45.711094 L 92.789062 51.379063 L 92.589844 57.050938 L 92.390625 62.711094 L 92.191406 68.379063 L 92 74.050938 " transform="matrix(1,0,0,-1,0,104.59)"/>
<path style="fill:none;stroke-width:2.26;stroke-linecap:round;stroke-linejoin:round;stroke:rgb(0%,0%,0%);stroke-opacity:1;stroke-miterlimit:10;" d="M 91.910156 73.961094 L 85.800781 73.519688 " transform="matrix(1,0,0,-1,0,104.59)"/>
<path style="fill:none;stroke-width:2.26;stroke-linecap:round;stroke-linejoin:round;stroke:rgb(0%,0%,0%);stroke-opacity:1;stroke-miterlimit:10;" d="M 85.800781 73.441563 L 85.800781 85.87125 " transform="matrix(1,0,0,-1,0,104.59)"/>
<path style="fill:none;stroke-width:2.26;stroke-linecap:round;stroke-linejoin:round;stroke:rgb(0%,0%,0%);stroke-opacity:1;stroke-miterlimit:10;" d="M 58.03125 94.09 L 63.160156 94.109531 L 68.28125 94.12125 L 73.398438 94.140781 L 83.640625 94.179844 L 88.761719 94.191563 L 93.878906 94.211094 L 99 94.230625 L 104.121094 94.238438 L 109.25 94.261875 L 114.371094 94.281406 L 119.488281 94.289219 L 129.730469 94.328281 L 134.851562 94.34 L 139.96875 94.359531 L 150.210938 94.398594 L 155.339844 94.410313 L 160.460938 94.429844 L 165.578125 94.449375 L 170.699219 94.461094 L 180.941406 94.500156 L 186.058594 94.511875 L 196.300781 94.550938 L 201.421875 94.55875 L 206.550781 94.578281 L 211.671875 94.601719 L 216.789062 94.62125 L 221.910156 94.629063 L 227.03125 94.648594 L 232.148438 94.668125 L 237.269531 94.679844 L 247.511719 94.718906 L 252.640625 94.730625 L 257.761719 94.750156 " transform="matrix(1,0,0,-1,0,104.59)"/>
<path style="fill:none;stroke-width:2.26;stroke-linecap:round;stroke-linejoin:round;stroke:rgb(0%,0%,0%);stroke-opacity:1;stroke-miterlimit:10;" d="M 257.671875 94.660313 L 257.628906 89.550938 L 257.601562 84.429844 L 257.558594 79.320469 L 257.519531 74.199375 L 257.488281 69.09 " transform="matrix(1,0,0,-1,0,104.59)"/>
<path style="fill:none;stroke-width:2.26;stroke-linecap:round;stroke-linejoin:round;stroke:rgb(0%,0%,0%);stroke-opacity:1;stroke-miterlimit:10;" d="M 257.761719 69.218906 L 265.210938 69.09 " transform="matrix(1,0,0,-1,0,104.59)"/>
<path style="fill:none;stroke-width:2.26;stroke-linecap:round;stroke-linejoin:round;stroke:rgb(0%,0%,0%);stroke-opacity:1;stroke-miterlimit:10;" d="M 265.210938 69.351719 L 265.121094 64.300938 L 265.03125 59.261875 L 264.851562 49.160313 L 264.761719 44.12125 L 264.671875 39.070469 " transform="matrix(1,0,0,-1,0,104.59)"/>
<path style="fill:none;stroke-width:2.26;stroke-linecap:round;stroke-linejoin:round;stroke:rgb(0%,0%,0%);stroke-opacity:1;stroke-miterlimit:10;" d="M 264.230469 39.250156 L 258.660156 39.289219 " transform="matrix(1,0,0,-1,0,104.59)"/>
<path style="fill:none;stroke-width:2.26;stroke-linecap:round;stroke-linejoin:round;stroke:rgb(0%,0%,0%);stroke-opacity:1;stroke-miterlimit:10;" d="M 258.480469 39.031406 L 258.339844 33.918125 L 258.210938 28.820469 L 258.070312 23.711094 L 257.941406 18.609531 L 257.800781 13.500156 L 257.671875 8.398594 " transform="matrix(1,0,0,-1,0,104.59)"/>
<path style="fill:none;stroke-width:2.26;stroke-linecap:round;stroke-linejoin:round;stroke:rgb(0%,0%,0%);stroke-opacity:1;stroke-miterlimit:10;" d="M 257.308594 8.531406 L 252.210938 8.550938 L 247.109375 8.55875 L 242.011719 8.578281 L 236.910156 8.601719 L 231.808594 8.609531 L 226.710938 8.629063 L 221.609375 8.648594 L 216.5 8.660313 L 211.398438 8.679844 L 206.300781 8.699375 L 201.199219 8.718906 L 196.101562 8.730625 L 185.898438 8.769688 L 180.800781 8.781406 L 175.699219 8.800938 L 170.601562 8.820469 L 165.5 8.828281 L 160.398438 8.851719 L 155.300781 8.87125 L 150.199219 8.879063 L 145.101562 8.898594 L 140 8.918125 L 134.898438 8.941563 L 129.800781 8.949375 L 124.699219 8.968906 L 119.601562 8.988438 L 114.5 9.000156 L 109.398438 9.019688 L 104.300781 9.039219 L 99.199219 9.050938 L 94.101562 9.070469 L 89 9.09 L 83.898438 9.101719 L 78.800781 9.12125 L 73.691406 9.140781 L 68.589844 9.148594 L 63.488281 9.168125 L 58.390625 9.191563 " transform="matrix(1,0,0,-1,0,104.59)"/>
<path style="fill:none;stroke-width:2.26;stroke-linecap:round;stroke-linejoin:round;stroke:rgb(0%,0%,0%);stroke-opacity:1;stroke-miterlimit:10;" d="M 58.390625 10.070469 L 58.269531 15.699375 L 58.140625 21.34 L 58.019531 26.968906 L 57.890625 32.601719 L 57.761719 38.238438 " transform="matrix(1,0,0,-1,0,104.59)"/>
<path style="fill:none;stroke-width:2.26;stroke-linecap:round;stroke-linejoin:round;stroke:rgb(0%,0%,0%);stroke-opacity:1;stroke-miterlimit:10;" d="M 58.03125 38.59 L 64.320312 38.679844 " transform="matrix(1,0,0,-1,0,104.59)"/>
<path style="fill:none;stroke-width:2.26;stroke-linecap:round;stroke-linejoin:round;stroke:rgb(0%,0%,0%);stroke-opacity:1;stroke-miterlimit:10;" d="M 64.140625 38.851719 L 63.640625 49.789219 L 63.390625 55.250156 L 63.140625 60.718906 L 62.890625 66.191563 " transform="matrix(1,0,0,-1,0,104.59)"/>
<path style="fill:none;stroke-width:2.26;stroke-linecap:round;stroke-linejoin:round;stroke:rgb(0%,0%,0%);stroke-opacity:1;stroke-miterlimit:10;" d="M 63.25 66.359531 L 57.761719 66.230625 " transform="matrix(1,0,0,-1,0,104.59)"/>
<path style="fill:none;stroke-width:2.26;stroke-linecap:round;stroke-linejoin:round;stroke:rgb(0%,0%,0%);stroke-opacity:1;stroke-miterlimit:10;" d="M 57.851562 66.269688 L 57.929688 71.570469 L 58 76.87125 L 58.070312 82.168125 L 58.210938 92.769688 " transform="matrix(1,0,0,-1,0,104.59)"/>
<path style="fill:none;stroke-width:2.26;stroke-linecap:round;stroke-linejoin:round;stroke:rgb(0%,0%,0%);stroke-opacity:1;stroke-miterlimit:10;" d="M 266.109375 53.488438 L 271.558594 53.461094 L 277.011719 53.429844 L 282.460938 53.398594 " transform="matrix(1,0,0,-1,0,104.59)"/>
<path style="fill:none;stroke-width:1.41;stroke-linecap:round;stroke-linejoin:round;stroke:rgb(0%,0%,0%);stroke-opacity:1;stroke-miterlimit:10;" d="M 296.121094 58.449375 L 296.300781 58.718906 L 296.210938 59.199375 L 295.851562 59.679844 L 295.128906 60.250156 L 293.871094 60.648594 L 292.351562 60.648594 L 290.820312 60.168125 L 289.648438 59.148594 L 289.289062 58.05875 L 289.921875 57.000156 L 291.359375 55.949375 L 293.339844 54.980625 L 295.21875 53.84 L 296.570312 52.429844 L 296.929688 51.019688 L 296.570312 49.84 L 295.21875 48.961094 L 293.421875 48.699375 L 291.449219 49.050938 L 289.828125 49.660313 L 288.839844 50.410313 L 288.480469 51.019688 L 288.390625 51.461094 " transform="matrix(1,0,0,-1,0,104.59)"/>
<path style="fill:none;stroke-width:1.41;stroke-linecap:round;stroke-linejoin:round;stroke:rgb(0%,0%,0%);stroke-opacity:1;stroke-miterlimit:10;" d="M 301.511719 59.37125 L 301.421875 59.59 L 301.421875 53.30875 L 301.511719 50.629063 L 302.050781 48.961094 L 302.859375 48.211094 L 303.941406 48.12125 L 304.75 48.300938 L 305.460938 48.738438 " transform="matrix(1,0,0,-1,0,104.59)"/>
<path style="fill:none;stroke-width:1.41;stroke-linecap:round;stroke-linejoin:round;stroke:rgb(0%,0%,0%);stroke-opacity:1;stroke-miterlimit:10;" d="M 299.261719 54.718906 L 299.171875 54.941563 L 299.710938 55.019688 L 300.519531 55.199375 L 301.511719 55.379063 L 302.589844 55.418125 L 303.488281 55.550938 L 304.300781 55.640781 L 305.011719 55.679844 L 305.730469 55.730625 " transform="matrix(1,0,0,-1,0,104.59)"/>
<path style="fill:none;stroke-width:1.41;stroke-linecap:round;stroke-linejoin:round;stroke:rgb(0%,0%,0%);stroke-opacity:1;stroke-miterlimit:10;" d="M 307.078125 54.281406 L 307.171875 53.750156 L 307.351562 52.648594 L 307.621094 51.328281 L 307.980469 50.148594 L 308.160156 48.961094 L 307.890625 49.929844 L 307.800781 51.511875 L 308.070312 53.62125 L 308.519531 55.289219 L 309.238281 56.300938 L 310.050781 56.55875 L 310.761719 56.429844 L 311.570312 56.300938 " transform="matrix(1,0,0,-1,0,104.59)"/>
<path style="fill:none;stroke-width:1.41;stroke-linecap:round;stroke-linejoin:round;stroke:rgb(0%,0%,0%);stroke-opacity:1;stroke-miterlimit:10;" d="M 314.179688 58.191563 L 314.179688 58.449375 " transform="matrix(1,0,0,-1,0,104.59)"/>
<path style="fill:none;stroke-width:1.41;stroke-linecap:round;stroke-linejoin:round;stroke:rgb(0%,0%,0%);stroke-opacity:1;stroke-miterlimit:10;" d="M 313.640625 54.761875 L 313.460938 53.531406 L 313.460938 52.078281 L 313.371094 50.800938 L 313.550781 49.879063 " transform="matrix(1,0,0,-1,0,104.59)"/>
<path style="fill:none;stroke-width:1.41;stroke-linecap:round;stroke-linejoin:round;stroke:rgb(0%,0%,0%);stroke-opacity:1;stroke-miterlimit:10;" d="M 315.078125 49.050938 L 315.078125 50.800938 L 315.261719 51.550938 L 315.441406 52.390781 L 316.070312 53.441563 L 316.78125 54.320469 L 317.859375 54.578281 L 319.121094 54.140781 L 320.019531 52.691563 L 320.648438 51.160313 L 320.828125 49.879063 L 320.738281 49.140781 L 320.738281 48.87125 " transform="matrix(1,0,0,-1,0,104.59)"/>
<path style="fill:none;stroke-width:1.41;stroke-linecap:round;stroke-linejoin:round;stroke:rgb(0%,0%,0%);stroke-opacity:1;stroke-miterlimit:10;" d="M 325.589844 52.781406 L 325.410156 53.488438 L 325.140625 53.968906 L 324.78125 54.230625 L 324.511719 54.320469 L 324.058594 54.281406 L 323.609375 53.750156 L 323.25 52.87125 L 323.160156 51.601719 L 323.339844 50.191563 L 324.058594 49.30875 L 325.050781 49.179844 L 325.949219 49.929844 L 326.488281 51.328281 L 326.671875 52.87125 L 326.671875 54.281406 L 326.761719 54.05875 L 327.03125 53.269688 L 327.390625 51.730625 L 327.839844 49.488438 L 328.011719 46.59 L 327.570312 43.910313 L 326.398438 42.191563 L 324.691406 41.660313 L 322.980469 42.37125 L 321.550781 43.730625 " transform="matrix(1,0,0,-1,0,104.59)"/>
<path style="fill:none;stroke-width:1.41;stroke-linecap:round;stroke-linejoin:round;stroke:rgb(0%,0%,0%);stroke-opacity:1;stroke-miterlimit:10;" d="M 331.160156 59.988438 L 331.160156 55.59 L 331.25 52.961094 L 331.789062 50.539219 L 332.691406 49.218906 L 333.761719 49.050938 L 335.109375 50.191563 L 336.101562 52.390781 L 336.820312 55.019688 L 337.179688 57.441563 L 337.089844 58.718906 L 337.269531 57.050938 L 337.628906 54.578281 L 338.261719 52.168125 L 338.890625 50.281406 L 339.339844 49.488438 L 339.601562 49.398594 L 339.871094 49.660313 " transform="matrix(1,0,0,-1,0,104.59)"/>
<path style="fill:none;stroke-width:1.41;stroke-linecap:round;stroke-linejoin:round;stroke:rgb(0%,0%,0%);stroke-opacity:1;stroke-miterlimit:10;" d="M 342.660156 61.699375 L 342.570312 61.30875 L 342.570312 57.62125 L 342.480469 55.238438 L 342.480469 50.539219 L 342.660156 49.398594 L 343.019531 48.429844 L 343.738281 47.949375 L 344.550781 47.898594 L 345.261719 48.34 L 345.710938 49.050938 " transform="matrix(1,0,0,-1,0,104.59)"/>
<path style="fill:none;stroke-width:1.41;stroke-linecap:round;stroke-linejoin:round;stroke:rgb(0%,0%,0%);stroke-opacity:1;stroke-miterlimit:10;" d="M 340.5 55.769688 L 340.769531 55.988438 L 341.308594 56.168125 L 342.210938 56.34 L 343.289062 56.429844 L 344.011719 56.519688 L 344.640625 56.55875 L 345.171875 56.648594 L 345.621094 56.738438 " transform="matrix(1,0,0,-1,0,104.59)"/>
<path style="fill:none;stroke-width:1.41;stroke-linecap:round;stroke-linejoin:round;stroke:rgb(0%,0%,0%);stroke-opacity:1;stroke-miterlimit:10;" d="M 346.25 57.129063 L 346.609375 57.398594 L 346.699219 57.62125 L 346.878906 57.789219 " transform="matrix(1,0,0,-1,0,104.59)"/>
<path style="fill:none;stroke-width:1.41;stroke-linecap:round;stroke-linejoin:round;stroke:rgb(0%,0%,0%);stroke-opacity:1;stroke-miterlimit:10;" d="M 347.148438 55.418125 L 347.148438 54.359531 L 347.328125 52.738438 L 347.511719 51.109531 L 347.78125 49.711094 L 347.960938 48.519688 " transform="matrix(1,0,0,-1,0,104.59)"/>
<path style="fill:none;stroke-width:1.41;stroke-linecap:round;stroke-linejoin:round;stroke:rgb(0%,0%,0%);stroke-opacity:1;stroke-miterlimit:10;" d="M 349.851562 59.289219 L 349.851562 58.929844 L 349.941406 57.531406 L 350.210938 55.238438 L 350.480469 52.87125 L 350.660156 50.941563 L 350.921875 49.789219 " transform="matrix(1,0,0,-1,0,104.59)"/>
<path style="fill:none;stroke-width:1.41;stroke-linecap:round;stroke-linejoin:round;stroke:rgb(0%,0%,0%);stroke-opacity:1;stroke-miterlimit:10;" d="M 357.839844 55.199375 L 357.570312 55.769688 L 357.390625 56.250156 L 357.121094 56.648594 L 356.761719 57.09 L 356.140625 57.30875 L 355.421875 57.441563 L 354.609375 57.441563 L 354.070312 57.179844 L 353.621094 56.828281 L 353.800781 55.859531 L 354.519531 54.539219 L 355.78125 52.961094 L 357.210938 51.238438 L 358.199219 50.05875 L 358.378906 49.30875 L 357.480469 48.918125 L 356.140625 48.87125 L 354.96875 48.961094 L 354.25 49.179844 " transform="matrix(1,0,0,-1,0,104.59)"/>
<path style="fill:none;stroke-width:1.41;stroke-linecap:round;stroke-linejoin:round;stroke:rgb(0%,0%,0%);stroke-opacity:1;stroke-miterlimit:10;" d="M 16.621094 58.539219 L 16.710938 58.929844 L 16.441406 59.550938 L 15.71875 60.300938 L 14.28125 61.039219 L 12.660156 61.30875 L 11.230469 60.961094 L 10.601562 59.859531 L 10.960938 58.500156 L 12.300781 57.09 L 13.921875 56.031406 L 15.808594 55.199375 L 17.421875 54.410313 L 18.410156 53.750156 L 19.128906 52.87125 L 18.5 51.988438 L 16.980469 51.328281 L 15.179688 50.851719 L 13.378906 50.718906 L 11.851562 51.019688 L 10.960938 51.461094 L 10.328125 52.039219 L 9.96875 52.691563 " transform="matrix(1,0,0,-1,0,104.59)"/>
<path style="fill:none;stroke-width:1.41;stroke-linecap:round;stroke-linejoin:round;stroke:rgb(0%,0%,0%);stroke-opacity:1;stroke-miterlimit:10;" d="M 22.011719 61.84 L 21.921875 62.050938 L 22.011719 60.87125 L 22.101562 59.019688 L 22.191406 56.87125 L 22.191406 54.281406 L 22.371094 51.898594 L 22.550781 50.320469 L 23 49.09 L 23.710938 48.828281 L 24.609375 49.09 L 25.511719 49.531406 L 26.140625 50.101719 " transform="matrix(1,0,0,-1,0,104.59)"/>
<path style="fill:none;stroke-width:1.41;stroke-linecap:round;stroke-linejoin:round;stroke:rgb(0%,0%,0%);stroke-opacity:1;stroke-miterlimit:10;" d="M 20.839844 56.250156 L 21.378906 56.609531 L 22.191406 56.87125 L 23.441406 57.050938 L 24.429688 57.09 L 25.058594 57.09 L 25.601562 57.179844 L 25.960938 57.30875 L 26.320312 57.531406 " transform="matrix(1,0,0,-1,0,104.59)"/>
<path style="fill:none;stroke-width:1.41;stroke-linecap:round;stroke-linejoin:round;stroke:rgb(0%,0%,0%);stroke-opacity:1;stroke-miterlimit:10;" d="M 27.941406 55.379063 L 28.03125 54.140781 L 28.300781 52.468906 L 28.660156 50.800938 L 28.921875 49.84 L 28.921875 49.488438 L 28.75 49.750156 L 28.570312 50.890781 L 28.570312 52.261875 L 28.75 53.879063 L 29.191406 55.461094 L 29.730469 56.429844 L 30.449219 56.961094 L 31.078125 57.129063 L 32.070312 56.961094 L 32.96875 56.648594 L 33.691406 56.34 L 34.320312 55.898594 " transform="matrix(1,0,0,-1,0,104.59)"/>
<path style="fill:none;stroke-width:1.41;stroke-linecap:round;stroke-linejoin:round;stroke:rgb(0%,0%,0%);stroke-opacity:1;stroke-miterlimit:10;" d="M 114.28125 63.550938 L 114.101562 63.898594 L 113.648438 64.160313 L 113.109375 64.379063 L 112.210938 64.429844 L 111.308594 64.031406 L 110.410156 63.148594 L 109.601562 61.660313 L 109.339844 60.031406 L 109.601562 58.500156 L 110.589844 57.30875 L 111.941406 56.648594 L 113.199219 56.468906 L 114.191406 56.648594 L 114.640625 57.050938 L 115 57.570469 L 115.171875 58.011875 L 115.441406 58.410313 " transform="matrix(1,0,0,-1,0,104.59)"/>
<path style="fill:none;stroke-width:1.41;stroke-linecap:round;stroke-linejoin:round;stroke:rgb(0%,0%,0%);stroke-opacity:1;stroke-miterlimit:10;" d="M 119.308594 62.668125 L 119.128906 62.980625 L 118.679688 62.980625 L 117.960938 62.359531 L 117.148438 61.218906 L 116.429688 59.679844 L 116.160156 58.191563 L 116.519531 57.129063 L 117.238281 56.468906 L 118.050781 56.211094 L 118.859375 56.211094 L 119.671875 56.648594 L 120.121094 57.531406 L 120.300781 58.929844 L 120.210938 60.429844 L 119.851562 61.62125 L 119.671875 62.449375 " transform="matrix(1,0,0,-1,0,104.59)"/>
<path style="fill:none;stroke-width:1.41;stroke-linecap:round;stroke-linejoin:round;stroke:rgb(0%,0%,0%);stroke-opacity:1;stroke-miterlimit:10;" d="M 123.171875 56.910313 L 122.808594 57.129063 L 122.628906 57.879063 L 122.628906 59.109531 L 122.988281 60.648594 L 123.800781 62.011875 L 124.699219 62.629063 L 125.511719 62.578281 L 126.140625 61.750156 L 126.410156 60.781406 L 126.671875 59.511875 L 126.761719 58.05875 L 126.851562 56.781406 L 126.941406 55.769688 L 126.941406 55.238438 " transform="matrix(1,0,0,-1,0,104.59)"/>
<path style="fill:none;stroke-width:1.41;stroke-linecap:round;stroke-linejoin:round;stroke:rgb(0%,0%,0%);stroke-opacity:1;stroke-miterlimit:10;" d="M 131.890625 61.441563 L 131.890625 62.011875 L 131.800781 62.410313 L 131.710938 62.629063 L 131.351562 62.629063 L 130.808594 62.488438 L 130.359375 62.140781 L 129.730469 61.179844 L 129.28125 60.211094 L 129.101562 59.148594 L 129.28125 57.879063 L 129.910156 57.09 L 130.628906 56.429844 L 131.351562 56.12125 L 131.890625 56.078281 L 132.511719 56.429844 " transform="matrix(1,0,0,-1,0,104.59)"/>
<path style="fill:none;stroke-width:1.41;stroke-linecap:round;stroke-linejoin:round;stroke:rgb(0%,0%,0%);stroke-opacity:1;stroke-miterlimit:10;" d="M 135.570312 61.261875 L 135.121094 61.84 L 134.851562 62.320469 L 134.941406 62.851719 L 135.570312 63.238438 L 136.378906 63.199375 L 137.28125 62.800938 L 137.910156 61.789219 L 138.171875 59.988438 L 138.089844 58.359531 L 138 56.828281 L 138 55.949375 L 138.171875 56.429844 L 138 57.179844 L 137.820312 57.84 L 137.460938 58.320469 L 136.738281 58.761875 L 135.660156 58.539219 L 134.671875 57.879063 L 134.039062 56.961094 L 134.308594 55.949375 L 135.300781 55.461094 L 136.378906 55.379063 L 137.550781 55.730625 " transform="matrix(1,0,0,-1,0,104.59)"/>
<path style="fill:none;stroke-width:1.41;stroke-linecap:round;stroke-linejoin:round;stroke:rgb(0%,0%,0%);stroke-opacity:1;stroke-miterlimit:10;" d="M 141.949219 67.859531 L 141.859375 68.34 L 141.769531 67.679844 L 141.769531 67.148594 L 141.679688 66.449375 L 141.679688 65.531406 L 141.589844 64.160313 L 141.410156 62.140781 L 141.320312 59.898594 L 141.589844 57.879063 L 142.21875 56.519688 L 143.03125 55.988438 L 143.839844 55.988438 L 144.28125 56.429844 " transform="matrix(1,0,0,-1,0,104.59)"/>
<path style="fill:none;stroke-width:1.41;stroke-linecap:round;stroke-linejoin:round;stroke:rgb(0%,0%,0%);stroke-opacity:1;stroke-miterlimit:10;" d="M 139.429688 63.238438 L 139.25 63.550938 L 139.789062 63.80875 L 140.511719 63.898594 L 141.230469 63.859531 L 141.949219 63.859531 L 142.851562 63.80875 L 143.660156 63.769688 L 144.460938 63.59 " transform="matrix(1,0,0,-1,0,104.59)"/>
<path style="fill:none;stroke-width:1.41;stroke-linecap:round;stroke-linejoin:round;stroke:rgb(0%,0%,0%);stroke-opacity:1;stroke-miterlimit:10;" d="M 146.710938 59.238438 L 147.339844 59.070469 L 148.148438 59.019688 L 148.871094 59.019688 L 149.5 59.109531 L 149.851562 59.328281 " transform="matrix(1,0,0,-1,0,104.59)"/>
<path style="fill:none;stroke-width:1.41;stroke-linecap:round;stroke-linejoin:round;stroke:rgb(0%,0%,0%);stroke-opacity:1;stroke-miterlimit:10;" d="M 151.289062 63.418125 L 151.199219 63.769688 L 151.109375 63.988438 " transform="matrix(1,0,0,-1,0,104.59)"/>
<path style="fill:none;stroke-width:1.41;stroke-linecap:round;stroke-linejoin:round;stroke:rgb(0%,0%,0%);stroke-opacity:1;stroke-miterlimit:10;" d="M 152.191406 61.84 L 152.28125 60.55875 L 152.371094 59.019688 L 152.460938 57.570469 L 152.550781 56.429844 L 152.640625 55.730625 " transform="matrix(1,0,0,-1,0,104.59)"/>
<path style="fill:none;stroke-width:1.41;stroke-linecap:round;stroke-linejoin:round;stroke:rgb(0%,0%,0%);stroke-opacity:1;stroke-miterlimit:10;" d="M 155.160156 56.211094 L 155.160156 57.660313 L 155.601562 59.328281 L 156.410156 60.781406 L 157.578125 60.87125 L 158.480469 59.59 L 159.019531 57.62125 L 159.199219 55.769688 L 159.289062 54.800938 " transform="matrix(1,0,0,-1,0,104.59)"/>
<path style="fill:none;stroke-width:1.41;stroke-linecap:round;stroke-linejoin:round;stroke:rgb(0%,0%,0%);stroke-opacity:1;stroke-miterlimit:10;" d="M 165.941406 60.648594 L 165.671875 61.218906 L 165.488281 61.480625 L 165.128906 61.699375 L 164.410156 61.660313 L 163.601562 61.398594 L 162.789062 60.55875 L 162.25 59.550938 L 161.980469 58.449375 L 162.25 57.050938 L 163.238281 56.12125 L 164.5 55.898594 L 165.761719 56.519688 L 166.660156 58.281406 L 167.011719 60.601719 L 166.75 63.148594 L 166.390625 65.179844 L 166.121094 65.699375 L 166.210938 64.648594 L 166.570312 62.191563 L 167.101562 59.461094 L 167.550781 57.62125 L 168.089844 56.781406 " transform="matrix(1,0,0,-1,0,104.59)"/>
<path style="fill:none;stroke-width:1.41;stroke-linecap:round;stroke-linejoin:round;stroke:rgb(0%,0%,0%);stroke-opacity:1;stroke-miterlimit:10;" d="M 171.328125 60.031406 L 172.140625 60.031406 L 173.121094 60.429844 L 174.109375 61.30875 L 174.828125 62.269688 L 174.921875 63.238438 L 174.378906 63.859531 L 173.300781 63.718906 L 172.230469 63.328281 L 171.328125 62.668125 L 170.699219 61.750156 L 170.519531 61.039219 L 170.609375 59.730625 L 170.96875 58.230625 L 171.78125 56.910313 L 172.761719 55.988438 L 173.75 55.949375 L 174.828125 56.429844 " transform="matrix(1,0,0,-1,0,104.59)"/>
<path style="fill:none;stroke-width:1.41;stroke-linecap:round;stroke-linejoin:round;stroke:rgb(0%,0%,0%);stroke-opacity:1;stroke-miterlimit:10;" d="M 183.011719 68.691563 L 182.828125 69.609531 L 182.289062 70.488438 L 181.390625 70.84 L 180.488281 70.398594 L 179.679688 69.441563 L 179.230469 68.211094 L 179.050781 67.05875 L 179.230469 65.531406 L 179.589844 63.550938 L 180.039062 61.000156 L 180.398438 58.359531 L 180.671875 56.390781 L 180.671875 55.019688 L 180.21875 54.629063 " transform="matrix(1,0,0,-1,0,104.59)"/>
<path style="fill:none;stroke-width:1.41;stroke-linecap:round;stroke-linejoin:round;stroke:rgb(0%,0%,0%);stroke-opacity:1;stroke-miterlimit:10;" d="M 177.710938 59.461094 L 177.53125 60.250156 L 178.339844 60.87125 L 179.769531 61.398594 L 181.660156 61.750156 L 183.371094 61.918125 L 184.351562 61.968906 L 184.710938 62.050938 " transform="matrix(1,0,0,-1,0,104.59)"/>
<path style="fill:none;stroke-width:1.41;stroke-linecap:round;stroke-linejoin:round;stroke:rgb(0%,0%,0%);stroke-opacity:1;stroke-miterlimit:10;" d="M 145.539062 22.769688 L 145.71875 22.988438 L 145.269531 23.429844 L 144.460938 23.601719 L 143.480469 23.379063 L 142.488281 22.988438 L 141.859375 22.328281 L 141.5 21.668125 L 141.5 21.269688 L 141.589844 20.879063 L 141.769531 20.531406 L 142.488281 20.09 L 143.660156 19.519688 L 144.910156 18.640781 L 145.988281 17.578281 L 146.078125 16.699375 L 145.269531 16.261875 L 144.101562 16.261875 L 142.851562 16.660313 L 142.128906 17.140781 L 141.769531 17.539219 L 141.679688 17.890781 " transform="matrix(1,0,0,-1,0,104.59)"/>
<path style="fill:none;stroke-width:1.41;stroke-linecap:round;stroke-linejoin:round;stroke:rgb(0%,0%,0%);stroke-opacity:1;stroke-miterlimit:10;" d="M 148.421875 24.750156 L 148.421875 24.480625 L 148.511719 23.379063 L 148.601562 21.629063 L 148.691406 19.468906 L 148.960938 17.629063 L 149.671875 16.480625 L 150.570312 16.039219 L 151.558594 16.039219 L 152.28125 16.261875 L 152.640625 16.750156 " transform="matrix(1,0,0,-1,0,104.59)"/>
<path style="fill:none;stroke-width:1.41;stroke-linecap:round;stroke-linejoin:round;stroke:rgb(0%,0%,0%);stroke-opacity:1;stroke-miterlimit:10;" d="M 146.261719 19.738438 L 146.800781 19.961094 L 147.789062 20.039219 L 149.410156 20.218906 L 151.109375 20.390781 L 152.191406 20.531406 L 153.179688 20.699375 " transform="matrix(1,0,0,-1,0,104.59)"/>
<path style="fill:none;stroke-width:1.41;stroke-linecap:round;stroke-linejoin:round;stroke:rgb(0%,0%,0%);stroke-opacity:1;stroke-miterlimit:10;" d="M 153.988281 19.910313 L 154.351562 18.859531 L 154.710938 17.890781 L 155.070312 16.968906 L 155.25 16.30875 L 155.070312 16.531406 L 154.800781 17.410313 L 154.890625 18.718906 L 155.070312 20.179844 L 155.601562 21.449375 L 156.320312 22.328281 " transform="matrix(1,0,0,-1,0,104.59)"/>
<path style="fill:none;stroke-width:1.41;stroke-linecap:round;stroke-linejoin:round;stroke:rgb(0%,0%,0%);stroke-opacity:1;stroke-miterlimit:10;" d="M 158.480469 23.949375 L 158.660156 24.261875 " transform="matrix(1,0,0,-1,0,104.59)"/>
<path style="fill:none;stroke-width:1.41;stroke-linecap:round;stroke-linejoin:round;stroke:rgb(0%,0%,0%);stroke-opacity:1;stroke-miterlimit:10;" d="M 159.648438 21.668125 L 159.738281 20.441563 L 159.828125 19.160313 L 159.921875 17.800938 L 160.101562 16.480625 L 160.191406 15.87125 " transform="matrix(1,0,0,-1,0,104.59)"/>
<path style="fill:none;stroke-width:1.41;stroke-linecap:round;stroke-linejoin:round;stroke:rgb(0%,0%,0%);stroke-opacity:1;stroke-miterlimit:10;" d="M 162.519531 16.480625 L 162.519531 17.800938 L 162.878906 19.34 L 163.511719 20.879063 L 164.320312 22.199375 L 165.128906 22.80875 L 165.671875 22.550938 L 166.121094 22.019688 L 166.480469 21.050938 L 166.921875 19.738438 L 167.101562 18.328281 L 167.28125 17.011875 L 167.371094 16.129063 L 167.640625 15.87125 " transform="matrix(1,0,0,-1,0,104.59)"/>
<path style="fill:none;stroke-width:1.41;stroke-linecap:round;stroke-linejoin:round;stroke:rgb(0%,0%,0%);stroke-opacity:1;stroke-miterlimit:10;" d="M 172.578125 20.918125 L 171.871094 21.269688 L 171.328125 21.449375 L 170.429688 21.359531 L 169.710938 20.879063 L 169.078125 20.218906 L 168.71875 19.078281 L 169.261719 18.019688 L 170.339844 17.410313 L 171.511719 17.230625 L 172.5 17.668125 L 173.121094 18.418125 L 173.210938 19.078281 L 173.121094 19.648594 L 173.03125 20.261875 L 172.851562 20.480625 L 172.761719 20.000156 L 172.941406 19.12125 L 173.121094 18.109531 L 173.390625 17.050938 L 173.570312 15.168125 L 173.300781 12.968906 L 172.320312 11.078281 L 170.96875 9.668125 L 169.351562 9.449375 L 168 10.238438 L 167.28125 11.519688 " transform="matrix(1,0,0,-1,0,104.59)"/>
<path style="fill:none;stroke-width:1.41;stroke-linecap:round;stroke-linejoin:round;stroke:rgb(0%,0%,0%);stroke-opacity:1;stroke-miterlimit:10;" d="M 175.820312 22.238438 L 175.640625 22.05875 L 175.640625 21.191563 L 176 19.820469 L 176.628906 18.550938 L 177.53125 17.851719 L 178.511719 18.148594 L 179.320312 19.34 L 179.769531 20.879063 L 179.949219 22.05875 L 180.039062 22.281406 L 180.21875 21.668125 L 180.578125 20.609531 L 181.210938 19.160313 L 182.019531 18.148594 L 182.738281 17.578281 L 183.371094 17.269688 L 183.820312 17.449375 L 184.078125 17.668125 L 184.441406 18.109531 " transform="matrix(1,0,0,-1,0,104.59)"/>
<path style="fill:none;stroke-width:1.41;stroke-linecap:round;stroke-linejoin:round;stroke:rgb(0%,0%,0%);stroke-opacity:1;stroke-miterlimit:10;" d="M 185.96875 26.328281 L 185.96875 22.859531 L 185.878906 21.011875 L 186.058594 19.160313 L 186.421875 17.449375 L 187.050781 16.179844 L 187.949219 15.87125 L 188.851562 16.261875 L 189.480469 16.879063 L 189.921875 17.488438 " transform="matrix(1,0,0,-1,0,104.59)"/>
<path style="fill:none;stroke-width:1.41;stroke-linecap:round;stroke-linejoin:round;stroke:rgb(0%,0%,0%);stroke-opacity:1;stroke-miterlimit:10;" d="M 184.621094 21.230625 L 184.171875 21.449375 L 183.820312 21.668125 L 183.910156 21.890781 L 185.070312 22.109531 L 186.511719 22.281406 L 188.039062 22.418125 L 189.660156 22.640781 " transform="matrix(1,0,0,-1,0,104.59)"/>
<path style="fill:none;stroke-width:1.41;stroke-linecap:round;stroke-linejoin:round;stroke:rgb(0%,0%,0%);stroke-opacity:1;stroke-miterlimit:10;" d="M 191.269531 23.429844 L 191.71875 23.820469 L 191.988281 24.129063 L 192.261719 24.039219 " transform="matrix(1,0,0,-1,0,104.59)"/>
<path style="fill:none;stroke-width:1.41;stroke-linecap:round;stroke-linejoin:round;stroke:rgb(0%,0%,0%);stroke-opacity:1;stroke-miterlimit:10;" d="M 192.53125 19.601719 L 192.53125 18.898594 L 192.621094 18.238438 L 192.800781 17.359531 L 192.980469 16.441563 L 193.070312 15.648594 L 193.160156 15.429844 " transform="matrix(1,0,0,-1,0,104.59)"/>
<path style="fill:none;stroke-width:1.41;stroke-linecap:round;stroke-linejoin:round;stroke:rgb(0%,0%,0%);stroke-opacity:1;stroke-miterlimit:10;" d="M 196.300781 26.238438 L 196.121094 26.461094 L 196.210938 26.238438 L 196.300781 25.578281 L 196.480469 24.129063 L 196.570312 22.05875 L 196.660156 19.820469 L 196.75 17.980625 L 196.929688 16.879063 " transform="matrix(1,0,0,-1,0,104.59)"/>
<path style="fill:none;stroke-width:1.41;stroke-linecap:round;stroke-linejoin:round;stroke:rgb(0%,0%,0%);stroke-opacity:1;stroke-miterlimit:10;" d="M 201.871094 22.238438 L 201.960938 22.80875 L 201.960938 23.300938 L 201.871094 23.730625 L 201.601562 24.039219 L 200.890625 23.781406 L 200.078125 22.988438 L 199.269531 22.05875 L 198.910156 21.050938 L 199.089844 20.390781 L 199.628906 20.039219 L 200.53125 19.648594 L 201.691406 18.988438 L 202.769531 18.289219 L 203.308594 17.359531 L 203.308594 16.62125 L 202.859375 16.039219 L 202.230469 15.601719 L 201.691406 15.468906 L 201.070312 15.468906 L 200.351562 15.738438 L 199.71875 16.09 L 199.179688 16.62125 " transform="matrix(1,0,0,-1,0,104.59)"/>
<path style="fill:none;stroke-width:1.41;stroke-linecap:round;stroke-linejoin:round;stroke:rgb(0%,0%,0%);stroke-opacity:1;stroke-miterlimit:10;" d="M 206.28125 20.179844 L 206.820312 20.390781 L 209.238281 20.390781 L 210.320312 20.351719 L 211.308594 20.261875 L 211.851562 20.129063 L 212.210938 20.039219 L 212.480469 20.000156 L 212.660156 20.261875 " transform="matrix(1,0,0,-1,0,104.59)"/>
<path style="fill:none;stroke-width:1.41;stroke-linecap:round;stroke-linejoin:round;stroke:rgb(0%,0%,0%);stroke-opacity:1;stroke-miterlimit:10;" d="M 215.710938 24.480625 L 215.53125 24.699375 L 215.890625 24.441563 " transform="matrix(1,0,0,-1,0,104.59)"/>
<path style="fill:none;stroke-width:1.41;stroke-linecap:round;stroke-linejoin:round;stroke:rgb(0%,0%,0%);stroke-opacity:1;stroke-miterlimit:10;" d="M 216.25 21.800938 L 216.160156 20.609531 L 216.160156 18.148594 L 216.25 17.230625 L 216.609375 16.750156 " transform="matrix(1,0,0,-1,0,104.59)"/>
<path style="fill:none;stroke-width:1.41;stroke-linecap:round;stroke-linejoin:round;stroke:rgb(0%,0%,0%);stroke-opacity:1;stroke-miterlimit:10;" d="M 218.941406 17.578281 L 219.121094 17.890781 L 219.210938 18.718906 L 219.570312 19.961094 L 220.378906 21.101719 L 221.28125 22.019688 L 222.179688 22.281406 L 222.808594 21.980625 L 222.988281 21.449375 L 223.171875 20.699375 L 223.261719 19.738438 L 223.261719 17.629063 " transform="matrix(1,0,0,-1,0,104.59)"/>
<path style="fill:none;stroke-width:1.41;stroke-linecap:round;stroke-linejoin:round;stroke:rgb(0%,0%,0%);stroke-opacity:1;stroke-miterlimit:10;" d="M 227.929688 20.918125 L 227.929688 21.449375 L 227.390625 21.668125 L 226.761719 21.629063 L 225.949219 21.359531 L 225.230469 20.828281 L 224.78125 20.179844 L 224.601562 19.55875 L 224.601562 19.078281 L 224.78125 18.550938 L 224.960938 18.109531 L 225.410156 17.668125 L 225.949219 17.269688 L 227.03125 17.539219 L 228.109375 18.511875 L 229.011719 20.129063 L 229.550781 22.019688 L 229.460938 24.261875 L 229.191406 25.890781 L 228.921875 26.898594 L 228.648438 27.429844 L 228.738281 25.929844 L 229.101562 23.601719 L 229.820312 20.968906 L 230.53125 18.461094 L 231.070312 17.140781 L 231.519531 16.750156 " transform="matrix(1,0,0,-1,0,104.59)"/>
<path style="fill:none;stroke-width:1.41;stroke-linecap:round;stroke-linejoin:round;stroke:rgb(0%,0%,0%);stroke-opacity:1;stroke-miterlimit:10;" d="M 234.21875 19.55875 L 234.578125 19.781406 L 235.121094 20.129063 L 235.75 20.699375 L 236.101562 21.449375 L 236.101562 22.199375 L 235.660156 22.859531 L 234.851562 22.941563 L 233.949219 22.59 L 233.140625 21.800938 L 232.691406 20.480625 L 232.960938 19.211094 L 233.679688 18.109531 L 234.671875 17.359531 L 235.921875 17.230625 L 237.449219 18.019688 " transform="matrix(1,0,0,-1,0,104.59)"/>
<path style="fill:none;stroke-width:1.41;stroke-linecap:round;stroke-linejoin:round;stroke:rgb(0%,0%,0%);stroke-opacity:1;stroke-miterlimit:10;" d="M 243.378906 25.011875 L 243.378906 25.449375 L 243.289062 25.761875 L 243.199219 26.019688 L 243.019531 26.238438 L 242.660156 26.281406 L 242.121094 26.109531 L 241.671875 25.800938 L 241.230469 25.269688 L 240.960938 24.609531 L 240.871094 24.039219 L 240.871094 23.211094 L 241.140625 21.800938 L 241.578125 19.961094 L 241.941406 17.890781 L 242.210938 16.218906 L 242.300781 15.211094 L 241.941406 15.250156 " transform="matrix(1,0,0,-1,0,104.59)"/>
<path style="fill:none;stroke-width:1.41;stroke-linecap:round;stroke-linejoin:round;stroke:rgb(0%,0%,0%);stroke-opacity:1;stroke-miterlimit:10;" d="M 239.070312 20.699375 L 239.519531 21.050938 L 240.871094 21.269688 L 242.480469 21.449375 L 244.011719 21.410313 L 245.089844 21.359531 L 245.539062 21.269688 " transform="matrix(1,0,0,-1,0,104.59)"/>
<path style="fill:none;stroke-width:2.26;stroke-linecap:round;stroke-linejoin:round;stroke:rgb(0%,0%,0%);stroke-opacity:1;stroke-miterlimit:10;" d="M 43.210938 54.359531 L 43.300781 54.05875 L 43.660156 53.84 L 44.289062 53.711094 L 45.28125 53.570469 L 46.710938 53.62125 L 48.421875 53.750156 L 50.128906 53.84 L 52.101562 53.968906 L 53.898438 54.140781 L 55.789062 54.359531 L 57.761719 54.668125 L 59.378906 54.890781 L 60.910156 55.109531 L 62.441406 55.418125 L 63.871094 55.730625 L 65.21875 56.12125 L 66.839844 56.609531 L 68.28125 57.09 L 69.710938 57.62125 L 71.058594 58.101719 L 72.230469 58.578281 L 73.21875 59.109531 L 74.570312 59.679844 L 76.089844 60.300938 L 77.53125 60.781406 L 78.789062 61.129063 L 79.691406 61.351719 L 80.410156 61.531406 L 81.210938 61.660313 L 82.199219 61.84 L 83.101562 61.968906 L 83.910156 62.050938 L 84.628906 62.191563 L 85.171875 62.320469 L 85.800781 62.488438 L 86.691406 62.711094 L 87.589844 62.851719 L 88.398438 62.929844 L 89.210938 63.019688 L 89.660156 62.980625 L 90.019531 62.980625 L 90.378906 63.019688 L 90.738281 63.019688 L 91.101562 63.070469 L 91.371094 63.109531 L 91.910156 63.109531 L 91.640625 63.238438 " transform="matrix(1,0,0,-1,0,104.59)"/>
</g>
</svg>
