<?xml version="1.0" encoding="UTF-8"?>
<svg xmlns="http://www.w3.org/2000/svg" xmlns:xlink="http://www.w3.org/1999/xlink" width="313.71875pt" height="145.96875pt" viewBox="0 0 313.71875 145.96875" version="1.1">
<g id="surface1">
<path style="fill:none;stroke-width:2.26;stroke-linecap:round;stroke-linejoin:round;stroke:rgb(19.999695%,19.999695%,79.998779%);stroke-opacity:1;stroke-miterlimit:10;" d="M 242.574219 135.023438 L 242.621094 129.066406 L 242.664062 123.113281 " transform="matrix(1,0,0,-1,0,145.96875)"/>
<path style="fill:none;stroke-width:2.26;stroke-linecap:round;stroke-linejoin:round;stroke:rgb(19.999695%,19.999695%,79.998779%);stroke-opacity:1;stroke-miterlimit:10;" d="M 242.664062 123.023438 L 249.132812 122.890625 " transform="matrix(1,0,0,-1,0,145.96875)"/>
<path style="fill:none;stroke-width:2.26;stroke-linecap:round;stroke-linejoin:round;stroke:rgb(19.999695%,19.999695%,79.998779%);stroke-opacity:1;stroke-miterlimit:10;" d="M 249.222656 122.804688 L 249.164062 116.316406 L 249.101562 109.828125 L 249.042969 103.335938 " transform="matrix(1,0,0,-1,0,145.96875)"/>
<path style="fill:none;stroke-width:2.26;stroke-linecap:round;stroke-linejoin:round;stroke:rgb(19.999695%,19.999695%,79.998779%);stroke-opacity:1;stroke-miterlimit:10;" d="M 249.042969 103.335938 L 243.023438 103.601562 " transform="matrix(1,0,0,-1,0,145.96875)"/>
<path style="fill:none;stroke-width:2.26;stroke-linecap:round;stroke-linejoin:round;stroke:rgb(19.999695%,19.999695%,79.998779%);stroke-opacity:1;stroke-miterlimit:10;" d="M 243.292969 103.511719 L 243.5625 84.527344 " transform="matrix(1,0,0,-1,0,145.96875)"/>
<path style="fill:none;stroke-width:2.26;stroke-linecap:round;stroke-linejoin:round;stroke:rgb(19.999695%,19.999695%,79.998779%);stroke-opacity:1;stroke-miterlimit:10;" d="M 243.5625 83.957031 L 249.941406 84 " transform="matrix(1,0,0,-1,0,145.96875)"/>
<path style="fill:none;stroke-width:2.26;stroke-linecap:round;stroke-linejoin:round;stroke:rgb(19.999695%,19.999695%,79.998779%);stroke-opacity:1;stroke-miterlimit:10;" d="M 249.851562 83.957031 L 249.738281 78.640625 L 249.628906 73.320312 L 249.402344 62.6875 " transform="matrix(1,0,0,-1,0,145.96875)"/>
<path style="fill:none;stroke-width:2.26;stroke-linecap:round;stroke-linejoin:round;stroke:rgb(19.999695%,19.999695%,79.998779%);stroke-opacity:1;stroke-miterlimit:10;" d="M 249.222656 62.335938 L 243.921875 62.421875 " transform="matrix(1,0,0,-1,0,145.96875)"/>
<path style="fill:none;stroke-width:2.26;stroke-linecap:round;stroke-linejoin:round;stroke:rgb(19.999695%,19.999695%,79.998779%);stroke-opacity:1;stroke-miterlimit:10;" d="M 243.472656 62.378906 L 243.414062 56.550781 L 243.351562 50.71875 L 243.292969 44.890625 " transform="matrix(1,0,0,-1,0,145.96875)"/>
<path style="fill:none;stroke-width:2.26;stroke-linecap:round;stroke-linejoin:round;stroke:rgb(19.999695%,19.999695%,79.998779%);stroke-opacity:1;stroke-miterlimit:10;" d="M 244.191406 44.449219 L 254.644531 44.480469 L 259.875 44.5 L 286.007812 44.578125 L 291.238281 44.59375 L 301.691406 44.625 " transform="matrix(1,0,0,-1,0,145.96875)"/>
<path style="fill:none;stroke-width:2.26;stroke-linecap:round;stroke-linejoin:round;stroke:rgb(19.999695%,19.999695%,79.998779%);stroke-opacity:1;stroke-miterlimit:10;" d="M 301.421875 44.757812 L 301.382812 54.789062 L 301.363281 59.800781 L 301.34375 64.816406 L 301.320312 69.832031 L 301.300781 74.84375 L 301.222656 94.90625 L 301.203125 99.917969 L 301.164062 109.949219 L 301.140625 114.960938 L 301.0625 135.023438 " transform="matrix(1,0,0,-1,0,145.96875)"/>
<path style="fill:none;stroke-width:2.26;stroke-linecap:round;stroke-linejoin:round;stroke:rgb(19.999695%,19.999695%,79.998779%);stroke-opacity:1;stroke-miterlimit:10;" d="M 300.433594 134.800781 L 289.980469 135.035156 L 284.75 135.148438 L 274.296875 135.382812 L 269.070312 135.496094 L 258.617188 135.730469 L 253.386719 135.84375 L 242.933594 136.078125 " transform="matrix(1,0,0,-1,0,145.96875)"/>
<path style="fill:none;stroke-width:2.26;stroke-linecap:round;stroke-linejoin:round;stroke:rgb(19.999695%,19.999695%,79.998779%);stroke-opacity:1;stroke-miterlimit:10;" d="M 153.269531 135.945312 L 152.820312 126.1875 " transform="matrix(1,0,0,-1,0,145.96875)"/>
<path style="fill:none;stroke-width:2.26;stroke-linecap:round;stroke-linejoin:round;stroke:rgb(19.999695%,19.999695%,79.998779%);stroke-opacity:1;stroke-miterlimit:10;" d="M 151.472656 105.621094 L 151.382812 95.867188 " transform="matrix(1,0,0,-1,0,145.96875)"/>
<path style="fill:none;stroke-width:2.26;stroke-linecap:round;stroke-linejoin:round;stroke:rgb(19.999695%,19.999695%,79.998779%);stroke-opacity:1;stroke-miterlimit:10;" d="M 151.472656 95.867188 L 156.640625 95.78125 L 161.804688 95.699219 L 166.972656 95.617188 L 172.136719 95.53125 L 177.304688 95.449219 L 182.46875 95.367188 L 187.636719 95.28125 L 192.800781 95.199219 L 197.96875 95.113281 L 203.132812 95.03125 " transform="matrix(1,0,0,-1,0,145.96875)"/>
<path style="fill:none;stroke-width:2.26;stroke-linecap:round;stroke-linejoin:round;stroke:rgb(19.999695%,19.999695%,79.998779%);stroke-opacity:1;stroke-miterlimit:10;" d="M 203.222656 95.382812 L 203.582031 102.851562 " transform="matrix(1,0,0,-1,0,145.96875)"/>
<path style="fill:none;stroke-width:2.26;stroke-linecap:round;stroke-linejoin:round;stroke:rgb(19.999695%,19.999695%,79.998779%);stroke-opacity:1;stroke-miterlimit:10;" d="M 201.066406 126.628906 L 201.066406 135.328125 " transform="matrix(1,0,0,-1,0,145.96875)"/>
<path style="fill:none;stroke-width:2.26;stroke-linecap:round;stroke-linejoin:round;stroke:rgb(19.999695%,19.999695%,79.998779%);stroke-opacity:1;stroke-miterlimit:10;" d="M 201.246094 135.285156 L 190.722656 135.363281 L 185.464844 135.402344 L 169.679688 135.519531 L 164.421875 135.558594 L 153.898438 135.636719 " transform="matrix(1,0,0,-1,0,145.96875)"/>
<path style="fill:none;stroke-width:2.26;stroke-linecap:round;stroke-linejoin:round;stroke:rgb(19.999695%,19.999695%,79.998779%);stroke-opacity:1;stroke-miterlimit:10;" d="M 152.730469 125.882812 L 158.929688 125.882812 " transform="matrix(1,0,0,-1,0,145.96875)"/>
<path style="fill:none;stroke-width:2.26;stroke-linecap:round;stroke-linejoin:round;stroke:rgb(19.999695%,19.999695%,79.998779%);stroke-opacity:1;stroke-miterlimit:10;" d="M 158.75 125.441406 L 158.691406 118.953125 L 158.628906 112.460938 L 158.570312 105.972656 " transform="matrix(1,0,0,-1,0,145.96875)"/>
<path style="fill:none;stroke-width:2.26;stroke-linecap:round;stroke-linejoin:round;stroke:rgb(19.999695%,19.999695%,79.998779%);stroke-opacity:1;stroke-miterlimit:10;" d="M 158.570312 106.105469 L 151.652344 106.367188 " transform="matrix(1,0,0,-1,0,145.96875)"/>
<path style="fill:none;stroke-width:2.26;stroke-linecap:round;stroke-linejoin:round;stroke:rgb(19.999695%,19.999695%,79.998779%);stroke-opacity:1;stroke-miterlimit:10;" d="M 202.503906 126.980469 L 207.175781 126.539062 " transform="matrix(1,0,0,-1,0,145.96875)"/>
<path style="fill:none;stroke-width:2.26;stroke-linecap:round;stroke-linejoin:round;stroke:rgb(19.999695%,19.999695%,79.998779%);stroke-opacity:1;stroke-miterlimit:10;" d="M 207.714844 126.539062 L 208.433594 104.742188 " transform="matrix(1,0,0,-1,0,145.96875)"/>
<path style="fill:none;stroke-width:2.26;stroke-linecap:round;stroke-linejoin:round;stroke:rgb(19.999695%,19.999695%,79.998779%);stroke-opacity:1;stroke-miterlimit:10;" d="M 208.613281 104.609375 L 203.402344 103.953125 " transform="matrix(1,0,0,-1,0,145.96875)"/>
<path style="fill:none;stroke-width:2.26;stroke-linecap:round;stroke-linejoin:round;stroke:rgb(19.999695%,19.999695%,79.998779%);stroke-opacity:1;stroke-miterlimit:10;" d="M 208.433594 115.640625 L 225.296875 115.300781 L 230.921875 115.191406 L 247.785156 114.851562 " transform="matrix(1,0,0,-1,0,145.96875)"/>
<path style="fill:none;stroke-width:1.41;stroke-linecap:round;stroke-linejoin:round;stroke:rgb(19.999695%,19.999695%,79.998779%);stroke-opacity:1;stroke-miterlimit:10;" d="M 252.277344 109.050781 L 252.457031 109.710938 L 252.726562 110.851562 L 253.355469 112.609375 L 253.984375 114.5 L 254.703125 116.34375 L 255.511719 117.925781 L 255.960938 118.894531 L 256.320312 119.421875 L 256.5 119.640625 L 256.859375 119.464844 L 257.21875 118.71875 L 257.667969 117.398438 L 258.117188 115.507812 L 258.746094 113.226562 L 259.195312 111.335938 L 259.554688 109.882812 L 259.824219 109.050781 L 259.824219 108.785156 " transform="matrix(1,0,0,-1,0,145.96875)"/>
<path style="fill:none;stroke-width:1.41;stroke-linecap:round;stroke-linejoin:round;stroke:rgb(19.999695%,19.999695%,79.998779%);stroke-opacity:1;stroke-miterlimit:10;" d="M 253.804688 113.046875 L 254.164062 112.828125 L 255.0625 112.828125 L 256.320312 112.917969 L 257.578125 113.09375 L 258.566406 113.269531 L 259.375 113.269531 " transform="matrix(1,0,0,-1,0,145.96875)"/>
<path style="fill:none;stroke-width:1.41;stroke-linecap:round;stroke-linejoin:round;stroke:rgb(19.999695%,19.999695%,79.998779%);stroke-opacity:1;stroke-miterlimit:10;" d="M 254.523438 77.277344 L 254.523438 77.539062 L 254.433594 76.792969 L 254.34375 75.34375 L 254.253906 73.234375 L 254.164062 71.210938 L 253.984375 69.675781 L 253.894531 68.796875 " transform="matrix(1,0,0,-1,0,145.96875)"/>
<path style="fill:none;stroke-width:1.41;stroke-linecap:round;stroke-linejoin:round;stroke:rgb(19.999695%,19.999695%,79.998779%);stroke-opacity:1;stroke-miterlimit:10;" d="M 253.984375 76.265625 L 253.984375 76.617188 L 254.253906 76.882812 L 254.972656 77.144531 L 256.140625 77.320312 L 257.488281 77.367188 L 258.746094 77.101562 L 259.734375 76.53125 L 260.273438 75.609375 L 260.632812 74.421875 L 260.8125 73.277344 L 260.722656 72.265625 L 260.453125 71.300781 L 259.914062 70.507812 L 259.105469 69.894531 L 258.027344 69.453125 L 256.949219 69.191406 L 255.960938 69.148438 L 254.703125 69.148438 " transform="matrix(1,0,0,-1,0,145.96875)"/>
<path style="fill:none;stroke-width:1.41;stroke-linecap:round;stroke-linejoin:round;stroke:rgb(19.999695%,19.999695%,79.998779%);stroke-opacity:1;stroke-miterlimit:10;" d="M 201.875 119.554688 L 201.785156 119.859375 L 201.15625 120.210938 L 200.707031 120.386719 L 200.078125 120.476562 L 199.359375 120.386719 L 198.730469 120.257812 L 198.011719 119.90625 L 197.472656 119.375 L 197.023438 118.804688 L 196.574219 117.96875 L 196.394531 117.222656 L 196.304688 116.609375 L 196.304688 115.597656 L 196.484375 115.113281 L 196.753906 114.5 L 197.023438 113.882812 L 197.292969 113.269531 L 197.5625 112.785156 L 198.28125 112.082031 L 198.730469 111.863281 L 199.089844 111.6875 L 199.449219 111.640625 L 200.078125 111.6875 L 200.796875 111.863281 L 201.515625 112.125 L 202.324219 112.433594 L 202.773438 112.652344 L 203.132812 112.960938 L 203.222656 113.179688 " transform="matrix(1,0,0,-1,0,145.96875)"/>
<path style="fill:none;stroke-width:1.41;stroke-linecap:round;stroke-linejoin:round;stroke:rgb(19.999695%,19.999695%,79.998779%);stroke-opacity:1;stroke-miterlimit:10;" d="M 163.242188 119.203125 L 163.421875 119.464844 L 163.691406 118.761719 L 163.691406 115.816406 L 163.601562 114.191406 L 163.511719 112.960938 L 163.511719 112.171875 L 163.601562 111.863281 " transform="matrix(1,0,0,-1,0,145.96875)"/>
<path style="fill:none;stroke-width:1.41;stroke-linecap:round;stroke-linejoin:round;stroke:rgb(19.999695%,19.999695%,79.998779%);stroke-opacity:1;stroke-miterlimit:10;" d="M 163.691406 118.542969 L 163.601562 119.070312 L 163.691406 119.554688 L 163.960938 120.167969 L 164.589844 120.828125 L 165.667969 121.265625 L 166.746094 121.355469 L 167.734375 120.828125 L 168.09375 119.949219 L 167.914062 118.894531 L 166.925781 117.925781 L 165.757812 117.179688 L 164.679688 116.652344 L 164.140625 116.390625 L 164.949219 116.433594 L 165.9375 116.390625 L 167.015625 116.125 L 168.003906 115.773438 L 168.632812 115.113281 L 168.722656 114.367188 L 168.632812 113.578125 L 168.363281 112.875 L 168.003906 112.390625 L 167.644531 112.125 L 167.195312 111.863281 L 166.476562 111.554688 L 165.667969 111.335938 L 164.769531 111.378906 L 164.050781 111.511719 L 163.691406 111.820312 L 163.421875 112.171875 " transform="matrix(1,0,0,-1,0,145.96875)"/>
<path style="fill:none;stroke-width:2.26;stroke-linecap:round;stroke-linejoin:round;stroke:rgb(19.999695%,19.999695%,79.998779%);stroke-opacity:1;stroke-miterlimit:10;" d="M 184.714844 124.296875 L 184.535156 124.648438 L 184.355469 125.046875 L 183.816406 125.484375 L 182.828125 125.882812 L 181.570312 125.835938 L 180.132812 125.441406 L 178.875 124.519531 L 178.066406 123.332031 L 177.707031 121.925781 L 178.246094 120.609375 L 179.414062 119.773438 L 181.121094 119.554688 L 182.917969 119.992188 L 184.175781 120.960938 L 185.074219 121.925781 L 185.433594 122.890625 L 185.523438 123.421875 L 185.433594 123.640625 L 185.253906 122.980469 L 184.894531 121.925781 L 184.535156 120.476562 L 184.265625 118.671875 L 183.816406 116.785156 L 183.367188 114.058594 L 182.917969 110.894531 L 182.558594 107.554688 L 182.46875 105.007812 L 182.917969 103.734375 L 183.90625 103.554688 L 185.074219 104.214844 L 186.0625 105.226562 L 186.78125 106.148438 L 186.78125 106.851562 L 186.152344 107.554688 L 185.164062 108.171875 L 184.085938 108.742188 L 183.277344 109.359375 L 183.097656 109.796875 L 183.367188 110.148438 L 183.90625 110.585938 L 184.445312 110.984375 L 185.253906 111.554688 L 185.972656 112.125 L 186.511719 112.742188 L 186.871094 113.3125 L 186.960938 113.664062 L 186.960938 113.972656 " transform="matrix(1,0,0,-1,0,145.96875)"/>
<path style="fill:none;stroke-width:2.26;stroke-linecap:round;stroke-linejoin:round;stroke:rgb(19.999695%,19.999695%,79.998779%);stroke-opacity:1;stroke-miterlimit:10;" d="M 273.929688 99.558594 L 273.570312 99.117188 L 273.480469 98.460938 L 273.210938 96.703125 L 272.851562 93.890625 L 272.402344 90.679688 L 271.863281 87.296875 L 271.503906 84.878906 L 271.234375 83.695312 L 271.144531 83.210938 " transform="matrix(1,0,0,-1,0,145.96875)"/>
<path style="fill:none;stroke-width:2.26;stroke-linecap:round;stroke-linejoin:round;stroke:rgb(19.999695%,19.999695%,79.998779%);stroke-opacity:1;stroke-miterlimit:10;" d="M 272.671875 98.371094 L 272.851562 99.117188 L 273.300781 99.953125 L 274.019531 100.742188 L 275.457031 101.492188 L 277.074219 101.84375 L 278.691406 101.796875 L 280.308594 101.402344 L 281.207031 100.699219 L 281.746094 99.953125 L 281.835938 98.898438 L 281.65625 97.710938 L 281.207031 96.261719 L 280.308594 94.765625 L 278.960938 93.757812 L 277.433594 93.359375 L 275.996094 93.40625 L 274.917969 93.667969 L 274.289062 94.019531 L 274.019531 94.285156 " transform="matrix(1,0,0,-1,0,145.96875)"/>
<path style="fill:none;stroke-width:1.41;stroke-linecap:round;stroke-linejoin:round;stroke:rgb(0%,0%,0%);stroke-opacity:1;stroke-miterlimit:10;" d="M 105.746094 96.972656 L 105.835938 96.710938 L 105.925781 95.304688 L 106.015625 92.929688 L 106.015625 89.898438 L 105.835938 87.21875 L 105.746094 85.632812 L 105.746094 84.800781 " transform="matrix(1,0,0,-1,0,145.96875)"/>
<path style="fill:none;stroke-width:1.41;stroke-linecap:round;stroke-linejoin:round;stroke:rgb(0%,0%,0%);stroke-opacity:1;stroke-miterlimit:10;" d="M 105.925781 88.796875 L 106.195312 89.28125 L 106.554688 89.679688 L 107.273438 89.984375 L 108.171875 90.203125 L 108.980469 90.335938 L 110.058594 90.511719 L 110.777344 90.644531 L 111.40625 90.6875 L 111.945312 90.734375 L 112.035156 90.953125 " transform="matrix(1,0,0,-1,0,145.96875)"/>
<path style="fill:none;stroke-width:1.41;stroke-linecap:round;stroke-linejoin:round;stroke:rgb(0%,0%,0%);stroke-opacity:1;stroke-miterlimit:10;" d="M 113.203125 95.566406 L 113.023438 95.828125 L 113.023438 94.6875 L 113.113281 93.414062 L 113.113281 91.214844 L 113.023438 88.667969 L 112.933594 86.46875 L 112.84375 84.578125 L 112.753906 83.613281 " transform="matrix(1,0,0,-1,0,145.96875)"/>
<path style="fill:none;stroke-width:2.26;stroke-linecap:round;stroke-linejoin:round;stroke:rgb(19.999695%,19.999695%,79.998779%);stroke-opacity:1;stroke-miterlimit:10;" d="M 119.582031 89.898438 L 119.582031 89.632812 L 119.761719 89.328125 L 120.121094 89.148438 L 120.839844 89.0625 L 122.007812 88.929688 L 124.433594 88.929688 L 125.871094 89.0625 L 127.21875 89.328125 L 128.476562 89.679688 L 129.464844 90.074219 L 130.273438 90.601562 L 130.902344 91.171875 L 131.621094 91.875 L 132.339844 92.710938 L 132.96875 93.546875 L 133.597656 94.601562 L 134.046875 95.742188 L 134.40625 96.839844 L 134.855469 98.117188 L 135.304688 99.390625 L 135.84375 100.796875 L 136.472656 102.246094 L 137.011719 103.609375 L 137.550781 104.925781 L 138.179688 106.375 L 138.898438 107.609375 L 139.617188 108.792969 L 140.605469 109.890625 L 141.503906 110.773438 L 142.671875 111.695312 L 143.929688 112.660156 L 145.1875 113.453125 L 146.355469 114.109375 L 147.523438 114.59375 L 148.691406 115.035156 L 149.949219 115.429688 L 151.296875 115.824219 L 152.375 116.132812 L 153.183594 116.265625 L 154.621094 116.351562 L 155.429688 116.398438 L 157.316406 116.398438 L 157.855469 116.351562 L 158.125 116.265625 L 158.484375 116.132812 " transform="matrix(1,0,0,-1,0,145.96875)"/>
<path style="fill:none;stroke-width:2.26;stroke-linecap:round;stroke-linejoin:round;stroke:rgb(19.999695%,19.999695%,79.998779%);stroke-opacity:1;stroke-miterlimit:10;" d="M 125.152344 89.28125 L 125.691406 89.238281 L 127.578125 89.238281 L 128.835938 89.148438 L 130.363281 88.929688 L 132.070312 88.578125 L 133.6875 88.050781 L 135.125 87.523438 L 136.472656 86.867188 L 137.460938 85.941406 L 138.089844 84.886719 L 138.71875 83.703125 L 139.257812 82.425781 L 139.796875 81.242188 L 140.246094 80.054688 L 140.785156 78.824219 L 141.414062 77.679688 L 141.953125 76.449219 L 142.671875 75.175781 L 143.570312 74.03125 L 144.648438 72.976562 L 146.175781 71.921875 L 147.792969 71.089844 L 149.589844 70.429688 L 151.925781 69.902344 L 154.351562 69.640625 L 156.957031 69.460938 L 159.832031 69.417969 L 162.4375 69.507812 L 165.132812 69.683594 L 168.097656 69.859375 L 170.792969 69.945312 L 173.488281 69.992188 L 176.453125 70.035156 L 179.148438 70.164062 L 182.023438 70.296875 L 185.078125 70.386719 L 187.953125 70.386719 L 191.007812 70.34375 L 194.242188 70.34375 L 197.207031 70.386719 L 199.8125 70.429688 L 202.507812 70.515625 L 205.113281 70.648438 L 208.078125 70.824219 L 211.402344 70.957031 L 214.636719 71.132812 L 217.691406 71.265625 L 220.566406 71.484375 L 222.902344 71.703125 L 225.058594 71.835938 L 227.394531 71.96875 L 229.371094 72.054688 L 231.347656 72.054688 L 232.964844 72.101562 L 234.042969 72.144531 L 235.03125 72.1875 L 235.929688 72.230469 L 237.097656 72.363281 L 238.625 72.453125 L 240.0625 72.582031 L 241.5 72.714844 L 242.488281 72.847656 L 243.207031 72.933594 L 243.835938 73.066406 L 244.554688 73.15625 L 245.453125 73.285156 L 246.441406 73.417969 L 247.160156 73.507812 L 247.789062 73.550781 L 248.417969 73.550781 L 248.6875 73.460938 " transform="matrix(1,0,0,-1,0,145.96875)"/>
<path style="fill:none;stroke-width:2.26;stroke-linecap:round;stroke-linejoin:round;stroke:rgb(100%,0%,0%);stroke-opacity:1;stroke-miterlimit:10;" d="M 18.535156 69.242188 L 23.703125 69.15625 L 28.867188 69.074219 L 34.035156 68.992188 L 39.199219 68.90625 L 44.367188 68.824219 L 49.53125 68.742188 L 54.699219 68.65625 L 59.863281 68.574219 L 65.03125 68.488281 L 70.195312 68.40625 " transform="matrix(1,0,0,-1,0,145.96875)"/>
<path style="fill:none;stroke-width:2.26;stroke-linecap:round;stroke-linejoin:round;stroke:rgb(100%,0%,0%);stroke-opacity:1;stroke-miterlimit:10;" d="M 70.285156 68.757812 L 70.644531 76.226562 " transform="matrix(1,0,0,-1,0,145.96875)"/>
<path style="fill:none;stroke-width:2.26;stroke-linecap:round;stroke-linejoin:round;stroke:rgb(100%,0%,0%);stroke-opacity:1;stroke-miterlimit:10;" d="M 68.128906 100.003906 L 68.128906 108.703125 " transform="matrix(1,0,0,-1,0,145.96875)"/>
<path style="fill:none;stroke-width:2.26;stroke-linecap:round;stroke-linejoin:round;stroke:rgb(100%,0%,0%);stroke-opacity:1;stroke-miterlimit:10;" d="M 68.308594 108.660156 L 57.785156 108.738281 L 52.527344 108.777344 L 36.742188 108.894531 L 31.484375 108.933594 L 20.960938 109.011719 " transform="matrix(1,0,0,-1,0,145.96875)"/>
<path style="fill:none;stroke-width:2.26;stroke-linecap:round;stroke-linejoin:round;stroke:rgb(100%,0%,0%);stroke-opacity:1;stroke-miterlimit:10;" d="M 69.566406 100.355469 L 74.238281 99.914062 " transform="matrix(1,0,0,-1,0,145.96875)"/>
<path style="fill:none;stroke-width:2.26;stroke-linecap:round;stroke-linejoin:round;stroke:rgb(100%,0%,0%);stroke-opacity:1;stroke-miterlimit:10;" d="M 74.777344 99.914062 L 75.496094 78.117188 " transform="matrix(1,0,0,-1,0,145.96875)"/>
<path style="fill:none;stroke-width:2.26;stroke-linecap:round;stroke-linejoin:round;stroke:rgb(100%,0%,0%);stroke-opacity:1;stroke-miterlimit:10;" d="M 75.675781 77.984375 L 70.464844 77.328125 " transform="matrix(1,0,0,-1,0,145.96875)"/>
<path style="fill:none;stroke-width:2.26;stroke-linecap:round;stroke-linejoin:round;stroke:rgb(100%,0%,0%);stroke-opacity:1;stroke-miterlimit:10;" d="M 20.6875 109.78125 L 20.21875 68.78125 " transform="matrix(1,0,0,-1,0,145.96875)"/>
<path style="fill:none;stroke-width:2.26;stroke-linecap:round;stroke-linejoin:round;stroke:rgb(100%,0%,0%);stroke-opacity:1;stroke-miterlimit:10;" d="M 38.59375 94.25 L 38.75 93.59375 L 39.03125 92.25 L 39.46875 90.21875 L 39.96875 88.125 L 40.34375 86.46875 L 40.625 85.21875 L 40.75 84.4375 L 40.9375 83.84375 L 41.21875 82.71875 L 41.0625 83.125 L 40.875 83.96875 L 40.6875 85.71875 L 40.6875 88 L 41.15625 90.40625 L 42.28125 92.625 L 43.75 93.96875 L 45.34375 94.5625 L 46.75 94.5625 L 47.65625 94.3125 L 48.15625 94.03125 L 48.34375 93.84375 " transform="matrix(1,0,0,-1,0,145.96875)"/>
<path style="fill:none;stroke-width:1.41;stroke-linecap:round;stroke-linejoin:round;stroke:rgb(100%,0%,0%);stroke-opacity:1;stroke-miterlimit:10;" d="M 63.75 92.875 L 63.6875 92.375 L 63.71875 91.9375 L 63.71875 91.03125 L 63.65625 89.59375 L 63.53125 87.8125 L 63.46875 86 L 63.46875 84.75 L 63.8125 84.09375 L 64.46875 83.8125 L 65.375 83.6875 L 66.25 83.625 L 66.9375 83.625 L 67.3125 83.71875 L 67.59375 83.8125 " transform="matrix(1,0,0,-1,0,145.96875)"/>
<path style="fill:none;stroke-width:1.41;stroke-linecap:round;stroke-linejoin:round;stroke:rgb(100%,0%,0%);stroke-opacity:1;stroke-miterlimit:10;" d="M 65.15625 88.0625 L 65.53125 88.4375 L 66.375 88.71875 L 67.3125 88.875 L 67.875 88.9375 L 68.125 89.09375 " transform="matrix(1,0,0,-1,0,145.96875)"/>
<path style="fill:none;stroke-width:1.41;stroke-linecap:round;stroke-linejoin:round;stroke:rgb(100%,0%,0%);stroke-opacity:1;stroke-miterlimit:10;" d="M 64.21875 92.15625 L 64.34375 92.40625 L 64.71875 92.5625 L 65.6875 92.71875 L 68 92.84375 L 69 92.875 L 69.40625 92.875 " transform="matrix(1,0,0,-1,0,145.96875)"/>
<path style="fill:none;stroke-width:2.26;stroke-linecap:round;stroke-linejoin:round;stroke:rgb(100%,0%,0%);stroke-opacity:1;stroke-miterlimit:10;" d="M 77.0625 90.34375 L 77.15625 90.09375 L 77.5625 90 L 77.90625 89.96875 L 78.46875 89.9375 L 79.375 89.90625 L 80.5625 89.875 L 82 89.90625 L 83.53125 89.9375 L 84.90625 90.03125 L 86.28125 90.09375 L 87.625 90.15625 L 88.65625 90.21875 L 89.75 90.28125 L 90.71875 90.3125 L 91.4375 90.34375 L 92.34375 90.375 L 92.9375 90.34375 L 93.4375 90.3125 L 94.09375 90.25 L 94.71875 90.1875 L 96.03125 90.0625 L 96.5625 90.03125 L 96.9375 90 L 97.84375 90 L 98.1875 89.96875 L 98.53125 89.90625 L 98.84375 89.75 L 99.15625 89.5625 " transform="matrix(1,0,0,-1,0,145.96875)"/>
<path style="fill:none;stroke-width:1.41;stroke-linecap:round;stroke-linejoin:round;stroke:rgb(19.999695%,19.999695%,79.998779%);stroke-opacity:1;stroke-miterlimit:10;" d="M 21.480469 23.621094 L 21.480469 19.710938 L 21.570312 16.105469 L 21.480469 11.886719 L 21.390625 8.589844 L 21.210938 6.480469 L 21.121094 5.558594 L 20.941406 5.820312 L 20.851562 6.21875 " transform="matrix(1,0,0,-1,0,145.96875)"/>
<path style="fill:none;stroke-width:1.41;stroke-linecap:round;stroke-linejoin:round;stroke:rgb(19.999695%,19.999695%,79.998779%);stroke-opacity:1;stroke-miterlimit:10;" d="M 21.660156 22.695312 L 21.929688 23.226562 L 22.648438 23.75 L 23.816406 24.191406 L 25.164062 24.324219 L 26.691406 23.882812 L 27.679688 22.742188 L 28.488281 21.070312 L 28.667969 19.007812 L 28.21875 17.25 L 27.140625 15.886719 L 25.34375 15.09375 L 23.726562 14.917969 L 22.46875 15.007812 L 21.75 15.3125 L 21.660156 15.664062 L 21.660156 16.0625 " transform="matrix(1,0,0,-1,0,145.96875)"/>
<path style="fill:none;stroke-width:1.41;stroke-linecap:round;stroke-linejoin:round;stroke:rgb(19.999695%,19.999695%,79.998779%);stroke-opacity:1;stroke-miterlimit:10;" d="M 35.855469 33.15625 L 35.945312 33.421875 L 35.496094 33.640625 L 34.777344 33.816406 L 33.789062 33.945312 L 32.621094 34.035156 L 31.8125 33.902344 L 31.363281 33.332031 L 31.273438 32.101562 L 31.453125 30.652344 L 31.632812 29.070312 L 31.8125 27.574219 L 31.992188 26.34375 L 32.082031 24.984375 L 32.171875 23.179688 L 32.261719 20.675781 L 32.261719 10.4375 L 32.351562 10.128906 L 32.710938 10.039062 L 33.519531 9.996094 L 34.507812 9.867188 L 35.496094 9.734375 L 36.214844 9.644531 L 36.574219 9.558594 L 36.304688 9.601562 " transform="matrix(1,0,0,-1,0,145.96875)"/>
<path style="fill:none;stroke-width:1.41;stroke-linecap:round;stroke-linejoin:round;stroke:rgb(19.999695%,19.999695%,79.998779%);stroke-opacity:1;stroke-miterlimit:10;" d="M 39.898438 15.535156 L 39.628906 15.269531 L 39.71875 15.535156 L 40.078125 16.632812 L 40.707031 18.566406 L 41.695312 21.597656 L 42.59375 24.585938 L 43.3125 27.09375 L 43.851562 28.9375 L 44.300781 29.464844 L 44.75 29.070312 L 45.46875 27.53125 L 46.277344 24.984375 L 47.175781 21.820312 L 47.984375 18.476562 L 48.523438 15.972656 L 48.882812 14.4375 L 49.0625 13.820312 " transform="matrix(1,0,0,-1,0,145.96875)"/>
<path style="fill:none;stroke-width:1.41;stroke-linecap:round;stroke-linejoin:round;stroke:rgb(19.999695%,19.999695%,79.998779%);stroke-opacity:1;stroke-miterlimit:10;" d="M 41.695312 18.566406 L 41.964844 18.742188 L 42.683594 18.960938 L 44.03125 19.226562 L 45.289062 19.3125 L 46.367188 19.402344 L 47.085938 19.359375 L 47.445312 19.445312 " transform="matrix(1,0,0,-1,0,145.96875)"/>
<path style="fill:none;stroke-width:1.41;stroke-linecap:round;stroke-linejoin:round;stroke:rgb(19.999695%,19.999695%,79.998779%);stroke-opacity:1;stroke-miterlimit:10;" d="M 51.847656 22.300781 L 52.386719 22.34375 L 53.464844 22.433594 L 54.992188 22.566406 L 56.519531 22.652344 L 57.507812 22.742188 L 58.046875 22.785156 L 58.316406 22.785156 L 57.777344 22.609375 " transform="matrix(1,0,0,-1,0,145.96875)"/>
<path style="fill:none;stroke-width:1.41;stroke-linecap:round;stroke-linejoin:round;stroke:rgb(19.999695%,19.999695%,79.998779%);stroke-opacity:1;stroke-miterlimit:10;" d="M 52.386719 17.46875 L 52.65625 17.335938 L 53.195312 17.292969 L 54.183594 17.25 L 56.609375 17.25 L 57.597656 17.292969 L 58.316406 17.335938 " transform="matrix(1,0,0,-1,0,145.96875)"/>
<path style="fill:none;stroke-width:1.41;stroke-linecap:round;stroke-linejoin:round;stroke:rgb(19.999695%,19.999695%,79.998779%);stroke-opacity:1;stroke-miterlimit:10;" d="M 69.457031 23.398438 L 69.636719 23.664062 L 69.546875 24.148438 L 69.1875 24.632812 L 68.378906 24.851562 L 67.300781 24.632812 L 66.132812 23.972656 L 64.964844 22.742188 L 64.425781 20.9375 L 64.515625 19.179688 L 65.324219 17.90625 L 66.851562 17.773438 L 68.46875 18.828125 L 69.90625 20.585938 L 70.804688 22.476562 L 71.074219 23.53125 L 70.804688 22.433594 L 70.625 20.71875 L 70.535156 18.875 L 70.355469 17.160156 L 70.175781 14.65625 L 69.996094 11.929688 L 70.085938 9.382812 L 70.714844 7.226562 L 71.792969 6.613281 L 73.140625 6.832031 L 74.21875 7.757812 L 74.667969 9.074219 L 74.578125 10.347656 L 74.128906 11.578125 L 73.5 12.414062 L 73.050781 12.851562 L 72.332031 13.292969 L 71.613281 13.6875 L 71.164062 14.039062 L 70.714844 14.257812 L 70.804688 14.566406 L 71.523438 15.09375 L 72.691406 15.886719 L 73.949219 16.765625 L 74.847656 17.46875 L 75.386719 18.082031 L 75.296875 18.566406 " transform="matrix(1,0,0,-1,0,145.96875)"/>
<path style="fill:none;stroke-width:1.41;stroke-linecap:round;stroke-linejoin:round;stroke:rgb(19.999695%,19.999695%,79.998779%);stroke-opacity:1;stroke-miterlimit:10;" d="M 83.023438 32.847656 L 83.292969 32.890625 L 82.84375 32.980469 L 82.035156 32.980469 L 80.867188 32.9375 L 79.789062 32.804688 L 78.980469 32.628906 L 78.441406 32.101562 L 78.351562 30.738281 L 78.621094 28.320312 L 78.980469 24.851562 L 79.339844 21.421875 L 79.609375 18.039062 L 79.699219 15.445312 L 79.699219 13.90625 L 79.789062 12.765625 L 80.058594 12.371094 L 80.417969 12.328125 L 80.867188 12.371094 L 81.40625 12.414062 L 82.753906 12.414062 L 83.472656 12.457031 L 84.460938 12.457031 L 84.371094 12.722656 " transform="matrix(1,0,0,-1,0,145.96875)"/>
<path style="fill:none;stroke-width:1.41;stroke-linecap:round;stroke-linejoin:round;stroke:rgb(19.999695%,19.999695%,79.998779%);stroke-opacity:1;stroke-miterlimit:10;" d="M 88.773438 27.222656 L 88.683594 27.003906 L 88.683594 23.929688 L 88.773438 21.992188 L 88.773438 18.390625 L 88.863281 17.117188 " transform="matrix(1,0,0,-1,0,145.96875)"/>
<path style="fill:none;stroke-width:1.41;stroke-linecap:round;stroke-linejoin:round;stroke:rgb(19.999695%,19.999695%,79.998779%);stroke-opacity:1;stroke-miterlimit:10;" d="M 88.683594 27.09375 L 89.3125 27.796875 L 90.300781 28.410156 L 91.738281 28.71875 L 93.355469 28.5 L 94.523438 27.664062 L 94.792969 26.257812 L 93.984375 24.632812 L 92.546875 23.355469 L 91.019531 22.652344 L 90.300781 22.566406 L 90.75 22.785156 L 92.007812 22.742188 L 93.625 22.390625 L 94.972656 21.773438 L 95.960938 21.070312 L 96.5 20.457031 L 96.949219 19.753906 L 97.21875 19.050781 L 97.308594 17.863281 L 97.21875 16.546875 L 96.859375 15.492188 L 96.410156 14.4375 L 95.871094 13.953125 L 95.332031 13.6875 L 94.253906 13.554688 L 92.996094 13.6875 L 91.738281 13.996094 L 90.390625 14.566406 L 89.761719 15.226562 L 89.3125 15.753906 L 89.132812 16.28125 " transform="matrix(1,0,0,-1,0,145.96875)"/>
<path style="fill:none;stroke-width:1.41;stroke-linecap:round;stroke-linejoin:round;stroke:rgb(19.999695%,19.999695%,79.998779%);stroke-opacity:1;stroke-miterlimit:10;" d="M 101.710938 24.148438 L 101.441406 24.191406 L 106.023438 24.191406 L 107.101562 24.234375 L 107.640625 24.234375 " transform="matrix(1,0,0,-1,0,145.96875)"/>
<path style="fill:none;stroke-width:1.41;stroke-linecap:round;stroke-linejoin:round;stroke:rgb(19.999695%,19.999695%,79.998779%);stroke-opacity:1;stroke-miterlimit:10;" d="M 102.789062 20.808594 L 102.96875 20.632812 L 103.417969 20.585938 L 104.046875 20.542969 L 105.035156 20.5 L 106.023438 20.414062 L 106.921875 20.414062 L 107.460938 20.367188 L 107.820312 20.28125 " transform="matrix(1,0,0,-1,0,145.96875)"/>
<path style="fill:none;stroke-width:1.41;stroke-linecap:round;stroke-linejoin:round;stroke:rgb(19.999695%,19.999695%,79.998779%);stroke-opacity:1;stroke-miterlimit:10;" d="M 118.78125 30.476562 L 119.050781 30.210938 L 119.050781 29.859375 L 118.960938 29.289062 L 118.691406 28.453125 L 118.0625 27.3125 L 116.984375 25.554688 L 115.636719 23.53125 L 114.378906 21.820312 L 113.660156 20.457031 L 114.199219 19.53125 L 115.457031 18.65625 L 116.894531 17.46875 L 118.242188 16.195312 L 119.050781 15.359375 L 119.5 14.917969 " transform="matrix(1,0,0,-1,0,145.96875)"/>
<path style="fill:none;stroke-width:1.41;stroke-linecap:round;stroke-linejoin:round;stroke:rgb(19.999695%,19.999695%,79.998779%);stroke-opacity:1;stroke-miterlimit:10;" d="M 123.722656 27.09375 L 123.8125 26.695312 L 123.902344 25.816406 L 123.902344 22.039062 L 123.992188 20.191406 L 123.992188 17.996094 L 124.082031 17.601562 " transform="matrix(1,0,0,-1,0,145.96875)"/>
<path style="fill:none;stroke-width:1.41;stroke-linecap:round;stroke-linejoin:round;stroke:rgb(19.999695%,19.999695%,79.998779%);stroke-opacity:1;stroke-miterlimit:10;" d="M 124.441406 21.597656 L 124.621094 21.863281 L 125.519531 22.257812 L 126.6875 22.609375 L 127.945312 22.875 L 129.113281 23.136719 L 129.5625 23.179688 L 129.832031 23.09375 " transform="matrix(1,0,0,-1,0,145.96875)"/>
<path style="fill:none;stroke-width:1.41;stroke-linecap:round;stroke-linejoin:round;stroke:rgb(19.999695%,19.999695%,79.998779%);stroke-opacity:1;stroke-miterlimit:10;" d="M 130.640625 27.3125 L 130.550781 26.914062 L 130.550781 19.882812 L 130.640625 17.730469 L 130.820312 17.117188 L 131 17.421875 " transform="matrix(1,0,0,-1,0,145.96875)"/>
<path style="fill:none;stroke-width:1.41;stroke-linecap:round;stroke-linejoin:round;stroke:rgb(19.999695%,19.999695%,79.998779%);stroke-opacity:1;stroke-miterlimit:10;" d="M 133.15625 31.75 L 133.335938 31.53125 L 133.964844 30.871094 L 135.222656 29.554688 L 136.660156 28.101562 L 137.828125 26.871094 L 138.546875 25.949219 L 138.636719 25.335938 L 138.277344 24.453125 L 137.46875 22.960938 L 136.570312 21.160156 L 135.671875 19.53125 L 135.042969 18.347656 L 134.773438 17.90625 " transform="matrix(1,0,0,-1,0,145.96875)"/>
<path style="fill:none;stroke-width:1.41;stroke-linecap:round;stroke-linejoin:round;stroke:rgb(19.999695%,19.999695%,79.998779%);stroke-opacity:1;stroke-miterlimit:10;" d="M 139.265625 33.507812 L 139.625 33.375 L 141.78125 33.375 L 143.21875 33.507812 L 144.207031 33.550781 L 144.746094 33.464844 L 144.835938 32.9375 L 144.835938 26.257812 L 144.925781 22.828125 L 145.015625 19.488281 L 145.015625 15.09375 L 144.925781 13.6875 L 144.835938 12.765625 L 144.746094 12.238281 L 144.566406 11.976562 L 144.117188 11.929688 L 143.21875 11.929688 L 142.320312 12.0625 L 141.421875 12.148438 L 140.792969 12.195312 L 140.523438 12.195312 " transform="matrix(1,0,0,-1,0,145.96875)"/>
<path style="fill:none;stroke-width:1.41;stroke-linecap:round;stroke-linejoin:round;stroke:rgb(19.999695%,19.999695%,79.998779%);stroke-opacity:1;stroke-miterlimit:10;" d="M 151.125 14.960938 L 150.855469 15.007812 L 150.765625 15.3125 L 150.585938 15.050781 L 150.316406 14.875 L 149.957031 14.917969 L 149.6875 15.269531 L 149.777344 15.710938 L 150.226562 16.148438 L 150.945312 16.28125 L 151.574219 16.105469 L 152.292969 15.535156 L 152.832031 14.4375 L 152.921875 13.117188 L 152.5625 11.84375 L 151.933594 10.964844 L 151.214844 10.65625 L 150.675781 10.699219 L 150.40625 10.832031 " transform="matrix(1,0,0,-1,0,145.96875)"/>
<path style="fill:none;stroke-width:1.41;stroke-linecap:round;stroke-linejoin:round;stroke:rgb(19.999695%,19.999695%,79.998779%);stroke-opacity:1;stroke-miterlimit:10;" d="M 158.3125 29.597656 L 158.3125 29.023438 L 158.402344 27.3125 L 158.492188 24.5 L 158.761719 21.773438 L 158.851562 19.578125 L 158.851562 18.039062 " transform="matrix(1,0,0,-1,0,145.96875)"/>
<path style="fill:none;stroke-width:1.41;stroke-linecap:round;stroke-linejoin:round;stroke:rgb(19.999695%,19.999695%,79.998779%);stroke-opacity:1;stroke-miterlimit:10;" d="M 158.761719 27.179688 L 158.941406 27.664062 L 159.480469 28.320312 L 160.46875 28.851562 L 161.996094 28.9375 L 163.792969 28.148438 L 165.410156 26.476562 L 166.488281 24.101562 L 166.757812 21.511719 L 166.488281 19.53125 L 165.5 18.039062 L 164.152344 17.160156 L 162.625 17.070312 L 161.1875 17.070312 L 160.289062 17.421875 L 159.75 17.773438 L 159.660156 18.039062 " transform="matrix(1,0,0,-1,0,145.96875)"/>
<path style="fill:none;stroke-width:1.41;stroke-linecap:round;stroke-linejoin:round;stroke:rgb(19.999695%,19.999695%,79.998779%);stroke-opacity:1;stroke-miterlimit:10;" d="M 173.136719 24.453125 L 173.40625 24.71875 L 174.214844 24.675781 L 175.382812 24.632812 L 176.371094 24.632812 L 177.089844 24.585938 L 177.449219 24.542969 L 177.269531 24.191406 " transform="matrix(1,0,0,-1,0,145.96875)"/>
<path style="fill:none;stroke-width:1.41;stroke-linecap:round;stroke-linejoin:round;stroke:rgb(19.999695%,19.999695%,79.998779%);stroke-opacity:1;stroke-miterlimit:10;" d="M 172.597656 21.160156 L 172.328125 21.070312 L 172.597656 20.9375 L 173.585938 20.851562 L 174.753906 20.71875 L 176.011719 20.542969 L 177 20.414062 L 177.449219 20.457031 " transform="matrix(1,0,0,-1,0,145.96875)"/>
<path style="fill:none;stroke-width:1.41;stroke-linecap:round;stroke-linejoin:round;stroke:rgb(19.999695%,19.999695%,79.998779%);stroke-opacity:1;stroke-miterlimit:10;" d="M 187.601562 30.652344 L 187.511719 30.300781 L 187.0625 29.070312 L 185.894531 27.3125 L 184.367188 25.15625 L 182.839844 23.488281 L 182.03125 22.257812 L 182.660156 21.203125 L 184.1875 20.191406 L 186.164062 19.007812 L 187.691406 17.863281 L 188.5 17.117188 L 188.859375 16.851562 " transform="matrix(1,0,0,-1,0,145.96875)"/>
<path style="fill:none;stroke-width:1.41;stroke-linecap:round;stroke-linejoin:round;stroke:rgb(19.999695%,19.999695%,79.998779%);stroke-opacity:1;stroke-miterlimit:10;" d="M 191.464844 27.75 L 191.375 27.488281 L 191.464844 26.695312 L 191.554688 24.585938 L 191.554688 19.753906 L 191.464844 17.90625 " transform="matrix(1,0,0,-1,0,145.96875)"/>
<path style="fill:none;stroke-width:1.41;stroke-linecap:round;stroke-linejoin:round;stroke:rgb(19.999695%,19.999695%,79.998779%);stroke-opacity:1;stroke-miterlimit:10;" d="M 191.554688 21.027344 L 191.914062 21.6875 L 192.632812 22.039062 L 193.800781 22.257812 L 195.148438 22.433594 L 196.136719 22.523438 L 196.855469 22.566406 " transform="matrix(1,0,0,-1,0,145.96875)"/>
<path style="fill:none;stroke-width:1.41;stroke-linecap:round;stroke-linejoin:round;stroke:rgb(19.999695%,19.999695%,79.998779%);stroke-opacity:1;stroke-miterlimit:10;" d="M 196.765625 27.96875 L 196.855469 27.488281 L 196.945312 25.816406 L 197.125 23.3125 L 197.304688 20.71875 L 197.394531 18.65625 L 197.484375 17.601562 " transform="matrix(1,0,0,-1,0,145.96875)"/>
<path style="fill:none;stroke-width:1.41;stroke-linecap:round;stroke-linejoin:round;stroke:rgb(19.999695%,19.999695%,79.998779%);stroke-opacity:1;stroke-miterlimit:10;" d="M 201.796875 30.257812 L 201.347656 30.34375 L 201.078125 30.34375 L 201.257812 30.167969 L 202.066406 29.683594 L 203.324219 28.851562 L 204.761719 27.925781 L 206.289062 27.003906 L 207.1875 26.390625 L 207.636719 25.992188 L 207.457031 25.289062 L 206.917969 24.148438 L 206.019531 22.257812 L 205.03125 19.710938 L 204.222656 17.601562 L 203.683594 16.0625 L 203.414062 15.226562 L 203.59375 15.492188 " transform="matrix(1,0,0,-1,0,145.96875)"/>
<path style="fill:none;stroke-width:1.41;stroke-linecap:round;stroke-linejoin:round;stroke:rgb(19.999695%,19.999695%,79.998779%);stroke-opacity:1;stroke-miterlimit:10;" d="M 207.90625 35.398438 L 207.726562 35.574219 L 208.175781 35.351562 L 208.625 35.265625 L 209.882812 35.351562 L 211.320312 35.574219 L 212.847656 35.835938 L 214.195312 36.101562 L 214.644531 36.101562 L 214.734375 35.882812 L 214.644531 34.828125 L 214.644531 32.9375 L 214.734375 30.125 L 214.914062 26.5625 L 215.183594 23.226562 L 215.363281 20.191406 L 215.453125 17.421875 L 215.453125 13.382812 L 215.363281 12.0625 L 215.453125 11.402344 L 215.453125 11.140625 L 214.914062 11.09375 L 214.195312 11.09375 L 213.296875 11.050781 L 212.578125 11.007812 L 212.128906 10.964844 L 211.859375 10.921875 " transform="matrix(1,0,0,-1,0,145.96875)"/>
<path style="fill:none;stroke-width:1.41;stroke-linecap:round;stroke-linejoin:round;stroke:rgb(0%,0%,0%);stroke-opacity:1;stroke-miterlimit:10;" d="M 17.5625 38.5625 L 17.15625 38.125 L 16.6875 37.65625 L 16.09375 36.9375 L 15.5 36.0625 L 14.84375 34.96875 L 14.21875 33.625 L 13.59375 32.21875 L 13.03125 30.8125 L 12.5625 29.46875 L 12.21875 28.125 L 11.90625 26.65625 L 11.71875 25.15625 L 11.59375 23.6875 L 11.53125 22.15625 L 11.5625 20.6875 L 11.65625 19.21875 L 11.9375 17.71875 L 12.21875 16.53125 L 12.65625 15.4375 L 13.1875 14.5 L 13.75 13.6875 L 14.3125 12.90625 L 14.75 12.46875 L 15.03125 12.25 " transform="matrix(1,0,0,-1,0,145.96875)"/>
<path style="fill:none;stroke-width:1.41;stroke-linecap:round;stroke-linejoin:round;stroke:rgb(0%,0%,0%);stroke-opacity:1;stroke-miterlimit:10;" d="M 218.28125 37.125 L 218.34375 36.6875 L 218.875 35.90625 L 219.6875 34.71875 L 220.6875 33.1875 L 221.5625 31.625 L 222.25 30.34375 L 222.71875 29.34375 L 222.96875 28.59375 L 223.21875 27.875 L 223.625 26.25 L 223.8125 25.03125 L 223.875 23.6875 L 223.90625 22.375 L 223.84375 21.21875 L 223.625 19.9375 L 223.3125 18.65625 L 222.96875 17.28125 L 222.5625 15.84375 L 222.25 14.96875 L 222.03125 14.46875 L 221.90625 14.125 " transform="matrix(1,0,0,-1,0,145.96875)"/>
<path style="fill:none;stroke-width:1.41;stroke-linecap:round;stroke-linejoin:round;stroke:rgb(0%,0%,0%);stroke-opacity:1;stroke-miterlimit:10;" d="M 236.40625 36.40625 L 236.21875 36.25 L 235.5 36.15625 L 234.1875 36.0625 L 232.5 36.09375 L 230.84375 36.1875 L 229.4375 36.34375 L 228.59375 36.40625 L 228.09375 36.46875 L 227.875 36.25 L 227.96875 35.65625 L 228.21875 34.15625 L 228.5 31.78125 L 228.8125 28.71875 L 228.9375 24.875 L 228.90625 21.21875 L 228.8125 17.9375 L 228.75 15.28125 L 228.875 13.59375 L 229.03125 12.53125 L 229.3125 11.875 L 229.5625 11.5625 L 229.96875 11.46875 L 230.75 11.5 L 231.875 11.59375 L 233.25 11.71875 L 234.625 11.78125 L 235.75 11.78125 L 236.4375 11.71875 L 236.75 11.65625 L 236.5625 12 " transform="matrix(1,0,0,-1,0,145.96875)"/>
<path style="fill:none;stroke-width:1.41;stroke-linecap:round;stroke-linejoin:round;stroke:rgb(0%,0%,0%);stroke-opacity:1;stroke-miterlimit:10;" d="M 232.40625 35.09375 L 232.40625 35.40625 L 232.4375 34.875 L 232.46875 33.59375 L 232.46875 31.46875 L 232.5 28.4375 L 232.5625 25.28125 L 232.625 22.21875 L 232.6875 19.40625 L 232.75 17.34375 L 232.84375 15.625 L 232.9375 14.40625 L 232.96875 13.46875 L 233.03125 12.59375 L 233.03125 11.84375 L 233.09375 11.21875 L 233.15625 10.78125 " transform="matrix(1,0,0,-1,0,145.96875)"/>
<path style="fill:none;stroke-width:1.41;stroke-linecap:round;stroke-linejoin:round;stroke:rgb(0%,0%,0%);stroke-opacity:1;stroke-miterlimit:10;" d="M 240.46875 29.1875 L 240.59375 28.9375 L 240.6875 27.625 L 240.8125 25.40625 L 240.96875 22.53125 L 241.03125 20.15625 L 241.09375 18.5625 L 241.09375 18 L 241.0625 18.40625 " transform="matrix(1,0,0,-1,0,145.96875)"/>
<path style="fill:none;stroke-width:1.41;stroke-linecap:round;stroke-linejoin:round;stroke:rgb(0%,0%,0%);stroke-opacity:1;stroke-miterlimit:10;" d="M 241.40625 22.3125 L 241.96875 22.71875 L 242.8125 23.03125 L 243.90625 23.21875 L 245 23.21875 L 245.8125 23.1875 L 246.4375 23.15625 L 246.8125 23.1875 L 247.0625 23.1875 " transform="matrix(1,0,0,-1,0,145.96875)"/>
<path style="fill:none;stroke-width:1.41;stroke-linecap:round;stroke-linejoin:round;stroke:rgb(0%,0%,0%);stroke-opacity:1;stroke-miterlimit:10;" d="M 248.28125 30.1875 L 248.1875 29.65625 L 248.1875 28.1875 L 248.21875 25.71875 L 248.34375 23 L 248.40625 20.59375 L 248.4375 18.875 L 248.4375 17.96875 L 248.46875 17.53125 L 248.53125 17.25 " transform="matrix(1,0,0,-1,0,145.96875)"/>
<path style="fill:none;stroke-width:1.41;stroke-linecap:round;stroke-linejoin:round;stroke:rgb(0%,0%,0%);stroke-opacity:1;stroke-miterlimit:10;" d="M 254.34375 25.1875 L 254.71875 25.4375 L 255.6875 25.5 L 257 25.59375 L 258.46875 25.6875 L 259.625 25.71875 L 260.3125 25.75 L 260.59375 25.75 L 260.34375 25.6875 " transform="matrix(1,0,0,-1,0,145.96875)"/>
<path style="fill:none;stroke-width:1.41;stroke-linecap:round;stroke-linejoin:round;stroke:rgb(0%,0%,0%);stroke-opacity:1;stroke-miterlimit:10;" d="M 254.34375 22.25 L 254.8125 22.21875 L 256.0625 22.34375 L 257.53125 22.46875 L 259.125 22.625 L 260.15625 22.6875 L 260.5625 22.71875 " transform="matrix(1,0,0,-1,0,145.96875)"/>
<path style="fill:none;stroke-width:1.41;stroke-linecap:round;stroke-linejoin:round;stroke:rgb(100%,0%,0%);stroke-opacity:1;stroke-miterlimit:10;" d="M 266.0625 23.65625 L 265.9375 23.90625 L 266.0625 23.5625 L 266.34375 22.9375 L 266.71875 22 L 267.125 21.15625 L 267.40625 20.3125 L 267.71875 19.65625 L 267.875 19.28125 L 267.9375 19 L 267.84375 19.78125 L 267.65625 21.09375 L 267.65625 22.96875 L 268 24.8125 L 268.78125 26.15625 L 269.875 26.875 L 270.9375 27 L 271.71875 26.9375 L 272.125 26.90625 " transform="matrix(1,0,0,-1,0,145.96875)"/>
<path style="fill:none;stroke-width:1.41;stroke-linecap:round;stroke-linejoin:round;stroke:rgb(100%,0%,0%);stroke-opacity:1;stroke-miterlimit:10;" d="M 275.65625 26.6875 L 275.59375 26.90625 L 275.78125 27.09375 L 276.1875 27.0625 L 276.59375 26.90625 L 276.8125 26.59375 L 276.71875 26.25 L 276.40625 26.59375 L 276.5 27.0625 L 276.71875 27.53125 L 277.125 27.71875 L 277.40625 27.46875 L 277.46875 27.1875 L 277.40625 26.96875 L 277.03125 27.1875 L 277 27.46875 " transform="matrix(1,0,0,-1,0,145.96875)"/>
<path style="fill:none;stroke-width:1.41;stroke-linecap:round;stroke-linejoin:round;stroke:rgb(100%,0%,0%);stroke-opacity:1;stroke-miterlimit:10;" d="M 277.125 21 L 276.84375 21.03125 L 277.0625 20.84375 L 276.9375 20.625 L 276.65625 20.96875 L 276.71875 21.28125 L 277.03125 21.625 L 277.46875 21.71875 L 277.84375 21.5 L 277.90625 21.1875 L 277.65625 21.0625 L 277.375 21.09375 L 277.03125 21.25 L 276.8125 21.5 " transform="matrix(1,0,0,-1,0,145.96875)"/>
<path style="fill:none;stroke-width:1.41;stroke-linecap:round;stroke-linejoin:round;stroke:rgb(100%,0%,0%);stroke-opacity:1;stroke-miterlimit:10;" d="M 284.25 29.90625 L 284.09375 29.65625 L 284.09375 27.28125 L 284.0625 24.875 L 284 22.375 L 283.96875 20.125 L 283.90625 18.5 L 283.90625 17.25 L 283.96875 17 " transform="matrix(1,0,0,-1,0,145.96875)"/>
<path style="fill:none;stroke-width:1.41;stroke-linecap:round;stroke-linejoin:round;stroke:rgb(100%,0%,0%);stroke-opacity:1;stroke-miterlimit:10;" d="M 284.8125 29 L 284.9375 29.34375 L 285.25 29.4375 L 286.0625 29.53125 L 287.25 29.59375 L 288.59375 29.625 L 290.0625 29.6875 L 291.1875 29.8125 L 291.90625 29.9375 L 292.3125 30.03125 L 292.5625 30.0625 L 292.3125 29.9375 " transform="matrix(1,0,0,-1,0,145.96875)"/>
<path style="fill:none;stroke-width:1.41;stroke-linecap:round;stroke-linejoin:round;stroke:rgb(100%,0%,0%);stroke-opacity:1;stroke-miterlimit:10;" d="M 285.4375 23.90625 L 285.25 23.78125 L 285.25 23.53125 L 285.5 23.5 L 286.125 23.46875 L 287.09375 23.53125 L 288.5 23.625 L 289.78125 23.71875 L 290.90625 23.84375 L 291.6875 23.96875 L 292.03125 24.0625 " transform="matrix(1,0,0,-1,0,145.96875)"/>
<path style="fill:none;stroke-width:1.41;stroke-linecap:round;stroke-linejoin:round;stroke:rgb(100%,0%,0%);stroke-opacity:1;stroke-miterlimit:10;" d="M 284.625 17.25 L 284.3125 17.25 L 284.625 17.4375 L 285.03125 17.46875 L 285.71875 17.53125 L 286.3125 17.65625 L 287.4375 17.8125 L 288.65625 17.96875 L 289.71875 18.09375 L 290.6875 18.1875 L 291.09375 18.09375 L 291.46875 18.21875 " transform="matrix(1,0,0,-1,0,145.96875)"/>
<path style="fill:none;stroke-width:1.41;stroke-linecap:round;stroke-linejoin:round;stroke:rgb(0%,0%,0%);stroke-opacity:1;stroke-miterlimit:10;" d="M 296.09375 34.4375 L 296.5625 34.5625 L 297.375 34.59375 L 298.40625 34.6875 L 299.84375 34.90625 L 301.15625 35.15625 L 302.25 35.375 L 303.03125 35.5 L 303.375 35.46875 L 303.375 34.96875 L 303.34375 34 L 303.25 32.78125 L 303.09375 30.65625 L 302.9375 27.71875 L 302.84375 24.46875 L 302.84375 18.1875 L 302.9375 16.59375 L 302.84375 15.75 L 302.625 15.40625 L 301.8125 15.40625 L 301.34375 15.46875 L 300.6875 15.5 L 299.8125 15.59375 L 298.84375 15.625 L 297.78125 15.6875 L 296.96875 15.75 L 296.4375 15.75 L 296 15.6875 L 295.75 15.65625 " transform="matrix(1,0,0,-1,0,145.96875)"/>
<path style="fill:none;stroke-width:1.41;stroke-linecap:round;stroke-linejoin:round;stroke:rgb(0%,0%,0%);stroke-opacity:1;stroke-miterlimit:10;" d="M 299.71875 33.9375 L 299.625 34.21875 L 299.6875 33.78125 L 299.8125 33.0625 L 299.875 31.5625 L 299.90625 29.59375 L 299.90625 27.40625 L 299.84375 25.1875 L 299.84375 23.15625 L 299.90625 21.375 L 300 19.875 L 300.125 18.65625 L 300.21875 17.84375 L 300.28125 17.1875 L 300.3125 16.65625 L 300.3125 16.0625 L 300.4375 16.34375 " transform="matrix(1,0,0,-1,0,145.96875)"/>
</g>
</svg>
