<?xml version="1.0" encoding="UTF-8"?>
<svg xmlns="http://www.w3.org/2000/svg" xmlns:xlink="http://www.w3.org/1999/xlink" width="313.72pt" height="145.97pt" viewBox="0 0 313.72 145.97" version="1.1">
<g id="surface1">
<path style="fill:none;stroke-width:2.26;stroke-linecap:round;stroke-linejoin:round;stroke:rgb(19.999695%,19.999695%,79.998779%);stroke-opacity:1;stroke-miterlimit:10;" d="M 242.570312 135.020781 L 242.621094 129.059844 L 242.660156 123.110625 " transform="matrix(1,0,0,-1,0,145.97)"/>
<path style="fill:none;stroke-width:2.26;stroke-linecap:round;stroke-linejoin:round;stroke:rgb(19.999695%,19.999695%,79.998779%);stroke-opacity:1;stroke-miterlimit:10;" d="M 242.660156 123.020781 L 249.128906 122.891875 " transform="matrix(1,0,0,-1,0,145.97)"/>
<path style="fill:none;stroke-width:2.26;stroke-linecap:round;stroke-linejoin:round;stroke:rgb(19.999695%,19.999695%,79.998779%);stroke-opacity:1;stroke-miterlimit:10;" d="M 249.21875 122.798125 L 249.101562 109.821562 L 249.039062 103.329375 " transform="matrix(1,0,0,-1,0,145.97)"/>
<path style="fill:none;stroke-width:2.26;stroke-linecap:round;stroke-linejoin:round;stroke:rgb(19.999695%,19.999695%,79.998779%);stroke-opacity:1;stroke-miterlimit:10;" d="M 249.039062 103.329375 L 243.019531 103.598906 " transform="matrix(1,0,0,-1,0,145.97)"/>
<path style="fill:none;stroke-width:2.26;stroke-linecap:round;stroke-linejoin:round;stroke:rgb(19.999695%,19.999695%,79.998779%);stroke-opacity:1;stroke-miterlimit:10;" d="M 243.289062 103.509062 L 243.378906 97.180937 L 243.46875 90.848906 L 243.558594 84.528594 " transform="matrix(1,0,0,-1,0,145.97)"/>
<path style="fill:none;stroke-width:2.26;stroke-linecap:round;stroke-linejoin:round;stroke:rgb(19.999695%,19.999695%,79.998779%);stroke-opacity:1;stroke-miterlimit:10;" d="M 243.558594 83.950469 L 249.941406 84.00125 " transform="matrix(1,0,0,-1,0,145.97)"/>
<path style="fill:none;stroke-width:2.26;stroke-linecap:round;stroke-linejoin:round;stroke:rgb(19.999695%,19.999695%,79.998779%);stroke-opacity:1;stroke-miterlimit:10;" d="M 249.851562 83.950469 L 249.738281 78.641875 L 249.621094 73.321562 L 249.511719 68.00125 L 249.398438 62.680937 " transform="matrix(1,0,0,-1,0,145.97)"/>
<path style="fill:none;stroke-width:2.26;stroke-linecap:round;stroke-linejoin:round;stroke:rgb(19.999695%,19.999695%,79.998779%);stroke-opacity:1;stroke-miterlimit:10;" d="M 249.21875 62.329375 L 243.921875 62.419219 " transform="matrix(1,0,0,-1,0,145.97)"/>
<path style="fill:none;stroke-width:2.26;stroke-linecap:round;stroke-linejoin:round;stroke:rgb(19.999695%,19.999695%,79.998779%);stroke-opacity:1;stroke-miterlimit:10;" d="M 243.46875 62.380156 L 243.410156 56.548125 L 243.351562 50.72 L 243.289062 44.891875 " transform="matrix(1,0,0,-1,0,145.97)"/>
<path style="fill:none;stroke-width:2.26;stroke-linecap:round;stroke-linejoin:round;stroke:rgb(19.999695%,19.999695%,79.998779%);stroke-opacity:1;stroke-miterlimit:10;" d="M 244.191406 44.450469 L 249.421875 44.458281 L 254.640625 44.481719 L 259.871094 44.50125 L 265.101562 44.509062 L 270.328125 44.528594 L 275.550781 44.540312 L 286.011719 44.579375 L 291.230469 44.591094 L 296.460938 44.610625 L 301.691406 44.618437 " transform="matrix(1,0,0,-1,0,145.97)"/>
<path style="fill:none;stroke-width:2.26;stroke-linecap:round;stroke-linejoin:round;stroke:rgb(19.999695%,19.999695%,79.998779%);stroke-opacity:1;stroke-miterlimit:10;" d="M 301.421875 44.759062 L 301.398438 49.770781 L 301.378906 54.778594 L 301.359375 59.798125 L 301.339844 64.809844 L 301.320312 69.829375 L 301.300781 74.841094 L 301.28125 79.860625 L 301.261719 84.868437 L 301.238281 89.891875 L 301.21875 94.899687 L 301.199219 99.919219 L 301.179688 104.930937 L 301.160156 109.950469 L 301.140625 114.958281 L 301.121094 119.981719 L 301.101562 124.989531 L 301.078125 130.00125 L 301.058594 135.020781 " transform="matrix(1,0,0,-1,0,145.97)"/>
<path style="fill:none;stroke-width:2.26;stroke-linecap:round;stroke-linejoin:round;stroke:rgb(19.999695%,19.999695%,79.998779%);stroke-opacity:1;stroke-miterlimit:10;" d="M 300.429688 134.798125 L 295.199219 134.919219 L 289.980469 135.028594 L 284.75 135.149687 L 279.519531 135.259062 L 274.289062 135.380156 L 269.070312 135.489531 L 258.609375 135.731719 L 253.390625 135.841094 L 248.160156 135.958281 L 242.929688 136.071562 " transform="matrix(1,0,0,-1,0,145.97)"/>
<path style="fill:none;stroke-width:2.26;stroke-linecap:round;stroke-linejoin:round;stroke:rgb(19.999695%,19.999695%,79.998779%);stroke-opacity:1;stroke-miterlimit:10;" d="M 153.269531 135.93875 L 152.820312 126.18875 " transform="matrix(1,0,0,-1,0,145.97)"/>
<path style="fill:none;stroke-width:2.26;stroke-linecap:round;stroke-linejoin:round;stroke:rgb(19.999695%,19.999695%,79.998779%);stroke-opacity:1;stroke-miterlimit:10;" d="M 151.46875 105.618437 L 151.378906 95.860625 " transform="matrix(1,0,0,-1,0,145.97)"/>
<path style="fill:none;stroke-width:2.26;stroke-linecap:round;stroke-linejoin:round;stroke:rgb(19.999695%,19.999695%,79.998779%);stroke-opacity:1;stroke-miterlimit:10;" d="M 151.46875 95.860625 L 156.640625 95.778594 L 161.800781 95.700469 L 166.96875 95.610625 L 172.128906 95.528594 L 177.300781 95.450469 L 182.46875 95.360625 L 187.628906 95.278594 L 192.800781 95.200469 L 197.960938 95.110625 L 203.128906 95.028594 " transform="matrix(1,0,0,-1,0,145.97)"/>
<path style="fill:none;stroke-width:2.26;stroke-linecap:round;stroke-linejoin:round;stroke:rgb(19.999695%,19.999695%,79.998779%);stroke-opacity:1;stroke-miterlimit:10;" d="M 203.21875 95.380156 L 203.578125 102.848906 " transform="matrix(1,0,0,-1,0,145.97)"/>
<path style="fill:none;stroke-width:2.26;stroke-linecap:round;stroke-linejoin:round;stroke:rgb(19.999695%,19.999695%,79.998779%);stroke-opacity:1;stroke-miterlimit:10;" d="M 201.058594 126.630156 L 201.058594 135.329375 " transform="matrix(1,0,0,-1,0,145.97)"/>
<path style="fill:none;stroke-width:2.26;stroke-linecap:round;stroke-linejoin:round;stroke:rgb(19.999695%,19.999695%,79.998779%);stroke-opacity:1;stroke-miterlimit:10;" d="M 201.238281 135.278594 L 195.980469 135.321562 L 190.71875 135.360625 L 185.460938 135.399687 L 180.199219 135.43875 L 174.941406 135.481719 L 169.679688 135.520781 L 164.421875 135.559844 L 159.160156 135.598906 L 153.898438 135.630156 " transform="matrix(1,0,0,-1,0,145.97)"/>
<path style="fill:none;stroke-width:2.26;stroke-linecap:round;stroke-linejoin:round;stroke:rgb(19.999695%,19.999695%,79.998779%);stroke-opacity:1;stroke-miterlimit:10;" d="M 152.730469 125.880156 L 158.929688 125.880156 " transform="matrix(1,0,0,-1,0,145.97)"/>
<path style="fill:none;stroke-width:2.26;stroke-linecap:round;stroke-linejoin:round;stroke:rgb(19.999695%,19.999695%,79.998779%);stroke-opacity:1;stroke-miterlimit:10;" d="M 158.75 125.43875 L 158.691406 118.950469 L 158.628906 112.458281 L 158.570312 105.97 " transform="matrix(1,0,0,-1,0,145.97)"/>
<path style="fill:none;stroke-width:2.26;stroke-linecap:round;stroke-linejoin:round;stroke:rgb(19.999695%,19.999695%,79.998779%);stroke-opacity:1;stroke-miterlimit:10;" d="M 158.570312 106.098906 L 151.648438 106.368437 " transform="matrix(1,0,0,-1,0,145.97)"/>
<path style="fill:none;stroke-width:2.26;stroke-linecap:round;stroke-linejoin:round;stroke:rgb(19.999695%,19.999695%,79.998779%);stroke-opacity:1;stroke-miterlimit:10;" d="M 202.5 126.981719 L 207.171875 126.540312 " transform="matrix(1,0,0,-1,0,145.97)"/>
<path style="fill:none;stroke-width:2.26;stroke-linecap:round;stroke-linejoin:round;stroke:rgb(19.999695%,19.999695%,79.998779%);stroke-opacity:1;stroke-miterlimit:10;" d="M 207.710938 126.540312 L 208.070312 115.641875 L 208.25 110.18875 L 208.429688 104.739531 " transform="matrix(1,0,0,-1,0,145.97)"/>
<path style="fill:none;stroke-width:2.26;stroke-linecap:round;stroke-linejoin:round;stroke:rgb(19.999695%,19.999695%,79.998779%);stroke-opacity:1;stroke-miterlimit:10;" d="M 208.609375 104.610625 L 203.398438 103.950469 " transform="matrix(1,0,0,-1,0,145.97)"/>
<path style="fill:none;stroke-width:2.26;stroke-linecap:round;stroke-linejoin:round;stroke:rgb(19.999695%,19.999695%,79.998779%);stroke-opacity:1;stroke-miterlimit:10;" d="M 208.429688 115.641875 L 214.050781 115.528594 L 219.671875 115.411406 L 225.300781 115.298125 L 230.921875 115.18875 L 236.539062 115.071562 L 242.160156 114.958281 L 247.78125 114.848906 " transform="matrix(1,0,0,-1,0,145.97)"/>
<path style="fill:none;stroke-width:1.41;stroke-linecap:round;stroke-linejoin:round;stroke:rgb(19.999695%,19.999695%,79.998779%);stroke-opacity:1;stroke-miterlimit:10;" d="M 252.269531 109.048125 L 252.449219 109.708281 L 252.71875 110.848906 L 253.351562 112.610625 L 253.980469 114.50125 L 254.699219 116.341094 L 255.511719 117.919219 L 255.960938 118.891875 L 256.320312 119.419219 L 256.5 119.641875 L 256.859375 119.458281 L 257.21875 118.72 L 257.671875 117.399687 L 258.109375 115.509062 L 258.738281 113.22 L 259.191406 111.329375 L 259.550781 109.880156 L 259.820312 109.048125 L 259.820312 108.778594 " transform="matrix(1,0,0,-1,0,145.97)"/>
<path style="fill:none;stroke-width:1.41;stroke-linecap:round;stroke-linejoin:round;stroke:rgb(19.999695%,19.999695%,79.998779%);stroke-opacity:1;stroke-miterlimit:10;" d="M 253.800781 113.048125 L 254.160156 112.829375 L 255.058594 112.829375 L 256.320312 112.911406 L 257.578125 113.091094 L 258.558594 113.270781 L 259.371094 113.270781 " transform="matrix(1,0,0,-1,0,145.97)"/>
<path style="fill:none;stroke-width:1.41;stroke-linecap:round;stroke-linejoin:round;stroke:rgb(19.999695%,19.999695%,79.998779%);stroke-opacity:1;stroke-miterlimit:10;" d="M 254.519531 77.270781 L 254.519531 77.540312 L 254.429688 76.790312 L 254.339844 75.341094 L 254.25 73.231719 L 254.160156 71.208281 L 253.980469 69.669219 L 253.890625 68.790312 " transform="matrix(1,0,0,-1,0,145.97)"/>
<path style="fill:none;stroke-width:1.41;stroke-linecap:round;stroke-linejoin:round;stroke:rgb(19.999695%,19.999695%,79.998779%);stroke-opacity:1;stroke-miterlimit:10;" d="M 253.980469 76.259062 L 253.980469 76.618437 L 254.25 76.880156 L 254.96875 77.141875 L 256.140625 77.321562 L 257.488281 77.360625 L 258.738281 77.098906 L 259.730469 76.528594 L 260.269531 75.598906 L 260.628906 74.419219 L 260.808594 73.278594 L 260.71875 72.270781 L 260.449219 71.298125 L 259.910156 70.509062 L 259.101562 69.891875 L 258.019531 69.450469 L 256.949219 69.18875 L 255.960938 69.141875 L 254.699219 69.141875 " transform="matrix(1,0,0,-1,0,145.97)"/>
<path style="fill:none;stroke-width:1.41;stroke-linecap:round;stroke-linejoin:round;stroke:rgb(19.999695%,19.999695%,79.998779%);stroke-opacity:1;stroke-miterlimit:10;" d="M 201.871094 119.548125 L 201.78125 119.860625 L 201.148438 120.208281 L 200.699219 120.391875 L 200.078125 120.47 L 199.359375 120.391875 L 198.730469 120.25125 L 198.011719 119.899687 L 197.46875 119.368437 L 197.019531 118.798125 L 196.570312 117.97 L 196.390625 117.22 L 196.300781 116.610625 L 196.300781 115.598906 L 196.480469 115.110625 L 196.75 114.50125 L 197.019531 113.880156 L 197.289062 113.270781 L 197.558594 112.778594 L 197.921875 112.430937 L 198.28125 112.079375 L 198.730469 111.860625 L 199.089844 111.680937 L 199.449219 111.641875 L 200.078125 111.680937 L 200.789062 111.860625 L 201.511719 112.118437 L 202.320312 112.430937 L 202.769531 112.649687 L 203.128906 112.958281 L 203.21875 113.180937 " transform="matrix(1,0,0,-1,0,145.97)"/>
<path style="fill:none;stroke-width:1.41;stroke-linecap:round;stroke-linejoin:round;stroke:rgb(19.999695%,19.999695%,79.998779%);stroke-opacity:1;stroke-miterlimit:10;" d="M 163.238281 119.200469 L 163.421875 119.458281 L 163.691406 118.759062 L 163.691406 115.809844 L 163.601562 114.18875 L 163.511719 112.958281 L 163.511719 112.169219 L 163.601562 111.860625 " transform="matrix(1,0,0,-1,0,145.97)"/>
<path style="fill:none;stroke-width:1.41;stroke-linecap:round;stroke-linejoin:round;stroke:rgb(19.999695%,19.999695%,79.998779%);stroke-opacity:1;stroke-miterlimit:10;" d="M 163.691406 118.540312 L 163.601562 119.071562 L 163.691406 119.548125 L 163.960938 120.169219 L 164.589844 120.821562 L 165.671875 121.259062 L 166.738281 121.348906 L 167.730469 120.821562 L 168.089844 119.950469 L 167.910156 118.891875 L 166.921875 117.919219 L 165.761719 117.180937 L 164.679688 116.649687 L 164.140625 116.391875 L 164.949219 116.430937 L 165.941406 116.391875 L 167.011719 116.118437 L 168 115.770781 L 168.628906 115.110625 L 168.71875 114.360625 L 168.628906 113.571562 L 168.359375 112.868437 L 168 112.391875 L 167.640625 112.118437 L 167.191406 111.860625 L 166.46875 111.548125 L 165.671875 111.329375 L 164.769531 111.380156 L 164.050781 111.509062 L 163.691406 111.821562 L 163.421875 112.169219 " transform="matrix(1,0,0,-1,0,145.97)"/>
<path style="fill:none;stroke-width:2.26;stroke-linecap:round;stroke-linejoin:round;stroke:rgb(19.999695%,19.999695%,79.998779%);stroke-opacity:1;stroke-miterlimit:10;" d="M 184.710938 124.298125 L 184.53125 124.649687 L 184.351562 125.040312 L 183.808594 125.481719 L 182.828125 125.880156 L 181.570312 125.829375 L 180.128906 125.43875 L 178.871094 124.520781 L 178.058594 123.329375 L 177.699219 121.919219 L 178.238281 120.598906 L 179.410156 119.770781 L 181.121094 119.548125 L 182.921875 119.989531 L 184.171875 120.958281 L 185.070312 121.919219 L 185.429688 122.891875 L 185.519531 123.419219 L 185.429688 123.641875 L 185.25 122.981719 L 184.890625 121.919219 L 184.53125 120.47 L 184.261719 118.669219 L 183.808594 116.778594 L 183.359375 114.059844 L 182.921875 110.891875 L 182.558594 107.548125 L 182.46875 105.00125 L 182.921875 103.731719 L 183.898438 103.548125 L 185.070312 104.208281 L 186.058594 105.22 L 186.78125 106.149687 L 186.78125 106.848906 L 186.148438 107.548125 L 185.160156 108.169219 L 184.078125 108.739531 L 183.269531 109.348906 L 183.101562 109.790312 L 183.359375 110.149687 L 183.898438 110.591094 L 184.441406 110.981719 L 185.25 111.548125 L 185.96875 112.118437 L 186.511719 112.739531 L 186.871094 113.309844 L 186.960938 113.661406 L 186.960938 113.97 " transform="matrix(1,0,0,-1,0,145.97)"/>
<path style="fill:none;stroke-width:2.26;stroke-linecap:round;stroke-linejoin:round;stroke:rgb(19.999695%,19.999695%,79.998779%);stroke-opacity:1;stroke-miterlimit:10;" d="M 273.929688 99.559844 L 273.570312 99.118437 L 273.480469 98.458281 L 273.210938 96.700469 L 272.851562 93.891875 L 272.398438 90.680937 L 271.859375 87.290312 L 271.5 84.880156 L 271.230469 83.68875 L 271.140625 83.208281 " transform="matrix(1,0,0,-1,0,145.97)"/>
<path style="fill:none;stroke-width:2.26;stroke-linecap:round;stroke-linejoin:round;stroke:rgb(19.999695%,19.999695%,79.998779%);stroke-opacity:1;stroke-miterlimit:10;" d="M 272.671875 98.368437 L 272.851562 99.118437 L 273.300781 99.950469 L 274.019531 100.739531 L 275.449219 101.489531 L 277.070312 101.841094 L 278.691406 101.798125 L 280.308594 101.399687 L 281.199219 100.700469 L 281.738281 99.950469 L 281.828125 98.899687 L 281.648438 97.708281 L 281.199219 96.259062 L 280.308594 94.770781 L 278.960938 93.75125 L 277.429688 93.360625 L 275.988281 93.399687 L 274.921875 93.669219 L 274.289062 94.020781 L 274.019531 94.278594 " transform="matrix(1,0,0,-1,0,145.97)"/>
<path style="fill:none;stroke-width:1.41;stroke-linecap:round;stroke-linejoin:round;stroke:rgb(0%,0%,0%);stroke-opacity:1;stroke-miterlimit:10;" d="M 105.738281 96.97 L 105.828125 96.708281 L 105.921875 95.298125 L 106.011719 92.930937 L 106.011719 89.891875 L 105.828125 87.208281 L 105.738281 85.630156 L 105.738281 84.798125 " transform="matrix(1,0,0,-1,0,145.97)"/>
<path style="fill:none;stroke-width:1.41;stroke-linecap:round;stroke-linejoin:round;stroke:rgb(0%,0%,0%);stroke-opacity:1;stroke-miterlimit:10;" d="M 105.921875 88.798125 L 106.191406 89.278594 L 106.550781 89.680937 L 107.269531 89.981719 L 108.171875 90.200469 L 108.980469 90.329375 L 110.058594 90.509062 L 110.769531 90.641875 L 111.398438 90.68875 L 111.941406 90.731719 L 112.03125 90.950469 " transform="matrix(1,0,0,-1,0,145.97)"/>
<path style="fill:none;stroke-width:1.41;stroke-linecap:round;stroke-linejoin:round;stroke:rgb(0%,0%,0%);stroke-opacity:1;stroke-miterlimit:10;" d="M 113.199219 95.559844 L 113.019531 95.829375 L 113.019531 94.680937 L 113.109375 93.411406 L 113.109375 91.208281 L 113.019531 88.661406 L 112.929688 86.47 L 112.839844 84.579375 L 112.75 83.610625 " transform="matrix(1,0,0,-1,0,145.97)"/>
<path style="fill:none;stroke-width:2.26;stroke-linecap:round;stroke-linejoin:round;stroke:rgb(19.999695%,19.999695%,79.998779%);stroke-opacity:1;stroke-miterlimit:10;" d="M 119.578125 89.891875 L 119.578125 89.630156 L 119.761719 89.321562 L 120.121094 89.149687 L 120.839844 89.059844 L 122.011719 88.930937 L 124.429688 88.930937 L 125.871094 89.059844 L 127.21875 89.321562 L 128.46875 89.680937 L 129.460938 90.071562 L 130.269531 90.598906 L 130.898438 91.169219 L 131.621094 91.868437 L 132.339844 92.708281 L 132.96875 93.540312 L 133.601562 94.598906 L 134.039062 95.739531 L 134.398438 96.841094 L 134.851562 98.110625 L 135.300781 99.391875 L 135.839844 100.790312 L 136.46875 102.239531 L 137.011719 103.610625 L 137.550781 104.919219 L 138.179688 106.368437 L 138.898438 107.598906 L 139.609375 108.790312 L 140.601562 109.891875 L 141.5 110.770781 L 142.671875 111.68875 L 143.929688 112.661406 L 145.191406 113.450469 L 146.351562 114.110625 L 147.519531 114.591094 L 148.691406 115.028594 L 149.949219 115.430937 L 151.289062 115.821562 L 152.371094 116.130156 L 153.179688 116.259062 L 153.898438 116.309844 L 154.621094 116.348906 L 155.429688 116.391875 L 157.308594 116.391875 L 157.851562 116.348906 L 158.121094 116.259062 L 158.480469 116.130156 " transform="matrix(1,0,0,-1,0,145.97)"/>
<path style="fill:none;stroke-width:2.26;stroke-linecap:round;stroke-linejoin:round;stroke:rgb(19.999695%,19.999695%,79.998779%);stroke-opacity:1;stroke-miterlimit:10;" d="M 125.148438 89.278594 L 125.691406 89.239531 L 127.578125 89.239531 L 128.828125 89.149687 L 130.359375 88.930937 L 132.070312 88.579375 L 133.691406 88.048125 L 135.121094 87.520781 L 136.46875 86.860625 L 137.460938 85.93875 L 138.089844 84.891875 L 138.71875 83.700469 L 139.261719 82.419219 L 139.789062 81.239531 L 140.238281 80.048125 L 140.78125 78.821562 L 141.410156 77.680937 L 141.949219 76.450469 L 142.671875 75.169219 L 143.570312 74.028594 L 144.648438 72.981719 L 146.171875 71.919219 L 147.789062 71.091094 L 149.589844 70.430937 L 151.921875 69.899687 L 154.351562 69.641875 L 156.949219 69.458281 L 159.828125 69.419219 L 162.441406 69.50125 L 165.128906 69.680937 L 168.101562 69.860625 L 170.789062 69.93875 L 173.488281 69.989531 L 176.449219 70.028594 L 179.148438 70.161406 L 182.019531 70.298125 L 185.078125 70.380156 L 187.949219 70.380156 L 191.011719 70.341094 L 194.238281 70.341094 L 197.199219 70.380156 L 199.808594 70.430937 L 202.511719 70.520781 L 205.109375 70.649687 L 208.078125 70.821562 L 211.398438 70.950469 L 214.628906 71.130156 L 217.691406 71.259062 L 220.558594 71.481719 L 222.898438 71.700469 L 225.058594 71.829375 L 227.390625 71.97 L 229.371094 72.048125 L 231.351562 72.048125 L 232.960938 72.098906 L 234.039062 72.141875 L 235.03125 72.180937 L 235.929688 72.231719 L 237.101562 72.360625 L 238.621094 72.450469 L 240.058594 72.579375 L 241.5 72.708281 L 242.488281 72.841094 L 243.199219 72.930937 L 243.828125 73.059844 L 244.550781 73.149687 L 245.449219 73.278594 L 246.441406 73.419219 L 247.160156 73.50125 L 247.789062 73.548125 L 248.421875 73.548125 L 248.691406 73.458281 " transform="matrix(1,0,0,-1,0,145.97)"/>
<path style="fill:none;stroke-width:2.26;stroke-linecap:round;stroke-linejoin:round;stroke:rgb(100%,0%,0%);stroke-opacity:1;stroke-miterlimit:10;" d="M 18.53125 69.239531 L 23.699219 69.161406 L 28.859375 69.071562 L 34.03125 68.989531 L 39.199219 68.899687 L 44.359375 68.821562 L 49.53125 68.739531 L 54.691406 68.649687 L 59.859375 68.571562 L 65.03125 68.489531 L 70.191406 68.399687 " transform="matrix(1,0,0,-1,0,145.97)"/>
<path style="fill:none;stroke-width:2.26;stroke-linecap:round;stroke-linejoin:round;stroke:rgb(100%,0%,0%);stroke-opacity:1;stroke-miterlimit:10;" d="M 70.28125 68.759062 L 70.640625 76.231719 " transform="matrix(1,0,0,-1,0,145.97)"/>
<path style="fill:none;stroke-width:2.26;stroke-linecap:round;stroke-linejoin:round;stroke:rgb(100%,0%,0%);stroke-opacity:1;stroke-miterlimit:10;" d="M 68.128906 100.00125 L 68.128906 108.700469 " transform="matrix(1,0,0,-1,0,145.97)"/>
<path style="fill:none;stroke-width:2.26;stroke-linecap:round;stroke-linejoin:round;stroke:rgb(100%,0%,0%);stroke-opacity:1;stroke-miterlimit:10;" d="M 68.308594 108.661406 L 63.050781 108.700469 L 57.78125 108.739531 L 52.519531 108.770781 L 47.261719 108.809844 L 42 108.848906 L 36.738281 108.891875 L 31.480469 108.930937 L 26.21875 108.97 L 20.960938 109.009062 " transform="matrix(1,0,0,-1,0,145.97)"/>
<path style="fill:none;stroke-width:2.26;stroke-linecap:round;stroke-linejoin:round;stroke:rgb(100%,0%,0%);stroke-opacity:1;stroke-miterlimit:10;" d="M 69.558594 100.348906 L 74.238281 99.911406 " transform="matrix(1,0,0,-1,0,145.97)"/>
<path style="fill:none;stroke-width:2.26;stroke-linecap:round;stroke-linejoin:round;stroke:rgb(100%,0%,0%);stroke-opacity:1;stroke-miterlimit:10;" d="M 74.769531 99.911406 L 74.949219 94.458281 L 75.308594 83.559844 L 75.488281 78.118437 " transform="matrix(1,0,0,-1,0,145.97)"/>
<path style="fill:none;stroke-width:2.26;stroke-linecap:round;stroke-linejoin:round;stroke:rgb(100%,0%,0%);stroke-opacity:1;stroke-miterlimit:10;" d="M 75.671875 77.981719 L 70.460938 77.321562 " transform="matrix(1,0,0,-1,0,145.97)"/>
<path style="fill:none;stroke-width:2.26;stroke-linecap:round;stroke-linejoin:round;stroke:rgb(100%,0%,0%);stroke-opacity:1;stroke-miterlimit:10;" d="M 20.679688 109.778594 L 20.628906 104.649687 L 20.570312 99.528594 L 20.511719 94.399687 L 20.449219 89.278594 L 20.390625 84.149687 L 20.328125 79.028594 L 20.269531 73.899687 L 20.21875 68.778594 " transform="matrix(1,0,0,-1,0,145.97)"/>
<path style="fill:none;stroke-width:2.26;stroke-linecap:round;stroke-linejoin:round;stroke:rgb(100%,0%,0%);stroke-opacity:1;stroke-miterlimit:10;" d="M 38.589844 94.25125 L 38.75 93.591094 L 39.03125 92.25125 L 39.46875 90.22 L 39.96875 88.118437 L 40.339844 86.47 L 40.621094 85.22 L 40.75 84.430937 L 40.929688 83.841094 L 41.058594 83.341094 L 41.148438 82.97 L 41.21875 82.72 L 41.058594 83.118437 L 40.871094 83.97 L 40.679688 85.72 L 40.679688 88.00125 L 41.148438 90.399687 L 42.28125 92.618437 L 43.75 93.97 L 45.339844 94.559844 L 46.75 94.559844 L 47.648438 94.309844 L 48.148438 94.028594 L 48.339844 93.841094 " transform="matrix(1,0,0,-1,0,145.97)"/>
<path style="fill:none;stroke-width:1.41;stroke-linecap:round;stroke-linejoin:round;stroke:rgb(100%,0%,0%);stroke-opacity:1;stroke-miterlimit:10;" d="M 63.75 92.868437 L 63.679688 92.368437 L 63.71875 91.930937 L 63.71875 91.028594 L 63.648438 89.591094 L 63.53125 87.809844 L 63.46875 86.00125 L 63.46875 84.75125 L 63.808594 84.091094 L 64.46875 83.809844 L 65.371094 83.680937 L 66.25 83.618437 L 66.929688 83.618437 L 67.308594 83.72 L 67.589844 83.809844 " transform="matrix(1,0,0,-1,0,145.97)"/>
<path style="fill:none;stroke-width:1.41;stroke-linecap:round;stroke-linejoin:round;stroke:rgb(100%,0%,0%);stroke-opacity:1;stroke-miterlimit:10;" d="M 65.148438 88.059844 L 65.53125 88.43875 L 66.371094 88.72 L 67.308594 88.868437 L 67.871094 88.930937 L 68.121094 89.091094 " transform="matrix(1,0,0,-1,0,145.97)"/>
<path style="fill:none;stroke-width:1.41;stroke-linecap:round;stroke-linejoin:round;stroke:rgb(100%,0%,0%);stroke-opacity:1;stroke-miterlimit:10;" d="M 64.21875 92.149687 L 64.339844 92.399687 L 64.71875 92.559844 L 65.679688 92.72 L 66.839844 92.778594 L 68 92.841094 L 69 92.868437 L 69.398438 92.868437 " transform="matrix(1,0,0,-1,0,145.97)"/>
<path style="fill:none;stroke-width:2.26;stroke-linecap:round;stroke-linejoin:round;stroke:rgb(100%,0%,0%);stroke-opacity:1;stroke-miterlimit:10;" d="M 77.058594 90.341094 L 77.148438 90.091094 L 77.558594 90.00125 L 77.898438 89.97 L 78.46875 89.930937 L 79.371094 89.899687 L 80.558594 89.868437 L 82 89.899687 L 83.53125 89.930937 L 84.898438 90.028594 L 86.28125 90.091094 L 87.621094 90.149687 L 88.648438 90.22 L 89.75 90.278594 L 90.71875 90.309844 L 91.429688 90.341094 L 92.339844 90.368437 L 92.929688 90.341094 L 93.429688 90.309844 L 94.089844 90.25125 L 94.71875 90.180937 L 95.371094 90.118437 L 96.03125 90.059844 L 96.558594 90.028594 L 96.929688 90.00125 L 97.839844 90.00125 L 98.179688 89.97 L 98.53125 89.899687 L 98.839844 89.75125 L 99.148438 89.559844 " transform="matrix(1,0,0,-1,0,145.97)"/>
<path style="fill:none;stroke-width:1.41;stroke-linecap:round;stroke-linejoin:round;stroke:rgb(19.999695%,19.999695%,79.998779%);stroke-opacity:1;stroke-miterlimit:10;" d="M 21.480469 23.618437 L 21.480469 19.708281 L 21.570312 16.098906 L 21.480469 11.880156 L 21.390625 8.591094 L 21.210938 6.481719 L 21.121094 5.559844 L 20.941406 5.821562 L 20.851562 6.22 " transform="matrix(1,0,0,-1,0,145.97)"/>
<path style="fill:none;stroke-width:1.41;stroke-linecap:round;stroke-linejoin:round;stroke:rgb(19.999695%,19.999695%,79.998779%);stroke-opacity:1;stroke-miterlimit:10;" d="M 21.660156 22.68875 L 21.929688 23.22 L 22.648438 23.75125 L 23.808594 24.18875 L 25.160156 24.321562 L 26.691406 23.880156 L 27.679688 22.739531 L 28.488281 21.071562 L 28.671875 19.00125 L 28.21875 17.25125 L 27.140625 15.880156 L 25.339844 15.091094 L 23.71875 14.919219 L 22.46875 15.00125 L 21.75 15.309844 L 21.660156 15.661406 L 21.660156 16.059844 " transform="matrix(1,0,0,-1,0,145.97)"/>
<path style="fill:none;stroke-width:1.41;stroke-linecap:round;stroke-linejoin:round;stroke:rgb(19.999695%,19.999695%,79.998779%);stroke-opacity:1;stroke-miterlimit:10;" d="M 35.851562 33.149687 L 35.941406 33.419219 L 35.488281 33.641875 L 34.769531 33.809844 L 33.789062 33.93875 L 32.621094 34.028594 L 31.808594 33.899687 L 31.359375 33.329375 L 31.269531 32.098906 L 31.449219 30.649687 L 31.628906 29.071562 L 31.808594 27.571562 L 31.988281 26.341094 L 32.078125 24.981719 L 32.171875 23.180937 L 32.261719 20.669219 L 32.261719 10.430937 L 32.351562 10.130156 L 32.710938 10.040312 L 33.519531 9.989531 L 34.511719 9.860625 L 35.488281 9.731719 L 36.210938 9.641875 L 36.570312 9.559844 L 36.300781 9.598906 " transform="matrix(1,0,0,-1,0,145.97)"/>
<path style="fill:none;stroke-width:1.41;stroke-linecap:round;stroke-linejoin:round;stroke:rgb(19.999695%,19.999695%,79.998779%);stroke-opacity:1;stroke-miterlimit:10;" d="M 39.898438 15.528594 L 39.628906 15.270781 L 39.71875 15.528594 L 40.078125 16.630156 L 40.699219 18.559844 L 41.691406 21.598906 L 42.589844 24.579375 L 43.308594 27.091094 L 43.851562 28.93875 L 44.300781 29.458281 L 44.75 29.071562 L 45.46875 27.528594 L 46.269531 24.981719 L 47.171875 21.821562 L 47.980469 18.481719 L 48.519531 15.97 L 48.878906 14.430937 L 49.058594 13.821562 " transform="matrix(1,0,0,-1,0,145.97)"/>
<path style="fill:none;stroke-width:1.41;stroke-linecap:round;stroke-linejoin:round;stroke:rgb(19.999695%,19.999695%,79.998779%);stroke-opacity:1;stroke-miterlimit:10;" d="M 41.691406 18.559844 L 41.960938 18.739531 L 42.679688 18.958281 L 44.03125 19.22 L 45.289062 19.309844 L 46.359375 19.399687 L 47.078125 19.348906 L 47.441406 19.43875 " transform="matrix(1,0,0,-1,0,145.97)"/>
<path style="fill:none;stroke-width:1.41;stroke-linecap:round;stroke-linejoin:round;stroke:rgb(19.999695%,19.999695%,79.998779%);stroke-opacity:1;stroke-miterlimit:10;" d="M 51.851562 22.298125 L 52.378906 22.341094 L 53.460938 22.430937 L 54.988281 22.559844 L 56.519531 22.649687 L 57.511719 22.739531 L 58.039062 22.778594 L 58.308594 22.778594 L 57.769531 22.610625 " transform="matrix(1,0,0,-1,0,145.97)"/>
<path style="fill:none;stroke-width:1.41;stroke-linecap:round;stroke-linejoin:round;stroke:rgb(19.999695%,19.999695%,79.998779%);stroke-opacity:1;stroke-miterlimit:10;" d="M 52.378906 17.47 L 52.648438 17.329375 L 53.191406 17.290312 L 54.179688 17.25125 L 56.609375 17.25125 L 57.601562 17.290312 L 58.308594 17.329375 " transform="matrix(1,0,0,-1,0,145.97)"/>
<path style="fill:none;stroke-width:1.41;stroke-linecap:round;stroke-linejoin:round;stroke:rgb(19.999695%,19.999695%,79.998779%);stroke-opacity:1;stroke-miterlimit:10;" d="M 69.449219 23.399687 L 69.628906 23.661406 L 69.539062 24.141875 L 69.191406 24.630156 L 68.378906 24.848906 L 67.300781 24.630156 L 66.128906 23.97 L 64.960938 22.739531 L 64.421875 20.93875 L 64.511719 19.180937 L 65.320312 17.899687 L 66.851562 17.770781 L 68.46875 18.829375 L 69.898438 20.591094 L 70.800781 22.481719 L 71.070312 23.528594 L 70.800781 22.430937 L 70.621094 20.72 L 70.53125 18.868437 L 70.351562 17.161406 L 70.171875 14.649687 L 69.988281 11.930937 L 70.078125 9.380156 L 70.710938 7.231719 L 71.789062 6.610625 L 73.140625 6.829375 L 74.21875 7.75125 L 74.671875 9.071562 L 74.578125 10.348906 L 74.128906 11.579375 L 73.5 12.411406 L 73.050781 12.848906 L 72.328125 13.290312 L 71.609375 13.68875 L 71.160156 14.040312 L 70.710938 14.259062 L 70.800781 14.559844 L 71.519531 15.091094 L 72.691406 15.880156 L 73.949219 16.759062 L 74.851562 17.47 L 75.378906 18.079375 L 75.289062 18.559844 " transform="matrix(1,0,0,-1,0,145.97)"/>
<path style="fill:none;stroke-width:1.41;stroke-linecap:round;stroke-linejoin:round;stroke:rgb(19.999695%,19.999695%,79.998779%);stroke-opacity:1;stroke-miterlimit:10;" d="M 83.019531 32.848906 L 83.289062 32.891875 L 82.839844 32.981719 L 82.03125 32.981719 L 80.859375 32.930937 L 79.789062 32.798125 L 78.980469 32.630156 L 78.441406 32.098906 L 78.351562 30.739531 L 78.621094 28.321562 L 78.980469 24.848906 L 79.339844 21.419219 L 79.609375 18.040312 L 79.699219 15.43875 L 79.699219 13.911406 L 79.789062 12.759062 L 80.058594 12.368437 L 80.421875 12.321562 L 80.859375 12.368437 L 81.398438 12.411406 L 82.75 12.411406 L 83.46875 12.458281 L 84.460938 12.458281 L 84.371094 12.72 " transform="matrix(1,0,0,-1,0,145.97)"/>
<path style="fill:none;stroke-width:1.41;stroke-linecap:round;stroke-linejoin:round;stroke:rgb(19.999695%,19.999695%,79.998779%);stroke-opacity:1;stroke-miterlimit:10;" d="M 88.769531 27.22 L 88.679688 27.00125 L 88.679688 23.930937 L 88.769531 21.989531 L 88.769531 18.391875 L 88.859375 17.110625 " transform="matrix(1,0,0,-1,0,145.97)"/>
<path style="fill:none;stroke-width:1.41;stroke-linecap:round;stroke-linejoin:round;stroke:rgb(19.999695%,19.999695%,79.998779%);stroke-opacity:1;stroke-miterlimit:10;" d="M 88.679688 27.091094 L 89.308594 27.790312 L 90.300781 28.411406 L 91.738281 28.72 L 93.351562 28.50125 L 94.519531 27.661406 L 94.789062 26.25125 L 93.980469 24.630156 L 92.539062 23.348906 L 91.019531 22.649687 L 90.300781 22.559844 L 90.75 22.778594 L 92.011719 22.739531 L 93.621094 22.391875 L 94.96875 21.770781 L 95.960938 21.071562 L 96.5 20.450469 L 96.949219 19.75125 L 97.21875 19.048125 L 97.308594 17.860625 L 97.21875 16.540312 L 96.859375 15.489531 L 96.410156 14.430937 L 95.871094 13.950469 L 95.328125 13.68875 L 94.25 13.548125 L 92.988281 13.68875 L 91.738281 13.989531 L 90.390625 14.559844 L 89.761719 15.22 L 89.308594 15.75125 L 89.128906 16.278594 " transform="matrix(1,0,0,-1,0,145.97)"/>
<path style="fill:none;stroke-width:1.41;stroke-linecap:round;stroke-linejoin:round;stroke:rgb(19.999695%,19.999695%,79.998779%);stroke-opacity:1;stroke-miterlimit:10;" d="M 101.710938 24.141875 L 101.441406 24.18875 L 106.019531 24.18875 L 107.101562 24.231719 L 107.640625 24.231719 " transform="matrix(1,0,0,-1,0,145.97)"/>
<path style="fill:none;stroke-width:1.41;stroke-linecap:round;stroke-linejoin:round;stroke:rgb(19.999695%,19.999695%,79.998779%);stroke-opacity:1;stroke-miterlimit:10;" d="M 102.789062 20.809844 L 102.96875 20.630156 L 103.421875 20.591094 L 104.039062 20.540312 L 105.03125 20.50125 L 106.019531 20.411406 L 106.921875 20.411406 L 107.460938 20.368437 L 107.820312 20.278594 " transform="matrix(1,0,0,-1,0,145.97)"/>
<path style="fill:none;stroke-width:1.41;stroke-linecap:round;stroke-linejoin:round;stroke:rgb(19.999695%,19.999695%,79.998779%);stroke-opacity:1;stroke-miterlimit:10;" d="M 118.78125 30.47 L 119.050781 30.208281 L 119.050781 29.860625 L 118.960938 29.290312 L 118.691406 28.450469 L 118.058594 27.309844 L 116.980469 25.548125 L 115.628906 23.528594 L 114.378906 21.821562 L 113.660156 20.450469 L 114.199219 19.528594 L 115.449219 18.649687 L 116.890625 17.47 L 118.238281 16.18875 L 119.050781 15.360625 L 119.5 14.919219 " transform="matrix(1,0,0,-1,0,145.97)"/>
<path style="fill:none;stroke-width:1.41;stroke-linecap:round;stroke-linejoin:round;stroke:rgb(19.999695%,19.999695%,79.998779%);stroke-opacity:1;stroke-miterlimit:10;" d="M 123.71875 27.091094 L 123.808594 26.68875 L 123.898438 25.809844 L 123.898438 22.040312 L 123.988281 20.18875 L 123.988281 17.989531 L 124.078125 17.598906 " transform="matrix(1,0,0,-1,0,145.97)"/>
<path style="fill:none;stroke-width:1.41;stroke-linecap:round;stroke-linejoin:round;stroke:rgb(19.999695%,19.999695%,79.998779%);stroke-opacity:1;stroke-miterlimit:10;" d="M 124.441406 21.598906 L 124.621094 21.860625 L 125.519531 22.259062 L 126.691406 22.610625 L 127.941406 22.868437 L 129.109375 23.130156 L 129.558594 23.180937 L 129.828125 23.091094 " transform="matrix(1,0,0,-1,0,145.97)"/>
<path style="fill:none;stroke-width:1.41;stroke-linecap:round;stroke-linejoin:round;stroke:rgb(19.999695%,19.999695%,79.998779%);stroke-opacity:1;stroke-miterlimit:10;" d="M 130.640625 27.309844 L 130.550781 26.911406 L 130.550781 19.880156 L 130.640625 17.731719 L 130.820312 17.110625 L 131 17.419219 " transform="matrix(1,0,0,-1,0,145.97)"/>
<path style="fill:none;stroke-width:1.41;stroke-linecap:round;stroke-linejoin:round;stroke:rgb(19.999695%,19.999695%,79.998779%);stroke-opacity:1;stroke-miterlimit:10;" d="M 133.148438 31.75125 L 133.328125 31.528594 L 133.960938 30.868437 L 135.21875 29.548125 L 136.660156 28.098906 L 137.828125 26.868437 L 138.539062 25.950469 L 138.628906 25.329375 L 138.269531 24.450469 L 137.46875 22.958281 L 136.570312 21.161406 L 135.671875 19.528594 L 135.039062 18.341094 L 134.769531 17.899687 " transform="matrix(1,0,0,-1,0,145.97)"/>
<path style="fill:none;stroke-width:1.41;stroke-linecap:round;stroke-linejoin:round;stroke:rgb(19.999695%,19.999695%,79.998779%);stroke-opacity:1;stroke-miterlimit:10;" d="M 139.261719 33.509062 L 139.621094 33.368437 L 141.78125 33.368437 L 143.21875 33.509062 L 144.199219 33.548125 L 144.738281 33.458281 L 144.828125 32.930937 L 144.828125 26.25125 L 144.921875 22.829375 L 145.011719 19.489531 L 145.011719 15.091094 L 144.921875 13.68875 L 144.828125 12.759062 L 144.738281 12.239531 L 144.558594 11.97 L 144.109375 11.930937 L 143.21875 11.930937 L 142.320312 12.059844 L 141.421875 12.149687 L 140.789062 12.18875 L 140.519531 12.18875 " transform="matrix(1,0,0,-1,0,145.97)"/>
<path style="fill:none;stroke-width:1.41;stroke-linecap:round;stroke-linejoin:round;stroke:rgb(19.999695%,19.999695%,79.998779%);stroke-opacity:1;stroke-miterlimit:10;" d="M 151.121094 14.958281 L 150.851562 15.00125 L 150.761719 15.309844 L 150.578125 15.048125 L 150.308594 14.868437 L 149.949219 14.919219 L 149.691406 15.270781 L 149.769531 15.708281 L 150.21875 16.149687 L 150.941406 16.278594 L 151.570312 16.098906 L 152.289062 15.528594 L 152.828125 14.430937 L 152.921875 13.110625 L 152.558594 11.841094 L 151.929688 10.958281 L 151.210938 10.649687 L 150.671875 10.700469 L 150.398438 10.829375 " transform="matrix(1,0,0,-1,0,145.97)"/>
<path style="fill:none;stroke-width:1.41;stroke-linecap:round;stroke-linejoin:round;stroke:rgb(19.999695%,19.999695%,79.998779%);stroke-opacity:1;stroke-miterlimit:10;" d="M 158.308594 29.591094 L 158.308594 29.020781 L 158.398438 27.309844 L 158.488281 24.50125 L 158.761719 21.770781 L 158.851562 19.571562 L 158.851562 18.040312 " transform="matrix(1,0,0,-1,0,145.97)"/>
<path style="fill:none;stroke-width:1.41;stroke-linecap:round;stroke-linejoin:round;stroke:rgb(19.999695%,19.999695%,79.998779%);stroke-opacity:1;stroke-miterlimit:10;" d="M 158.761719 27.180937 L 158.941406 27.661406 L 159.480469 28.321562 L 160.46875 28.848906 L 161.988281 28.93875 L 163.789062 28.141875 L 165.410156 26.47 L 166.488281 24.098906 L 166.761719 21.509062 L 166.488281 19.528594 L 165.5 18.040312 L 164.148438 17.161406 L 162.621094 17.071562 L 161.191406 17.071562 L 160.289062 17.419219 L 159.75 17.770781 L 159.660156 18.040312 " transform="matrix(1,0,0,-1,0,145.97)"/>
<path style="fill:none;stroke-width:1.41;stroke-linecap:round;stroke-linejoin:round;stroke:rgb(19.999695%,19.999695%,79.998779%);stroke-opacity:1;stroke-miterlimit:10;" d="M 173.128906 24.450469 L 173.398438 24.72 L 174.210938 24.669219 L 175.378906 24.630156 L 176.371094 24.630156 L 177.089844 24.579375 L 177.449219 24.540312 L 177.269531 24.18875 " transform="matrix(1,0,0,-1,0,145.97)"/>
<path style="fill:none;stroke-width:1.41;stroke-linecap:round;stroke-linejoin:round;stroke:rgb(19.999695%,19.999695%,79.998779%);stroke-opacity:1;stroke-miterlimit:10;" d="M 172.601562 21.161406 L 172.328125 21.071562 L 172.601562 20.93875 L 173.578125 20.848906 L 174.75 20.72 L 176.011719 20.540312 L 177 20.411406 L 177.449219 20.450469 " transform="matrix(1,0,0,-1,0,145.97)"/>
<path style="fill:none;stroke-width:1.41;stroke-linecap:round;stroke-linejoin:round;stroke:rgb(19.999695%,19.999695%,79.998779%);stroke-opacity:1;stroke-miterlimit:10;" d="M 187.601562 30.649687 L 187.511719 30.298125 L 187.058594 29.071562 L 185.890625 27.309844 L 184.359375 25.161406 L 182.839844 23.489531 L 182.03125 22.259062 L 182.660156 21.200469 L 184.191406 20.18875 L 186.160156 19.00125 L 187.691406 17.860625 L 188.5 17.110625 L 188.859375 16.848906 " transform="matrix(1,0,0,-1,0,145.97)"/>
<path style="fill:none;stroke-width:1.41;stroke-linecap:round;stroke-linejoin:round;stroke:rgb(19.999695%,19.999695%,79.998779%);stroke-opacity:1;stroke-miterlimit:10;" d="M 191.460938 27.75125 L 191.371094 27.481719 L 191.460938 26.68875 L 191.550781 24.579375 L 191.550781 19.75125 L 191.460938 17.899687 " transform="matrix(1,0,0,-1,0,145.97)"/>
<path style="fill:none;stroke-width:1.41;stroke-linecap:round;stroke-linejoin:round;stroke:rgb(19.999695%,19.999695%,79.998779%);stroke-opacity:1;stroke-miterlimit:10;" d="M 191.550781 21.020781 L 191.910156 21.680937 L 192.628906 22.040312 L 193.800781 22.259062 L 195.148438 22.430937 L 196.128906 22.520781 L 196.851562 22.559844 " transform="matrix(1,0,0,-1,0,145.97)"/>
<path style="fill:none;stroke-width:1.41;stroke-linecap:round;stroke-linejoin:round;stroke:rgb(19.999695%,19.999695%,79.998779%);stroke-opacity:1;stroke-miterlimit:10;" d="M 196.761719 27.97 L 196.851562 27.481719 L 196.941406 25.809844 L 197.121094 23.309844 L 197.300781 20.72 L 197.390625 18.649687 L 197.480469 17.598906 " transform="matrix(1,0,0,-1,0,145.97)"/>
<path style="fill:none;stroke-width:1.41;stroke-linecap:round;stroke-linejoin:round;stroke:rgb(19.999695%,19.999695%,79.998779%);stroke-opacity:1;stroke-miterlimit:10;" d="M 201.789062 30.25125 L 201.351562 30.341094 L 201.078125 30.341094 L 201.261719 30.169219 L 202.058594 29.680937 L 203.320312 28.848906 L 204.761719 27.919219 L 206.289062 27.00125 L 207.191406 26.391875 L 207.628906 25.989531 L 207.449219 25.290312 L 206.921875 24.141875 L 206.019531 22.259062 L 205.03125 19.708281 L 204.21875 17.598906 L 203.679688 16.059844 L 203.410156 15.22 L 203.589844 15.489531 " transform="matrix(1,0,0,-1,0,145.97)"/>
<path style="fill:none;stroke-width:1.41;stroke-linecap:round;stroke-linejoin:round;stroke:rgb(19.999695%,19.999695%,79.998779%);stroke-opacity:1;stroke-miterlimit:10;" d="M 207.898438 35.391875 L 207.71875 35.571562 L 208.171875 35.348906 L 208.621094 35.259062 L 209.878906 35.348906 L 211.320312 35.571562 L 212.851562 35.829375 L 214.191406 36.098906 L 214.640625 36.098906 L 214.730469 35.880156 L 214.640625 34.821562 L 214.640625 32.930937 L 214.730469 30.118437 L 214.910156 26.559844 L 215.179688 23.22 L 215.359375 20.18875 L 215.449219 17.419219 L 215.449219 13.380156 L 215.359375 12.059844 L 215.449219 11.399687 L 215.449219 11.141875 L 214.910156 11.091094 L 214.191406 11.091094 L 213.289062 11.048125 L 212.578125 11.009062 L 212.128906 10.958281 L 211.859375 10.919219 " transform="matrix(1,0,0,-1,0,145.97)"/>
<path style="fill:none;stroke-width:1.41;stroke-linecap:round;stroke-linejoin:round;stroke:rgb(0%,0%,0%);stroke-opacity:1;stroke-miterlimit:10;" d="M 17.558594 38.559844 L 17.148438 38.118437 L 16.679688 37.649687 L 16.089844 36.93875 L 15.5 36.059844 L 14.839844 34.97 L 14.21875 33.618437 L 13.589844 32.22 L 13.03125 30.809844 L 12.558594 29.47 L 12.21875 28.118437 L 11.898438 26.649687 L 11.71875 25.149687 L 11.589844 23.680937 L 11.53125 22.149687 L 11.558594 20.680937 L 11.648438 19.22 L 11.941406 17.72 L 12.21875 16.528594 L 12.648438 15.43875 L 13.179688 14.50125 L 13.75 13.680937 L 14.308594 12.899687 L 14.75 12.47 L 15.03125 12.25125 " transform="matrix(1,0,0,-1,0,145.97)"/>
<path style="fill:none;stroke-width:1.41;stroke-linecap:round;stroke-linejoin:round;stroke:rgb(0%,0%,0%);stroke-opacity:1;stroke-miterlimit:10;" d="M 218.28125 37.118437 L 218.339844 36.680937 L 218.871094 35.899687 L 219.679688 34.72 L 220.679688 33.180937 L 221.558594 31.618437 L 222.25 30.341094 L 222.71875 29.341094 L 222.96875 28.591094 L 223.21875 27.868437 L 223.398438 27.118437 L 223.621094 26.25125 L 223.808594 25.028594 L 223.871094 23.680937 L 223.898438 22.368437 L 223.839844 21.22 L 223.621094 19.93875 L 223.308594 18.649687 L 222.96875 17.278594 L 222.558594 15.841094 L 222.25 14.97 L 222.03125 14.47 L 221.898438 14.118437 " transform="matrix(1,0,0,-1,0,145.97)"/>
<path style="fill:none;stroke-width:1.41;stroke-linecap:round;stroke-linejoin:round;stroke:rgb(0%,0%,0%);stroke-opacity:1;stroke-miterlimit:10;" d="M 236.398438 36.399687 L 236.21875 36.25125 L 235.5 36.149687 L 234.179688 36.059844 L 232.5 36.091094 L 230.839844 36.180937 L 229.429688 36.341094 L 228.589844 36.399687 L 228.089844 36.47 L 227.871094 36.25125 L 227.96875 35.649687 L 228.21875 34.149687 L 228.5 31.778594 L 228.808594 28.72 L 228.941406 24.868437 L 228.898438 21.22 L 228.808594 17.930937 L 228.75 15.278594 L 228.871094 13.591094 L 229.03125 12.528594 L 229.308594 11.868437 L 229.558594 11.559844 L 229.96875 11.47 L 230.75 11.50125 L 231.871094 11.591094 L 233.25 11.72 L 234.621094 11.778594 L 235.75 11.778594 L 236.441406 11.72 L 236.75 11.649687 L 236.558594 12.00125 " transform="matrix(1,0,0,-1,0,145.97)"/>
<path style="fill:none;stroke-width:1.41;stroke-linecap:round;stroke-linejoin:round;stroke:rgb(0%,0%,0%);stroke-opacity:1;stroke-miterlimit:10;" d="M 232.398438 35.091094 L 232.398438 35.399687 L 232.429688 34.868437 L 232.46875 33.591094 L 232.46875 31.47 L 232.5 28.430937 L 232.558594 25.278594 L 232.621094 22.22 L 232.679688 19.399687 L 232.75 17.341094 L 232.839844 15.618437 L 232.941406 14.399687 L 232.96875 13.47 L 233.03125 12.591094 L 233.03125 11.841094 L 233.089844 11.22 L 233.148438 10.778594 " transform="matrix(1,0,0,-1,0,145.97)"/>
<path style="fill:none;stroke-width:1.41;stroke-linecap:round;stroke-linejoin:round;stroke:rgb(0%,0%,0%);stroke-opacity:1;stroke-miterlimit:10;" d="M 240.46875 29.180937 L 240.589844 28.93875 L 240.679688 27.618437 L 240.808594 25.399687 L 240.96875 22.528594 L 241.03125 20.149687 L 241.089844 18.559844 L 241.089844 18.00125 L 241.058594 18.399687 " transform="matrix(1,0,0,-1,0,145.97)"/>
<path style="fill:none;stroke-width:1.41;stroke-linecap:round;stroke-linejoin:round;stroke:rgb(0%,0%,0%);stroke-opacity:1;stroke-miterlimit:10;" d="M 241.398438 22.309844 L 241.96875 22.72 L 242.808594 23.028594 L 243.898438 23.22 L 245 23.22 L 245.808594 23.180937 L 246.441406 23.149687 L 246.808594 23.180937 L 247.058594 23.180937 " transform="matrix(1,0,0,-1,0,145.97)"/>
<path style="fill:none;stroke-width:1.41;stroke-linecap:round;stroke-linejoin:round;stroke:rgb(0%,0%,0%);stroke-opacity:1;stroke-miterlimit:10;" d="M 248.28125 30.180937 L 248.179688 29.649687 L 248.179688 28.180937 L 248.21875 25.72 L 248.339844 23.00125 L 248.398438 20.591094 L 248.441406 18.868437 L 248.441406 17.97 L 248.46875 17.528594 L 248.53125 17.25125 " transform="matrix(1,0,0,-1,0,145.97)"/>
<path style="fill:none;stroke-width:1.41;stroke-linecap:round;stroke-linejoin:round;stroke:rgb(0%,0%,0%);stroke-opacity:1;stroke-miterlimit:10;" d="M 254.339844 25.180937 L 254.71875 25.430937 L 255.679688 25.50125 L 257 25.591094 L 258.46875 25.680937 L 259.621094 25.72 L 260.308594 25.75125 L 260.589844 25.75125 L 260.339844 25.680937 " transform="matrix(1,0,0,-1,0,145.97)"/>
<path style="fill:none;stroke-width:1.41;stroke-linecap:round;stroke-linejoin:round;stroke:rgb(0%,0%,0%);stroke-opacity:1;stroke-miterlimit:10;" d="M 254.339844 22.25125 L 254.808594 22.22 L 256.058594 22.341094 L 257.53125 22.47 L 259.121094 22.618437 L 260.148438 22.680937 L 260.558594 22.72 " transform="matrix(1,0,0,-1,0,145.97)"/>
<path style="fill:none;stroke-width:1.41;stroke-linecap:round;stroke-linejoin:round;stroke:rgb(100%,0%,0%);stroke-opacity:1;stroke-miterlimit:10;" d="M 266.058594 23.649687 L 265.941406 23.899687 L 266.058594 23.559844 L 266.339844 22.93875 L 266.71875 22.00125 L 267.121094 21.149687 L 267.398438 20.309844 L 267.71875 19.649687 L 267.871094 19.278594 L 267.941406 19.00125 L 267.839844 19.778594 L 267.648438 21.091094 L 267.648438 22.97 L 268 24.809844 L 268.78125 26.149687 L 269.871094 26.868437 L 270.941406 27.00125 L 271.71875 26.930937 L 272.121094 26.899687 " transform="matrix(1,0,0,-1,0,145.97)"/>
<path style="fill:none;stroke-width:1.41;stroke-linecap:round;stroke-linejoin:round;stroke:rgb(100%,0%,0%);stroke-opacity:1;stroke-miterlimit:10;" d="M 275.648438 26.680937 L 275.589844 26.899687 L 275.78125 27.091094 L 276.179688 27.059844 L 276.589844 26.899687 L 276.808594 26.591094 L 276.71875 26.25125 L 276.398438 26.591094 L 276.5 27.059844 L 276.71875 27.528594 L 277.121094 27.72 L 277.398438 27.47 L 277.46875 27.180937 L 277.398438 26.97 L 277.03125 27.180937 L 277 27.47 " transform="matrix(1,0,0,-1,0,145.97)"/>
<path style="fill:none;stroke-width:1.41;stroke-linecap:round;stroke-linejoin:round;stroke:rgb(100%,0%,0%);stroke-opacity:1;stroke-miterlimit:10;" d="M 277.121094 21.00125 L 276.839844 21.028594 L 277.058594 20.841094 L 276.941406 20.618437 L 276.648438 20.97 L 276.71875 21.278594 L 277.03125 21.618437 L 277.46875 21.72 L 277.839844 21.50125 L 277.898438 21.180937 L 277.648438 21.059844 L 277.371094 21.091094 L 277.03125 21.25125 L 276.808594 21.50125 " transform="matrix(1,0,0,-1,0,145.97)"/>
<path style="fill:none;stroke-width:1.41;stroke-linecap:round;stroke-linejoin:round;stroke:rgb(100%,0%,0%);stroke-opacity:1;stroke-miterlimit:10;" d="M 284.25 29.899687 L 284.089844 29.649687 L 284.089844 27.278594 L 284.058594 24.868437 L 284 22.368437 L 283.96875 20.118437 L 283.898438 18.50125 L 283.898438 17.25125 L 283.96875 17.00125 " transform="matrix(1,0,0,-1,0,145.97)"/>
<path style="fill:none;stroke-width:1.41;stroke-linecap:round;stroke-linejoin:round;stroke:rgb(100%,0%,0%);stroke-opacity:1;stroke-miterlimit:10;" d="M 284.808594 29.00125 L 284.929688 29.341094 L 285.25 29.43875 L 286.058594 29.528594 L 287.25 29.591094 L 288.589844 29.618437 L 290.058594 29.680937 L 291.179688 29.809844 L 291.898438 29.930937 L 292.308594 30.028594 L 292.558594 30.059844 L 292.308594 29.930937 " transform="matrix(1,0,0,-1,0,145.97)"/>
<path style="fill:none;stroke-width:1.41;stroke-linecap:round;stroke-linejoin:round;stroke:rgb(100%,0%,0%);stroke-opacity:1;stroke-miterlimit:10;" d="M 285.441406 23.899687 L 285.25 23.778594 L 285.25 23.528594 L 285.5 23.50125 L 286.121094 23.47 L 287.089844 23.528594 L 288.5 23.618437 L 289.78125 23.72 L 290.898438 23.841094 L 291.679688 23.97 L 292.03125 24.059844 " transform="matrix(1,0,0,-1,0,145.97)"/>
<path style="fill:none;stroke-width:1.41;stroke-linecap:round;stroke-linejoin:round;stroke:rgb(100%,0%,0%);stroke-opacity:1;stroke-miterlimit:10;" d="M 284.621094 17.25125 L 284.308594 17.25125 L 284.621094 17.43875 L 285.03125 17.47 L 285.71875 17.528594 L 286.308594 17.649687 L 287.441406 17.809844 L 288.648438 17.97 L 289.71875 18.091094 L 290.679688 18.180937 L 291.089844 18.091094 L 291.46875 18.22 " transform="matrix(1,0,0,-1,0,145.97)"/>
<path style="fill:none;stroke-width:1.41;stroke-linecap:round;stroke-linejoin:round;stroke:rgb(0%,0%,0%);stroke-opacity:1;stroke-miterlimit:10;" d="M 296.089844 34.430937 L 296.558594 34.559844 L 297.371094 34.591094 L 298.398438 34.680937 L 299.839844 34.899687 L 301.148438 35.149687 L 302.25 35.368437 L 303.03125 35.50125 L 303.371094 35.47 L 303.371094 34.97 L 303.339844 34.00125 L 303.25 32.778594 L 303.089844 30.649687 L 302.929688 27.72 L 302.839844 24.47 L 302.839844 18.180937 L 302.929688 16.591094 L 302.839844 15.75125 L 302.621094 15.399687 L 301.808594 15.399687 L 301.339844 15.47 L 300.679688 15.50125 L 299.808594 15.591094 L 298.839844 15.618437 L 297.78125 15.680937 L 296.96875 15.75125 L 296.441406 15.75125 L 296 15.680937 L 295.75 15.649687 " transform="matrix(1,0,0,-1,0,145.97)"/>
<path style="fill:none;stroke-width:1.41;stroke-linecap:round;stroke-linejoin:round;stroke:rgb(0%,0%,0%);stroke-opacity:1;stroke-miterlimit:10;" d="M 299.71875 33.93875 L 299.621094 34.22 L 299.679688 33.778594 L 299.808594 33.059844 L 299.871094 31.559844 L 299.898438 29.591094 L 299.898438 27.399687 L 299.839844 25.180937 L 299.839844 23.149687 L 299.898438 21.368437 L 300 19.868437 L 300.121094 18.649687 L 300.21875 17.841094 L 300.28125 17.180937 L 300.308594 16.649687 L 300.308594 16.059844 L 300.441406 16.341094 " transform="matrix(1,0,0,-1,0,145.97)"/>
</g>
</svg>
