<?xml version="1.0" encoding="UTF-8"?>
<svg xmlns="http://www.w3.org/2000/svg" xmlns:xlink="http://www.w3.org/1999/xlink" width="270.07pt" height="189.01pt" viewBox="0 0 270.07 189.01" version="1.1">
<g id="surface1">
<path style="fill:none;stroke-width:2.26;stroke-linecap:round;stroke-linejoin:round;stroke:rgb(0%,0%,0%);stroke-opacity:1;stroke-miterlimit:10;" d="M 98.648438 163.131094 L 103.769531 163.150625 L 108.890625 163.158437 L 114 163.181875 L 119.121094 163.201406 L 124.238281 163.220937 L 129.351562 163.240469 L 134.46875 163.248281 L 139.589844 163.271719 L 144.699219 163.29125 L 154.941406 163.330312 L 160.058594 163.338125 L 165.171875 163.361562 L 170.289062 163.381094 L 175.410156 163.400625 L 180.519531 163.420156 L 185.640625 163.431875 L 190.761719 163.451406 L 195.871094 163.470937 L 200.988281 163.490469 L 206.109375 163.51 L 211.230469 163.521719 " transform="matrix(1,0,0,-1,0,189.01)"/>
<path style="fill:none;stroke-width:2.26;stroke-linecap:round;stroke-linejoin:round;stroke:rgb(0%,0%,0%);stroke-opacity:1;stroke-miterlimit:10;" d="M 211.941406 163.26 L 211.988281 157.26 L 212.03125 151.26 " transform="matrix(1,0,0,-1,0,189.01)"/>
<path style="fill:none;stroke-width:2.26;stroke-linecap:round;stroke-linejoin:round;stroke:rgb(0%,0%,0%);stroke-opacity:1;stroke-miterlimit:10;" d="M 212.03125 150.740469 L 217.601562 150.560781 " transform="matrix(1,0,0,-1,0,189.01)"/>
<path style="fill:none;stroke-width:2.26;stroke-linecap:round;stroke-linejoin:round;stroke:rgb(0%,0%,0%);stroke-opacity:1;stroke-miterlimit:10;" d="M 217.601562 150.209219 L 217.570312 144.818594 L 217.53125 139.431875 L 217.5 134.04125 L 217.460938 128.658437 L 217.421875 123.271719 " transform="matrix(1,0,0,-1,0,189.01)"/>
<path style="fill:none;stroke-width:2.26;stroke-linecap:round;stroke-linejoin:round;stroke:rgb(0%,0%,0%);stroke-opacity:1;stroke-miterlimit:10;" d="M 217.601562 123.490469 L 212.75 122.740469 " transform="matrix(1,0,0,-1,0,189.01)"/>
<path style="fill:none;stroke-width:2.26;stroke-linecap:round;stroke-linejoin:round;stroke:rgb(0%,0%,0%);stroke-opacity:1;stroke-miterlimit:10;" d="M 213.199219 123.490469 L 212.988281 118.04125 L 212.78125 112.588125 L 212.570312 107.138906 " transform="matrix(1,0,0,-1,0,189.01)"/>
<path style="fill:none;stroke-width:2.26;stroke-linecap:round;stroke-linejoin:round;stroke:rgb(0%,0%,0%);stroke-opacity:1;stroke-miterlimit:10;" d="M 213.109375 106.79125 L 207.960938 106.849844 L 202.808594 106.908437 L 197.660156 106.970937 L 192.511719 107.029531 L 187.359375 107.088125 L 182.210938 107.150625 L 177.058594 107.209219 L 171.910156 107.271719 L 166.761719 107.330312 L 161.621094 107.388906 L 156.46875 107.451406 L 146.171875 107.568594 L 141.019531 107.631094 L 135.871094 107.689687 L 130.71875 107.748281 L 125.570312 107.810781 L 120.421875 107.869375 L 115.269531 107.931875 L 110.121094 107.990469 L 104.96875 108.049062 L 99.820312 108.111562 " transform="matrix(1,0,0,-1,0,189.01)"/>
<path style="fill:none;stroke-width:2.26;stroke-linecap:round;stroke-linejoin:round;stroke:rgb(0%,0%,0%);stroke-opacity:1;stroke-miterlimit:10;" d="M 100 108.459219 L 99.820312 115.400625 L 99.640625 122.349844 " transform="matrix(1,0,0,-1,0,189.01)"/>
<path style="fill:none;stroke-width:2.26;stroke-linecap:round;stroke-linejoin:round;stroke:rgb(0%,0%,0%);stroke-opacity:1;stroke-miterlimit:10;" d="M 99.460938 121.779531 L 106.738281 122.170156 " transform="matrix(1,0,0,-1,0,189.01)"/>
<path style="fill:none;stroke-width:2.26;stroke-linecap:round;stroke-linejoin:round;stroke:rgb(0%,0%,0%);stroke-opacity:1;stroke-miterlimit:10;" d="M 106.289062 121.72875 L 106.089844 127.400625 L 105.890625 133.068594 L 105.691406 138.740469 L 105.5 144.408437 L 105.300781 150.080312 " transform="matrix(1,0,0,-1,0,189.01)"/>
<path style="fill:none;stroke-width:2.26;stroke-linecap:round;stroke-linejoin:round;stroke:rgb(0%,0%,0%);stroke-opacity:1;stroke-miterlimit:10;" d="M 105.210938 149.990469 L 99.101562 149.549062 " transform="matrix(1,0,0,-1,0,189.01)"/>
<path style="fill:none;stroke-width:2.26;stroke-linecap:round;stroke-linejoin:round;stroke:rgb(0%,0%,0%);stroke-opacity:1;stroke-miterlimit:10;" d="M 99.101562 149.459219 L 99.101562 161.900625 " transform="matrix(1,0,0,-1,0,189.01)"/>
<path style="fill:none;stroke-width:1.41;stroke-linecap:round;stroke-linejoin:round;stroke:rgb(0%,0%,0%);stroke-opacity:1;stroke-miterlimit:10;" d="M 127.578125 139.568594 L 127.398438 139.920156 L 126.949219 140.189687 L 126.410156 140.408437 L 125.511719 140.451406 L 124.621094 140.060781 L 123.71875 139.181875 L 122.910156 137.681875 L 122.640625 136.060781 L 122.910156 134.521719 L 123.898438 133.330312 L 125.238281 132.670156 L 126.5 132.498281 L 127.488281 132.670156 L 127.941406 133.068594 L 128.300781 133.599844 L 128.480469 134.04125 L 128.75 134.431875 " transform="matrix(1,0,0,-1,0,189.01)"/>
<path style="fill:none;stroke-width:1.41;stroke-linecap:round;stroke-linejoin:round;stroke:rgb(0%,0%,0%);stroke-opacity:1;stroke-miterlimit:10;" d="M 132.609375 138.689687 L 132.429688 138.998281 L 131.980469 138.998281 L 131.261719 138.388906 L 130.460938 137.240469 L 129.738281 135.709219 L 129.46875 134.209219 L 129.828125 133.158437 L 130.550781 132.498281 L 131.351562 132.22875 L 132.160156 132.22875 L 132.96875 132.670156 L 133.421875 133.549062 L 133.601562 134.959219 L 133.511719 136.451406 L 133.148438 137.638906 L 132.96875 138.470937 " transform="matrix(1,0,0,-1,0,189.01)"/>
<path style="fill:none;stroke-width:1.41;stroke-linecap:round;stroke-linejoin:round;stroke:rgb(0%,0%,0%);stroke-opacity:1;stroke-miterlimit:10;" d="M 136.480469 132.939687 L 136.121094 133.158437 L 135.941406 133.900625 L 135.941406 135.131094 L 136.300781 136.670156 L 137.101562 138.029531 L 138 138.650625 L 138.808594 138.611562 L 139.441406 137.771719 L 139.710938 136.799062 L 139.980469 135.529531 L 140.070312 134.080312 L 140.160156 132.810781 L 140.25 131.79125 L 140.25 131.271719 " transform="matrix(1,0,0,-1,0,189.01)"/>
<path style="fill:none;stroke-width:1.41;stroke-linecap:round;stroke-linejoin:round;stroke:rgb(0%,0%,0%);stroke-opacity:1;stroke-miterlimit:10;" d="M 145.191406 137.459219 L 145.191406 138.029531 L 145.101562 138.431875 L 145.011719 138.650625 L 144.648438 138.650625 L 144.109375 138.521719 L 143.660156 138.170156 L 143.03125 137.201406 L 142.578125 136.22875 L 142.398438 135.181875 L 142.578125 133.900625 L 143.210938 133.111562 L 143.929688 132.451406 L 144.648438 132.150625 L 145.191406 132.099844 L 145.820312 132.451406 " transform="matrix(1,0,0,-1,0,189.01)"/>
<path style="fill:none;stroke-width:1.41;stroke-linecap:round;stroke-linejoin:round;stroke:rgb(0%,0%,0%);stroke-opacity:1;stroke-miterlimit:10;" d="M 148.871094 137.29125 L 148.421875 137.861562 L 148.148438 138.338125 L 148.238281 138.869375 L 148.871094 139.271719 L 149.679688 139.220937 L 150.578125 138.830312 L 151.210938 137.818594 L 151.480469 136.01 L 151.390625 134.388906 L 151.300781 132.849844 L 151.300781 131.970937 L 151.480469 132.451406 L 151.300781 133.201406 L 151.121094 133.861562 L 150.761719 134.338125 L 150.039062 134.779531 L 148.960938 134.560781 L 147.980469 133.900625 L 147.351562 132.97875 L 147.621094 131.970937 L 148.601562 131.490469 L 149.679688 131.400625 L 150.851562 131.748281 " transform="matrix(1,0,0,-1,0,189.01)"/>
<path style="fill:none;stroke-width:1.41;stroke-linecap:round;stroke-linejoin:round;stroke:rgb(0%,0%,0%);stroke-opacity:1;stroke-miterlimit:10;" d="M 155.25 143.881094 L 155.160156 144.361562 L 155.070312 143.701406 L 155.070312 143.181875 L 154.980469 142.470937 L 154.980469 141.549062 L 154.890625 140.189687 L 154.710938 138.170156 L 154.621094 135.931875 L 154.890625 133.900625 L 155.519531 132.54125 L 156.328125 132.01 L 157.140625 132.01 L 157.589844 132.451406 " transform="matrix(1,0,0,-1,0,189.01)"/>
<path style="fill:none;stroke-width:1.41;stroke-linecap:round;stroke-linejoin:round;stroke:rgb(0%,0%,0%);stroke-opacity:1;stroke-miterlimit:10;" d="M 152.738281 139.271719 L 152.558594 139.568594 L 153.101562 139.838125 L 153.820312 139.920156 L 154.53125 139.881094 L 155.25 139.881094 L 156.148438 139.838125 L 156.960938 139.79125 L 157.769531 139.619375 " transform="matrix(1,0,0,-1,0,189.01)"/>
<path style="fill:none;stroke-width:1.41;stroke-linecap:round;stroke-linejoin:round;stroke:rgb(0%,0%,0%);stroke-opacity:1;stroke-miterlimit:10;" d="M 160.011719 135.271719 L 160.640625 135.088125 L 161.449219 135.049062 L 162.171875 135.049062 L 162.800781 135.131094 L 163.160156 135.349844 " transform="matrix(1,0,0,-1,0,189.01)"/>
<path style="fill:none;stroke-width:1.41;stroke-linecap:round;stroke-linejoin:round;stroke:rgb(0%,0%,0%);stroke-opacity:1;stroke-miterlimit:10;" d="M 164.601562 139.439687 L 164.511719 139.79125 L 164.421875 140.01 " transform="matrix(1,0,0,-1,0,189.01)"/>
<path style="fill:none;stroke-width:1.41;stroke-linecap:round;stroke-linejoin:round;stroke:rgb(0%,0%,0%);stroke-opacity:1;stroke-miterlimit:10;" d="M 165.488281 137.861562 L 165.578125 136.580312 L 165.671875 135.049062 L 165.761719 133.599844 L 165.851562 132.451406 L 165.941406 131.748281 " transform="matrix(1,0,0,-1,0,189.01)"/>
<path style="fill:none;stroke-width:1.41;stroke-linecap:round;stroke-linejoin:round;stroke:rgb(0%,0%,0%);stroke-opacity:1;stroke-miterlimit:10;" d="M 168.460938 132.22875 L 168.460938 133.681875 L 168.910156 135.349844 L 169.71875 136.799062 L 170.890625 136.888906 L 171.78125 135.619375 L 172.320312 133.638906 L 172.5 131.79125 L 172.589844 130.830312 " transform="matrix(1,0,0,-1,0,189.01)"/>
<path style="fill:none;stroke-width:1.41;stroke-linecap:round;stroke-linejoin:round;stroke:rgb(0%,0%,0%);stroke-opacity:1;stroke-miterlimit:10;" d="M 179.238281 136.670156 L 178.96875 137.240469 L 178.789062 137.51 L 178.429688 137.72875 L 177.710938 137.681875 L 176.898438 137.420156 L 176.101562 136.580312 L 175.558594 135.568594 L 175.289062 134.47875 L 175.558594 133.068594 L 176.550781 132.150625 L 177.800781 131.931875 L 179.058594 132.54125 L 179.960938 134.299062 L 180.320312 136.631094 L 180.050781 139.181875 L 179.691406 141.201406 L 179.421875 141.72875 L 179.511719 140.670156 L 179.871094 138.209219 L 180.410156 135.490469 L 180.859375 133.638906 L 181.398438 132.810781 " transform="matrix(1,0,0,-1,0,189.01)"/>
<path style="fill:none;stroke-width:1.41;stroke-linecap:round;stroke-linejoin:round;stroke:rgb(0%,0%,0%);stroke-opacity:1;stroke-miterlimit:10;" d="M 184.628906 136.060781 L 185.441406 136.060781 L 186.429688 136.451406 L 187.421875 137.330312 L 188.140625 138.299062 L 188.230469 139.271719 L 187.691406 139.881094 L 186.609375 139.748281 L 185.53125 139.349844 L 184.628906 138.689687 L 184 137.771719 L 183.820312 137.068594 L 183.910156 135.748281 L 184.269531 134.26 L 185.078125 132.939687 L 186.070312 132.01 L 187.058594 131.970937 L 188.140625 132.451406 " transform="matrix(1,0,0,-1,0,189.01)"/>
<path style="fill:none;stroke-width:1.41;stroke-linecap:round;stroke-linejoin:round;stroke:rgb(0%,0%,0%);stroke-opacity:1;stroke-miterlimit:10;" d="M 196.308594 144.709219 L 196.128906 145.638906 L 195.589844 146.521719 L 194.691406 146.869375 L 193.800781 146.431875 L 192.988281 145.459219 L 192.539062 144.22875 L 192.359375 143.088125 L 192.539062 141.549062 L 192.898438 139.568594 L 193.351562 137.021719 L 193.710938 134.388906 L 193.980469 132.408437 L 193.980469 131.049062 L 193.53125 130.650625 " transform="matrix(1,0,0,-1,0,189.01)"/>
<path style="fill:none;stroke-width:1.41;stroke-linecap:round;stroke-linejoin:round;stroke:rgb(0%,0%,0%);stroke-opacity:1;stroke-miterlimit:10;" d="M 191.011719 135.490469 L 190.828125 136.279531 L 191.640625 136.888906 L 193.078125 137.420156 L 194.960938 137.771719 L 196.671875 137.951406 L 197.660156 137.990469 L 198.019531 138.080312 " transform="matrix(1,0,0,-1,0,189.01)"/>
<path style="fill:none;stroke-width:2.26;stroke-linecap:round;stroke-linejoin:round;stroke:rgb(0%,0%,0%);stroke-opacity:1;stroke-miterlimit:10;" d="M 99.640625 95.138906 L 104.761719 95.158437 L 109.871094 95.181875 L 114.988281 95.201406 L 120.109375 95.220937 L 125.21875 95.22875 L 130.339844 95.248281 L 135.460938 95.271719 L 140.578125 95.29125 L 145.691406 95.310781 L 150.808594 95.318594 L 155.929688 95.338125 L 161.039062 95.361562 L 171.28125 95.400625 L 176.390625 95.408437 L 181.511719 95.431875 L 186.628906 95.451406 L 191.75 95.470937 L 196.859375 95.490469 L 201.980469 95.498281 L 207.101562 95.521719 L 212.210938 95.54125 " transform="matrix(1,0,0,-1,0,189.01)"/>
<path style="fill:none;stroke-width:2.26;stroke-linecap:round;stroke-linejoin:round;stroke:rgb(0%,0%,0%);stroke-opacity:1;stroke-miterlimit:10;" d="M 212.929688 95.279531 L 212.980469 89.279531 L 213.019531 83.279531 " transform="matrix(1,0,0,-1,0,189.01)"/>
<path style="fill:none;stroke-width:2.26;stroke-linecap:round;stroke-linejoin:round;stroke:rgb(0%,0%,0%);stroke-opacity:1;stroke-miterlimit:10;" d="M 213.019531 82.748281 L 218.589844 82.580312 " transform="matrix(1,0,0,-1,0,189.01)"/>
<path style="fill:none;stroke-width:2.26;stroke-linecap:round;stroke-linejoin:round;stroke:rgb(0%,0%,0%);stroke-opacity:1;stroke-miterlimit:10;" d="M 218.589844 82.220937 L 218.558594 76.838125 L 218.519531 71.451406 L 218.480469 66.060781 L 218.449219 60.670156 L 218.410156 55.29125 " transform="matrix(1,0,0,-1,0,189.01)"/>
<path style="fill:none;stroke-width:2.26;stroke-linecap:round;stroke-linejoin:round;stroke:rgb(0%,0%,0%);stroke-opacity:1;stroke-miterlimit:10;" d="M 218.589844 55.51 L 213.738281 54.76 " transform="matrix(1,0,0,-1,0,189.01)"/>
<path style="fill:none;stroke-width:2.26;stroke-linecap:round;stroke-linejoin:round;stroke:rgb(0%,0%,0%);stroke-opacity:1;stroke-miterlimit:10;" d="M 214.191406 55.51 L 213.769531 44.611562 L 213.558594 39.158437 " transform="matrix(1,0,0,-1,0,189.01)"/>
<path style="fill:none;stroke-width:2.26;stroke-linecap:round;stroke-linejoin:round;stroke:rgb(0%,0%,0%);stroke-opacity:1;stroke-miterlimit:10;" d="M 214.101562 38.810781 L 208.949219 38.869375 L 203.800781 38.931875 L 198.648438 38.990469 L 193.5 39.049062 L 188.351562 39.111562 L 183.199219 39.170156 L 178.050781 39.22875 L 172.898438 39.29125 L 162.601562 39.408437 L 157.449219 39.470937 L 152.300781 39.529531 L 147.148438 39.588125 L 142 39.650625 L 136.859375 39.709219 L 131.710938 39.771719 L 126.558594 39.830312 L 121.410156 39.888906 L 116.261719 39.939687 L 111.109375 39.998281 L 105.960938 40.060781 L 100.808594 40.119375 " transform="matrix(1,0,0,-1,0,189.01)"/>
<path style="fill:none;stroke-width:2.26;stroke-linecap:round;stroke-linejoin:round;stroke:rgb(0%,0%,0%);stroke-opacity:1;stroke-miterlimit:10;" d="M 100.988281 40.47875 L 100.628906 54.361562 " transform="matrix(1,0,0,-1,0,189.01)"/>
<path style="fill:none;stroke-width:2.26;stroke-linecap:round;stroke-linejoin:round;stroke:rgb(0%,0%,0%);stroke-opacity:1;stroke-miterlimit:10;" d="M 100.449219 53.79125 L 107.730469 54.189687 " transform="matrix(1,0,0,-1,0,189.01)"/>
<path style="fill:none;stroke-width:2.26;stroke-linecap:round;stroke-linejoin:round;stroke:rgb(0%,0%,0%);stroke-opacity:1;stroke-miterlimit:10;" d="M 107.28125 53.748281 L 107.078125 59.420156 L 106.878906 65.088125 L 106.679688 70.748281 L 106.488281 76.420156 L 106.289062 82.088125 " transform="matrix(1,0,0,-1,0,189.01)"/>
<path style="fill:none;stroke-width:2.26;stroke-linecap:round;stroke-linejoin:round;stroke:rgb(0%,0%,0%);stroke-opacity:1;stroke-miterlimit:10;" d="M 106.199219 81.998281 L 100.089844 81.568594 " transform="matrix(1,0,0,-1,0,189.01)"/>
<path style="fill:none;stroke-width:2.26;stroke-linecap:round;stroke-linejoin:round;stroke:rgb(0%,0%,0%);stroke-opacity:1;stroke-miterlimit:10;" d="M 100.089844 81.47875 L 100.089844 93.908437 " transform="matrix(1,0,0,-1,0,189.01)"/>
<path style="fill:none;stroke-width:1.41;stroke-linecap:round;stroke-linejoin:round;stroke:rgb(0%,0%,0%);stroke-opacity:1;stroke-miterlimit:10;" d="M 120.570312 71.021719 L 120.390625 71.189687 L 120.121094 71.408437 L 119.488281 71.849844 L 118.78125 72.111562 L 118.058594 71.97875 L 117.609375 71.408437 L 117.609375 70.439687 L 118.238281 69.26 L 119.230469 68.029531 L 120.03125 66.748281 L 120.300781 65.568594 L 119.941406 64.560781 L 119.140625 63.97875 L 118.238281 63.900625 L 117.699219 64.158437 L 117.25 64.599844 L 117.160156 65.04125 L 117.070312 65.431875 " transform="matrix(1,0,0,-1,0,189.01)"/>
<path style="fill:none;stroke-width:1.41;stroke-linecap:round;stroke-linejoin:round;stroke:rgb(0%,0%,0%);stroke-opacity:1;stroke-miterlimit:10;" d="M 123.179688 77.47875 L 123.179688 74.970937 L 123.269531 72.908437 L 123.269531 67.189687 L 123.359375 65.47875 L 123.808594 64.029531 L 124.441406 62.970937 L 125.238281 62.709219 L 125.960938 62.799062 L 126.320312 63.369375 " transform="matrix(1,0,0,-1,0,189.01)"/>
<path style="fill:none;stroke-width:1.41;stroke-linecap:round;stroke-linejoin:round;stroke:rgb(0%,0%,0%);stroke-opacity:1;stroke-miterlimit:10;" d="M 121.46875 69.431875 L 121.289062 69.701406 L 121.738281 69.998281 L 122.460938 70.138906 L 123.269531 70.138906 L 124.351562 70.220937 L 125.238281 70.361562 L 125.871094 70.490469 L 126.5 70.709219 " transform="matrix(1,0,0,-1,0,189.01)"/>
<path style="fill:none;stroke-width:1.41;stroke-linecap:round;stroke-linejoin:round;stroke:rgb(0%,0%,0%);stroke-opacity:1;stroke-miterlimit:10;" d="M 127.761719 70.088125 L 127.941406 68.951406 L 128.300781 67.318594 L 128.660156 65.521719 L 128.929688 63.939687 L 128.929688 63.279531 L 128.570312 63.810781 L 128.300781 65.209219 L 128.300781 67.099844 L 128.570312 68.908437 L 129.109375 70.271719 L 129.648438 71.060781 L 130.191406 71.54125 " transform="matrix(1,0,0,-1,0,189.01)"/>
<path style="fill:none;stroke-width:1.41;stroke-linecap:round;stroke-linejoin:round;stroke:rgb(0%,0%,0%);stroke-opacity:1;stroke-miterlimit:10;" d="M 131.890625 73.119375 L 131.980469 73.338125 " transform="matrix(1,0,0,-1,0,189.01)"/>
<path style="fill:none;stroke-width:1.41;stroke-linecap:round;stroke-linejoin:round;stroke:rgb(0%,0%,0%);stroke-opacity:1;stroke-miterlimit:10;" d="M 133.328125 69.779531 L 133.328125 68.908437 L 133.238281 68.029531 L 133.148438 66.748281 L 133.148438 64.158437 L 133.238281 63.279531 " transform="matrix(1,0,0,-1,0,189.01)"/>
<path style="fill:none;stroke-width:1.41;stroke-linecap:round;stroke-linejoin:round;stroke:rgb(0%,0%,0%);stroke-opacity:1;stroke-miterlimit:10;" d="M 136.121094 63.111562 L 136.210938 63.369375 L 136.03125 64.338125 L 136.210938 65.920156 L 136.738281 67.681875 L 137.460938 69.131094 L 138.179688 69.611562 L 138.898438 68.549062 L 139.441406 66.748281 L 139.800781 64.861562 L 140.070312 63.060781 L 140.160156 62.271719 " transform="matrix(1,0,0,-1,0,189.01)"/>
<path style="fill:none;stroke-width:1.41;stroke-linecap:round;stroke-linejoin:round;stroke:rgb(0%,0%,0%);stroke-opacity:1;stroke-miterlimit:10;" d="M 142.320312 67.189687 L 141.960938 67.720937 L 141.601562 67.720937 L 141.238281 67.279531 L 141.148438 66.400625 L 141.421875 64.951406 L 141.960938 63.810781 L 142.761719 63.318594 L 143.660156 63.318594 L 144.199219 64.029531 L 144.558594 65.04125 L 144.558594 65.869375 L 144.46875 66.838125 L 144.378906 67.588125 L 144.289062 68.029531 L 144.289062 67.631094 L 144.46875 65.79125 L 144.738281 62.970937 L 144.738281 59.189687 L 144.289062 55.720937 L 143.300781 53.611562 L 142.140625 52.779531 L 141.148438 53.310781 L 140.339844 54.76 " transform="matrix(1,0,0,-1,0,189.01)"/>
<path style="fill:none;stroke-width:1.41;stroke-linecap:round;stroke-linejoin:round;stroke:rgb(0%,0%,0%);stroke-opacity:1;stroke-miterlimit:10;" d="M 145.460938 68.908437 L 145.460938 68.470937 L 145.550781 67.631094 L 145.730469 66.580312 L 145.910156 65.349844 L 146 64.689687 L 146.539062 64.029531 L 147.261719 63.849844 L 148.148438 64.119375 L 149.050781 64.638906 L 149.589844 66.049062 L 149.859375 67.498281 L 149.949219 68.470937 L 149.949219 69.04125 L 149.949219 68.689687 L 150.039062 67.810781 L 150.21875 66.931875 L 150.398438 65.869375 L 150.941406 64.689687 L 151.300781 63.720937 L 151.75 63.189687 L 152.199219 63.54125 " transform="matrix(1,0,0,-1,0,189.01)"/>
<path style="fill:none;stroke-width:1.41;stroke-linecap:round;stroke-linejoin:round;stroke:rgb(0%,0%,0%);stroke-opacity:1;stroke-miterlimit:10;" d="M 153.371094 77.47875 L 153.460938 77.170156 L 153.640625 76.51 L 153.730469 74.439687 L 153.730469 68.420156 L 153.910156 65.388906 L 154.171875 63.681875 L 154.890625 62.970937 L 155.519531 63.021719 L 156.148438 63.279531 L 156.601562 63.97875 " transform="matrix(1,0,0,-1,0,189.01)"/>
<path style="fill:none;stroke-width:1.41;stroke-linecap:round;stroke-linejoin:round;stroke:rgb(0%,0%,0%);stroke-opacity:1;stroke-miterlimit:10;" d="M 151.660156 69.740469 L 152.019531 70.400625 L 152.738281 70.931875 L 153.910156 71.408437 L 155.25 71.498281 L 155.96875 71.54125 L 156.78125 71.720937 " transform="matrix(1,0,0,-1,0,189.01)"/>
<path style="fill:none;stroke-width:1.41;stroke-linecap:round;stroke-linejoin:round;stroke:rgb(0%,0%,0%);stroke-opacity:1;stroke-miterlimit:10;" d="M 158.039062 73.170156 L 158.21875 73.560781 L 158.308594 73.779531 " transform="matrix(1,0,0,-1,0,189.01)"/>
<path style="fill:none;stroke-width:1.41;stroke-linecap:round;stroke-linejoin:round;stroke:rgb(0%,0%,0%);stroke-opacity:1;stroke-miterlimit:10;" d="M 158.851562 70.439687 L 158.851562 68.599844 L 159.03125 66.619375 L 159.210938 64.599844 L 159.390625 62.888906 L 159.570312 62.22875 " transform="matrix(1,0,0,-1,0,189.01)"/>
<path style="fill:none;stroke-width:1.41;stroke-linecap:round;stroke-linejoin:round;stroke:rgb(0%,0%,0%);stroke-opacity:1;stroke-miterlimit:10;" d="M 162.261719 77.431875 L 162.171875 77.869375 L 162.171875 76.900625 L 162.351562 74.568594 L 162.441406 71.189687 L 162.441406 64.599844 L 162.351562 62.970937 L 162.351562 62.619375 " transform="matrix(1,0,0,-1,0,189.01)"/>
<path style="fill:none;stroke-width:1.41;stroke-linecap:round;stroke-linejoin:round;stroke:rgb(0%,0%,0%);stroke-opacity:1;stroke-miterlimit:10;" d="M 168.011719 69.869375 L 168.011719 70.838125 L 167.921875 71.670156 L 167.828125 72.248281 L 167.558594 72.689687 L 167.199219 73.04125 L 166.929688 73.170156 L 166.390625 73.338125 L 165.761719 73.080312 L 165.140625 72.689687 L 164.601562 71.849844 L 164.601562 70.619375 L 165.488281 69.388906 L 166.839844 68.029531 L 168.191406 66.658437 L 168.820312 65.521719 L 168.460938 64.470937 L 167.46875 63.810781 L 166.300781 63.631094 L 165.398438 63.97875 " transform="matrix(1,0,0,-1,0,189.01)"/>
<path style="fill:none;stroke-width:1.41;stroke-linecap:round;stroke-linejoin:round;stroke:rgb(0%,0%,0%);stroke-opacity:1;stroke-miterlimit:10;" d="M 171.960938 67.97875 L 171.691406 67.97875 L 172.589844 67.97875 L 173.851562 67.939687 L 174.929688 67.900625 L 175.921875 67.849844 L 176.191406 67.900625 " transform="matrix(1,0,0,-1,0,189.01)"/>
<path style="fill:none;stroke-width:1.41;stroke-linecap:round;stroke-linejoin:round;stroke:rgb(0%,0%,0%);stroke-opacity:1;stroke-miterlimit:10;" d="M 176.640625 72.420156 L 176.550781 72.72875 L 176.550781 72.990469 L 176.820312 73.080312 L 177.351562 72.599844 " transform="matrix(1,0,0,-1,0,189.01)"/>
<path style="fill:none;stroke-width:1.41;stroke-linecap:round;stroke-linejoin:round;stroke:rgb(0%,0%,0%);stroke-opacity:1;stroke-miterlimit:10;" d="M 178.070312 69.080312 L 178.070312 67.849844 L 178.160156 66.271719 L 178.339844 64.72875 L 178.429688 63.498281 L 178.609375 62.838125 " transform="matrix(1,0,0,-1,0,189.01)"/>
<path style="fill:none;stroke-width:1.41;stroke-linecap:round;stroke-linejoin:round;stroke:rgb(0%,0%,0%);stroke-opacity:1;stroke-miterlimit:10;" d="M 181.039062 64.470937 L 180.949219 65.209219 L 181.128906 66.400625 L 181.398438 67.76 L 181.941406 68.908437 L 182.738281 69.131094 L 183.550781 68.420156 L 184.179688 67.099844 L 184.808594 65.431875 L 185.078125 64.119375 L 185.171875 63.279531 " transform="matrix(1,0,0,-1,0,189.01)"/>
<path style="fill:none;stroke-width:1.41;stroke-linecap:round;stroke-linejoin:round;stroke:rgb(0%,0%,0%);stroke-opacity:1;stroke-miterlimit:10;" d="M 189.75 66.619375 L 189.570312 66.838125 L 189.480469 67.279531 L 189.300781 67.631094 L 189.121094 67.900625 L 188.488281 68.068594 L 187.871094 67.97875 L 187.238281 67.631094 L 186.609375 67.060781 L 186.339844 66.451406 L 186.25 65.349844 L 186.519531 64.158437 L 187.328125 63.318594 L 188.410156 63.060781 L 189.390625 63.681875 L 190.199219 64.818594 L 190.648438 66.088125 L 190.828125 67.279531 L 190.648438 69.431875 L 190.289062 71.849844 L 189.839844 73.701406 L 189.480469 74.931875 L 189.390625 74.619375 L 189.570312 73.338125 L 190.019531 71.54125 L 190.648438 69.349844 L 191.371094 66.881094 L 192.089844 64.861562 L 192.71875 63.97875 " transform="matrix(1,0,0,-1,0,189.01)"/>
<path style="fill:none;stroke-width:1.41;stroke-linecap:round;stroke-linejoin:round;stroke:rgb(0%,0%,0%);stroke-opacity:1;stroke-miterlimit:10;" d="M 194.421875 66.310781 L 194.601562 66.580312 L 195.140625 67.021719 L 195.859375 67.588125 L 196.578125 68.068594 L 197.03125 68.549062 L 197.210938 68.908437 L 197.03125 69.431875 L 196.578125 70.088125 L 195.859375 70.439687 L 194.78125 70.049062 L 193.890625 69.26 L 193.261719 67.939687 L 193.261719 66.271719 L 193.890625 64.818594 L 194.691406 63.408437 L 195.5 62.400625 L 196.21875 62.049062 L 196.941406 62.709219 " transform="matrix(1,0,0,-1,0,189.01)"/>
<path style="fill:none;stroke-width:1.41;stroke-linecap:round;stroke-linejoin:round;stroke:rgb(0%,0%,0%);stroke-opacity:1;stroke-miterlimit:10;" d="M 202.960938 73.701406 L 202.960938 74.271719 L 202.871094 74.748281 L 202.691406 75.189687 L 202.238281 75.588125 L 201.429688 75.849844 L 200.621094 75.720937 L 199.988281 75.189687 L 199.640625 74.400625 L 199.550781 73.47875 L 199.820312 71.939687 L 200.261719 69.701406 L 200.800781 66.931875 L 201.25 64.248281 L 201.519531 62.400625 L 201.519531 61.388906 L 201.429688 61.131094 L 200.980469 61.220937 " transform="matrix(1,0,0,-1,0,189.01)"/>
<path style="fill:none;stroke-width:1.41;stroke-linecap:round;stroke-linejoin:round;stroke:rgb(0%,0%,0%);stroke-opacity:1;stroke-miterlimit:10;" d="M 198.738281 66.088125 L 199.28125 66.451406 L 200.441406 66.709219 L 201.609375 66.881094 L 202.78125 67.060781 L 203.589844 67.189687 " transform="matrix(1,0,0,-1,0,189.01)"/>
<path style="fill:none;stroke-width:2.26;stroke-linecap:round;stroke-linejoin:round;stroke:rgb(0%,0%,0%);stroke-opacity:1;stroke-miterlimit:10;" d="M 262.171875 169.939687 L 257.089844 169.939687 L 252.011719 169.951406 L 246.941406 169.951406 L 241.859375 169.959219 L 236.789062 169.959219 L 231.710938 169.970937 L 226.628906 169.970937 L 221.558594 169.97875 L 216.480469 169.97875 L 211.410156 169.990469 L 206.328125 169.990469 L 201.25 169.998281 L 196.179688 169.998281 L 191.101562 170.01 L 186.019531 170.01 L 180.949219 170.021719 L 175.871094 170.029531 L 170.800781 170.029531 L 165.71875 170.04125 L 160.640625 170.04125 L 155.570312 170.049062 L 150.488281 170.049062 L 145.410156 170.060781 L 140.339844 170.060781 L 135.261719 170.068594 L 130.191406 170.068594 L 125.109375 170.080312 L 120.03125 170.080312 L 114.960938 170.088125 L 109.878906 170.088125 L 104.808594 170.099844 L 99.730469 170.099844 L 94.648438 170.111562 L 89.578125 170.111562 L 84.5 170.119375 L 79.421875 170.119375 L 74.351562 170.131094 L 69.269531 170.138906 L 64.199219 170.138906 L 59.121094 170.150625 L 54.039062 170.150625 L 48.96875 170.158437 " transform="matrix(1,0,0,-1,0,189.01)"/>
<path style="fill:none;stroke-width:2.26;stroke-linecap:round;stroke-linejoin:round;stroke:rgb(0%,0%,0%);stroke-opacity:1;stroke-miterlimit:10;" d="M 52.378906 14.068594 L 57.460938 13.97875 L 62.539062 13.900625 L 67.609375 13.818594 L 72.691406 13.740469 L 77.769531 13.658437 L 82.851562 13.580312 L 87.921875 13.490469 L 93 13.408437 L 98.078125 13.330312 L 103.148438 13.248281 L 108.230469 13.170156 L 113.308594 13.088125 L 118.390625 13.01 L 123.460938 12.920156 L 128.539062 12.838125 L 133.621094 12.76 L 138.699219 12.681875 L 143.769531 12.599844 L 148.851562 12.521719 L 153.929688 12.439687 L 159 12.349844 L 164.078125 12.271719 L 169.160156 12.189687 L 174.238281 12.111562 L 179.308594 12.029531 L 184.390625 11.951406 L 189.46875 11.869375 L 194.550781 11.779531 L 199.621094 11.701406 L 204.699219 11.619375 L 209.78125 11.54125 L 214.851562 11.459219 L 219.929688 11.381094 L 225.011719 11.299062 L 230.089844 11.209219 L 235.160156 11.131094 L 240.238281 11.049062 L 245.320312 10.970937 L 250.390625 10.888906 L 255.46875 10.810781 L 260.550781 10.72875 " transform="matrix(1,0,0,-1,0,189.01)"/>
<path style="fill:none;stroke-width:2.26;stroke-linecap:round;stroke-linejoin:round;stroke:rgb(0%,0%,0%);stroke-opacity:1;stroke-miterlimit:10;" d="M 260.460938 11.381094 L 260.53125 16.47875 L 260.601562 21.568594 L 260.679688 26.658437 L 260.75 31.76 L 260.890625 41.939687 L 260.96875 47.04125 L 261.039062 52.131094 L 261.109375 57.22875 L 261.179688 62.318594 L 261.261719 67.408437 L 261.328125 72.51 L 261.46875 82.689687 L 261.550781 87.79125 L 261.691406 97.970937 L 261.761719 103.068594 L 261.839844 108.158437 L 261.910156 113.248281 L 261.980469 118.349844 L 262.050781 123.439687 L 262.128906 128.529531 L 262.199219 133.631094 L 262.339844 143.810781 L 262.421875 148.908437 L 262.488281 153.998281 L 262.558594 159.088125 L 262.628906 164.189687 L 262.710938 169.279531 " transform="matrix(1,0,0,-1,0,189.01)"/>
<path style="fill:none;stroke-width:1.41;stroke-linecap:round;stroke-linejoin:round;stroke:rgb(0%,0%,0%);stroke-opacity:1;stroke-miterlimit:10;" d="M 196.941406 24.131094 L 197.390625 24.26 L 198.199219 24.349844 L 199.011719 24.47875 L 199.640625 24.611562 L 200.078125 24.701406 " transform="matrix(1,0,0,-1,0,189.01)"/>
<path style="fill:none;stroke-width:1.41;stroke-linecap:round;stroke-linejoin:round;stroke:rgb(0%,0%,0%);stroke-opacity:1;stroke-miterlimit:10;" d="M 206.730469 27.381094 L 206.28125 27.72875 L 205.660156 28.131094 L 204.851562 28.26 L 203.949219 27.998281 L 203.230469 27.420156 L 202.871094 26.631094 L 203.320312 25.888906 L 204.308594 25.271719 L 205.480469 24.521719 L 206.460938 23.470937 L 206.640625 22.369375 L 205.738281 21.54125 L 204.308594 21.318594 L 203.140625 21.54125 L 202.238281 22.060781 L 202.058594 22.720937 " transform="matrix(1,0,0,-1,0,189.01)"/>
<path style="fill:none;stroke-width:1.41;stroke-linecap:round;stroke-linejoin:round;stroke:rgb(0%,0%,0%);stroke-opacity:1;stroke-miterlimit:10;" d="M 210.78125 31.599844 L 210.78125 31.861562 L 210.78125 28.349844 L 210.691406 26.189687 L 210.691406 23.248281 L 210.78125 22.631094 L 210.871094 22.150625 L 211.140625 21.709219 L 211.671875 21.54125 L 212.300781 21.619375 L 213.019531 21.838125 L 213.46875 22.279531 L 213.738281 22.810781 " transform="matrix(1,0,0,-1,0,189.01)"/>
<path style="fill:none;stroke-width:1.41;stroke-linecap:round;stroke-linejoin:round;stroke:rgb(0%,0%,0%);stroke-opacity:1;stroke-miterlimit:10;" d="M 209.160156 26.459219 L 209.609375 26.681875 L 210.691406 26.939687 L 211.941406 27.158437 L 213.109375 27.338125 L 213.828125 27.338125 L 214.460938 27.29125 " transform="matrix(1,0,0,-1,0,189.01)"/>
<path style="fill:none;stroke-width:1.41;stroke-linecap:round;stroke-linejoin:round;stroke:rgb(0%,0%,0%);stroke-opacity:1;stroke-miterlimit:10;" d="M 216.441406 26.810781 L 216.261719 26.189687 L 216.351562 25.099844 L 216.710938 23.689687 L 217.160156 22.330312 L 217.421875 21.54125 L 217.160156 22.720937 L 217.160156 24.439687 L 217.601562 26.189687 L 218.230469 27.861562 L 219.039062 28.658437 L 220.03125 28.869375 " transform="matrix(1,0,0,-1,0,189.01)"/>
<path style="fill:none;stroke-width:1.41;stroke-linecap:round;stroke-linejoin:round;stroke:rgb(0%,0%,0%);stroke-opacity:1;stroke-miterlimit:10;" d="M 222.371094 30.060781 L 222.28125 30.279531 L 222.191406 29.970937 " transform="matrix(1,0,0,-1,0,189.01)"/>
<path style="fill:none;stroke-width:1.41;stroke-linecap:round;stroke-linejoin:round;stroke:rgb(0%,0%,0%);stroke-opacity:1;stroke-miterlimit:10;" d="M 222.460938 26.588125 L 222.371094 25.619375 L 222.371094 22.900625 L 222.640625 21.799062 L 222.820312 21.099844 L 223.078125 21.099844 " transform="matrix(1,0,0,-1,0,189.01)"/>
<path style="fill:none;stroke-width:1.41;stroke-linecap:round;stroke-linejoin:round;stroke:rgb(0%,0%,0%);stroke-opacity:1;stroke-miterlimit:10;" d="M 226.230469 21.361562 L 225.960938 22.060781 L 225.960938 23.29125 L 226.410156 24.959219 L 227.128906 26.408437 L 227.941406 27.381094 L 228.738281 27.470937 L 229.371094 26.631094 L 229.820312 25.099844 L 230.089844 23.560781 L 230.269531 22.201406 L 230.269531 21.181875 " transform="matrix(1,0,0,-1,0,189.01)"/>
<path style="fill:none;stroke-width:1.41;stroke-linecap:round;stroke-linejoin:round;stroke:rgb(0%,0%,0%);stroke-opacity:1;stroke-miterlimit:10;" d="M 237.460938 26.021719 L 237.28125 26.810781 L 236.921875 27.599844 L 236.199219 27.861562 L 235.300781 27.560781 L 234.488281 26.408437 L 233.871094 24.881094 L 233.960938 23.431875 L 234.671875 22.369375 L 235.75 21.97875 L 237.011719 22.459219 L 237.910156 23.431875 L 238.539062 24.568594 L 238.628906 25.748281 L 238.539062 26.631094 L 238.359375 27.201406 L 238.179688 27.51 L 238.179688 26.939687 L 238.269531 26.150625 L 238.539062 25.01 L 238.71875 23.29125 L 238.71875 21.361562 L 238.539062 19.338125 L 237.820312 17.54125 L 236.46875 16.529531 L 235.121094 16.220937 L 234.050781 16.310781 L 233.058594 17.01 " transform="matrix(1,0,0,-1,0,189.01)"/>
<path style="fill:none;stroke-width:1.41;stroke-linecap:round;stroke-linejoin:round;stroke:rgb(0%,0%,0%);stroke-opacity:1;stroke-miterlimit:10;" d="M 174.929688 33.049062 L 174.929688 30.060781 L 174.839844 27.599844 L 174.839844 25.01 L 174.929688 22.631094 L 175.289062 21.099844 L 175.828125 20.310781 L 176.820312 20.04125 L 177.710938 20.088125 L 178.519531 20.310781 L 178.96875 20.47875 " transform="matrix(1,0,0,-1,0,189.01)"/>
<path style="fill:none;stroke-width:1.41;stroke-linecap:round;stroke-linejoin:round;stroke:rgb(0%,0%,0%);stroke-opacity:1;stroke-miterlimit:10;" d="M 170.890625 27.338125 L 171.421875 27.560781 L 172.589844 27.779531 L 174.210938 27.951406 L 175.738281 28.04125 L 176.898438 28.131094 L 177.621094 28.26 L 177.980469 28.299062 " transform="matrix(1,0,0,-1,0,189.01)"/>
<path style="fill:none;stroke-width:1.41;stroke-linecap:round;stroke-linejoin:round;stroke:rgb(0%,0%,0%);stroke-opacity:1;stroke-miterlimit:10;" d="M 179.960938 26.900625 L 179.960938 24.920156 L 180.230469 23.29125 L 180.5 21.888906 L 180.949219 21.361562 L 181.398438 22.021719 L 181.761719 23.209219 L 182.300781 24.080312 L 182.921875 24.131094 L 183.371094 23.51 L 183.910156 22.498281 L 184.269531 21.670156 L 184.449219 21.099844 L 184.71875 21.01 L 185.078125 21.619375 L 185.53125 22.771719 L 185.980469 24.170156 L 186.339844 25.318594 L 186.519531 25.888906 L 186.699219 26.111562 L 186.96875 26.060781 " transform="matrix(1,0,0,-1,0,189.01)"/>
<path style="fill:none;stroke-width:1.41;stroke-linecap:round;stroke-linejoin:round;stroke:rgb(0%,0%,0%);stroke-opacity:1;stroke-miterlimit:10;" d="M 190.109375 25.099844 L 189.929688 25.318594 L 189.390625 25.22875 L 188.941406 24.830312 L 188.488281 24.349844 L 188.050781 23.599844 L 187.78125 22.900625 L 187.601562 22.240469 L 187.511719 21.54125 L 187.78125 20.79125 L 188.320312 20.220937 L 189.390625 19.951406 L 190.648438 19.951406 L 191.730469 20.349844 L 192.449219 20.830312 L 192.628906 21.22875 L 192.628906 21.670156 L 192.449219 22.459219 L 192 23.431875 L 191.371094 24.349844 L 190.648438 25.181875 L 190.109375 25.529531 L 189.75 25.670156 " transform="matrix(1,0,0,-1,0,189.01)"/>
<path style="fill:none;stroke-width:2.26;stroke-linecap:round;stroke-linejoin:round;stroke:rgb(0%,0%,0%);stroke-opacity:1;stroke-miterlimit:10;" d="M 48.789062 171.521719 L 48.949219 166.131094 L 49.101562 160.72875 L 49.261719 155.338125 L 49.421875 149.939687 " transform="matrix(1,0,0,-1,0,189.01)"/>
<path style="fill:none;stroke-width:2.26;stroke-linecap:round;stroke-linejoin:round;stroke:rgb(0%,0%,0%);stroke-opacity:1;stroke-miterlimit:10;" d="M 49.511719 149.990469 L 55.800781 149.549062 " transform="matrix(1,0,0,-1,0,189.01)"/>
<path style="fill:none;stroke-width:2.26;stroke-linecap:round;stroke-linejoin:round;stroke:rgb(0%,0%,0%);stroke-opacity:1;stroke-miterlimit:10;" d="M 56.601562 149.201406 L 56.589844 143.959219 L 56.570312 138.720937 L 56.550781 133.47875 L 56.53125 128.240469 L 56.511719 123.01 " transform="matrix(1,0,0,-1,0,189.01)"/>
<path style="fill:none;stroke-width:2.26;stroke-linecap:round;stroke-linejoin:round;stroke:rgb(0%,0%,0%);stroke-opacity:1;stroke-miterlimit:10;" d="M 56.511719 122.830312 L 49.78125 122.47875 " transform="matrix(1,0,0,-1,0,189.01)"/>
<path style="fill:none;stroke-width:2.26;stroke-linecap:round;stroke-linejoin:round;stroke:rgb(0%,0%,0%);stroke-opacity:1;stroke-miterlimit:10;" d="M 49.78125 122.170156 L 50.089844 117.049062 L 50.410156 111.931875 L 50.71875 106.810781 L 51.03125 101.689687 L 51.351562 96.568594 L 51.660156 91.451406 " transform="matrix(1,0,0,-1,0,189.01)"/>
<path style="fill:none;stroke-width:2.26;stroke-linecap:round;stroke-linejoin:round;stroke:rgb(0%,0%,0%);stroke-opacity:1;stroke-miterlimit:10;" d="M 51.390625 90.439687 L 57.949219 89.908437 " transform="matrix(1,0,0,-1,0,189.01)"/>
<path style="fill:none;stroke-width:2.26;stroke-linecap:round;stroke-linejoin:round;stroke:rgb(0%,0%,0%);stroke-opacity:1;stroke-miterlimit:10;" d="M 58.398438 89.779531 L 58.460938 84.568594 L 58.511719 79.361562 L 58.558594 74.150625 L 58.621094 68.939687 L 58.671875 63.720937 " transform="matrix(1,0,0,-1,0,189.01)"/>
<path style="fill:none;stroke-width:2.26;stroke-linecap:round;stroke-linejoin:round;stroke:rgb(0%,0%,0%);stroke-opacity:1;stroke-miterlimit:10;" d="M 58.398438 63.588125 L 51.75 64.209219 " transform="matrix(1,0,0,-1,0,189.01)"/>
<path style="fill:none;stroke-width:2.26;stroke-linecap:round;stroke-linejoin:round;stroke:rgb(0%,0%,0%);stroke-opacity:1;stroke-miterlimit:10;" d="M 51.75 63.638906 L 51.890625 58.131094 L 52.171875 47.131094 L 52.308594 41.619375 L 52.589844 30.619375 L 52.730469 25.111562 L 53.011719 14.111562 " transform="matrix(1,0,0,-1,0,189.01)"/>
<path style="fill:none;stroke-width:2.26;stroke-linecap:round;stroke-linejoin:round;stroke:rgb(0%,0%,0%);stroke-opacity:1;stroke-miterlimit:10;" d="M 41.058594 134.26 L 41.601562 133.990469 L 42.769531 134.04125 L 44.660156 134.080312 L 47.261719 134.170156 L 49.871094 134.209219 L 52.289062 134.170156 L 57.140625 134.170156 L 59.75 134.209219 L 62.890625 134.388906 L 65.769531 134.47875 L 68.460938 134.650625 L 71.429688 134.740469 L 74.121094 134.869375 L 77 135.049062 L 79.691406 135.131094 L 82.121094 135.181875 L 84.371094 135.271719 L 86.609375 135.400625 L 88.769531 135.529531 L 90.570312 135.619375 L 92.089844 135.658437 L 97.121094 135.658437 L 98.558594 135.619375 L 101.980469 135.619375 L 102.238281 135.658437 L 102.511719 135.658437 L 102.871094 135.568594 L 103.140625 135.568594 L 103.410156 135.490469 L 103.679688 135.490469 L 104.128906 135.439687 L 104.398438 135.439687 " transform="matrix(1,0,0,-1,0,189.01)"/>
<path style="fill:none;stroke-width:2.26;stroke-linecap:round;stroke-linejoin:round;stroke:rgb(0%,0%,0%);stroke-opacity:1;stroke-miterlimit:10;" d="M 44.300781 77.920156 L 45.28125 77.701406 L 46.808594 77.650625 L 49.148438 77.611562 L 52.46875 77.521719 L 56.421875 77.521719 L 60.738281 77.611562 L 65.050781 77.701406 L 68.460938 77.830312 L 70.980469 77.920156 L 72.511719 78.049062 L 73.671875 78.049062 L 74.121094 78.01 L 74.75 77.959219 L 75.289062 77.920156 L 76.011719 77.920156 L 76.28125 78.01 " transform="matrix(1,0,0,-1,0,189.01)"/>
<path style="fill:none;stroke-width:2.26;stroke-linecap:round;stroke-linejoin:round;stroke:rgb(0%,0%,0%);stroke-opacity:1;stroke-miterlimit:10;" d="M 77.179688 78.529531 L 77.179688 78.138906 L 77.359375 77.209219 L 77.539062 75.681875 L 77.71875 73.47875 L 77.808594 71.279531 L 77.808594 69.388906 L 77.898438 67.939687 L 77.988281 67.240469 L 77.988281 66.888906 " transform="matrix(1,0,0,-1,0,189.01)"/>
<path style="fill:none;stroke-width:2.26;stroke-linecap:round;stroke-linejoin:round;stroke:rgb(0%,0%,0%);stroke-opacity:1;stroke-miterlimit:10;" d="M 77.898438 66.931875 L 78.261719 66.97875 L 78.621094 66.888906 L 79.238281 66.799062 L 80.410156 66.799062 L 83.019531 66.838125 L 86.429688 67.060781 L 90.210938 67.330312 L 93.980469 67.498281 L 96.488281 67.549062 L 98.109375 67.549062 L 99.371094 67.631094 L 100.71875 67.771719 L 102.511719 67.990469 L 104.488281 68.209219 L 106.109375 68.381094 L 107.101562 68.470937 L 107.640625 68.51 " transform="matrix(1,0,0,-1,0,189.01)"/>
<path style="fill:none;stroke-width:1.41;stroke-linecap:round;stroke-linejoin:round;stroke:rgb(0%,0%,0%);stroke-opacity:1;stroke-miterlimit:10;" d="M 18.421875 139.490469 L 18.691406 139.658437 L 18.78125 139.881094 L 18.601562 140.22875 L 18.148438 140.670156 L 17.070312 141.068594 L 15.730469 141.111562 L 14.378906 140.76 L 13.480469 139.920156 L 13.390625 138.740469 L 14.109375 137.51 L 15.640625 136.22875 L 17.429688 135.131094 L 18.871094 134.299062 L 19.769531 133.549062 L 19.949219 132.939687 L 19.589844 132.279531 L 19.050781 131.619375 L 18.238281 130.998281 L 17.070312 130.611562 L 15.820312 130.611562 L 14.648438 130.740469 L 13.570312 131.049062 L 12.761719 131.568594 L 12.488281 132.060781 " transform="matrix(1,0,0,-1,0,189.01)"/>
<path style="fill:none;stroke-width:1.41;stroke-linecap:round;stroke-linejoin:round;stroke:rgb(0%,0%,0%);stroke-opacity:1;stroke-miterlimit:10;" d="M 22.910156 140.22875 L 23.089844 140.451406 L 23.179688 139.970937 L 23.179688 138.470937 L 23.089844 136.22875 L 22.910156 133.72875 L 23.089844 131.658437 L 23.71875 130.611562 L 24.710938 130.299062 L 25.699219 130.47875 L 26.421875 130.650625 L 26.78125 130.920156 L 26.78125 131.271719 L 26.691406 131.568594 " transform="matrix(1,0,0,-1,0,189.01)"/>
<path style="fill:none;stroke-width:1.41;stroke-linecap:round;stroke-linejoin:round;stroke:rgb(0%,0%,0%);stroke-opacity:1;stroke-miterlimit:10;" d="M 20.578125 135.271719 L 20.578125 135.529531 L 21.121094 135.79125 L 22.460938 136.01 L 24.078125 136.318594 L 25.609375 136.498281 L 26.691406 136.670156 L 27.140625 136.76 L 27.410156 136.849844 " transform="matrix(1,0,0,-1,0,189.01)"/>
<path style="fill:none;stroke-width:1.41;stroke-linecap:round;stroke-linejoin:round;stroke:rgb(0%,0%,0%);stroke-opacity:1;stroke-miterlimit:10;" d="M 29.019531 134.779531 L 29.109375 134.04125 L 29.289062 132.849844 L 29.46875 131.568594 L 29.648438 130.611562 L 29.648438 130.170156 L 29.558594 130.830312 L 29.738281 132.099844 L 30.371094 133.638906 L 31.359375 134.740469 L 32.171875 135.349844 L 32.890625 135.400625 L 33.238281 135.131094 L 33.421875 134.908437 L 33.601562 134.611562 " transform="matrix(1,0,0,-1,0,189.01)"/>
<path style="fill:none;stroke-width:1.41;stroke-linecap:round;stroke-linejoin:round;stroke:rgb(0%,0%,0%);stroke-opacity:1;stroke-miterlimit:10;" d="M 19.949219 80.111562 L 19.679688 80.951406 L 18.691406 81.830312 L 17.339844 82.580312 L 15.730469 82.658437 L 14.289062 82.181875 L 13.570312 81.299062 L 13.839844 80.29125 L 15.101562 79.150625 L 16.800781 78.049062 L 18.328125 76.861562 L 18.871094 75.54125 L 18.511719 74.490469 L 17.429688 73.79125 L 15.640625 73.611562 L 14.019531 74.22875 L 12.488281 74.970937 L 11.320312 75.849844 L 10.871094 76.560781 L 10.960938 76.951406 L 11.230469 77.26 " transform="matrix(1,0,0,-1,0,189.01)"/>
<path style="fill:none;stroke-width:1.41;stroke-linecap:round;stroke-linejoin:round;stroke:rgb(0%,0%,0%);stroke-opacity:1;stroke-miterlimit:10;" d="M 22.640625 82.529531 L 22.820312 82.361562 L 22.910156 81.47875 L 22.910156 79.681875 L 22.820312 77.170156 L 22.820312 74.888906 L 23.269531 73.349844 L 24.078125 72.638906 L 25.070312 72.72875 L 25.878906 73.04125 L 26.421875 73.349844 L 26.511719 73.611562 " transform="matrix(1,0,0,-1,0,189.01)"/>
<path style="fill:none;stroke-width:1.41;stroke-linecap:round;stroke-linejoin:round;stroke:rgb(0%,0%,0%);stroke-opacity:1;stroke-miterlimit:10;" d="M 21.210938 76.689687 L 21.03125 76.951406 L 21.390625 77.26 L 22.640625 77.611562 L 24.078125 77.869375 L 25.519531 78.049062 L 26.601562 78.138906 L 26.960938 78.138906 " transform="matrix(1,0,0,-1,0,189.01)"/>
<path style="fill:none;stroke-width:1.41;stroke-linecap:round;stroke-linejoin:round;stroke:rgb(0%,0%,0%);stroke-opacity:1;stroke-miterlimit:10;" d="M 28.03125 76.951406 L 28.121094 76.29125 L 28.570312 75.111562 L 29.019531 74.088125 L 29.378906 73.131094 L 29.558594 72.560781 L 29.289062 73.26 L 29.109375 74.580312 L 29.289062 76.470937 L 29.648438 78.181875 L 30.460938 79.408437 L 31.359375 79.97875 L 32.078125 79.900625 L 32.980469 79.681875 " transform="matrix(1,0,0,-1,0,189.01)"/>
<path style="fill:none;stroke-width:1.41;stroke-linecap:round;stroke-linejoin:round;stroke:rgb(0%,0%,0%);stroke-opacity:1;stroke-miterlimit:10;" d="M 34.679688 79.97875 L 34.679688 80.689687 L 35.128906 81.568594 L 36.210938 82.220937 L 37.289062 82.361562 L 38.28125 81.920156 L 38.730469 80.771719 L 38.371094 79.240469 L 37.46875 77.388906 L 36.390625 75.720937 L 35.128906 74.310781 L 34.140625 73.388906 L 33.691406 72.861562 L 33.871094 72.638906 L 34.859375 72.818594 L 36.390625 73.131094 L 37.738281 73.388906 L 38.730469 73.521719 L 39.171875 73.47875 L 39.351562 73.170156 " transform="matrix(1,0,0,-1,0,189.01)"/>
</g>
</svg>
