<?xml version="1.0" encoding="UTF-8"?>
<svg xmlns="http://www.w3.org/2000/svg" xmlns:xlink="http://www.w3.org/1999/xlink" width="270.070313pt" height="189.008789pt" viewBox="0 0 270.070313 189.008789" version="1.1">
<g id="surface1">
<path style="fill:none;stroke-width:2.26;stroke-linecap:round;stroke-linejoin:round;stroke:rgb(0%,0%,0%);stroke-opacity:1;stroke-miterlimit:10;" d="M 98.648438 163.125977 L 103.765625 163.141602 L 114 163.180664 L 119.117188 163.196289 L 124.234375 163.21582 L 129.351562 163.231445 L 139.585938 163.270508 L 144.703125 163.286133 L 149.820312 163.305664 L 154.933594 163.321289 L 165.167969 163.360352 L 170.285156 163.375977 L 175.402344 163.395508 L 180.519531 163.411133 L 190.753906 163.450195 L 195.871094 163.46582 L 200.988281 163.485352 L 206.105469 163.500977 L 211.222656 163.520508 " transform="matrix(1,0,0,-1,0,189.008789)"/>
<path style="fill:none;stroke-width:2.26;stroke-linecap:round;stroke-linejoin:round;stroke:rgb(0%,0%,0%);stroke-opacity:1;stroke-miterlimit:10;" d="M 211.941406 163.258789 L 211.984375 157.258789 L 212.03125 151.258789 " transform="matrix(1,0,0,-1,0,189.008789)"/>
<path style="fill:none;stroke-width:2.26;stroke-linecap:round;stroke-linejoin:round;stroke:rgb(0%,0%,0%);stroke-opacity:1;stroke-miterlimit:10;" d="M 212.03125 150.731445 L 217.601562 150.555664 " transform="matrix(1,0,0,-1,0,189.008789)"/>
<path style="fill:none;stroke-width:2.26;stroke-linecap:round;stroke-linejoin:round;stroke:rgb(0%,0%,0%);stroke-opacity:1;stroke-miterlimit:10;" d="M 217.601562 150.204102 L 217.53125 139.430664 L 217.492188 134.043945 L 217.457031 128.65332 L 217.421875 123.266602 " transform="matrix(1,0,0,-1,0,189.008789)"/>
<path style="fill:none;stroke-width:2.26;stroke-linecap:round;stroke-linejoin:round;stroke:rgb(0%,0%,0%);stroke-opacity:1;stroke-miterlimit:10;" d="M 217.601562 123.485352 L 212.75 122.739258 " transform="matrix(1,0,0,-1,0,189.008789)"/>
<path style="fill:none;stroke-width:2.26;stroke-linecap:round;stroke-linejoin:round;stroke:rgb(0%,0%,0%);stroke-opacity:1;stroke-miterlimit:10;" d="M 213.199219 123.485352 L 212.988281 118.036133 L 212.78125 112.586914 L 212.570312 107.137695 " transform="matrix(1,0,0,-1,0,189.008789)"/>
<path style="fill:none;stroke-width:2.26;stroke-linecap:round;stroke-linejoin:round;stroke:rgb(0%,0%,0%);stroke-opacity:1;stroke-miterlimit:10;" d="M 213.109375 106.786133 L 207.960938 106.848633 L 202.808594 106.907227 L 197.660156 106.96582 L 192.511719 107.02832 L 187.359375 107.086914 L 182.210938 107.145508 L 177.0625 107.208008 L 171.910156 107.266602 L 166.761719 107.325195 L 161.613281 107.387695 L 156.460938 107.446289 L 151.3125 107.504883 L 146.164062 107.567383 L 141.015625 107.625977 L 135.863281 107.68457 L 130.714844 107.74707 L 125.566406 107.805664 L 120.414062 107.864258 L 115.265625 107.926758 L 110.117188 107.985352 L 104.964844 108.043945 L 99.816406 108.106445 " transform="matrix(1,0,0,-1,0,189.008789)"/>
<path style="fill:none;stroke-width:2.26;stroke-linecap:round;stroke-linejoin:round;stroke:rgb(0%,0%,0%);stroke-opacity:1;stroke-miterlimit:10;" d="M 99.996094 108.458008 L 99.816406 115.399414 L 99.636719 122.344727 " transform="matrix(1,0,0,-1,0,189.008789)"/>
<path style="fill:none;stroke-width:2.26;stroke-linecap:round;stroke-linejoin:round;stroke:rgb(0%,0%,0%);stroke-opacity:1;stroke-miterlimit:10;" d="M 99.457031 121.774414 L 106.734375 122.168945 " transform="matrix(1,0,0,-1,0,189.008789)"/>
<path style="fill:none;stroke-width:2.26;stroke-linecap:round;stroke-linejoin:round;stroke:rgb(0%,0%,0%);stroke-opacity:1;stroke-miterlimit:10;" d="M 106.285156 121.727539 L 106.085938 127.399414 L 105.890625 133.067383 L 105.691406 138.735352 L 105.496094 144.40332 L 105.296875 150.075195 " transform="matrix(1,0,0,-1,0,189.008789)"/>
<path style="fill:none;stroke-width:2.26;stroke-linecap:round;stroke-linejoin:round;stroke:rgb(0%,0%,0%);stroke-opacity:1;stroke-miterlimit:10;" d="M 105.207031 149.985352 L 99.097656 149.547852 " transform="matrix(1,0,0,-1,0,189.008789)"/>
<path style="fill:none;stroke-width:2.26;stroke-linecap:round;stroke-linejoin:round;stroke:rgb(0%,0%,0%);stroke-opacity:1;stroke-miterlimit:10;" d="M 99.097656 149.458008 L 99.097656 161.895508 " transform="matrix(1,0,0,-1,0,189.008789)"/>
<path style="fill:none;stroke-width:1.41;stroke-linecap:round;stroke-linejoin:round;stroke:rgb(0%,0%,0%);stroke-opacity:1;stroke-miterlimit:10;" d="M 127.578125 139.571289 L 127.398438 139.922852 L 126.949219 140.18457 L 126.410156 140.407227 L 125.511719 140.450195 L 124.613281 140.055664 L 123.714844 139.176758 L 122.90625 137.680664 L 122.636719 136.055664 L 122.90625 134.516602 L 123.894531 133.329102 L 125.242188 132.672852 L 126.5 132.49707 L 127.488281 132.672852 L 127.9375 133.067383 L 128.296875 133.594727 L 128.476562 134.032227 L 128.746094 134.430664 " transform="matrix(1,0,0,-1,0,189.008789)"/>
<path style="fill:none;stroke-width:1.41;stroke-linecap:round;stroke-linejoin:round;stroke:rgb(0%,0%,0%);stroke-opacity:1;stroke-miterlimit:10;" d="M 132.609375 138.692383 L 132.429688 139.000977 L 131.980469 139.000977 L 131.261719 138.383789 L 130.453125 137.243164 L 129.734375 135.704102 L 129.464844 134.208008 L 129.824219 133.15332 L 130.542969 132.49707 L 131.351562 132.231445 L 132.160156 132.231445 L 132.96875 132.672852 L 133.417969 133.551758 L 133.597656 134.958008 L 133.507812 136.450195 L 133.148438 137.637695 L 132.96875 138.473633 " transform="matrix(1,0,0,-1,0,189.008789)"/>
<path style="fill:none;stroke-width:1.41;stroke-linecap:round;stroke-linejoin:round;stroke:rgb(0%,0%,0%);stroke-opacity:1;stroke-miterlimit:10;" d="M 136.472656 132.93457 L 136.113281 133.15332 L 135.933594 133.90332 L 135.933594 135.133789 L 136.292969 136.668945 L 137.101562 138.032227 L 138 138.649414 L 138.808594 138.602539 L 139.4375 137.770508 L 139.707031 136.801758 L 139.976562 135.52832 L 140.066406 134.079102 L 140.15625 132.801758 L 140.246094 131.793945 L 140.246094 131.266602 " transform="matrix(1,0,0,-1,0,189.008789)"/>
<path style="fill:none;stroke-width:1.41;stroke-linecap:round;stroke-linejoin:round;stroke:rgb(0%,0%,0%);stroke-opacity:1;stroke-miterlimit:10;" d="M 145.1875 137.461914 L 145.1875 138.032227 L 145.097656 138.426758 L 145.007812 138.649414 L 144.648438 138.649414 L 144.109375 138.516602 L 143.660156 138.165039 L 143.03125 137.196289 L 142.582031 136.231445 L 142.402344 135.176758 L 142.582031 133.90332 L 143.210938 133.110352 L 143.929688 132.450195 L 144.648438 132.145508 L 145.1875 132.098633 L 145.816406 132.450195 " transform="matrix(1,0,0,-1,0,189.008789)"/>
<path style="fill:none;stroke-width:1.41;stroke-linecap:round;stroke-linejoin:round;stroke:rgb(0%,0%,0%);stroke-opacity:1;stroke-miterlimit:10;" d="M 148.871094 137.286133 L 148.421875 137.856445 L 148.152344 138.34082 L 148.242188 138.868164 L 148.871094 139.262695 L 149.679688 139.219727 L 150.578125 138.825195 L 151.207031 137.813477 L 151.476562 136.012695 L 151.386719 134.383789 L 151.296875 132.848633 L 151.296875 131.969727 L 151.476562 132.450195 L 151.296875 133.200195 L 151.117188 133.856445 L 150.757812 134.34082 L 150.039062 134.782227 L 148.960938 134.55957 L 147.972656 133.90332 L 147.34375 132.977539 L 147.613281 131.969727 L 148.601562 131.485352 L 149.679688 131.395508 L 150.847656 131.74707 " transform="matrix(1,0,0,-1,0,189.008789)"/>
<path style="fill:none;stroke-width:1.41;stroke-linecap:round;stroke-linejoin:round;stroke:rgb(0%,0%,0%);stroke-opacity:1;stroke-miterlimit:10;" d="M 155.25 143.875977 L 155.160156 144.360352 L 155.070312 143.700195 L 155.070312 143.172852 L 154.980469 142.469727 L 154.980469 141.547852 L 154.890625 140.18457 L 154.710938 138.165039 L 154.621094 135.922852 L 154.890625 133.90332 L 155.519531 132.540039 L 156.328125 132.012695 L 157.136719 132.012695 L 157.585938 132.450195 " transform="matrix(1,0,0,-1,0,189.008789)"/>
<path style="fill:none;stroke-width:1.41;stroke-linecap:round;stroke-linejoin:round;stroke:rgb(0%,0%,0%);stroke-opacity:1;stroke-miterlimit:10;" d="M 152.734375 139.262695 L 152.554688 139.571289 L 153.09375 139.833008 L 153.8125 139.922852 L 154.53125 139.879883 L 155.25 139.879883 L 156.148438 139.833008 L 156.957031 139.790039 L 157.765625 139.614258 " transform="matrix(1,0,0,-1,0,189.008789)"/>
<path style="fill:none;stroke-width:1.41;stroke-linecap:round;stroke-linejoin:round;stroke:rgb(0%,0%,0%);stroke-opacity:1;stroke-miterlimit:10;" d="M 160.011719 135.262695 L 160.640625 135.086914 L 161.449219 135.043945 L 162.167969 135.043945 L 162.796875 135.133789 L 163.15625 135.352539 " transform="matrix(1,0,0,-1,0,189.008789)"/>
<path style="fill:none;stroke-width:1.41;stroke-linecap:round;stroke-linejoin:round;stroke:rgb(0%,0%,0%);stroke-opacity:1;stroke-miterlimit:10;" d="M 164.59375 139.438477 L 164.503906 139.790039 L 164.414062 140.008789 " transform="matrix(1,0,0,-1,0,189.008789)"/>
<path style="fill:none;stroke-width:1.41;stroke-linecap:round;stroke-linejoin:round;stroke:rgb(0%,0%,0%);stroke-opacity:1;stroke-miterlimit:10;" d="M 165.492188 137.856445 L 165.582031 136.583008 L 165.671875 135.043945 L 165.761719 133.594727 L 165.851562 132.450195 L 165.941406 131.74707 " transform="matrix(1,0,0,-1,0,189.008789)"/>
<path style="fill:none;stroke-width:1.41;stroke-linecap:round;stroke-linejoin:round;stroke:rgb(0%,0%,0%);stroke-opacity:1;stroke-miterlimit:10;" d="M 168.457031 132.231445 L 168.457031 133.680664 L 168.90625 135.352539 L 169.714844 136.801758 L 170.882812 136.891602 L 171.78125 135.614258 L 172.320312 133.637695 L 172.5 131.793945 L 172.589844 130.825195 " transform="matrix(1,0,0,-1,0,189.008789)"/>
<path style="fill:none;stroke-width:1.41;stroke-linecap:round;stroke-linejoin:round;stroke:rgb(0%,0%,0%);stroke-opacity:1;stroke-miterlimit:10;" d="M 179.238281 136.668945 L 178.96875 137.243164 L 178.789062 137.504883 L 178.429688 137.723633 L 177.710938 137.680664 L 176.902344 137.418945 L 176.09375 136.583008 L 175.554688 135.571289 L 175.285156 134.473633 L 175.554688 133.067383 L 176.542969 132.145508 L 177.800781 131.922852 L 179.058594 132.540039 L 179.957031 134.297852 L 180.316406 136.625977 L 180.046875 139.176758 L 179.6875 141.196289 L 179.417969 141.723633 L 179.507812 140.668945 L 179.867188 138.208008 L 180.40625 135.485352 L 180.855469 133.637695 L 181.394531 132.801758 " transform="matrix(1,0,0,-1,0,189.008789)"/>
<path style="fill:none;stroke-width:1.41;stroke-linecap:round;stroke-linejoin:round;stroke:rgb(0%,0%,0%);stroke-opacity:1;stroke-miterlimit:10;" d="M 184.628906 136.055664 L 185.4375 136.055664 L 186.425781 136.450195 L 187.414062 137.329102 L 188.132812 138.297852 L 188.222656 139.262695 L 187.683594 139.879883 L 186.605469 139.74707 L 185.527344 139.352539 L 184.628906 138.692383 L 184 137.770508 L 183.820312 137.067383 L 183.910156 135.74707 L 184.269531 134.254883 L 185.078125 132.93457 L 186.066406 132.012695 L 187.054688 131.969727 L 188.132812 132.450195 " transform="matrix(1,0,0,-1,0,189.008789)"/>
<path style="fill:none;stroke-width:1.41;stroke-linecap:round;stroke-linejoin:round;stroke:rgb(0%,0%,0%);stroke-opacity:1;stroke-miterlimit:10;" d="M 196.308594 144.711914 L 196.128906 145.633789 L 195.589844 146.512695 L 194.691406 146.864258 L 193.792969 146.426758 L 192.984375 145.458008 L 192.535156 144.227539 L 192.355469 143.086914 L 192.535156 141.547852 L 192.894531 139.571289 L 193.34375 137.020508 L 193.703125 134.383789 L 193.972656 132.407227 L 193.972656 131.043945 L 193.523438 130.649414 " transform="matrix(1,0,0,-1,0,189.008789)"/>
<path style="fill:none;stroke-width:1.41;stroke-linecap:round;stroke-linejoin:round;stroke:rgb(0%,0%,0%);stroke-opacity:1;stroke-miterlimit:10;" d="M 191.007812 135.485352 L 190.828125 136.274414 L 191.636719 136.891602 L 193.074219 137.418945 L 194.960938 137.770508 L 196.667969 137.946289 L 197.65625 137.989258 L 198.015625 138.075195 " transform="matrix(1,0,0,-1,0,189.008789)"/>
<path style="fill:none;stroke-width:2.26;stroke-linecap:round;stroke-linejoin:round;stroke:rgb(0%,0%,0%);stroke-opacity:1;stroke-miterlimit:10;" d="M 99.636719 95.141602 L 104.753906 95.161133 L 109.871094 95.176758 L 114.988281 95.196289 L 120.105469 95.211914 L 130.339844 95.250977 L 135.457031 95.266602 L 140.574219 95.286133 L 145.691406 95.301758 L 155.925781 95.34082 L 161.039062 95.356445 L 166.15625 95.375977 L 171.273438 95.391602 L 181.507812 95.430664 L 186.625 95.446289 L 191.742188 95.46582 L 196.859375 95.481445 L 207.09375 95.520508 L 212.210938 95.536133 " transform="matrix(1,0,0,-1,0,189.008789)"/>
<path style="fill:none;stroke-width:2.26;stroke-linecap:round;stroke-linejoin:round;stroke:rgb(0%,0%,0%);stroke-opacity:1;stroke-miterlimit:10;" d="M 212.929688 95.274414 L 212.972656 89.274414 L 213.019531 83.27832 " transform="matrix(1,0,0,-1,0,189.008789)"/>
<path style="fill:none;stroke-width:2.26;stroke-linecap:round;stroke-linejoin:round;stroke:rgb(0%,0%,0%);stroke-opacity:1;stroke-miterlimit:10;" d="M 213.019531 82.750977 L 218.589844 82.575195 " transform="matrix(1,0,0,-1,0,189.008789)"/>
<path style="fill:none;stroke-width:2.26;stroke-linecap:round;stroke-linejoin:round;stroke:rgb(0%,0%,0%);stroke-opacity:1;stroke-miterlimit:10;" d="M 218.589844 82.223633 L 218.554688 76.833008 L 218.519531 71.446289 L 218.480469 66.05957 L 218.445312 60.672852 L 218.410156 55.282227 " transform="matrix(1,0,0,-1,0,189.008789)"/>
<path style="fill:none;stroke-width:2.26;stroke-linecap:round;stroke-linejoin:round;stroke:rgb(0%,0%,0%);stroke-opacity:1;stroke-miterlimit:10;" d="M 218.589844 55.504883 L 213.738281 54.754883 " transform="matrix(1,0,0,-1,0,189.008789)"/>
<path style="fill:none;stroke-width:2.26;stroke-linecap:round;stroke-linejoin:round;stroke:rgb(0%,0%,0%);stroke-opacity:1;stroke-miterlimit:10;" d="M 214.1875 55.504883 L 213.976562 50.055664 L 213.769531 44.606445 L 213.558594 39.157227 " transform="matrix(1,0,0,-1,0,189.008789)"/>
<path style="fill:none;stroke-width:2.26;stroke-linecap:round;stroke-linejoin:round;stroke:rgb(0%,0%,0%);stroke-opacity:1;stroke-miterlimit:10;" d="M 214.097656 38.805664 L 208.949219 38.864258 L 203.796875 38.922852 L 198.648438 38.985352 L 193.5 39.043945 L 188.347656 39.102539 L 183.199219 39.165039 L 178.050781 39.223633 L 172.898438 39.282227 L 167.75 39.344727 L 157.453125 39.461914 L 152.300781 39.524414 L 142.003906 39.641602 L 136.851562 39.704102 L 126.554688 39.821289 L 121.402344 39.883789 L 111.105469 40.000977 L 105.953125 40.063477 L 100.804688 40.12207 " transform="matrix(1,0,0,-1,0,189.008789)"/>
<path style="fill:none;stroke-width:2.26;stroke-linecap:round;stroke-linejoin:round;stroke:rgb(0%,0%,0%);stroke-opacity:1;stroke-miterlimit:10;" d="M 100.984375 40.473633 L 100.804688 47.418945 L 100.625 54.360352 " transform="matrix(1,0,0,-1,0,189.008789)"/>
<path style="fill:none;stroke-width:2.26;stroke-linecap:round;stroke-linejoin:round;stroke:rgb(0%,0%,0%);stroke-opacity:1;stroke-miterlimit:10;" d="M 100.445312 53.790039 L 107.722656 54.18457 " transform="matrix(1,0,0,-1,0,189.008789)"/>
<path style="fill:none;stroke-width:2.26;stroke-linecap:round;stroke-linejoin:round;stroke:rgb(0%,0%,0%);stroke-opacity:1;stroke-miterlimit:10;" d="M 107.273438 53.74707 L 107.074219 59.415039 L 106.878906 65.083008 L 106.679688 70.750977 L 106.484375 76.422852 L 106.285156 82.09082 " transform="matrix(1,0,0,-1,0,189.008789)"/>
<path style="fill:none;stroke-width:2.26;stroke-linecap:round;stroke-linejoin:round;stroke:rgb(0%,0%,0%);stroke-opacity:1;stroke-miterlimit:10;" d="M 106.195312 82.000977 L 100.085938 81.563477 " transform="matrix(1,0,0,-1,0,189.008789)"/>
<path style="fill:none;stroke-width:2.26;stroke-linecap:round;stroke-linejoin:round;stroke:rgb(0%,0%,0%);stroke-opacity:1;stroke-miterlimit:10;" d="M 100.085938 81.473633 L 100.085938 93.911133 " transform="matrix(1,0,0,-1,0,189.008789)"/>
<path style="fill:none;stroke-width:1.41;stroke-linecap:round;stroke-linejoin:round;stroke:rgb(0%,0%,0%);stroke-opacity:1;stroke-miterlimit:10;" d="M 120.570312 71.012695 L 120.390625 71.188477 L 120.121094 71.407227 L 119.492188 71.848633 L 118.773438 72.110352 L 118.054688 71.977539 L 117.605469 71.407227 L 117.605469 70.442383 L 118.234375 69.254883 L 119.222656 68.024414 L 120.03125 66.750977 L 120.300781 65.563477 L 119.941406 64.551758 L 119.132812 63.981445 L 118.234375 63.891602 L 117.695312 64.157227 L 117.246094 64.594727 L 117.15625 65.036133 L 117.066406 65.430664 " transform="matrix(1,0,0,-1,0,189.008789)"/>
<path style="fill:none;stroke-width:1.41;stroke-linecap:round;stroke-linejoin:round;stroke:rgb(0%,0%,0%);stroke-opacity:1;stroke-miterlimit:10;" d="M 123.175781 77.473633 L 123.175781 74.969727 L 123.265625 72.90332 L 123.265625 67.188477 L 123.355469 65.477539 L 123.804688 64.024414 L 124.433594 62.969727 L 125.242188 62.708008 L 125.960938 62.793945 L 126.320312 63.368164 " transform="matrix(1,0,0,-1,0,189.008789)"/>
<path style="fill:none;stroke-width:1.41;stroke-linecap:round;stroke-linejoin:round;stroke:rgb(0%,0%,0%);stroke-opacity:1;stroke-miterlimit:10;" d="M 121.46875 69.430664 L 121.289062 69.696289 L 121.738281 70.000977 L 122.457031 70.133789 L 123.265625 70.133789 L 124.34375 70.219727 L 125.242188 70.352539 L 125.871094 70.485352 L 126.5 70.704102 " transform="matrix(1,0,0,-1,0,189.008789)"/>
<path style="fill:none;stroke-width:1.41;stroke-linecap:round;stroke-linejoin:round;stroke:rgb(0%,0%,0%);stroke-opacity:1;stroke-miterlimit:10;" d="M 127.757812 70.09082 L 127.9375 68.946289 L 128.296875 67.321289 L 128.65625 65.520508 L 128.925781 63.938477 L 128.925781 63.27832 L 128.566406 63.805664 L 128.296875 65.211914 L 128.296875 67.102539 L 128.566406 68.90332 L 129.105469 70.266602 L 129.644531 71.055664 L 130.183594 71.540039 " transform="matrix(1,0,0,-1,0,189.008789)"/>
<path style="fill:none;stroke-width:1.41;stroke-linecap:round;stroke-linejoin:round;stroke:rgb(0%,0%,0%);stroke-opacity:1;stroke-miterlimit:10;" d="M 131.890625 73.12207 L 131.980469 73.34082 " transform="matrix(1,0,0,-1,0,189.008789)"/>
<path style="fill:none;stroke-width:1.41;stroke-linecap:round;stroke-linejoin:round;stroke:rgb(0%,0%,0%);stroke-opacity:1;stroke-miterlimit:10;" d="M 133.328125 69.782227 L 133.328125 68.90332 L 133.238281 68.024414 L 133.148438 66.750977 L 133.148438 64.157227 L 133.238281 63.27832 " transform="matrix(1,0,0,-1,0,189.008789)"/>
<path style="fill:none;stroke-width:1.41;stroke-linecap:round;stroke-linejoin:round;stroke:rgb(0%,0%,0%);stroke-opacity:1;stroke-miterlimit:10;" d="M 136.113281 63.102539 L 136.203125 63.368164 L 136.023438 64.333008 L 136.203125 65.915039 L 136.742188 67.672852 L 137.460938 69.12207 L 138.179688 69.606445 L 138.898438 68.551758 L 139.4375 66.750977 L 139.796875 64.860352 L 140.066406 63.05957 L 140.15625 62.266602 " transform="matrix(1,0,0,-1,0,189.008789)"/>
<path style="fill:none;stroke-width:1.41;stroke-linecap:round;stroke-linejoin:round;stroke:rgb(0%,0%,0%);stroke-opacity:1;stroke-miterlimit:10;" d="M 142.3125 67.188477 L 141.953125 67.71582 L 141.59375 67.71582 L 141.234375 67.27832 L 141.144531 66.399414 L 141.414062 64.946289 L 141.953125 63.805664 L 142.761719 63.321289 L 143.660156 63.321289 L 144.199219 64.024414 L 144.558594 65.036133 L 144.558594 65.87207 L 144.46875 66.836914 L 144.378906 67.586914 L 144.289062 68.024414 L 144.289062 67.629883 L 144.46875 65.782227 L 144.738281 62.969727 L 144.738281 59.192383 L 144.289062 55.719727 L 143.300781 53.610352 L 142.132812 52.774414 L 141.144531 53.301758 L 140.335938 54.750977 " transform="matrix(1,0,0,-1,0,189.008789)"/>
<path style="fill:none;stroke-width:1.41;stroke-linecap:round;stroke-linejoin:round;stroke:rgb(0%,0%,0%);stroke-opacity:1;stroke-miterlimit:10;" d="M 145.457031 68.90332 L 145.457031 68.461914 L 145.546875 67.629883 L 145.726562 66.575195 L 145.90625 65.344727 L 145.996094 64.68457 L 146.535156 64.024414 L 147.253906 63.848633 L 148.152344 64.114258 L 149.050781 64.641602 L 149.589844 66.047852 L 149.859375 67.49707 L 149.949219 68.461914 L 149.949219 69.036133 L 149.949219 68.68457 L 150.039062 67.805664 L 150.21875 66.926758 L 150.398438 65.87207 L 150.9375 64.68457 L 151.296875 63.719727 L 151.746094 63.188477 L 152.195312 63.540039 " transform="matrix(1,0,0,-1,0,189.008789)"/>
<path style="fill:none;stroke-width:1.41;stroke-linecap:round;stroke-linejoin:round;stroke:rgb(0%,0%,0%);stroke-opacity:1;stroke-miterlimit:10;" d="M 153.363281 77.473633 L 153.453125 77.165039 L 153.632812 76.504883 L 153.722656 74.438477 L 153.722656 68.418945 L 153.902344 65.387695 L 154.171875 63.672852 L 154.890625 62.969727 L 155.519531 63.016602 L 156.148438 63.27832 L 156.597656 63.981445 " transform="matrix(1,0,0,-1,0,189.008789)"/>
<path style="fill:none;stroke-width:1.41;stroke-linecap:round;stroke-linejoin:round;stroke:rgb(0%,0%,0%);stroke-opacity:1;stroke-miterlimit:10;" d="M 151.65625 69.739258 L 152.015625 70.399414 L 152.734375 70.922852 L 153.902344 71.407227 L 155.25 71.49707 L 155.96875 71.540039 L 156.777344 71.71582 " transform="matrix(1,0,0,-1,0,189.008789)"/>
<path style="fill:none;stroke-width:1.41;stroke-linecap:round;stroke-linejoin:round;stroke:rgb(0%,0%,0%);stroke-opacity:1;stroke-miterlimit:10;" d="M 158.035156 73.165039 L 158.214844 73.563477 L 158.304688 73.782227 " transform="matrix(1,0,0,-1,0,189.008789)"/>
<path style="fill:none;stroke-width:1.41;stroke-linecap:round;stroke-linejoin:round;stroke:rgb(0%,0%,0%);stroke-opacity:1;stroke-miterlimit:10;" d="M 158.84375 70.442383 L 158.84375 68.594727 L 159.023438 66.618164 L 159.203125 64.594727 L 159.382812 62.883789 L 159.5625 62.223633 " transform="matrix(1,0,0,-1,0,189.008789)"/>
<path style="fill:none;stroke-width:1.41;stroke-linecap:round;stroke-linejoin:round;stroke:rgb(0%,0%,0%);stroke-opacity:1;stroke-miterlimit:10;" d="M 162.257812 77.430664 L 162.167969 77.868164 L 162.167969 76.899414 L 162.347656 74.571289 L 162.4375 71.188477 L 162.4375 64.594727 L 162.347656 62.969727 L 162.347656 62.618164 " transform="matrix(1,0,0,-1,0,189.008789)"/>
<path style="fill:none;stroke-width:1.41;stroke-linecap:round;stroke-linejoin:round;stroke:rgb(0%,0%,0%);stroke-opacity:1;stroke-miterlimit:10;" d="M 168.007812 69.868164 L 168.007812 70.836914 L 167.917969 71.672852 L 167.828125 72.243164 L 167.558594 72.680664 L 167.199219 73.032227 L 166.929688 73.165039 L 166.390625 73.34082 L 165.761719 73.079102 L 165.132812 72.680664 L 164.59375 71.848633 L 164.59375 70.618164 L 165.492188 69.387695 L 168.1875 66.661133 L 168.816406 65.520508 L 168.457031 64.46582 L 167.46875 63.805664 L 166.300781 63.629883 L 165.402344 63.981445 " transform="matrix(1,0,0,-1,0,189.008789)"/>
<path style="fill:none;stroke-width:1.41;stroke-linecap:round;stroke-linejoin:round;stroke:rgb(0%,0%,0%);stroke-opacity:1;stroke-miterlimit:10;" d="M 171.960938 67.981445 L 171.691406 67.981445 L 172.589844 67.981445 L 173.847656 67.938477 L 175.914062 67.848633 L 176.183594 67.891602 " transform="matrix(1,0,0,-1,0,189.008789)"/>
<path style="fill:none;stroke-width:1.41;stroke-linecap:round;stroke-linejoin:round;stroke:rgb(0%,0%,0%);stroke-opacity:1;stroke-miterlimit:10;" d="M 176.632812 72.418945 L 176.542969 72.727539 L 176.542969 72.989258 L 176.8125 73.079102 L 177.351562 72.594727 " transform="matrix(1,0,0,-1,0,189.008789)"/>
<path style="fill:none;stroke-width:1.41;stroke-linecap:round;stroke-linejoin:round;stroke:rgb(0%,0%,0%);stroke-opacity:1;stroke-miterlimit:10;" d="M 178.070312 69.079102 L 178.070312 67.848633 L 178.160156 66.266602 L 178.339844 64.727539 L 178.429688 63.49707 L 178.609375 62.836914 " transform="matrix(1,0,0,-1,0,189.008789)"/>
<path style="fill:none;stroke-width:1.41;stroke-linecap:round;stroke-linejoin:round;stroke:rgb(0%,0%,0%);stroke-opacity:1;stroke-miterlimit:10;" d="M 181.035156 64.46582 L 180.945312 65.211914 L 181.125 66.399414 L 181.394531 67.758789 L 181.933594 68.90332 L 182.742188 69.12207 L 183.550781 68.418945 L 184.179688 67.102539 L 184.808594 65.430664 L 185.078125 64.114258 L 185.167969 63.27832 " transform="matrix(1,0,0,-1,0,189.008789)"/>
<path style="fill:none;stroke-width:1.41;stroke-linecap:round;stroke-linejoin:round;stroke:rgb(0%,0%,0%);stroke-opacity:1;stroke-miterlimit:10;" d="M 189.75 66.618164 L 189.570312 66.836914 L 189.480469 67.27832 L 189.300781 67.629883 L 189.121094 67.891602 L 188.492188 68.067383 L 187.863281 67.981445 L 187.234375 67.629883 L 186.605469 67.055664 L 186.335938 66.442383 L 186.246094 65.344727 L 186.515625 64.157227 L 187.324219 63.321289 L 188.402344 63.05957 L 189.390625 63.672852 L 190.199219 64.817383 L 190.648438 66.09082 L 190.828125 67.27832 L 190.648438 69.430664 L 190.289062 71.848633 L 189.839844 73.692383 L 189.480469 74.922852 L 189.390625 74.618164 L 189.570312 73.34082 L 190.019531 71.540039 L 190.648438 69.344727 L 191.367188 66.883789 L 192.085938 64.860352 L 192.714844 63.981445 " transform="matrix(1,0,0,-1,0,189.008789)"/>
<path style="fill:none;stroke-width:1.41;stroke-linecap:round;stroke-linejoin:round;stroke:rgb(0%,0%,0%);stroke-opacity:1;stroke-miterlimit:10;" d="M 194.421875 66.30957 L 194.601562 66.575195 L 195.140625 67.012695 L 195.859375 67.586914 L 196.578125 68.067383 L 197.027344 68.551758 L 197.207031 68.90332 L 197.027344 69.430664 L 196.578125 70.09082 L 195.859375 70.442383 L 194.78125 70.047852 L 193.882812 69.254883 L 193.253906 67.938477 L 193.253906 66.266602 L 193.882812 64.817383 L 194.691406 63.411133 L 195.5 62.399414 L 196.21875 62.047852 L 196.9375 62.708008 " transform="matrix(1,0,0,-1,0,189.008789)"/>
<path style="fill:none;stroke-width:1.41;stroke-linecap:round;stroke-linejoin:round;stroke:rgb(0%,0%,0%);stroke-opacity:1;stroke-miterlimit:10;" d="M 202.957031 73.692383 L 202.957031 74.266602 L 202.867188 74.74707 L 202.6875 75.188477 L 202.238281 75.583008 L 201.429688 75.844727 L 200.621094 75.71582 L 199.992188 75.188477 L 199.632812 74.395508 L 199.542969 73.473633 L 199.8125 71.93457 L 200.261719 69.696289 L 200.800781 66.926758 L 201.25 64.243164 L 201.519531 62.399414 L 201.519531 61.387695 L 201.429688 61.125977 L 200.980469 61.211914 " transform="matrix(1,0,0,-1,0,189.008789)"/>
<path style="fill:none;stroke-width:1.41;stroke-linecap:round;stroke-linejoin:round;stroke:rgb(0%,0%,0%);stroke-opacity:1;stroke-miterlimit:10;" d="M 198.734375 66.09082 L 199.273438 66.442383 L 200.441406 66.704102 L 201.609375 66.883789 L 202.777344 67.055664 L 203.585938 67.188477 " transform="matrix(1,0,0,-1,0,189.008789)"/>
<path style="fill:none;stroke-width:2.26;stroke-linecap:round;stroke-linejoin:round;stroke:rgb(0%,0%,0%);stroke-opacity:1;stroke-miterlimit:10;" d="M 262.164062 169.93457 L 257.089844 169.938477 L 252.011719 169.942383 L 246.9375 169.950195 L 241.859375 169.954102 L 236.785156 169.958008 L 231.707031 169.96582 L 226.632812 169.969727 L 221.554688 169.973633 L 216.480469 169.981445 L 211.402344 169.985352 L 206.328125 169.989258 L 201.25 169.99707 L 196.175781 170.000977 L 191.097656 170.008789 L 186.023438 170.012695 L 180.945312 170.016602 L 175.871094 170.024414 L 170.792969 170.02832 L 165.71875 170.032227 L 160.640625 170.040039 L 155.566406 170.043945 L 150.488281 170.047852 L 145.414062 170.055664 L 140.335938 170.05957 L 135.261719 170.063477 L 130.183594 170.071289 L 125.109375 170.075195 L 120.03125 170.079102 L 114.957031 170.086914 L 109.878906 170.09082 L 104.804688 170.094727 L 99.726562 170.102539 L 94.652344 170.106445 L 89.574219 170.110352 L 84.5 170.118164 L 79.421875 170.12207 L 74.347656 170.125977 L 69.269531 170.133789 L 64.195312 170.137695 L 59.117188 170.141602 L 54.042969 170.149414 L 48.964844 170.15332 " transform="matrix(1,0,0,-1,0,189.008789)"/>
<path style="fill:none;stroke-width:2.26;stroke-linecap:round;stroke-linejoin:round;stroke:rgb(0%,0%,0%);stroke-opacity:1;stroke-miterlimit:10;" d="M 52.378906 14.063477 L 62.535156 13.899414 L 67.609375 13.817383 L 77.765625 13.65332 L 82.84375 13.575195 L 87.917969 13.493164 L 108.230469 13.165039 L 113.304688 13.086914 L 128.539062 12.84082 L 133.613281 12.758789 L 143.769531 12.594727 L 148.847656 12.516602 L 153.925781 12.43457 L 159 12.352539 L 179.3125 12.024414 L 184.386719 11.946289 L 199.621094 11.700195 L 204.695312 11.618164 L 214.851562 11.454102 L 219.929688 11.375977 L 225.007812 11.293945 L 230.082031 11.211914 L 245.316406 10.96582 L 250.390625 10.883789 L 255.46875 10.805664 L 260.546875 10.723633 " transform="matrix(1,0,0,-1,0,189.008789)"/>
<path style="fill:none;stroke-width:2.26;stroke-linecap:round;stroke-linejoin:round;stroke:rgb(0%,0%,0%);stroke-opacity:1;stroke-miterlimit:10;" d="M 260.457031 11.383789 L 260.53125 16.473633 L 260.601562 21.567383 L 260.675781 26.661133 L 260.746094 31.754883 L 260.820312 36.848633 L 260.890625 41.942383 L 260.964844 47.036133 L 261.035156 52.129883 L 261.109375 57.223633 L 261.179688 62.317383 L 261.253906 67.411133 L 261.328125 72.500977 L 261.398438 77.594727 L 261.472656 82.688477 L 261.542969 87.782227 L 261.617188 92.875977 L 261.6875 97.969727 L 261.761719 103.063477 L 261.832031 108.157227 L 261.980469 118.344727 L 262.050781 123.438477 L 262.125 128.52832 L 262.195312 133.62207 L 262.269531 138.71582 L 262.339844 143.80957 L 262.414062 148.90332 L 262.484375 153.99707 L 262.558594 159.09082 L 262.628906 164.18457 L 262.703125 169.27832 " transform="matrix(1,0,0,-1,0,189.008789)"/>
<path style="fill:none;stroke-width:1.41;stroke-linecap:round;stroke-linejoin:round;stroke:rgb(0%,0%,0%);stroke-opacity:1;stroke-miterlimit:10;" d="M 196.9375 24.125977 L 197.386719 24.258789 L 198.195312 24.344727 L 199.003906 24.477539 L 199.632812 24.610352 L 200.082031 24.696289 " transform="matrix(1,0,0,-1,0,189.008789)"/>
<path style="fill:none;stroke-width:1.41;stroke-linecap:round;stroke-linejoin:round;stroke:rgb(0%,0%,0%);stroke-opacity:1;stroke-miterlimit:10;" d="M 206.730469 27.375977 L 206.28125 27.727539 L 205.652344 28.125977 L 204.84375 28.258789 L 203.945312 27.993164 L 203.226562 27.422852 L 202.867188 26.629883 L 203.316406 25.883789 L 204.304688 25.266602 L 205.472656 24.520508 L 206.460938 23.46582 L 206.640625 22.368164 L 205.742188 21.532227 L 204.304688 21.313477 L 203.136719 21.532227 L 202.238281 22.05957 L 202.058594 22.719727 " transform="matrix(1,0,0,-1,0,189.008789)"/>
<path style="fill:none;stroke-width:1.41;stroke-linecap:round;stroke-linejoin:round;stroke:rgb(0%,0%,0%);stroke-opacity:1;stroke-miterlimit:10;" d="M 210.773438 31.594727 L 210.773438 31.860352 L 210.773438 28.344727 L 210.683594 26.192383 L 210.683594 23.24707 L 210.773438 22.633789 L 210.863281 22.149414 L 211.132812 21.708008 L 211.671875 21.532227 L 212.300781 21.62207 L 213.019531 21.84082 L 213.46875 22.282227 L 213.738281 22.805664 " transform="matrix(1,0,0,-1,0,189.008789)"/>
<path style="fill:none;stroke-width:1.41;stroke-linecap:round;stroke-linejoin:round;stroke:rgb(0%,0%,0%);stroke-opacity:1;stroke-miterlimit:10;" d="M 209.15625 26.454102 L 209.605469 26.672852 L 210.683594 26.938477 L 211.941406 27.157227 L 213.109375 27.333008 L 213.828125 27.333008 L 214.457031 27.290039 " transform="matrix(1,0,0,-1,0,189.008789)"/>
<path style="fill:none;stroke-width:1.41;stroke-linecap:round;stroke-linejoin:round;stroke:rgb(0%,0%,0%);stroke-opacity:1;stroke-miterlimit:10;" d="M 216.433594 26.805664 L 216.253906 26.192383 L 216.34375 25.094727 L 216.703125 23.688477 L 217.152344 22.325195 L 217.421875 21.532227 L 217.152344 22.719727 L 217.152344 24.43457 L 217.601562 26.192383 L 218.230469 27.860352 L 219.039062 28.65332 L 220.027344 28.87207 " transform="matrix(1,0,0,-1,0,189.008789)"/>
<path style="fill:none;stroke-width:1.41;stroke-linecap:round;stroke-linejoin:round;stroke:rgb(0%,0%,0%);stroke-opacity:1;stroke-miterlimit:10;" d="M 222.363281 30.05957 L 222.273438 30.27832 L 222.183594 29.969727 " transform="matrix(1,0,0,-1,0,189.008789)"/>
<path style="fill:none;stroke-width:1.41;stroke-linecap:round;stroke-linejoin:round;stroke:rgb(0%,0%,0%);stroke-opacity:1;stroke-miterlimit:10;" d="M 222.453125 26.586914 L 222.363281 25.618164 L 222.363281 22.895508 L 222.632812 21.797852 L 222.8125 21.094727 L 223.082031 21.094727 " transform="matrix(1,0,0,-1,0,189.008789)"/>
<path style="fill:none;stroke-width:1.41;stroke-linecap:round;stroke-linejoin:round;stroke:rgb(0%,0%,0%);stroke-opacity:1;stroke-miterlimit:10;" d="M 226.226562 21.356445 L 225.957031 22.05957 L 225.957031 23.290039 L 226.40625 24.961914 L 227.125 26.411133 L 227.933594 27.375977 L 228.742188 27.46582 L 229.371094 26.629883 L 229.820312 25.094727 L 230.089844 23.555664 L 230.269531 22.192383 L 230.269531 21.180664 " transform="matrix(1,0,0,-1,0,189.008789)"/>
<path style="fill:none;stroke-width:1.41;stroke-linecap:round;stroke-linejoin:round;stroke:rgb(0%,0%,0%);stroke-opacity:1;stroke-miterlimit:10;" d="M 237.457031 26.016602 L 237.277344 26.805664 L 236.917969 27.598633 L 236.199219 27.860352 L 235.300781 27.555664 L 234.492188 26.411133 L 233.863281 24.87207 L 233.953125 23.422852 L 234.671875 22.368164 L 235.75 21.973633 L 237.007812 22.454102 L 237.90625 23.422852 L 238.535156 24.563477 L 238.625 25.750977 L 238.535156 26.629883 L 238.355469 27.204102 L 238.175781 27.508789 L 238.175781 26.938477 L 238.265625 26.149414 L 238.535156 25.004883 L 238.714844 23.290039 L 238.714844 21.356445 L 238.535156 19.336914 L 237.816406 17.532227 L 236.46875 16.524414 L 235.121094 16.21582 L 234.042969 16.305664 L 233.054688 17.008789 " transform="matrix(1,0,0,-1,0,189.008789)"/>
<path style="fill:none;stroke-width:1.41;stroke-linecap:round;stroke-linejoin:round;stroke:rgb(0%,0%,0%);stroke-opacity:1;stroke-miterlimit:10;" d="M 174.925781 33.047852 L 174.925781 30.05957 L 174.835938 27.598633 L 174.835938 25.004883 L 174.925781 22.633789 L 175.285156 21.094727 L 175.824219 20.301758 L 176.8125 20.040039 L 177.710938 20.083008 L 178.519531 20.301758 L 178.96875 20.477539 " transform="matrix(1,0,0,-1,0,189.008789)"/>
<path style="fill:none;stroke-width:1.41;stroke-linecap:round;stroke-linejoin:round;stroke:rgb(0%,0%,0%);stroke-opacity:1;stroke-miterlimit:10;" d="M 170.882812 27.333008 L 171.421875 27.555664 L 172.589844 27.774414 L 174.207031 27.950195 L 175.734375 28.036133 L 176.902344 28.125977 L 177.621094 28.258789 L 177.980469 28.301758 " transform="matrix(1,0,0,-1,0,189.008789)"/>
<path style="fill:none;stroke-width:1.41;stroke-linecap:round;stroke-linejoin:round;stroke:rgb(0%,0%,0%);stroke-opacity:1;stroke-miterlimit:10;" d="M 179.957031 26.895508 L 179.957031 24.915039 L 180.226562 23.290039 L 180.496094 21.883789 L 180.945312 21.356445 L 181.394531 22.016602 L 181.753906 23.204102 L 182.292969 24.083008 L 182.921875 24.125977 L 183.371094 23.508789 L 183.910156 22.500977 L 184.269531 21.665039 L 184.449219 21.094727 L 184.71875 21.004883 L 185.078125 21.62207 L 185.527344 22.762695 L 185.976562 24.168945 L 186.335938 25.313477 L 186.515625 25.883789 L 186.695312 26.102539 L 186.964844 26.05957 " transform="matrix(1,0,0,-1,0,189.008789)"/>
<path style="fill:none;stroke-width:1.41;stroke-linecap:round;stroke-linejoin:round;stroke:rgb(0%,0%,0%);stroke-opacity:1;stroke-miterlimit:10;" d="M 190.109375 25.094727 L 189.929688 25.313477 L 189.390625 25.223633 L 188.941406 24.829102 L 188.492188 24.344727 L 188.042969 23.598633 L 187.773438 22.895508 L 187.59375 22.235352 L 187.503906 21.532227 L 187.773438 20.786133 L 188.3125 20.21582 L 189.390625 19.950195 L 190.648438 19.950195 L 191.726562 20.344727 L 192.445312 20.829102 L 192.625 21.227539 L 192.625 21.665039 L 192.445312 22.454102 L 191.996094 23.422852 L 191.367188 24.344727 L 190.648438 25.180664 L 190.109375 25.532227 L 189.75 25.665039 " transform="matrix(1,0,0,-1,0,189.008789)"/>
<path style="fill:none;stroke-width:2.26;stroke-linecap:round;stroke-linejoin:round;stroke:rgb(0%,0%,0%);stroke-opacity:1;stroke-miterlimit:10;" d="M 48.785156 171.516602 L 48.941406 166.125977 L 49.097656 160.731445 L 49.257812 155.336914 L 49.414062 149.942383 " transform="matrix(1,0,0,-1,0,189.008789)"/>
<path style="fill:none;stroke-width:2.26;stroke-linecap:round;stroke-linejoin:round;stroke:rgb(0%,0%,0%);stroke-opacity:1;stroke-miterlimit:10;" d="M 49.503906 149.985352 L 55.792969 149.547852 " transform="matrix(1,0,0,-1,0,189.008789)"/>
<path style="fill:none;stroke-width:2.26;stroke-linecap:round;stroke-linejoin:round;stroke:rgb(0%,0%,0%);stroke-opacity:1;stroke-miterlimit:10;" d="M 56.601562 149.196289 L 56.582031 143.954102 L 56.566406 138.719727 L 56.546875 133.477539 L 56.53125 128.243164 L 56.511719 123.000977 " transform="matrix(1,0,0,-1,0,189.008789)"/>
<path style="fill:none;stroke-width:2.26;stroke-linecap:round;stroke-linejoin:round;stroke:rgb(0%,0%,0%);stroke-opacity:1;stroke-miterlimit:10;" d="M 56.511719 122.829102 L 49.773438 122.477539 " transform="matrix(1,0,0,-1,0,189.008789)"/>
<path style="fill:none;stroke-width:2.26;stroke-linecap:round;stroke-linejoin:round;stroke:rgb(0%,0%,0%);stroke-opacity:1;stroke-miterlimit:10;" d="M 49.773438 122.168945 L 50.089844 117.047852 L 50.402344 111.930664 L 50.71875 106.80957 L 51.03125 101.688477 L 51.347656 96.571289 L 51.660156 91.450195 " transform="matrix(1,0,0,-1,0,189.008789)"/>
<path style="fill:none;stroke-width:2.26;stroke-linecap:round;stroke-linejoin:round;stroke:rgb(0%,0%,0%);stroke-opacity:1;stroke-miterlimit:10;" d="M 51.390625 90.438477 L 57.949219 89.911133 " transform="matrix(1,0,0,-1,0,189.008789)"/>
<path style="fill:none;stroke-width:2.26;stroke-linecap:round;stroke-linejoin:round;stroke:rgb(0%,0%,0%);stroke-opacity:1;stroke-miterlimit:10;" d="M 58.398438 89.782227 L 58.453125 84.567383 L 58.507812 79.356445 L 58.558594 74.145508 L 58.613281 68.930664 L 58.667969 63.719727 " transform="matrix(1,0,0,-1,0,189.008789)"/>
<path style="fill:none;stroke-width:2.26;stroke-linecap:round;stroke-linejoin:round;stroke:rgb(0%,0%,0%);stroke-opacity:1;stroke-miterlimit:10;" d="M 58.398438 63.586914 L 51.75 64.204102 " transform="matrix(1,0,0,-1,0,189.008789)"/>
<path style="fill:none;stroke-width:2.26;stroke-linecap:round;stroke-linejoin:round;stroke:rgb(0%,0%,0%);stroke-opacity:1;stroke-miterlimit:10;" d="M 51.75 63.633789 L 52.03125 52.625977 L 52.167969 47.125977 L 52.589844 30.614258 L 52.726562 25.110352 L 52.867188 19.610352 L 53.007812 14.106445 " transform="matrix(1,0,0,-1,0,189.008789)"/>
<path style="fill:none;stroke-width:2.26;stroke-linecap:round;stroke-linejoin:round;stroke:rgb(0%,0%,0%);stroke-opacity:1;stroke-miterlimit:10;" d="M 41.058594 134.250977 L 41.597656 133.989258 L 42.765625 134.032227 L 44.652344 134.079102 L 47.257812 134.165039 L 49.863281 134.208008 L 52.289062 134.165039 L 57.140625 134.165039 L 59.746094 134.208008 L 62.890625 134.383789 L 65.765625 134.473633 L 68.460938 134.649414 L 71.425781 134.735352 L 74.121094 134.868164 L 76.996094 135.043945 L 79.691406 135.133789 L 82.117188 135.176758 L 84.363281 135.262695 L 86.609375 135.395508 L 88.765625 135.52832 L 90.5625 135.614258 L 92.089844 135.657227 L 97.121094 135.657227 L 98.558594 135.614258 L 101.972656 135.614258 L 102.242188 135.657227 L 102.511719 135.657227 L 102.871094 135.571289 L 103.140625 135.571289 L 103.410156 135.485352 L 103.679688 135.485352 L 104.128906 135.438477 L 104.398438 135.438477 " transform="matrix(1,0,0,-1,0,189.008789)"/>
<path style="fill:none;stroke-width:2.26;stroke-linecap:round;stroke-linejoin:round;stroke:rgb(0%,0%,0%);stroke-opacity:1;stroke-miterlimit:10;" d="M 44.292969 77.915039 L 45.28125 77.696289 L 46.808594 77.649414 L 49.144531 77.606445 L 52.46875 77.520508 L 56.421875 77.520508 L 60.734375 77.606445 L 65.046875 77.696289 L 68.460938 77.829102 L 70.976562 77.915039 L 72.503906 78.047852 L 73.671875 78.047852 L 74.121094 78.000977 L 74.75 77.958008 L 75.289062 77.915039 L 76.007812 77.915039 L 76.277344 78.000977 " transform="matrix(1,0,0,-1,0,189.008789)"/>
<path style="fill:none;stroke-width:2.26;stroke-linecap:round;stroke-linejoin:round;stroke:rgb(0%,0%,0%);stroke-opacity:1;stroke-miterlimit:10;" d="M 77.175781 78.532227 L 77.175781 78.133789 L 77.355469 77.211914 L 77.535156 75.672852 L 77.714844 73.477539 L 77.804688 71.27832 L 77.804688 69.391602 L 77.894531 67.938477 L 77.984375 67.235352 L 77.984375 66.883789 " transform="matrix(1,0,0,-1,0,189.008789)"/>
<path style="fill:none;stroke-width:2.26;stroke-linecap:round;stroke-linejoin:round;stroke:rgb(0%,0%,0%);stroke-opacity:1;stroke-miterlimit:10;" d="M 77.894531 66.930664 L 78.253906 66.973633 L 78.613281 66.883789 L 79.242188 66.797852 L 80.410156 66.797852 L 83.015625 66.84082 L 86.429688 67.05957 L 90.203125 67.325195 L 93.976562 67.500977 L 96.492188 67.543945 L 98.109375 67.543945 L 99.367188 67.633789 L 100.714844 67.762695 L 102.511719 67.985352 L 104.488281 68.204102 L 106.105469 68.379883 L 107.09375 68.46582 L 107.632812 68.508789 " transform="matrix(1,0,0,-1,0,189.008789)"/>
<path style="fill:none;stroke-width:1.41;stroke-linecap:round;stroke-linejoin:round;stroke:rgb(0%,0%,0%);stroke-opacity:1;stroke-miterlimit:10;" d="M 18.417969 139.481445 L 18.6875 139.657227 L 18.777344 139.875977 L 18.597656 140.227539 L 18.148438 140.668945 L 17.070312 141.063477 L 15.722656 141.110352 L 14.375 140.758789 L 13.476562 139.922852 L 13.386719 138.735352 L 14.105469 137.504883 L 15.632812 136.231445 L 17.429688 135.133789 L 18.867188 134.297852 L 19.765625 133.547852 L 19.945312 132.93457 L 19.585938 132.274414 L 19.046875 131.618164 L 18.238281 131.000977 L 17.070312 130.606445 L 15.8125 130.606445 L 14.644531 130.735352 L 13.566406 131.043945 L 12.757812 131.571289 L 12.488281 132.055664 " transform="matrix(1,0,0,-1,0,189.008789)"/>
<path style="fill:none;stroke-width:1.41;stroke-linecap:round;stroke-linejoin:round;stroke:rgb(0%,0%,0%);stroke-opacity:1;stroke-miterlimit:10;" d="M 22.910156 140.227539 L 23.089844 140.450195 L 23.179688 139.96582 L 23.179688 138.469727 L 23.089844 136.231445 L 22.910156 133.727539 L 23.089844 131.661133 L 23.71875 130.606445 L 24.707031 130.297852 L 25.695312 130.473633 L 26.414062 130.649414 L 26.773438 130.915039 L 26.773438 131.266602 L 26.683594 131.571289 " transform="matrix(1,0,0,-1,0,189.008789)"/>
<path style="fill:none;stroke-width:1.41;stroke-linecap:round;stroke-linejoin:round;stroke:rgb(0%,0%,0%);stroke-opacity:1;stroke-miterlimit:10;" d="M 20.574219 135.262695 L 20.574219 135.52832 L 21.113281 135.790039 L 22.460938 136.008789 L 24.078125 136.317383 L 25.605469 136.493164 L 26.683594 136.668945 L 27.132812 136.758789 L 27.402344 136.844727 " transform="matrix(1,0,0,-1,0,189.008789)"/>
<path style="fill:none;stroke-width:1.41;stroke-linecap:round;stroke-linejoin:round;stroke:rgb(0%,0%,0%);stroke-opacity:1;stroke-miterlimit:10;" d="M 29.019531 134.782227 L 29.109375 134.032227 L 29.289062 132.844727 L 29.46875 131.571289 L 29.648438 130.606445 L 29.648438 130.165039 L 29.558594 130.825195 L 29.738281 132.098633 L 30.367188 133.637695 L 31.355469 134.735352 L 32.164062 135.352539 L 32.882812 135.395508 L 33.242188 135.133789 L 33.421875 134.911133 L 33.601562 134.602539 " transform="matrix(1,0,0,-1,0,189.008789)"/>
<path style="fill:none;stroke-width:1.41;stroke-linecap:round;stroke-linejoin:round;stroke:rgb(0%,0%,0%);stroke-opacity:1;stroke-miterlimit:10;" d="M 19.945312 80.110352 L 19.675781 80.946289 L 18.6875 81.825195 L 17.339844 82.571289 L 15.722656 82.661133 L 14.285156 82.176758 L 13.566406 81.297852 L 13.835938 80.290039 L 15.09375 79.145508 L 16.800781 78.047852 L 18.328125 76.860352 L 18.867188 75.540039 L 18.507812 74.485352 L 17.429688 73.782227 L 15.632812 73.610352 L 14.015625 74.223633 L 12.488281 74.969727 L 11.320312 75.848633 L 10.871094 76.551758 L 10.960938 76.946289 L 11.230469 77.254883 " transform="matrix(1,0,0,-1,0,189.008789)"/>
<path style="fill:none;stroke-width:1.41;stroke-linecap:round;stroke-linejoin:round;stroke:rgb(0%,0%,0%);stroke-opacity:1;stroke-miterlimit:10;" d="M 22.640625 82.52832 L 22.820312 82.352539 L 22.910156 81.473633 L 22.910156 79.672852 L 22.820312 77.168945 L 22.820312 74.883789 L 23.269531 73.344727 L 24.078125 72.641602 L 25.066406 72.727539 L 25.875 73.036133 L 26.414062 73.344727 L 26.503906 73.610352 " transform="matrix(1,0,0,-1,0,189.008789)"/>
<path style="fill:none;stroke-width:1.41;stroke-linecap:round;stroke-linejoin:round;stroke:rgb(0%,0%,0%);stroke-opacity:1;stroke-miterlimit:10;" d="M 21.203125 76.68457 L 21.023438 76.946289 L 21.382812 77.254883 L 22.640625 77.606445 L 24.078125 77.87207 L 25.515625 78.047852 L 26.59375 78.133789 L 26.953125 78.133789 " transform="matrix(1,0,0,-1,0,189.008789)"/>
<path style="fill:none;stroke-width:1.41;stroke-linecap:round;stroke-linejoin:round;stroke:rgb(0%,0%,0%);stroke-opacity:1;stroke-miterlimit:10;" d="M 28.03125 76.946289 L 28.121094 76.290039 L 28.570312 75.102539 L 29.019531 74.09082 L 29.378906 73.125977 L 29.558594 72.555664 L 29.289062 73.258789 L 29.109375 74.575195 L 29.289062 76.46582 L 29.648438 78.180664 L 30.457031 79.407227 L 31.355469 79.981445 L 32.074219 79.891602 L 32.972656 79.672852 " transform="matrix(1,0,0,-1,0,189.008789)"/>
<path style="fill:none;stroke-width:1.41;stroke-linecap:round;stroke-linejoin:round;stroke:rgb(0%,0%,0%);stroke-opacity:1;stroke-miterlimit:10;" d="M 34.679688 79.981445 L 34.679688 80.68457 L 35.128906 81.563477 L 36.207031 82.219727 L 37.285156 82.352539 L 38.273438 81.915039 L 38.722656 80.770508 L 38.363281 79.235352 L 37.464844 77.387695 L 36.386719 75.719727 L 35.128906 74.313477 L 34.140625 73.387695 L 33.691406 72.860352 L 33.871094 72.641602 L 34.859375 72.817383 L 36.386719 73.125977 L 37.734375 73.387695 L 38.722656 73.520508 L 39.171875 73.477539 L 39.351562 73.168945 " transform="matrix(1,0,0,-1,0,189.008789)"/>
</g>
</svg>
