<?xml version="1.0" encoding="UTF-8"?>
<svg xmlns="http://www.w3.org/2000/svg" xmlns:xlink="http://www.w3.org/1999/xlink" width="398.546875pt" height="282.588867pt" viewBox="0 0 398.546875 282.588867" version="1.1">
<g id="surface1">
<path style="fill:none;stroke-width:2.26;stroke-linecap:round;stroke-linejoin:round;stroke:rgb(0%,0%,0%);stroke-opacity:1;stroke-miterlimit:10;" d="M 83.105469 200.413086 L 83.195312 200.721679 L 83.554688 200.807617 L 83.734375 200.502929 L 83.644531 199.975586 L 83.195312 199.534179 L 82.65625 199.624023 L 82.476562 200.194336 L 82.566406 200.897461 L 83.105469 201.424804 L 83.554688 201.510742 L 83.824219 201.291992 L 84.003906 201.030273 " transform="matrix(1,0,0,-1,0,282.588867)"/>
<path style="fill:none;stroke-width:2.26;stroke-linecap:round;stroke-linejoin:round;stroke:rgb(0%,0%,0%);stroke-opacity:1;stroke-miterlimit:10;" d="M 83.105469 192.592773 L 82.835938 192.635742 L 82.835938 192.944336 L 83.105469 193.295898 L 83.644531 193.381836 L 83.824219 193.120117 L 83.734375 192.678711 L 83.285156 192.284179 L 82.925781 192.416992 L 82.925781 192.811523 L 83.105469 193.073242 L 83.375 193.073242 L 83.464844 192.811523 L 83.375 192.459961 L 83.105469 192.241211 " transform="matrix(1,0,0,-1,0,282.588867)"/>
<path style="fill:none;stroke-width:2.26;stroke-linecap:round;stroke-linejoin:round;stroke:rgb(0%,0%,0%);stroke-opacity:1;stroke-miterlimit:10;" d="M 88.40625 201.249023 L 88.585938 201.510742 L 88.945312 201.690429 L 89.214844 201.467773 L 89.125 200.987304 L 88.765625 200.545898 L 88.226562 200.456054 L 88.046875 200.854492 L 88.226562 201.338867 L 88.585938 201.557617 L 88.855469 201.338867 L 89.035156 201.030273 L 89.035156 199.932617 " transform="matrix(1,0,0,-1,0,282.588867)"/>
<path style="fill:none;stroke-width:2.26;stroke-linecap:round;stroke-linejoin:round;stroke:rgb(0%,0%,0%);stroke-opacity:1;stroke-miterlimit:10;" d="M 88.046875 192.901367 L 87.867188 193.120117 L 88.046875 193.338867 L 88.585938 193.471679 L 89.035156 193.424804 L 89.035156 193.073242 L 88.855469 192.635742 L 88.316406 192.327148 L 87.6875 192.284179 L 87.507812 192.678711 L 87.507812 193.120117 L 87.6875 193.424804 L 87.957031 193.557617 L 88.316406 193.424804 L 88.675781 193.030273 L 88.855469 192.721679 L 89.125 192.370117 " transform="matrix(1,0,0,-1,0,282.588867)"/>
<path style="fill:none;stroke-width:2.26;stroke-linecap:round;stroke-linejoin:round;stroke:rgb(0%,0%,0%);stroke-opacity:1;stroke-miterlimit:10;" d="M 95.144531 200.502929 L 95.234375 200.764648 L 95.863281 200.987304 L 97.210938 201.116211 L 99.097656 201.116211 L 100.984375 201.030273 L 102.421875 200.987304 L 103.230469 200.940429 " transform="matrix(1,0,0,-1,0,282.588867)"/>
<path style="fill:none;stroke-width:2.26;stroke-linecap:round;stroke-linejoin:round;stroke:rgb(0%,0%,0%);stroke-opacity:1;stroke-miterlimit:10;" d="M 95.683594 195.053711 L 96.492188 195.182617 L 98.109375 195.362304 L 99.996094 195.491211 L 101.972656 195.581054 L 103.050781 195.534179 L 103.679688 195.448242 L 103.949219 195.362304 " transform="matrix(1,0,0,-1,0,282.588867)"/>
<path style="fill:none;stroke-width:2.26;stroke-linecap:round;stroke-linejoin:round;stroke:rgb(0%,0%,0%);stroke-opacity:1;stroke-miterlimit:10;" d="M 230.09375 267.506836 L 230.09375 257.135742 " transform="matrix(1,0,0,-1,0,282.588867)"/>
<path style="fill:none;stroke-width:2.26;stroke-linecap:round;stroke-linejoin:round;stroke:rgb(0%,0%,0%);stroke-opacity:1;stroke-miterlimit:10;" d="M 230.09375 257.002929 L 237.460938 257.311523 " transform="matrix(1,0,0,-1,0,282.588867)"/>
<path style="fill:none;stroke-width:2.26;stroke-linecap:round;stroke-linejoin:round;stroke:rgb(0%,0%,0%);stroke-opacity:1;stroke-miterlimit:10;" d="M 237.28125 256.565429 L 237.40625 251.237304 L 237.53125 245.913086 L 237.660156 240.584961 L 237.785156 235.260742 L 237.910156 229.932617 " transform="matrix(1,0,0,-1,0,282.588867)"/>
<path style="fill:none;stroke-width:2.26;stroke-linecap:round;stroke-linejoin:round;stroke:rgb(0%,0%,0%);stroke-opacity:1;stroke-miterlimit:10;" d="M 237.550781 229.846679 L 229.375 229.276367 " transform="matrix(1,0,0,-1,0,282.588867)"/>
<path style="fill:none;stroke-width:2.26;stroke-linecap:round;stroke-linejoin:round;stroke:rgb(0%,0%,0%);stroke-opacity:1;stroke-miterlimit:10;" d="M 342.578125 266.190429 L 337.429688 266.256836 L 332.277344 266.323242 L 327.128906 266.393554 L 321.980469 266.459961 L 316.828125 266.526367 L 311.679688 266.596679 L 306.53125 266.663086 L 301.378906 266.733398 L 291.082031 266.866211 L 285.933594 266.936523 L 280.78125 267.002929 L 275.632812 267.073242 L 270.484375 267.139648 L 265.332031 267.206054 L 260.183594 267.276367 L 255.035156 267.342773 L 249.882812 267.409179 L 244.734375 267.479492 L 239.585938 267.545898 L 234.433594 267.616211 L 229.285156 267.682617 " transform="matrix(1,0,0,-1,0,282.588867)"/>
<path style="fill:none;stroke-width:2.26;stroke-linecap:round;stroke-linejoin:round;stroke:rgb(0%,0%,0%);stroke-opacity:1;stroke-miterlimit:10;" d="M 228.925781 227.737304 L 228.980469 222.385742 L 229.035156 217.030273 L 229.085938 211.678711 L 229.140625 206.327148 L 229.195312 200.971679 " transform="matrix(1,0,0,-1,0,282.588867)"/>
<path style="fill:none;stroke-width:2.26;stroke-linecap:round;stroke-linejoin:round;stroke:rgb(0%,0%,0%);stroke-opacity:1;stroke-miterlimit:10;" d="M 228.296875 144.370117 L 228.40625 156.307617 L 228.457031 162.276367 L 228.511719 168.245117 L 228.566406 174.209961 " transform="matrix(1,0,0,-1,0,282.588867)"/>
<path style="fill:none;stroke-width:2.26;stroke-linecap:round;stroke-linejoin:round;stroke:rgb(0%,0%,0%);stroke-opacity:1;stroke-miterlimit:10;" d="M 228.386719 106.182617 L 233.535156 106.139648 L 238.6875 106.096679 L 243.835938 106.049804 L 248.984375 106.006836 L 254.136719 105.963867 L 264.433594 105.877929 L 269.585938 105.831054 L 279.882812 105.745117 L 285.035156 105.698242 L 300.480469 105.569336 L 305.632812 105.526367 L 310.78125 105.479492 L 315.929688 105.436523 L 321.082031 105.393554 L 326.230469 105.346679 L 331.378906 105.303711 L 336.53125 105.260742 L 341.679688 105.217773 " transform="matrix(1,0,0,-1,0,282.588867)"/>
<path style="fill:none;stroke-width:2.26;stroke-linecap:round;stroke-linejoin:round;stroke:rgb(0%,0%,0%);stroke-opacity:1;stroke-miterlimit:10;" d="M 228.746094 107.151367 L 229.015625 113.874023 " transform="matrix(1,0,0,-1,0,282.588867)"/>
<path style="fill:none;stroke-width:2.26;stroke-linecap:round;stroke-linejoin:round;stroke:rgb(0%,0%,0%);stroke-opacity:1;stroke-miterlimit:10;" d="M 229.464844 114.620117 L 235.574219 114.315429 " transform="matrix(1,0,0,-1,0,282.588867)"/>
<path style="fill:none;stroke-width:2.26;stroke-linecap:round;stroke-linejoin:round;stroke:rgb(0%,0%,0%);stroke-opacity:1;stroke-miterlimit:10;" d="M 236.023438 114.795898 L 236.09375 126.538086 L 236.132812 132.409179 L 236.203125 144.151367 " transform="matrix(1,0,0,-1,0,282.588867)"/>
<path style="fill:none;stroke-width:2.26;stroke-linecap:round;stroke-linejoin:round;stroke:rgb(0%,0%,0%);stroke-opacity:1;stroke-miterlimit:10;" d="M 236.203125 144.065429 L 229.195312 144.284179 " transform="matrix(1,0,0,-1,0,282.588867)"/>
<path style="fill:none;stroke-width:2.26;stroke-linecap:round;stroke-linejoin:round;stroke:rgb(0%,0%,0%);stroke-opacity:1;stroke-miterlimit:10;" d="M 228.746094 179.354492 L 228.476562 179.354492 L 228.835938 179.573242 L 229.375 179.483398 L 229.824219 179.174804 L 229.914062 178.780273 L 229.554688 178.471679 L 228.925781 178.694336 L 228.566406 179.221679 L 228.835938 179.749023 L 229.644531 179.877929 L 230.273438 179.526367 L 230.363281 179.002929 L 229.644531 178.823242 L 228.566406 179.264648 L 227.667969 179.967773 L 227.398438 180.760742 L 227.9375 181.284179 L 228.925781 181.284179 L 230.003906 181.022461 L 230.453125 180.409179 L 230.183594 179.834961 L 229.464844 179.440429 L 228.65625 179.264648 L 228.117188 179.483398 L 227.9375 179.791992 L 228.386719 180.186523 L 229.195312 180.319336 L 230.09375 180.186523 L 230.722656 179.924804 L 230.8125 179.573242 L 230.273438 179.483398 L 229.644531 179.616211 L 229.015625 179.877929 L 228.476562 180.229492 L 228.207031 180.627929 L 228.117188 181.065429 " transform="matrix(1,0,0,-1,0,282.588867)"/>
<path style="fill:none;stroke-width:2.26;stroke-linecap:round;stroke-linejoin:round;stroke:rgb(0%,0%,0%);stroke-opacity:1;stroke-miterlimit:10;" d="M 228.207031 187.440429 L 227.847656 187.612304 L 227.578125 187.920898 L 227.667969 188.272461 L 228.207031 188.315429 L 228.746094 188.010742 L 229.015625 187.526367 L 228.746094 187.088867 L 228.027344 186.999023 L 227.308594 187.307617 L 226.949219 187.963867 L 227.308594 188.538086 L 227.9375 188.713867 L 228.65625 188.315429 L 228.835938 187.569336 L 228.476562 186.909179 L 227.757812 186.780273 L 227.128906 187.131836 L 226.859375 187.745117 L 226.859375 188.405273 L 227.488281 188.713867 L 228.296875 188.666992 L 229.285156 188.362304 L 230.003906 187.745117 L 230.003906 187.088867 L 229.375 186.780273 L 228.65625 186.909179 L 228.207031 187.350586 L 228.476562 187.791992 L 229.015625 187.963867 L 229.554688 187.745117 L 229.734375 187.307617 L 229.554688 186.999023 L 229.195312 186.823242 L 228.925781 186.866211 L 228.566406 186.909179 L 228.296875 186.999023 L 228.117188 187.217773 L 227.9375 187.440429 L 227.847656 187.702148 L 227.847656 188.053711 " transform="matrix(1,0,0,-1,0,282.588867)"/>
<path style="fill:none;stroke-width:2.26;stroke-linecap:round;stroke-linejoin:round;stroke:rgb(0%,0%,0%);stroke-opacity:1;stroke-miterlimit:10;" d="M 228.566406 194.733398 L 228.117188 194.643554 L 227.757812 194.643554 L 227.488281 194.776367 L 227.308594 195.127929 L 227.578125 195.479492 L 228.207031 195.655273 L 229.015625 195.436523 L 229.734375 194.995117 L 229.824219 194.471679 L 229.285156 194.206054 L 228.386719 194.338867 L 227.757812 194.776367 L 227.578125 195.393554 L 228.207031 195.745117 L 229.015625 195.920898 L 229.914062 195.612304 L 230.273438 195.127929 L 230.003906 194.643554 L 229.375 194.381836 L 228.65625 194.557617 L 228.207031 195.127929 L 228.296875 195.655273 L 228.746094 196.049804 L 229.464844 195.963867 L 229.914062 195.526367 L 229.914062 195.084961 L 229.554688 194.823242 L 228.925781 195.127929 L 228.476562 195.655273 L 228.386719 196.272461 L 228.835938 196.624023 L 229.554688 196.448242 L 230.003906 195.920898 L 230.003906 195.260742 L 229.464844 194.823242 L 228.65625 194.690429 L 227.847656 194.995117 L 227.398438 195.655273 L 227.398438 196.229492 L 227.757812 196.624023 L 228.386719 196.624023 L 229.105469 196.401367 L 229.464844 196.182617 L 229.734375 196.096679 " transform="matrix(1,0,0,-1,0,282.588867)"/>
<path style="fill:none;stroke-width:1.41;stroke-linecap:round;stroke-linejoin:round;stroke:rgb(0%,0%,0%);stroke-opacity:1;stroke-miterlimit:10;" d="M 245.636719 248.651367 L 245.636719 248.166992 L 245.457031 246.584961 L 245.1875 244.346679 L 244.828125 242.057617 L 244.558594 240.038086 L 244.46875 238.940429 L 244.46875 238.147461 " transform="matrix(1,0,0,-1,0,282.588867)"/>
<path style="fill:none;stroke-width:1.41;stroke-linecap:round;stroke-linejoin:round;stroke:rgb(0%,0%,0%);stroke-opacity:1;stroke-miterlimit:10;" d="M 246.984375 247.948242 L 247.253906 247.553711 L 247.523438 246.807617 L 247.882812 246.057617 L 248.0625 245.444336 L 248.421875 245.178711 L 248.78125 245.487304 L 249.410156 246.190429 L 250.21875 247.202148 L 250.847656 248.124023 L 251.476562 248.827148 L 251.835938 249.045898 L 251.925781 248.565429 L 251.835938 247.331054 L 251.566406 245.530273 L 251.117188 243.377929 L 250.847656 241.534179 L 250.667969 240.432617 L 250.578125 239.776367 L 250.667969 239.377929 " transform="matrix(1,0,0,-1,0,282.588867)"/>
<path style="fill:none;stroke-width:1.41;stroke-linecap:round;stroke-linejoin:round;stroke:rgb(0%,0%,0%);stroke-opacity:1;stroke-miterlimit:10;" d="M 256.238281 243.905273 L 255.96875 244.124023 L 255.699219 244.256836 L 255.429688 244.346679 L 254.980469 244.081054 L 254.441406 243.510742 L 253.902344 242.631836 L 253.632812 241.577148 L 253.632812 240.698242 L 253.902344 239.995117 L 254.351562 239.553711 L 254.800781 239.377929 L 255.25 239.245117 L 255.789062 239.291992 L 256.507812 239.553711 L 257.046875 240.213867 L 257.40625 241.182617 L 257.496094 242.190429 L 257.40625 243.026367 L 257.136719 243.463867 L 256.867188 243.686523 " transform="matrix(1,0,0,-1,0,282.588867)"/>
<path style="fill:none;stroke-width:1.41;stroke-linecap:round;stroke-linejoin:round;stroke:rgb(0%,0%,0%);stroke-opacity:1;stroke-miterlimit:10;" d="M 261.269531 243.905273 L 261 243.995117 L 260.460938 243.463867 L 259.921875 242.588867 L 259.472656 241.577148 L 259.023438 240.346679 L 259.203125 239.467773 L 259.742188 239.116211 L 260.550781 239.159179 L 261.539062 240.127929 L 262.347656 241.354492 L 262.796875 242.631836 L 263.066406 243.862304 L 263.15625 244.651367 L 263.15625 247.991211 L 263.15625 245.971679 L 263.246094 244.256836 L 263.335938 242.717773 L 263.515625 241.534179 L 263.695312 240.346679 L 263.964844 239.510742 " transform="matrix(1,0,0,-1,0,282.588867)"/>
<path style="fill:none;stroke-width:1.41;stroke-linecap:round;stroke-linejoin:round;stroke:rgb(0%,0%,0%);stroke-opacity:1;stroke-miterlimit:10;" d="M 266.75 243.596679 L 266.660156 243.948242 L 266.390625 243.159179 L 266.210938 241.838867 L 266.210938 240.522461 L 266.480469 239.291992 L 267.109375 238.850586 L 267.738281 239.467773 L 268.367188 240.522461 L 268.90625 241.620117 L 269.085938 242.499023 L 269.265625 242.940429 L 269.265625 243.202148 L 269.265625 241.620117 L 269.355469 240.432617 L 269.445312 239.202148 L 269.714844 238.588867 L 270.253906 238.588867 " transform="matrix(1,0,0,-1,0,282.588867)"/>
<path style="fill:none;stroke-width:1.41;stroke-linecap:round;stroke-linejoin:round;stroke:rgb(0%,0%,0%);stroke-opacity:1;stroke-miterlimit:10;" d="M 274.117188 247.991211 L 273.9375 247.815429 L 273.847656 246.807617 L 273.667969 245.002929 L 273.578125 243.202148 L 273.398438 241.401367 L 273.308594 240.256836 L 273.308594 239.862304 " transform="matrix(1,0,0,-1,0,282.588867)"/>
<path style="fill:none;stroke-width:1.41;stroke-linecap:round;stroke-linejoin:round;stroke:rgb(0%,0%,0%);stroke-opacity:1;stroke-miterlimit:10;" d="M 275.644531 240.959961 L 276.363281 241.354492 L 277.351562 241.838867 L 278.339844 242.499023 L 278.878906 243.245117 L 279.238281 243.905273 L 279.328125 244.432617 L 279.148438 244.916992 L 278.789062 245.178711 L 278.070312 244.870117 L 277.082031 244.081054 L 276.09375 242.807617 L 275.375 241.092773 L 275.464844 239.819336 L 276.003906 238.940429 L 276.8125 238.456054 L 277.621094 238.370117 L 278.519531 238.413086 " transform="matrix(1,0,0,-1,0,282.588867)"/>
<path style="fill:none;stroke-width:1.41;stroke-linecap:round;stroke-linejoin:round;stroke:rgb(0%,0%,0%);stroke-opacity:1;stroke-miterlimit:10;" d="M 280.945312 238.370117 L 280.675781 238.061523 L 280.585938 237.838867 L 280.765625 238.061523 L 281.035156 238.764648 L 281.304688 239.776367 L 281.84375 241.620117 L 282.382812 243.772461 L 282.652344 245.706054 L 283.011719 247.112304 L 283.371094 247.112304 L 283.820312 245.924804 L 284.269531 244.256836 L 284.71875 242.104492 L 285.167969 240.299804 L 285.4375 238.940429 L 285.886719 238.147461 L 286.335938 238.721679 L 286.875 240.432617 L 287.503906 242.983398 L 288.042969 245.311523 L 288.402344 246.979492 L 288.671875 247.682617 " transform="matrix(1,0,0,-1,0,282.588867)"/>
<path style="fill:none;stroke-width:1.41;stroke-linecap:round;stroke-linejoin:round;stroke:rgb(0%,0%,0%);stroke-opacity:1;stroke-miterlimit:10;" d="M 290.828125 243.553711 L 290.648438 243.772461 L 290.738281 244.081054 L 290.828125 244.299804 L 291.277344 244.608398 L 291.90625 244.651367 L 292.445312 244.432617 L 292.894531 243.862304 L 293.074219 242.717773 L 293.074219 241.534179 L 292.984375 240.432617 L 292.804688 239.510742 L 292.804688 239.245117 L 292.804688 240.213867 L 292.714844 240.784179 L 292.355469 241.182617 L 291.726562 241.487304 L 290.917969 241.401367 L 290.109375 241.049804 L 289.390625 240.479492 L 288.941406 239.686523 L 289.03125 238.940429 L 289.570312 238.323242 L 290.378906 237.885742 L 291.277344 237.838867 L 292.265625 238.280273 " transform="matrix(1,0,0,-1,0,282.588867)"/>
<path style="fill:none;stroke-width:1.41;stroke-linecap:round;stroke-linejoin:round;stroke:rgb(0%,0%,0%);stroke-opacity:1;stroke-miterlimit:10;" d="M 295.769531 238.541992 L 295.5 238.190429 L 295.410156 237.971679 L 295.410156 238.499023 L 295.589844 239.510742 L 296.039062 241.182617 L 296.847656 242.588867 L 297.65625 243.596679 L 298.285156 243.772461 L 298.644531 243.069336 L 298.824219 242.057617 L 298.914062 240.698242 L 299.003906 239.776367 L 299.632812 240.565429 L 300.261719 242.237304 L 301.070312 243.463867 L 301.789062 243.643554 L 302.148438 242.499023 L 302.417969 240.565429 L 302.328125 238.631836 L 302.328125 237.225586 L 302.417969 236.784179 " transform="matrix(1,0,0,-1,0,282.588867)"/>
<path style="fill:none;stroke-width:1.41;stroke-linecap:round;stroke-linejoin:round;stroke:rgb(0%,0%,0%);stroke-opacity:1;stroke-miterlimit:10;" d="M 306.640625 241.534179 L 307.179688 241.928711 L 307.898438 242.456054 L 308.617188 243.026367 L 309.15625 243.643554 L 309.335938 244.124023 L 309.335938 244.916992 L 308.976562 245.221679 L 308.527344 245.401367 L 307.71875 245.311523 L 306.730469 244.784179 L 306.011719 243.995117 L 305.382812 242.983398 L 305.113281 241.706054 L 305.203125 240.565429 L 305.5625 239.377929 L 306.371094 238.588867 L 307.539062 238.370117 L 308.4375 238.456054 L 309.246094 238.674804 L 309.695312 238.807617 " transform="matrix(1,0,0,-1,0,282.588867)"/>
<path style="fill:none;stroke-width:1.41;stroke-linecap:round;stroke-linejoin:round;stroke:rgb(0%,0%,0%);stroke-opacity:1;stroke-miterlimit:10;" d="M 243.839844 134.702148 L 243.75 133.866211 L 243.570312 132.284179 L 243.210938 130.088867 L 242.851562 127.932617 L 242.671875 126.440429 L 242.492188 125.647461 " transform="matrix(1,0,0,-1,0,282.588867)"/>
<path style="fill:none;stroke-width:1.41;stroke-linecap:round;stroke-linejoin:round;stroke:rgb(0%,0%,0%);stroke-opacity:1;stroke-miterlimit:10;" d="M 243.929688 134.217773 L 244.46875 133.514648 L 244.917969 132.549804 L 245.367188 131.405273 L 245.726562 130.440429 L 245.90625 129.866211 L 246.175781 129.428711 L 246.355469 129.163086 L 246.804688 129.690429 L 247.433594 130.877929 L 248.152344 132.327148 L 248.78125 133.823242 L 249.230469 134.526367 L 249.410156 134.260742 L 249.410156 133.471679 L 249.320312 132.502929 L 249.230469 131.096679 L 249.140625 129.120117 L 249.140625 127.362304 L 249.050781 125.823242 L 249.050781 124.858398 L 249.410156 124.901367 " transform="matrix(1,0,0,-1,0,282.588867)"/>
<path style="fill:none;stroke-width:1.41;stroke-linecap:round;stroke-linejoin:round;stroke:rgb(0%,0%,0%);stroke-opacity:1;stroke-miterlimit:10;" d="M 253.632812 129.252929 L 253.632812 130.260742 L 253.183594 130.041992 L 252.824219 129.471679 L 252.285156 128.592773 L 251.925781 127.448242 L 251.925781 126.307617 L 252.375 125.385742 L 253.273438 124.901367 L 254.441406 125.034179 L 255.429688 125.647461 L 255.96875 126.483398 L 256.058594 127.627929 L 255.699219 128.592773 L 255.25 129.338867 L 254.890625 129.780273 " transform="matrix(1,0,0,-1,0,282.588867)"/>
<path style="fill:none;stroke-width:1.41;stroke-linecap:round;stroke-linejoin:round;stroke:rgb(0%,0%,0%);stroke-opacity:1;stroke-miterlimit:10;" d="M 260.730469 129.252929 L 260.640625 129.690429 L 260.460938 129.956054 L 260.28125 130.174804 L 259.921875 130.350586 L 259.382812 130.131836 L 258.84375 129.252929 L 258.574219 127.979492 L 258.753906 126.745117 L 259.472656 126.221679 L 260.550781 126.791992 L 261.449219 128.374023 L 262.167969 130.217773 L 262.4375 132.459961 L 262.527344 134.436523 L 262.527344 136.151367 L 262.527344 135.842773 L 262.617188 134.877929 L 262.707031 133.776367 L 262.886719 131.799804 L 263.066406 129.557617 L 263.335938 127.319336 L 263.605469 125.295898 L 263.875 124.284179 " transform="matrix(1,0,0,-1,0,282.588867)"/>
<path style="fill:none;stroke-width:1.41;stroke-linecap:round;stroke-linejoin:round;stroke:rgb(0%,0%,0%);stroke-opacity:1;stroke-miterlimit:10;" d="M 267.109375 130.131836 L 266.929688 130.307617 L 266.75 129.780273 L 266.660156 128.549804 L 266.75 127.096679 L 267.109375 125.780273 L 267.828125 125.338867 L 268.636719 125.913086 L 269.265625 127.186523 L 269.714844 128.635742 L 269.804688 129.604492 L 269.984375 128.987304 L 270.164062 127.713867 L 270.433594 126.616211 L 270.703125 125.780273 L 270.792969 125.471679 L 271.0625 125.561523 " transform="matrix(1,0,0,-1,0,282.588867)"/>
<path style="fill:none;stroke-width:1.41;stroke-linecap:round;stroke-linejoin:round;stroke:rgb(0%,0%,0%);stroke-opacity:1;stroke-miterlimit:10;" d="M 274.117188 134.307617 L 273.667969 133.557617 L 273.398438 131.756836 L 273.128906 129.163086 L 273.039062 127.053711 L 273.128906 125.690429 " transform="matrix(1,0,0,-1,0,282.588867)"/>
<path style="fill:none;stroke-width:1.41;stroke-linecap:round;stroke-linejoin:round;stroke:rgb(0%,0%,0%);stroke-opacity:1;stroke-miterlimit:10;" d="M 276.09375 127.932617 L 276.363281 128.108398 L 276.902344 128.416992 L 277.800781 128.901367 L 278.789062 129.737304 L 279.507812 130.834961 L 279.597656 131.889648 L 279.328125 132.678711 L 278.429688 132.811523 L 277.351562 132.018554 L 276.363281 130.526367 L 275.914062 128.682617 L 276.183594 127.096679 L 277.171875 126.221679 L 278.160156 125.870117 L 278.96875 125.999023 L 279.507812 126.440429 L 280.226562 126.967773 " transform="matrix(1,0,0,-1,0,282.588867)"/>
<path style="fill:none;stroke-width:1.41;stroke-linecap:round;stroke-linejoin:round;stroke:rgb(0%,0%,0%);stroke-opacity:1;stroke-miterlimit:10;" d="M 281.664062 126.307617 L 281.664062 126.967773 L 281.933594 127.889648 L 282.292969 129.163086 L 282.5625 130.483398 L 282.742188 131.756836 L 283.011719 133.471679 L 283.101562 134.877929 L 283.28125 135.932617 L 283.460938 136.370117 L 283.820312 135.405273 L 284.449219 133.690429 L 285.167969 131.272461 L 285.976562 128.725586 L 286.695312 126.659179 L 287.234375 125.647461 L 287.59375 125.913086 L 288.042969 127.319336 L 288.402344 129.604492 L 288.671875 131.756836 L 288.761719 133.424804 L 288.851562 134.307617 L 288.941406 134.659179 " transform="matrix(1,0,0,-1,0,282.588867)"/>
<path style="fill:none;stroke-width:1.41;stroke-linecap:round;stroke-linejoin:round;stroke:rgb(0%,0%,0%);stroke-opacity:1;stroke-miterlimit:10;" d="M 291.007812 130.877929 L 291.1875 131.405273 L 291.636719 131.846679 L 292.265625 131.713867 L 292.984375 130.963867 L 293.433594 129.690429 L 293.792969 128.198242 L 293.882812 127.186523 L 293.882812 126.877929 L 293.34375 127.627929 L 292.625 128.022461 L 291.636719 128.065429 L 290.558594 127.670898 L 289.839844 126.834961 L 289.570312 125.870117 L 290.199219 125.120117 L 291.097656 124.901367 L 292.085938 125.034179 L 292.984375 125.647461 " transform="matrix(1,0,0,-1,0,282.588867)"/>
<path style="fill:none;stroke-width:1.41;stroke-linecap:round;stroke-linejoin:round;stroke:rgb(0%,0%,0%);stroke-opacity:1;stroke-miterlimit:10;" d="M 296.847656 125.338867 L 296.667969 125.034179 L 296.667969 125.690429 L 296.757812 126.967773 L 297.117188 128.811523 L 297.566406 130.440429 L 298.015625 131.448242 L 298.464844 131.713867 L 298.734375 131.053711 L 299.003906 129.780273 L 299.183594 128.459961 L 299.363281 127.756836 L 299.632812 128.065429 L 300.082031 129.428711 L 300.621094 131.096679 L 301.25 131.538086 L 301.789062 130.791992 L 302.058594 129.120117 L 302.328125 127.362304 L 302.328125 126.307617 L 302.417969 125.870117 L 302.597656 126.088867 " transform="matrix(1,0,0,-1,0,282.588867)"/>
<path style="fill:none;stroke-width:1.41;stroke-linecap:round;stroke-linejoin:round;stroke:rgb(0%,0%,0%);stroke-opacity:1;stroke-miterlimit:10;" d="M 307.449219 128.811523 L 308.347656 129.385742 L 309.335938 130.131836 L 310.144531 131.186523 L 310.414062 132.151367 L 310.054688 132.901367 L 309.335938 133.252929 L 308.257812 132.901367 L 307.359375 131.932617 L 306.640625 130.307617 L 306.460938 128.549804 L 306.910156 126.967773 L 307.808594 125.870117 L 308.976562 125.518554 L 309.875 125.561523 L 310.773438 125.999023 " transform="matrix(1,0,0,-1,0,282.588867)"/>
<path style="fill:none;stroke-width:2.26;stroke-linecap:round;stroke-linejoin:round;stroke:rgb(0%,0%,0%);stroke-opacity:1;stroke-miterlimit:10;" d="M 247.074219 197.147461 L 247.253906 197.409179 L 247.074219 197.940429 L 246.535156 198.510742 L 245.726562 198.995117 L 244.558594 199.081054 L 243.480469 198.772461 L 242.3125 198.159179 L 241.234375 197.147461 L 240.335938 195.874023 L 239.617188 194.643554 L 239.167969 193.370117 L 238.988281 192.401367 L 238.898438 191.698242 L 238.898438 190.819336 L 239.167969 189.764648 L 239.4375 188.401367 L 240.246094 186.909179 L 241.503906 185.635742 L 243.210938 184.932617 L 245.367188 184.932617 L 247.34375 185.370117 L 248.78125 185.897461 L 249.589844 186.467773 L 249.859375 186.862304 L 249.859375 187.213867 " transform="matrix(1,0,0,-1,0,282.588867)"/>
<path style="fill:none;stroke-width:2.26;stroke-linecap:round;stroke-linejoin:round;stroke:rgb(0%,0%,0%);stroke-opacity:1;stroke-miterlimit:10;" d="M 254.082031 193.323242 L 253.8125 193.674804 L 253.632812 193.893554 L 253.273438 194.073242 L 252.644531 194.073242 L 251.925781 193.721679 L 251.027344 192.666992 L 250.308594 191.389648 L 249.769531 190.073242 L 249.589844 188.885742 L 249.589844 187.522461 L 249.769531 186.909179 L 250.128906 186.249023 L 251.117188 185.721679 L 252.464844 185.502929 L 253.8125 185.588867 L 255.070312 186.206054 L 255.789062 187.522461 L 255.96875 189.061523 L 255.789062 190.686523 L 255.339844 192.182617 L 254.710938 192.928711 L 254.261719 193.280273 L 253.902344 193.370117 " transform="matrix(1,0,0,-1,0,282.588867)"/>
<path style="fill:none;stroke-width:2.26;stroke-linecap:round;stroke-linejoin:round;stroke:rgb(0%,0%,0%);stroke-opacity:1;stroke-miterlimit:10;" d="M 259.203125 193.061523 L 259.113281 192.182617 L 259.023438 191.038086 L 258.84375 189.280273 L 258.574219 187.916992 L 258.394531 186.690429 L 258.214844 185.721679 L 258.125 185.413086 L 258.125 185.721679 L 258.214844 186.557617 L 258.484375 188.182617 L 259.292969 190.557617 L 260.28125 192.752929 L 261.359375 194.291992 L 262.4375 194.334961 L 263.066406 192.487304 L 263.335938 190.116211 L 263.515625 188.096679 L 263.695312 187.698242 L 264.324219 189.280273 L 265.3125 191.522461 L 266.570312 192.928711 L 267.648438 192.534179 L 268.277344 190.686523 L 268.546875 188.182617 L 268.457031 186.206054 L 268.457031 184.932617 " transform="matrix(1,0,0,-1,0,282.588867)"/>
<path style="fill:none;stroke-width:2.26;stroke-linecap:round;stroke-linejoin:round;stroke:rgb(0%,0%,0%);stroke-opacity:1;stroke-miterlimit:10;" d="M 272.5 191.784179 L 272.230469 191.698242 L 272.050781 191.213867 L 271.871094 190.291992 L 271.691406 187.874023 L 271.242188 184.491211 L 270.613281 180.448242 L 269.984375 176.495117 L 269.445312 174.120117 L 269.175781 173.416992 " transform="matrix(1,0,0,-1,0,282.588867)"/>
<path style="fill:none;stroke-width:2.26;stroke-linecap:round;stroke-linejoin:round;stroke:rgb(0%,0%,0%);stroke-opacity:1;stroke-miterlimit:10;" d="M 270.882812 185.194336 L 271.421875 188.577148 L 272.050781 190.557617 L 273.21875 192.225586 L 274.746094 193.061523 L 276.09375 192.401367 L 276.722656 190.510742 L 276.363281 188.096679 L 275.105469 186.291992 L 273.757812 185.284179 L 272.589844 185.104492 L 271.960938 185.456054 " transform="matrix(1,0,0,-1,0,282.588867)"/>
<path style="fill:none;stroke-width:2.26;stroke-linecap:round;stroke-linejoin:round;stroke:rgb(0%,0%,0%);stroke-opacity:1;stroke-miterlimit:10;" d="M 282.742188 191.038086 L 282.5625 191.874023 L 282.292969 192.620117 L 281.664062 192.666992 L 280.945312 192.401367 L 280.226562 191.784179 L 279.507812 190.952148 L 279.148438 190.116211 L 278.789062 189.151367 L 278.519531 187.963867 L 278.609375 186.557617 L 279.417969 185.370117 L 280.675781 184.799804 L 282.292969 185.194336 L 283.550781 186.467773 L 284.179688 188.049804 L 284.359375 189.456054 L 284.179688 190.467773 L 284 191.127929 L 283.730469 191.741211 L 283.550781 192.182617 L 283.371094 192.534179 " transform="matrix(1,0,0,-1,0,282.588867)"/>
<path style="fill:none;stroke-width:2.26;stroke-linecap:round;stroke-linejoin:round;stroke:rgb(0%,0%,0%);stroke-opacity:1;stroke-miterlimit:10;" d="M 286.425781 184.096679 L 286.246094 183.920898 L 286.246094 184.624023 L 286.335938 185.370117 L 286.605469 186.338867 L 286.875 187.522461 L 287.773438 189.502929 L 288.761719 191.260742 L 289.839844 192.577148 L 290.917969 192.928711 L 291.277344 191.081054 L 291.457031 188.709961 L 291.457031 186.467773 L 291.277344 184.842773 L 291.636719 184.534179 " transform="matrix(1,0,0,-1,0,282.588867)"/>
<path style="fill:none;stroke-width:2.26;stroke-linecap:round;stroke-linejoin:round;stroke:rgb(0%,0%,0%);stroke-opacity:1;stroke-miterlimit:10;" d="M 296.039062 187.260742 L 296.667969 187.963867 L 297.835938 188.885742 L 298.824219 189.983398 L 299.453125 190.995117 L 299.632812 191.831054 L 299.453125 192.315429 L 298.914062 192.709961 L 298.015625 192.752929 L 296.9375 192.315429 L 295.769531 191.612304 L 294.871094 189.940429 L 294.601562 188.096679 L 295.050781 186.291992 L 295.949219 184.842773 L 297.027344 184.315429 L 298.375 184.624023 " transform="matrix(1,0,0,-1,0,282.588867)"/>
<path style="fill:none;stroke-width:2.26;stroke-linecap:round;stroke-linejoin:round;stroke:rgb(0%,0%,0%);stroke-opacity:1;stroke-miterlimit:10;" d="M 301.789062 184.401367 L 301.519531 185.061523 L 301.699219 186.995117 L 302.148438 189.280273 L 302.867188 191.612304 L 304.035156 193.190429 L 305.113281 192.534179 L 305.921875 190.557617 L 306.550781 187.874023 L 306.730469 185.284179 L 306.550781 183.655273 L 306.371094 182.866211 L 306.730469 182.995117 " transform="matrix(1,0,0,-1,0,282.588867)"/>
<path style="fill:none;stroke-width:2.26;stroke-linecap:round;stroke-linejoin:round;stroke:rgb(0%,0%,0%);stroke-opacity:1;stroke-miterlimit:10;" d="M 313.019531 203.651367 L 313.019531 203.342773 L 312.929688 202.596679 L 312.839844 201.499023 L 312.300781 198.463867 L 311.582031 194.776367 L 311.042969 190.729492 L 310.683594 186.733398 L 311.132812 184.842773 L 312.03125 184.182617 L 312.929688 184.272461 L 313.648438 184.709961 L 314.277344 185.456054 L 314.726562 186.338867 " transform="matrix(1,0,0,-1,0,282.588867)"/>
<path style="fill:none;stroke-width:2.26;stroke-linecap:round;stroke-linejoin:round;stroke:rgb(0%,0%,0%);stroke-opacity:1;stroke-miterlimit:10;" d="M 308.257812 195.651367 L 307.898438 196.311523 L 308.707031 196.663086 L 310.503906 196.885742 L 313.019531 197.014648 L 315.265625 196.971679 L 316.792969 196.928711 L 317.601562 196.838867 " transform="matrix(1,0,0,-1,0,282.588867)"/>
<path style="fill:none;stroke-width:2.26;stroke-linecap:round;stroke-linejoin:round;stroke:rgb(0%,0%,0%);stroke-opacity:1;stroke-miterlimit:10;" d="M 318.859375 200.002929 L 319.757812 200.268554 L 321.285156 200.311523 L 323.261719 200.311523 L 325.328125 200.354492 L 326.855469 200.354492 L 327.664062 200.401367 L 327.933594 200.401367 " transform="matrix(1,0,0,-1,0,282.588867)"/>
<path style="fill:none;stroke-width:2.26;stroke-linecap:round;stroke-linejoin:round;stroke:rgb(0%,0%,0%);stroke-opacity:1;stroke-miterlimit:10;" d="M 324.878906 199.299804 L 324.429688 199.124023 L 323.890625 198.291992 L 323.53125 197.237304 L 322.722656 193.147461 L 322.273438 190.776367 L 321.914062 188.534179 L 321.554688 186.690429 L 321.464844 186.338867 " transform="matrix(1,0,0,-1,0,282.588867)"/>
<path style="fill:none;stroke-width:2.26;stroke-linecap:round;stroke-linejoin:round;stroke:rgb(0%,0%,0%);stroke-opacity:1;stroke-miterlimit:10;" d="M 318.859375 185.061523 L 318.589844 185.237304 L 318.679688 185.502929 L 319.21875 185.635742 L 319.9375 185.807617 L 320.835938 186.030273 L 321.734375 186.206054 L 322.902344 186.467773 L 324.070312 186.643554 L 324.96875 186.776367 L 325.597656 186.909179 L 325.867188 186.952148 " transform="matrix(1,0,0,-1,0,282.588867)"/>
<path style="fill:none;stroke-width:2.26;stroke-linecap:round;stroke-linejoin:round;stroke:rgb(0%,0%,0%);stroke-opacity:1;stroke-miterlimit:10;" d="M 332.515625 191.127929 L 332.335938 191.612304 L 332.335938 191.874023 L 332.246094 192.092773 L 332.15625 192.358398 L 332.066406 192.620117 L 331.617188 192.971679 L 330.898438 193.147461 L 329.820312 192.838867 L 328.742188 192.315429 L 327.933594 191.127929 L 327.484375 189.588867 L 327.574219 188.182617 L 327.84375 186.909179 L 328.921875 186.338867 L 330.449219 186.909179 L 332.066406 188.448242 L 333.683594 190.334961 L 334.671875 192.315429 L 335.121094 193.983398 L 335.300781 195.127929 L 335.390625 196.838867 L 335.390625 198.291992 L 335.300781 199.081054 L 335.300781 199.346679 L 335.210938 197.807617 L 335.210938 195.127929 L 335.300781 192.049804 L 335.660156 188.752929 L 335.929688 186.467773 L 336.378906 185.151367 L 336.917969 184.752929 " transform="matrix(1,0,0,-1,0,282.588867)"/>
<path style="fill:none;stroke-width:2.26;stroke-linecap:round;stroke-linejoin:round;stroke:rgb(0%,0%,0%);stroke-opacity:1;stroke-miterlimit:10;" d="M 207.722656 242.850586 L 207.992188 242.893554 L 208.800781 242.940429 L 210.238281 243.069336 L 212.035156 243.159179 L 214.011719 243.202148 L 216.167969 243.202148 L 217.964844 243.159179 L 219.671875 243.159179 L 221.46875 243.112304 L 222.996094 243.159179 L 224.613281 243.202148 L 226.320312 243.291992 L 227.488281 243.377929 L 228.476562 243.420898 L 229.285156 243.420898 L 230.003906 243.463867 L 230.902344 243.510742 L 231.800781 243.596679 L 232.519531 243.686523 L 233.058594 243.772461 L 233.597656 243.815429 L 233.957031 243.905273 L 234.40625 244.038086 L 234.765625 244.166992 L 235.125 244.256836 L 235.394531 244.299804 L 235.664062 244.346679 L 235.933594 244.389648 " transform="matrix(1,0,0,-1,0,282.588867)"/>
<path style="fill:none;stroke-width:2.26;stroke-linecap:round;stroke-linejoin:round;stroke:rgb(0%,0%,0%);stroke-opacity:1;stroke-miterlimit:10;" d="M 204.128906 129.471679 L 204.398438 129.385742 L 204.847656 129.385742 L 205.65625 129.338867 L 206.914062 129.295898 L 208.710938 129.252929 L 210.957031 129.206054 L 213.203125 129.163086 L 215.359375 129.120117 L 217.335938 129.077148 L 218.863281 129.077148 L 221.558594 129.163086 L 222.816406 129.252929 L 223.984375 129.385742 L 225.242188 129.471679 L 226.140625 129.514648 L 226.859375 129.557617 L 227.578125 129.514648 L 228.207031 129.471679 L 229.195312 129.385742 L 230.273438 129.252929 L 231.351562 129.163086 L 232.160156 129.163086 L 232.699219 129.120117 L 233.058594 129.077148 L 233.328125 129.077148 L 233.6875 129.120117 L 233.957031 129.120117 L 234.496094 129.206054 " transform="matrix(1,0,0,-1,0,282.588867)"/>
<path style="fill:none;stroke-width:2.26;stroke-linecap:round;stroke-linejoin:round;stroke:rgb(0%,0%,0%);stroke-opacity:1;stroke-miterlimit:10;" d="M 143.84375 237.928711 L 143.664062 237.752929 L 143.753906 238.190429 L 144.113281 239.686523 L 144.832031 242.147461 L 145.730469 245.401367 L 146.628906 248.916992 L 147.347656 251.991211 L 147.976562 254.190429 L 148.425781 255.374023 L 148.785156 255.022461 L 149.054688 253.354492 L 149.324219 251.069336 L 149.59375 248.565429 L 149.863281 246.850586 L 150.402344 246.366211 L 151.390625 247.596679 L 152.738281 250.014648 L 154.085938 252.784179 L 155.433594 255.155273 L 156.0625 255.948242 L 156.242188 255.022461 L 155.613281 251.901367 L 154.714844 247.553711 L 153.816406 242.940429 L 153.007812 239.073242 L 152.648438 237.092773 L 152.558594 236.346679 " transform="matrix(1,0,0,-1,0,282.588867)"/>
<path style="fill:none;stroke-width:2.26;stroke-linecap:round;stroke-linejoin:round;stroke:rgb(0%,0%,0%);stroke-opacity:1;stroke-miterlimit:10;" d="M 159.746094 244.166992 L 159.746094 244.475586 L 159.476562 244.608398 L 158.9375 244.432617 L 158.128906 243.553711 L 157.140625 242.147461 L 156.691406 240.432617 L 156.871094 238.807617 L 157.949219 237.971679 L 159.386719 238.061523 L 160.734375 239.159179 L 161.363281 240.874023 L 161.363281 242.717773 L 161.09375 244.213867 L 160.734375 245.135742 L 160.554688 245.444336 " transform="matrix(1,0,0,-1,0,282.588867)"/>
<path style="fill:none;stroke-width:2.26;stroke-linecap:round;stroke-linejoin:round;stroke:rgb(0%,0%,0%);stroke-opacity:1;stroke-miterlimit:10;" d="M 169.628906 243.596679 L 169.359375 243.905273 L 168.910156 244.038086 L 168.101562 243.862304 L 167.023438 243.291992 L 165.765625 242.057617 L 164.957031 240.432617 L 164.777344 238.850586 L 165.585938 237.971679 L 167.113281 238.237304 L 168.730469 239.596679 L 170.167969 242.280273 L 170.976562 245.487304 L 171.246094 248.651367 L 171.246094 251.463867 L 171.246094 250.143554 L 171.425781 247.948242 L 171.515625 245.530273 L 171.695312 243.291992 L 171.875 241.534179 L 172.144531 240.038086 L 172.324219 238.807617 L 172.59375 238.061523 L 172.773438 237.752929 " transform="matrix(1,0,0,-1,0,282.588867)"/>
<path style="fill:none;stroke-width:2.26;stroke-linecap:round;stroke-linejoin:round;stroke:rgb(0%,0%,0%);stroke-opacity:1;stroke-miterlimit:10;" d="M 177.894531 244.081054 L 177.714844 244.256836 L 177.445312 243.995117 L 177.175781 243.510742 L 176.90625 242.850586 L 176.726562 242.057617 L 176.636719 241.002929 L 176.726562 239.819336 L 177.085938 238.764648 L 177.894531 238.190429 L 178.972656 238.541992 L 180.050781 239.776367 L 180.859375 241.534179 L 181.308594 243.026367 L 181.488281 243.686523 L 181.578125 243.026367 L 181.847656 241.534179 L 182.117188 239.819336 L 182.65625 238.499023 L 183.285156 238.061523 " transform="matrix(1,0,0,-1,0,282.588867)"/>
<path style="fill:none;stroke-width:2.26;stroke-linecap:round;stroke-linejoin:round;stroke:rgb(0%,0%,0%);stroke-opacity:1;stroke-miterlimit:10;" d="M 189.035156 253.706054 L 189.125 253.967773 L 189.125 253.045898 L 188.945312 251.288086 L 188.675781 249.045898 L 188.316406 246.190429 L 187.957031 243.291992 L 187.6875 241.135742 L 187.507812 239.424804 L 187.328125 238.499023 " transform="matrix(1,0,0,-1,0,282.588867)"/>
<path style="fill:none;stroke-width:2.26;stroke-linecap:round;stroke-linejoin:round;stroke:rgb(0%,0%,0%);stroke-opacity:1;stroke-miterlimit:10;" d="M 192.539062 241.311523 L 192.898438 241.401367 L 193.976562 241.663086 L 195.054688 242.057617 L 196.402344 242.717773 L 197.210938 243.729492 L 197.570312 244.870117 L 197.570312 246.104492 L 197.03125 246.979492 L 196.042969 247.288086 L 194.875 246.936523 L 193.796875 246.233398 L 192.808594 244.827148 L 192.269531 243.112304 L 192.089844 241.225586 L 192.539062 239.245117 L 193.527344 238.061523 L 194.875 237.487304 L 195.953125 237.358398 L 196.851562 237.444336 L 197.390625 237.709961 " transform="matrix(1,0,0,-1,0,282.588867)"/>
<path style="fill:none;stroke-width:2.26;stroke-linecap:round;stroke-linejoin:round;stroke:rgb(0%,0%,0%);stroke-opacity:1;stroke-miterlimit:10;" d="M 143.035156 121.385742 L 142.945312 121.166992 L 143.394531 122.483398 L 144.023438 124.815429 L 144.921875 128.241211 L 146.089844 132.327148 L 146.898438 135.799804 L 147.617188 137.995117 L 147.976562 138.041992 L 148.335938 136.108398 L 148.785156 133.252929 L 149.324219 130.440429 L 150.3125 129.120117 L 151.75 129.604492 L 153.546875 131.713867 L 155.523438 134.569336 L 156.871094 136.811523 L 157.589844 137.823242 L 157.679688 137.120117 L 157.320312 135.405273 L 156.871094 133.073242 L 156.421875 130.791992 L 155.882812 128.108398 L 155.253906 125.252929 L 154.894531 123.100586 L 154.535156 121.342773 L 154.535156 120.639648 L 154.894531 120.725586 L 155.433594 121.209961 " transform="matrix(1,0,0,-1,0,282.588867)"/>
<path style="fill:none;stroke-width:2.26;stroke-linecap:round;stroke-linejoin:round;stroke:rgb(0%,0%,0%);stroke-opacity:1;stroke-miterlimit:10;" d="M 161.363281 128.502929 L 161.363281 128.768554 L 161.273438 129.034179 L 160.644531 128.549804 L 160.105469 127.627929 L 159.566406 126.616211 L 159.027344 125.471679 L 158.757812 124.549804 L 158.847656 123.495117 L 159.476562 122.526367 L 160.375 121.913086 L 161.722656 121.694336 L 162.800781 122.131836 L 163.609375 123.186523 L 163.878906 124.506836 L 163.789062 125.690429 L 163.429688 127.096679 L 163.070312 127.979492 L 162.800781 128.416992 L 162.621094 128.725586 " transform="matrix(1,0,0,-1,0,282.588867)"/>
<path style="fill:none;stroke-width:2.26;stroke-linecap:round;stroke-linejoin:round;stroke:rgb(0%,0%,0%);stroke-opacity:1;stroke-miterlimit:10;" d="M 171.515625 126.877929 L 171.425781 127.319336 L 171.335938 127.627929 L 171.15625 127.846679 L 170.796875 128.065429 L 170.257812 128.065429 L 169.359375 127.756836 L 168.28125 126.526367 L 167.292969 125.077148 L 166.574219 123.581054 L 166.214844 122.307617 L 166.394531 121.651367 L 166.933594 121.077148 L 168.011719 120.948242 L 169.539062 121.471679 L 171.066406 122.397461 L 172.234375 123.627929 L 172.953125 124.944336 L 173.3125 126.440429 L 173.402344 128.811523 L 173.3125 131.362304 L 173.132812 133.604492 L 173.042969 134.702148 L 173.042969 134.350586 L 173.132812 132.370117 L 173.222656 129.385742 L 173.402344 126.131836 L 173.582031 123.100586 L 173.851562 121.034179 L 174.300781 120.288086 " transform="matrix(1,0,0,-1,0,282.588867)"/>
<path style="fill:none;stroke-width:2.26;stroke-linecap:round;stroke-linejoin:round;stroke:rgb(0%,0%,0%);stroke-opacity:1;stroke-miterlimit:10;" d="M 178.882812 129.163086 L 178.792969 129.471679 L 178.703125 129.690429 L 178.613281 129.428711 L 178.433594 128.944336 L 178.34375 128.284179 L 178.164062 126.791992 L 178.164062 124.987304 L 178.433594 123.229492 L 179.0625 121.913086 L 180.050781 122.131836 L 181.128906 123.627929 L 182.027344 125.690429 L 182.566406 127.538086 L 182.65625 128.198242 L 182.566406 127.627929 L 182.566406 125.913086 L 182.65625 124.065429 L 182.925781 122.573242 L 183.554688 121.913086 L 184.722656 122.616211 " transform="matrix(1,0,0,-1,0,282.588867)"/>
<path style="fill:none;stroke-width:2.26;stroke-linecap:round;stroke-linejoin:round;stroke:rgb(0%,0%,0%);stroke-opacity:1;stroke-miterlimit:10;" d="M 189.574219 136.284179 L 189.214844 135.405273 L 188.675781 132.944336 L 187.957031 129.514648 L 187.417969 126.131836 L 186.96875 123.538086 L 187.058594 122.573242 " transform="matrix(1,0,0,-1,0,282.588867)"/>
<path style="fill:none;stroke-width:2.26;stroke-linecap:round;stroke-linejoin:round;stroke:rgb(0%,0%,0%);stroke-opacity:1;stroke-miterlimit:10;" d="M 192.359375 125.295898 L 192.628906 125.471679 L 193.707031 126.131836 L 194.964844 127.096679 L 196.222656 128.592773 L 196.671875 129.999023 L 196.582031 131.053711 L 196.132812 131.666992 L 195.324219 131.666992 L 194.246094 131.053711 L 193.078125 130.041992 L 192 128.811523 L 191.101562 126.967773 L 190.921875 125.120117 L 191.460938 123.319336 L 192.628906 121.737304 L 194.15625 121.034179 L 195.683594 120.948242 L 196.941406 121.471679 " transform="matrix(1,0,0,-1,0,282.588867)"/>
<path style="fill:none;stroke-width:2.26;stroke-linecap:round;stroke-linejoin:round;stroke:rgb(0%,0%,0%);stroke-opacity:1;stroke-miterlimit:10;" d="M 13.917969 58.963867 L 13.828125 59.229492 L 13.648438 58.393554 L 13.199219 56.151367 L 12.480469 52.416992 L 11.582031 47.584961 L 10.683594 43.495117 L 10.054688 40.639648 L 9.785156 39.276367 " transform="matrix(1,0,0,-1,0,282.588867)"/>
<path style="fill:none;stroke-width:2.26;stroke-linecap:round;stroke-linejoin:round;stroke:rgb(0%,0%,0%);stroke-opacity:1;stroke-miterlimit:10;" d="M 13.917969 58.483398 L 14.097656 58.745117 L 14.277344 57.999023 L 14.636719 56.374023 L 15.085938 54.174804 L 15.625 52.022461 L 15.984375 50.924804 L 16.433594 50.749023 L 16.882812 51.276367 L 17.511719 52.374023 L 18.5 54.264648 L 19.667969 56.459961 L 20.925781 58.791992 L 21.824219 60.592773 L 22.363281 61.206054 L 22.542969 60.459961 L 22.453125 58.569336 L 22.273438 56.151367 L 22.003906 53.471679 L 21.734375 51.143554 L 21.554688 48.331054 L 21.375 45.737304 L 21.285156 43.541992 L 21.285156 41.432617 " transform="matrix(1,0,0,-1,0,282.588867)"/>
<path style="fill:none;stroke-width:2.26;stroke-linecap:round;stroke-linejoin:round;stroke:rgb(0%,0%,0%);stroke-opacity:1;stroke-miterlimit:10;" d="M 28.652344 48.155273 L 28.5625 48.506836 L 28.382812 48.768554 L 28.113281 48.948242 L 27.484375 49.034179 L 26.585938 48.416992 L 25.6875 47.276367 L 24.789062 45.827148 L 24.25 43.893554 L 24.25 42.487304 L 24.429688 41.432617 L 24.878906 40.553711 L 25.417969 40.202148 L 26.496094 40.112304 L 27.574219 40.245117 L 28.5625 40.553711 L 29.550781 41.651367 L 29.820312 43.143554 L 29.910156 44.901367 L 29.730469 46.659179 L 29.550781 47.713867 L 29.371094 48.022461 L 29.191406 47.846679 " transform="matrix(1,0,0,-1,0,282.588867)"/>
<path style="fill:none;stroke-width:2.26;stroke-linecap:round;stroke-linejoin:round;stroke:rgb(0%,0%,0%);stroke-opacity:1;stroke-miterlimit:10;" d="M 37.90625 46.838867 L 37.726562 47.276367 L 37.457031 47.713867 L 37.1875 48.022461 L 36.828125 48.331054 L 36.199219 48.288086 L 35.390625 47.584961 L 34.492188 46.659179 L 33.683594 45.475586 L 33.054688 44.288086 L 32.785156 43.100586 L 32.605469 41.916992 L 32.785156 40.639648 L 33.414062 39.760742 L 34.941406 40.112304 L 36.648438 41.256836 L 38.265625 43.057617 L 39.433594 44.991211 L 39.972656 46.573242 L 40.242188 47.936523 L 40.332031 49.737304 L 40.332031 51.713867 L 40.242188 53.647461 L 40.152344 54.702148 L 40.0625 53.780273 L 40.0625 52.112304 L 40.152344 49.651367 L 40.332031 46.924804 L 40.511719 44.331054 L 40.78125 42.045898 L 41.050781 40.729492 " transform="matrix(1,0,0,-1,0,282.588867)"/>
<path style="fill:none;stroke-width:2.26;stroke-linecap:round;stroke-linejoin:round;stroke:rgb(0%,0%,0%);stroke-opacity:1;stroke-miterlimit:10;" d="M 45.003906 46.749023 L 44.734375 46.881836 L 44.464844 46.264648 L 44.285156 44.772461 L 44.285156 42.620117 L 44.554688 40.729492 L 45.363281 39.717773 L 46.710938 40.112304 L 48.058594 41.694336 L 49.046875 43.760742 L 49.675781 45.604492 L 49.765625 46.307617 L 49.765625 45.694336 L 50.125 43.979492 L 50.484375 42.045898 L 51.113281 40.553711 L 52.191406 39.979492 " transform="matrix(1,0,0,-1,0,282.588867)"/>
<path style="fill:none;stroke-width:2.26;stroke-linecap:round;stroke-linejoin:round;stroke:rgb(0%,0%,0%);stroke-opacity:1;stroke-miterlimit:10;" d="M 57.222656 57.471679 L 56.953125 56.374023 L 56.863281 54.702148 L 56.683594 52.635742 L 56.503906 49.209961 L 56.234375 45.870117 L 56.054688 42.924804 L 55.964844 40.331054 L 56.324219 39.850586 " transform="matrix(1,0,0,-1,0,282.588867)"/>
<path style="fill:none;stroke-width:2.26;stroke-linecap:round;stroke-linejoin:round;stroke:rgb(0%,0%,0%);stroke-opacity:1;stroke-miterlimit:10;" d="M 60.726562 42.924804 L 60.457031 43.057617 L 61.265625 43.452148 L 62.34375 44.026367 L 63.601562 44.901367 L 64.589844 46.045898 L 64.949219 47.233398 L 64.5 48.155273 L 63.601562 48.463867 L 62.523438 47.979492 L 61.535156 46.487304 L 60.996094 44.377929 L 60.996094 42.311523 L 61.714844 40.729492 L 62.882812 40.026367 L 64.050781 39.850586 L 65.488281 40.245117 " transform="matrix(1,0,0,-1,0,282.588867)"/>
<path style="fill:none;stroke-width:2.26;stroke-linecap:round;stroke-linejoin:round;stroke:rgb(0%,0%,0%);stroke-opacity:1;stroke-miterlimit:10;" d="M 81.339844 49.166992 L 81.429688 49.471679 L 81.429688 49.737304 L 81.699219 49.913086 L 82.148438 49.956054 L 82.417969 49.737304 L 82.417969 49.342773 L 82.148438 48.901367 L 81.609375 48.858398 L 81.25 49.034179 L 81.25 49.342773 L 81.519531 49.561523 L 81.789062 49.561523 " transform="matrix(1,0,0,-1,0,282.588867)"/>
<path style="fill:none;stroke-width:2.26;stroke-linecap:round;stroke-linejoin:round;stroke:rgb(0%,0%,0%);stroke-opacity:1;stroke-miterlimit:10;" d="M 81.160156 43.979492 L 81.339844 44.155273 L 81.699219 43.717773 L 81.789062 43.276367 L 81.789062 42.791992 L 81.609375 42.530273 L 81.339844 42.397461 L 80.980469 42.311523 L 80.53125 42.311523 L 80.710938 42.663086 L 80.980469 42.838867 L 81.339844 43.100586 " transform="matrix(1,0,0,-1,0,282.588867)"/>
<path style="fill:none;stroke-width:2.26;stroke-linecap:round;stroke-linejoin:round;stroke:rgb(0%,0%,0%);stroke-opacity:1;stroke-miterlimit:10;" d="M 85.652344 48.948242 L 85.652344 49.209961 L 85.921875 49.342773 L 86.191406 49.428711 L 85.921875 49.342773 L 85.742188 49.604492 L 85.921875 49.913086 L 86.191406 50.174804 L 86.460938 50.221679 L 86.730469 49.956054 L 86.820312 49.651367 L 86.820312 49.209961 " transform="matrix(1,0,0,-1,0,282.588867)"/>
<path style="fill:none;stroke-width:2.26;stroke-linecap:round;stroke-linejoin:round;stroke:rgb(0%,0%,0%);stroke-opacity:1;stroke-miterlimit:10;" d="M 85.292969 43.366211 L 85.652344 43.143554 L 85.921875 42.924804 L 86.011719 42.530273 L 85.742188 42.178711 L 85.382812 42.002929 L 85.113281 42.135742 L 85.113281 42.487304 L 85.382812 42.838867 " transform="matrix(1,0,0,-1,0,282.588867)"/>
<path style="fill:none;stroke-width:2.26;stroke-linecap:round;stroke-linejoin:round;stroke:rgb(0%,0%,0%);stroke-opacity:1;stroke-miterlimit:10;" d="M 91.132812 49.428711 L 90.863281 49.561523 L 91.132812 49.561523 L 91.671875 49.518554 L 92.390625 49.471679 L 93.199219 49.428711 L 97.691406 49.428711 L 98.050781 49.342773 L 97.871094 48.991211 " transform="matrix(1,0,0,-1,0,282.588867)"/>
<path style="fill:none;stroke-width:2.26;stroke-linecap:round;stroke-linejoin:round;stroke:rgb(0%,0%,0%);stroke-opacity:1;stroke-miterlimit:10;" d="M 90.683594 44.155273 L 90.683594 43.893554 L 91.492188 43.803711 L 93.289062 43.717773 L 95.175781 43.584961 L 96.792969 43.409179 L 97.871094 43.366211 L 98.230469 43.323242 " transform="matrix(1,0,0,-1,0,282.588867)"/>
<path style="fill:none;stroke-width:2.26;stroke-linecap:round;stroke-linejoin:round;stroke:rgb(0%,0%,0%);stroke-opacity:1;stroke-miterlimit:10;" d="M 117.335938 55.920898 L 117.15625 55.217773 L 116.886719 53.944336 L 116.527344 51.702148 L 116.078125 48.932617 L 115.71875 45.858398 L 115.71875 42.651367 L 116.167969 40.100586 L 116.886719 38.256836 L 117.785156 37.112304 L 118.59375 36.850586 L 119.492188 37.159179 L 120.75 37.905273 L 122.816406 40.190429 L 124.972656 43.487304 L 126.859375 47.483398 L 128.476562 51.967773 L 129.015625 55.041992 L 129.195312 56.932617 L 128.835938 54.690429 L 128.476562 51.393554 L 128.117188 47.749023 L 128.027344 43.838867 L 128.386719 40.893554 L 128.746094 38.870117 L 129.375 37.377929 L 130.273438 37.331054 " transform="matrix(1,0,0,-1,0,282.588867)"/>
<path style="fill:none;stroke-width:2.26;stroke-linecap:round;stroke-linejoin:round;stroke:rgb(0%,0%,0%);stroke-opacity:1;stroke-miterlimit:10;" d="M 132.878906 47.354492 L 132.699219 46.780273 L 132.519531 45.245117 L 132.339844 43.088867 L 132.25 40.893554 L 132.070312 39.311523 L 131.890625 38.694336 L 132.070312 39.487304 L 132.429688 41.112304 L 133.238281 43.264648 L 134.40625 45.198242 L 135.484375 46.252929 L 136.292969 46.342773 L 136.832031 45.374023 L 136.921875 43.838867 L 136.832031 41.815429 L 136.652344 39.749023 L 136.472656 38.213867 L 136.382812 37.377929 " transform="matrix(1,0,0,-1,0,282.588867)"/>
<path style="fill:none;stroke-width:2.26;stroke-linecap:round;stroke-linejoin:round;stroke:rgb(0%,0%,0%);stroke-opacity:1;stroke-miterlimit:10;" d="M 140.605469 48.186523 L 140.425781 49.155273 L 140.425781 49.901367 L 140.875 49.506836 " transform="matrix(1,0,0,-1,0,282.588867)"/>
<path style="fill:none;stroke-width:2.26;stroke-linecap:round;stroke-linejoin:round;stroke:rgb(0%,0%,0%);stroke-opacity:1;stroke-miterlimit:10;" d="M 141.054688 44.362304 L 140.875 42.651367 L 140.695312 40.760742 L 140.605469 39.002929 L 140.515625 37.862304 L 140.785156 37.463867 " transform="matrix(1,0,0,-1,0,282.588867)"/>
<path style="fill:none;stroke-width:2.26;stroke-linecap:round;stroke-linejoin:round;stroke:rgb(0%,0%,0%);stroke-opacity:1;stroke-miterlimit:10;" d="M 148.152344 53.374023 L 148.152344 53.635742 L 148.242188 52.932617 L 148.152344 51.393554 L 147.882812 48.846679 L 147.253906 45.416992 L 146.714844 42.124023 L 146.445312 39.573242 L 146.804688 37.905273 L 147.613281 37.377929 L 148.601562 37.245117 L 149.5 37.463867 L 150.039062 38.256836 " transform="matrix(1,0,0,-1,0,282.588867)"/>
<path style="fill:none;stroke-width:2.26;stroke-linecap:round;stroke-linejoin:round;stroke:rgb(0%,0%,0%);stroke-opacity:1;stroke-miterlimit:10;" d="M 145.996094 45.065429 L 145.726562 45.374023 L 145.90625 45.682617 L 146.535156 45.901367 L 147.34375 46.034179 L 150.757812 46.034179 L 151.476562 45.991211 " transform="matrix(1,0,0,-1,0,282.588867)"/>
<path style="fill:none;stroke-width:2.26;stroke-linecap:round;stroke-linejoin:round;stroke:rgb(0%,0%,0%);stroke-opacity:1;stroke-miterlimit:10;" d="M 154.800781 55.877929 L 156.417969 55.877929 L 158.84375 55.963867 L 161.898438 56.053711 L 164.773438 56.143554 L 168.007812 56.143554 L 167.738281 56.315429 L 167.378906 56.405273 " transform="matrix(1,0,0,-1,0,282.588867)"/>
<path style="fill:none;stroke-width:2.26;stroke-linecap:round;stroke-linejoin:round;stroke:rgb(0%,0%,0%);stroke-opacity:1;stroke-miterlimit:10;" d="M 161.898438 55.217773 L 161.628906 54.956054 L 161.359375 54.295898 L 160.910156 52.319336 L 160.191406 49.155273 L 159.292969 45.245117 L 158.394531 41.112304 L 157.765625 38.342773 L 157.40625 36.807617 L 157.316406 36.190429 " transform="matrix(1,0,0,-1,0,282.588867)"/>
<path style="fill:none;stroke-width:2.26;stroke-linecap:round;stroke-linejoin:round;stroke:rgb(0%,0%,0%);stroke-opacity:1;stroke-miterlimit:10;" d="M 153.992188 36.276367 L 160.011719 36.276367 L 161.539062 36.323242 L 162.4375 36.409179 L 162.617188 36.627929 L 162.707031 36.850586 " transform="matrix(1,0,0,-1,0,282.588867)"/>
<path style="fill:none;stroke-width:2.26;stroke-linecap:round;stroke-linejoin:round;stroke:rgb(0%,0%,0%);stroke-opacity:1;stroke-miterlimit:10;" d="M 171.511719 42.342773 L 171.601562 42.827148 L 171.601562 43.487304 L 171.421875 43.706054 L 171.0625 43.967773 L 170.34375 44.233398 L 169.355469 44.276367 L 167.917969 43.749023 L 166.660156 42.784179 L 165.492188 41.729492 L 164.683594 40.627929 L 164.59375 39.530273 L 164.953125 38.565429 L 166.121094 37.991211 L 167.828125 38.124023 L 169.535156 39.002929 L 170.972656 40.276367 L 171.871094 42.651367 L 172.410156 45.288086 L 172.859375 48.276367 L 173.21875 51.350586 L 173.398438 52.846679 L 173.308594 52.010742 L 173.21875 50.471679 L 173.128906 48.319336 L 173.039062 46.342773 L 173.039062 40.803711 L 173.21875 39.088867 L 173.488281 37.639648 L 173.757812 36.499023 L 174.027344 35.971679 L 174.296875 35.924804 " transform="matrix(1,0,0,-1,0,282.588867)"/>
<path style="fill:none;stroke-width:1.41;stroke-linecap:round;stroke-linejoin:round;stroke:rgb(0%,0%,0%);stroke-opacity:1;stroke-miterlimit:10;" d="M 191.007812 50.913086 L 190.917969 50.252929 L 190.828125 49.065429 L 190.558594 47.221679 L 190.289062 45.596679 L 190.109375 44.276367 L 190.019531 43.530273 L 190.019531 42.784179 " transform="matrix(1,0,0,-1,0,282.588867)"/>
<path style="fill:none;stroke-width:1.41;stroke-linecap:round;stroke-linejoin:round;stroke:rgb(0%,0%,0%);stroke-opacity:1;stroke-miterlimit:10;" d="M 191.816406 51.702148 L 191.90625 51.350586 L 192.175781 50.252929 L 192.445312 48.889648 L 192.714844 47.573242 L 193.074219 47.045898 L 193.703125 47.573242 L 194.511719 48.760742 L 195.320312 50.166992 L 195.949219 51.307617 L 196.21875 51.573242 L 196.398438 50.956054 L 196.398438 49.944336 L 196.308594 48.143554 L 196.21875 46.077148 L 196.128906 44.409179 L 195.949219 43.002929 L 196.039062 42.342773 " transform="matrix(1,0,0,-1,0,282.588867)"/>
<path style="fill:none;stroke-width:1.41;stroke-linecap:round;stroke-linejoin:round;stroke:rgb(0%,0%,0%);stroke-opacity:1;stroke-miterlimit:10;" d="M 200.171875 47.526367 L 199.992188 47.791992 L 199.722656 47.706054 L 199.273438 47.174804 L 198.734375 46.252929 L 198.285156 45.288086 L 197.925781 44.362304 L 197.835938 43.749023 L 198.105469 43.045898 L 198.554688 42.432617 L 199.363281 41.991211 L 200.351562 41.815429 L 201.25 42.124023 L 201.878906 42.784179 L 202.058594 43.749023 L 201.96875 44.846679 L 201.699219 45.858398 L 201.429688 46.561523 L 201.160156 47.002929 " transform="matrix(1,0,0,-1,0,282.588867)"/>
<path style="fill:none;stroke-width:1.41;stroke-linecap:round;stroke-linejoin:round;stroke:rgb(0%,0%,0%);stroke-opacity:1;stroke-miterlimit:10;" d="M 207.179688 47.131836 L 206.640625 47.264648 L 205.832031 47.045898 L 205.023438 46.561523 L 204.304688 45.948242 L 203.765625 45.198242 L 203.496094 44.276367 L 203.40625 43.440429 L 203.585938 42.518554 L 204.125 41.682617 L 205.113281 41.506836 L 206.101562 41.596679 L 207.089844 42.694336 L 207.71875 44.670898 L 207.808594 47.221679 L 207.898438 49.858398 L 207.71875 51.659179 L 207.71875 52.096679 L 207.808594 51.350586 L 207.988281 50.120117 L 208.167969 48.409179 L 208.4375 46.737304 L 208.617188 44.936523 L 208.886719 43.307617 L 209.066406 42.252929 L 209.246094 41.639648 L 209.515625 41.420898 " transform="matrix(1,0,0,-1,0,282.588867)"/>
<path style="fill:none;stroke-width:1.41;stroke-linecap:round;stroke-linejoin:round;stroke:rgb(0%,0%,0%);stroke-opacity:1;stroke-miterlimit:10;" d="M 211.222656 45.948242 L 211.132812 46.299804 L 210.953125 45.331054 L 210.953125 44.100586 L 211.132812 42.737304 L 211.582031 41.901367 L 212.300781 41.901367 L 213.019531 42.432617 L 213.558594 43.221679 L 214.007812 44.010742 L 214.097656 44.846679 L 214.1875 45.596679 L 214.277344 46.034179 L 214.367188 44.846679 L 214.636719 43.354492 L 214.90625 41.948242 L 215.445312 40.893554 " transform="matrix(1,0,0,-1,0,282.588867)"/>
<path style="fill:none;stroke-width:1.41;stroke-linecap:round;stroke-linejoin:round;stroke:rgb(0%,0%,0%);stroke-opacity:1;stroke-miterlimit:10;" d="M 217.960938 50.690429 L 217.78125 50.295898 L 217.691406 48.319336 L 217.601562 45.815429 L 217.601562 41.772461 " transform="matrix(1,0,0,-1,0,282.588867)"/>
<path style="fill:none;stroke-width:1.41;stroke-linecap:round;stroke-linejoin:round;stroke:rgb(0%,0%,0%);stroke-opacity:1;stroke-miterlimit:10;" d="M 221.105469 43.440429 L 221.375 43.616211 L 222.183594 43.881836 L 223.082031 44.319336 L 223.980469 44.846679 L 224.429688 45.288086 L 224.519531 45.682617 L 224.429688 46.166992 L 223.980469 46.737304 L 223.261719 47.131836 L 222.183594 47.221679 L 221.195312 46.913086 L 220.386719 46.299804 L 219.847656 45.155273 L 219.757812 43.706054 L 220.027344 42.124023 L 220.746094 40.674804 L 221.914062 39.881836 L 222.992188 39.838867 L 224.070312 40.409179 " transform="matrix(1,0,0,-1,0,282.588867)"/>
<path style="fill:none;stroke-width:1.41;stroke-linecap:round;stroke-linejoin:round;stroke:rgb(0%,0%,0%);stroke-opacity:1;stroke-miterlimit:10;" d="M 226.316406 40.584961 L 226.136719 40.233398 L 226.136719 40.627929 L 226.226562 41.198242 L 226.40625 41.901367 L 226.855469 43.881836 L 227.214844 46.252929 L 227.664062 48.538086 L 228.023438 50.338867 L 228.292969 50.647461 L 228.5625 49.592773 L 229.101562 47.659179 L 229.820312 45.065429 L 230.71875 42.651367 L 231.4375 41.069336 L 231.976562 40.495117 L 232.246094 40.936523 L 232.425781 41.682617 L 232.605469 42.475586 L 232.695312 43.397461 L 232.785156 44.452148 L 232.964844 45.948242 L 233.054688 47.526367 L 233.144531 49.112304 L 233.234375 50.604492 L 233.324219 51.573242 L 233.414062 52.229492 L 233.503906 52.627929 L 233.773438 52.448242 L 234.042969 51.791992 " transform="matrix(1,0,0,-1,0,282.588867)"/>
<path style="fill:none;stroke-width:1.41;stroke-linecap:round;stroke-linejoin:round;stroke:rgb(0%,0%,0%);stroke-opacity:1;stroke-miterlimit:10;" d="M 236.109375 47.706054 L 236.019531 48.186523 L 236.019531 48.846679 L 236.378906 49.198242 L 237.1875 49.065429 L 238.085938 48.409179 L 238.804688 47.131836 L 239.253906 45.374023 L 239.253906 43.749023 L 239.164062 42.694336 L 239.074219 42.209961 L 239.074219 42.956054 L 238.804688 43.706054 L 238.535156 44.409179 L 238.085938 44.846679 L 237.636719 45.022461 L 237.097656 44.846679 L 236.46875 44.143554 L 235.929688 43.088867 L 235.929688 41.901367 L 236.378906 41.069336 L 237.367188 40.979492 L 238.445312 41.331054 L 239.703125 42.034179 " transform="matrix(1,0,0,-1,0,282.588867)"/>
<path style="fill:none;stroke-width:1.41;stroke-linecap:round;stroke-linejoin:round;stroke:rgb(0%,0%,0%);stroke-opacity:1;stroke-miterlimit:10;" d="M 241.5 45.768554 L 241.320312 45.155273 L 241.320312 44.190429 L 241.230469 43.002929 L 241.230469 42.342773 L 241.589844 43.307617 L 242.128906 45.065429 L 242.9375 46.561523 L 243.746094 47.526367 L 244.375 47.264648 L 244.644531 45.901367 L 244.734375 44.452148 L 244.824219 43.264648 L 245.542969 44.452148 L 246.53125 46.077148 L 247.519531 47.174804 L 248.417969 47.174804 L 248.777344 45.725586 L 248.867188 43.881836 L 248.777344 42.342773 L 248.777344 41.420898 L 248.6875 41.069336 " transform="matrix(1,0,0,-1,0,282.588867)"/>
<path style="fill:none;stroke-width:1.41;stroke-linecap:round;stroke-linejoin:round;stroke:rgb(0%,0%,0%);stroke-opacity:1;stroke-miterlimit:10;" d="M 252.640625 44.409179 L 252.371094 44.409179 L 252.820312 44.276367 L 253.269531 44.409179 L 254.078125 44.893554 L 254.886719 45.768554 L 255.425781 46.870117 L 255.695312 47.967773 L 255.605469 48.713867 L 255.246094 49.241211 L 254.617188 49.416992 L 254.167969 49.284179 L 253.449219 48.846679 L 252.820312 47.967773 L 252.28125 46.870117 L 251.742188 45.506836 L 251.382812 44.100586 L 251.292969 42.870117 L 251.5625 41.815429 L 252.28125 41.026367 L 253.269531 40.674804 L 254.257812 40.627929 L 255.066406 40.717773 L 255.425781 40.936523 L 255.605469 41.112304 " transform="matrix(1,0,0,-1,0,282.588867)"/>
<path style="fill:none;stroke-width:2.26;stroke-linecap:round;stroke-linejoin:round;stroke:rgb(0%,0%,0%);stroke-opacity:1;stroke-miterlimit:10;" d="M 257.851562 76.577148 L 257.640625 70.952148 L 257.433594 65.327148 L 257.222656 59.702148 " transform="matrix(1,0,0,-1,0,282.588867)"/>
<path style="fill:none;stroke-width:2.26;stroke-linecap:round;stroke-linejoin:round;stroke:rgb(0%,0%,0%);stroke-opacity:1;stroke-miterlimit:10;" d="M 257.3125 59.350586 L 264.5 59.217773 " transform="matrix(1,0,0,-1,0,282.588867)"/>
<path style="fill:none;stroke-width:2.26;stroke-linecap:round;stroke-linejoin:round;stroke:rgb(0%,0%,0%);stroke-opacity:1;stroke-miterlimit:10;" d="M 264.5 59.217773 L 264.445312 53.987304 L 264.390625 48.760742 L 264.339844 43.530273 L 264.230469 33.069336 " transform="matrix(1,0,0,-1,0,282.588867)"/>
<path style="fill:none;stroke-width:2.26;stroke-linecap:round;stroke-linejoin:round;stroke:rgb(0%,0%,0%);stroke-opacity:1;stroke-miterlimit:10;" d="M 264.050781 33.112304 L 256.144531 32.499023 " transform="matrix(1,0,0,-1,0,282.588867)"/>
<path style="fill:none;stroke-width:2.26;stroke-linecap:round;stroke-linejoin:round;stroke:rgb(0%,0%,0%);stroke-opacity:1;stroke-miterlimit:10;" d="M 256.59375 32.631836 L 256.503906 25.963867 L 256.324219 12.635742 " transform="matrix(1,0,0,-1,0,282.588867)"/>
<path style="fill:none;stroke-width:1.41;stroke-linecap:round;stroke-linejoin:round;stroke:rgb(0%,0%,0%);stroke-opacity:1;stroke-miterlimit:10;" d="M 309.957031 57.374023 L 310.136719 57.596679 L 310.226562 57.288086 L 310.316406 56.190429 L 310.40625 53.682617 L 310.316406 50.299804 L 310.226562 46.870117 L 310.136719 44.237304 L 310.046875 43.002929 L 310.046875 42.651367 L 310.046875 43.182617 L 310.136719 43.663086 " transform="matrix(1,0,0,-1,0,282.588867)"/>
<path style="fill:none;stroke-width:1.41;stroke-linecap:round;stroke-linejoin:round;stroke:rgb(0%,0%,0%);stroke-opacity:1;stroke-miterlimit:10;" d="M 310.855469 54.913086 L 310.765625 55.307617 L 311.304688 54.956054 L 312.023438 53.639648 L 312.652344 52.190429 L 313.371094 50.608398 L 314 48.979492 L 314.269531 47.971679 L 314.628906 47.178711 L 314.898438 46.784179 L 315.257812 46.916992 L 315.707031 48.190429 L 316.335938 50.256836 L 317.054688 52.584961 L 317.683594 54.784179 L 318.3125 56.495117 L 318.582031 57.374023 L 318.851562 57.463867 L 319.03125 56.760742 L 319.03125 55.530273 L 319.121094 53.991211 L 319.210938 52.627929 L 319.210938 48.499023 L 319.300781 46.166992 L 319.300781 44.057617 L 319.390625 43.049804 L 319.480469 42.651367 L 319.570312 42.874023 " transform="matrix(1,0,0,-1,0,282.588867)"/>
<path style="fill:none;stroke-width:1.41;stroke-linecap:round;stroke-linejoin:round;stroke:rgb(0%,0%,0%);stroke-opacity:1;stroke-miterlimit:10;" d="M 324.601562 49.112304 L 324.691406 49.420898 L 324.601562 49.862304 L 324.421875 50.034179 L 324.0625 49.815429 L 323.523438 49.377929 L 322.984375 48.499023 L 322.625 47.221679 L 322.625 45.815429 L 323.164062 44.631836 L 324.242188 43.838867 L 325.679688 43.752929 L 326.847656 44.280273 L 327.65625 45.159179 L 328.015625 46.038086 L 328.015625 46.959961 L 327.925781 47.663086 L 327.746094 48.190429 L 327.296875 48.893554 L 326.757812 49.463867 L 326.21875 49.948242 L 325.679688 50.342773 L 325.410156 50.432617 " transform="matrix(1,0,0,-1,0,282.588867)"/>
<path style="fill:none;stroke-width:1.41;stroke-linecap:round;stroke-linejoin:round;stroke:rgb(0%,0%,0%);stroke-opacity:1;stroke-miterlimit:10;" d="M 332.867188 49.069336 L 332.6875 49.377929 L 332.238281 49.682617 L 331.789062 49.815429 L 331.160156 49.682617 L 330.441406 49.069336 L 329.992188 47.971679 L 329.632812 46.608398 L 329.542969 45.377929 L 329.8125 44.366211 L 330.261719 43.838867 L 330.710938 43.534179 L 331.699219 43.752929 L 332.6875 44.409179 L 333.585938 45.291992 L 334.484375 46.608398 L 334.84375 47.838867 L 334.84375 49.682617 L 334.664062 51.924804 L 334.304688 53.901367 L 333.945312 55.440429 L 333.675781 55.881836 L 333.675781 55.530273 L 333.945312 53.815429 L 334.394531 51.440429 L 335.113281 48.717773 L 335.742188 46.256836 L 336.28125 44.850586 L 336.550781 44.456054 " transform="matrix(1,0,0,-1,0,282.588867)"/>
<path style="fill:none;stroke-width:1.41;stroke-linecap:round;stroke-linejoin:round;stroke:rgb(0%,0%,0%);stroke-opacity:1;stroke-miterlimit:10;" d="M 339.515625 49.862304 L 339.066406 50.081054 L 338.707031 49.553711 L 338.707031 48.190429 L 338.886719 46.432617 L 339.515625 44.850586 L 340.414062 44.190429 L 341.402344 44.631836 L 342.210938 46.038086 L 342.660156 47.663086 L 342.75 49.026367 L 342.75 49.463867 L 342.839844 48.717773 L 343.289062 47.092773 L 343.917969 45.245117 L 344.546875 43.885742 L 345.265625 43.444336 " transform="matrix(1,0,0,-1,0,282.588867)"/>
<path style="fill:none;stroke-width:1.41;stroke-linecap:round;stroke-linejoin:round;stroke:rgb(0%,0%,0%);stroke-opacity:1;stroke-miterlimit:10;" d="M 346.972656 56.541992 L 346.882812 56.760742 L 346.882812 56.495117 L 347.0625 55.659179 L 347.242188 53.069336 L 347.511719 50.213867 L 347.691406 47.444336 L 347.871094 45.069336 L 347.871094 44.366211 L 347.960938 43.885742 L 348.230469 43.928711 " transform="matrix(1,0,0,-1,0,282.588867)"/>
<path style="fill:none;stroke-width:1.41;stroke-linecap:round;stroke-linejoin:round;stroke:rgb(0%,0%,0%);stroke-opacity:1;stroke-miterlimit:10;" d="M 350.65625 45.686523 L 351.375 46.081054 L 352.183594 46.565429 L 353.171875 47.311523 L 353.980469 48.190429 L 354.339844 49.202148 L 354.25 50.081054 L 353.890625 50.694336 L 353.171875 51.002929 L 352.273438 50.565429 L 351.375 49.905273 L 350.566406 49.069336 L 350.117188 47.573242 L 350.386719 46.038086 L 351.105469 44.588867 L 352.273438 43.487304 L 353.441406 43.225586 L 354.25 43.401367 L 354.878906 43.838867 " transform="matrix(1,0,0,-1,0,282.588867)"/>
<path style="fill:none;stroke-width:1.41;stroke-linecap:round;stroke-linejoin:round;stroke:rgb(0%,0%,0%);stroke-opacity:1;stroke-miterlimit:10;" d="M 357.214844 45.686523 L 357.214844 45.377929 L 357.304688 44.940429 L 357.304688 44.499023 L 357.664062 44.940429 L 357.84375 46.166992 L 357.933594 48.499023 L 357.933594 51.311523 L 357.84375 53.948242 L 357.933594 55.530273 L 358.203125 55.440429 L 358.652344 54.385742 L 359.550781 52.143554 L 360.808594 49.553711 L 361.976562 47.444336 L 363.144531 45.596679 L 363.863281 44.807617 L 364.222656 45.069336 L 364.402344 46.432617 L 364.582031 48.760742 L 364.851562 51.749023 L 364.941406 54.432617 L 365.03125 56.190429 L 365.03125 56.979492 L 365.390625 57.112304 " transform="matrix(1,0,0,-1,0,282.588867)"/>
<path style="fill:none;stroke-width:1.41;stroke-linecap:round;stroke-linejoin:round;stroke:rgb(0%,0%,0%);stroke-opacity:1;stroke-miterlimit:10;" d="M 368.175781 52.584961 L 368.445312 53.198242 L 368.894531 53.596679 L 369.613281 53.596679 L 370.421875 52.936523 L 370.960938 51.530273 L 371.230469 49.596679 L 371.320312 47.706054 L 371.320312 45.686523 L 371.410156 46.081054 L 371.5 46.518554 L 371.410156 46.870117 L 371.230469 47.444336 L 370.601562 48.104492 L 369.703125 48.584961 L 368.625 48.627929 L 367.546875 48.190429 L 366.828125 47.354492 L 366.378906 46.608398 L 366.289062 46.038086 L 366.289062 45.596679 L 366.738281 45.159179 L 367.636719 44.850586 L 368.804688 44.760742 L 369.972656 44.850586 L 370.871094 45.202148 L 371.769531 46.124023 " transform="matrix(1,0,0,-1,0,282.588867)"/>
<path style="fill:none;stroke-width:1.41;stroke-linecap:round;stroke-linejoin:round;stroke:rgb(0%,0%,0%);stroke-opacity:1;stroke-miterlimit:10;" d="M 375.09375 46.213867 L 375.003906 45.772461 L 374.644531 46.124023 L 374.554688 47.092773 L 374.734375 48.936523 L 375.183594 50.870117 L 375.8125 52.276367 L 376.53125 52.760742 L 377.160156 51.791992 L 377.519531 50.299804 L 377.789062 48.850586 L 377.96875 47.178711 L 378.148438 46.870117 L 378.417969 47.752929 L 378.777344 49.377929 L 379.316406 51.530273 L 379.855469 53.155273 L 380.304688 53.858398 L 380.84375 53.463867 L 381.472656 51.881836 L 381.742188 49.510742 L 382.011719 47.092773 L 382.011719 45.245117 L 381.832031 44.499023 L 382.28125 44.760742 " transform="matrix(1,0,0,-1,0,282.588867)"/>
<path style="fill:none;stroke-width:1.41;stroke-linecap:round;stroke-linejoin:round;stroke:rgb(0%,0%,0%);stroke-opacity:1;stroke-miterlimit:10;" d="M 386.683594 47.620117 L 387.3125 47.752929 L 388.300781 48.456054 L 389.199219 49.377929 L 390.007812 50.475586 L 390.367188 51.311523 L 390.457031 51.881836 L 390.457031 52.366211 L 390.277344 52.893554 L 389.917969 53.288086 L 389.46875 53.596679 L 388.839844 53.639648 L 388.03125 53.331054 L 387.3125 52.803711 L 386.503906 51.663086 L 386.054688 49.772461 L 386.324219 47.752929 L 387.132812 45.729492 L 388.570312 44.541992 L 389.917969 44.280273 L 390.996094 44.499023 L 391.804688 45.069336 " transform="matrix(1,0,0,-1,0,282.588867)"/>
<path style="fill:none;stroke-width:2.26;stroke-linecap:round;stroke-linejoin:round;stroke:rgb(0%,0%,0%);stroke-opacity:1;stroke-miterlimit:10;" d="M 287.496094 66.694336 L 287.523438 61.174804 L 287.546875 55.659179 L 287.574219 50.139648 L 287.597656 44.620117 L 287.625 39.104492 L 287.648438 33.584961 L 287.675781 28.065429 " transform="matrix(1,0,0,-1,0,282.588867)"/>
<path style="fill:none;stroke-width:2.26;stroke-linecap:round;stroke-linejoin:round;stroke:rgb(0%,0%,0%);stroke-opacity:1;stroke-miterlimit:10;" d="M 14.285156 208.370117 L 14.105469 207.666992 L 13.835938 206.389648 L 13.476562 204.151367 L 13.027344 201.381836 L 12.667969 198.303711 L 12.667969 195.096679 L 13.117188 192.549804 L 13.835938 190.702148 L 14.734375 189.557617 L 15.542969 189.295898 L 16.441406 189.604492 L 17.699219 190.350586 L 19.765625 192.635742 L 21.921875 195.932617 L 23.808594 199.932617 L 25.425781 204.413086 L 25.964844 207.487304 L 26.144531 209.377929 L 25.785156 207.135742 L 25.425781 203.842773 L 25.066406 200.194336 L 24.976562 196.284179 L 25.335938 193.338867 L 25.695312 191.315429 L 26.324219 189.823242 L 27.222656 189.780273 " transform="matrix(1,0,0,-1,0,282.588867)"/>
<path style="fill:none;stroke-width:2.26;stroke-linecap:round;stroke-linejoin:round;stroke:rgb(0%,0%,0%);stroke-opacity:1;stroke-miterlimit:10;" d="M 29.828125 199.799804 L 29.648438 199.229492 L 29.46875 197.690429 L 29.289062 195.534179 L 29.199219 193.338867 L 29.019531 191.756836 L 28.839844 191.143554 L 29.019531 191.932617 L 29.378906 193.557617 L 30.1875 195.713867 L 31.355469 197.643554 L 32.433594 198.698242 L 33.242188 198.788086 L 33.78125 197.823242 L 33.871094 196.284179 L 33.78125 194.260742 L 33.601562 192.198242 L 33.421875 190.659179 L 33.332031 189.823242 " transform="matrix(1,0,0,-1,0,282.588867)"/>
<path style="fill:none;stroke-width:2.26;stroke-linecap:round;stroke-linejoin:round;stroke:rgb(0%,0%,0%);stroke-opacity:1;stroke-miterlimit:10;" d="M 37.554688 200.635742 L 37.375 201.600586 L 37.375 202.346679 L 37.824219 201.952148 " transform="matrix(1,0,0,-1,0,282.588867)"/>
<path style="fill:none;stroke-width:2.26;stroke-linecap:round;stroke-linejoin:round;stroke:rgb(0%,0%,0%);stroke-opacity:1;stroke-miterlimit:10;" d="M 38.003906 196.811523 L 37.824219 195.096679 L 37.644531 193.206054 L 37.554688 191.448242 L 37.464844 190.307617 L 37.734375 189.909179 " transform="matrix(1,0,0,-1,0,282.588867)"/>
<path style="fill:none;stroke-width:2.26;stroke-linecap:round;stroke-linejoin:round;stroke:rgb(0%,0%,0%);stroke-opacity:1;stroke-miterlimit:10;" d="M 45.101562 205.819336 L 45.101562 206.081054 L 45.191406 205.377929 L 45.101562 203.842773 L 44.832031 201.291992 L 44.203125 197.866211 L 43.664062 194.569336 L 43.394531 192.018554 L 43.753906 190.350586 L 44.5625 189.823242 L 45.550781 189.690429 L 46.449219 189.909179 L 46.988281 190.702148 " transform="matrix(1,0,0,-1,0,282.588867)"/>
<path style="fill:none;stroke-width:2.26;stroke-linecap:round;stroke-linejoin:round;stroke:rgb(0%,0%,0%);stroke-opacity:1;stroke-miterlimit:10;" d="M 42.945312 197.514648 L 42.675781 197.823242 L 42.855469 198.127929 L 43.484375 198.346679 L 44.292969 198.479492 L 47.707031 198.479492 L 48.425781 198.436523 " transform="matrix(1,0,0,-1,0,282.588867)"/>
<path style="fill:none;stroke-width:2.26;stroke-linecap:round;stroke-linejoin:round;stroke:rgb(0%,0%,0%);stroke-opacity:1;stroke-miterlimit:10;" d="M 51.75 208.323242 L 53.367188 208.323242 L 55.792969 208.413086 L 58.847656 208.499023 L 61.722656 208.588867 L 64.957031 208.588867 L 64.6875 208.764648 L 64.328125 208.850586 " transform="matrix(1,0,0,-1,0,282.588867)"/>
<path style="fill:none;stroke-width:2.26;stroke-linecap:round;stroke-linejoin:round;stroke:rgb(0%,0%,0%);stroke-opacity:1;stroke-miterlimit:10;" d="M 58.847656 207.666992 L 58.578125 207.401367 L 58.308594 206.741211 L 57.859375 204.764648 L 57.140625 201.600586 L 56.242188 197.690429 L 55.34375 193.557617 L 54.714844 190.791992 L 54.355469 189.252929 L 54.265625 188.635742 " transform="matrix(1,0,0,-1,0,282.588867)"/>
<path style="fill:none;stroke-width:2.26;stroke-linecap:round;stroke-linejoin:round;stroke:rgb(0%,0%,0%);stroke-opacity:1;stroke-miterlimit:10;" d="M 50.941406 188.725586 L 56.960938 188.725586 L 58.488281 188.768554 L 59.386719 188.854492 L 59.566406 189.077148 L 59.65625 189.295898 " transform="matrix(1,0,0,-1,0,282.588867)"/>
<path style="fill:none;stroke-width:2.26;stroke-linecap:round;stroke-linejoin:round;stroke:rgb(0%,0%,0%);stroke-opacity:1;stroke-miterlimit:10;" d="M 68.460938 194.788086 L 68.550781 195.272461 L 68.550781 195.932617 L 68.371094 196.151367 L 68.011719 196.416992 L 67.292969 196.678711 L 66.304688 196.721679 L 64.867188 196.194336 L 63.609375 195.229492 L 62.441406 194.174804 L 61.632812 193.073242 L 61.542969 191.975586 L 61.902344 191.010742 L 63.070312 190.440429 L 64.777344 190.569336 L 66.484375 191.448242 L 67.921875 192.721679 L 68.820312 195.096679 L 69.359375 197.733398 L 69.808594 200.721679 L 70.167969 203.799804 L 70.347656 205.291992 L 70.257812 204.456054 L 70.167969 202.916992 L 70.078125 200.764648 L 69.988281 198.788086 L 69.988281 193.252929 L 70.167969 191.538086 L 70.4375 190.088867 L 70.707031 188.944336 L 70.976562 188.416992 L 71.246094 188.374023 " transform="matrix(1,0,0,-1,0,282.588867)"/>
<path style="fill:none;stroke-width:2.26;stroke-linecap:round;stroke-linejoin:round;stroke:rgb(0%,0%,0%);stroke-opacity:1;stroke-miterlimit:10;" d="M 149.050781 74.768554 L 154.1875 74.807617 L 159.328125 74.846679 L 164.464844 74.889648 L 169.605469 74.928711 L 179.878906 75.006836 L 185.019531 75.045898 L 190.15625 75.084961 L 195.292969 75.127929 L 200.433594 75.166992 L 205.570312 75.206054 L 210.710938 75.245117 L 220.984375 75.323242 L 226.125 75.366211 L 236.398438 75.444336 L 241.539062 75.483398 L 246.675781 75.522461 L 251.816406 75.565429 L 256.953125 75.604492 " transform="matrix(1,0,0,-1,0,282.588867)"/>
<path style="fill:none;stroke-width:2.26;stroke-linecap:round;stroke-linejoin:round;stroke:rgb(0%,0%,0%);stroke-opacity:1;stroke-miterlimit:10;" d="M 150.308594 13.862304 L 202.730469 13.706054 L 207.976562 13.690429 L 234.1875 13.612304 L 239.429688 13.600586 L 255.15625 13.553711 " transform="matrix(1,0,0,-1,0,282.588867)"/>
<path style="fill:none;stroke-width:2.26;stroke-linecap:round;stroke-linejoin:round;stroke:rgb(0%,0%,0%);stroke-opacity:1;stroke-miterlimit:10;" d="M 342.933594 264.041992 L 342.84375 263.557617 L 342.304688 262.768554 L 341.585938 261.799804 L 340.6875 260.612304 L 339.878906 259.514648 L 339.339844 258.811523 L 338.621094 257.975586 L 337.992188 257.186523 L 337.273438 256.174804 L 336.554688 254.811523 L 335.925781 253.186523 L 335.296875 250.682617 L 334.9375 247.823242 L 334.847656 244.749023 L 335.296875 241.584961 L 336.464844 238.905273 L 338.261719 236.620117 L 340.867188 234.245117 L 343.472656 232.182617 L 346.167969 230.073242 L 348.863281 227.831054 L 351.199219 225.631836 L 353.265625 223.303711 L 355.152344 220.624023 L 356.410156 217.811523 L 357.21875 214.866211 L 357.398438 211.702148 L 357.21875 208.756836 L 356.679688 205.987304 L 355.871094 203.131836 L 354.882812 200.584961 L 353.625 198.124023 L 352.007812 195.440429 L 350.480469 193.069336 L 349.042969 190.784179 L 347.875 188.541992 L 347.066406 186.432617 L 346.347656 184.147461 L 345.898438 181.334961 L 345.628906 178.479492 L 345.449219 175.624023 L 345.71875 172.987304 L 346.257812 170.659179 L 347.15625 168.459961 L 348.324219 166.350586 L 349.761719 164.151367 L 351.289062 162.174804 L 352.816406 160.284179 L 354.433594 158.354492 L 355.871094 156.596679 L 357.21875 154.791992 L 358.386719 152.729492 L 359.015625 150.663086 L 359.375 148.553711 L 359.375 146.178711 L 359.015625 143.893554 L 358.566406 141.522461 L 357.757812 138.971679 L 356.859375 136.643554 L 355.691406 134.577148 L 354.34375 132.643554 L 352.90625 131.151367 L 349.851562 128.424804 L 348.503906 127.327148 L 347.246094 126.362304 L 346.167969 125.393554 L 345.179688 124.471679 L 344.191406 123.416992 L 343.113281 122.096679 L 342.214844 120.780273 L 341.496094 119.331054 L 340.867188 117.791992 L 340.417969 116.338867 L 340.238281 114.846679 L 340.238281 113.307617 L 340.507812 111.901367 L 340.867188 110.713867 L 341.316406 109.838867 L 341.496094 109.264648 L 341.675781 108.913086 L 341.765625 108.651367 " transform="matrix(1,0,0,-1,0,282.588867)"/>
<path style="fill:none;stroke-width:2.26;stroke-linecap:round;stroke-linejoin:round;stroke:rgb(0%,0%,0%);stroke-opacity:1;stroke-miterlimit:10;" d="M 149.050781 74.682617 L 148.421875 74.151367 L 147.882812 73.627929 L 147.074219 73.053711 L 146.355469 72.440429 L 145.726562 71.956054 L 145.097656 71.338867 L 144.558594 70.592773 L 144.199219 69.803711 L 143.839844 69.057617 L 143.570312 68.221679 L 143.480469 67.428711 L 143.480469 66.639648 L 143.660156 65.713867 L 144.019531 64.791992 L 144.378906 64.088867 L 144.828125 63.432617 L 145.1875 62.948242 L 145.367188 62.682617 " transform="matrix(1,0,0,-1,0,282.588867)"/>
<path style="fill:none;stroke-width:2.26;stroke-linecap:round;stroke-linejoin:round;stroke:rgb(0%,0%,0%);stroke-opacity:1;stroke-miterlimit:10;" d="M 151.207031 14.784179 L 151.117188 14.518554 L 151.296875 14.827148 L 151.746094 15.178711 L 152.464844 15.706054 L 153.363281 16.366211 L 154.351562 17.245117 L 155.25 17.991211 L 156.058594 18.827148 L 156.867188 19.706054 L 157.40625 20.584961 L 158.035156 21.682617 L 158.394531 22.694336 L 158.664062 23.659179 L 158.84375 24.495117 L 158.84375 25.331054 L 158.574219 26.166992 L 158.304688 26.999023 L 157.855469 27.924804 L 157.496094 28.581054 L 157.136719 29.065429 L 156.957031 29.284179 L 156.597656 29.459961 " transform="matrix(1,0,0,-1,0,282.588867)"/>
<path style="fill:none;stroke-width:2.26;stroke-linecap:round;stroke-linejoin:round;stroke:rgb(0%,0%,0%);stroke-opacity:1;stroke-miterlimit:10;" d="M 199.453125 232.752929 L 200.261719 233.413086 L 201.160156 234.338867 L 202.238281 235.346679 L 203.226562 236.182617 L 203.675781 236.096679 L 203.765625 235.084961 L 203.675781 233.237304 L 203.40625 231.217773 L 203.226562 229.588867 L 203.136719 228.666992 L 203.046875 228.315429 " transform="matrix(1,0,0,-1,0,282.588867)"/>
<path style="fill:none;stroke-width:2.26;stroke-linecap:round;stroke-linejoin:round;stroke:rgb(0%,0%,0%);stroke-opacity:1;stroke-miterlimit:10;" d="M 199.902344 227.174804 L 200.621094 227.307617 L 201.699219 227.393554 L 203.046875 227.479492 L 204.304688 227.526367 L 205.203125 227.526367 L 205.742188 227.569336 L 206.011719 227.702148 L 206.191406 227.877929 " transform="matrix(1,0,0,-1,0,282.588867)"/>
<path style="fill:none;stroke-width:2.26;stroke-linecap:round;stroke-linejoin:round;stroke:rgb(0%,0%,0%);stroke-opacity:1;stroke-miterlimit:10;" d="M 200.351562 121.178711 L 200.53125 121.002929 L 200.53125 116.737304 L 200.441406 115.948242 L 200.441406 115.553711 L 200.441406 115.948242 L 200.710938 116.916992 L 201.160156 118.276367 L 201.96875 119.682617 L 202.867188 120.651367 L 203.855469 120.870117 L 204.574219 120.342773 L 204.933594 119.069336 L 205.023438 117.620117 L 204.933594 116.475586 L 204.933594 115.682617 L 205.023438 115.245117 L 205.292969 114.893554 L 205.5625 114.760742 L 205.832031 114.717773 L 206.191406 114.674804 L 206.460938 114.717773 " transform="matrix(1,0,0,-1,0,282.588867)"/>
<path style="fill:none;stroke-width:1.41;stroke-linecap:round;stroke-linejoin:round;stroke:rgb(0%,0%,0%);stroke-opacity:1;stroke-miterlimit:10;" d="M 312.296875 239.170898 L 312.925781 239.565429 L 313.644531 240.135742 L 314.273438 240.709961 L 314.8125 240.666992 L 314.992188 239.612304 L 315.082031 237.983398 L 315.082031 234.467773 " transform="matrix(1,0,0,-1,0,282.588867)"/>
<path style="fill:none;stroke-width:1.41;stroke-linecap:round;stroke-linejoin:round;stroke:rgb(0%,0%,0%);stroke-opacity:1;stroke-miterlimit:10;" d="M 311.9375 233.854492 L 311.667969 234.030273 L 312.207031 234.073242 L 313.375 234.030273 L 314.902344 233.940429 L 316.339844 233.897461 L 317.148438 233.940429 L 317.597656 233.940429 " transform="matrix(1,0,0,-1,0,282.588867)"/>
<path style="fill:none;stroke-width:1.41;stroke-linecap:round;stroke-linejoin:round;stroke:rgb(0%,0%,0%);stroke-opacity:1;stroke-miterlimit:10;" d="M 312.925781 126.627929 L 312.925781 124.870117 L 312.746094 123.549804 L 312.65625 122.541992 L 312.65625 122.057617 L 313.015625 123.065429 L 313.554688 124.299804 L 314.363281 125.573242 L 315.261719 126.452148 L 316.070312 126.670898 L 316.609375 126.362304 L 316.878906 125.483398 L 316.878906 123.155273 L 317.058594 121.967773 L 317.328125 121.178711 L 317.777344 120.737304 L 318.226562 120.561523 L 318.496094 120.651367 L 318.675781 120.956054 " transform="matrix(1,0,0,-1,0,282.588867)"/>
<path style="fill:none;stroke-width:1.41;stroke-linecap:round;stroke-linejoin:round;stroke:rgb(0%,0%,0%);stroke-opacity:1;stroke-miterlimit:10;" d="M 309.152344 186.706054 L 309.152344 186.268554 L 309.242188 185.737304 L 309.421875 185.299804 L 309.691406 184.905273 L 309.871094 184.729492 L 310.050781 185.034179 L 310.050781 185.565429 " transform="matrix(1,0,0,-1,0,282.588867)"/>
</g>
</svg>
