<?xml version="1.0" encoding="UTF-8"?>
<svg xmlns="http://www.w3.org/2000/svg" xmlns:xlink="http://www.w3.org/1999/xlink" width="517.77pt" height="186.75pt" viewBox="0 0 517.77 186.75" version="1.1">
<g id="surface1">
<path style="fill:none;stroke-width:2.26;stroke-linecap:round;stroke-linejoin:round;stroke:rgb(100%,0%,0%);stroke-opacity:1;stroke-miterlimit:10;" d="M 151.191406 138.398438 L 151.238281 132.441406 L 151.28125 126.488281 " transform="matrix(1,0,0,-1,0,186.75)"/>
<path style="fill:none;stroke-width:2.26;stroke-linecap:round;stroke-linejoin:round;stroke:rgb(100%,0%,0%);stroke-opacity:1;stroke-miterlimit:10;" d="M 151.28125 126.398438 L 157.75 126.269531 " transform="matrix(1,0,0,-1,0,186.75)"/>
<path style="fill:none;stroke-width:2.26;stroke-linecap:round;stroke-linejoin:round;stroke:rgb(100%,0%,0%);stroke-opacity:1;stroke-miterlimit:10;" d="M 157.839844 126.179688 L 157.78125 119.691406 L 157.71875 113.199219 L 157.660156 106.710938 " transform="matrix(1,0,0,-1,0,186.75)"/>
<path style="fill:none;stroke-width:2.26;stroke-linecap:round;stroke-linejoin:round;stroke:rgb(100%,0%,0%);stroke-opacity:1;stroke-miterlimit:10;" d="M 157.660156 106.710938 L 151.640625 106.980469 " transform="matrix(1,0,0,-1,0,186.75)"/>
<path style="fill:none;stroke-width:2.26;stroke-linecap:round;stroke-linejoin:round;stroke:rgb(100%,0%,0%);stroke-opacity:1;stroke-miterlimit:10;" d="M 151.910156 106.890625 L 152 100.558594 L 152.089844 94.230469 L 152.179688 87.898438 " transform="matrix(1,0,0,-1,0,186.75)"/>
<path style="fill:none;stroke-width:2.26;stroke-linecap:round;stroke-linejoin:round;stroke:rgb(100%,0%,0%);stroke-opacity:1;stroke-miterlimit:10;" d="M 152.179688 87.328125 L 158.558594 87.378906 " transform="matrix(1,0,0,-1,0,186.75)"/>
<path style="fill:none;stroke-width:2.26;stroke-linecap:round;stroke-linejoin:round;stroke:rgb(100%,0%,0%);stroke-opacity:1;stroke-miterlimit:10;" d="M 158.46875 87.328125 L 158.359375 82.011719 L 158.25 76.699219 L 158.128906 71.378906 L 158.019531 66.058594 " transform="matrix(1,0,0,-1,0,186.75)"/>
<path style="fill:none;stroke-width:2.26;stroke-linecap:round;stroke-linejoin:round;stroke:rgb(100%,0%,0%);stroke-opacity:1;stroke-miterlimit:10;" d="M 157.839844 64.300781 L 152.539062 64.390625 " transform="matrix(1,0,0,-1,0,186.75)"/>
<path style="fill:none;stroke-width:2.26;stroke-linecap:round;stroke-linejoin:round;stroke:rgb(100%,0%,0%);stroke-opacity:1;stroke-miterlimit:10;" d="M 152.089844 64.339844 L 152.03125 58.511719 L 151.96875 52.679688 L 151.910156 46.851562 " transform="matrix(1,0,0,-1,0,186.75)"/>
<path style="fill:none;stroke-width:2.26;stroke-linecap:round;stroke-linejoin:round;stroke:rgb(100%,0%,0%);stroke-opacity:1;stroke-miterlimit:10;" d="M 152.808594 46.421875 L 158.039062 46.429688 L 163.269531 46.449219 L 168.488281 46.460938 L 178.949219 46.5 L 184.179688 46.511719 L 189.398438 46.53125 L 194.628906 46.539062 L 199.859375 46.558594 L 205.078125 46.570312 L 210.308594 46.589844 " transform="matrix(1,0,0,-1,0,186.75)"/>
<path style="fill:none;stroke-width:2.26;stroke-linecap:round;stroke-linejoin:round;stroke:rgb(100%,0%,0%);stroke-opacity:1;stroke-miterlimit:10;" d="M 210.039062 48.128906 L 210.019531 53.148438 L 210 58.160156 L 209.980469 63.179688 L 209.960938 68.191406 L 209.941406 73.210938 L 209.921875 78.21875 L 209.898438 83.238281 L 209.859375 93.261719 L 209.839844 98.28125 L 209.820312 103.289062 L 209.800781 108.308594 L 209.78125 113.320312 L 209.761719 118.339844 L 209.738281 123.351562 L 209.71875 128.371094 L 209.699219 133.378906 L 209.679688 138.398438 " transform="matrix(1,0,0,-1,0,186.75)"/>
<path style="fill:none;stroke-width:2.26;stroke-linecap:round;stroke-linejoin:round;stroke:rgb(100%,0%,0%);stroke-opacity:1;stroke-miterlimit:10;" d="M 209.050781 138.179688 L 203.828125 138.289062 L 198.601562 138.410156 L 193.371094 138.519531 L 188.140625 138.640625 L 182.921875 138.761719 L 177.691406 138.871094 L 172.460938 138.988281 L 167.238281 139.101562 L 162.011719 139.21875 L 156.78125 139.339844 L 151.550781 139.449219 " transform="matrix(1,0,0,-1,0,186.75)"/>
<path style="fill:none;stroke-width:2.26;stroke-linecap:round;stroke-linejoin:round;stroke:rgb(0%,0%,0%);stroke-opacity:1;stroke-miterlimit:10;" d="M 61.890625 139.320312 L 61.441406 129.558594 " transform="matrix(1,0,0,-1,0,186.75)"/>
<path style="fill:none;stroke-width:2.26;stroke-linecap:round;stroke-linejoin:round;stroke:rgb(0%,0%,0%);stroke-opacity:1;stroke-miterlimit:10;" d="M 60.089844 109 L 60 99.238281 " transform="matrix(1,0,0,-1,0,186.75)"/>
<path style="fill:none;stroke-width:2.26;stroke-linecap:round;stroke-linejoin:round;stroke:rgb(0%,0%,0%);stroke-opacity:1;stroke-miterlimit:10;" d="M 60.089844 99.238281 L 65.261719 99.160156 L 70.421875 99.070312 L 75.589844 98.988281 L 80.761719 98.910156 L 85.921875 98.820312 L 91.089844 98.738281 L 96.25 98.660156 L 101.421875 98.570312 L 106.589844 98.488281 L 111.75 98.410156 " transform="matrix(1,0,0,-1,0,186.75)"/>
<path style="fill:none;stroke-width:2.26;stroke-linecap:round;stroke-linejoin:round;stroke:rgb(0%,0%,0%);stroke-opacity:1;stroke-miterlimit:10;" d="M 111.839844 98.761719 L 112.199219 106.230469 " transform="matrix(1,0,0,-1,0,186.75)"/>
<path style="fill:none;stroke-width:2.26;stroke-linecap:round;stroke-linejoin:round;stroke:rgb(0%,0%,0%);stroke-opacity:1;stroke-miterlimit:10;" d="M 109.691406 130 L 109.691406 138.699219 " transform="matrix(1,0,0,-1,0,186.75)"/>
<path style="fill:none;stroke-width:2.26;stroke-linecap:round;stroke-linejoin:round;stroke:rgb(0%,0%,0%);stroke-opacity:1;stroke-miterlimit:10;" d="M 109.871094 138.660156 L 104.609375 138.699219 L 99.339844 138.738281 L 94.078125 138.78125 L 88.820312 138.820312 L 83.558594 138.859375 L 78.300781 138.890625 L 73.039062 138.929688 L 67.78125 138.96875 L 62.519531 139.011719 " transform="matrix(1,0,0,-1,0,186.75)"/>
<path style="fill:none;stroke-width:2.26;stroke-linecap:round;stroke-linejoin:round;stroke:rgb(0%,0%,0%);stroke-opacity:1;stroke-miterlimit:10;" d="M 61.351562 129.261719 L 67.550781 129.261719 " transform="matrix(1,0,0,-1,0,186.75)"/>
<path style="fill:none;stroke-width:2.26;stroke-linecap:round;stroke-linejoin:round;stroke:rgb(0%,0%,0%);stroke-opacity:1;stroke-miterlimit:10;" d="M 67.371094 128.820312 L 67.308594 122.328125 L 67.191406 109.351562 " transform="matrix(1,0,0,-1,0,186.75)"/>
<path style="fill:none;stroke-width:2.26;stroke-linecap:round;stroke-linejoin:round;stroke:rgb(0%,0%,0%);stroke-opacity:1;stroke-miterlimit:10;" d="M 67.191406 109.480469 L 60.269531 109.738281 " transform="matrix(1,0,0,-1,0,186.75)"/>
<path style="fill:none;stroke-width:2.26;stroke-linecap:round;stroke-linejoin:round;stroke:rgb(0%,0%,0%);stroke-opacity:1;stroke-miterlimit:10;" d="M 111.121094 130.351562 L 115.800781 129.921875 " transform="matrix(1,0,0,-1,0,186.75)"/>
<path style="fill:none;stroke-width:2.26;stroke-linecap:round;stroke-linejoin:round;stroke:rgb(0%,0%,0%);stroke-opacity:1;stroke-miterlimit:10;" d="M 116.328125 129.921875 L 116.511719 124.46875 L 117.050781 108.121094 " transform="matrix(1,0,0,-1,0,186.75)"/>
<path style="fill:none;stroke-width:2.26;stroke-linecap:round;stroke-linejoin:round;stroke:rgb(0%,0%,0%);stroke-opacity:1;stroke-miterlimit:10;" d="M 117.230469 107.988281 L 112.019531 107.328125 " transform="matrix(1,0,0,-1,0,186.75)"/>
<path style="fill:none;stroke-width:2.26;stroke-linecap:round;stroke-linejoin:round;stroke:rgb(0%,0%,0%);stroke-opacity:1;stroke-miterlimit:10;" d="M 117.050781 119.019531 L 122.679688 118.898438 L 133.921875 118.679688 L 139.539062 118.558594 L 150.78125 118.339844 L 156.410156 118.230469 " transform="matrix(1,0,0,-1,0,186.75)"/>
<path style="fill:none;stroke-width:1.41;stroke-linecap:round;stroke-linejoin:round;stroke:rgb(100%,0%,0%);stroke-opacity:1;stroke-miterlimit:10;" d="M 160.898438 112.421875 L 161.078125 113.078125 L 161.351562 114.230469 L 161.980469 115.980469 L 162.601562 117.871094 L 163.320312 119.71875 L 164.128906 121.300781 L 164.578125 122.269531 L 164.941406 122.800781 L 165.121094 123.019531 L 165.480469 122.839844 L 165.839844 122.089844 L 166.289062 120.769531 L 166.738281 118.878906 L 167.371094 116.601562 L 167.820312 114.710938 L 168.171875 113.261719 L 168.441406 112.421875 L 168.441406 112.160156 " transform="matrix(1,0,0,-1,0,186.75)"/>
<path style="fill:none;stroke-width:1.41;stroke-linecap:round;stroke-linejoin:round;stroke:rgb(100%,0%,0%);stroke-opacity:1;stroke-miterlimit:10;" d="M 162.421875 116.421875 L 162.78125 116.199219 L 163.679688 116.199219 L 164.941406 116.289062 L 166.199219 116.46875 L 167.191406 116.640625 L 168 116.640625 " transform="matrix(1,0,0,-1,0,186.75)"/>
<path style="fill:none;stroke-width:1.41;stroke-linecap:round;stroke-linejoin:round;stroke:rgb(100%,0%,0%);stroke-opacity:1;stroke-miterlimit:10;" d="M 163.140625 80.648438 L 163.140625 80.921875 L 163.050781 80.171875 L 162.960938 78.71875 L 162.871094 76.609375 L 162.78125 74.589844 L 162.601562 73.050781 L 162.511719 72.171875 " transform="matrix(1,0,0,-1,0,186.75)"/>
<path style="fill:none;stroke-width:1.41;stroke-linecap:round;stroke-linejoin:round;stroke:rgb(100%,0%,0%);stroke-opacity:1;stroke-miterlimit:10;" d="M 162.601562 79.640625 L 162.601562 79.988281 L 162.871094 80.261719 L 163.589844 80.519531 L 164.761719 80.699219 L 166.109375 80.738281 L 167.371094 80.480469 L 168.351562 79.910156 L 168.890625 78.980469 L 169.25 77.800781 L 169.429688 76.648438 L 169.339844 75.640625 L 169.070312 74.679688 L 168.53125 73.878906 L 167.730469 73.269531 L 166.648438 72.828125 L 165.570312 72.570312 L 164.578125 72.519531 L 163.320312 72.519531 " transform="matrix(1,0,0,-1,0,186.75)"/>
<path style="fill:none;stroke-width:1.41;stroke-linecap:round;stroke-linejoin:round;stroke:rgb(19.999695%,19.999695%,79.998779%);stroke-opacity:1;stroke-miterlimit:10;" d="M 110.5 122.929688 L 110.410156 123.238281 L 109.78125 123.589844 L 109.328125 123.761719 L 108.699219 123.851562 L 107.980469 123.761719 L 107.351562 123.628906 L 106.628906 123.28125 L 106.089844 122.75 L 105.640625 122.179688 L 105.191406 121.351562 L 105.011719 120.601562 L 104.921875 119.980469 L 104.921875 118.96875 L 105.101562 118.488281 L 105.371094 117.871094 L 105.640625 117.261719 L 105.910156 116.640625 L 106.179688 116.160156 L 106.539062 115.808594 L 106.898438 115.460938 L 107.351562 115.238281 L 107.710938 115.058594 L 108.070312 115.019531 L 108.699219 115.058594 L 109.421875 115.238281 L 110.140625 115.5 L 110.941406 115.808594 L 111.390625 116.03125 L 111.75 116.339844 L 111.839844 116.558594 " transform="matrix(1,0,0,-1,0,186.75)"/>
<path style="fill:none;stroke-width:1.41;stroke-linecap:round;stroke-linejoin:round;stroke:rgb(0%,0%,0%);stroke-opacity:1;stroke-miterlimit:10;" d="M 71.859375 122.578125 L 72.039062 122.839844 L 72.308594 122.140625 L 72.308594 119.191406 L 72.21875 117.570312 L 72.128906 116.339844 L 72.128906 115.539062 L 72.21875 115.238281 " transform="matrix(1,0,0,-1,0,186.75)"/>
<path style="fill:none;stroke-width:1.41;stroke-linecap:round;stroke-linejoin:round;stroke:rgb(0%,0%,0%);stroke-opacity:1;stroke-miterlimit:10;" d="M 72.308594 121.921875 L 72.21875 122.441406 L 72.308594 122.929688 L 72.578125 123.539062 L 73.210938 124.199219 L 74.289062 124.640625 L 75.371094 124.730469 L 76.351562 124.199219 L 76.710938 123.320312 L 76.53125 122.269531 L 75.550781 121.300781 L 74.378906 120.550781 L 73.300781 120.03125 L 72.761719 119.761719 L 73.570312 119.808594 L 74.558594 119.761719 L 75.640625 119.5 L 76.621094 119.148438 L 77.25 118.488281 L 77.339844 117.738281 L 77.25 116.949219 L 76.980469 116.25 L 76.621094 115.761719 L 76.261719 115.5 L 75.820312 115.238281 L 75.101562 114.929688 L 74.289062 114.710938 L 73.390625 114.75 L 72.671875 114.890625 L 72.308594 115.191406 L 72.039062 115.539062 " transform="matrix(1,0,0,-1,0,186.75)"/>
<path style="fill:none;stroke-width:2.26;stroke-linecap:round;stroke-linejoin:round;stroke:rgb(0%,0%,0%);stroke-opacity:1;stroke-miterlimit:10;" d="M 93.328125 127.671875 L 93.160156 128.03125 L 92.980469 128.421875 L 92.441406 128.859375 L 91.449219 129.261719 L 90.191406 129.210938 L 88.75 128.820312 L 87.5 127.890625 L 86.691406 126.710938 L 86.328125 125.300781 L 86.871094 123.980469 L 88.03125 123.148438 L 89.738281 122.929688 L 91.539062 123.371094 L 92.800781 124.328125 L 93.691406 125.300781 L 94.050781 126.269531 L 94.140625 126.789062 L 94.050781 127.011719 L 93.871094 126.359375 L 93.511719 125.300781 L 93.160156 123.851562 L 92.890625 122.050781 L 92.441406 120.160156 L 91.988281 117.429688 L 91.539062 114.269531 L 91.179688 110.929688 L 91.089844 108.378906 L 91.539062 107.109375 L 92.53125 106.929688 L 93.691406 107.589844 L 94.679688 108.601562 L 95.398438 109.519531 L 95.398438 110.230469 L 94.769531 110.929688 L 93.78125 111.550781 L 92.710938 112.121094 L 91.898438 112.730469 L 91.71875 113.171875 L 91.988281 113.519531 L 92.53125 113.960938 L 93.070312 114.359375 L 93.871094 114.929688 L 94.589844 115.5 L 95.128906 116.121094 L 95.488281 116.691406 L 95.578125 117.039062 L 95.578125 117.351562 " transform="matrix(1,0,0,-1,0,186.75)"/>
<path style="fill:none;stroke-width:2.26;stroke-linecap:round;stroke-linejoin:round;stroke:rgb(100%,0%,0%);stroke-opacity:1;stroke-miterlimit:10;" d="M 182.550781 102.929688 L 182.191406 102.488281 L 182.101562 101.828125 L 181.828125 100.078125 L 181.46875 97.261719 L 181.019531 94.058594 L 180.480469 90.671875 L 180.121094 88.25 L 179.851562 87.070312 L 179.761719 86.578125 " transform="matrix(1,0,0,-1,0,186.75)"/>
<path style="fill:none;stroke-width:2.26;stroke-linecap:round;stroke-linejoin:round;stroke:rgb(100%,0%,0%);stroke-opacity:1;stroke-miterlimit:10;" d="M 181.289062 101.75 L 181.46875 102.488281 L 181.921875 103.328125 L 182.640625 104.121094 L 184.078125 104.871094 L 185.691406 105.21875 L 187.308594 105.171875 L 188.929688 104.78125 L 189.828125 104.078125 L 190.371094 103.328125 L 190.460938 102.269531 L 190.28125 101.089844 L 189.828125 99.640625 L 188.929688 98.140625 L 187.578125 97.128906 L 186.050781 96.738281 L 184.621094 96.78125 L 183.539062 97.039062 L 182.910156 97.398438 L 182.640625 97.660156 " transform="matrix(1,0,0,-1,0,186.75)"/>
<path style="fill:none;stroke-width:1.41;stroke-linecap:round;stroke-linejoin:round;stroke:rgb(0%,0%,0%);stroke-opacity:1;stroke-miterlimit:10;" d="M 14.371094 100.351562 L 14.460938 100.078125 L 14.550781 98.679688 L 14.640625 96.300781 L 14.640625 93.269531 L 14.460938 90.589844 L 14.371094 89.011719 L 14.371094 88.171875 " transform="matrix(1,0,0,-1,0,186.75)"/>
<path style="fill:none;stroke-width:1.41;stroke-linecap:round;stroke-linejoin:round;stroke:rgb(0%,0%,0%);stroke-opacity:1;stroke-miterlimit:10;" d="M 14.550781 92.171875 L 14.820312 92.660156 L 15.171875 93.050781 L 15.890625 93.359375 L 16.789062 93.578125 L 17.601562 93.710938 L 18.679688 93.890625 L 19.398438 94.019531 L 20.03125 94.058594 L 20.570312 94.109375 L 20.660156 94.328125 " transform="matrix(1,0,0,-1,0,186.75)"/>
<path style="fill:none;stroke-width:1.41;stroke-linecap:round;stroke-linejoin:round;stroke:rgb(0%,0%,0%);stroke-opacity:1;stroke-miterlimit:10;" d="M 21.820312 98.941406 L 21.640625 99.210938 L 21.640625 98.058594 L 21.730469 96.789062 L 21.730469 94.589844 L 21.640625 92.039062 L 21.550781 89.839844 L 21.460938 87.960938 L 21.371094 86.988281 " transform="matrix(1,0,0,-1,0,186.75)"/>
<path style="fill:none;stroke-width:2.26;stroke-linecap:round;stroke-linejoin:round;stroke:rgb(0%,0%,0%);stroke-opacity:1;stroke-miterlimit:10;" d="M 28.199219 93.269531 L 28.199219 93.011719 L 28.378906 92.699219 L 28.738281 92.53125 L 29.460938 92.441406 L 30.628906 92.308594 L 33.050781 92.308594 L 34.488281 92.441406 L 35.839844 92.699219 L 37.101562 93.050781 L 38.078125 93.449219 L 38.890625 93.980469 L 39.519531 94.550781 L 40.238281 95.25 L 40.960938 96.078125 L 41.589844 96.921875 L 42.21875 97.96875 L 42.671875 99.121094 L 43.03125 100.21875 L 43.480469 101.488281 L 43.921875 102.761719 L 44.460938 104.171875 L 45.089844 105.621094 L 45.628906 106.980469 L 46.171875 108.300781 L 46.800781 109.75 L 47.519531 110.980469 L 48.238281 112.171875 L 49.230469 113.269531 L 50.121094 114.148438 L 51.289062 115.070312 L 52.550781 116.039062 L 53.808594 116.828125 L 54.980469 117.488281 L 56.140625 117.96875 L 57.308594 118.410156 L 58.570312 118.800781 L 59.921875 119.199219 L 61 119.511719 L 61.800781 119.640625 L 62.519531 119.679688 L 63.238281 119.730469 L 64.050781 119.769531 L 65.941406 119.769531 L 66.480469 119.730469 L 66.75 119.640625 L 67.101562 119.511719 " transform="matrix(1,0,0,-1,0,186.75)"/>
<path style="fill:none;stroke-width:2.26;stroke-linecap:round;stroke-linejoin:round;stroke:rgb(0%,0%,0%);stroke-opacity:1;stroke-miterlimit:10;" d="M 33.769531 92.660156 L 34.308594 92.609375 L 36.199219 92.609375 L 37.460938 92.53125 L 38.980469 92.308594 L 40.691406 91.949219 L 42.308594 91.429688 L 43.75 90.898438 L 45.089844 90.238281 L 46.078125 89.320312 L 46.710938 88.261719 L 47.339844 87.078125 L 47.878906 85.800781 L 48.421875 84.621094 L 48.871094 83.429688 L 49.410156 82.199219 L 50.03125 81.058594 L 50.570312 79.828125 L 51.289062 78.550781 L 52.191406 77.410156 L 53.269531 76.351562 L 54.800781 75.300781 L 56.410156 74.460938 L 58.210938 73.800781 L 60.550781 73.28125 L 62.96875 73.011719 L 65.578125 72.839844 L 68.449219 72.789062 L 71.058594 72.878906 L 73.75 73.058594 L 76.71875 73.230469 L 79.410156 73.320312 L 82.109375 73.371094 L 85.070312 73.410156 L 87.769531 73.539062 L 90.640625 73.671875 L 93.699219 73.761719 L 96.570312 73.761719 L 99.628906 73.71875 L 102.859375 73.71875 L 105.828125 73.761719 L 108.429688 73.800781 L 111.128906 73.890625 L 113.730469 74.019531 L 116.699219 74.199219 L 120.019531 74.328125 L 123.261719 74.511719 L 126.308594 74.640625 L 129.191406 74.859375 L 131.519531 75.078125 L 133.679688 75.210938 L 136.011719 75.339844 L 137.988281 75.429688 L 139.96875 75.429688 L 141.578125 75.46875 L 142.660156 75.519531 L 143.648438 75.558594 L 144.550781 75.609375 L 145.71875 75.738281 L 147.25 75.828125 L 148.679688 75.960938 L 150.121094 76.089844 L 151.109375 76.21875 L 151.828125 76.308594 L 152.460938 76.441406 L 153.171875 76.53125 L 154.070312 76.660156 L 155.058594 76.789062 L 155.78125 76.878906 L 156.410156 76.921875 L 157.039062 76.921875 L 157.308594 76.839844 " transform="matrix(1,0,0,-1,0,186.75)"/>
<path style="fill:none;stroke-width:2.26;stroke-linecap:round;stroke-linejoin:round;stroke:rgb(0%,0%,0%);stroke-opacity:1;stroke-miterlimit:10;" d="M 231.429688 106.679688 L 231.519531 106.898438 L 231.878906 106.851562 L 232.601562 106.851562 L 234.121094 107.03125 L 236.191406 107.25 L 238.710938 107.46875 L 241.578125 107.550781 L 248.410156 107.550781 L 249.671875 107.691406 L 250.480469 107.730469 L 251.101562 107.769531 L 251.371094 107.769531 L 251.730469 107.820312 L 251.550781 107.601562 " transform="matrix(1,0,0,-1,0,186.75)"/>
<path style="fill:none;stroke-width:2.26;stroke-linecap:round;stroke-linejoin:round;stroke:rgb(0%,0%,0%);stroke-opacity:1;stroke-miterlimit:10;" d="M 232.148438 101.710938 L 231.878906 101.621094 L 232.148438 101.398438 L 232.601562 101.269531 L 233.5 101.308594 L 234.839844 101.398438 L 236.640625 101.449219 L 238.53125 101.488281 L 245.441406 101.488281 L 246.25 101.53125 L 246.789062 101.621094 L 247.511719 101.671875 L 248.320312 101.75 L 249.308594 101.839844 L 250.210938 101.929688 L 250.828125 101.96875 L 251.910156 101.96875 L 252.269531 101.929688 L 252.539062 101.929688 " transform="matrix(1,0,0,-1,0,186.75)"/>
<path style="fill:none;stroke-width:2.26;stroke-linecap:round;stroke-linejoin:round;stroke:rgb(0%,0%,0%);stroke-opacity:1;stroke-miterlimit:10;" d="M 232.871094 95.558594 L 232.601562 95.511719 L 233.578125 95.511719 L 234.75 95.558594 L 236.460938 95.558594 L 238.078125 95.648438 L 239.421875 95.691406 L 240.5 95.730469 L 241.488281 95.691406 L 242.75 95.648438 L 244.191406 95.601562 L 245.441406 95.558594 L 246.519531 95.558594 L 247.421875 95.601562 L 249.039062 95.601562 L 249.941406 95.558594 L 250.570312 95.511719 L 251.101562 95.46875 L 251.550781 95.429688 L 251.910156 95.429688 L 252.269531 95.339844 " transform="matrix(1,0,0,-1,0,186.75)"/>
<path style="fill:none;stroke-width:1.41;stroke-linecap:round;stroke-linejoin:round;stroke:rgb(0%,0%,0%);stroke-opacity:1;stroke-miterlimit:10;" d="M 270.601562 104 L 270.601562 100.078125 L 270.691406 96.480469 L 270.601562 92.261719 L 270.511719 88.96875 L 270.328125 86.859375 L 270.238281 85.929688 L 270.058594 86.199219 L 269.96875 86.589844 " transform="matrix(1,0,0,-1,0,186.75)"/>
<path style="fill:none;stroke-width:1.41;stroke-linecap:round;stroke-linejoin:round;stroke:rgb(0%,0%,0%);stroke-opacity:1;stroke-miterlimit:10;" d="M 270.78125 103.070312 L 271.050781 103.601562 L 271.769531 104.128906 L 272.941406 104.570312 L 274.28125 104.699219 L 275.808594 104.261719 L 276.800781 103.121094 L 277.609375 101.449219 L 277.789062 99.378906 L 277.339844 97.621094 L 276.261719 96.261719 L 274.460938 95.46875 L 272.851562 95.289062 L 271.589844 95.378906 L 270.871094 95.691406 L 270.78125 96.039062 L 270.78125 96.441406 " transform="matrix(1,0,0,-1,0,186.75)"/>
<path style="fill:none;stroke-width:1.41;stroke-linecap:round;stroke-linejoin:round;stroke:rgb(0%,0%,0%);stroke-opacity:1;stroke-miterlimit:10;" d="M 284.980469 113.53125 L 285.070312 113.789062 L 284.621094 114.011719 L 283.898438 114.191406 L 282.910156 114.320312 L 281.738281 114.410156 L 280.929688 114.28125 L 280.480469 113.710938 L 280.390625 112.480469 L 280.570312 111.03125 L 280.75 109.441406 L 280.929688 107.949219 L 281.109375 106.71875 L 281.199219 105.359375 L 281.289062 103.558594 L 281.378906 101.050781 L 281.378906 90.808594 L 281.46875 90.5 L 281.828125 90.421875 L 282.640625 90.371094 L 283.628906 90.238281 L 284.621094 90.109375 L 285.328125 90.019531 L 285.691406 89.929688 L 285.421875 89.980469 " transform="matrix(1,0,0,-1,0,186.75)"/>
<path style="fill:none;stroke-width:1.41;stroke-linecap:round;stroke-linejoin:round;stroke:rgb(0%,0%,0%);stroke-opacity:1;stroke-miterlimit:10;" d="M 289.019531 95.910156 L 288.75 95.648438 L 288.839844 95.910156 L 289.199219 97.011719 L 289.828125 98.941406 L 290.820312 101.96875 L 291.710938 104.960938 L 292.429688 107.46875 L 292.96875 109.308594 L 293.421875 109.839844 L 293.871094 109.441406 L 294.589844 107.910156 L 295.398438 105.359375 L 296.300781 102.191406 L 297.101562 98.851562 L 297.640625 96.351562 L 298 94.808594 L 298.179688 94.199219 " transform="matrix(1,0,0,-1,0,186.75)"/>
<path style="fill:none;stroke-width:1.41;stroke-linecap:round;stroke-linejoin:round;stroke:rgb(0%,0%,0%);stroke-opacity:1;stroke-miterlimit:10;" d="M 290.820312 98.941406 L 291.078125 99.121094 L 291.800781 99.339844 L 293.148438 99.601562 L 294.410156 99.691406 L 295.488281 99.78125 L 296.210938 99.730469 L 296.570312 99.820312 " transform="matrix(1,0,0,-1,0,186.75)"/>
<path style="fill:none;stroke-width:1.41;stroke-linecap:round;stroke-linejoin:round;stroke:rgb(0%,0%,0%);stroke-opacity:1;stroke-miterlimit:10;" d="M 300.96875 102.679688 L 301.511719 102.71875 L 302.578125 102.808594 L 304.109375 102.941406 L 305.640625 103.03125 L 306.628906 103.121094 L 307.171875 103.160156 L 307.441406 103.160156 L 306.898438 102.980469 " transform="matrix(1,0,0,-1,0,186.75)"/>
<path style="fill:none;stroke-width:1.41;stroke-linecap:round;stroke-linejoin:round;stroke:rgb(0%,0%,0%);stroke-opacity:1;stroke-miterlimit:10;" d="M 301.511719 97.839844 L 301.78125 97.710938 L 302.320312 97.671875 L 303.300781 97.621094 L 305.730469 97.621094 L 306.71875 97.671875 L 307.441406 97.710938 " transform="matrix(1,0,0,-1,0,186.75)"/>
<path style="fill:none;stroke-width:1.41;stroke-linecap:round;stroke-linejoin:round;stroke:rgb(19.999695%,19.999695%,79.998779%);stroke-opacity:1;stroke-miterlimit:10;" d="M 318.578125 103.78125 L 318.761719 104.039062 L 318.671875 104.519531 L 318.308594 105.011719 L 317.5 105.230469 L 316.421875 105.011719 L 315.25 104.351562 L 314.078125 103.121094 L 313.550781 101.308594 L 313.640625 99.558594 L 314.441406 98.28125 L 315.96875 98.148438 L 317.589844 99.210938 L 319.03125 100.960938 L 319.921875 102.851562 L 320.191406 103.910156 L 319.921875 102.808594 L 319.75 101.089844 L 319.660156 99.25 L 319.480469 97.539062 L 319.300781 95.03125 L 319.121094 92.308594 L 319.210938 89.761719 L 319.828125 87.601562 L 320.910156 86.988281 L 322.261719 87.210938 L 323.339844 88.128906 L 323.789062 89.449219 L 323.699219 90.71875 L 323.25 91.949219 L 322.621094 92.789062 L 322.171875 93.230469 L 321.449219 93.671875 L 320.730469 94.058594 L 320.28125 94.421875 L 319.828125 94.628906 L 319.921875 94.941406 L 320.640625 95.46875 L 321.808594 96.261719 L 323.070312 97.140625 L 323.96875 97.839844 L 324.511719 98.460938 L 324.421875 98.941406 " transform="matrix(1,0,0,-1,0,186.75)"/>
<path style="fill:none;stroke-width:1.41;stroke-linecap:round;stroke-linejoin:round;stroke:rgb(19.999695%,19.999695%,79.998779%);stroke-opacity:1;stroke-miterlimit:10;" d="M 332.140625 113.21875 L 332.410156 113.269531 L 331.960938 113.359375 L 331.160156 113.359375 L 329.988281 113.308594 L 328.910156 113.179688 L 328.101562 113 L 327.558594 112.480469 L 327.46875 111.109375 L 327.738281 108.699219 L 328.101562 105.230469 L 328.460938 101.800781 L 328.730469 98.410156 L 328.820312 95.820312 L 328.820312 94.28125 L 328.910156 93.140625 L 329.179688 92.75 L 329.539062 92.699219 L 329.988281 92.75 L 330.53125 92.789062 L 331.871094 92.789062 L 332.589844 92.828125 L 333.578125 92.828125 L 333.488281 93.101562 " transform="matrix(1,0,0,-1,0,186.75)"/>
<path style="fill:none;stroke-width:1.41;stroke-linecap:round;stroke-linejoin:round;stroke:rgb(19.999695%,19.999695%,79.998779%);stroke-opacity:1;stroke-miterlimit:10;" d="M 337.890625 107.601562 L 337.800781 107.378906 L 337.800781 104.300781 L 337.890625 102.371094 L 337.890625 98.769531 L 337.980469 97.488281 " transform="matrix(1,0,0,-1,0,186.75)"/>
<path style="fill:none;stroke-width:1.41;stroke-linecap:round;stroke-linejoin:round;stroke:rgb(19.999695%,19.999695%,79.998779%);stroke-opacity:1;stroke-miterlimit:10;" d="M 337.800781 107.46875 L 338.429688 108.171875 L 339.421875 108.789062 L 340.859375 109.089844 L 342.480469 108.871094 L 343.640625 108.039062 L 343.910156 106.628906 L 343.101562 105.011719 L 341.671875 103.730469 L 340.140625 103.03125 L 339.421875 102.941406 L 339.871094 103.160156 L 341.128906 103.121094 L 342.75 102.761719 L 344.089844 102.148438 L 345.078125 101.449219 L 345.621094 100.828125 L 346.070312 100.128906 L 346.339844 99.421875 L 346.429688 98.238281 L 346.339844 96.921875 L 345.980469 95.871094 L 345.53125 94.808594 L 344.988281 94.328125 L 344.449219 94.058594 L 343.371094 93.929688 L 342.121094 94.058594 L 340.859375 94.371094 L 339.511719 94.941406 L 338.878906 95.601562 L 338.429688 96.128906 L 338.25 96.660156 " transform="matrix(1,0,0,-1,0,186.75)"/>
<path style="fill:none;stroke-width:1.41;stroke-linecap:round;stroke-linejoin:round;stroke:rgb(19.999695%,19.999695%,79.998779%);stroke-opacity:1;stroke-miterlimit:10;" d="M 350.828125 104.519531 L 350.558594 104.570312 L 355.140625 104.570312 L 356.21875 104.609375 L 356.761719 104.609375 " transform="matrix(1,0,0,-1,0,186.75)"/>
<path style="fill:none;stroke-width:1.41;stroke-linecap:round;stroke-linejoin:round;stroke:rgb(19.999695%,19.999695%,79.998779%);stroke-opacity:1;stroke-miterlimit:10;" d="M 351.910156 101.179688 L 352.089844 101.011719 L 352.539062 100.960938 L 353.171875 100.921875 L 354.160156 100.878906 L 355.140625 100.789062 L 356.039062 100.789062 L 356.578125 100.738281 L 356.941406 100.660156 " transform="matrix(1,0,0,-1,0,186.75)"/>
<path style="fill:none;stroke-width:1.41;stroke-linecap:round;stroke-linejoin:round;stroke:rgb(19.999695%,19.999695%,79.998779%);stroke-opacity:1;stroke-miterlimit:10;" d="M 367.898438 110.851562 L 368.171875 110.589844 L 368.171875 110.238281 L 368.078125 109.660156 L 367.808594 108.828125 L 367.179688 107.691406 L 366.101562 105.929688 L 364.761719 103.910156 L 363.5 102.191406 L 362.78125 100.828125 L 363.320312 99.910156 L 364.578125 99.03125 L 366.011719 97.839844 L 367.359375 96.570312 L 368.171875 95.730469 L 368.621094 95.289062 " transform="matrix(1,0,0,-1,0,186.75)"/>
<path style="fill:none;stroke-width:1.41;stroke-linecap:round;stroke-linejoin:round;stroke:rgb(19.999695%,19.999695%,79.998779%);stroke-opacity:1;stroke-miterlimit:10;" d="M 372.839844 107.46875 L 372.929688 107.070312 L 373.019531 106.191406 L 373.019531 102.410156 L 373.109375 100.570312 L 373.109375 98.371094 L 373.199219 97.96875 " transform="matrix(1,0,0,-1,0,186.75)"/>
<path style="fill:none;stroke-width:1.41;stroke-linecap:round;stroke-linejoin:round;stroke:rgb(19.999695%,19.999695%,79.998779%);stroke-opacity:1;stroke-miterlimit:10;" d="M 373.558594 101.96875 L 373.738281 102.238281 L 374.640625 102.628906 L 375.808594 102.980469 L 377.070312 103.25 L 378.230469 103.511719 L 378.679688 103.558594 L 378.949219 103.46875 " transform="matrix(1,0,0,-1,0,186.75)"/>
<path style="fill:none;stroke-width:1.41;stroke-linecap:round;stroke-linejoin:round;stroke:rgb(19.999695%,19.999695%,79.998779%);stroke-opacity:1;stroke-miterlimit:10;" d="M 379.761719 107.691406 L 379.671875 107.289062 L 379.671875 100.261719 L 379.761719 98.109375 L 379.941406 97.488281 L 380.121094 97.800781 " transform="matrix(1,0,0,-1,0,186.75)"/>
<path style="fill:none;stroke-width:1.41;stroke-linecap:round;stroke-linejoin:round;stroke:rgb(19.999695%,19.999695%,79.998779%);stroke-opacity:1;stroke-miterlimit:10;" d="M 382.28125 112.121094 L 382.460938 111.910156 L 383.078125 111.25 L 384.339844 109.929688 L 385.78125 108.480469 L 386.949219 107.25 L 387.671875 106.320312 L 387.761719 105.710938 L 387.398438 104.828125 L 386.589844 103.339844 L 385.691406 101.53125 L 384.789062 99.910156 L 384.160156 98.71875 L 383.890625 98.28125 " transform="matrix(1,0,0,-1,0,186.75)"/>
<path style="fill:none;stroke-width:1.41;stroke-linecap:round;stroke-linejoin:round;stroke:rgb(19.999695%,19.999695%,79.998779%);stroke-opacity:1;stroke-miterlimit:10;" d="M 388.390625 113.878906 L 388.75 113.75 L 390.898438 113.75 L 392.339844 113.878906 L 393.328125 113.929688 L 393.871094 113.839844 L 393.960938 113.308594 L 393.960938 106.628906 L 394.050781 103.199219 L 394.140625 99.859375 L 394.140625 95.46875 L 394.050781 94.058594 L 393.960938 93.140625 L 393.871094 92.609375 L 393.691406 92.351562 L 393.238281 92.308594 L 392.339844 92.308594 L 391.441406 92.441406 L 390.539062 92.53125 L 389.910156 92.570312 L 389.640625 92.570312 " transform="matrix(1,0,0,-1,0,186.75)"/>
<path style="fill:none;stroke-width:1.41;stroke-linecap:round;stroke-linejoin:round;stroke:rgb(0%,0%,0%);stroke-opacity:1;stroke-miterlimit:10;" d="M 419.480469 97.050781 L 419.210938 97.089844 L 419.121094 97.398438 L 418.941406 97.140625 L 418.671875 96.960938 L 418.308594 97 L 418.039062 97.359375 L 418.128906 97.789062 L 418.578125 98.230469 L 419.300781 98.371094 L 419.921875 98.191406 L 420.640625 97.621094 L 421.179688 96.519531 L 421.269531 95.199219 L 420.910156 93.929688 L 420.28125 93.050781 L 419.558594 92.738281 L 419.03125 92.789062 L 418.761719 92.921875 " transform="matrix(1,0,0,-1,0,186.75)"/>
<path style="fill:none;stroke-width:1.41;stroke-linecap:round;stroke-linejoin:round;stroke:rgb(0%,0%,0%);stroke-opacity:1;stroke-miterlimit:10;" d="M 426.660156 111.679688 L 426.660156 111.109375 L 426.75 109.398438 L 426.839844 106.578125 L 427.109375 103.859375 L 427.199219 101.660156 L 427.199219 100.121094 " transform="matrix(1,0,0,-1,0,186.75)"/>
<path style="fill:none;stroke-width:1.41;stroke-linecap:round;stroke-linejoin:round;stroke:rgb(0%,0%,0%);stroke-opacity:1;stroke-miterlimit:10;" d="M 427.109375 109.261719 L 427.289062 109.75 L 427.828125 110.410156 L 428.820312 110.929688 L 430.351562 111.019531 L 432.140625 110.230469 L 433.761719 108.558594 L 434.839844 106.191406 L 435.109375 103.601562 L 434.839844 101.621094 L 433.851562 100.121094 L 432.5 99.25 L 430.980469 99.160156 L 429.539062 99.160156 L 428.640625 99.511719 L 428.101562 99.859375 L 428.011719 100.121094 " transform="matrix(1,0,0,-1,0,186.75)"/>
<path style="fill:none;stroke-width:1.41;stroke-linecap:round;stroke-linejoin:round;stroke:rgb(0%,0%,0%);stroke-opacity:1;stroke-miterlimit:10;" d="M 441.488281 106.539062 L 441.761719 106.800781 L 442.558594 106.761719 L 443.730469 106.71875 L 444.71875 106.71875 L 445.441406 106.671875 L 445.800781 106.628906 L 445.621094 106.28125 " transform="matrix(1,0,0,-1,0,186.75)"/>
<path style="fill:none;stroke-width:1.41;stroke-linecap:round;stroke-linejoin:round;stroke:rgb(0%,0%,0%);stroke-opacity:1;stroke-miterlimit:10;" d="M 440.949219 103.238281 L 440.679688 103.160156 L 440.949219 103.019531 L 441.941406 102.941406 L 443.101562 102.800781 L 444.359375 102.628906 L 445.351562 102.5 L 445.800781 102.539062 " transform="matrix(1,0,0,-1,0,186.75)"/>
<path style="fill:none;stroke-width:1.41;stroke-linecap:round;stroke-linejoin:round;stroke:rgb(0%,0%,0%);stroke-opacity:1;stroke-miterlimit:10;" d="M 455.949219 112.738281 L 455.859375 112.378906 L 455.410156 111.148438 L 454.238281 109.398438 L 452.71875 107.238281 L 451.191406 105.570312 L 450.378906 104.339844 L 451.011719 103.289062 L 452.539062 102.28125 L 454.511719 101.089844 L 456.039062 99.949219 L 456.851562 99.199219 L 457.210938 98.941406 " transform="matrix(1,0,0,-1,0,186.75)"/>
<path style="fill:none;stroke-width:1.41;stroke-linecap:round;stroke-linejoin:round;stroke:rgb(0%,0%,0%);stroke-opacity:1;stroke-miterlimit:10;" d="M 459.808594 109.839844 L 459.730469 109.570312 L 459.808594 108.78125 L 459.898438 106.671875 L 459.898438 101.839844 L 459.808594 99.988281 " transform="matrix(1,0,0,-1,0,186.75)"/>
<path style="fill:none;stroke-width:1.41;stroke-linecap:round;stroke-linejoin:round;stroke:rgb(0%,0%,0%);stroke-opacity:1;stroke-miterlimit:10;" d="M 459.898438 103.109375 L 460.261719 103.769531 L 460.980469 104.121094 L 462.148438 104.339844 L 463.5 104.519531 L 464.488281 104.609375 L 465.210938 104.648438 " transform="matrix(1,0,0,-1,0,186.75)"/>
<path style="fill:none;stroke-width:1.41;stroke-linecap:round;stroke-linejoin:round;stroke:rgb(0%,0%,0%);stroke-opacity:1;stroke-miterlimit:10;" d="M 465.121094 110.058594 L 465.210938 109.570312 L 465.300781 107.898438 L 465.480469 105.398438 L 465.648438 102.800781 L 465.738281 100.738281 L 465.828125 99.679688 " transform="matrix(1,0,0,-1,0,186.75)"/>
<path style="fill:none;stroke-width:1.41;stroke-linecap:round;stroke-linejoin:round;stroke:rgb(0%,0%,0%);stroke-opacity:1;stroke-miterlimit:10;" d="M 470.148438 112.339844 L 469.699219 112.429688 L 469.429688 112.429688 L 469.609375 112.25 L 470.421875 111.769531 L 471.671875 110.929688 L 473.109375 110.011719 L 474.640625 109.089844 L 475.539062 108.46875 L 475.988281 108.078125 L 475.808594 107.378906 L 475.269531 106.230469 L 474.371094 104.339844 L 473.378906 101.789062 L 472.570312 99.679688 L 472.03125 98.148438 L 471.761719 97.308594 L 471.941406 97.578125 " transform="matrix(1,0,0,-1,0,186.75)"/>
<path style="fill:none;stroke-width:1.41;stroke-linecap:round;stroke-linejoin:round;stroke:rgb(0%,0%,0%);stroke-opacity:1;stroke-miterlimit:10;" d="M 476.261719 117.480469 L 476.078125 117.660156 L 476.53125 117.441406 L 476.980469 117.351562 L 478.230469 117.441406 L 479.671875 117.660156 L 481.199219 117.921875 L 482.550781 118.191406 L 482.988281 118.191406 L 483.078125 117.96875 L 482.988281 116.910156 L 482.988281 115.019531 L 483.078125 112.210938 L 483.261719 108.648438 L 483.53125 105.308594 L 483.710938 102.28125 L 483.800781 99.511719 L 483.800781 95.46875 L 483.710938 94.148438 L 483.800781 93.488281 L 483.800781 93.21875 L 483.261719 93.179688 L 482.550781 93.179688 L 481.648438 93.140625 L 480.929688 93.089844 L 480.480469 93.050781 L 480.210938 93 " transform="matrix(1,0,0,-1,0,186.75)"/>
<path style="fill:none;stroke-width:1.41;stroke-linecap:round;stroke-linejoin:round;stroke:rgb(19.999695%,19.999695%,79.998779%);stroke-opacity:1;stroke-miterlimit:10;" d="M 398.730469 105.578125 L 398.640625 105.851562 L 398.820312 106.070312 L 399.171875 106.148438 L 399.53125 105.890625 L 399.53125 105.449219 L 399.261719 105.140625 L 398.910156 105.28125 L 398.730469 105.851562 L 399.078125 106.289062 L 399.890625 106.289062 L 400.339844 105.851562 L 400.519531 105.320312 L 400.160156 105.058594 L 399.53125 105.191406 L 398.910156 105.800781 L 398.640625 106.371094 L 398.460938 106.859375 L 398.640625 107.121094 L 399 106.988281 L 399.441406 106.898438 " transform="matrix(1,0,0,-1,0,186.75)"/>
<path style="fill:none;stroke-width:1.41;stroke-linecap:round;stroke-linejoin:round;stroke:rgb(19.999695%,19.999695%,79.998779%);stroke-opacity:1;stroke-miterlimit:10;" d="M 399.621094 96.488281 L 399.351562 96.53125 L 399.351562 96.839844 L 399.621094 97.101562 L 400.160156 97.148438 L 400.609375 96.929688 L 400.609375 96.621094 L 400.429688 96.398438 L 400.160156 96.570312 L 400.160156 96.929688 L 400.519531 97.058594 L 400.878906 96.929688 L 400.878906 96.53125 L 400.519531 96.308594 L 399.890625 96.398438 L 399.441406 96.839844 L 399.261719 97.320312 L 399.351562 97.71875 L 399.710938 98.070312 " transform="matrix(1,0,0,-1,0,186.75)"/>
<path style="fill:none;stroke-width:1.41;stroke-linecap:round;stroke-linejoin:round;stroke:rgb(19.999695%,19.999695%,79.998779%);stroke-opacity:1;stroke-miterlimit:10;" d="M 413.550781 106.421875 L 413.730469 106.769531 L 413.640625 107.339844 L 413.371094 108.089844 L 412.828125 108.878906 L 412.019531 109.578125 L 410.941406 109.890625 L 409.871094 109.851562 L 408.699219 109.488281 L 407.710938 108.828125 L 406.808594 108 L 406 106.808594 L 405.550781 105.5 L 405.191406 103.871094 L 405.101562 102.070312 L 405.28125 100.441406 L 405.730469 99.039062 L 406.71875 97.941406 L 407.980469 97.28125 L 409.511719 96.929688 L 411.210938 96.96875 L 412.648438 97.28125 L 413.730469 97.71875 L 414.539062 98.199219 L 414.898438 98.679688 L 414.988281 98.988281 L 415.078125 99.25 " transform="matrix(1,0,0,-1,0,186.75)"/>
<path style="fill:none;stroke-width:2.26;stroke-linecap:round;stroke-linejoin:round;stroke:rgb(0%,0%,0%);stroke-opacity:1;stroke-miterlimit:10;" d="M 163.691406 173.960938 L 163.511719 173.351562 L 163.328125 172.070312 L 162.980469 169.171875 L 162.441406 165.441406 L 161.988281 161.878906 L 161.628906 159.148438 L 161.539062 158.101562 L 161.628906 158.320312 " transform="matrix(1,0,0,-1,0,186.75)"/>
<path style="fill:none;stroke-width:2.26;stroke-linecap:round;stroke-linejoin:round;stroke:rgb(0%,0%,0%);stroke-opacity:1;stroke-miterlimit:10;" d="M 163.601562 173.570312 L 164.050781 173 L 165.039062 171.191406 L 166.300781 168.78125 L 167.46875 166.488281 L 168.550781 165.21875 L 169.441406 165.570312 L 170.429688 167.191406 L 171.78125 169.699219 L 173.039062 172.160156 L 174.121094 174.089844 L 174.828125 174.929688 L 174.921875 174.308594 L 174.828125 172.601562 L 174.660156 169.738281 L 174.480469 166.011719 L 174.300781 162.359375 L 174.300781 159.421875 L 174.480469 157.53125 L 174.570312 157 L 174.921875 157.53125 " transform="matrix(1,0,0,-1,0,186.75)"/>
<path style="fill:none;stroke-width:2.26;stroke-linecap:round;stroke-linejoin:round;stroke:rgb(0%,0%,0%);stroke-opacity:1;stroke-miterlimit:10;" d="M 181.660156 166.101562 L 181.660156 166.359375 L 181.390625 166.539062 L 180.761719 166.269531 L 179.871094 165.660156 L 178.96875 164.511719 L 178.25 162.761719 L 177.980469 161 L 178.160156 159.328125 L 178.96875 158.050781 L 180.230469 157.441406 L 181.839844 157.390625 L 183.371094 157.828125 L 184.539062 158.710938 L 185.078125 160.03125 L 185.078125 161.75 L 184.449219 163.460938 L 183.820312 164.820312 L 183.191406 165.828125 L 182.828125 166.179688 L 182.46875 166.398438 " transform="matrix(1,0,0,-1,0,186.75)"/>
<path style="fill:none;stroke-width:2.26;stroke-linecap:round;stroke-linejoin:round;stroke:rgb(0%,0%,0%);stroke-opacity:1;stroke-miterlimit:10;" d="M 193.789062 163.328125 L 193.609375 163.808594 L 193.339844 164.289062 L 192.800781 164.691406 L 192 164.820312 L 191.011719 164.429688 L 189.929688 163.5 L 189.03125 162.101562 L 188.488281 160.25 L 188.578125 158.710938 L 189.390625 157.660156 L 190.921875 157.53125 L 192.53125 158.410156 L 193.878906 159.988281 L 194.601562 162.539062 L 194.601562 165.351562 L 194.148438 168.25 L 193.699219 170.839844 L 193.339844 172.378906 L 193.160156 173.039062 L 193.339844 172.339844 L 193.789062 170.269531 L 194.421875 167.5 L 195.050781 164.511719 L 195.589844 161.878906 L 195.949219 160.078125 L 196.308594 158.890625 L 196.578125 157.921875 L 196.851562 157.351562 L 197.121094 156.910156 " transform="matrix(1,0,0,-1,0,186.75)"/>
<path style="fill:none;stroke-width:2.26;stroke-linecap:round;stroke-linejoin:round;stroke:rgb(0%,0%,0%);stroke-opacity:1;stroke-miterlimit:10;" d="M 200.351562 164.78125 L 200.078125 164.160156 L 199.898438 162.839844 L 199.808594 161.039062 L 199.898438 159.28125 L 200.171875 158.050781 L 200.441406 157.308594 L 200.890625 156.691406 L 201.878906 156.339844 L 202.960938 156.46875 L 204.121094 156.910156 L 205.019531 157.660156 L 205.46875 158.539062 L 205.648438 159.199219 L 205.738281 160.339844 L 205.738281 161.570312 L 205.648438 162.621094 L 205.558594 163.328125 L 205.738281 162.761719 L 206.101562 161.609375 L 206.820312 160.210938 L 207.808594 158.800781 L 208.890625 157.660156 L 209.871094 157.308594 " transform="matrix(1,0,0,-1,0,186.75)"/>
<path style="fill:none;stroke-width:2.26;stroke-linecap:round;stroke-linejoin:round;stroke:rgb(0%,0%,0%);stroke-opacity:1;stroke-miterlimit:10;" d="M 211.761719 172.601562 L 211.671875 172.289062 L 211.578125 171.71875 L 211.671875 170.839844 L 211.761719 169.828125 L 211.941406 167.988281 L 212.121094 165 L 212.390625 161.828125 L 212.660156 158.929688 L 212.839844 157.128906 L 213.019531 156.648438 " transform="matrix(1,0,0,-1,0,186.75)"/>
<path style="fill:none;stroke-width:2.26;stroke-linecap:round;stroke-linejoin:round;stroke:rgb(0%,0%,0%);stroke-opacity:1;stroke-miterlimit:10;" d="M 217.601562 159.5 L 217.328125 159.589844 L 217.601562 159.679688 L 218.5 159.679688 L 219.039062 159.71875 L 219.578125 159.808594 L 220.210938 159.988281 L 220.921875 160.339844 L 221.730469 160.910156 L 222.359375 161.789062 L 222.71875 162.761719 L 222.808594 163.589844 L 222.808594 164.25 L 222.71875 164.691406 L 222.449219 165.128906 L 222.089844 165.570312 L 221.371094 165.878906 L 220.390625 165.960938 L 219.21875 165.441406 L 218.230469 164.511719 L 217.511719 163.5 L 217.058594 162.449219 L 216.878906 161.660156 L 216.789062 160.949219 L 216.789062 159.859375 L 217.058594 158.621094 L 217.601562 157.441406 L 218.320312 156.339844 L 219.128906 155.859375 L 220.300781 155.71875 L 221.640625 155.808594 L 222.898438 156.03125 L 223.890625 156.210938 L 224.699219 156.519531 " transform="matrix(1,0,0,-1,0,186.75)"/>
<path style="fill:none;stroke-width:2.26;stroke-linecap:round;stroke-linejoin:round;stroke:rgb(19.999695%,19.999695%,79.998779%);stroke-opacity:1;stroke-miterlimit:10;" d="M 115.359375 149.089844 L 115.808594 148.121094 L 116.53125 146.449219 L 117.511719 143.949219 L 118.320312 141.53125 L 118.949219 139.679688 L 119.578125 138.890625 L 120.390625 139.550781 L 121.648438 141.050781 L 123.261719 142.980469 L 124.96875 144.871094 L 126.230469 146.058594 L 126.859375 146.578125 L 127.039062 146.800781 L 126.769531 146.71875 L 126.410156 146.578125 " transform="matrix(1,0,0,-1,0,186.75)"/>
<path style="fill:none;stroke-width:2.26;stroke-linecap:round;stroke-linejoin:round;stroke:rgb(0%,0%,0%);stroke-opacity:1;stroke-miterlimit:10;" d="M 306.988281 29.210938 L 307.078125 28.328125 L 307.078125 26.660156 L 306.988281 23.890625 L 307.171875 20.769531 L 307.441406 17.960938 L 307.890625 15.800781 L 308.429688 14.699219 L 308.878906 14.039062 L 309.421875 13.738281 L 310.320312 13.871094 L 311.398438 14.179688 L 312.660156 15.320312 L 314.089844 17.171875 L 315.078125 19.410156 L 315.890625 22.390625 L 316.160156 25.160156 L 316.070312 27.488281 L 315.890625 29.210938 L 315.710938 29.871094 L 315.621094 29.429688 L 315.710938 27.578125 L 316.070312 24.808594 L 316.609375 21.78125 L 317.238281 18.828125 L 317.871094 16.988281 L 318.410156 16.148438 " transform="matrix(1,0,0,-1,0,186.75)"/>
<path style="fill:none;stroke-width:2.26;stroke-linecap:round;stroke-linejoin:round;stroke:rgb(0%,0%,0%);stroke-opacity:1;stroke-miterlimit:10;" d="M 321.28125 23.191406 L 321.011719 22.609375 L 321.011719 21.378906 L 321.101562 19.578125 L 321.101562 17.648438 L 321.191406 15.800781 L 321.191406 14.621094 L 321.101562 14.089844 L 320.921875 15.011719 L 321.28125 16.988281 L 322.179688 19.269531 L 323.53125 20.898438 L 325.050781 21.429688 L 326.21875 20.859375 L 327.03125 19.710938 L 327.300781 18.660156 L 327.390625 17.210938 L 327.390625 12.328125 L 327.480469 11.980469 " transform="matrix(1,0,0,-1,0,186.75)"/>
<path style="fill:none;stroke-width:2.26;stroke-linecap:round;stroke-linejoin:round;stroke:rgb(0%,0%,0%);stroke-opacity:1;stroke-miterlimit:10;" d="M 331.25 24.460938 L 331.070312 24.859375 L 330.800781 24.71875 L 330.710938 24.238281 " transform="matrix(1,0,0,-1,0,186.75)"/>
<path style="fill:none;stroke-width:2.26;stroke-linecap:round;stroke-linejoin:round;stroke:rgb(0%,0%,0%);stroke-opacity:1;stroke-miterlimit:10;" d="M 331.609375 19.929688 L 331.519531 19.359375 L 331.429688 18.351562 L 331.519531 16.808594 L 331.609375 15.058594 L 331.699219 13.46875 L 331.878906 12.371094 " transform="matrix(1,0,0,-1,0,186.75)"/>
<path style="fill:none;stroke-width:2.26;stroke-linecap:round;stroke-linejoin:round;stroke:rgb(0%,0%,0%);stroke-opacity:1;stroke-miterlimit:10;" d="M 338.890625 27.839844 L 339.070312 27.539062 L 339.160156 27.050781 L 339.160156 25.511719 L 339.070312 23.140625 L 338.890625 19.929688 L 338.800781 16.511719 L 339.070312 14 L 339.789062 12.550781 L 340.871094 12.328125 L 341.851562 12.550781 L 342.660156 13.078125 L 342.929688 13.910156 " transform="matrix(1,0,0,-1,0,186.75)"/>
<path style="fill:none;stroke-width:2.26;stroke-linecap:round;stroke-linejoin:round;stroke:rgb(0%,0%,0%);stroke-opacity:1;stroke-miterlimit:10;" d="M 336.730469 20.769531 L 336.550781 21.078125 L 337.089844 21.300781 L 337.71875 21.519531 L 338.710938 21.738281 L 339.96875 21.960938 L 341.140625 22.089844 L 342.210938 22.171875 L 343.289062 22.171875 L 343.558594 22.308594 " transform="matrix(1,0,0,-1,0,186.75)"/>
<path style="fill:none;stroke-width:2.26;stroke-linecap:round;stroke-linejoin:round;stroke:rgb(0%,0%,0%);stroke-opacity:1;stroke-miterlimit:10;" d="M 358.121094 26.699219 L 357.941406 26.921875 L 358.300781 26.828125 L 358.570312 26.609375 " transform="matrix(1,0,0,-1,0,186.75)"/>
<path style="fill:none;stroke-width:2.26;stroke-linecap:round;stroke-linejoin:round;stroke:rgb(0%,0%,0%);stroke-opacity:1;stroke-miterlimit:10;" d="M 358.300781 21.519531 L 358.121094 20.898438 L 358.121094 15.449219 L 358.03125 13.210938 L 357.941406 11.5 L 357.851562 10.96875 L 358.03125 11.140625 L 358.210938 11.628906 " transform="matrix(1,0,0,-1,0,186.75)"/>
<path style="fill:none;stroke-width:2.26;stroke-linecap:round;stroke-linejoin:round;stroke:rgb(0%,0%,0%);stroke-opacity:1;stroke-miterlimit:10;" d="M 366.378906 18.921875 L 366.558594 19.140625 L 366.558594 19.578125 L 366.289062 20.019531 L 365.660156 20.589844 L 364.671875 20.769531 L 363.601562 20.238281 L 362.699219 18.878906 L 362.429688 16.730469 L 362.789062 14.621094 L 363.871094 13.121094 L 365.390625 13.03125 L 366.828125 14.621094 L 367.910156 17.429688 L 368.449219 21.210938 L 368.359375 24.988281 L 368.179688 27.800781 L 368 29.03125 L 368.269531 27.890625 L 368.628906 25.648438 L 369.261719 22.609375 L 370.070312 19.410156 L 370.601562 17.429688 L 371.140625 15.800781 L 371.589844 14.839844 L 371.769531 14.621094 L 372.039062 14.621094 " transform="matrix(1,0,0,-1,0,186.75)"/>
<path style="fill:none;stroke-width:2.26;stroke-linecap:round;stroke-linejoin:round;stroke:rgb(0%,0%,0%);stroke-opacity:1;stroke-miterlimit:10;" d="M 375.28125 17.691406 L 375.910156 17.519531 L 376.980469 17.871094 L 378.238281 18.570312 L 379.320312 19.671875 L 379.589844 20.859375 L 379.050781 21.78125 L 377.878906 22.128906 L 376.441406 21.601562 L 375.191406 20.238281 L 374.199219 18.039062 L 373.929688 16.019531 L 374.019531 14.398438 L 374.558594 13.300781 L 375.191406 12.769531 L 376.441406 12.328125 L 377.878906 12.238281 L 379.320312 12.328125 L 381.03125 13.03125 " transform="matrix(1,0,0,-1,0,186.75)"/>
<path style="fill:none;stroke-width:2.26;stroke-linecap:round;stroke-linejoin:round;stroke:rgb(0%,0%,0%);stroke-opacity:1;stroke-miterlimit:10;" d="M 385.609375 20.71875 L 385.339844 19.851562 L 385.25 18.179688 L 385.25 14.398438 L 385.339844 12.898438 L 385.339844 12.160156 L 385.25 11.800781 L 385.25 12.109375 L 385.160156 13.210938 L 385.519531 15.890625 L 386.328125 18.660156 L 387.488281 20.640625 L 388.75 21.300781 L 389.648438 20.238281 L 390.191406 18.699219 L 390.371094 17.300781 L 390.371094 14.398438 L 390.460938 13.738281 " transform="matrix(1,0,0,-1,0,186.75)"/>
<path style="fill:none;stroke-width:2.26;stroke-linecap:round;stroke-linejoin:round;stroke:rgb(0%,0%,0%);stroke-opacity:1;stroke-miterlimit:10;" d="M 395.039062 29.378906 L 395.128906 29.601562 L 395.308594 29.289062 L 395.578125 28.148438 L 395.761719 26.390625 L 395.851562 24.328125 L 395.761719 21.25 L 395.488281 18.21875 L 395.398438 15.578125 L 395.578125 13.339844 L 396.300781 12.550781 L 397.199219 12.460938 L 398.011719 12.640625 L 398.640625 13.210938 " transform="matrix(1,0,0,-1,0,186.75)"/>
<path style="fill:none;stroke-width:2.26;stroke-linecap:round;stroke-linejoin:round;stroke:rgb(0%,0%,0%);stroke-opacity:1;stroke-miterlimit:10;" d="M 392.351562 23.710938 L 391.988281 23.800781 L 392.710938 23.621094 L 393.601562 23.539062 L 394.859375 23.488281 L 396.480469 23.410156 L 398.28125 23.269531 L 399.890625 23.140625 L 400.789062 23.101562 L 401.328125 23.269531 " transform="matrix(1,0,0,-1,0,186.75)"/>
<path style="fill:none;stroke-width:2.26;stroke-linecap:round;stroke-linejoin:round;stroke:rgb(0%,0%,0%);stroke-opacity:1;stroke-miterlimit:10;" d="M 404.03125 27.710938 L 403.941406 28.109375 L 403.671875 28.109375 L 403.398438 28.019531 L 403.398438 27.710938 " transform="matrix(1,0,0,-1,0,186.75)"/>
<path style="fill:none;stroke-width:2.26;stroke-linecap:round;stroke-linejoin:round;stroke:rgb(0%,0%,0%);stroke-opacity:1;stroke-miterlimit:10;" d="M 403.941406 22.789062 L 403.941406 21.648438 L 404.03125 19.578125 L 404.300781 17.171875 L 404.570312 15.058594 L 404.738281 13.171875 L 404.828125 12.328125 " transform="matrix(1,0,0,-1,0,186.75)"/>
<path style="fill:none;stroke-width:2.26;stroke-linecap:round;stroke-linejoin:round;stroke:rgb(0%,0%,0%);stroke-opacity:1;stroke-miterlimit:10;" d="M 416.691406 26.789062 L 416.601562 27.320312 L 416.328125 27.980469 L 415.800781 28.589844 L 414.988281 29.160156 L 413.910156 29.46875 L 412.921875 29.210938 L 412.019531 28.328125 L 411.390625 26.960938 L 411.03125 25.429688 L 410.941406 23.839844 L 411.121094 22.441406 L 411.300781 20.238281 L 411.570312 17.648438 L 411.839844 15.191406 L 411.929688 12.949219 L 411.839844 12.019531 L 411.660156 11.628906 " transform="matrix(1,0,0,-1,0,186.75)"/>
<path style="fill:none;stroke-width:2.26;stroke-linecap:round;stroke-linejoin:round;stroke:rgb(0%,0%,0%);stroke-opacity:1;stroke-miterlimit:10;" d="M 408.519531 18.789062 L 408.339844 19.191406 L 408.339844 19.488281 L 409.328125 19.488281 L 410.410156 19.410156 L 411.839844 19.269531 L 413.460938 19.140625 L 414.359375 19.101562 L 415.261719 19.140625 L 415.980469 19.269531 " transform="matrix(1,0,0,-1,0,186.75)"/>
<path style="fill:none;stroke-width:2.26;stroke-linecap:round;stroke-linejoin:round;stroke:rgb(0%,0%,0%);stroke-opacity:1;stroke-miterlimit:10;" d="M 419.839844 23.359375 L 420.019531 23.710938 L 419.839844 23.140625 " transform="matrix(1,0,0,-1,0,186.75)"/>
<path style="fill:none;stroke-width:2.26;stroke-linecap:round;stroke-linejoin:round;stroke:rgb(0%,0%,0%);stroke-opacity:1;stroke-miterlimit:10;" d="M 419.929688 19.488281 L 419.839844 18.480469 L 419.839844 15.058594 L 419.929688 13.078125 L 419.929688 10.75 L 420.199219 10.921875 " transform="matrix(1,0,0,-1,0,186.75)"/>
<path style="fill:none;stroke-width:2.26;stroke-linecap:round;stroke-linejoin:round;stroke:rgb(0%,0%,0%);stroke-opacity:1;stroke-miterlimit:10;" d="M 424.148438 16.769531 L 424.78125 16.640625 L 425.949219 16.898438 L 427.121094 17.339844 L 428.191406 17.871094 L 428.910156 18.308594 L 429.179688 18.699219 L 429.179688 19.410156 L 428.910156 20.238281 L 428.460938 21.160156 L 427.738281 22.039062 L 426.851562 22.261719 L 425.769531 21.738281 L 424.78125 20.71875 L 423.878906 19.488281 L 423.339844 17.960938 L 423.339844 16.511719 L 424.148438 15.230469 L 425.5 14.039062 L 427.121094 13.519531 L 428.730469 13.390625 L 429.808594 13.648438 L 430.800781 14.351562 " transform="matrix(1,0,0,-1,0,186.75)"/>
<path style="fill:none;stroke-width:2.26;stroke-linecap:round;stroke-linejoin:round;stroke:rgb(0%,0%,0%);stroke-opacity:1;stroke-miterlimit:10;" d="M 434.390625 20.769531 L 434.210938 20.371094 L 434.300781 19.671875 L 434.570312 18.53125 L 435.019531 16.730469 L 435.46875 15.140625 L 435.738281 14 L 435.828125 13.46875 L 435.828125 13.828125 L 435.558594 15.449219 L 435.378906 17.25 L 435.378906 19.101562 L 435.828125 21.300781 L 436.820312 22.699219 L 437.898438 23.710938 L 439.238281 24.589844 L 440.320312 24.808594 L 441.128906 24.71875 L 441.851562 24.460938 L 442.300781 23.890625 L 442.660156 23.269531 " transform="matrix(1,0,0,-1,0,186.75)"/>
<path style="fill:none;stroke-width:2.26;stroke-linecap:round;stroke-linejoin:round;stroke:rgb(19.999695%,19.999695%,79.998779%);stroke-opacity:1;stroke-miterlimit:10;" d="M 310.230469 126.941406 L 315.289062 126.941406 L 320.351562 126.949219 L 325.410156 126.949219 L 330.46875 126.960938 L 335.539062 126.960938 L 340.601562 126.96875 L 350.71875 126.96875 L 355.78125 126.980469 L 360.839844 126.980469 L 365.898438 126.988281 L 376.019531 126.988281 L 381.089844 127 L 386.148438 127 L 391.210938 127.011719 L 396.269531 127.011719 L 401.328125 127.019531 L 411.449219 127.019531 L 416.511719 127.03125 " transform="matrix(1,0,0,-1,0,186.75)"/>
<path style="fill:none;stroke-width:2.26;stroke-linecap:round;stroke-linejoin:round;stroke:rgb(19.999695%,19.999695%,79.998779%);stroke-opacity:1;stroke-miterlimit:10;" d="M 416.511719 127.03125 L 416.328125 120.128906 " transform="matrix(1,0,0,-1,0,186.75)"/>
<path style="fill:none;stroke-width:2.26;stroke-linecap:round;stroke-linejoin:round;stroke:rgb(19.999695%,19.999695%,79.998779%);stroke-opacity:1;stroke-miterlimit:10;" d="M 309.238281 127.859375 L 309.78125 119.429688 " transform="matrix(1,0,0,-1,0,186.75)"/>
<path style="fill:none;stroke-width:2.26;stroke-linecap:round;stroke-linejoin:round;stroke:rgb(19.999695%,19.999695%,79.998779%);stroke-opacity:1;stroke-miterlimit:10;" d="M 330.53125 161 L 330.800781 161 L 331.25 160.871094 L 331.699219 160.691406 L 332.328125 160.558594 L 333.140625 160.429688 L 334.039062 160.429688 L 335.121094 160.339844 L 336.101562 160.25 L 337 160.210938 L 337.988281 160.121094 L 338.800781 160.121094 L 339.699219 160.03125 L 340.601562 159.898438 L 341.578125 159.589844 L 342.660156 159.238281 L 343.738281 158.839844 L 344.820312 158.539062 L 346.171875 158.191406 L 347.511719 157.828125 L 348.859375 157.390625 L 350.390625 156.820312 L 351.738281 156.210938 L 353 155.460938 L 354.160156 154.628906 L 355.148438 153.75 L 356.050781 152.78125 L 356.859375 151.769531 L 357.578125 150.851562 L 358.210938 150.011719 L 358.828125 149 L 359.28125 147.988281 L 359.820312 146.71875 L 360.449219 145.179688 L 360.988281 143.769531 L 361.53125 142.539062 L 361.980469 141.488281 L 362.25 140.648438 L 362.519531 139.859375 L 362.609375 138.761719 L 362.789062 137.75 L 362.878906 136.738281 L 363.148438 135.730469 L 363.511719 134.761719 L 363.78125 133.75 L 364.050781 132.871094 L 364.140625 132.171875 L 364.230469 131.691406 L 364.230469 131.121094 L 364.140625 130.808594 L 364.140625 130.460938 L 364.050781 130.148438 L 364.050781 129.398438 L 364.140625 129.050781 L 364.140625 128.390625 L 364.230469 128.078125 " transform="matrix(1,0,0,-1,0,186.75)"/>
<path style="fill:none;stroke-width:2.26;stroke-linecap:round;stroke-linejoin:round;stroke:rgb(100%,0%,0%);stroke-opacity:1;stroke-miterlimit:10;" d="M 268.269531 77.371094 L 268 71 " transform="matrix(1,0,0,-1,0,186.75)"/>
<path style="fill:none;stroke-width:2.26;stroke-linecap:round;stroke-linejoin:round;stroke:rgb(100%,0%,0%);stroke-opacity:1;stroke-miterlimit:10;" d="M 268 71.53125 L 273.019531 71.558594 L 278.03125 71.589844 L 283.039062 71.621094 L 288.050781 71.660156 L 293.070312 71.691406 L 298.078125 71.71875 L 303.089844 71.761719 L 308.109375 71.789062 L 313.121094 71.820312 L 318.128906 71.851562 L 323.140625 71.890625 L 328.160156 71.921875 L 333.171875 71.949219 L 338.179688 71.988281 L 343.199219 72.019531 L 348.210938 72.050781 L 353.21875 72.089844 L 358.230469 72.121094 L 363.25 72.148438 L 368.261719 72.179688 L 373.269531 72.21875 L 378.289062 72.25 L 383.300781 72.28125 L 388.308594 72.320312 L 393.320312 72.351562 L 398.339844 72.378906 L 403.351562 72.421875 L 408.359375 72.449219 L 413.378906 72.480469 L 418.390625 72.511719 L 423.398438 72.550781 L 428.410156 72.578125 L 433.429688 72.609375 L 438.441406 72.648438 L 443.449219 72.679688 L 448.46875 72.710938 L 453.480469 72.738281 L 458.488281 72.78125 L 463.5 72.808594 L 468.519531 72.839844 L 473.53125 72.878906 L 478.539062 72.910156 L 483.558594 72.941406 L 488.570312 72.980469 " transform="matrix(1,0,0,-1,0,186.75)"/>
<path style="fill:none;stroke-width:2.26;stroke-linecap:round;stroke-linejoin:round;stroke:rgb(100%,0%,0%);stroke-opacity:1;stroke-miterlimit:10;" d="M 488.390625 73.328125 L 487.941406 80.050781 " transform="matrix(1,0,0,-1,0,186.75)"/>
<path style="fill:none;stroke-width:2.26;stroke-linecap:round;stroke-linejoin:round;stroke:rgb(100%,0%,0%);stroke-opacity:1;stroke-miterlimit:10;" d="M 176.269531 29.289062 L 176.808594 29.910156 L 177.621094 31.050781 L 178.699219 32.589844 L 179.871094 34.300781 L 180.761719 35.671875 L 181.480469 36.71875 L 181.929688 37.421875 L 182.289062 37.558594 L 182.828125 37.25 L 183.460938 36.460938 L 184.359375 35.308594 L 185.351562 34.21875 L 186.421875 33.03125 L 187.230469 32.238281 L 187.589844 31.671875 L 187.859375 31.320312 " transform="matrix(1,0,0,-1,0,186.75)"/>
<path style="fill:none;stroke-width:2.26;stroke-linecap:round;stroke-linejoin:round;stroke:rgb(100%,0%,0%);stroke-opacity:1;stroke-miterlimit:10;" d="M 196.398438 18.828125 L 201.410156 18.859375 L 206.429688 18.878906 L 211.441406 18.898438 L 216.449219 18.929688 L 221.46875 18.949219 L 226.480469 18.96875 L 231.5 19 L 236.511719 19.019531 L 241.519531 19.039062 L 246.539062 19.070312 L 251.550781 19.089844 L 256.570312 19.109375 L 261.578125 19.128906 L 266.601562 19.160156 L 271.609375 19.179688 L 276.621094 19.199219 L 281.640625 19.230469 L 286.648438 19.25 L 291.671875 19.269531 L 296.679688 19.300781 L 301.691406 19.320312 " transform="matrix(1,0,0,-1,0,186.75)"/>
<path style="fill:none;stroke-width:2.26;stroke-linecap:round;stroke-linejoin:round;stroke:rgb(100%,0%,0%);stroke-opacity:1;stroke-miterlimit:10;" d="M 181.75 34.960938 L 182.019531 34.441406 L 182.109375 33.730469 L 182.199219 32.628906 L 182.199219 31.269531 L 182.289062 29.910156 L 182.289062 28.589844 L 182.378906 27.179688 L 182.46875 25.871094 L 182.648438 24.550781 L 182.828125 23.269531 L 183.101562 22.21875 L 183.28125 21.378906 L 183.550781 20.769531 L 183.820312 20.238281 L 184.179688 19.851562 L 184.449219 19.488281 L 184.988281 19.191406 L 185.710938 18.789062 L 186.328125 18.53125 L 187.050781 18.21875 L 187.679688 18.089844 L 188.21875 17.960938 L 188.851562 17.960938 L 189.480469 18 L 190.019531 18.089844 L 190.738281 18.179688 L 191.371094 18.351562 L 191.910156 18.53125 L 192.53125 18.621094 L 193.25 18.75 L 194.601562 18.75 L 195.410156 18.828125 L 195.949219 18.878906 L 196.488281 18.921875 L 196.851562 18.828125 L 197.03125 18.621094 " transform="matrix(1,0,0,-1,0,186.75)"/>
<path style="fill:none;stroke-width:2.26;stroke-linecap:round;stroke-linejoin:round;stroke:rgb(100%,0%,0%);stroke-opacity:1;stroke-miterlimit:10;" d="M 380.21875 72.621094 L 380.308594 67.398438 L 380.398438 62.179688 L 380.488281 56.949219 L 380.578125 51.730469 L 380.671875 46.511719 L 380.761719 41.28125 L 380.851562 36.058594 " transform="matrix(1,0,0,-1,0,186.75)"/>
<path style="fill:none;stroke-width:2.26;stroke-linecap:round;stroke-linejoin:round;stroke:rgb(0%,0%,0%);stroke-opacity:1;stroke-miterlimit:10;" d="M 237.101562 171.410156 L 236.921875 171.628906 L 237.28125 171.539062 L 237.550781 171.328125 " transform="matrix(1,0,0,-1,0,186.75)"/>
<path style="fill:none;stroke-width:2.26;stroke-linecap:round;stroke-linejoin:round;stroke:rgb(0%,0%,0%);stroke-opacity:1;stroke-miterlimit:10;" d="M 237.28125 166.230469 L 237.101562 165.609375 L 237.101562 160.160156 L 237.011719 157.921875 L 236.921875 156.210938 L 236.828125 155.679688 L 237.011719 155.859375 L 237.191406 156.339844 " transform="matrix(1,0,0,-1,0,186.75)"/>
<path style="fill:none;stroke-width:2.26;stroke-linecap:round;stroke-linejoin:round;stroke:rgb(0%,0%,0%);stroke-opacity:1;stroke-miterlimit:10;" d="M 245.359375 163.628906 L 245.539062 163.851562 L 245.539062 164.289062 L 245.269531 164.730469 L 244.640625 165.300781 L 243.660156 165.480469 L 242.578125 164.949219 L 241.679688 163.589844 L 241.410156 161.441406 L 241.769531 159.328125 L 242.851562 157.828125 L 244.371094 157.75 L 245.808594 159.328125 L 246.890625 162.140625 L 247.429688 165.921875 L 247.339844 169.699219 L 247.160156 172.511719 L 246.980469 173.738281 L 247.25 172.601562 L 247.609375 170.359375 L 248.238281 167.328125 L 249.050781 164.121094 L 249.578125 162.140625 L 250.121094 160.511719 L 250.570312 159.550781 L 250.75 159.328125 L 251.019531 159.328125 " transform="matrix(1,0,0,-1,0,186.75)"/>
<path style="fill:none;stroke-width:2.26;stroke-linecap:round;stroke-linejoin:round;stroke:rgb(0%,0%,0%);stroke-opacity:1;stroke-miterlimit:10;" d="M 254.261719 162.398438 L 254.890625 162.230469 L 255.960938 162.578125 L 257.21875 163.28125 L 258.300781 164.378906 L 258.570312 165.570312 L 258.03125 166.488281 L 256.859375 166.839844 L 255.421875 166.320312 L 254.171875 164.949219 L 253.179688 162.761719 L 252.910156 160.730469 L 253 159.109375 L 253.539062 158.011719 L 254.171875 157.480469 L 255.421875 157.039062 L 256.859375 156.960938 L 258.300781 157.039062 L 260.011719 157.75 " transform="matrix(1,0,0,-1,0,186.75)"/>
<path style="fill:none;stroke-width:2.26;stroke-linecap:round;stroke-linejoin:round;stroke:rgb(0%,0%,0%);stroke-opacity:1;stroke-miterlimit:10;" d="M 264.589844 165.441406 L 264.320312 164.558594 L 264.230469 162.890625 L 264.230469 159.109375 L 264.320312 157.609375 L 264.320312 156.871094 L 264.230469 156.519531 L 264.230469 156.820312 L 264.140625 157.921875 L 264.5 160.601562 L 265.308594 163.371094 L 266.480469 165.351562 L 267.730469 166.011719 L 268.628906 164.949219 L 269.171875 163.421875 L 269.351562 162.011719 L 269.351562 159.109375 L 269.441406 158.449219 " transform="matrix(1,0,0,-1,0,186.75)"/>
<path style="fill:none;stroke-width:2.26;stroke-linecap:round;stroke-linejoin:round;stroke:rgb(0%,0%,0%);stroke-opacity:1;stroke-miterlimit:10;" d="M 274.019531 174.089844 L 274.109375 174.308594 L 274.289062 174.011719 L 274.558594 172.859375 L 274.738281 171.109375 L 274.828125 169.039062 L 274.738281 165.960938 L 274.46875 162.929688 L 274.378906 160.289062 L 274.558594 158.050781 L 275.28125 157.261719 L 276.179688 157.171875 L 276.988281 157.351562 L 277.621094 157.921875 " transform="matrix(1,0,0,-1,0,186.75)"/>
<path style="fill:none;stroke-width:2.26;stroke-linecap:round;stroke-linejoin:round;stroke:rgb(0%,0%,0%);stroke-opacity:1;stroke-miterlimit:10;" d="M 271.328125 168.421875 L 270.96875 168.511719 L 271.691406 168.339844 L 272.578125 168.25 L 273.839844 168.210938 L 275.460938 168.121094 L 277.261719 167.988281 L 278.871094 167.851562 L 279.769531 167.808594 L 280.308594 167.988281 " transform="matrix(1,0,0,-1,0,186.75)"/>
<path style="fill:none;stroke-width:2.26;stroke-linecap:round;stroke-linejoin:round;stroke:rgb(0%,0%,0%);stroke-opacity:1;stroke-miterlimit:10;" d="M 283.011719 172.421875 L 282.921875 172.820312 L 282.648438 172.820312 L 282.378906 172.730469 L 282.378906 172.421875 " transform="matrix(1,0,0,-1,0,186.75)"/>
<path style="fill:none;stroke-width:2.26;stroke-linecap:round;stroke-linejoin:round;stroke:rgb(0%,0%,0%);stroke-opacity:1;stroke-miterlimit:10;" d="M 282.921875 167.5 L 282.921875 166.359375 L 283.011719 164.289062 L 283.28125 161.878906 L 283.550781 159.769531 L 283.730469 157.878906 L 283.820312 157.039062 " transform="matrix(1,0,0,-1,0,186.75)"/>
<path style="fill:none;stroke-width:2.26;stroke-linecap:round;stroke-linejoin:round;stroke:rgb(0%,0%,0%);stroke-opacity:1;stroke-miterlimit:10;" d="M 295.671875 171.5 L 295.578125 172.03125 L 295.320312 172.691406 L 294.78125 173.300781 L 293.96875 173.871094 L 292.890625 174.179688 L 291.898438 173.921875 L 291 173.039062 L 290.371094 171.679688 L 290.011719 170.140625 L 289.921875 168.558594 L 290.101562 167.148438 L 290.28125 164.949219 L 290.550781 162.359375 L 290.820312 159.898438 L 290.910156 157.660156 L 290.820312 156.738281 L 290.640625 156.339844 " transform="matrix(1,0,0,-1,0,186.75)"/>
<path style="fill:none;stroke-width:2.26;stroke-linecap:round;stroke-linejoin:round;stroke:rgb(0%,0%,0%);stroke-opacity:1;stroke-miterlimit:10;" d="M 287.5 163.5 L 287.320312 163.898438 L 287.320312 164.210938 L 288.308594 164.210938 L 289.390625 164.121094 L 290.820312 163.988281 L 292.441406 163.851562 L 293.339844 163.808594 L 294.238281 163.851562 L 294.960938 163.988281 " transform="matrix(1,0,0,-1,0,186.75)"/>
<path style="fill:none;stroke-width:2.26;stroke-linecap:round;stroke-linejoin:round;stroke:rgb(0%,0%,0%);stroke-opacity:1;stroke-miterlimit:10;" d="M 298.820312 168.070312 L 299 168.421875 L 298.820312 167.851562 " transform="matrix(1,0,0,-1,0,186.75)"/>
<path style="fill:none;stroke-width:2.26;stroke-linecap:round;stroke-linejoin:round;stroke:rgb(0%,0%,0%);stroke-opacity:1;stroke-miterlimit:10;" d="M 298.910156 164.210938 L 298.820312 163.199219 L 298.820312 159.769531 L 298.910156 157.789062 L 298.910156 155.460938 L 299.179688 155.640625 " transform="matrix(1,0,0,-1,0,186.75)"/>
<path style="fill:none;stroke-width:2.26;stroke-linecap:round;stroke-linejoin:round;stroke:rgb(0%,0%,0%);stroke-opacity:1;stroke-miterlimit:10;" d="M 303.128906 161.480469 L 303.761719 161.351562 L 304.929688 161.609375 L 306.101562 162.050781 L 307.171875 162.578125 L 307.890625 163.019531 L 308.160156 163.421875 L 308.160156 164.121094 L 307.890625 164.949219 L 307.441406 165.878906 L 306.730469 166.75 L 305.828125 166.96875 L 304.75 166.449219 L 303.761719 165.441406 L 302.859375 164.210938 L 302.320312 162.671875 L 302.320312 161.21875 L 303.128906 159.941406 L 304.480469 158.761719 L 306.101562 158.230469 L 307.710938 158.101562 L 308.789062 158.359375 L 309.78125 159.058594 " transform="matrix(1,0,0,-1,0,186.75)"/>
<path style="fill:none;stroke-width:2.26;stroke-linecap:round;stroke-linejoin:round;stroke:rgb(0%,0%,0%);stroke-opacity:1;stroke-miterlimit:10;" d="M 313.371094 165.480469 L 313.191406 165.078125 L 313.28125 164.378906 L 313.550781 163.238281 L 314 161.441406 L 314.449219 159.859375 L 314.71875 158.710938 L 314.808594 158.191406 L 314.808594 158.539062 L 314.539062 160.160156 L 314.359375 161.960938 L 314.359375 163.808594 L 314.808594 166.011719 L 315.800781 167.410156 L 316.878906 168.421875 L 318.230469 169.300781 L 319.300781 169.519531 L 320.109375 169.441406 L 320.828125 169.171875 L 321.28125 168.601562 L 321.640625 167.988281 " transform="matrix(1,0,0,-1,0,186.75)"/>
<path style="fill:none;stroke-width:2.26;stroke-linecap:round;stroke-linejoin:round;stroke:rgb(19.999695%,19.999695%,79.998779%);stroke-opacity:1;stroke-miterlimit:10;" d="M 120.75 139.949219 L 120.660156 140.648438 L 120.75 141.710938 L 121.019531 143.109375 L 121.378906 144.910156 L 121.828125 146.71875 L 122.371094 148.46875 L 123 150.140625 L 123.621094 151.640625 L 124.429688 153.128906 L 125.421875 154.710938 L 126.320312 156.210938 L 127.21875 157.53125 L 128.210938 158.800781 L 129.371094 159.898438 L 130.71875 161 L 132.339844 162.050781 L 133.871094 162.761719 L 135.480469 163.28125 L 137.101562 163.679688 L 138.898438 164.03125 L 140.691406 164.289062 L 142.308594 164.429688 L 146.800781 164.429688 L 147.789062 164.46875 L 148.328125 164.429688 L 148.601562 164.339844 " transform="matrix(1,0,0,-1,0,186.75)"/>
</g>
</svg>
