<?xml version="1.0" encoding="UTF-8"?>
<svg xmlns="http://www.w3.org/2000/svg" xmlns:xlink="http://www.w3.org/1999/xlink" width="473.386719pt" height="118.464844pt" viewBox="0 0 473.386719 118.464844" version="1.1">
<g id="surface1">
<path style="fill:none;stroke-width:2.26;stroke-linecap:round;stroke-linejoin:round;stroke:rgb(0%,0%,0%);stroke-opacity:1;stroke-miterlimit:10;" d="M 151.195312 103.144532 L 151.242188 97.191407 L 151.285156 91.238282 " transform="matrix(1,0,0,-1,0,118.464844)"/>
<path style="fill:none;stroke-width:2.26;stroke-linecap:round;stroke-linejoin:round;stroke:rgb(0%,0%,0%);stroke-opacity:1;stroke-miterlimit:10;" d="M 151.285156 91.148438 L 157.753906 91.019532 " transform="matrix(1,0,0,-1,0,118.464844)"/>
<path style="fill:none;stroke-width:2.26;stroke-linecap:round;stroke-linejoin:round;stroke:rgb(0%,0%,0%);stroke-opacity:1;stroke-miterlimit:10;" d="M 157.84375 90.929688 L 157.785156 84.441407 L 157.722656 77.949219 L 157.664062 71.460938 " transform="matrix(1,0,0,-1,0,118.464844)"/>
<path style="fill:none;stroke-width:2.26;stroke-linecap:round;stroke-linejoin:round;stroke:rgb(0%,0%,0%);stroke-opacity:1;stroke-miterlimit:10;" d="M 157.664062 71.460938 L 151.644531 71.726563 " transform="matrix(1,0,0,-1,0,118.464844)"/>
<path style="fill:none;stroke-width:2.26;stroke-linecap:round;stroke-linejoin:round;stroke:rgb(0%,0%,0%);stroke-opacity:1;stroke-miterlimit:10;" d="M 151.914062 71.636719 L 152.183594 52.652344 " transform="matrix(1,0,0,-1,0,118.464844)"/>
<path style="fill:none;stroke-width:2.26;stroke-linecap:round;stroke-linejoin:round;stroke:rgb(0%,0%,0%);stroke-opacity:1;stroke-miterlimit:10;" d="M 152.183594 52.082032 L 158.5625 52.125 " transform="matrix(1,0,0,-1,0,118.464844)"/>
<path style="fill:none;stroke-width:2.26;stroke-linecap:round;stroke-linejoin:round;stroke:rgb(0%,0%,0%);stroke-opacity:1;stroke-miterlimit:10;" d="M 158.472656 52.082032 L 158.359375 46.765625 L 158.25 41.449219 L 158.136719 36.128907 L 158.023438 30.8125 " transform="matrix(1,0,0,-1,0,118.464844)"/>
<path style="fill:none;stroke-width:2.26;stroke-linecap:round;stroke-linejoin:round;stroke:rgb(0%,0%,0%);stroke-opacity:1;stroke-miterlimit:10;" d="M 157.84375 30.460938 L 152.542969 30.550782 " transform="matrix(1,0,0,-1,0,118.464844)"/>
<path style="fill:none;stroke-width:2.26;stroke-linecap:round;stroke-linejoin:round;stroke:rgb(0%,0%,0%);stroke-opacity:1;stroke-miterlimit:10;" d="M 152.09375 30.503907 L 152.035156 24.675782 L 151.972656 18.84375 L 151.914062 13.015625 " transform="matrix(1,0,0,-1,0,118.464844)"/>
<path style="fill:none;stroke-width:2.26;stroke-linecap:round;stroke-linejoin:round;stroke:rgb(0%,0%,0%);stroke-opacity:1;stroke-miterlimit:10;" d="M 152.8125 12.574219 L 163.265625 12.605469 L 168.496094 12.625 L 194.628906 12.703125 L 199.859375 12.71875 L 210.3125 12.75 " transform="matrix(1,0,0,-1,0,118.464844)"/>
<path style="fill:none;stroke-width:2.26;stroke-linecap:round;stroke-linejoin:round;stroke:rgb(0%,0%,0%);stroke-opacity:1;stroke-miterlimit:10;" d="M 210.042969 12.882813 L 210.023438 17.898438 L 210.003906 22.910157 L 209.964844 32.941407 L 209.941406 37.957032 L 209.921875 42.972657 L 209.902344 47.984375 L 209.863281 58.015625 L 209.84375 63.027344 L 209.785156 78.074219 L 209.761719 83.089844 L 209.742188 88.101563 L 209.703125 98.132813 L 209.683594 103.144532 " transform="matrix(1,0,0,-1,0,118.464844)"/>
<path style="fill:none;stroke-width:2.26;stroke-linecap:round;stroke-linejoin:round;stroke:rgb(0%,0%,0%);stroke-opacity:1;stroke-miterlimit:10;" d="M 209.054688 102.925782 L 198.601562 103.160157 L 193.371094 103.273438 L 182.917969 103.507813 L 177.691406 103.621094 L 167.238281 103.855469 L 162.007812 103.96875 L 156.78125 104.085938 L 151.554688 104.199219 " transform="matrix(1,0,0,-1,0,118.464844)"/>
<path style="fill:none;stroke-width:2.26;stroke-linecap:round;stroke-linejoin:round;stroke:rgb(0%,0%,0%);stroke-opacity:1;stroke-miterlimit:10;" d="M 61.890625 104.070313 L 61.441406 94.3125 " transform="matrix(1,0,0,-1,0,118.464844)"/>
<path style="fill:none;stroke-width:2.26;stroke-linecap:round;stroke-linejoin:round;stroke:rgb(0%,0%,0%);stroke-opacity:1;stroke-miterlimit:10;" d="M 60.09375 73.746094 L 60.003906 63.992188 " transform="matrix(1,0,0,-1,0,118.464844)"/>
<path style="fill:none;stroke-width:2.26;stroke-linecap:round;stroke-linejoin:round;stroke:rgb(0%,0%,0%);stroke-opacity:1;stroke-miterlimit:10;" d="M 60.09375 63.992188 L 65.261719 63.90625 L 70.425781 63.824219 L 75.59375 63.742188 L 80.757812 63.65625 L 85.925781 63.574219 L 91.089844 63.488282 L 96.257812 63.40625 L 101.421875 63.324219 L 106.589844 63.238282 L 111.753906 63.15625 " transform="matrix(1,0,0,-1,0,118.464844)"/>
<path style="fill:none;stroke-width:2.26;stroke-linecap:round;stroke-linejoin:round;stroke:rgb(0%,0%,0%);stroke-opacity:1;stroke-miterlimit:10;" d="M 111.84375 63.507813 L 112.203125 70.980469 " transform="matrix(1,0,0,-1,0,118.464844)"/>
<path style="fill:none;stroke-width:2.26;stroke-linecap:round;stroke-linejoin:round;stroke:rgb(0%,0%,0%);stroke-opacity:1;stroke-miterlimit:10;" d="M 109.6875 94.753907 L 109.6875 103.453125 " transform="matrix(1,0,0,-1,0,118.464844)"/>
<path style="fill:none;stroke-width:2.26;stroke-linecap:round;stroke-linejoin:round;stroke:rgb(0%,0%,0%);stroke-opacity:1;stroke-miterlimit:10;" d="M 109.867188 103.410157 L 99.34375 103.488282 L 94.085938 103.527344 L 78.300781 103.644532 L 73.042969 103.683594 L 62.519531 103.761719 " transform="matrix(1,0,0,-1,0,118.464844)"/>
<path style="fill:none;stroke-width:2.26;stroke-linecap:round;stroke-linejoin:round;stroke:rgb(0%,0%,0%);stroke-opacity:1;stroke-miterlimit:10;" d="M 61.351562 94.003907 L 67.550781 94.003907 " transform="matrix(1,0,0,-1,0,118.464844)"/>
<path style="fill:none;stroke-width:2.26;stroke-linecap:round;stroke-linejoin:round;stroke:rgb(0%,0%,0%);stroke-opacity:1;stroke-miterlimit:10;" d="M 67.371094 93.566407 L 67.3125 87.078125 L 67.25 80.589844 L 67.191406 74.097657 " transform="matrix(1,0,0,-1,0,118.464844)"/>
<path style="fill:none;stroke-width:2.26;stroke-linecap:round;stroke-linejoin:round;stroke:rgb(0%,0%,0%);stroke-opacity:1;stroke-miterlimit:10;" d="M 67.191406 74.230469 L 60.273438 74.496094 " transform="matrix(1,0,0,-1,0,118.464844)"/>
<path style="fill:none;stroke-width:2.26;stroke-linecap:round;stroke-linejoin:round;stroke:rgb(0%,0%,0%);stroke-opacity:1;stroke-miterlimit:10;" d="M 111.125 95.105469 L 115.796875 94.664063 " transform="matrix(1,0,0,-1,0,118.464844)"/>
<path style="fill:none;stroke-width:2.26;stroke-linecap:round;stroke-linejoin:round;stroke:rgb(0%,0%,0%);stroke-opacity:1;stroke-miterlimit:10;" d="M 116.335938 94.664063 L 117.054688 72.867188 " transform="matrix(1,0,0,-1,0,118.464844)"/>
<path style="fill:none;stroke-width:2.26;stroke-linecap:round;stroke-linejoin:round;stroke:rgb(0%,0%,0%);stroke-opacity:1;stroke-miterlimit:10;" d="M 117.234375 72.738282 L 112.023438 72.078125 " transform="matrix(1,0,0,-1,0,118.464844)"/>
<path style="fill:none;stroke-width:2.26;stroke-linecap:round;stroke-linejoin:round;stroke:rgb(0%,0%,0%);stroke-opacity:1;stroke-miterlimit:10;" d="M 117.054688 83.765625 L 133.917969 83.425782 L 139.542969 83.316407 L 156.40625 82.976563 " transform="matrix(1,0,0,-1,0,118.464844)"/>
<path style="fill:none;stroke-width:1.41;stroke-linecap:round;stroke-linejoin:round;stroke:rgb(0%,0%,0%);stroke-opacity:1;stroke-miterlimit:10;" d="M 160.898438 77.175782 L 161.078125 77.832032 L 161.347656 78.976563 L 161.976562 80.734375 L 162.605469 82.625 L 163.324219 84.46875 L 164.132812 86.050782 L 164.582031 87.019532 L 164.941406 87.546875 L 165.121094 87.765625 L 165.480469 87.589844 L 165.839844 86.84375 L 166.289062 85.523438 L 166.738281 83.636719 L 167.367188 81.347657 L 167.816406 79.460938 L 168.175781 78.011719 L 168.445312 77.175782 L 168.445312 76.910157 " transform="matrix(1,0,0,-1,0,118.464844)"/>
<path style="fill:none;stroke-width:1.41;stroke-linecap:round;stroke-linejoin:round;stroke:rgb(0%,0%,0%);stroke-opacity:1;stroke-miterlimit:10;" d="M 162.425781 81.175782 L 162.785156 80.953125 L 163.683594 80.953125 L 164.941406 81.042969 L 166.199219 81.21875 L 167.1875 81.394532 L 167.996094 81.394532 " transform="matrix(1,0,0,-1,0,118.464844)"/>
<path style="fill:none;stroke-width:1.41;stroke-linecap:round;stroke-linejoin:round;stroke:rgb(0%,0%,0%);stroke-opacity:1;stroke-miterlimit:10;" d="M 163.144531 45.402344 L 163.144531 45.667969 L 163.054688 44.917969 L 162.964844 43.46875 L 162.875 41.359375 L 162.785156 39.339844 L 162.605469 37.800782 L 162.515625 36.921875 " transform="matrix(1,0,0,-1,0,118.464844)"/>
<path style="fill:none;stroke-width:1.41;stroke-linecap:round;stroke-linejoin:round;stroke:rgb(0%,0%,0%);stroke-opacity:1;stroke-miterlimit:10;" d="M 162.605469 44.390625 L 162.605469 44.742188 L 162.875 45.007813 L 163.59375 45.269532 L 164.761719 45.445313 L 166.109375 45.488282 L 167.367188 45.226563 L 168.355469 44.65625 L 168.894531 43.730469 L 169.253906 42.546875 L 169.433594 41.402344 L 169.34375 40.394532 L 169.074219 39.425782 L 168.535156 38.636719 L 167.726562 38.019532 L 166.648438 37.582032 L 165.570312 37.316407 L 164.582031 37.273438 L 163.324219 37.273438 " transform="matrix(1,0,0,-1,0,118.464844)"/>
<path style="fill:none;stroke-width:1.41;stroke-linecap:round;stroke-linejoin:round;stroke:rgb(0%,0%,0%);stroke-opacity:1;stroke-miterlimit:10;" d="M 110.496094 87.675782 L 110.40625 87.984375 L 109.777344 88.335938 L 109.328125 88.511719 L 108.699219 88.601563 L 107.980469 88.511719 L 107.351562 88.378907 L 106.632812 88.027344 L 106.09375 87.503907 L 105.644531 86.929688 L 105.195312 86.097657 L 105.015625 85.347657 L 104.925781 84.734375 L 104.925781 83.722657 L 105.105469 83.238282 L 105.375 82.625 L 105.644531 82.007813 L 105.914062 81.394532 L 106.183594 80.910157 L 106.902344 80.207032 L 107.351562 79.988282 L 107.710938 79.8125 L 108.070312 79.769532 L 108.699219 79.8125 L 109.417969 79.988282 L 110.136719 80.25 L 110.945312 80.558594 L 111.394531 80.777344 L 111.753906 81.085938 L 111.84375 81.304688 " transform="matrix(1,0,0,-1,0,118.464844)"/>
<path style="fill:none;stroke-width:1.41;stroke-linecap:round;stroke-linejoin:round;stroke:rgb(0%,0%,0%);stroke-opacity:1;stroke-miterlimit:10;" d="M 71.863281 87.324219 L 72.042969 87.589844 L 72.3125 86.886719 L 72.3125 83.941407 L 72.222656 82.316407 L 72.132812 81.085938 L 72.132812 80.292969 L 72.222656 79.988282 " transform="matrix(1,0,0,-1,0,118.464844)"/>
<path style="fill:none;stroke-width:1.41;stroke-linecap:round;stroke-linejoin:round;stroke:rgb(0%,0%,0%);stroke-opacity:1;stroke-miterlimit:10;" d="M 72.3125 86.667969 L 72.222656 87.195313 L 72.3125 87.675782 L 72.582031 88.292969 L 73.210938 88.953125 L 74.289062 89.390625 L 75.367188 89.480469 L 76.355469 88.953125 L 76.714844 88.074219 L 76.535156 87.019532 L 75.546875 86.050782 L 74.378906 85.304688 L 73.300781 84.777344 L 72.761719 84.511719 L 73.570312 84.558594 L 74.558594 84.511719 L 75.636719 84.25 L 76.625 83.898438 L 77.253906 83.238282 L 77.34375 82.492188 L 77.253906 81.699219 L 76.984375 80.996094 L 76.625 80.515625 L 76.265625 80.25 L 75.816406 79.988282 L 75.097656 79.679688 L 74.289062 79.460938 L 73.390625 79.503907 L 72.671875 79.636719 L 72.3125 79.941407 L 72.042969 80.292969 " transform="matrix(1,0,0,-1,0,118.464844)"/>
<path style="fill:none;stroke-width:2.26;stroke-linecap:round;stroke-linejoin:round;stroke:rgb(0%,0%,0%);stroke-opacity:1;stroke-miterlimit:10;" d="M 93.335938 92.425782 L 93.15625 92.777344 L 92.976562 93.171875 L 92.4375 93.609375 L 91.449219 94.003907 L 90.191406 93.960938 L 88.753906 93.566407 L 87.496094 92.644532 L 86.6875 91.457032 L 86.328125 90.050782 L 86.867188 88.730469 L 88.035156 87.898438 L 89.742188 87.675782 L 91.539062 88.117188 L 92.796875 89.082032 L 93.695312 90.050782 L 94.054688 91.019532 L 94.144531 91.542969 L 94.054688 91.765625 L 93.875 91.105469 L 93.515625 90.050782 L 93.15625 88.601563 L 92.886719 86.800782 L 92.4375 84.910157 L 91.988281 82.183594 L 91.539062 79.019532 L 91.179688 75.679688 L 91.089844 73.132813 L 91.539062 71.855469 L 92.527344 71.683594 L 93.695312 72.339844 L 94.683594 73.351563 L 95.402344 74.273438 L 95.402344 74.976563 L 94.773438 75.679688 L 93.785156 76.296875 L 92.707031 76.867188 L 91.898438 77.480469 L 91.71875 77.921875 L 91.988281 78.273438 L 92.527344 78.714844 L 93.066406 79.109375 L 93.875 79.679688 L 94.59375 80.25 L 95.132812 80.867188 L 95.492188 81.4375 L 95.582031 81.789063 L 95.582031 82.097657 " transform="matrix(1,0,0,-1,0,118.464844)"/>
<path style="fill:none;stroke-width:2.26;stroke-linecap:round;stroke-linejoin:round;stroke:rgb(0%,0%,0%);stroke-opacity:1;stroke-miterlimit:10;" d="M 182.550781 67.683594 L 182.191406 67.242188 L 182.101562 66.582032 L 181.832031 64.824219 L 181.472656 62.011719 L 181.023438 58.804688 L 180.484375 55.421875 L 180.125 53.003907 L 179.855469 51.816407 L 179.765625 51.335938 " transform="matrix(1,0,0,-1,0,118.464844)"/>
<path style="fill:none;stroke-width:2.26;stroke-linecap:round;stroke-linejoin:round;stroke:rgb(0%,0%,0%);stroke-opacity:1;stroke-miterlimit:10;" d="M 181.292969 66.496094 L 181.472656 67.242188 L 181.921875 68.078125 L 182.640625 68.871094 L 184.078125 69.617188 L 185.695312 69.96875 L 187.3125 69.925782 L 188.929688 69.527344 L 189.828125 68.824219 L 190.367188 68.078125 L 190.457031 67.023438 L 190.277344 65.835938 L 189.828125 64.386719 L 188.929688 62.894532 L 187.582031 61.882813 L 186.054688 61.488282 L 184.617188 61.53125 L 183.539062 61.792969 L 182.910156 62.144532 L 182.640625 62.410157 " transform="matrix(1,0,0,-1,0,118.464844)"/>
<path style="fill:none;stroke-width:1.41;stroke-linecap:round;stroke-linejoin:round;stroke:rgb(0%,0%,0%);stroke-opacity:1;stroke-miterlimit:10;" d="M 14.367188 65.097657 L 14.457031 64.832032 L 14.546875 63.425782 L 14.636719 61.054688 L 14.636719 58.023438 L 14.457031 55.339844 L 14.367188 53.761719 L 14.367188 52.925782 " transform="matrix(1,0,0,-1,0,118.464844)"/>
<path style="fill:none;stroke-width:1.41;stroke-linecap:round;stroke-linejoin:round;stroke:rgb(0%,0%,0%);stroke-opacity:1;stroke-miterlimit:10;" d="M 14.546875 56.925782 L 14.816406 57.40625 L 15.175781 57.800782 L 15.894531 58.109375 L 16.792969 58.332032 L 17.601562 58.460938 L 18.679688 58.636719 L 19.398438 58.769532 L 20.027344 58.8125 L 20.566406 58.855469 L 20.65625 59.078125 " transform="matrix(1,0,0,-1,0,118.464844)"/>
<path style="fill:none;stroke-width:1.41;stroke-linecap:round;stroke-linejoin:round;stroke:rgb(0%,0%,0%);stroke-opacity:1;stroke-miterlimit:10;" d="M 21.824219 63.691407 L 21.644531 63.957032 L 21.644531 62.8125 L 21.734375 61.539063 L 21.734375 59.339844 L 21.644531 56.792969 L 21.554688 54.59375 L 21.464844 52.707032 L 21.375 51.738282 " transform="matrix(1,0,0,-1,0,118.464844)"/>
<path style="fill:none;stroke-width:2.26;stroke-linecap:round;stroke-linejoin:round;stroke:rgb(0%,0%,0%);stroke-opacity:1;stroke-miterlimit:10;" d="M 28.203125 58.023438 L 28.203125 57.757813 L 28.382812 57.449219 L 28.742188 57.277344 L 29.460938 57.1875 L 30.628906 57.054688 L 33.054688 57.054688 L 34.492188 57.1875 L 35.839844 57.449219 L 37.097656 57.800782 L 38.085938 58.199219 L 38.894531 58.726563 L 39.523438 59.296875 L 40.242188 60 L 40.960938 60.835938 L 41.589844 61.667969 L 42.21875 62.722657 L 42.667969 63.867188 L 43.027344 64.964844 L 43.476562 66.238282 L 43.925781 67.515625 L 44.464844 68.921875 L 45.09375 70.371094 L 45.632812 71.734375 L 46.171875 73.050782 L 46.800781 74.503907 L 47.519531 75.730469 L 48.238281 76.917969 L 49.226562 78.019532 L 50.125 78.894532 L 51.292969 79.820313 L 52.550781 80.785157 L 53.808594 81.578125 L 54.976562 82.238282 L 56.144531 82.71875 L 57.3125 83.160157 L 58.570312 83.554688 L 59.917969 83.949219 L 60.996094 84.257813 L 61.804688 84.390625 L 63.242188 84.476563 L 64.050781 84.519532 L 65.9375 84.519532 L 66.476562 84.476563 L 66.746094 84.390625 L 67.105469 84.257813 " transform="matrix(1,0,0,-1,0,118.464844)"/>
<path style="fill:none;stroke-width:2.26;stroke-linecap:round;stroke-linejoin:round;stroke:rgb(0%,0%,0%);stroke-opacity:1;stroke-miterlimit:10;" d="M 33.773438 57.40625 L 34.3125 57.363282 L 36.199219 57.363282 L 37.457031 57.277344 L 38.984375 57.054688 L 40.691406 56.703125 L 42.308594 56.175782 L 43.746094 55.648438 L 45.09375 54.988282 L 46.082031 54.066407 L 46.710938 53.011719 L 47.339844 51.824219 L 47.878906 50.550782 L 48.417969 49.363282 L 48.867188 48.179688 L 49.40625 46.949219 L 50.035156 45.804688 L 50.574219 44.574219 L 51.292969 43.300782 L 52.191406 42.160157 L 53.269531 41.105469 L 54.796875 40.050782 L 56.414062 39.214844 L 58.210938 38.554688 L 60.546875 38.027344 L 62.972656 37.761719 L 65.578125 37.589844 L 68.453125 37.542969 L 71.058594 37.632813 L 73.753906 37.808594 L 76.71875 37.984375 L 79.414062 38.070313 L 82.109375 38.113282 L 85.074219 38.160157 L 87.769531 38.292969 L 90.644531 38.421875 L 93.699219 38.511719 L 96.574219 38.511719 L 99.628906 38.464844 L 102.863281 38.464844 L 105.828125 38.511719 L 108.433594 38.554688 L 111.128906 38.644532 L 113.734375 38.773438 L 116.699219 38.949219 L 120.023438 39.082032 L 123.257812 39.257813 L 126.3125 39.390625 L 129.1875 39.609375 L 131.523438 39.828125 L 133.679688 39.960938 L 136.015625 40.09375 L 137.992188 40.179688 L 139.96875 40.179688 L 141.585938 40.222657 L 143.652344 40.3125 L 144.550781 40.355469 L 145.71875 40.488282 L 147.246094 40.574219 L 150.121094 40.839844 L 151.109375 40.972657 L 151.828125 41.058594 L 152.457031 41.191407 L 153.175781 41.277344 L 154.074219 41.410157 L 155.0625 41.542969 L 155.78125 41.628907 L 156.410156 41.675782 L 157.039062 41.675782 L 157.308594 41.585938 " transform="matrix(1,0,0,-1,0,118.464844)"/>
<path style="fill:none;stroke-width:2.26;stroke-linecap:round;stroke-linejoin:round;stroke:rgb(19.999695%,19.999695%,79.998779%);stroke-opacity:1;stroke-miterlimit:10;" d="M 231.429688 71.425782 L 231.519531 71.644532 L 231.878906 71.601563 L 232.597656 71.601563 L 234.125 71.777344 L 236.191406 71.996094 L 238.707031 72.214844 L 241.582031 72.304688 L 248.410156 72.304688 L 249.667969 72.4375 L 250.476562 72.480469 L 251.105469 72.523438 L 251.375 72.523438 L 251.734375 72.566407 L 251.554688 72.347657 " transform="matrix(1,0,0,-1,0,118.464844)"/>
<path style="fill:none;stroke-width:2.26;stroke-linecap:round;stroke-linejoin:round;stroke:rgb(19.999695%,19.999695%,79.998779%);stroke-opacity:1;stroke-miterlimit:10;" d="M 232.148438 66.460938 L 231.878906 66.371094 L 232.148438 66.152344 L 232.597656 66.019532 L 233.496094 66.066407 L 234.84375 66.152344 L 236.640625 66.195313 L 238.527344 66.238282 L 245.445312 66.238282 L 246.253906 66.285157 L 246.792969 66.371094 L 247.511719 66.417969 L 248.320312 66.503907 L 249.308594 66.589844 L 250.207031 66.679688 L 250.835938 66.722657 L 251.914062 66.722657 L 252.273438 66.679688 L 252.542969 66.679688 " transform="matrix(1,0,0,-1,0,118.464844)"/>
<path style="fill:none;stroke-width:2.26;stroke-linecap:round;stroke-linejoin:round;stroke:rgb(19.999695%,19.999695%,79.998779%);stroke-opacity:1;stroke-miterlimit:10;" d="M 232.867188 60.308594 L 232.597656 60.261719 L 233.585938 60.261719 L 234.753906 60.308594 L 236.460938 60.308594 L 238.078125 60.394532 L 239.425781 60.441407 L 240.503906 60.484375 L 241.492188 60.441407 L 242.75 60.394532 L 244.1875 60.351563 L 245.445312 60.308594 L 246.523438 60.308594 L 247.421875 60.351563 L 249.039062 60.351563 L 249.9375 60.308594 L 250.566406 60.261719 L 251.105469 60.21875 L 251.554688 60.175782 L 251.914062 60.175782 L 252.273438 60.089844 " transform="matrix(1,0,0,-1,0,118.464844)"/>
<path style="fill:none;stroke-width:1.41;stroke-linecap:round;stroke-linejoin:round;stroke:rgb(0%,0%,0%);stroke-opacity:1;stroke-miterlimit:10;" d="M 270.601562 68.746094 L 270.601562 64.832032 L 270.691406 61.230469 L 270.601562 57.011719 L 270.511719 53.714844 L 270.332031 51.605469 L 270.242188 50.683594 L 270.0625 50.949219 L 269.972656 51.34375 " transform="matrix(1,0,0,-1,0,118.464844)"/>
<path style="fill:none;stroke-width:1.41;stroke-linecap:round;stroke-linejoin:round;stroke:rgb(0%,0%,0%);stroke-opacity:1;stroke-miterlimit:10;" d="M 270.78125 67.824219 L 271.050781 68.347657 L 271.769531 68.878907 L 272.9375 69.316407 L 274.285156 69.449219 L 275.8125 69.007813 L 276.800781 67.867188 L 277.609375 66.195313 L 277.789062 64.128907 L 277.339844 62.371094 L 276.261719 61.011719 L 274.464844 60.21875 L 272.847656 60.042969 L 271.589844 60.132813 L 270.871094 60.441407 L 270.78125 60.792969 L 270.78125 61.1875 " transform="matrix(1,0,0,-1,0,118.464844)"/>
<path style="fill:none;stroke-width:1.41;stroke-linecap:round;stroke-linejoin:round;stroke:rgb(0%,0%,0%);stroke-opacity:1;stroke-miterlimit:10;" d="M 284.976562 78.28125 L 285.066406 78.542969 L 284.617188 78.765625 L 283.898438 78.941407 L 282.910156 79.074219 L 281.742188 79.160157 L 280.933594 79.027344 L 280.484375 78.457032 L 280.394531 77.226563 L 280.574219 75.777344 L 280.753906 74.195313 L 280.933594 72.699219 L 281.113281 71.46875 L 281.203125 70.105469 L 281.292969 68.304688 L 281.382812 65.800782 L 281.382812 55.5625 L 281.472656 55.253907 L 281.832031 55.167969 L 282.640625 55.121094 L 283.628906 54.988282 L 284.617188 54.859375 L 285.335938 54.769532 L 285.695312 54.683594 L 285.425781 54.726563 " transform="matrix(1,0,0,-1,0,118.464844)"/>
<path style="fill:none;stroke-width:1.41;stroke-linecap:round;stroke-linejoin:round;stroke:rgb(0%,0%,0%);stroke-opacity:1;stroke-miterlimit:10;" d="M 289.019531 60.660157 L 288.75 60.394532 L 288.839844 60.660157 L 289.199219 61.757813 L 289.828125 63.691407 L 290.816406 66.722657 L 291.714844 69.710938 L 292.433594 72.214844 L 292.972656 74.0625 L 293.421875 74.589844 L 293.871094 74.195313 L 294.589844 72.65625 L 295.398438 70.105469 L 296.296875 66.941407 L 297.105469 63.605469 L 297.644531 61.097657 L 298.003906 59.558594 L 298.183594 58.945313 " transform="matrix(1,0,0,-1,0,118.464844)"/>
<path style="fill:none;stroke-width:1.41;stroke-linecap:round;stroke-linejoin:round;stroke:rgb(0%,0%,0%);stroke-opacity:1;stroke-miterlimit:10;" d="M 290.816406 63.691407 L 291.085938 63.867188 L 291.804688 64.085938 L 293.152344 64.351563 L 294.410156 64.4375 L 295.488281 64.527344 L 296.207031 64.480469 L 296.566406 64.570313 " transform="matrix(1,0,0,-1,0,118.464844)"/>
<path style="fill:none;stroke-width:1.41;stroke-linecap:round;stroke-linejoin:round;stroke:rgb(0%,0%,0%);stroke-opacity:1;stroke-miterlimit:10;" d="M 300.96875 67.425782 L 301.507812 67.472657 L 302.585938 67.558594 L 304.113281 67.691407 L 305.640625 67.777344 L 306.628906 67.867188 L 307.167969 67.910157 L 307.4375 67.910157 L 306.898438 67.734375 " transform="matrix(1,0,0,-1,0,118.464844)"/>
<path style="fill:none;stroke-width:1.41;stroke-linecap:round;stroke-linejoin:round;stroke:rgb(0%,0%,0%);stroke-opacity:1;stroke-miterlimit:10;" d="M 301.507812 62.59375 L 301.777344 62.460938 L 302.316406 62.417969 L 303.304688 62.371094 L 305.730469 62.371094 L 306.71875 62.417969 L 307.4375 62.460938 " transform="matrix(1,0,0,-1,0,118.464844)"/>
<path style="fill:none;stroke-width:1.41;stroke-linecap:round;stroke-linejoin:round;stroke:rgb(0%,0%,0%);stroke-opacity:1;stroke-miterlimit:10;" d="M 318.578125 68.527344 L 318.757812 68.789063 L 318.667969 69.273438 L 318.308594 69.753907 L 317.5 69.976563 L 316.421875 69.753907 L 315.253906 69.097657 L 314.085938 67.867188 L 313.546875 66.066407 L 313.636719 64.308594 L 314.445312 63.03125 L 315.972656 62.902344 L 317.589844 63.957032 L 319.027344 65.714844 L 319.925781 67.601563 L 320.195312 68.65625 L 319.925781 67.558594 L 319.746094 65.84375 L 319.65625 64 L 319.476562 62.285157 L 319.296875 59.78125 L 319.117188 57.054688 L 319.207031 54.507813 L 319.835938 52.355469 L 320.914062 51.738282 L 322.261719 51.957032 L 323.339844 52.878907 L 323.789062 54.199219 L 323.699219 55.472657 L 323.25 56.703125 L 322.621094 57.539063 L 322.171875 57.980469 L 321.453125 58.417969 L 320.734375 58.8125 L 320.285156 59.164063 L 319.835938 59.386719 L 319.925781 59.691407 L 320.644531 60.21875 L 321.8125 61.011719 L 323.070312 61.890625 L 323.96875 62.59375 L 324.507812 63.207032 L 324.417969 63.691407 " transform="matrix(1,0,0,-1,0,118.464844)"/>
<path style="fill:none;stroke-width:1.41;stroke-linecap:round;stroke-linejoin:round;stroke:rgb(0%,0%,0%);stroke-opacity:1;stroke-miterlimit:10;" d="M 332.144531 77.972657 L 332.414062 78.019532 L 331.964844 78.105469 L 331.15625 78.105469 L 329.988281 78.0625 L 328.910156 77.929688 L 328.101562 77.753907 L 327.5625 77.226563 L 327.472656 75.863282 L 327.742188 73.449219 L 328.101562 69.976563 L 328.460938 66.546875 L 328.730469 63.164063 L 328.820312 60.570313 L 328.820312 59.035157 L 328.910156 57.890625 L 329.179688 57.496094 L 329.539062 57.449219 L 329.988281 57.496094 L 330.527344 57.539063 L 331.875 57.539063 L 332.59375 57.582032 L 333.582031 57.582032 L 333.492188 57.847657 " transform="matrix(1,0,0,-1,0,118.464844)"/>
<path style="fill:none;stroke-width:1.41;stroke-linecap:round;stroke-linejoin:round;stroke:rgb(0%,0%,0%);stroke-opacity:1;stroke-miterlimit:10;" d="M 337.894531 72.347657 L 337.804688 72.128907 L 337.804688 69.050782 L 337.894531 67.121094 L 337.894531 63.515625 L 337.984375 62.242188 " transform="matrix(1,0,0,-1,0,118.464844)"/>
<path style="fill:none;stroke-width:1.41;stroke-linecap:round;stroke-linejoin:round;stroke:rgb(0%,0%,0%);stroke-opacity:1;stroke-miterlimit:10;" d="M 337.804688 72.214844 L 338.433594 72.917969 L 339.421875 73.535157 L 340.859375 73.84375 L 342.476562 73.621094 L 343.644531 72.789063 L 343.914062 71.382813 L 343.105469 69.753907 L 341.667969 68.480469 L 340.140625 67.777344 L 339.421875 67.691407 L 339.871094 67.910157 L 341.128906 67.867188 L 342.746094 67.515625 L 344.09375 66.898438 L 345.082031 66.195313 L 345.621094 65.582032 L 346.070312 64.878907 L 346.339844 64.175782 L 346.429688 62.988282 L 346.339844 61.667969 L 345.980469 60.613282 L 345.53125 59.558594 L 344.992188 59.078125 L 344.453125 58.8125 L 343.375 58.683594 L 342.117188 58.8125 L 340.859375 59.121094 L 339.511719 59.691407 L 338.882812 60.351563 L 338.433594 60.878907 L 338.253906 61.40625 " transform="matrix(1,0,0,-1,0,118.464844)"/>
<path style="fill:none;stroke-width:1.41;stroke-linecap:round;stroke-linejoin:round;stroke:rgb(0%,0%,0%);stroke-opacity:1;stroke-miterlimit:10;" d="M 350.832031 69.273438 L 350.5625 69.316407 L 355.144531 69.316407 L 356.222656 69.359375 L 356.761719 69.359375 " transform="matrix(1,0,0,-1,0,118.464844)"/>
<path style="fill:none;stroke-width:1.41;stroke-linecap:round;stroke-linejoin:round;stroke:rgb(0%,0%,0%);stroke-opacity:1;stroke-miterlimit:10;" d="M 351.910156 65.933594 L 352.089844 65.757813 L 352.539062 65.714844 L 353.167969 65.667969 L 354.15625 65.625 L 355.144531 65.535157 L 356.042969 65.535157 L 356.582031 65.492188 L 356.941406 65.40625 " transform="matrix(1,0,0,-1,0,118.464844)"/>
<path style="fill:none;stroke-width:1.41;stroke-linecap:round;stroke-linejoin:round;stroke:rgb(0%,0%,0%);stroke-opacity:1;stroke-miterlimit:10;" d="M 367.902344 75.601563 L 368.171875 75.335938 L 368.171875 74.984375 L 368.082031 74.414063 L 367.8125 73.578125 L 367.183594 72.4375 L 366.105469 70.679688 L 364.757812 68.65625 L 363.5 66.941407 L 362.78125 65.582032 L 363.320312 64.660157 L 364.578125 63.777344 L 366.015625 62.59375 L 367.363281 61.316407 L 368.171875 60.484375 L 368.621094 60.042969 " transform="matrix(1,0,0,-1,0,118.464844)"/>
<path style="fill:none;stroke-width:1.41;stroke-linecap:round;stroke-linejoin:round;stroke:rgb(0%,0%,0%);stroke-opacity:1;stroke-miterlimit:10;" d="M 372.84375 72.214844 L 372.933594 71.820313 L 373.023438 70.941407 L 373.023438 67.164063 L 373.113281 65.316407 L 373.113281 63.121094 L 373.203125 62.722657 " transform="matrix(1,0,0,-1,0,118.464844)"/>
<path style="fill:none;stroke-width:1.41;stroke-linecap:round;stroke-linejoin:round;stroke:rgb(0%,0%,0%);stroke-opacity:1;stroke-miterlimit:10;" d="M 373.5625 66.722657 L 373.742188 66.988282 L 374.640625 67.382813 L 375.808594 67.734375 L 377.066406 67.996094 L 378.234375 68.261719 L 378.683594 68.304688 L 378.953125 68.21875 " transform="matrix(1,0,0,-1,0,118.464844)"/>
<path style="fill:none;stroke-width:1.41;stroke-linecap:round;stroke-linejoin:round;stroke:rgb(0%,0%,0%);stroke-opacity:1;stroke-miterlimit:10;" d="M 379.761719 72.4375 L 379.671875 72.042969 L 379.671875 65.011719 L 379.761719 62.855469 L 379.941406 62.242188 L 380.121094 62.550782 " transform="matrix(1,0,0,-1,0,118.464844)"/>
<path style="fill:none;stroke-width:1.41;stroke-linecap:round;stroke-linejoin:round;stroke:rgb(0%,0%,0%);stroke-opacity:1;stroke-miterlimit:10;" d="M 382.277344 76.875 L 382.457031 76.65625 L 384.34375 74.675782 L 385.78125 73.226563 L 386.949219 71.996094 L 387.667969 71.074219 L 387.757812 70.457032 L 387.398438 69.582032 L 386.589844 68.085938 L 385.691406 66.285157 L 384.792969 64.660157 L 384.164062 63.472657 L 383.894531 63.03125 " transform="matrix(1,0,0,-1,0,118.464844)"/>
<path style="fill:none;stroke-width:1.41;stroke-linecap:round;stroke-linejoin:round;stroke:rgb(0%,0%,0%);stroke-opacity:1;stroke-miterlimit:10;" d="M 388.386719 78.632813 L 388.746094 78.5 L 390.902344 78.5 L 392.339844 78.632813 L 393.328125 78.675782 L 393.867188 78.589844 L 393.957031 78.0625 L 393.957031 71.382813 L 394.046875 67.953125 L 394.136719 64.613282 L 394.136719 60.21875 L 394.046875 58.8125 L 393.957031 57.890625 L 393.867188 57.363282 L 393.6875 57.097657 L 393.238281 57.054688 L 392.339844 57.054688 L 391.441406 57.1875 L 390.542969 57.277344 L 389.914062 57.320313 L 389.644531 57.320313 " transform="matrix(1,0,0,-1,0,118.464844)"/>
<path style="fill:none;stroke-width:1.41;stroke-linecap:round;stroke-linejoin:round;stroke:rgb(0%,0%,0%);stroke-opacity:1;stroke-miterlimit:10;" d="M 400.246094 60.089844 L 399.976562 60.132813 L 399.886719 60.441407 L 399.707031 60.175782 L 399.4375 60 L 399.078125 60.042969 L 398.808594 60.394532 L 398.898438 60.835938 L 399.347656 61.273438 L 400.066406 61.40625 L 400.695312 61.230469 L 401.414062 60.660157 L 401.953125 59.558594 L 402.042969 58.242188 L 401.683594 56.96875 L 401.054688 56.089844 L 400.335938 55.78125 L 399.796875 55.824219 L 399.527344 55.957032 " transform="matrix(1,0,0,-1,0,118.464844)"/>
<path style="fill:none;stroke-width:1.41;stroke-linecap:round;stroke-linejoin:round;stroke:rgb(0%,0%,0%);stroke-opacity:1;stroke-miterlimit:10;" d="M 407.433594 74.722657 L 407.433594 74.152344 L 407.523438 72.4375 L 407.613281 69.625 L 407.882812 66.898438 L 407.972656 64.703125 L 407.972656 63.164063 " transform="matrix(1,0,0,-1,0,118.464844)"/>
<path style="fill:none;stroke-width:1.41;stroke-linecap:round;stroke-linejoin:round;stroke:rgb(0%,0%,0%);stroke-opacity:1;stroke-miterlimit:10;" d="M 407.882812 72.304688 L 408.0625 72.789063 L 408.601562 73.449219 L 409.589844 73.972657 L 411.117188 74.0625 L 412.914062 73.269532 L 414.53125 71.601563 L 415.609375 69.230469 L 415.878906 66.636719 L 415.609375 64.660157 L 414.621094 63.164063 L 413.273438 62.285157 L 411.746094 62.199219 L 410.308594 62.199219 L 409.410156 62.550782 L 408.871094 62.902344 L 408.78125 63.164063 " transform="matrix(1,0,0,-1,0,118.464844)"/>
<path style="fill:none;stroke-width:1.41;stroke-linecap:round;stroke-linejoin:round;stroke:rgb(0%,0%,0%);stroke-opacity:1;stroke-miterlimit:10;" d="M 422.257812 69.582032 L 422.527344 69.84375 L 423.335938 69.800782 L 424.503906 69.753907 L 425.492188 69.753907 L 426.210938 69.710938 L 426.570312 69.667969 L 426.390625 69.316407 " transform="matrix(1,0,0,-1,0,118.464844)"/>
<path style="fill:none;stroke-width:1.41;stroke-linecap:round;stroke-linejoin:round;stroke:rgb(0%,0%,0%);stroke-opacity:1;stroke-miterlimit:10;" d="M 421.71875 66.285157 L 421.449219 66.195313 L 421.71875 66.066407 L 422.707031 65.976563 L 423.875 65.84375 L 425.132812 65.667969 L 426.121094 65.535157 L 426.570312 65.582032 " transform="matrix(1,0,0,-1,0,118.464844)"/>
<path style="fill:none;stroke-width:1.41;stroke-linecap:round;stroke-linejoin:round;stroke:rgb(0%,0%,0%);stroke-opacity:1;stroke-miterlimit:10;" d="M 436.722656 75.777344 L 436.632812 75.425782 L 436.183594 74.195313 L 435.015625 72.4375 L 433.488281 70.285157 L 431.960938 68.613282 L 431.152344 67.382813 L 431.78125 66.328125 L 433.308594 65.316407 L 435.285156 64.128907 L 436.8125 62.988282 L 437.621094 62.242188 L 437.980469 61.976563 " transform="matrix(1,0,0,-1,0,118.464844)"/>
<path style="fill:none;stroke-width:1.41;stroke-linecap:round;stroke-linejoin:round;stroke:rgb(0%,0%,0%);stroke-opacity:1;stroke-miterlimit:10;" d="M 440.585938 72.875 L 440.496094 72.613282 L 440.585938 71.820313 L 440.675781 69.710938 L 440.675781 64.878907 L 440.585938 63.03125 " transform="matrix(1,0,0,-1,0,118.464844)"/>
<path style="fill:none;stroke-width:1.41;stroke-linecap:round;stroke-linejoin:round;stroke:rgb(0%,0%,0%);stroke-opacity:1;stroke-miterlimit:10;" d="M 440.675781 66.152344 L 441.035156 66.8125 L 441.753906 67.164063 L 442.921875 67.382813 L 444.269531 67.558594 L 445.257812 67.644532 L 445.976562 67.691407 " transform="matrix(1,0,0,-1,0,118.464844)"/>
<path style="fill:none;stroke-width:1.41;stroke-linecap:round;stroke-linejoin:round;stroke:rgb(0%,0%,0%);stroke-opacity:1;stroke-miterlimit:10;" d="M 445.886719 73.097657 L 445.976562 72.613282 L 446.066406 70.941407 L 446.246094 68.4375 L 446.425781 65.84375 L 446.515625 63.777344 L 446.605469 62.722657 " transform="matrix(1,0,0,-1,0,118.464844)"/>
<path style="fill:none;stroke-width:1.41;stroke-linecap:round;stroke-linejoin:round;stroke:rgb(0%,0%,0%);stroke-opacity:1;stroke-miterlimit:10;" d="M 450.917969 75.378907 L 450.46875 75.46875 L 450.199219 75.46875 L 450.378906 75.292969 L 451.1875 74.808594 L 452.445312 73.972657 L 453.882812 73.050782 L 455.410156 72.128907 L 456.308594 71.511719 L 456.757812 71.117188 L 456.578125 70.414063 L 456.039062 69.273438 L 455.140625 67.382813 L 454.152344 64.832032 L 453.34375 62.722657 L 452.804688 61.1875 L 452.535156 60.351563 L 452.714844 60.613282 " transform="matrix(1,0,0,-1,0,118.464844)"/>
<path style="fill:none;stroke-width:1.41;stroke-linecap:round;stroke-linejoin:round;stroke:rgb(0%,0%,0%);stroke-opacity:1;stroke-miterlimit:10;" d="M 457.027344 80.523438 L 456.847656 80.699219 L 457.296875 80.480469 L 457.746094 80.390625 L 459.003906 80.480469 L 460.441406 80.699219 L 461.96875 80.960938 L 463.316406 81.226563 L 463.765625 81.226563 L 463.855469 81.003907 L 463.765625 79.949219 L 463.765625 78.0625 L 463.855469 75.25 L 464.035156 71.691407 L 464.304688 68.347657 L 464.484375 65.316407 L 464.574219 62.550782 L 464.574219 58.503907 L 464.484375 57.1875 L 464.574219 56.527344 L 464.574219 56.265625 L 464.035156 56.222657 L 463.316406 56.222657 L 462.417969 56.175782 L 461.699219 56.132813 L 461.25 56.089844 L 460.980469 56.042969 " transform="matrix(1,0,0,-1,0,118.464844)"/>
</g>
</svg>
