<?xml version="1.0" encoding="UTF-8"?>
<svg xmlns="http://www.w3.org/2000/svg" xmlns:xlink="http://www.w3.org/1999/xlink" width="225.75pt" height="115.5pt" viewBox="0 0 225.75 115.5" version="1.1">
<g id="surface1">
<path style="fill:none;stroke-width:2.26;stroke-linecap:round;stroke-linejoin:round;stroke:rgb(0%,0%,0%);stroke-opacity:1;stroke-miterlimit:10;" d="M 7.863281 104.960938 L 7.917969 99.761719 L 7.976562 94.558594 L 8.03125 89.355469 L 8.089844 84.152344 L 8.144531 78.953125 L 8.199219 73.75 L 8.257812 68.546875 L 8.3125 63.34375 " transform="matrix(1,0,0,-1,0,115.5)"/>
<path style="fill:none;stroke-width:2.26;stroke-linecap:round;stroke-linejoin:round;stroke:rgb(0%,0%,0%);stroke-opacity:1;stroke-miterlimit:10;" d="M 7.683594 64.003906 L 12.902344 64.03125 L 18.121094 64.0625 L 33.777344 64.144531 L 39 64.171875 L 44.21875 64.199219 L 49.4375 64.230469 L 65.09375 64.3125 " transform="matrix(1,0,0,-1,0,115.5)"/>
<path style="fill:none;stroke-width:2.26;stroke-linecap:round;stroke-linejoin:round;stroke:rgb(0%,0%,0%);stroke-opacity:1;stroke-miterlimit:10;" d="M 64.644531 64.488281 L 64.644531 74.816406 " transform="matrix(1,0,0,-1,0,115.5)"/>
<path style="fill:none;stroke-width:2.26;stroke-linecap:round;stroke-linejoin:round;stroke:rgb(0%,0%,0%);stroke-opacity:1;stroke-miterlimit:10;" d="M 64.644531 75.210938 L 69.855469 75.035156 " transform="matrix(1,0,0,-1,0,115.5)"/>
<path style="fill:none;stroke-width:2.26;stroke-linecap:round;stroke-linejoin:round;stroke:rgb(0%,0%,0%);stroke-opacity:1;stroke-miterlimit:10;" d="M 70.214844 75.78125 L 69.945312 81.203125 L 69.675781 86.621094 L 69.40625 92.042969 " transform="matrix(1,0,0,-1,0,115.5)"/>
<path style="fill:none;stroke-width:2.26;stroke-linecap:round;stroke-linejoin:round;stroke:rgb(0%,0%,0%);stroke-opacity:1;stroke-miterlimit:10;" d="M 69.226562 92.4375 L 63.835938 93.183594 " transform="matrix(1,0,0,-1,0,115.5)"/>
<path style="fill:none;stroke-width:2.26;stroke-linecap:round;stroke-linejoin:round;stroke:rgb(0%,0%,0%);stroke-opacity:1;stroke-miterlimit:10;" d="M 64.015625 93.449219 L 64.195312 100.039062 L 64.375 106.632812 " transform="matrix(1,0,0,-1,0,115.5)"/>
<path style="fill:none;stroke-width:2.26;stroke-linecap:round;stroke-linejoin:round;stroke:rgb(0%,0%,0%);stroke-opacity:1;stroke-miterlimit:10;" d="M 63.746094 105.839844 L 58.300781 105.878906 L 52.855469 105.921875 L 47.414062 105.960938 L 25.632812 106.117188 L 20.191406 106.15625 L 9.300781 106.234375 " transform="matrix(1,0,0,-1,0,115.5)"/>
<path style="fill:none;stroke-width:2.26;stroke-linecap:round;stroke-linejoin:round;stroke:rgb(0%,0%,0%);stroke-opacity:1;stroke-miterlimit:10;" d="M 7.953125 50.023438 L 13.148438 50.011719 L 18.34375 50.003906 L 23.535156 49.996094 L 49.511719 49.957031 L 54.703125 49.949219 L 65.09375 49.933594 " transform="matrix(1,0,0,-1,0,115.5)"/>
<path style="fill:none;stroke-width:2.26;stroke-linecap:round;stroke-linejoin:round;stroke:rgb(0%,0%,0%);stroke-opacity:1;stroke-miterlimit:10;" d="M 65.542969 49.492188 L 65.5 43.210938 L 65.453125 36.925781 " transform="matrix(1,0,0,-1,0,115.5)"/>
<path style="fill:none;stroke-width:2.26;stroke-linecap:round;stroke-linejoin:round;stroke:rgb(0%,0%,0%);stroke-opacity:1;stroke-miterlimit:10;" d="M 65.542969 36.792969 L 71.5625 37.058594 " transform="matrix(1,0,0,-1,0,115.5)"/>
<path style="fill:none;stroke-width:2.26;stroke-linecap:round;stroke-linejoin:round;stroke:rgb(0%,0%,0%);stroke-opacity:1;stroke-miterlimit:10;" d="M 71.5625 36.835938 L 71.683594 30.789062 L 71.800781 24.738281 L 71.921875 18.6875 " transform="matrix(1,0,0,-1,0,115.5)"/>
<path style="fill:none;stroke-width:2.26;stroke-linecap:round;stroke-linejoin:round;stroke:rgb(0%,0%,0%);stroke-opacity:1;stroke-miterlimit:10;" d="M 71.652344 18.863281 L 64.824219 19.128906 " transform="matrix(1,0,0,-1,0,115.5)"/>
<path style="fill:none;stroke-width:2.26;stroke-linecap:round;stroke-linejoin:round;stroke:rgb(0%,0%,0%);stroke-opacity:1;stroke-miterlimit:10;" d="M 65.453125 19.085938 L 64.78125 12.667969 L 64.105469 6.25 " transform="matrix(1,0,0,-1,0,115.5)"/>
<path style="fill:none;stroke-width:2.26;stroke-linecap:round;stroke-linejoin:round;stroke:rgb(0%,0%,0%);stroke-opacity:1;stroke-miterlimit:10;" d="M 64.285156 6.339844 L 48.898438 6.949219 L 43.769531 7.15625 L 38.640625 7.359375 L 33.507812 7.5625 L 18.121094 8.171875 L 12.992188 8.378906 L 7.863281 8.582031 " transform="matrix(1,0,0,-1,0,115.5)"/>
<path style="fill:none;stroke-width:2.26;stroke-linecap:round;stroke-linejoin:round;stroke:rgb(0%,0%,0%);stroke-opacity:1;stroke-miterlimit:10;" d="M 7.773438 8.710938 L 7.738281 13.996094 L 7.707031 19.28125 L 7.671875 24.566406 L 7.640625 29.851562 L 7.605469 35.136719 L 7.570312 40.417969 L 7.539062 45.703125 L 7.503906 50.988281 " transform="matrix(1,0,0,-1,0,115.5)"/>
<path style="fill:none;stroke-width:2.26;stroke-linecap:round;stroke-linejoin:round;stroke:rgb(0%,0%,0%);stroke-opacity:1;stroke-miterlimit:10;" d="M 22.417969 90.890625 L 22.507812 91.59375 L 22.507812 92.121094 L 22.507812 91.59375 L 22.328125 89.75 L 22.058594 86.585938 L 21.699219 82.496094 L 21.339844 79.203125 L 21.160156 77.09375 L 21.070312 76.210938 " transform="matrix(1,0,0,-1,0,115.5)"/>
<path style="fill:none;stroke-width:2.26;stroke-linecap:round;stroke-linejoin:round;stroke:rgb(0%,0%,0%);stroke-opacity:1;stroke-miterlimit:10;" d="M 22.417969 90.054688 L 22.6875 90.757812 L 23.496094 91.8125 L 24.664062 92.648438 L 26.191406 93 L 27.988281 92.648438 L 29.335938 91.507812 L 30.234375 89.96875 L 30.324219 88.210938 L 29.335938 86.804688 L 27.808594 85.792969 L 25.921875 85.398438 L 24.574219 85.441406 L 23.765625 85.617188 L 23.40625 85.792969 " transform="matrix(1,0,0,-1,0,115.5)"/>
<path style="fill:none;stroke-width:2.26;stroke-linecap:round;stroke-linejoin:round;stroke:rgb(0%,0%,0%);stroke-opacity:1;stroke-miterlimit:10;" d="M 23.585938 34.203125 L 23.585938 34.597656 L 23.316406 33.191406 L 23.046875 30.730469 L 22.6875 27.390625 L 22.417969 23.875 L 22.328125 21.457031 L 22.238281 20.09375 L 22.238281 19.523438 L 22.148438 19.960938 " transform="matrix(1,0,0,-1,0,115.5)"/>
<path style="fill:none;stroke-width:2.26;stroke-linecap:round;stroke-linejoin:round;stroke:rgb(0%,0%,0%);stroke-opacity:1;stroke-miterlimit:10;" d="M 23.496094 34.070312 L 23.765625 35.125 L 24.484375 36.089844 L 25.652344 37.058594 L 27.089844 37.277344 L 28.527344 37.058594 L 29.695312 36.089844 L 30.324219 34.816406 L 30.324219 33.234375 L 29.695312 31.652344 L 28.527344 30.464844 L 27.089844 29.632812 L 25.742188 29.234375 L 24.664062 29.28125 L 24.035156 29.5 L 23.765625 29.804688 L 23.496094 30.027344 " transform="matrix(1,0,0,-1,0,115.5)"/>
<path style="fill:none;stroke-width:1.41;stroke-linecap:round;stroke-linejoin:round;stroke:rgb(0%,0%,0%);stroke-opacity:1;stroke-miterlimit:10;" d="M 49.910156 79.597656 L 49.910156 80.035156 L 50.179688 81.046875 L 50.898438 83.15625 L 51.796875 85.835938 L 52.605469 88.472656 L 53.414062 90.539062 L 53.863281 91.550781 L 54.222656 91.636719 L 54.851562 90.496094 L 55.570312 88.515625 L 56.46875 85.882812 L 57.367188 83.113281 L 57.90625 81.179688 L 58.085938 80.035156 L 58.175781 79.464844 " transform="matrix(1,0,0,-1,0,115.5)"/>
<path style="fill:none;stroke-width:1.41;stroke-linecap:round;stroke-linejoin:round;stroke:rgb(0%,0%,0%);stroke-opacity:1;stroke-miterlimit:10;" d="M 51.347656 83.816406 L 51.078125 83.992188 L 51.527344 84.253906 L 52.515625 84.429688 L 53.953125 84.5625 L 55.300781 84.648438 L 56.378906 84.648438 L 56.917969 84.738281 L 57.097656 85 " transform="matrix(1,0,0,-1,0,115.5)"/>
<path style="fill:none;stroke-width:1.41;stroke-linecap:round;stroke-linejoin:round;stroke:rgb(0%,0%,0%);stroke-opacity:1;stroke-miterlimit:10;" d="M 51.617188 32.96875 L 51.527344 32.445312 L 51.617188 30.992188 L 51.886719 29.101562 L 52.066406 27.171875 L 52.335938 25.414062 L 52.425781 24.53125 L 52.515625 24.179688 L 52.605469 23.960938 " transform="matrix(1,0,0,-1,0,115.5)"/>
<path style="fill:none;stroke-width:1.41;stroke-linecap:round;stroke-linejoin:round;stroke:rgb(0%,0%,0%);stroke-opacity:1;stroke-miterlimit:10;" d="M 51.527344 33.851562 L 52.066406 34.332031 L 53.324219 34.683594 L 54.761719 34.640625 L 56.019531 34.023438 L 56.738281 32.839844 L 56.558594 31.390625 L 55.570312 30.113281 L 54.222656 29.234375 L 53.144531 28.929688 L 52.785156 28.929688 L 53.414062 28.972656 L 54.671875 28.75 L 56.199219 28.09375 L 57.457031 27.082031 L 58.175781 26.117188 L 58.355469 25.28125 L 58.265625 24.710938 L 57.816406 24.179688 L 56.648438 23.742188 L 55.300781 23.433594 L 53.863281 23.304688 L 52.785156 23.523438 L 52.335938 23.875 " transform="matrix(1,0,0,-1,0,115.5)"/>
<path style="fill:none;stroke-width:2.26;stroke-linecap:round;stroke-linejoin:round;stroke:rgb(19.999695%,19.999695%,79.998779%);stroke-opacity:1;stroke-miterlimit:10;" d="M 90.863281 67.773438 L 91.671875 67.554688 L 93.558594 67.117188 L 96.523438 66.589844 L 100.207031 66.148438 L 103.980469 65.929688 L 106.855469 65.886719 L 108.832031 65.972656 L 109.730469 66.0625 L 110 66.0625 " transform="matrix(1,0,0,-1,0,115.5)"/>
<path style="fill:none;stroke-width:2.26;stroke-linecap:round;stroke-linejoin:round;stroke:rgb(19.999695%,19.999695%,79.998779%);stroke-opacity:1;stroke-miterlimit:10;" d="M 91.671875 60.964844 L 92.121094 60.742188 L 93.828125 60.570312 L 96.613281 60.4375 L 100.296875 60.304688 L 104.070312 60.304688 L 106.765625 60.261719 L 108.382812 60.128906 L 109.191406 59.996094 L 109.460938 59.867188 L 110 59.6875 " transform="matrix(1,0,0,-1,0,115.5)"/>
<path style="fill:none;stroke-width:2.26;stroke-linecap:round;stroke-linejoin:round;stroke:rgb(19.999695%,19.999695%,79.998779%);stroke-opacity:1;stroke-miterlimit:10;" d="M 91.941406 54.460938 L 92.390625 54.636719 L 93.199219 54.59375 L 94.546875 54.546875 L 97.152344 54.546875 L 100.296875 54.59375 L 103.621094 54.59375 L 106.585938 54.636719 L 108.292969 54.59375 L 109.191406 54.546875 L 109.640625 54.460938 L 109.910156 54.371094 " transform="matrix(1,0,0,-1,0,115.5)"/>
<path style="fill:none;stroke-width:2.26;stroke-linecap:round;stroke-linejoin:round;stroke:rgb(0%,0%,0%);stroke-opacity:1;stroke-miterlimit:10;" d="M 128.660156 95.066406 L 128.738281 89.933594 L 128.8125 84.800781 L 128.96875 74.535156 L 129.046875 69.40625 L 129.121094 64.273438 L 129.277344 54.007812 L 129.351562 48.875 L 129.429688 43.742188 L 129.507812 38.613281 L 129.585938 33.480469 L 129.660156 28.347656 L 129.738281 23.214844 " transform="matrix(1,0,0,-1,0,115.5)"/>
<path style="fill:none;stroke-width:2.26;stroke-linecap:round;stroke-linejoin:round;stroke:rgb(0%,0%,0%);stroke-opacity:1;stroke-miterlimit:10;" d="M 130.007812 22.554688 L 135.222656 22.589844 L 140.441406 22.628906 L 145.65625 22.664062 L 150.875 22.699219 L 156.089844 22.734375 L 161.308594 22.769531 L 166.523438 22.804688 L 171.742188 22.839844 L 176.957031 22.878906 L 182.171875 22.914062 L 187.390625 22.949219 L 192.605469 22.984375 L 197.824219 23.019531 L 203.039062 23.054688 L 208.257812 23.089844 L 213.472656 23.125 " transform="matrix(1,0,0,-1,0,115.5)"/>
<path style="fill:none;stroke-width:2.26;stroke-linecap:round;stroke-linejoin:round;stroke:rgb(0%,0%,0%);stroke-opacity:1;stroke-miterlimit:10;" d="M 213.382812 23.785156 L 213.25 30.09375 L 213.113281 36.398438 " transform="matrix(1,0,0,-1,0,115.5)"/>
<path style="fill:none;stroke-width:2.26;stroke-linecap:round;stroke-linejoin:round;stroke:rgb(0%,0%,0%);stroke-opacity:1;stroke-miterlimit:10;" d="M 213.113281 36.3125 L 218.503906 36.664062 " transform="matrix(1,0,0,-1,0,115.5)"/>
<path style="fill:none;stroke-width:2.26;stroke-linecap:round;stroke-linejoin:round;stroke:rgb(0%,0%,0%);stroke-opacity:1;stroke-miterlimit:10;" d="M 218.414062 36.882812 L 218.292969 42.273438 L 218.175781 47.664062 L 218.054688 53.054688 " transform="matrix(1,0,0,-1,0,115.5)"/>
<path style="fill:none;stroke-width:2.26;stroke-linecap:round;stroke-linejoin:round;stroke:rgb(0%,0%,0%);stroke-opacity:1;stroke-miterlimit:10;" d="M 218.054688 52.964844 L 213.203125 53.757812 " transform="matrix(1,0,0,-1,0,115.5)"/>
<path style="fill:none;stroke-width:2.26;stroke-linecap:round;stroke-linejoin:round;stroke:rgb(0%,0%,0%);stroke-opacity:1;stroke-miterlimit:10;" d="M 213.292969 54.152344 L 213.023438 63.03125 " transform="matrix(1,0,0,-1,0,115.5)"/>
<path style="fill:none;stroke-width:2.26;stroke-linecap:round;stroke-linejoin:round;stroke:rgb(0%,0%,0%);stroke-opacity:1;stroke-miterlimit:10;" d="M 213.113281 63.292969 L 218.144531 63.25 " transform="matrix(1,0,0,-1,0,115.5)"/>
<path style="fill:none;stroke-width:2.26;stroke-linecap:round;stroke-linejoin:round;stroke:rgb(0%,0%,0%);stroke-opacity:1;stroke-miterlimit:10;" d="M 218.054688 63.335938 L 217.90625 69.460938 L 217.753906 75.582031 L 217.605469 81.707031 " transform="matrix(1,0,0,-1,0,115.5)"/>
<path style="fill:none;stroke-width:2.26;stroke-linecap:round;stroke-linejoin:round;stroke:rgb(0%,0%,0%);stroke-opacity:1;stroke-miterlimit:10;" d="M 217.605469 81.617188 L 212.933594 81.835938 " transform="matrix(1,0,0,-1,0,115.5)"/>
<path style="fill:none;stroke-width:2.26;stroke-linecap:round;stroke-linejoin:round;stroke:rgb(0%,0%,0%);stroke-opacity:1;stroke-miterlimit:10;" d="M 212.574219 81.96875 L 212.394531 87.992188 L 212.214844 94.011719 " transform="matrix(1,0,0,-1,0,115.5)"/>
<path style="fill:none;stroke-width:2.26;stroke-linecap:round;stroke-linejoin:round;stroke:rgb(0%,0%,0%);stroke-opacity:1;stroke-miterlimit:10;" d="M 211.855469 94.539062 L 206.761719 94.671875 L 201.667969 94.800781 L 196.578125 94.933594 L 191.484375 95.066406 L 186.390625 95.195312 L 176.203125 95.460938 L 171.113281 95.59375 L 166.019531 95.726562 L 160.925781 95.855469 L 150.738281 96.121094 L 145.644531 96.25 L 140.554688 96.382812 L 130.367188 96.648438 " transform="matrix(1,0,0,-1,0,115.5)"/>
<path style="fill:none;stroke-width:1.41;stroke-linecap:round;stroke-linejoin:round;stroke:rgb(0%,0%,0%);stroke-opacity:1;stroke-miterlimit:10;" d="M 204.128906 67.46875 L 203.949219 67.25 L 203.949219 67.863281 L 204.398438 69.136719 L 205.027344 71.335938 L 205.835938 73.839844 L 206.554688 76.125 L 206.914062 77.75 L 207.363281 78.101562 L 207.722656 77.398438 L 208.171875 75.597656 L 208.800781 73.355469 L 209.339844 71.246094 L 209.699219 69.578125 L 209.789062 68.742188 L 209.878906 68.347656 L 209.878906 67.996094 " transform="matrix(1,0,0,-1,0,115.5)"/>
<path style="fill:none;stroke-width:1.41;stroke-linecap:round;stroke-linejoin:round;stroke:rgb(0%,0%,0%);stroke-opacity:1;stroke-miterlimit:10;" d="M 205.386719 72.214844 L 205.65625 72.171875 L 206.644531 72.125 L 207.992188 72.082031 L 209.160156 72.171875 L 209.96875 72.214844 L 210.238281 72.257812 " transform="matrix(1,0,0,-1,0,115.5)"/>
<path style="fill:none;stroke-width:1.41;stroke-linecap:round;stroke-linejoin:round;stroke:rgb(0%,0%,0%);stroke-opacity:1;stroke-miterlimit:10;" d="M 205.746094 49.582031 L 205.746094 46.460938 L 205.65625 43.957031 L 205.566406 41.9375 L 205.566406 40.046875 " transform="matrix(1,0,0,-1,0,115.5)"/>
<path style="fill:none;stroke-width:1.41;stroke-linecap:round;stroke-linejoin:round;stroke:rgb(0%,0%,0%);stroke-opacity:1;stroke-miterlimit:10;" d="M 205.566406 48.96875 L 205.566406 49.449219 L 205.835938 49.933594 L 206.285156 50.460938 L 207.273438 50.769531 L 208.621094 50.769531 L 209.878906 50.417969 L 210.6875 49.625 L 210.597656 48.527344 L 209.789062 47.429688 L 208.710938 46.550781 L 207.722656 45.976562 L 207.363281 45.804688 L 208.351562 45.582031 L 209.25 45.144531 L 210.238281 44.441406 L 210.957031 43.429688 L 211.136719 42.332031 L 210.957031 41.234375 L 210.148438 40.308594 L 208.800781 39.871094 L 207.363281 39.828125 L 206.195312 40.046875 L 205.296875 40.53125 L 205.117188 41.234375 " transform="matrix(1,0,0,-1,0,115.5)"/>
<path style="fill:none;stroke-width:2.26;stroke-linecap:round;stroke-linejoin:round;stroke:rgb(0%,0%,0%);stroke-opacity:1;stroke-miterlimit:10;" d="M 163.609375 67.378906 L 163.339844 67.335938 L 163.160156 66.808594 L 163.070312 64.742188 L 163.070312 61.402344 L 162.890625 57.316406 L 162.800781 53.1875 L 162.710938 50.375 L 162.621094 48.835938 L 162.710938 48.265625 " transform="matrix(1,0,0,-1,0,115.5)"/>
<path style="fill:none;stroke-width:2.26;stroke-linecap:round;stroke-linejoin:round;stroke:rgb(0%,0%,0%);stroke-opacity:1;stroke-miterlimit:10;" d="M 164.058594 65.183594 L 164.148438 66.015625 L 164.507812 66.898438 L 165.136719 67.773438 L 166.035156 68.433594 L 167.292969 68.785156 L 168.550781 68.742188 L 169.628906 68.257812 L 170.4375 67.421875 L 171.066406 66.195312 L 171.425781 64.960938 L 171.605469 63.734375 L 171.425781 62.457031 L 171.066406 61.359375 L 170.527344 60.390625 L 169.449219 59.515625 L 168.371094 58.984375 L 167.113281 58.722656 L 166.035156 58.679688 L 165.316406 58.8125 L 165.046875 58.855469 " transform="matrix(1,0,0,-1,0,115.5)"/>
</g>
</svg>
