<?xml version="1.0" encoding="UTF-8"?>
<svg xmlns="http://www.w3.org/2000/svg" xmlns:xlink="http://www.w3.org/1999/xlink" width="467.25pt" height="183.75pt" viewBox="0 0 467.25 183.75" version="1.1">
<g id="surface1">
<path style="fill:none;stroke-width:2.26;stroke-linecap:round;stroke-linejoin:round;stroke:rgb(0%,0%,0%);stroke-opacity:1;stroke-miterlimit:10;" d="M 388.921875 162.371094 L 388.960938 156.410156 L 389.011719 150.460938 " transform="matrix(1,0,0,-1,0,183.75)"/>
<path style="fill:none;stroke-width:2.26;stroke-linecap:round;stroke-linejoin:round;stroke:rgb(0%,0%,0%);stroke-opacity:1;stroke-miterlimit:10;" d="M 389.011719 150.371094 L 395.480469 150.238281 " transform="matrix(1,0,0,-1,0,183.75)"/>
<path style="fill:none;stroke-width:2.26;stroke-linecap:round;stroke-linejoin:round;stroke:rgb(0%,0%,0%);stroke-opacity:1;stroke-miterlimit:10;" d="M 395.570312 150.148438 L 395.511719 143.660156 L 395.449219 137.171875 L 395.390625 130.679688 " transform="matrix(1,0,0,-1,0,183.75)"/>
<path style="fill:none;stroke-width:2.26;stroke-linecap:round;stroke-linejoin:round;stroke:rgb(0%,0%,0%);stroke-opacity:1;stroke-miterlimit:10;" d="M 395.390625 130.679688 L 389.371094 130.941406 " transform="matrix(1,0,0,-1,0,183.75)"/>
<path style="fill:none;stroke-width:2.26;stroke-linecap:round;stroke-linejoin:round;stroke:rgb(0%,0%,0%);stroke-opacity:1;stroke-miterlimit:10;" d="M 389.640625 130.859375 L 389.730469 124.53125 L 389.820312 118.199219 L 389.910156 111.871094 " transform="matrix(1,0,0,-1,0,183.75)"/>
<path style="fill:none;stroke-width:2.26;stroke-linecap:round;stroke-linejoin:round;stroke:rgb(0%,0%,0%);stroke-opacity:1;stroke-miterlimit:10;" d="M 389.910156 111.300781 L 396.289062 111.339844 " transform="matrix(1,0,0,-1,0,183.75)"/>
<path style="fill:none;stroke-width:2.26;stroke-linecap:round;stroke-linejoin:round;stroke:rgb(0%,0%,0%);stroke-opacity:1;stroke-miterlimit:10;" d="M 396.199219 111.300781 L 396.078125 105.980469 L 395.96875 100.671875 L 395.75 90.03125 " transform="matrix(1,0,0,-1,0,183.75)"/>
<path style="fill:none;stroke-width:2.26;stroke-linecap:round;stroke-linejoin:round;stroke:rgb(0%,0%,0%);stroke-opacity:1;stroke-miterlimit:10;" d="M 395.570312 89.679688 L 390.269531 89.769531 " transform="matrix(1,0,0,-1,0,183.75)"/>
<path style="fill:none;stroke-width:2.26;stroke-linecap:round;stroke-linejoin:round;stroke:rgb(0%,0%,0%);stroke-opacity:1;stroke-miterlimit:10;" d="M 389.820312 89.71875 L 389.761719 83.890625 L 389.699219 78.058594 L 389.640625 72.230469 " transform="matrix(1,0,0,-1,0,183.75)"/>
<path style="fill:none;stroke-width:2.26;stroke-linecap:round;stroke-linejoin:round;stroke:rgb(0%,0%,0%);stroke-opacity:1;stroke-miterlimit:10;" d="M 446.78125 162.148438 L 441.550781 162.261719 L 436.320312 162.378906 L 431.101562 162.488281 L 425.871094 162.609375 L 420.640625 162.71875 L 415.410156 162.839844 L 410.191406 162.960938 L 404.960938 163.070312 L 399.730469 163.191406 L 394.5 163.300781 L 389.28125 163.421875 " transform="matrix(1,0,0,-1,0,183.75)"/>
<path style="fill:none;stroke-width:2.26;stroke-linecap:round;stroke-linejoin:round;stroke:rgb(0%,0%,0%);stroke-opacity:1;stroke-miterlimit:10;" d="M 328.03125 128.859375 L 327.851562 129.210938 L 327.671875 129.609375 L 327.128906 130.050781 L 326.140625 130.441406 L 324.878906 130.398438 L 323.449219 130 L 322.191406 129.078125 L 321.378906 127.890625 L 321.019531 126.488281 L 321.558594 125.171875 L 322.730469 124.328125 L 324.429688 124.121094 L 326.230469 124.550781 L 327.488281 125.519531 L 328.390625 126.488281 L 328.75 127.460938 L 328.839844 127.980469 L 328.75 128.199219 L 328.570312 127.539062 L 328.210938 126.488281 L 327.851562 125.039062 L 327.578125 123.238281 L 327.128906 121.351562 L 326.679688 118.621094 L 326.230469 115.460938 L 325.871094 112.121094 L 325.78125 109.570312 L 326.230469 108.289062 L 327.21875 108.121094 L 328.390625 108.78125 L 329.378906 109.789062 L 330.089844 110.710938 L 330.089844 111.421875 L 329.460938 112.121094 L 328.480469 112.730469 L 327.398438 113.300781 L 326.589844 113.921875 L 326.410156 114.359375 L 326.679688 114.710938 L 327.21875 115.148438 L 327.761719 115.550781 L 328.570312 116.121094 L 329.289062 116.691406 L 329.820312 117.300781 L 330.179688 117.871094 L 330.269531 118.230469 L 330.269531 118.53125 " transform="matrix(1,0,0,-1,0,183.75)"/>
<path style="fill:none;stroke-width:2.26;stroke-linecap:round;stroke-linejoin:round;stroke:rgb(0%,0%,0%);stroke-opacity:1;stroke-miterlimit:10;" d="M 420.269531 126.898438 L 419.910156 126.460938 L 419.820312 125.800781 L 419.550781 124.039062 L 419.199219 121.230469 L 418.75 118.019531 L 418.210938 114.640625 L 417.851562 112.21875 L 417.578125 111.039062 L 417.488281 110.550781 " transform="matrix(1,0,0,-1,0,183.75)"/>
<path style="fill:none;stroke-width:2.26;stroke-linecap:round;stroke-linejoin:round;stroke:rgb(0%,0%,0%);stroke-opacity:1;stroke-miterlimit:10;" d="M 419.019531 125.710938 L 419.199219 126.460938 L 419.640625 127.300781 L 420.359375 128.089844 L 421.800781 128.828125 L 423.421875 129.191406 L 425.039062 129.140625 L 426.648438 128.75 L 427.550781 128.039062 L 428.089844 127.300781 L 428.179688 126.238281 L 428 125.058594 L 427.550781 123.609375 L 426.648438 122.109375 L 425.300781 121.101562 L 423.78125 120.710938 L 422.339844 120.75 L 421.261719 121.011719 L 420.628906 121.359375 L 420.359375 121.628906 " transform="matrix(1,0,0,-1,0,183.75)"/>
<path style="fill:none;stroke-width:2.26;stroke-linecap:round;stroke-linejoin:round;stroke:rgb(0%,0%,0%);stroke-opacity:1;stroke-miterlimit:10;" d="M 388.691406 73.191406 L 395.378906 72.910156 " transform="matrix(1,0,0,-1,0,183.75)"/>
<path style="fill:none;stroke-width:2.26;stroke-linecap:round;stroke-linejoin:round;stroke:rgb(0%,0%,0%);stroke-opacity:1;stroke-miterlimit:10;" d="M 396.25 72.46875 L 396.261719 66.46875 L 396.269531 60.46875 L 396.28125 54.46875 " transform="matrix(1,0,0,-1,0,183.75)"/>
<path style="fill:none;stroke-width:2.26;stroke-linecap:round;stroke-linejoin:round;stroke:rgb(0%,0%,0%);stroke-opacity:1;stroke-miterlimit:10;" d="M 396.191406 54.5 L 390.03125 54.628906 " transform="matrix(1,0,0,-1,0,183.75)"/>
<path style="fill:none;stroke-width:2.26;stroke-linecap:round;stroke-linejoin:round;stroke:rgb(0%,0%,0%);stroke-opacity:1;stroke-miterlimit:10;" d="M 390.160156 54.25 L 390.449219 46.828125 L 390.75 39.410156 " transform="matrix(1,0,0,-1,0,183.75)"/>
<path style="fill:none;stroke-width:2.26;stroke-linecap:round;stroke-linejoin:round;stroke:rgb(0%,0%,0%);stroke-opacity:1;stroke-miterlimit:10;" d="M 390.910156 39.28125 L 396.25 39.160156 L 401.601562 39.039062 L 406.949219 38.921875 L 412.289062 38.800781 L 417.640625 38.679688 L 422.988281 38.570312 L 428.328125 38.449219 L 433.679688 38.328125 L 439.03125 38.210938 L 444.371094 38.089844 L 449.71875 37.96875 " transform="matrix(1,0,0,-1,0,183.75)"/>
<path style="fill:none;stroke-width:2.26;stroke-linecap:round;stroke-linejoin:round;stroke:rgb(0%,0%,0%);stroke-opacity:1;stroke-miterlimit:10;" d="M 447.621094 161.691406 L 447.660156 156.609375 L 447.699219 151.539062 L 447.730469 146.460938 L 447.769531 141.390625 L 447.800781 136.320312 L 447.839844 131.238281 L 447.871094 126.171875 L 447.910156 121.089844 L 447.941406 116.019531 L 447.980469 110.949219 L 448.011719 105.871094 L 448.050781 100.800781 L 448.078125 95.71875 L 448.121094 90.648438 L 448.148438 85.570312 L 448.191406 80.5 L 448.21875 75.429688 L 448.261719 70.351562 L 448.289062 65.28125 L 448.328125 60.199219 L 448.359375 55.128906 L 448.398438 50.050781 L 448.429688 44.980469 L 448.46875 39.910156 " transform="matrix(1,0,0,-1,0,183.75)"/>
<path style="fill:none;stroke-width:2.26;stroke-linecap:round;stroke-linejoin:round;stroke:rgb(0%,0%,0%);stroke-opacity:1;stroke-miterlimit:10;" d="M 346.199219 163.929688 L 346.238281 157.96875 L 346.289062 152.019531 " transform="matrix(1,0,0,-1,0,183.75)"/>
<path style="fill:none;stroke-width:2.26;stroke-linecap:round;stroke-linejoin:round;stroke:rgb(0%,0%,0%);stroke-opacity:1;stroke-miterlimit:10;" d="M 346.289062 151.929688 L 352.761719 151.800781 " transform="matrix(1,0,0,-1,0,183.75)"/>
<path style="fill:none;stroke-width:2.26;stroke-linecap:round;stroke-linejoin:round;stroke:rgb(0%,0%,0%);stroke-opacity:1;stroke-miterlimit:10;" d="M 352.851562 151.710938 L 352.789062 145.21875 L 352.730469 138.730469 L 352.671875 132.238281 " transform="matrix(1,0,0,-1,0,183.75)"/>
<path style="fill:none;stroke-width:2.26;stroke-linecap:round;stroke-linejoin:round;stroke:rgb(0%,0%,0%);stroke-opacity:1;stroke-miterlimit:10;" d="M 352.671875 132.238281 L 346.648438 132.511719 " transform="matrix(1,0,0,-1,0,183.75)"/>
<path style="fill:none;stroke-width:2.26;stroke-linecap:round;stroke-linejoin:round;stroke:rgb(0%,0%,0%);stroke-opacity:1;stroke-miterlimit:10;" d="M 346.921875 132.421875 L 347.011719 126.089844 L 347.101562 119.761719 L 347.191406 113.429688 " transform="matrix(1,0,0,-1,0,183.75)"/>
<path style="fill:none;stroke-width:2.26;stroke-linecap:round;stroke-linejoin:round;stroke:rgb(0%,0%,0%);stroke-opacity:1;stroke-miterlimit:10;" d="M 347.191406 112.859375 L 353.570312 112.910156 " transform="matrix(1,0,0,-1,0,183.75)"/>
<path style="fill:none;stroke-width:2.26;stroke-linecap:round;stroke-linejoin:round;stroke:rgb(0%,0%,0%);stroke-opacity:1;stroke-miterlimit:10;" d="M 353.480469 112.859375 L 353.359375 107.550781 L 353.03125 91.589844 " transform="matrix(1,0,0,-1,0,183.75)"/>
<path style="fill:none;stroke-width:2.26;stroke-linecap:round;stroke-linejoin:round;stroke:rgb(0%,0%,0%);stroke-opacity:1;stroke-miterlimit:10;" d="M 352.851562 91.238281 L 347.550781 91.328125 " transform="matrix(1,0,0,-1,0,183.75)"/>
<path style="fill:none;stroke-width:2.26;stroke-linecap:round;stroke-linejoin:round;stroke:rgb(0%,0%,0%);stroke-opacity:1;stroke-miterlimit:10;" d="M 347.160156 80.78125 L 341.851562 80.820312 L 336.550781 80.871094 L 331.25 80.910156 L 325.941406 80.960938 L 315.339844 81.039062 L 310.03125 81.089844 L 304.730469 81.128906 L 299.429688 81.171875 L 294.121094 81.21875 " transform="matrix(1,0,0,-1,0,183.75)"/>
<path style="fill:none;stroke-width:2.26;stroke-linecap:round;stroke-linejoin:round;stroke:rgb(0%,0%,0%);stroke-opacity:1;stroke-miterlimit:10;" d="M 294.339844 163.96875 L 299.519531 164.070312 L 304.691406 164.179688 L 309.871094 164.28125 L 315.039062 164.378906 L 320.21875 164.480469 L 325.390625 164.589844 L 330.570312 164.691406 L 335.738281 164.789062 L 340.921875 164.898438 L 346.089844 165 " transform="matrix(1,0,0,-1,0,183.75)"/>
<path style="fill:none;stroke-width:2.26;stroke-linecap:round;stroke-linejoin:round;stroke:rgb(0%,0%,0%);stroke-opacity:1;stroke-miterlimit:10;" d="M 347.441406 91.28125 L 347.5 82.21875 " transform="matrix(1,0,0,-1,0,183.75)"/>
<path style="fill:none;stroke-width:2.26;stroke-linecap:round;stroke-linejoin:round;stroke:rgb(0%,0%,0%);stroke-opacity:1;stroke-miterlimit:10;" d="M 293.839844 161.96875 L 293.988281 156.550781 L 294.140625 151.128906 L 294.289062 145.710938 L 294.441406 140.289062 L 294.589844 134.871094 " transform="matrix(1,0,0,-1,0,183.75)"/>
<path style="fill:none;stroke-width:2.26;stroke-linecap:round;stroke-linejoin:round;stroke:rgb(0%,0%,0%);stroke-opacity:1;stroke-miterlimit:10;" d="M 294.660156 134.441406 L 300.28125 134.03125 " transform="matrix(1,0,0,-1,0,183.75)"/>
<path style="fill:none;stroke-width:2.26;stroke-linecap:round;stroke-linejoin:round;stroke:rgb(0%,0%,0%);stroke-opacity:1;stroke-miterlimit:10;" d="M 300.058594 133.871094 L 300.078125 128.699219 L 300.089844 123.53125 L 300.109375 118.359375 L 300.121094 113.191406 " transform="matrix(1,0,0,-1,0,183.75)"/>
<path style="fill:none;stroke-width:2.26;stroke-linecap:round;stroke-linejoin:round;stroke:rgb(0%,0%,0%);stroke-opacity:1;stroke-miterlimit:10;" d="M 299.941406 113.089844 L 294.191406 113.441406 " transform="matrix(1,0,0,-1,0,183.75)"/>
<path style="fill:none;stroke-width:2.26;stroke-linecap:round;stroke-linejoin:round;stroke:rgb(0%,0%,0%);stroke-opacity:1;stroke-miterlimit:10;" d="M 294.058594 112.871094 L 294.089844 106.96875 L 294.109375 101.058594 L 294.140625 95.160156 L 294.160156 89.25 L 294.191406 83.339844 " transform="matrix(1,0,0,-1,0,183.75)"/>
<path style="fill:none;stroke-width:2.26;stroke-linecap:round;stroke-linejoin:round;stroke:rgb(0%,0%,0%);stroke-opacity:1;stroke-miterlimit:10;" d="M 354.589844 141.589844 L 355 141.71875 L 355.839844 141.660156 L 357.121094 141.589844 L 358.941406 141.589844 L 361.160156 141.621094 L 363.5 141.621094 L 365.75 141.589844 L 368.058594 141.53125 L 370.03125 141.441406 L 371.878906 141.371094 L 373.621094 141.339844 L 378.121094 141.339844 L 379.941406 141.410156 L 381.75 141.441406 L 383.621094 141.441406 L 385.21875 141.410156 L 386.78125 141.339844 L 388.191406 141.28125 L 389.191406 141.25 L 389.839844 141.21875 L 390.28125 141.28125 L 390.691406 141.308594 L 391.089844 141.371094 L 391.589844 141.410156 L 392.191406 141.46875 L 392.691406 141.46875 L 393.28125 141.5 L 393.75 141.46875 L 394.378906 141.46875 " transform="matrix(1,0,0,-1,0,183.75)"/>
<path style="fill:none;stroke-width:2.26;stroke-linecap:round;stroke-linejoin:round;stroke:rgb(0%,0%,0%);stroke-opacity:1;stroke-miterlimit:10;" d="M 352.558594 101.21875 L 353.160156 101.121094 L 354.121094 101.058594 L 355.660156 101.03125 L 358.121094 101.089844 L 361 101.191406 L 364.058594 101.21875 L 367.121094 101.121094 L 369.71875 101 L 372.191406 100.871094 L 374.71875 100.839844 L 377.058594 100.871094 L 381.53125 100.871094 L 383.5 100.910156 L 385.21875 100.941406 L 386.53125 100.96875 L 387.308594 100.941406 L 387.839844 100.871094 L 389.53125 100.871094 L 390.121094 100.910156 L 390.53125 100.96875 L 390.839844 101 L 391.25 101 L 391.589844 100.96875 L 392.089844 101 L 392.71875 101.089844 L 393.21875 101.191406 L 393.621094 101.28125 L 393.878906 101.308594 L 393.691406 101.089844 " transform="matrix(1,0,0,-1,0,183.75)"/>
<path style="fill:none;stroke-width:2.26;stroke-linecap:round;stroke-linejoin:round;stroke:rgb(0%,0%,0%);stroke-opacity:1;stroke-miterlimit:10;" d="M 299.589844 126.808594 L 299.28125 126.441406 L 298.691406 126.308594 L 297.839844 126.21875 L 296.71875 126.160156 L 295.53125 126.128906 L 294.191406 125.96875 L 292.46875 125.53125 L 290.691406 124.839844 L 288.839844 123.839844 L 286.910156 122.410156 L 285.28125 120.839844 L 283.839844 119.160156 L 282.589844 117.308594 L 281.660156 115.558594 L 280.808594 113.75 L 279.839844 111.621094 L 278.941406 109.53125 L 278 107.308594 L 277.121094 104.71875 L 276.5 102.160156 L 276.03125 99.558594 L 275.589844 96.871094 L 275.160156 94.441406 L 274.558594 91.910156 L 273.78125 89.410156 L 273.03125 87.339844 L 272.160156 85.46875 L 271.160156 83.589844 L 269.941406 81.75 L 268.378906 79.808594 L 266.25 77.941406 L 264.058594 76.691406 L 261.808594 75.808594 L 259.410156 75.191406 L 257.21875 74.839844 L 255.089844 74.558594 L 252.96875 74.371094 L 250.910156 74.21875 L 248.910156 74.121094 L 246.941406 74.058594 L 245.058594 74.03125 L 243.691406 74 L 242.28125 74 L 242.441406 74.25 " transform="matrix(1,0,0,-1,0,183.75)"/>
<path style="fill:none;stroke-width:2.26;stroke-linecap:round;stroke-linejoin:round;stroke:rgb(0%,0%,0%);stroke-opacity:1;stroke-miterlimit:10;" d="M 258.121094 74.691406 L 258.410156 74.5 L 259.121094 74.441406 L 260.21875 74.371094 L 261.53125 74.25 L 263 73.96875 L 264.308594 73.46875 L 265.441406 72.78125 L 266.441406 71.839844 L 267.160156 70.839844 L 267.78125 69.910156 L 268.308594 68.871094 L 268.75 67.910156 L 269.191406 66.871094 L 269.558594 65.910156 L 270.160156 64.941406 L 270.878906 64 L 271.839844 62.96875 L 273.058594 61.871094 L 274.308594 61 L 275.691406 60.28125 L 277.28125 59.691406 L 278.941406 59.191406 L 280.691406 58.75 L 282.660156 58.308594 L 284.5 58.058594 L 286.46875 57.871094 L 288.839844 57.75 L 291.21875 57.691406 L 293.78125 57.660156 L 296.660156 57.71875 L 299.308594 57.808594 L 301.941406 57.910156 L 304.660156 57.96875 L 307.191406 57.96875 L 309.589844 58 L 312 58.03125 L 314.089844 58.128906 L 316.191406 58.25 L 318.691406 58.46875 L 321.191406 58.71875 L 323.839844 59 L 326.910156 59.25 L 330.121094 59.441406 L 333.441406 59.441406 L 336.808594 59.339844 L 339.410156 59.089844 L 341.5 58.941406 L 343.691406 58.96875 L 345.839844 59.121094 L 348.21875 59.339844 L 350.75 59.5 L 353.058594 59.558594 L 355.191406 59.628906 L 357.308594 59.628906 L 359.28125 59.660156 L 361.308594 59.75 L 363.589844 59.839844 L 365.691406 59.941406 L 370.089844 59.941406 L 372.28125 60.03125 L 374.5 60.21875 L 376.621094 60.371094 L 378.03125 60.46875 L 379.058594 60.5 L 380.160156 60.558594 L 381.46875 60.71875 L 382.808594 60.839844 L 384.121094 61 L 385.121094 61.128906 L 385.621094 61.191406 L 386.308594 61.308594 L 387.121094 61.410156 L 388 61.5 L 389.28125 61.558594 L 390.410156 61.53125 L 391.5 61.5 L 392.5 61.46875 L 393.089844 61.5 L 393.441406 61.558594 L 393.78125 61.628906 L 394.058594 61.71875 L 394.53125 61.808594 " transform="matrix(1,0,0,-1,0,183.75)"/>
<path style="fill:none;stroke-width:1.41;stroke-linecap:round;stroke-linejoin:round;stroke:rgb(0%,0%,0%);stroke-opacity:1;stroke-miterlimit:10;" d="M 226.089844 80.441406 L 226.191406 79.160156 L 226.53125 76.660156 L 226.878906 73.53125 L 227.121094 70.53125 L 227.21875 68.308594 L 227.25 67.441406 L 227.28125 67.191406 L 227.28125 66.871094 " transform="matrix(1,0,0,-1,0,183.75)"/>
<path style="fill:none;stroke-width:1.41;stroke-linecap:round;stroke-linejoin:round;stroke:rgb(0%,0%,0%);stroke-opacity:1;stroke-miterlimit:10;" d="M 227.53125 71.25 L 227.28125 71.371094 L 227.339844 71.691406 L 227.75 71.871094 L 228.25 72.089844 L 228.910156 72.25 L 229.410156 72.339844 L 229.941406 72.441406 L 230.46875 72.53125 L 231.160156 72.660156 L 231.839844 72.71875 L 232.410156 72.75 L 232.839844 72.78125 " transform="matrix(1,0,0,-1,0,183.75)"/>
<path style="fill:none;stroke-width:1.41;stroke-linecap:round;stroke-linejoin:round;stroke:rgb(0%,0%,0%);stroke-opacity:1;stroke-miterlimit:10;" d="M 233.75 78.128906 L 233.441406 78.089844 L 233.378906 77.660156 L 233.441406 76.910156 L 233.46875 75.75 L 233.46875 69.25 L 233.5 67.589844 L 233.53125 66.808594 " transform="matrix(1,0,0,-1,0,183.75)"/>
<path style="fill:none;stroke-width:1.41;stroke-linecap:round;stroke-linejoin:round;stroke:rgb(0%,0%,0%);stroke-opacity:1;stroke-miterlimit:10;" d="M 337.46875 137.808594 L 337.621094 138.53125 L 338.03125 139.839844 L 338.75 141.78125 L 339.621094 143.839844 L 340.308594 145.339844 L 340.878906 146.308594 L 341.410156 146.410156 L 341.839844 145.75 L 342.28125 144.75 L 342.691406 143.53125 L 343.03125 141.589844 L 343.378906 139.839844 L 343.691406 138.191406 L 343.941406 136.75 L 344.03125 136.339844 L 344.21875 136.058594 L 344.5 136.03125 " transform="matrix(1,0,0,-1,0,183.75)"/>
<path style="fill:none;stroke-width:1.41;stroke-linecap:round;stroke-linejoin:round;stroke:rgb(0%,0%,0%);stroke-opacity:1;stroke-miterlimit:10;" d="M 339.96875 140.441406 L 339.71875 140.53125 L 340.410156 140.5 L 341.410156 140.441406 L 342.46875 140.410156 L 343.308594 140.339844 L 343.808594 140.371094 " transform="matrix(1,0,0,-1,0,183.75)"/>
<path style="fill:none;stroke-width:1.41;stroke-linecap:round;stroke-linejoin:round;stroke:rgb(0%,0%,0%);stroke-opacity:1;stroke-miterlimit:10;" d="M 341.878906 107.21875 L 341.621094 107.21875 L 341.5 106.808594 L 341.410156 105.308594 L 341.339844 103.28125 L 341.28125 101.308594 L 341.21875 99.558594 L 341.160156 98.839844 L 341.089844 98.628906 " transform="matrix(1,0,0,-1,0,183.75)"/>
<path style="fill:none;stroke-width:1.41;stroke-linecap:round;stroke-linejoin:round;stroke:rgb(0%,0%,0%);stroke-opacity:1;stroke-miterlimit:10;" d="M 341.410156 104.78125 L 341.308594 105.191406 L 341.878906 105.660156 L 342.78125 106.03125 L 343.941406 106.128906 L 345.03125 105.75 L 345.410156 104.910156 L 345.058594 103.910156 L 344.03125 103.03125 L 342.941406 102.53125 L 342.28125 102.339844 L 342.621094 102.21875 L 343.878906 102.058594 L 345.378906 101.691406 L 346.691406 101.089844 L 347.410156 100.5 L 347.621094 100 L 347.03125 99.371094 L 345.941406 98.839844 L 344.5 98.441406 L 343 98.191406 L 342.089844 98.191406 L 341.621094 98.371094 L 341.558594 98.691406 " transform="matrix(1,0,0,-1,0,183.75)"/>
<path style="fill:none;stroke-width:1.41;stroke-linecap:round;stroke-linejoin:round;stroke:rgb(0%,0%,0%);stroke-opacity:1;stroke-miterlimit:10;" d="M 400.71875 135.5 L 400.558594 135.28125 L 400.53125 135.53125 L 400.660156 136.28125 L 401.058594 137.691406 L 401.71875 139.941406 L 402.410156 142 L 403.058594 143.628906 L 403.71875 144.03125 L 404.339844 142.871094 L 405.160156 140.78125 L 406 138.25 L 406.75 136.191406 L 407.21875 134.910156 L 407.441406 134.308594 L 407.308594 134.53125 " transform="matrix(1,0,0,-1,0,183.75)"/>
<path style="fill:none;stroke-width:1.41;stroke-linecap:round;stroke-linejoin:round;stroke:rgb(0%,0%,0%);stroke-opacity:1;stroke-miterlimit:10;" d="M 402.03125 138.53125 L 402.25 138.621094 L 403.160156 138.78125 L 404.410156 138.941406 L 405.660156 139.03125 L 406.53125 139.128906 " transform="matrix(1,0,0,-1,0,183.75)"/>
<path style="fill:none;stroke-width:1.41;stroke-linecap:round;stroke-linejoin:round;stroke:rgb(0%,0%,0%);stroke-opacity:1;stroke-miterlimit:10;" d="M 401.78125 104.96875 L 401.96875 105.089844 L 402.03125 104.839844 L 402 104 L 401.878906 102.339844 L 401.75 100.589844 L 401.71875 99.128906 L 401.660156 98.121094 L 401.621094 97.839844 " transform="matrix(1,0,0,-1,0,183.75)"/>
<path style="fill:none;stroke-width:1.41;stroke-linecap:round;stroke-linejoin:round;stroke:rgb(0%,0%,0%);stroke-opacity:1;stroke-miterlimit:10;" d="M 401.71875 104.058594 L 402.121094 104.660156 L 402.878906 105.371094 L 404.089844 105.941406 L 405.5 106 L 406.5 105.441406 L 406.71875 104.410156 L 405.910156 103.128906 L 404.621094 102.191406 L 403.410156 101.691406 L 402.839844 101.53125 L 403.53125 101.5 L 404.878906 101.25 L 406.378906 100.75 L 407.378906 100 L 407.339844 99.128906 L 406.78125 98.46875 L 405.941406 97.941406 L 405.089844 97.628906 L 404.28125 97.5 L 403.441406 97.53125 L 402.589844 97.78125 L 401.910156 98.160156 L 401.5 98.5 L 401.378906 98.78125 " transform="matrix(1,0,0,-1,0,183.75)"/>
<path style="fill:none;stroke-width:1.41;stroke-linecap:round;stroke-linejoin:round;stroke:rgb(0%,0%,0%);stroke-opacity:1;stroke-miterlimit:10;" d="M 403.46875 66.5 L 403.5 66 L 403.441406 64.46875 L 403.339844 62.53125 L 403.191406 60.558594 L 403.089844 59.410156 L 403.058594 58.941406 " transform="matrix(1,0,0,-1,0,183.75)"/>
<path style="fill:none;stroke-width:1.41;stroke-linecap:round;stroke-linejoin:round;stroke:rgb(0%,0%,0%);stroke-opacity:1;stroke-miterlimit:10;" d="M 402.75 61.660156 L 402.75 62 L 403.28125 62.339844 L 404.53125 62.691406 L 406 63.058594 L 407.5 63.308594 L 408.46875 63.410156 L 408.78125 63.410156 " transform="matrix(1,0,0,-1,0,183.75)"/>
<path style="fill:none;stroke-width:1.41;stroke-linecap:round;stroke-linejoin:round;stroke:rgb(0%,0%,0%);stroke-opacity:1;stroke-miterlimit:10;" d="M 409.410156 67.808594 L 409.308594 67 L 409.308594 63.808594 L 409.191406 61.03125 L 409.058594 59.089844 L 408.96875 57.46875 L 408.839844 56.25 " transform="matrix(1,0,0,-1,0,183.75)"/>
<path style="fill:none;stroke-width:1.41;stroke-linecap:round;stroke-linejoin:round;stroke:rgb(0%,0%,0%);stroke-opacity:1;stroke-miterlimit:10;" d="M 305.46875 129.03125 L 305.339844 128.691406 L 305.339844 127.691406 L 305.46875 126.089844 L 305.558594 123.96875 L 305.589844 122.089844 L 305.589844 120.691406 L 305.53125 119.839844 L 305.5 119.410156 L 305.46875 119.160156 " transform="matrix(1,0,0,-1,0,183.75)"/>
<path style="fill:none;stroke-width:1.41;stroke-linecap:round;stroke-linejoin:round;stroke:rgb(0%,0%,0%);stroke-opacity:1;stroke-miterlimit:10;" d="M 305.878906 122.191406 L 306.28125 122.660156 L 307.121094 123.058594 L 308.121094 123.339844 L 309.089844 123.691406 L 309.589844 123.839844 L 309.78125 124 " transform="matrix(1,0,0,-1,0,183.75)"/>
<path style="fill:none;stroke-width:1.41;stroke-linecap:round;stroke-linejoin:round;stroke:rgb(0%,0%,0%);stroke-opacity:1;stroke-miterlimit:10;" d="M 310.25 128.628906 L 310.441406 128.5 L 310.558594 128.03125 L 310.660156 127.410156 L 310.71875 126.71875 L 310.839844 125.089844 L 310.910156 123.03125 L 310.941406 120.941406 L 310.96875 118.941406 L 310.96875 118 " transform="matrix(1,0,0,-1,0,183.75)"/>
<path style="fill:none;stroke-width:2.26;stroke-linecap:round;stroke-linejoin:round;stroke:rgb(0%,0%,0%);stroke-opacity:1;stroke-miterlimit:10;" d="M 140.230469 161.578125 L 140.28125 155.628906 L 140.320312 149.671875 " transform="matrix(1,0,0,-1,0,183.75)"/>
<path style="fill:none;stroke-width:2.26;stroke-linecap:round;stroke-linejoin:round;stroke:rgb(0%,0%,0%);stroke-opacity:1;stroke-miterlimit:10;" d="M 140.320312 149.589844 L 146.789062 149.460938 " transform="matrix(1,0,0,-1,0,183.75)"/>
<path style="fill:none;stroke-width:2.26;stroke-linecap:round;stroke-linejoin:round;stroke:rgb(0%,0%,0%);stroke-opacity:1;stroke-miterlimit:10;" d="M 146.878906 149.371094 L 146.820312 142.878906 L 146.761719 136.390625 L 146.699219 129.898438 " transform="matrix(1,0,0,-1,0,183.75)"/>
<path style="fill:none;stroke-width:2.26;stroke-linecap:round;stroke-linejoin:round;stroke:rgb(0%,0%,0%);stroke-opacity:1;stroke-miterlimit:10;" d="M 146.699219 129.898438 L 140.679688 130.160156 " transform="matrix(1,0,0,-1,0,183.75)"/>
<path style="fill:none;stroke-width:2.26;stroke-linecap:round;stroke-linejoin:round;stroke:rgb(0%,0%,0%);stroke-opacity:1;stroke-miterlimit:10;" d="M 140.949219 130.078125 L 141.128906 117.421875 L 141.21875 111.089844 " transform="matrix(1,0,0,-1,0,183.75)"/>
<path style="fill:none;stroke-width:2.26;stroke-linecap:round;stroke-linejoin:round;stroke:rgb(0%,0%,0%);stroke-opacity:1;stroke-miterlimit:10;" d="M 141.21875 110.519531 L 147.601562 110.558594 " transform="matrix(1,0,0,-1,0,183.75)"/>
<path style="fill:none;stroke-width:2.26;stroke-linecap:round;stroke-linejoin:round;stroke:rgb(0%,0%,0%);stroke-opacity:1;stroke-miterlimit:10;" d="M 147.511719 110.519531 L 147.398438 105.199219 L 147.28125 99.878906 L 147.171875 94.570312 L 147.058594 89.25 " transform="matrix(1,0,0,-1,0,183.75)"/>
<path style="fill:none;stroke-width:2.26;stroke-linecap:round;stroke-linejoin:round;stroke:rgb(0%,0%,0%);stroke-opacity:1;stroke-miterlimit:10;" d="M 146.878906 88.898438 L 141.578125 88.988281 " transform="matrix(1,0,0,-1,0,183.75)"/>
<path style="fill:none;stroke-width:2.26;stroke-linecap:round;stroke-linejoin:round;stroke:rgb(0%,0%,0%);stroke-opacity:1;stroke-miterlimit:10;" d="M 141.128906 88.941406 L 141.070312 83.109375 L 141.011719 77.28125 L 140.949219 71.449219 " transform="matrix(1,0,0,-1,0,183.75)"/>
<path style="fill:none;stroke-width:2.26;stroke-linecap:round;stroke-linejoin:round;stroke:rgb(0%,0%,0%);stroke-opacity:1;stroke-miterlimit:10;" d="M 198.089844 161.359375 L 192.859375 161.480469 L 187.640625 161.601562 L 182.410156 161.710938 L 177.179688 161.828125 L 171.949219 161.941406 L 166.730469 162.058594 L 161.5 162.179688 L 156.269531 162.289062 L 151.039062 162.410156 L 145.820312 162.519531 L 140.589844 162.640625 " transform="matrix(1,0,0,-1,0,183.75)"/>
<path style="fill:none;stroke-width:2.26;stroke-linecap:round;stroke-linejoin:round;stroke:rgb(0%,0%,0%);stroke-opacity:1;stroke-miterlimit:10;" d="M 171.589844 126.121094 L 171.230469 125.679688 L 171.140625 125.019531 L 170.871094 123.261719 L 170.511719 120.449219 L 170.058594 117.238281 L 169.519531 113.859375 L 169.160156 111.441406 L 168.890625 110.261719 L 168.800781 109.769531 " transform="matrix(1,0,0,-1,0,183.75)"/>
<path style="fill:none;stroke-width:2.26;stroke-linecap:round;stroke-linejoin:round;stroke:rgb(0%,0%,0%);stroke-opacity:1;stroke-miterlimit:10;" d="M 170.328125 124.929688 L 170.511719 125.679688 L 170.960938 126.519531 L 171.679688 127.308594 L 173.109375 128.050781 L 174.730469 128.410156 L 176.351562 128.359375 L 177.960938 127.96875 L 178.859375 127.261719 L 179.398438 126.519531 L 179.488281 125.460938 L 179.308594 124.269531 L 178.859375 122.820312 L 177.960938 121.328125 L 176.621094 120.320312 L 175.089844 119.921875 L 173.648438 119.96875 L 172.570312 120.230469 L 171.949219 120.578125 L 171.679688 120.851562 " transform="matrix(1,0,0,-1,0,183.75)"/>
<path style="fill:none;stroke-width:2.26;stroke-linecap:round;stroke-linejoin:round;stroke:rgb(0%,0%,0%);stroke-opacity:1;stroke-miterlimit:10;" d="M 140 72.410156 L 146.691406 72.128906 " transform="matrix(1,0,0,-1,0,183.75)"/>
<path style="fill:none;stroke-width:2.26;stroke-linecap:round;stroke-linejoin:round;stroke:rgb(0%,0%,0%);stroke-opacity:1;stroke-miterlimit:10;" d="M 147.558594 71.691406 L 147.570312 65.691406 L 147.578125 59.691406 L 147.589844 53.691406 " transform="matrix(1,0,0,-1,0,183.75)"/>
<path style="fill:none;stroke-width:2.26;stroke-linecap:round;stroke-linejoin:round;stroke:rgb(0%,0%,0%);stroke-opacity:1;stroke-miterlimit:10;" d="M 147.5 53.71875 L 141.339844 53.839844 " transform="matrix(1,0,0,-1,0,183.75)"/>
<path style="fill:none;stroke-width:2.26;stroke-linecap:round;stroke-linejoin:round;stroke:rgb(0%,0%,0%);stroke-opacity:1;stroke-miterlimit:10;" d="M 141.46875 53.46875 L 141.769531 46.050781 L 142.058594 38.628906 " transform="matrix(1,0,0,-1,0,183.75)"/>
<path style="fill:none;stroke-width:2.26;stroke-linecap:round;stroke-linejoin:round;stroke:rgb(0%,0%,0%);stroke-opacity:1;stroke-miterlimit:10;" d="M 142.21875 38.5 L 147.570312 38.378906 L 152.910156 38.261719 L 158.261719 38.140625 L 163.609375 38.019531 L 168.949219 37.898438 L 174.300781 37.78125 L 179.640625 37.660156 L 184.988281 37.550781 L 190.339844 37.429688 L 195.679688 37.308594 L 201.03125 37.191406 " transform="matrix(1,0,0,-1,0,183.75)"/>
<path style="fill:none;stroke-width:2.26;stroke-linecap:round;stroke-linejoin:round;stroke:rgb(0%,0%,0%);stroke-opacity:1;stroke-miterlimit:10;" d="M 198.941406 160.910156 L 198.96875 155.828125 L 199.011719 150.761719 L 199.039062 145.679688 L 199.078125 140.609375 L 199.109375 135.539062 L 199.148438 130.460938 L 199.179688 125.390625 L 199.21875 120.308594 L 199.25 115.238281 L 199.289062 110.160156 L 199.320312 105.089844 L 199.359375 100.019531 L 199.390625 94.941406 L 199.429688 89.871094 L 199.460938 84.789062 L 199.5 79.71875 L 199.539062 74.640625 L 199.570312 69.570312 L 199.609375 64.5 L 199.640625 59.421875 L 199.679688 54.351562 L 199.710938 49.269531 L 199.75 44.199219 L 199.78125 39.128906 " transform="matrix(1,0,0,-1,0,183.75)"/>
<path style="fill:none;stroke-width:1.41;stroke-linecap:round;stroke-linejoin:round;stroke:rgb(0%,0%,0%);stroke-opacity:1;stroke-miterlimit:10;" d="M 152.03125 134.71875 L 151.871094 134.5 L 151.839844 134.75 L 151.96875 135.5 L 152.371094 136.910156 L 153.03125 139.160156 L 153.71875 141.21875 L 154.371094 142.839844 L 155.03125 143.25 L 155.660156 142.089844 L 156.46875 140 L 157.308594 137.46875 L 158.058594 135.410156 L 158.53125 134.128906 L 158.75 133.53125 L 158.621094 133.75 " transform="matrix(1,0,0,-1,0,183.75)"/>
<path style="fill:none;stroke-width:1.41;stroke-linecap:round;stroke-linejoin:round;stroke:rgb(0%,0%,0%);stroke-opacity:1;stroke-miterlimit:10;" d="M 153.339844 137.75 L 153.558594 137.839844 L 154.46875 138 L 155.71875 138.160156 L 156.96875 138.25 L 157.839844 138.339844 " transform="matrix(1,0,0,-1,0,183.75)"/>
<path style="fill:none;stroke-width:1.41;stroke-linecap:round;stroke-linejoin:round;stroke:rgb(0%,0%,0%);stroke-opacity:1;stroke-miterlimit:10;" d="M 153.089844 104.191406 L 153.28125 104.308594 L 153.339844 104.058594 L 153.308594 103.21875 L 153.191406 101.558594 L 153.058594 99.808594 L 153.03125 98.339844 L 152.96875 97.339844 L 152.941406 97.058594 " transform="matrix(1,0,0,-1,0,183.75)"/>
<path style="fill:none;stroke-width:1.41;stroke-linecap:round;stroke-linejoin:round;stroke:rgb(0%,0%,0%);stroke-opacity:1;stroke-miterlimit:10;" d="M 153.03125 103.28125 L 153.441406 103.878906 L 154.191406 104.589844 L 155.410156 105.160156 L 156.808594 105.21875 L 157.808594 104.660156 L 158.03125 103.628906 L 157.21875 102.339844 L 155.941406 101.410156 L 154.71875 100.910156 L 154.160156 100.75 L 154.839844 100.71875 L 156.191406 100.46875 L 157.691406 99.96875 L 158.691406 99.21875 L 158.660156 98.339844 L 158.089844 97.691406 L 157.25 97.160156 L 156.410156 96.839844 L 155.589844 96.71875 L 154.75 96.75 L 153.910156 97 L 153.21875 97.378906 L 152.808594 97.71875 L 152.691406 98 " transform="matrix(1,0,0,-1,0,183.75)"/>
<path style="fill:none;stroke-width:1.41;stroke-linecap:round;stroke-linejoin:round;stroke:rgb(0%,0%,0%);stroke-opacity:1;stroke-miterlimit:10;" d="M 154.78125 65.71875 L 154.808594 65.21875 L 154.75 63.691406 L 154.660156 61.75 L 154.5 59.78125 L 154.410156 58.628906 L 154.371094 58.160156 " transform="matrix(1,0,0,-1,0,183.75)"/>
<path style="fill:none;stroke-width:1.41;stroke-linecap:round;stroke-linejoin:round;stroke:rgb(0%,0%,0%);stroke-opacity:1;stroke-miterlimit:10;" d="M 154.058594 60.871094 L 154.058594 61.21875 L 154.589844 61.558594 L 155.839844 61.910156 L 157.308594 62.28125 L 158.808594 62.53125 L 159.78125 62.628906 L 160.089844 62.628906 " transform="matrix(1,0,0,-1,0,183.75)"/>
<path style="fill:none;stroke-width:1.41;stroke-linecap:round;stroke-linejoin:round;stroke:rgb(0%,0%,0%);stroke-opacity:1;stroke-miterlimit:10;" d="M 160.71875 67.03125 L 160.621094 66.21875 L 160.621094 63.03125 L 160.5 60.25 L 160.371094 58.308594 L 160.28125 56.691406 L 160.160156 55.46875 " transform="matrix(1,0,0,-1,0,183.75)"/>
<path style="fill:none;stroke-width:2.26;stroke-linecap:round;stroke-linejoin:round;stroke:rgb(0%,0%,0%);stroke-opacity:1;stroke-miterlimit:10;" d="M 51.390625 163.261719 L 50.949219 153.5 " transform="matrix(1,0,0,-1,0,183.75)"/>
<path style="fill:none;stroke-width:2.26;stroke-linecap:round;stroke-linejoin:round;stroke:rgb(0%,0%,0%);stroke-opacity:1;stroke-miterlimit:10;" d="M 49.601562 132.929688 L 49.511719 123.179688 " transform="matrix(1,0,0,-1,0,183.75)"/>
<path style="fill:none;stroke-width:2.26;stroke-linecap:round;stroke-linejoin:round;stroke:rgb(0%,0%,0%);stroke-opacity:1;stroke-miterlimit:10;" d="M 49.601562 123.179688 L 54.761719 123.101562 L 59.929688 123.011719 L 65.101562 122.929688 L 70.261719 122.839844 L 75.429688 122.761719 L 80.589844 122.679688 L 85.761719 122.589844 L 90.929688 122.511719 L 96.089844 122.429688 L 101.261719 122.339844 " transform="matrix(1,0,0,-1,0,183.75)"/>
<path style="fill:none;stroke-width:2.26;stroke-linecap:round;stroke-linejoin:round;stroke:rgb(0%,0%,0%);stroke-opacity:1;stroke-miterlimit:10;" d="M 101.351562 122.699219 L 101.710938 130.171875 " transform="matrix(1,0,0,-1,0,183.75)"/>
<path style="fill:none;stroke-width:2.26;stroke-linecap:round;stroke-linejoin:round;stroke:rgb(0%,0%,0%);stroke-opacity:1;stroke-miterlimit:10;" d="M 99.191406 153.941406 L 99.191406 162.640625 " transform="matrix(1,0,0,-1,0,183.75)"/>
<path style="fill:none;stroke-width:2.26;stroke-linecap:round;stroke-linejoin:round;stroke:rgb(0%,0%,0%);stroke-opacity:1;stroke-miterlimit:10;" d="M 99.371094 162.601562 L 94.109375 162.640625 L 88.851562 162.679688 L 83.589844 162.710938 L 78.328125 162.75 L 73.070312 162.789062 L 67.808594 162.828125 L 62.550781 162.871094 L 57.28125 162.910156 L 52.019531 162.949219 " transform="matrix(1,0,0,-1,0,183.75)"/>
<path style="fill:none;stroke-width:2.26;stroke-linecap:round;stroke-linejoin:round;stroke:rgb(0%,0%,0%);stroke-opacity:1;stroke-miterlimit:10;" d="M 50.859375 153.191406 L 57.050781 153.191406 " transform="matrix(1,0,0,-1,0,183.75)"/>
<path style="fill:none;stroke-width:2.26;stroke-linecap:round;stroke-linejoin:round;stroke:rgb(0%,0%,0%);stroke-opacity:1;stroke-miterlimit:10;" d="M 56.878906 152.75 L 56.820312 146.261719 L 56.761719 139.78125 L 56.699219 133.289062 " transform="matrix(1,0,0,-1,0,183.75)"/>
<path style="fill:none;stroke-width:2.26;stroke-linecap:round;stroke-linejoin:round;stroke:rgb(0%,0%,0%);stroke-opacity:1;stroke-miterlimit:10;" d="M 56.699219 133.421875 L 49.78125 133.679688 " transform="matrix(1,0,0,-1,0,183.75)"/>
<path style="fill:none;stroke-width:2.26;stroke-linecap:round;stroke-linejoin:round;stroke:rgb(0%,0%,0%);stroke-opacity:1;stroke-miterlimit:10;" d="M 100.628906 154.289062 L 105.300781 153.851562 " transform="matrix(1,0,0,-1,0,183.75)"/>
<path style="fill:none;stroke-width:2.26;stroke-linecap:round;stroke-linejoin:round;stroke:rgb(0%,0%,0%);stroke-opacity:1;stroke-miterlimit:10;" d="M 105.839844 153.851562 L 106.019531 148.398438 L 106.378906 137.5 L 106.558594 132.058594 " transform="matrix(1,0,0,-1,0,183.75)"/>
<path style="fill:none;stroke-width:2.26;stroke-linecap:round;stroke-linejoin:round;stroke:rgb(0%,0%,0%);stroke-opacity:1;stroke-miterlimit:10;" d="M 106.738281 131.921875 L 101.53125 131.261719 " transform="matrix(1,0,0,-1,0,183.75)"/>
<path style="fill:none;stroke-width:2.26;stroke-linecap:round;stroke-linejoin:round;stroke:rgb(0%,0%,0%);stroke-opacity:1;stroke-miterlimit:10;" d="M 82.839844 151.609375 L 82.660156 151.960938 L 82.480469 152.359375 L 81.941406 152.800781 L 80.949219 153.191406 L 79.699219 153.148438 L 78.261719 152.75 L 77 151.828125 L 76.191406 150.640625 L 75.828125 149.238281 L 76.371094 147.921875 L 77.539062 147.078125 L 79.25 146.871094 L 81.039062 147.300781 L 82.300781 148.269531 L 83.199219 149.238281 L 83.558594 150.210938 L 83.648438 150.730469 L 83.558594 150.949219 L 83.378906 150.289062 L 83.019531 149.238281 L 82.660156 147.789062 L 82.390625 145.988281 L 81.941406 144.101562 L 81.488281 141.371094 L 81.039062 138.210938 L 80.679688 134.871094 L 80.589844 132.320312 L 81.039062 131.039062 L 82.03125 130.871094 L 83.199219 131.53125 L 84.191406 132.539062 L 84.910156 133.460938 L 84.910156 134.171875 L 84.28125 134.871094 L 83.289062 135.480469 L 82.210938 136.050781 L 81.398438 136.671875 L 81.21875 137.109375 L 81.488281 137.460938 L 82.03125 137.898438 L 82.570312 138.300781 L 83.378906 138.871094 L 84.101562 139.441406 L 84.640625 140.050781 L 85 140.628906 L 85.089844 140.980469 L 85.089844 141.28125 " transform="matrix(1,0,0,-1,0,183.75)"/>
<path style="fill:none;stroke-width:2.26;stroke-linecap:round;stroke-linejoin:round;stroke:rgb(0%,0%,0%);stroke-opacity:1;stroke-miterlimit:10;" d="M 51.179688 115.261719 L 50.730469 105.5 " transform="matrix(1,0,0,-1,0,183.75)"/>
<path style="fill:none;stroke-width:2.26;stroke-linecap:round;stroke-linejoin:round;stroke:rgb(0%,0%,0%);stroke-opacity:1;stroke-miterlimit:10;" d="M 49.378906 84.929688 L 49.289062 75.179688 " transform="matrix(1,0,0,-1,0,183.75)"/>
<path style="fill:none;stroke-width:2.26;stroke-linecap:round;stroke-linejoin:round;stroke:rgb(0%,0%,0%);stroke-opacity:1;stroke-miterlimit:10;" d="M 49.378906 75.179688 L 54.539062 75.101562 L 59.710938 75.011719 L 64.878906 74.929688 L 70.039062 74.839844 L 75.210938 74.761719 L 80.378906 74.679688 L 85.539062 74.589844 L 90.710938 74.511719 L 95.871094 74.429688 L 101.039062 74.339844 " transform="matrix(1,0,0,-1,0,183.75)"/>
<path style="fill:none;stroke-width:2.26;stroke-linecap:round;stroke-linejoin:round;stroke:rgb(0%,0%,0%);stroke-opacity:1;stroke-miterlimit:10;" d="M 101.128906 74.699219 L 101.488281 82.171875 " transform="matrix(1,0,0,-1,0,183.75)"/>
<path style="fill:none;stroke-width:2.26;stroke-linecap:round;stroke-linejoin:round;stroke:rgb(0%,0%,0%);stroke-opacity:1;stroke-miterlimit:10;" d="M 98.96875 105.941406 L 98.96875 114.640625 " transform="matrix(1,0,0,-1,0,183.75)"/>
<path style="fill:none;stroke-width:2.26;stroke-linecap:round;stroke-linejoin:round;stroke:rgb(0%,0%,0%);stroke-opacity:1;stroke-miterlimit:10;" d="M 99.148438 114.601562 L 93.890625 114.640625 L 88.628906 114.679688 L 83.371094 114.710938 L 78.109375 114.75 L 72.851562 114.789062 L 67.589844 114.828125 L 62.328125 114.871094 L 57.070312 114.910156 L 51.800781 114.949219 " transform="matrix(1,0,0,-1,0,183.75)"/>
<path style="fill:none;stroke-width:2.26;stroke-linecap:round;stroke-linejoin:round;stroke:rgb(0%,0%,0%);stroke-opacity:1;stroke-miterlimit:10;" d="M 50.640625 105.191406 L 56.839844 105.191406 " transform="matrix(1,0,0,-1,0,183.75)"/>
<path style="fill:none;stroke-width:2.26;stroke-linecap:round;stroke-linejoin:round;stroke:rgb(0%,0%,0%);stroke-opacity:1;stroke-miterlimit:10;" d="M 56.660156 104.75 L 56.601562 98.261719 L 56.539062 91.78125 L 56.480469 85.289062 " transform="matrix(1,0,0,-1,0,183.75)"/>
<path style="fill:none;stroke-width:2.26;stroke-linecap:round;stroke-linejoin:round;stroke:rgb(0%,0%,0%);stroke-opacity:1;stroke-miterlimit:10;" d="M 56.480469 85.421875 L 49.558594 85.679688 " transform="matrix(1,0,0,-1,0,183.75)"/>
<path style="fill:none;stroke-width:2.26;stroke-linecap:round;stroke-linejoin:round;stroke:rgb(0%,0%,0%);stroke-opacity:1;stroke-miterlimit:10;" d="M 100.410156 106.289062 L 105.078125 105.851562 " transform="matrix(1,0,0,-1,0,183.75)"/>
<path style="fill:none;stroke-width:2.26;stroke-linecap:round;stroke-linejoin:round;stroke:rgb(0%,0%,0%);stroke-opacity:1;stroke-miterlimit:10;" d="M 105.621094 105.851562 L 105.800781 100.398438 L 106.160156 89.5 L 106.339844 84.058594 " transform="matrix(1,0,0,-1,0,183.75)"/>
<path style="fill:none;stroke-width:2.26;stroke-linecap:round;stroke-linejoin:round;stroke:rgb(0%,0%,0%);stroke-opacity:1;stroke-miterlimit:10;" d="M 106.519531 83.921875 L 101.308594 83.261719 " transform="matrix(1,0,0,-1,0,183.75)"/>
<path style="fill:none;stroke-width:2.26;stroke-linecap:round;stroke-linejoin:round;stroke:rgb(0%,0%,0%);stroke-opacity:1;stroke-miterlimit:10;" d="M 82.621094 103.609375 L 82.441406 103.960938 L 82.261719 104.359375 L 81.71875 104.800781 L 80.730469 105.191406 L 79.480469 105.148438 L 78.039062 104.75 L 76.78125 103.828125 L 75.96875 102.640625 L 75.609375 101.238281 L 76.148438 99.921875 L 77.320312 99.078125 L 79.03125 98.871094 L 80.820312 99.300781 L 82.078125 100.269531 L 82.980469 101.238281 L 83.339844 102.210938 L 83.429688 102.730469 L 83.339844 102.949219 L 83.160156 102.289062 L 82.800781 101.238281 L 82.441406 99.789062 L 82.171875 97.988281 L 81.71875 96.101562 L 81.269531 93.371094 L 80.820312 90.210938 L 80.460938 86.871094 L 80.371094 84.320312 L 80.820312 83.039062 L 81.808594 82.871094 L 82.980469 83.53125 L 83.96875 84.539062 L 84.691406 85.460938 L 84.691406 86.171875 L 84.058594 86.871094 L 83.070312 87.480469 L 81.988281 88.050781 L 81.179688 88.671875 L 81 89.109375 L 81.269531 89.460938 L 81.808594 89.898438 L 82.351562 90.300781 L 83.160156 90.871094 L 83.878906 91.441406 L 84.421875 92.050781 L 84.78125 92.628906 L 84.871094 92.980469 L 84.871094 93.28125 " transform="matrix(1,0,0,-1,0,183.75)"/>
<path style="fill:none;stroke-width:2.26;stroke-linecap:round;stroke-linejoin:round;stroke:rgb(0%,0%,0%);stroke-opacity:1;stroke-miterlimit:10;" d="M 107.308594 140.75 L 107.21875 140.5 L 107.28125 140.191406 L 107.46875 140.03125 L 108 139.910156 L 108.839844 139.78125 L 110.058594 139.71875 L 112 139.691406 L 116.691406 139.691406 L 119.410156 139.660156 L 121.941406 139.628906 L 124.558594 139.628906 L 127.308594 139.691406 L 129.808594 139.78125 L 132.21875 139.878906 L 134.839844 139.910156 L 142 139.910156 L 142.5 139.878906 L 143.5 139.878906 L 144.160156 139.808594 L 144.808594 139.78125 L 145.28125 139.75 L 145.660156 139.691406 L 146.089844 139.660156 L 146.339844 139.628906 L 146 139.910156 " transform="matrix(1,0,0,-1,0,183.75)"/>
<path style="fill:none;stroke-width:2.26;stroke-linecap:round;stroke-linejoin:round;stroke:rgb(0%,0%,0%);stroke-opacity:1;stroke-miterlimit:10;" d="M 105.78125 98.191406 L 106.339844 97.878906 L 107.160156 97.910156 L 108.28125 98 L 110 98.128906 L 112.03125 98.21875 L 114.371094 98.378906 L 117.058594 98.558594 L 119.53125 98.75 L 121.871094 98.910156 L 124.410156 99 L 130.96875 99 L 132.871094 98.96875 L 134.71875 98.941406 L 136.441406 98.941406 L 138.121094 98.96875 L 139.558594 99.058594 L 141 99.160156 L 142.308594 99.21875 L 143.308594 99.25 L 144 99.28125 L 144.410156 99.308594 L 144.75 99.378906 L 145.03125 99.378906 L 145.28125 99.308594 L 145.558594 99.21875 L 145.941406 99.089844 " transform="matrix(1,0,0,-1,0,183.75)"/>
<path style="fill:none;stroke-width:2.26;stroke-linecap:round;stroke-linejoin:round;stroke:rgb(0%,0%,0%);stroke-opacity:1;stroke-miterlimit:10;" d="M 29.371094 95.71875 L 29.78125 95.628906 L 30.75 95.589844 L 32.121094 95.558594 L 34.28125 95.589844 L 36.78125 95.691406 L 39.5 95.808594 L 42.21875 95.910156 L 44.410156 95.96875 L 46.25 96 L 49.410156 96 L 50.53125 95.96875 L 51.410156 95.910156 L 51.871094 95.871094 L 52.410156 95.839844 L 53.558594 95.839844 L 54.121094 95.871094 L 54.589844 95.910156 L 54.871094 95.941406 L 55.191406 95.96875 L 55.46875 95.941406 " transform="matrix(1,0,0,-1,0,183.75)"/>
<path style="fill:none;stroke-width:2.26;stroke-linecap:round;stroke-linejoin:round;stroke:rgb(0%,0%,0%);stroke-opacity:1;stroke-miterlimit:10;" d="M 29.53125 143.28125 L 30.089844 143.28125 L 30.839844 143.308594 L 32.53125 143.378906 L 34.941406 143.378906 L 37.808594 143.308594 L 40.941406 143.21875 L 43.53125 143.160156 L 45.75 143.160156 L 47.808594 143.25 L 49.410156 143.308594 L 50.871094 143.378906 L 52.25 143.46875 L 53.21875 143.53125 L 54.03125 143.628906 L 54.621094 143.691406 L 54.871094 143.71875 L 55.410156 143.71875 L 55.691406 143.691406 " transform="matrix(1,0,0,-1,0,183.75)"/>
<path style="fill:none;stroke-width:1.41;stroke-linecap:round;stroke-linejoin:round;stroke:rgb(0%,0%,0%);stroke-opacity:1;stroke-miterlimit:10;" d="M 12.808594 149.558594 L 13 149.441406 L 13.160156 148.160156 L 13.339844 146.160156 L 13.5 143.78125 L 13.589844 141.628906 L 13.589844 140.28125 L 13.621094 139.628906 L 13.621094 139.339844 " transform="matrix(1,0,0,-1,0,183.75)"/>
<path style="fill:none;stroke-width:1.41;stroke-linecap:round;stroke-linejoin:round;stroke:rgb(0%,0%,0%);stroke-opacity:1;stroke-miterlimit:10;" d="M 14 143.058594 L 14.089844 143.308594 L 14.910156 143.53125 L 16 143.839844 L 17.191406 144.128906 L 18.121094 144.25 L 18.589844 144.308594 L 18.941406 144.25 " transform="matrix(1,0,0,-1,0,183.75)"/>
<path style="fill:none;stroke-width:1.41;stroke-linecap:round;stroke-linejoin:round;stroke:rgb(0%,0%,0%);stroke-opacity:1;stroke-miterlimit:10;" d="M 19.910156 147.808594 L 19.871094 148.371094 L 20.03125 148.089844 L 20.089844 147.25 L 20.160156 146.03125 L 20.160156 141.191406 L 20.121094 139.878906 L 20.121094 139.128906 " transform="matrix(1,0,0,-1,0,183.75)"/>
<path style="fill:none;stroke-width:1.41;stroke-linecap:round;stroke-linejoin:round;stroke:rgb(0%,0%,0%);stroke-opacity:1;stroke-miterlimit:10;" d="M 13.75 98.75 L 13.691406 98.96875 L 13.691406 98.628906 L 13.808594 97.410156 L 13.96875 95.46875 L 14.121094 93.410156 L 14.160156 91.78125 L 14.121094 90.78125 L 14.058594 90.46875 L 14.03125 90.160156 " transform="matrix(1,0,0,-1,0,183.75)"/>
<path style="fill:none;stroke-width:1.41;stroke-linecap:round;stroke-linejoin:round;stroke:rgb(0%,0%,0%);stroke-opacity:1;stroke-miterlimit:10;" d="M 14.371094 93.5 L 14.621094 93.808594 L 15.121094 94.128906 L 15.96875 94.410156 L 17.058594 94.558594 L 18.339844 94.78125 L 19.5 94.910156 L 20.25 95 L 20.660156 95.089844 L 20.941406 95.128906 " transform="matrix(1,0,0,-1,0,183.75)"/>
<path style="fill:none;stroke-width:1.41;stroke-linecap:round;stroke-linejoin:round;stroke:rgb(0%,0%,0%);stroke-opacity:1;stroke-miterlimit:10;" d="M 22.308594 99.808594 L 22.089844 99.558594 L 22.089844 98.308594 L 22.058594 95.808594 L 22 92.871094 L 22 88.589844 L 22.03125 88.089844 " transform="matrix(1,0,0,-1,0,183.75)"/>
<path style="fill:none;stroke-width:1.41;stroke-linecap:round;stroke-linejoin:round;stroke:rgb(0%,0%,0%);stroke-opacity:1;stroke-miterlimit:10;" d="M 94.96875 146.75 L 95.28125 146.589844 L 95.441406 145.78125 L 95.5 144.160156 L 95.371094 142.058594 L 95.28125 140.308594 L 95.191406 139.128906 L 95.121094 138.660156 L 95.28125 138.941406 " transform="matrix(1,0,0,-1,0,183.75)"/>
<path style="fill:none;stroke-width:1.41;stroke-linecap:round;stroke-linejoin:round;stroke:rgb(0%,0%,0%);stroke-opacity:1;stroke-miterlimit:10;" d="M 96.691406 145.910156 L 96.75 146.441406 L 97.339844 146.808594 L 98.339844 146.96875 L 99.589844 146.839844 L 100.660156 146.21875 L 101.03125 145.410156 L 100.621094 144.53125 L 99.660156 143.839844 L 98.589844 143.441406 L 98.03125 143.25 L 98.5 143 L 99.5 142.46875 L 100.75 141.589844 L 101.339844 140.308594 L 100.910156 138.941406 L 99.808594 137.75 L 98.339844 137.160156 L 97.191406 137.089844 L 96.441406 137.378906 L 96.160156 137.75 " transform="matrix(1,0,0,-1,0,183.75)"/>
<path style="fill:none;stroke-width:1.41;stroke-linecap:round;stroke-linejoin:round;stroke:rgb(0%,0%,0%);stroke-opacity:1;stroke-miterlimit:10;" d="M 97.121094 98.628906 L 96.96875 98.378906 L 96.910156 97.53125 L 96.910156 92.410156 L 96.871094 91.308594 L 96.839844 90.941406 " transform="matrix(1,0,0,-1,0,183.75)"/>
<path style="fill:none;stroke-width:1.41;stroke-linecap:round;stroke-linejoin:round;stroke:rgb(0%,0%,0%);stroke-opacity:1;stroke-miterlimit:10;" d="M 96.96875 99.441406 L 97.25 99.941406 L 97.910156 100.21875 L 98.910156 100.25 L 100.03125 99.75 L 100.71875 98.808594 L 100.75 97.589844 L 100.089844 96.410156 L 99.191406 95.628906 L 98.5 95.410156 L 99.03125 95.558594 L 99.71875 95.5 L 100.371094 95.191406 L 100.78125 94.71875 L 101.160156 94.03125 L 101.410156 93.378906 L 101.558594 92.71875 L 101.5 92.191406 L 101.371094 91.808594 L 101.160156 91.46875 L 100.839844 91.089844 L 100.441406 90.78125 L 100.03125 90.46875 L 99.25 90.378906 L 98.339844 90.410156 L 97.5 90.628906 L 96.808594 90.910156 L 96.589844 91.160156 " transform="matrix(1,0,0,-1,0,183.75)"/>
<path style="fill:none;stroke-width:1.41;stroke-linecap:round;stroke-linejoin:round;stroke:rgb(0%,0%,0%);stroke-opacity:1;stroke-miterlimit:10;" d="M 61.191406 100.058594 L 61.191406 99.089844 L 61.25 97.691406 L 61.308594 95.808594 L 61.339844 93.96875 L 61.339844 92.160156 L 61.21875 92.46875 " transform="matrix(1,0,0,-1,0,183.75)"/>
<path style="fill:none;stroke-width:1.41;stroke-linecap:round;stroke-linejoin:round;stroke:rgb(0%,0%,0%);stroke-opacity:1;stroke-miterlimit:10;" d="M 61.46875 94.46875 L 61.660156 94.78125 L 61.839844 95.03125 L 62.160156 95.25 L 62.589844 95.410156 L 63.191406 95.558594 L 64.160156 95.808594 L 65 96.089844 L 65.660156 96.25 L 66.191406 96.5 " transform="matrix(1,0,0,-1,0,183.75)"/>
<path style="fill:none;stroke-width:1.41;stroke-linecap:round;stroke-linejoin:round;stroke:rgb(0%,0%,0%);stroke-opacity:1;stroke-miterlimit:10;" d="M 66.21875 99.691406 L 66.121094 100.058594 L 66.339844 99.75 L 66.441406 99.191406 L 66.53125 98.191406 L 66.589844 97.160156 L 66.53125 95.558594 L 66.589844 94 L 66.589844 92.910156 L 66.53125 92.058594 " transform="matrix(1,0,0,-1,0,183.75)"/>
<path style="fill:none;stroke-width:1.41;stroke-linecap:round;stroke-linejoin:round;stroke:rgb(0%,0%,0%);stroke-opacity:1;stroke-miterlimit:10;" d="M 62.058594 146.75 L 62.058594 146.441406 L 61.941406 145.160156 L 61.78125 143.410156 L 61.589844 141.5 L 61.441406 140.191406 L 61.339844 139.53125 " transform="matrix(1,0,0,-1,0,183.75)"/>
<path style="fill:none;stroke-width:1.41;stroke-linecap:round;stroke-linejoin:round;stroke:rgb(0%,0%,0%);stroke-opacity:1;stroke-miterlimit:10;" d="M 62.121094 142.089844 L 62.808594 142.589844 L 63.839844 142.941406 L 65 143.21875 L 66.191406 143.378906 L 66.808594 143.339844 L 67.058594 143.410156 " transform="matrix(1,0,0,-1,0,183.75)"/>
<path style="fill:none;stroke-width:1.41;stroke-linecap:round;stroke-linejoin:round;stroke:rgb(0%,0%,0%);stroke-opacity:1;stroke-miterlimit:10;" d="M 67.839844 146.53125 L 67.96875 146.28125 L 68.058594 145.75 L 68.191406 144.808594 L 68.308594 143.589844 L 68.308594 142.558594 L 68.28125 140.71875 L 68.28125 136.628906 " transform="matrix(1,0,0,-1,0,183.75)"/>
<path style="fill:none;stroke-width:2.26;stroke-linecap:round;stroke-linejoin:round;stroke:rgb(0%,0%,0%);stroke-opacity:1;stroke-miterlimit:10;" d="M 30.53125 52.910156 L 30.910156 52.589844 L 31.871094 52.410156 L 33.621094 52.25 L 35.808594 52.191406 L 38.25 52.25 L 41.089844 52.339844 L 43.808594 52.410156 L 46.691406 52.46875 L 49.71875 52.5 L 54.558594 52.5 L 56.660156 52.441406 L 58.941406 52.339844 L 61.441406 52.21875 L 63.839844 52.128906 L 66.308594 52.03125 L 68.441406 51.941406 L 70.589844 51.839844 L 73.191406 51.75 L 75.660156 51.660156 L 78 51.558594 L 80.308594 51.441406 L 82.410156 51.339844 L 84.53125 51.25 L 86.941406 51.191406 L 89.25 51.128906 L 91.53125 51.058594 L 93.75 50.96875 L 95.558594 50.839844 L 97.191406 50.71875 L 98.96875 50.558594 L 100.71875 50.46875 L 102.5 50.378906 L 104.371094 50.28125 L 105.941406 50.21875 L 107.28125 50.21875 L 108.589844 50.339844 L 109.75 50.5 L 110.871094 50.75 L 112.058594 51.128906 L 113.191406 51.558594 L 114.25 52.03125 L 115.28125 52.5 L 116.160156 52.910156 L 117.03125 53.339844 L 117.871094 53.78125 L 118.71875 54.308594 L 119.46875 54.808594 L 120.160156 55.410156 L 120.871094 56.058594 L 121.5 56.628906 L 122.21875 57.25 L 123.058594 57.839844 L 123.96875 58.371094 L 125.058594 58.941406 L 126.21875 59.46875 L 127.371094 59.941406 L 128.78125 60.5 L 130.21875 61.03125 L 131.46875 61.5 L 132.660156 61.910156 L 133.71875 62.191406 L 134.78125 62.441406 L 135.910156 62.691406 L 137.121094 62.808594 L 138.160156 62.871094 L 139.089844 62.910156 L 141.21875 62.910156 L 142.53125 62.941406 L 145.089844 62.941406 L 145.96875 62.910156 L 146.441406 62.871094 L 146.660156 62.808594 L 147.191406 62.71875 L 147.5 62.691406 L 147.75 62.691406 " transform="matrix(1,0,0,-1,0,183.75)"/>
<path style="fill:none;stroke-width:1.41;stroke-linecap:round;stroke-linejoin:round;stroke:rgb(0%,0%,0%);stroke-opacity:1;stroke-miterlimit:10;" d="M 15.21875 58.75 L 15.121094 58.96875 L 15.121094 58.25 L 15.089844 57 L 15.058594 55.46875 L 15.058594 53.628906 L 15.121094 51.878906 L 15.21875 50.5 L 15.28125 49.441406 L 15.21875 48.878906 " transform="matrix(1,0,0,-1,0,183.75)"/>
<path style="fill:none;stroke-width:1.41;stroke-linecap:round;stroke-linejoin:round;stroke:rgb(0%,0%,0%);stroke-opacity:1;stroke-miterlimit:10;" d="M 15.089844 52.308594 L 15 52.558594 L 15.089844 52.78125 L 15.308594 52.941406 L 15.660156 53.03125 L 16.089844 53.160156 L 16.558594 53.25 L 17.058594 53.308594 L 17.839844 53.441406 L 18.621094 53.5 L 19.371094 53.628906 L 20.25 53.71875 L 20.808594 53.839844 L 21.25 53.96875 L 21.558594 54.058594 " transform="matrix(1,0,0,-1,0,183.75)"/>
<path style="fill:none;stroke-width:1.41;stroke-linecap:round;stroke-linejoin:round;stroke:rgb(0%,0%,0%);stroke-opacity:1;stroke-miterlimit:10;" d="M 21.78125 58 L 21.71875 57.691406 L 21.71875 56.71875 L 21.691406 54.808594 L 21.660156 52.53125 L 21.558594 50.28125 L 21.46875 48.53125 L 21.46875 47.660156 " transform="matrix(1,0,0,-1,0,183.75)"/>
<path style="fill:none;stroke-width:2.26;stroke-linecap:round;stroke-linejoin:round;stroke:rgb(19.999695%,19.999695%,79.998779%);stroke-opacity:1;stroke-miterlimit:10;" d="M 214.558594 110.308594 L 216.28125 110.339844 L 219.058594 110.339844 L 222.121094 110.28125 L 225.28125 110.191406 L 227.660156 110.058594 L 228.96875 110.03125 L 229.910156 110.03125 L 230.589844 110.089844 L 230.878906 110.089844 L 231.160156 110.058594 " transform="matrix(1,0,0,-1,0,183.75)"/>
<path style="fill:none;stroke-width:2.26;stroke-linecap:round;stroke-linejoin:round;stroke:rgb(19.999695%,19.999695%,79.998779%);stroke-opacity:1;stroke-miterlimit:10;" d="M 214.910156 104.53125 L 215.75 104.339844 L 217.46875 104.160156 L 220.121094 104.03125 L 223.25 104.121094 L 225.941406 104.28125 L 227.941406 104.441406 L 229.28125 104.53125 L 229.878906 104.558594 L 230.28125 104.589844 L 230.71875 104.558594 L 231 104.5 " transform="matrix(1,0,0,-1,0,183.75)"/>
<path style="fill:none;stroke-width:2.26;stroke-linecap:round;stroke-linejoin:round;stroke:rgb(19.999695%,19.999695%,79.998779%);stroke-opacity:1;stroke-miterlimit:10;" d="M 213.878906 97.21875 L 214.28125 97.160156 L 216 97.25 L 218.691406 97.339844 L 222.160156 97.410156 L 225.878906 97.5 L 228.589844 97.558594 L 230.378906 97.628906 L 231.339844 97.71875 L 231.660156 97.75 " transform="matrix(1,0,0,-1,0,183.75)"/>
<path style="fill:none;stroke-width:1.41;stroke-linecap:round;stroke-linejoin:round;stroke:rgb(0%,0%,0%);stroke-opacity:1;stroke-miterlimit:10;" d="M 92.03125 19.058594 L 92.058594 18.691406 L 92 17.121094 L 91.839844 14.46875 L 91.71875 11.371094 L 91.53125 8.871094 L 91.371094 7.308594 L 91.308594 6.871094 L 91.21875 7.191406 " transform="matrix(1,0,0,-1,0,183.75)"/>
<path style="fill:none;stroke-width:1.41;stroke-linecap:round;stroke-linejoin:round;stroke:rgb(0%,0%,0%);stroke-opacity:1;stroke-miterlimit:10;" d="M 92.308594 18.089844 L 92.160156 18.589844 L 92.308594 19.160156 L 93 19.628906 L 94 19.78125 L 95.28125 19.660156 L 96.5 18.78125 L 97.21875 17.5 L 97.25 16.191406 L 96.378906 15.03125 L 95.03125 14.441406 L 93.75 14.160156 L 92.71875 14.191406 L 92.28125 14.308594 L 92.28125 14.691406 " transform="matrix(1,0,0,-1,0,183.75)"/>
<path style="fill:none;stroke-width:1.41;stroke-linecap:round;stroke-linejoin:round;stroke:rgb(0%,0%,0%);stroke-opacity:1;stroke-miterlimit:10;" d="M 106.78125 26.691406 L 106.941406 26.5 L 106.621094 26.371094 L 105.941406 26.5 L 104.96875 26.71875 L 104.121094 27 L 103.410156 27.21875 L 103.03125 27.089844 L 102.96875 26.339844 L 102.910156 24.691406 L 103.03125 21.660156 L 103.089844 18.089844 L 103.089844 14.558594 L 102.96875 11.660156 L 102.839844 10.089844 L 102.910156 9.371094 L 103.441406 9.089844 L 104.191406 9.058594 L 105.03125 9.089844 L 105.71875 9.128906 L 106.03125 9.191406 L 106.25 9.308594 " transform="matrix(1,0,0,-1,0,183.75)"/>
<path style="fill:none;stroke-width:1.41;stroke-linecap:round;stroke-linejoin:round;stroke:rgb(0%,0%,0%);stroke-opacity:1;stroke-miterlimit:10;" d="M 109.5 12.371094 L 109.621094 13.128906 L 110.21875 14.410156 L 111.03125 16.46875 L 111.96875 18.871094 L 112.839844 21.191406 L 113.5 22.78125 L 114 23.46875 L 114.441406 23.160156 L 115 21.53125 L 115.558594 18.910156 L 116.089844 15.941406 L 116.621094 13.191406 L 116.96875 11.53125 L 117.160156 10.808594 L 116.941406 10.96875 " transform="matrix(1,0,0,-1,0,183.75)"/>
<path style="fill:none;stroke-width:1.41;stroke-linecap:round;stroke-linejoin:round;stroke:rgb(0%,0%,0%);stroke-opacity:1;stroke-miterlimit:10;" d="M 112.089844 16.371094 L 111.839844 16.5 L 112.839844 16.371094 L 114.03125 16.28125 L 115.21875 16.191406 L 116.160156 16.160156 L 116.441406 16.191406 " transform="matrix(1,0,0,-1,0,183.75)"/>
<path style="fill:none;stroke-width:1.41;stroke-linecap:round;stroke-linejoin:round;stroke:rgb(0%,0%,0%);stroke-opacity:1;stroke-miterlimit:10;" d="M 121.121094 18.691406 L 121.691406 18.371094 L 122.660156 18.191406 L 124.058594 18 L 125.410156 17.910156 L 126.46875 17.839844 L 127.121094 17.839844 " transform="matrix(1,0,0,-1,0,183.75)"/>
<path style="fill:none;stroke-width:1.41;stroke-linecap:round;stroke-linejoin:round;stroke:rgb(0%,0%,0%);stroke-opacity:1;stroke-miterlimit:10;" d="M 122.28125 15.808594 L 122.808594 15.589844 L 124.878906 15.589844 L 126 15.46875 L 126.75 15.308594 L 127.089844 15.160156 L 127.339844 15.128906 " transform="matrix(1,0,0,-1,0,183.75)"/>
<path style="fill:none;stroke-width:1.41;stroke-linecap:round;stroke-linejoin:round;stroke:rgb(0%,0%,0%);stroke-opacity:1;stroke-miterlimit:10;" d="M 137.21875 17.871094 L 137.410156 18.089844 L 137.46875 18.410156 L 137.410156 18.941406 L 137.121094 19.71875 L 136.410156 20.410156 L 135.410156 20.46875 L 134.21875 19.78125 L 133.28125 18.371094 L 132.941406 16.71875 L 133.410156 15.308594 L 134.589844 14.660156 L 136.058594 15.03125 L 137.339844 16.191406 L 138.28125 17.71875 L 138.660156 18.839844 L 138.46875 17.28125 L 138.121094 14.160156 L 137.691406 10.46875 L 137.308594 7.03125 L 137.121094 4.71875 L 137.191406 3.558594 L 137.339844 3 L 137.621094 2.660156 L 138.21875 2.589844 L 138.871094 2.71875 L 139.589844 2.96875 L 140.28125 3.308594 L 140.71875 3.621094 L 141.058594 3.96875 L 141.410156 4.5 L 141.660156 5.410156 L 141.621094 6.46875 L 141 7.75 L 140.058594 8.910156 L 139 9.75 L 138.621094 10.589844 L 139.21875 11.28125 L 140.308594 11.96875 L 141.53125 12.71875 L 142.308594 13.21875 L 142.589844 13.53125 L 142.46875 13.941406 " transform="matrix(1,0,0,-1,0,183.75)"/>
<path style="fill:none;stroke-width:1.41;stroke-linecap:round;stroke-linejoin:round;stroke:rgb(0%,0%,0%);stroke-opacity:1;stroke-miterlimit:10;" d="M 148.25 25.53125 L 148.121094 25.308594 L 147.589844 25.191406 L 146.78125 25.089844 L 146.089844 25.03125 L 145.589844 25.058594 L 145.410156 24.589844 L 145.53125 23.371094 L 145.621094 21.339844 L 145.660156 18.441406 L 145.589844 15.808594 L 145.46875 13.78125 L 145.378906 12.5 L 145.46875 12 L 145.691406 11.75 L 146.03125 11.558594 L 146.5 11.46875 L 147.03125 11.410156 L 147.78125 11.371094 L 148.78125 11.441406 L 149.75 11.53125 L 150.53125 11.628906 L 150.96875 11.691406 L 150.691406 11.839844 " transform="matrix(1,0,0,-1,0,183.75)"/>
<path style="fill:none;stroke-width:1.41;stroke-linecap:round;stroke-linejoin:round;stroke:rgb(0%,0%,0%);stroke-opacity:1;stroke-miterlimit:10;" d="M 152.78125 22.808594 L 152.878906 21.75 L 152.941406 20.5 L 153 18.941406 L 152.941406 17.558594 L 152.808594 16.308594 L 152.660156 15.25 L 152.53125 14.410156 L 152.410156 13.808594 " transform="matrix(1,0,0,-1,0,183.75)"/>
<path style="fill:none;stroke-width:1.41;stroke-linecap:round;stroke-linejoin:round;stroke:rgb(0%,0%,0%);stroke-opacity:1;stroke-miterlimit:10;" d="M 152.621094 16.160156 L 153.21875 16.660156 L 154.21875 17.03125 L 155.46875 17.28125 L 156.691406 17.46875 L 157.5 17.558594 L 157.941406 17.808594 L 158.089844 18.160156 L 158.160156 18.46875 " transform="matrix(1,0,0,-1,0,183.75)"/>
<path style="fill:none;stroke-width:1.41;stroke-linecap:round;stroke-linejoin:round;stroke:rgb(0%,0%,0%);stroke-opacity:1;stroke-miterlimit:10;" d="M 158.96875 23.558594 L 159.03125 22.71875 L 159.058594 21.160156 L 159.03125 18.46875 L 158.910156 15.71875 L 158.808594 13.441406 L 158.878906 12.191406 " transform="matrix(1,0,0,-1,0,183.75)"/>
<path style="fill:none;stroke-width:1.41;stroke-linecap:round;stroke-linejoin:round;stroke:rgb(0%,0%,0%);stroke-opacity:1;stroke-miterlimit:10;" d="M 163.691406 18.71875 L 164.410156 18.839844 L 165.441406 18.808594 L 166.71875 18.839844 L 167.941406 18.839844 L 168.53125 18.941406 L 168.96875 19 " transform="matrix(1,0,0,-1,0,183.75)"/>
<path style="fill:none;stroke-width:1.41;stroke-linecap:round;stroke-linejoin:round;stroke:rgb(0%,0%,0%);stroke-opacity:1;stroke-miterlimit:10;" d="M 164.121094 16.839844 L 163.839844 16.71875 L 163.78125 16.46875 L 164.308594 16.28125 L 165.03125 16.21875 L 166.03125 16.160156 L 167.121094 16.160156 L 167.96875 16.191406 L 168.621094 16.21875 L 169 16.25 " transform="matrix(1,0,0,-1,0,183.75)"/>
<path style="fill:none;stroke-width:1.41;stroke-linecap:round;stroke-linejoin:round;stroke:rgb(0%,0%,0%);stroke-opacity:1;stroke-miterlimit:10;" d="M 177.558594 24.71875 L 177.808594 24.410156 L 177.660156 23.589844 L 177 22.28125 L 175.589844 20.660156 L 173.941406 19 L 172.53125 17.75 L 172.121094 16.78125 L 172.621094 16.25 L 173.78125 15.660156 L 175.25 14.871094 L 176.308594 14 L 177.21875 13.21875 L 177.75 12.621094 L 177.839844 12.371094 " transform="matrix(1,0,0,-1,0,183.75)"/>
<path style="fill:none;stroke-width:1.41;stroke-linecap:round;stroke-linejoin:round;stroke:rgb(0%,0%,0%);stroke-opacity:1;stroke-miterlimit:10;" d="M 180.121094 21.441406 L 179.96875 20.339844 L 179.941406 19.058594 L 179.839844 17 L 179.75 15.128906 L 179.660156 13.871094 L 179.558594 13.191406 " transform="matrix(1,0,0,-1,0,183.75)"/>
<path style="fill:none;stroke-width:1.41;stroke-linecap:round;stroke-linejoin:round;stroke:rgb(0%,0%,0%);stroke-opacity:1;stroke-miterlimit:10;" d="M 179.691406 16 L 180.089844 16.339844 L 181.089844 16.558594 L 182.441406 16.78125 L 183.808594 16.941406 L 184.839844 17.03125 L 185.339844 17.25 " transform="matrix(1,0,0,-1,0,183.75)"/>
<path style="fill:none;stroke-width:1.41;stroke-linecap:round;stroke-linejoin:round;stroke:rgb(0%,0%,0%);stroke-opacity:1;stroke-miterlimit:10;" d="M 185.878906 21.28125 L 185.808594 20.871094 L 185.808594 20.191406 L 185.78125 19.410156 L 185.691406 17.910156 L 185.558594 15.941406 L 185.441406 14.160156 L 185.308594 12.589844 L 185.21875 11.839844 L 185.441406 12.160156 " transform="matrix(1,0,0,-1,0,183.75)"/>
<path style="fill:none;stroke-width:1.41;stroke-linecap:round;stroke-linejoin:round;stroke:rgb(0%,0%,0%);stroke-opacity:1;stroke-miterlimit:10;" d="M 188.441406 23.089844 L 188.28125 23.410156 L 188.621094 23.410156 L 189 23.121094 L 189.71875 22.441406 L 190.808594 21.441406 L 192.058594 20.410156 L 193.308594 19.441406 L 194.058594 18.621094 L 194.058594 17.871094 L 193.378906 16.839844 L 192.058594 15.46875 L 190.75 14.28125 L 189.75 13.410156 L 189.21875 12.941406 " transform="matrix(1,0,0,-1,0,183.75)"/>
<path style="fill:none;stroke-width:1.41;stroke-linecap:round;stroke-linejoin:round;stroke:rgb(0%,0%,0%);stroke-opacity:1;stroke-miterlimit:10;" d="M 194.589844 25.160156 L 194.78125 25.308594 L 195.53125 25.371094 L 196.691406 25.46875 L 198 25.46875 L 199 25.371094 L 199.53125 25.089844 L 199.71875 24.691406 L 199.78125 24.128906 L 199.78125 23.46875 L 199.75 22.660156 L 199.691406 21.371094 L 199.53125 19.371094 L 199.410156 17 L 199.28125 14.558594 L 199.121094 12.75 L 198.78125 11.808594 L 198.21875 11.558594 L 197.53125 11.660156 L 196.878906 11.839844 L 196.378906 12.089844 " transform="matrix(1,0,0,-1,0,183.75)"/>
<path style="fill:none;stroke-width:1.41;stroke-linecap:round;stroke-linejoin:round;stroke:rgb(0%,0%,0%);stroke-opacity:1;stroke-miterlimit:10;" d="M 204.058594 19.441406 L 204.160156 19.691406 L 204.121094 20.089844 L 204.339844 20.339844 L 204.78125 20.410156 L 205.21875 20.191406 L 205.339844 19.808594 L 205.089844 19.589844 L 204.71875 19.691406 L 204.621094 20.121094 L 204.839844 20.589844 L 205.28125 20.839844 L 205.691406 20.78125 L 205.878906 20.53125 L 205.910156 20.160156 " transform="matrix(1,0,0,-1,0,183.75)"/>
<path style="fill:none;stroke-width:1.41;stroke-linecap:round;stroke-linejoin:round;stroke:rgb(0%,0%,0%);stroke-opacity:1;stroke-miterlimit:10;" d="M 205.46875 14.71875 L 205.78125 14.839844 L 205.5 15.089844 L 205.691406 15.28125 L 205.71875 14.941406 L 205.558594 14.628906 L 205.191406 14.410156 L 204.871094 14.5 L 204.71875 14.71875 L 204.910156 14.871094 " transform="matrix(1,0,0,-1,0,183.75)"/>
<path style="fill:none;stroke-width:1.41;stroke-linecap:round;stroke-linejoin:round;stroke:rgb(0%,0%,0%);stroke-opacity:1;stroke-miterlimit:10;" d="M 210.441406 12.941406 L 210.191406 12.5 L 210 12.191406 L 209.878906 11.96875 L 209.941406 12.371094 L 210.378906 13.75 L 211.121094 15.941406 L 212.03125 18.71875 L 213.03125 21.75 L 213.78125 23.410156 L 214.46875 23.558594 L 215.21875 21.808594 L 216 19.058594 L 216.691406 16.128906 L 217.21875 13.75 L 217.441406 12.558594 L 217.46875 12.191406 " transform="matrix(1,0,0,-1,0,183.75)"/>
<path style="fill:none;stroke-width:1.41;stroke-linecap:round;stroke-linejoin:round;stroke:rgb(0%,0%,0%);stroke-opacity:1;stroke-miterlimit:10;" d="M 211.691406 15.441406 L 211.378906 15.558594 L 211.558594 15.78125 L 212.21875 15.96875 L 213.121094 16.128906 L 214.5 16.339844 L 215.5 16.46875 L 216.21875 16.628906 L 216.78125 16.78125 " transform="matrix(1,0,0,-1,0,183.75)"/>
<path style="fill:none;stroke-width:1.41;stroke-linecap:round;stroke-linejoin:round;stroke:rgb(0%,0%,0%);stroke-opacity:1;stroke-miterlimit:10;" d="M 223.28125 13.339844 L 223.660156 12.941406 L 224.191406 12.558594 L 224.75 12.058594 L 225.121094 11.558594 L 225.339844 11.089844 L 225.28125 10.308594 L 225.089844 9.589844 L 224.71875 8.941406 L 224.25 8.371094 L 224 8.339844 " transform="matrix(1,0,0,-1,0,183.75)"/>
<path style="fill:none;stroke-width:1.41;stroke-linecap:round;stroke-linejoin:round;stroke:rgb(0%,0%,0%);stroke-opacity:1;stroke-miterlimit:10;" d="M 233.058594 21.660156 L 233.058594 21.128906 L 233.089844 20.28125 L 233.121094 18.589844 L 233 16.691406 L 232.839844 14.96875 L 232.660156 13.308594 L 232.441406 12.160156 L 232.28125 11.46875 " transform="matrix(1,0,0,-1,0,183.75)"/>
<path style="fill:none;stroke-width:1.41;stroke-linecap:round;stroke-linejoin:round;stroke:rgb(0%,0%,0%);stroke-opacity:1;stroke-miterlimit:10;" d="M 233.25 21.5 L 233.878906 22.558594 L 235.25 23.339844 L 236.941406 23.589844 L 238.46875 23.160156 L 239.5 22.410156 L 239.878906 21.589844 L 239.78125 20.808594 L 239.441406 19.941406 L 238.941406 19.160156 L 238.308594 18.46875 L 237.308594 18.03125 L 236.441406 17.871094 L 236.058594 17.839844 L 237.03125 17.371094 L 238.03125 16.871094 L 238.878906 15.78125 L 239.28125 14.339844 L 239.03125 12.75 L 238.191406 11.160156 L 236.691406 10.371094 L 234.96875 10.339844 L 233.621094 10.839844 L 232.878906 11.691406 L 232.71875 12.5 " transform="matrix(1,0,0,-1,0,183.75)"/>
<path style="fill:none;stroke-width:1.41;stroke-linecap:round;stroke-linejoin:round;stroke:rgb(0%,0%,0%);stroke-opacity:1;stroke-miterlimit:10;" d="M 244.089844 17.25 L 244.378906 17.410156 L 245.21875 17.53125 L 246.53125 17.558594 L 247.71875 17.53125 L 248.441406 17.5 " transform="matrix(1,0,0,-1,0,183.75)"/>
<path style="fill:none;stroke-width:1.41;stroke-linecap:round;stroke-linejoin:round;stroke:rgb(0%,0%,0%);stroke-opacity:1;stroke-miterlimit:10;" d="M 244.410156 15.371094 L 244.21875 15.128906 L 244.53125 15 L 245.191406 14.96875 L 246.378906 15.128906 L 247.53125 15.28125 L 248.410156 15.339844 L 249.058594 15.410156 L 249.378906 15.410156 " transform="matrix(1,0,0,-1,0,183.75)"/>
<path style="fill:none;stroke-width:1.41;stroke-linecap:round;stroke-linejoin:round;stroke:rgb(0%,0%,0%);stroke-opacity:1;stroke-miterlimit:10;" d="M 257.941406 18.691406 L 257.839844 19.28125 L 257.53125 19.808594 L 256.878906 20.191406 L 255.808594 20 L 254.78125 19.058594 L 254.121094 17.558594 L 254.21875 15.96875 L 255.058594 15.128906 L 256.308594 15.25 L 257.53125 16.089844 L 258.308594 17.058594 L 258.660156 17.160156 L 258.441406 15.371094 L 257.941406 12.53125 L 257.441406 9.5 L 257.058594 6.5 L 257.25 4.96875 L 257.808594 4.441406 L 258.558594 4.28125 L 259.5 4.910156 L 260.25 5.660156 L 260.660156 6.371094 L 260.808594 7.03125 L 260.558594 7.558594 L 260.058594 7.941406 L 259.53125 8.28125 L 259 8.589844 L 258.5 8.910156 L 258.058594 9.191406 L 257.78125 9.371094 L 257.71875 9.75 L 258.25 10.308594 L 259.441406 11.21875 L 260.691406 12.25 L 261.808594 13.058594 L 262.5 13.589844 " transform="matrix(1,0,0,-1,0,183.75)"/>
<path style="fill:none;stroke-width:1.41;stroke-linecap:round;stroke-linejoin:round;stroke:rgb(0%,0%,0%);stroke-opacity:1;stroke-miterlimit:10;" d="M 266.941406 25.589844 L 266.160156 25.558594 L 265.339844 25.53125 L 264.441406 25.46875 L 263.839844 25.058594 L 263.621094 23.910156 L 263.660156 22.03125 L 263.78125 19.839844 L 263.941406 17 L 264.058594 14.71875 L 264.160156 13.191406 L 264.308594 11.96875 L 264.621094 11.71875 L 265.25 11.691406 L 265.941406 11.691406 L 266.558594 11.71875 L 267.03125 11.808594 L 267.160156 12.058594 L 267.160156 12.53125 " transform="matrix(1,0,0,-1,0,183.75)"/>
<path style="fill:none;stroke-width:1.41;stroke-linecap:round;stroke-linejoin:round;stroke:rgb(0%,0%,0%);stroke-opacity:1;stroke-miterlimit:10;" d="M 269.910156 23.371094 L 269.808594 22.71875 L 269.71875 21.441406 L 269.660156 19.75 L 269.558594 17.75 L 269.441406 16.191406 L 269.339844 15.160156 L 269.28125 14.410156 " transform="matrix(1,0,0,-1,0,183.75)"/>
<path style="fill:none;stroke-width:1.41;stroke-linecap:round;stroke-linejoin:round;stroke:rgb(0%,0%,0%);stroke-opacity:1;stroke-miterlimit:10;" d="M 269.589844 17.75 L 269.910156 18.03125 L 270.53125 18.21875 L 271.21875 18.371094 L 272.910156 18.371094 L 273.621094 18.410156 L 274.191406 18.410156 L 274.71875 18.441406 " transform="matrix(1,0,0,-1,0,183.75)"/>
<path style="fill:none;stroke-width:1.41;stroke-linecap:round;stroke-linejoin:round;stroke:rgb(0%,0%,0%);stroke-opacity:1;stroke-miterlimit:10;" d="M 275.121094 22.660156 L 275.121094 23 L 275.089844 22.46875 L 275.089844 15.128906 L 275.121094 13.5 " transform="matrix(1,0,0,-1,0,183.75)"/>
<path style="fill:none;stroke-width:1.41;stroke-linecap:round;stroke-linejoin:round;stroke:rgb(0%,0%,0%);stroke-opacity:1;stroke-miterlimit:10;" d="M 279.21875 18.441406 L 279.5 18.691406 L 279.96875 18.71875 L 280.621094 18.71875 L 281.25 18.691406 L 281.871094 18.621094 L 282.308594 18.558594 L 282.621094 18.53125 " transform="matrix(1,0,0,-1,0,183.75)"/>
<path style="fill:none;stroke-width:1.41;stroke-linecap:round;stroke-linejoin:round;stroke:rgb(0%,0%,0%);stroke-opacity:1;stroke-miterlimit:10;" d="M 278.808594 16.371094 L 278.589844 16.308594 L 279.089844 16.410156 L 279.660156 16.5 L 280.441406 16.589844 L 281.308594 16.660156 L 281.871094 16.660156 L 282.308594 16.628906 L 282.660156 16.53125 " transform="matrix(1,0,0,-1,0,183.75)"/>
<path style="fill:none;stroke-width:1.41;stroke-linecap:round;stroke-linejoin:round;stroke:rgb(0%,0%,0%);stroke-opacity:1;stroke-miterlimit:10;" d="M 292.839844 25.21875 L 292.441406 24.910156 L 291.621094 24.128906 L 290.03125 22.691406 L 288.21875 21 L 286.589844 19.589844 L 285.71875 18.441406 L 285.78125 17.871094 L 286.410156 17.558594 L 287.839844 16.839844 L 289.25 16.03125 L 290.71875 15.28125 L 292.03125 14.75 L 292.621094 14.691406 L 292.691406 15.128906 " transform="matrix(1,0,0,-1,0,183.75)"/>
<path style="fill:none;stroke-width:1.41;stroke-linecap:round;stroke-linejoin:round;stroke:rgb(0%,0%,0%);stroke-opacity:1;stroke-miterlimit:10;" d="M 295.089844 22.871094 L 295.28125 22.03125 L 295.308594 20.96875 L 295.28125 18.941406 L 295.21875 16.941406 L 295.089844 15.25 L 294.96875 14.03125 " transform="matrix(1,0,0,-1,0,183.75)"/>
<path style="fill:none;stroke-width:1.41;stroke-linecap:round;stroke-linejoin:round;stroke:rgb(0%,0%,0%);stroke-opacity:1;stroke-miterlimit:10;" d="M 295.308594 17.410156 L 295.78125 18.128906 L 296.53125 18.53125 L 297.378906 18.78125 L 298.21875 18.808594 L 298.75 18.910156 " transform="matrix(1,0,0,-1,0,183.75)"/>
<path style="fill:none;stroke-width:1.41;stroke-linecap:round;stroke-linejoin:round;stroke:rgb(0%,0%,0%);stroke-opacity:1;stroke-miterlimit:10;" d="M 300.21875 22.96875 L 300 23.058594 L 299.910156 22.71875 L 299.96875 21.058594 L 300.03125 18.71875 L 300.121094 16.371094 L 300.160156 14.308594 L 300.410156 13.78125 " transform="matrix(1,0,0,-1,0,183.75)"/>
<path style="fill:none;stroke-width:1.41;stroke-linecap:round;stroke-linejoin:round;stroke:rgb(0%,0%,0%);stroke-opacity:1;stroke-miterlimit:10;" d="M 304 24.160156 L 304.558594 23.28125 L 305.46875 22.339844 L 306.5 21.371094 L 307.5 20.589844 L 307.941406 20.191406 L 307.941406 19.691406 L 307.28125 18.691406 L 306.21875 17.371094 L 305.191406 16.128906 L 304.339844 15.160156 L 303.96875 14.75 " transform="matrix(1,0,0,-1,0,183.75)"/>
<path style="fill:none;stroke-width:1.41;stroke-linecap:round;stroke-linejoin:round;stroke:rgb(0%,0%,0%);stroke-opacity:1;stroke-miterlimit:10;" d="M 308.339844 25.808594 L 308.691406 25.78125 L 309.621094 25.71875 L 311 25.628906 L 312.339844 25.589844 L 313.308594 25.628906 L 313.910156 25.660156 L 314.160156 25.46875 L 314.378906 24.53125 L 314.441406 22.808594 L 314.441406 20.371094 L 314.378906 17.71875 L 314.339844 15.71875 L 314.21875 14.46875 L 313.621094 13.71875 L 312.96875 13.441406 L 312.28125 13.21875 L 311.5 13.191406 " transform="matrix(1,0,0,-1,0,183.75)"/>
<path style="fill:none;stroke-width:1.41;stroke-linecap:round;stroke-linejoin:round;stroke:rgb(0%,0%,0%);stroke-opacity:1;stroke-miterlimit:10;" d="M 320.121094 22.25 L 319.878906 22.46875 L 320 22.808594 L 320.03125 22.46875 L 319.691406 22.339844 L 319.878906 22.191406 L 319.621094 22.191406 " transform="matrix(1,0,0,-1,0,183.75)"/>
<path style="fill:none;stroke-width:1.41;stroke-linecap:round;stroke-linejoin:round;stroke:rgb(0%,0%,0%);stroke-opacity:1;stroke-miterlimit:10;" d="M 319.878906 16.25 L 319.691406 16.128906 L 320.21875 16.128906 L 320.691406 16 L 320.410156 15.910156 L 320.03125 15.96875 L 319.75 16.160156 L 319.621094 16.339844 L 319.339844 16.058594 L 319.089844 16.089844 L 319.21875 16.339844 L 319.558594 16.558594 L 320.058594 16.75 " transform="matrix(1,0,0,-1,0,183.75)"/>
<path style="fill:none;stroke-width:1.41;stroke-linecap:round;stroke-linejoin:round;stroke:rgb(0%,0%,0%);stroke-opacity:1;stroke-miterlimit:10;" d="M 323.621094 22.628906 L 323.53125 22.871094 L 323.589844 23.089844 L 323.941406 23.089844 L 324.160156 22.25 L 324.21875 20.339844 L 324.25 18.03125 L 324.21875 16 L 324.121094 14.589844 L 324.089844 14.191406 " transform="matrix(1,0,0,-1,0,183.75)"/>
<path style="fill:none;stroke-width:1.41;stroke-linecap:round;stroke-linejoin:round;stroke:rgb(0%,0%,0%);stroke-opacity:1;stroke-miterlimit:10;" d="M 324.28125 21.558594 L 324.53125 22.53125 L 325.339844 23.339844 L 326.621094 23.839844 L 328.058594 23.558594 L 329.058594 22.691406 L 329.03125 21.558594 L 328.191406 20.53125 L 327.03125 19.839844 L 326.339844 19.589844 L 326.558594 19.5 L 327.808594 19.128906 L 329.308594 18.371094 L 330.410156 17.058594 L 330.589844 15.410156 L 329.691406 14.03125 L 328.25 13.191406 L 326.660156 12.941406 L 325.558594 13.191406 L 324.878906 13.558594 L 324.558594 13.941406 " transform="matrix(1,0,0,-1,0,183.75)"/>
<path style="fill:none;stroke-width:1.41;stroke-linecap:round;stroke-linejoin:round;stroke:rgb(0%,0%,0%);stroke-opacity:1;stroke-miterlimit:10;" d="M 336.621094 14.558594 L 336.878906 14.660156 L 336.621094 14.558594 L 336.339844 14.75 L 336.660156 14.628906 L 336.378906 14.441406 L 336.121094 14.589844 L 336.121094 14.941406 L 336.5 15.160156 L 336.941406 15.21875 L 337.589844 14.910156 L 338.058594 14.25 L 338.339844 13.339844 L 338.339844 12.28125 L 338.089844 11.5 L 337.660156 10.96875 L 337.25 10.71875 L 336.941406 10.691406 " transform="matrix(1,0,0,-1,0,183.75)"/>
<path style="fill:none;stroke-width:1.41;stroke-linecap:round;stroke-linejoin:round;stroke:rgb(0%,0%,0%);stroke-opacity:1;stroke-miterlimit:10;" d="M 343.339844 24.089844 L 343.558594 23.308594 L 343.589844 21.660156 L 343.660156 19.441406 L 343.558594 17.03125 L 343.410156 15.160156 L 343.308594 14.21875 L 343.308594 13.871094 L 343.25 14.089844 L 343.191406 14.410156 " transform="matrix(1,0,0,-1,0,183.75)"/>
<path style="fill:none;stroke-width:1.41;stroke-linecap:round;stroke-linejoin:round;stroke:rgb(0%,0%,0%);stroke-opacity:1;stroke-miterlimit:10;" d="M 343.058594 17.410156 L 343.308594 17.941406 L 344.089844 18.28125 L 345.53125 18.589844 L 347 18.871094 L 348.339844 19.089844 L 349.191406 19.28125 L 349.441406 19.339844 L 349.589844 19.691406 " transform="matrix(1,0,0,-1,0,183.75)"/>
<path style="fill:none;stroke-width:1.41;stroke-linecap:round;stroke-linejoin:round;stroke:rgb(0%,0%,0%);stroke-opacity:1;stroke-miterlimit:10;" d="M 349.839844 23.308594 L 349.839844 23.589844 L 350 23.160156 L 350.089844 21.691406 L 350.121094 19.871094 L 350.058594 17.691406 L 349.910156 15.71875 L 349.78125 14.558594 L 349.660156 13.558594 L 349.660156 13.191406 " transform="matrix(1,0,0,-1,0,183.75)"/>
<path style="fill:none;stroke-width:1.41;stroke-linecap:round;stroke-linejoin:round;stroke:rgb(0%,0%,0%);stroke-opacity:1;stroke-miterlimit:10;" d="M 355.589844 19.128906 L 356.441406 19.160156 L 357.308594 19.128906 L 358.25 19.128906 L 358.96875 19.160156 L 359.308594 19.191406 L 359.589844 19.191406 " transform="matrix(1,0,0,-1,0,183.75)"/>
<path style="fill:none;stroke-width:1.41;stroke-linecap:round;stroke-linejoin:round;stroke:rgb(0%,0%,0%);stroke-opacity:1;stroke-miterlimit:10;" d="M 356.46875 17.96875 L 356.089844 17.839844 L 356.21875 17.558594 L 356.78125 17.339844 L 357.558594 17.191406 L 358.53125 17.058594 L 359.191406 17.160156 L 359.691406 17.25 L 360.03125 17.308594 " transform="matrix(1,0,0,-1,0,183.75)"/>
<path style="fill:none;stroke-width:1.41;stroke-linecap:round;stroke-linejoin:round;stroke:rgb(0%,0%,0%);stroke-opacity:1;stroke-miterlimit:10;" d="M 368.78125 23.660156 L 369 23.808594 L 368.589844 23.089844 L 367.558594 21.839844 L 366.089844 20.191406 L 364.558594 18.371094 L 363.71875 17.191406 L 363.589844 16.5 L 364.25 15.808594 L 365.5 14.96875 L 366.71875 14.160156 L 367.839844 13.5 L 368.558594 13.191406 L 368.78125 13.25 L 368.910156 13.53125 " transform="matrix(1,0,0,-1,0,183.75)"/>
<path style="fill:none;stroke-width:1.41;stroke-linecap:round;stroke-linejoin:round;stroke:rgb(0%,0%,0%);stroke-opacity:1;stroke-miterlimit:10;" d="M 372.589844 21.5 L 372.660156 21.160156 L 372.71875 20.46875 L 372.691406 19.089844 L 372.46875 17.191406 L 372.160156 15.339844 L 371.75 13.660156 L 371.441406 12.839844 " transform="matrix(1,0,0,-1,0,183.75)"/>
<path style="fill:none;stroke-width:1.41;stroke-linecap:round;stroke-linejoin:round;stroke:rgb(0%,0%,0%);stroke-opacity:1;stroke-miterlimit:10;" d="M 372.121094 15.839844 L 372.5 16.21875 L 372.878906 16.5 L 373.308594 16.660156 L 373.808594 16.71875 L 374.558594 16.75 L 375.441406 16.808594 L 376.371094 16.941406 L 377.21875 17.121094 " transform="matrix(1,0,0,-1,0,183.75)"/>
<path style="fill:none;stroke-width:1.41;stroke-linecap:round;stroke-linejoin:round;stroke:rgb(0%,0%,0%);stroke-opacity:1;stroke-miterlimit:10;" d="M 378.089844 21.53125 L 378.160156 20.339844 L 378.089844 18.191406 L 378.03125 15.441406 L 377.910156 13.21875 L 377.78125 11.839844 L 377.75 11.5 " transform="matrix(1,0,0,-1,0,183.75)"/>
<path style="fill:none;stroke-width:1.41;stroke-linecap:round;stroke-linejoin:round;stroke:rgb(0%,0%,0%);stroke-opacity:1;stroke-miterlimit:10;" d="M 382.75 22.78125 L 382.5 22.808594 L 382.839844 22.21875 L 383.25 21.78125 L 383.691406 21.371094 L 384.558594 20.808594 L 385.308594 20.410156 L 385.941406 19.871094 L 386.191406 19.128906 L 385.691406 17.96875 L 384.589844 16.21875 L 383.378906 14.5 L 382.441406 13.058594 L 381.910156 12.308594 " transform="matrix(1,0,0,-1,0,183.75)"/>
<path style="fill:none;stroke-width:1.41;stroke-linecap:round;stroke-linejoin:round;stroke:rgb(0%,0%,0%);stroke-opacity:1;stroke-miterlimit:10;" d="M 388.621094 25.808594 L 389.441406 25.808594 L 390.839844 25.71875 L 392.410156 25.589844 L 393.75 25.558594 L 394.589844 25.5 L 394.75 25.25 L 394.75 24.871094 L 394.621094 24.128906 L 394.46875 22.910156 L 394.28125 21.558594 L 394.03125 19.75 L 393.878906 17.589844 L 393.878906 15.441406 L 394.058594 13.308594 L 394.308594 11.78125 L 394.21875 10.910156 L 393.660156 10.5 L 392.621094 10.308594 L 391.558594 10.160156 L 390.621094 10.128906 L 389.941406 9.910156 " transform="matrix(1,0,0,-1,0,183.75)"/>
</g>
</svg>
