<?xml version="1.0" encoding="UTF-8"?>
<svg xmlns="http://www.w3.org/2000/svg" xmlns:xlink="http://www.w3.org/1999/xlink" width="225.75pt" height="115.5pt" viewBox="0 0 225.75 115.5" version="1.1">
<g id="surface1">
<path style="fill:none;stroke-width:2.26;stroke-linecap:round;stroke-linejoin:round;stroke:rgb(0%,0%,0%);stroke-opacity:1;stroke-miterlimit:10;" d="M 7.859375 104.960938 L 7.921875 99.761719 L 7.980469 94.558594 L 8.03125 89.359375 L 8.089844 84.148438 L 8.140625 78.949219 L 8.199219 73.75 L 8.261719 68.550781 L 8.308594 63.351562 " transform="matrix(1,0,0,-1,0,115.5)"/>
<path style="fill:none;stroke-width:2.26;stroke-linecap:round;stroke-linejoin:round;stroke:rgb(0%,0%,0%);stroke-opacity:1;stroke-miterlimit:10;" d="M 7.679688 64 L 12.898438 64.03125 L 18.121094 64.058594 L 28.558594 64.121094 L 33.78125 64.140625 L 39 64.171875 L 44.21875 64.199219 L 49.441406 64.230469 L 54.660156 64.261719 L 59.871094 64.28125 L 65.089844 64.308594 " transform="matrix(1,0,0,-1,0,115.5)"/>
<path style="fill:none;stroke-width:2.26;stroke-linecap:round;stroke-linejoin:round;stroke:rgb(0%,0%,0%);stroke-opacity:1;stroke-miterlimit:10;" d="M 64.640625 64.488281 L 64.640625 74.820312 " transform="matrix(1,0,0,-1,0,115.5)"/>
<path style="fill:none;stroke-width:2.26;stroke-linecap:round;stroke-linejoin:round;stroke:rgb(0%,0%,0%);stroke-opacity:1;stroke-miterlimit:10;" d="M 64.640625 75.210938 L 69.859375 75.039062 " transform="matrix(1,0,0,-1,0,115.5)"/>
<path style="fill:none;stroke-width:2.26;stroke-linecap:round;stroke-linejoin:round;stroke:rgb(0%,0%,0%);stroke-opacity:1;stroke-miterlimit:10;" d="M 70.210938 75.78125 L 69.949219 81.199219 L 69.679688 86.621094 L 69.410156 92.039062 " transform="matrix(1,0,0,-1,0,115.5)"/>
<path style="fill:none;stroke-width:2.26;stroke-linecap:round;stroke-linejoin:round;stroke:rgb(0%,0%,0%);stroke-opacity:1;stroke-miterlimit:10;" d="M 69.230469 92.441406 L 63.839844 93.179688 " transform="matrix(1,0,0,-1,0,115.5)"/>
<path style="fill:none;stroke-width:2.26;stroke-linecap:round;stroke-linejoin:round;stroke:rgb(0%,0%,0%);stroke-opacity:1;stroke-miterlimit:10;" d="M 64.019531 93.449219 L 64.378906 106.628906 " transform="matrix(1,0,0,-1,0,115.5)"/>
<path style="fill:none;stroke-width:2.26;stroke-linecap:round;stroke-linejoin:round;stroke:rgb(0%,0%,0%);stroke-opacity:1;stroke-miterlimit:10;" d="M 63.75 105.839844 L 58.300781 105.878906 L 52.859375 105.921875 L 47.410156 105.960938 L 41.96875 106 L 36.519531 106.039062 L 31.078125 106.078125 L 25.628906 106.121094 L 20.191406 106.160156 L 14.75 106.199219 L 9.300781 106.238281 " transform="matrix(1,0,0,-1,0,115.5)"/>
<path style="fill:none;stroke-width:2.26;stroke-linecap:round;stroke-linejoin:round;stroke:rgb(0%,0%,0%);stroke-opacity:1;stroke-miterlimit:10;" d="M 7.949219 50.019531 L 13.148438 50.011719 L 18.339844 50.011719 L 23.539062 50 L 28.730469 49.988281 L 33.929688 49.980469 L 39.121094 49.96875 L 44.320312 49.96875 L 49.511719 49.960938 L 54.699219 49.949219 L 59.898438 49.941406 L 65.089844 49.929688 " transform="matrix(1,0,0,-1,0,115.5)"/>
<path style="fill:none;stroke-width:2.26;stroke-linecap:round;stroke-linejoin:round;stroke:rgb(0%,0%,0%);stroke-opacity:1;stroke-miterlimit:10;" d="M 65.539062 49.488281 L 65.5 43.210938 L 65.449219 36.929688 " transform="matrix(1,0,0,-1,0,115.5)"/>
<path style="fill:none;stroke-width:2.26;stroke-linecap:round;stroke-linejoin:round;stroke:rgb(0%,0%,0%);stroke-opacity:1;stroke-miterlimit:10;" d="M 65.539062 36.789062 L 71.558594 37.058594 " transform="matrix(1,0,0,-1,0,115.5)"/>
<path style="fill:none;stroke-width:2.26;stroke-linecap:round;stroke-linejoin:round;stroke:rgb(0%,0%,0%);stroke-opacity:1;stroke-miterlimit:10;" d="M 71.558594 36.839844 L 71.800781 24.738281 L 71.921875 18.691406 " transform="matrix(1,0,0,-1,0,115.5)"/>
<path style="fill:none;stroke-width:2.26;stroke-linecap:round;stroke-linejoin:round;stroke:rgb(0%,0%,0%);stroke-opacity:1;stroke-miterlimit:10;" d="M 71.648438 18.859375 L 64.820312 19.128906 " transform="matrix(1,0,0,-1,0,115.5)"/>
<path style="fill:none;stroke-width:2.26;stroke-linecap:round;stroke-linejoin:round;stroke:rgb(0%,0%,0%);stroke-opacity:1;stroke-miterlimit:10;" d="M 65.449219 19.078125 L 64.78125 12.671875 L 64.109375 6.25 " transform="matrix(1,0,0,-1,0,115.5)"/>
<path style="fill:none;stroke-width:2.26;stroke-linecap:round;stroke-linejoin:round;stroke:rgb(0%,0%,0%);stroke-opacity:1;stroke-miterlimit:10;" d="M 64.289062 6.339844 L 59.160156 6.539062 L 54.03125 6.75 L 48.898438 6.949219 L 43.769531 7.148438 L 38.640625 7.359375 L 33.511719 7.558594 L 28.378906 7.769531 L 23.25 7.96875 L 18.121094 8.171875 L 12.988281 8.378906 L 7.859375 8.578125 " transform="matrix(1,0,0,-1,0,115.5)"/>
<path style="fill:none;stroke-width:2.26;stroke-linecap:round;stroke-linejoin:round;stroke:rgb(0%,0%,0%);stroke-opacity:1;stroke-miterlimit:10;" d="M 7.769531 8.710938 L 7.738281 14 L 7.710938 19.28125 L 7.671875 24.570312 L 7.640625 29.851562 L 7.601562 35.140625 L 7.570312 40.421875 L 7.539062 45.699219 L 7.5 50.988281 " transform="matrix(1,0,0,-1,0,115.5)"/>
<path style="fill:none;stroke-width:2.26;stroke-linecap:round;stroke-linejoin:round;stroke:rgb(0%,0%,0%);stroke-opacity:1;stroke-miterlimit:10;" d="M 22.421875 90.890625 L 22.511719 91.589844 L 22.511719 92.121094 L 22.511719 91.589844 L 22.328125 89.75 L 22.058594 86.578125 L 21.699219 82.5 L 21.339844 79.199219 L 21.160156 77.089844 L 21.070312 76.210938 " transform="matrix(1,0,0,-1,0,115.5)"/>
<path style="fill:none;stroke-width:2.26;stroke-linecap:round;stroke-linejoin:round;stroke:rgb(0%,0%,0%);stroke-opacity:1;stroke-miterlimit:10;" d="M 22.421875 90.058594 L 22.691406 90.761719 L 23.5 91.808594 L 24.660156 92.648438 L 26.191406 93 L 27.988281 92.648438 L 29.339844 91.511719 L 30.230469 89.96875 L 30.320312 88.210938 L 29.339844 86.800781 L 27.808594 85.789062 L 25.921875 85.398438 L 24.570312 85.441406 L 23.769531 85.621094 L 23.410156 85.789062 " transform="matrix(1,0,0,-1,0,115.5)"/>
<path style="fill:none;stroke-width:2.26;stroke-linecap:round;stroke-linejoin:round;stroke:rgb(0%,0%,0%);stroke-opacity:1;stroke-miterlimit:10;" d="M 23.589844 34.199219 L 23.589844 34.601562 L 23.320312 33.191406 L 23.050781 30.730469 L 22.691406 27.390625 L 22.421875 23.871094 L 22.328125 21.460938 L 22.238281 20.089844 L 22.238281 19.519531 L 22.148438 19.960938 " transform="matrix(1,0,0,-1,0,115.5)"/>
<path style="fill:none;stroke-width:2.26;stroke-linecap:round;stroke-linejoin:round;stroke:rgb(0%,0%,0%);stroke-opacity:1;stroke-miterlimit:10;" d="M 23.5 34.070312 L 23.769531 35.121094 L 24.480469 36.089844 L 25.648438 37.058594 L 27.089844 37.28125 L 28.53125 37.058594 L 29.699219 36.089844 L 30.320312 34.820312 L 30.320312 33.230469 L 29.699219 31.648438 L 28.53125 30.46875 L 27.089844 29.628906 L 25.738281 29.238281 L 24.660156 29.28125 L 24.039062 29.5 L 23.769531 29.808594 L 23.5 30.03125 " transform="matrix(1,0,0,-1,0,115.5)"/>
<path style="fill:none;stroke-width:1.41;stroke-linecap:round;stroke-linejoin:round;stroke:rgb(0%,0%,0%);stroke-opacity:1;stroke-miterlimit:10;" d="M 49.910156 79.601562 L 49.910156 80.039062 L 50.179688 81.050781 L 50.898438 83.160156 L 51.800781 85.839844 L 52.609375 88.46875 L 53.410156 90.539062 L 53.859375 91.550781 L 54.21875 91.640625 L 54.851562 90.5 L 55.570312 88.519531 L 56.46875 85.878906 L 57.371094 83.109375 L 57.910156 81.179688 L 58.089844 80.039062 L 58.179688 79.460938 " transform="matrix(1,0,0,-1,0,115.5)"/>
<path style="fill:none;stroke-width:1.41;stroke-linecap:round;stroke-linejoin:round;stroke:rgb(0%,0%,0%);stroke-opacity:1;stroke-miterlimit:10;" d="M 51.351562 83.820312 L 51.078125 83.988281 L 51.53125 84.25 L 52.519531 84.429688 L 53.949219 84.558594 L 55.300781 84.648438 L 56.378906 84.648438 L 56.921875 84.738281 L 57.101562 85 " transform="matrix(1,0,0,-1,0,115.5)"/>
<path style="fill:none;stroke-width:1.41;stroke-linecap:round;stroke-linejoin:round;stroke:rgb(0%,0%,0%);stroke-opacity:1;stroke-miterlimit:10;" d="M 51.621094 32.96875 L 51.53125 32.441406 L 51.621094 30.988281 L 51.890625 29.101562 L 52.070312 27.171875 L 52.339844 25.410156 L 52.429688 24.53125 L 52.519531 24.179688 L 52.609375 23.960938 " transform="matrix(1,0,0,-1,0,115.5)"/>
<path style="fill:none;stroke-width:1.41;stroke-linecap:round;stroke-linejoin:round;stroke:rgb(0%,0%,0%);stroke-opacity:1;stroke-miterlimit:10;" d="M 51.53125 33.851562 L 52.070312 34.328125 L 53.320312 34.679688 L 54.761719 34.640625 L 56.019531 34.03125 L 56.738281 32.839844 L 56.558594 31.390625 L 55.570312 30.109375 L 54.21875 29.238281 L 53.140625 28.929688 L 52.789062 28.929688 L 53.410156 28.96875 L 54.671875 28.75 L 56.199219 28.089844 L 57.460938 27.078125 L 58.179688 26.121094 L 58.359375 25.28125 L 58.269531 24.710938 L 57.820312 24.179688 L 56.648438 23.738281 L 55.300781 23.429688 L 53.859375 23.300781 L 52.789062 23.519531 L 52.339844 23.871094 " transform="matrix(1,0,0,-1,0,115.5)"/>
<path style="fill:none;stroke-width:2.26;stroke-linecap:round;stroke-linejoin:round;stroke:rgb(19.999695%,19.999695%,79.998779%);stroke-opacity:1;stroke-miterlimit:10;" d="M 90.859375 67.78125 L 91.671875 67.558594 L 93.558594 67.121094 L 96.519531 66.589844 L 100.210938 66.148438 L 103.980469 65.929688 L 106.859375 65.890625 L 108.828125 65.96875 L 109.730469 66.058594 L 110 66.058594 " transform="matrix(1,0,0,-1,0,115.5)"/>
<path style="fill:none;stroke-width:2.26;stroke-linecap:round;stroke-linejoin:round;stroke:rgb(19.999695%,19.999695%,79.998779%);stroke-opacity:1;stroke-miterlimit:10;" d="M 91.671875 60.960938 L 92.121094 60.738281 L 93.828125 60.570312 L 96.609375 60.441406 L 100.300781 60.300781 L 104.070312 60.300781 L 106.769531 60.261719 L 108.378906 60.128906 L 109.191406 60 L 109.460938 59.871094 L 110 59.691406 " transform="matrix(1,0,0,-1,0,115.5)"/>
<path style="fill:none;stroke-width:2.26;stroke-linecap:round;stroke-linejoin:round;stroke:rgb(19.999695%,19.999695%,79.998779%);stroke-opacity:1;stroke-miterlimit:10;" d="M 91.941406 54.460938 L 92.390625 54.640625 L 93.199219 54.589844 L 94.550781 54.550781 L 97.148438 54.550781 L 100.300781 54.589844 L 103.621094 54.589844 L 106.589844 54.640625 L 108.289062 54.589844 L 109.191406 54.550781 L 109.640625 54.460938 L 109.910156 54.371094 " transform="matrix(1,0,0,-1,0,115.5)"/>
<path style="fill:none;stroke-width:2.26;stroke-linecap:round;stroke-linejoin:round;stroke:rgb(0%,0%,0%);stroke-opacity:1;stroke-miterlimit:10;" d="M 128.660156 95.070312 L 128.738281 89.929688 L 128.808594 84.800781 L 128.890625 79.671875 L 128.96875 74.539062 L 129.050781 69.398438 L 129.121094 64.269531 L 129.199219 59.140625 L 129.28125 54.011719 L 129.351562 48.878906 L 129.429688 43.738281 L 129.511719 38.609375 L 129.578125 33.480469 L 129.660156 28.351562 L 129.738281 23.210938 " transform="matrix(1,0,0,-1,0,115.5)"/>
<path style="fill:none;stroke-width:2.26;stroke-linecap:round;stroke-linejoin:round;stroke:rgb(0%,0%,0%);stroke-opacity:1;stroke-miterlimit:10;" d="M 130.011719 22.558594 L 135.21875 22.589844 L 140.441406 22.628906 L 145.660156 22.660156 L 150.871094 22.699219 L 156.089844 22.730469 L 161.308594 22.769531 L 166.519531 22.808594 L 171.738281 22.839844 L 176.960938 22.878906 L 182.171875 22.910156 L 187.390625 22.949219 L 192.609375 22.980469 L 197.820312 23.019531 L 203.039062 23.058594 L 208.261719 23.089844 L 213.46875 23.128906 " transform="matrix(1,0,0,-1,0,115.5)"/>
<path style="fill:none;stroke-width:2.26;stroke-linecap:round;stroke-linejoin:round;stroke:rgb(0%,0%,0%);stroke-opacity:1;stroke-miterlimit:10;" d="M 213.378906 23.789062 L 213.25 30.089844 L 213.109375 36.398438 " transform="matrix(1,0,0,-1,0,115.5)"/>
<path style="fill:none;stroke-width:2.26;stroke-linecap:round;stroke-linejoin:round;stroke:rgb(0%,0%,0%);stroke-opacity:1;stroke-miterlimit:10;" d="M 213.109375 36.308594 L 218.5 36.660156 " transform="matrix(1,0,0,-1,0,115.5)"/>
<path style="fill:none;stroke-width:2.26;stroke-linecap:round;stroke-linejoin:round;stroke:rgb(0%,0%,0%);stroke-opacity:1;stroke-miterlimit:10;" d="M 218.410156 36.878906 L 218.289062 42.269531 L 218.171875 47.660156 L 218.050781 53.050781 " transform="matrix(1,0,0,-1,0,115.5)"/>
<path style="fill:none;stroke-width:2.26;stroke-linecap:round;stroke-linejoin:round;stroke:rgb(0%,0%,0%);stroke-opacity:1;stroke-miterlimit:10;" d="M 218.050781 52.96875 L 213.199219 53.761719 " transform="matrix(1,0,0,-1,0,115.5)"/>
<path style="fill:none;stroke-width:2.26;stroke-linecap:round;stroke-linejoin:round;stroke:rgb(0%,0%,0%);stroke-opacity:1;stroke-miterlimit:10;" d="M 213.289062 54.148438 L 213.019531 63.03125 " transform="matrix(1,0,0,-1,0,115.5)"/>
<path style="fill:none;stroke-width:2.26;stroke-linecap:round;stroke-linejoin:round;stroke:rgb(0%,0%,0%);stroke-opacity:1;stroke-miterlimit:10;" d="M 213.109375 63.289062 L 218.140625 63.25 " transform="matrix(1,0,0,-1,0,115.5)"/>
<path style="fill:none;stroke-width:2.26;stroke-linecap:round;stroke-linejoin:round;stroke:rgb(0%,0%,0%);stroke-opacity:1;stroke-miterlimit:10;" d="M 218.050781 63.339844 L 217.898438 69.460938 L 217.761719 75.578125 L 217.609375 81.710938 " transform="matrix(1,0,0,-1,0,115.5)"/>
<path style="fill:none;stroke-width:2.26;stroke-linecap:round;stroke-linejoin:round;stroke:rgb(0%,0%,0%);stroke-opacity:1;stroke-miterlimit:10;" d="M 217.609375 81.621094 L 212.929688 81.839844 " transform="matrix(1,0,0,-1,0,115.5)"/>
<path style="fill:none;stroke-width:2.26;stroke-linecap:round;stroke-linejoin:round;stroke:rgb(0%,0%,0%);stroke-opacity:1;stroke-miterlimit:10;" d="M 212.570312 81.96875 L 212.390625 87.988281 L 212.210938 94.011719 " transform="matrix(1,0,0,-1,0,115.5)"/>
<path style="fill:none;stroke-width:2.26;stroke-linecap:round;stroke-linejoin:round;stroke:rgb(0%,0%,0%);stroke-opacity:1;stroke-miterlimit:10;" d="M 211.859375 94.539062 L 206.761719 94.671875 L 201.671875 94.800781 L 196.578125 94.929688 L 191.480469 95.070312 L 181.300781 95.328125 L 176.199219 95.460938 L 166.019531 95.71875 L 160.929688 95.859375 L 155.828125 95.988281 L 150.738281 96.121094 L 145.648438 96.25 L 140.550781 96.378906 L 135.460938 96.519531 L 130.371094 96.648438 " transform="matrix(1,0,0,-1,0,115.5)"/>
<path style="fill:none;stroke-width:1.41;stroke-linecap:round;stroke-linejoin:round;stroke:rgb(0%,0%,0%);stroke-opacity:1;stroke-miterlimit:10;" d="M 204.128906 67.46875 L 203.949219 67.25 L 203.949219 67.859375 L 204.398438 69.140625 L 205.03125 71.328125 L 205.839844 73.839844 L 206.550781 76.128906 L 206.910156 77.75 L 207.359375 78.101562 L 207.71875 77.398438 L 208.171875 75.601562 L 208.800781 73.359375 L 209.339844 71.25 L 209.699219 69.578125 L 209.789062 68.738281 L 209.878906 68.351562 L 209.878906 68 " transform="matrix(1,0,0,-1,0,115.5)"/>
<path style="fill:none;stroke-width:1.41;stroke-linecap:round;stroke-linejoin:round;stroke:rgb(0%,0%,0%);stroke-opacity:1;stroke-miterlimit:10;" d="M 205.390625 72.210938 L 205.660156 72.171875 L 206.640625 72.128906 L 207.988281 72.078125 L 209.160156 72.171875 L 209.96875 72.210938 L 210.238281 72.261719 " transform="matrix(1,0,0,-1,0,115.5)"/>
<path style="fill:none;stroke-width:1.41;stroke-linecap:round;stroke-linejoin:round;stroke:rgb(0%,0%,0%);stroke-opacity:1;stroke-miterlimit:10;" d="M 205.75 49.578125 L 205.75 46.460938 L 205.660156 43.960938 L 205.570312 41.941406 L 205.570312 40.050781 " transform="matrix(1,0,0,-1,0,115.5)"/>
<path style="fill:none;stroke-width:1.41;stroke-linecap:round;stroke-linejoin:round;stroke:rgb(0%,0%,0%);stroke-opacity:1;stroke-miterlimit:10;" d="M 205.570312 48.96875 L 205.570312 49.449219 L 205.839844 49.929688 L 206.289062 50.460938 L 207.269531 50.769531 L 208.621094 50.769531 L 209.878906 50.421875 L 210.691406 49.628906 L 210.601562 48.53125 L 209.789062 47.429688 L 208.710938 46.550781 L 207.71875 45.980469 L 207.359375 45.800781 L 208.351562 45.578125 L 209.25 45.140625 L 210.238281 44.441406 L 210.960938 43.429688 L 211.140625 42.328125 L 210.960938 41.230469 L 210.148438 40.308594 L 208.800781 39.871094 L 207.359375 39.828125 L 206.199219 40.050781 L 205.300781 40.53125 L 205.121094 41.230469 " transform="matrix(1,0,0,-1,0,115.5)"/>
<path style="fill:none;stroke-width:2.26;stroke-linecap:round;stroke-linejoin:round;stroke:rgb(0%,0%,0%);stroke-opacity:1;stroke-miterlimit:10;" d="M 163.609375 67.378906 L 163.339844 67.339844 L 163.160156 66.808594 L 163.070312 64.738281 L 163.070312 61.398438 L 162.890625 57.320312 L 162.800781 53.191406 L 162.710938 50.371094 L 162.621094 48.828125 L 162.710938 48.261719 " transform="matrix(1,0,0,-1,0,115.5)"/>
<path style="fill:none;stroke-width:2.26;stroke-linecap:round;stroke-linejoin:round;stroke:rgb(0%,0%,0%);stroke-opacity:1;stroke-miterlimit:10;" d="M 164.058594 65.179688 L 164.148438 66.019531 L 164.511719 66.898438 L 165.140625 67.78125 L 166.039062 68.429688 L 167.289062 68.789062 L 168.550781 68.738281 L 169.628906 68.261719 L 170.441406 67.421875 L 171.070312 66.191406 L 171.429688 64.960938 L 171.609375 63.730469 L 171.429688 62.460938 L 171.070312 61.359375 L 170.53125 60.390625 L 169.449219 59.511719 L 168.371094 58.988281 L 167.109375 58.71875 L 166.039062 58.679688 L 165.320312 58.808594 L 165.050781 58.851562 " transform="matrix(1,0,0,-1,0,115.5)"/>
</g>
</svg>
