<?xml version="1.0" encoding="UTF-8"?>
<svg xmlns="http://www.w3.org/2000/svg" xmlns:xlink="http://www.w3.org/1999/xlink" width="467.25pt" height="183.75pt" viewBox="0 0 467.25 183.75" version="1.1">
<g id="surface1">
<path style="fill:none;stroke-width:2.26;stroke-linecap:round;stroke-linejoin:round;stroke:rgb(0%,0%,0%);stroke-opacity:1;stroke-miterlimit:10;" d="M 388.917969 162.367188 L 388.964844 156.410156 L 389.007812 150.457031 " transform="matrix(1,0,0,-1,0,183.75)"/>
<path style="fill:none;stroke-width:2.26;stroke-linecap:round;stroke-linejoin:round;stroke:rgb(0%,0%,0%);stroke-opacity:1;stroke-miterlimit:10;" d="M 389.007812 150.367188 L 395.476562 150.238281 " transform="matrix(1,0,0,-1,0,183.75)"/>
<path style="fill:none;stroke-width:2.26;stroke-linecap:round;stroke-linejoin:round;stroke:rgb(0%,0%,0%);stroke-opacity:1;stroke-miterlimit:10;" d="M 395.566406 150.148438 L 395.507812 143.660156 L 395.445312 137.171875 L 395.386719 130.679688 " transform="matrix(1,0,0,-1,0,183.75)"/>
<path style="fill:none;stroke-width:2.26;stroke-linecap:round;stroke-linejoin:round;stroke:rgb(0%,0%,0%);stroke-opacity:1;stroke-miterlimit:10;" d="M 395.386719 130.679688 L 389.367188 130.945312 " transform="matrix(1,0,0,-1,0,183.75)"/>
<path style="fill:none;stroke-width:2.26;stroke-linecap:round;stroke-linejoin:round;stroke:rgb(0%,0%,0%);stroke-opacity:1;stroke-miterlimit:10;" d="M 389.636719 130.855469 L 389.90625 111.871094 " transform="matrix(1,0,0,-1,0,183.75)"/>
<path style="fill:none;stroke-width:2.26;stroke-linecap:round;stroke-linejoin:round;stroke:rgb(0%,0%,0%);stroke-opacity:1;stroke-miterlimit:10;" d="M 389.90625 111.300781 L 396.285156 111.34375 " transform="matrix(1,0,0,-1,0,183.75)"/>
<path style="fill:none;stroke-width:2.26;stroke-linecap:round;stroke-linejoin:round;stroke:rgb(0%,0%,0%);stroke-opacity:1;stroke-miterlimit:10;" d="M 396.195312 111.300781 L 396.082031 105.984375 L 395.972656 100.667969 L 395.859375 95.347656 L 395.746094 90.03125 " transform="matrix(1,0,0,-1,0,183.75)"/>
<path style="fill:none;stroke-width:2.26;stroke-linecap:round;stroke-linejoin:round;stroke:rgb(0%,0%,0%);stroke-opacity:1;stroke-miterlimit:10;" d="M 395.566406 89.679688 L 390.265625 89.769531 " transform="matrix(1,0,0,-1,0,183.75)"/>
<path style="fill:none;stroke-width:2.26;stroke-linecap:round;stroke-linejoin:round;stroke:rgb(0%,0%,0%);stroke-opacity:1;stroke-miterlimit:10;" d="M 389.816406 89.722656 L 389.757812 83.894531 L 389.695312 78.0625 L 389.636719 72.234375 " transform="matrix(1,0,0,-1,0,183.75)"/>
<path style="fill:none;stroke-width:2.26;stroke-linecap:round;stroke-linejoin:round;stroke:rgb(0%,0%,0%);stroke-opacity:1;stroke-miterlimit:10;" d="M 446.777344 162.144531 L 436.324219 162.378906 L 431.09375 162.492188 L 420.640625 162.726562 L 415.414062 162.839844 L 404.960938 163.074219 L 399.730469 163.1875 L 389.277344 163.421875 " transform="matrix(1,0,0,-1,0,183.75)"/>
<path style="fill:none;stroke-width:2.26;stroke-linecap:round;stroke-linejoin:round;stroke:rgb(0%,0%,0%);stroke-opacity:1;stroke-miterlimit:10;" d="M 328.027344 128.859375 L 327.847656 129.210938 L 327.667969 129.609375 L 327.128906 130.046875 L 326.140625 130.441406 L 324.882812 130.398438 L 323.445312 130.003906 L 322.1875 129.082031 L 321.378906 127.894531 L 321.019531 126.488281 L 321.558594 125.167969 L 322.726562 124.335938 L 324.433594 124.113281 L 326.230469 124.554688 L 327.488281 125.519531 L 328.386719 126.488281 L 328.746094 127.453125 L 328.835938 127.980469 L 328.746094 128.203125 L 328.566406 127.542969 L 328.207031 126.488281 L 327.847656 125.039062 L 327.578125 123.234375 L 327.128906 121.347656 L 326.679688 118.621094 L 326.230469 115.457031 L 325.871094 112.117188 L 325.78125 109.570312 L 326.230469 108.292969 L 327.21875 108.117188 L 328.386719 108.777344 L 329.375 109.789062 L 330.09375 110.710938 L 330.09375 111.414062 L 329.464844 112.117188 L 328.476562 112.734375 L 327.398438 113.304688 L 326.589844 113.917969 L 326.410156 114.359375 L 326.679688 114.710938 L 327.21875 115.148438 L 327.757812 115.546875 L 328.566406 116.117188 L 329.285156 116.6875 L 329.824219 117.304688 L 330.183594 117.875 L 330.273438 118.226562 L 330.273438 118.535156 " transform="matrix(1,0,0,-1,0,183.75)"/>
<path style="fill:none;stroke-width:2.26;stroke-linecap:round;stroke-linejoin:round;stroke:rgb(0%,0%,0%);stroke-opacity:1;stroke-miterlimit:10;" d="M 420.273438 126.902344 L 419.914062 126.460938 L 419.824219 125.804688 L 419.554688 124.046875 L 419.195312 121.234375 L 418.746094 118.023438 L 418.207031 114.640625 L 417.847656 112.222656 L 417.578125 111.039062 L 417.488281 110.554688 " transform="matrix(1,0,0,-1,0,183.75)"/>
<path style="fill:none;stroke-width:2.26;stroke-linecap:round;stroke-linejoin:round;stroke:rgb(0%,0%,0%);stroke-opacity:1;stroke-miterlimit:10;" d="M 419.015625 125.714844 L 419.195312 126.460938 L 419.644531 127.296875 L 420.363281 128.089844 L 421.800781 128.835938 L 423.417969 129.1875 L 425.035156 129.144531 L 426.652344 128.746094 L 427.550781 128.042969 L 428.089844 127.296875 L 428.179688 126.242188 L 428 125.054688 L 427.550781 123.605469 L 426.652344 122.113281 L 425.304688 121.101562 L 423.777344 120.707031 L 422.339844 120.75 L 421.261719 121.011719 L 420.632812 121.363281 L 420.363281 121.628906 " transform="matrix(1,0,0,-1,0,183.75)"/>
<path style="fill:none;stroke-width:2.26;stroke-linecap:round;stroke-linejoin:round;stroke:rgb(0%,0%,0%);stroke-opacity:1;stroke-miterlimit:10;" d="M 388.6875 73.1875 L 395.375 72.90625 " transform="matrix(1,0,0,-1,0,183.75)"/>
<path style="fill:none;stroke-width:2.26;stroke-linecap:round;stroke-linejoin:round;stroke:rgb(0%,0%,0%);stroke-opacity:1;stroke-miterlimit:10;" d="M 396.25 72.46875 L 396.261719 66.46875 L 396.269531 60.46875 L 396.28125 54.46875 " transform="matrix(1,0,0,-1,0,183.75)"/>
<path style="fill:none;stroke-width:2.26;stroke-linecap:round;stroke-linejoin:round;stroke:rgb(0%,0%,0%);stroke-opacity:1;stroke-miterlimit:10;" d="M 396.1875 54.5 L 390.03125 54.625 " transform="matrix(1,0,0,-1,0,183.75)"/>
<path style="fill:none;stroke-width:2.26;stroke-linecap:round;stroke-linejoin:round;stroke:rgb(0%,0%,0%);stroke-opacity:1;stroke-miterlimit:10;" d="M 390.15625 54.25 L 390.75 39.40625 " transform="matrix(1,0,0,-1,0,183.75)"/>
<path style="fill:none;stroke-width:2.26;stroke-linecap:round;stroke-linejoin:round;stroke:rgb(0%,0%,0%);stroke-opacity:1;stroke-miterlimit:10;" d="M 390.90625 39.28125 L 396.253906 39.160156 L 401.597656 39.042969 L 406.945312 38.921875 L 412.292969 38.804688 L 417.640625 38.683594 L 422.984375 38.566406 L 428.332031 38.445312 L 433.679688 38.328125 L 439.027344 38.207031 L 444.371094 38.089844 L 449.71875 37.96875 " transform="matrix(1,0,0,-1,0,183.75)"/>
<path style="fill:none;stroke-width:2.26;stroke-linecap:round;stroke-linejoin:round;stroke:rgb(0%,0%,0%);stroke-opacity:1;stroke-miterlimit:10;" d="M 447.625 161.6875 L 448.46875 39.90625 " transform="matrix(1,0,0,-1,0,183.75)"/>
<path style="fill:none;stroke-width:2.26;stroke-linecap:round;stroke-linejoin:round;stroke:rgb(0%,0%,0%);stroke-opacity:1;stroke-miterlimit:10;" d="M 346.199219 163.929688 L 346.246094 157.972656 L 346.289062 152.019531 " transform="matrix(1,0,0,-1,0,183.75)"/>
<path style="fill:none;stroke-width:2.26;stroke-linecap:round;stroke-linejoin:round;stroke:rgb(0%,0%,0%);stroke-opacity:1;stroke-miterlimit:10;" d="M 346.289062 151.929688 L 352.757812 151.800781 " transform="matrix(1,0,0,-1,0,183.75)"/>
<path style="fill:none;stroke-width:2.26;stroke-linecap:round;stroke-linejoin:round;stroke:rgb(0%,0%,0%);stroke-opacity:1;stroke-miterlimit:10;" d="M 352.847656 151.710938 L 352.789062 145.222656 L 352.726562 138.734375 L 352.667969 132.242188 " transform="matrix(1,0,0,-1,0,183.75)"/>
<path style="fill:none;stroke-width:2.26;stroke-linecap:round;stroke-linejoin:round;stroke:rgb(0%,0%,0%);stroke-opacity:1;stroke-miterlimit:10;" d="M 352.667969 132.242188 L 346.648438 132.507812 " transform="matrix(1,0,0,-1,0,183.75)"/>
<path style="fill:none;stroke-width:2.26;stroke-linecap:round;stroke-linejoin:round;stroke:rgb(0%,0%,0%);stroke-opacity:1;stroke-miterlimit:10;" d="M 346.917969 132.417969 L 347.1875 113.433594 " transform="matrix(1,0,0,-1,0,183.75)"/>
<path style="fill:none;stroke-width:2.26;stroke-linecap:round;stroke-linejoin:round;stroke:rgb(0%,0%,0%);stroke-opacity:1;stroke-miterlimit:10;" d="M 347.1875 112.863281 L 353.566406 112.90625 " transform="matrix(1,0,0,-1,0,183.75)"/>
<path style="fill:none;stroke-width:2.26;stroke-linecap:round;stroke-linejoin:round;stroke:rgb(0%,0%,0%);stroke-opacity:1;stroke-miterlimit:10;" d="M 353.476562 112.863281 L 353.363281 107.546875 L 353.253906 102.230469 L 353.140625 96.910156 L 353.027344 91.59375 " transform="matrix(1,0,0,-1,0,183.75)"/>
<path style="fill:none;stroke-width:2.26;stroke-linecap:round;stroke-linejoin:round;stroke:rgb(0%,0%,0%);stroke-opacity:1;stroke-miterlimit:10;" d="M 352.847656 91.242188 L 347.546875 91.332031 " transform="matrix(1,0,0,-1,0,183.75)"/>
<path style="fill:none;stroke-width:2.26;stroke-linecap:round;stroke-linejoin:round;stroke:rgb(0%,0%,0%);stroke-opacity:1;stroke-miterlimit:10;" d="M 347.15625 80.78125 L 341.851562 80.824219 L 336.550781 80.867188 L 331.246094 80.914062 L 325.945312 80.957031 L 315.335938 81.042969 L 310.035156 81.085938 L 304.730469 81.132812 L 299.429688 81.175781 L 294.125 81.21875 " transform="matrix(1,0,0,-1,0,183.75)"/>
<path style="fill:none;stroke-width:2.26;stroke-linecap:round;stroke-linejoin:round;stroke:rgb(0%,0%,0%);stroke-opacity:1;stroke-miterlimit:10;" d="M 294.34375 163.96875 L 299.519531 164.070312 L 304.695312 164.175781 L 309.867188 164.277344 L 315.042969 164.382812 L 325.394531 164.585938 L 330.570312 164.691406 L 335.742188 164.792969 L 340.917969 164.898438 L 346.09375 165 " transform="matrix(1,0,0,-1,0,183.75)"/>
<path style="fill:none;stroke-width:2.26;stroke-linecap:round;stroke-linejoin:round;stroke:rgb(0%,0%,0%);stroke-opacity:1;stroke-miterlimit:10;" d="M 347.4375 91.28125 L 347.5 82.21875 " transform="matrix(1,0,0,-1,0,183.75)"/>
<path style="fill:none;stroke-width:2.26;stroke-linecap:round;stroke-linejoin:round;stroke:rgb(0%,0%,0%);stroke-opacity:1;stroke-miterlimit:10;" d="M 293.84375 161.96875 L 293.992188 156.550781 L 294.144531 151.132812 L 294.292969 145.710938 L 294.445312 140.292969 L 294.59375 134.875 " transform="matrix(1,0,0,-1,0,183.75)"/>
<path style="fill:none;stroke-width:2.26;stroke-linecap:round;stroke-linejoin:round;stroke:rgb(0%,0%,0%);stroke-opacity:1;stroke-miterlimit:10;" d="M 294.65625 134.4375 L 300.28125 134.03125 " transform="matrix(1,0,0,-1,0,183.75)"/>
<path style="fill:none;stroke-width:2.26;stroke-linecap:round;stroke-linejoin:round;stroke:rgb(0%,0%,0%);stroke-opacity:1;stroke-miterlimit:10;" d="M 300.0625 133.875 L 300.125 113.1875 " transform="matrix(1,0,0,-1,0,183.75)"/>
<path style="fill:none;stroke-width:2.26;stroke-linecap:round;stroke-linejoin:round;stroke:rgb(0%,0%,0%);stroke-opacity:1;stroke-miterlimit:10;" d="M 299.9375 113.09375 L 294.1875 113.4375 " transform="matrix(1,0,0,-1,0,183.75)"/>
<path style="fill:none;stroke-width:2.26;stroke-linecap:round;stroke-linejoin:round;stroke:rgb(0%,0%,0%);stroke-opacity:1;stroke-miterlimit:10;" d="M 294.0625 112.875 L 294.085938 106.96875 L 294.113281 101.0625 L 294.136719 95.15625 L 294.164062 89.25 L 294.1875 83.34375 " transform="matrix(1,0,0,-1,0,183.75)"/>
<path style="fill:none;stroke-width:2.26;stroke-linecap:round;stroke-linejoin:round;stroke:rgb(0%,0%,0%);stroke-opacity:1;stroke-miterlimit:10;" d="M 354.59375 141.59375 L 355 141.71875 L 355.84375 141.65625 L 357.125 141.59375 L 358.9375 141.59375 L 361.15625 141.625 L 363.5 141.625 L 365.75 141.59375 L 368.0625 141.53125 L 370.03125 141.4375 L 371.875 141.375 L 373.625 141.34375 L 378.125 141.34375 L 379.9375 141.40625 L 381.75 141.4375 L 383.625 141.4375 L 385.21875 141.40625 L 386.78125 141.34375 L 388.1875 141.28125 L 389.1875 141.25 L 389.84375 141.21875 L 390.28125 141.28125 L 390.6875 141.3125 L 391.09375 141.375 L 391.59375 141.40625 L 392.1875 141.46875 L 392.6875 141.46875 L 393.28125 141.5 L 393.75 141.46875 L 394.375 141.46875 " transform="matrix(1,0,0,-1,0,183.75)"/>
<path style="fill:none;stroke-width:2.26;stroke-linecap:round;stroke-linejoin:round;stroke:rgb(0%,0%,0%);stroke-opacity:1;stroke-miterlimit:10;" d="M 352.5625 101.21875 L 353.15625 101.125 L 354.125 101.0625 L 355.65625 101.03125 L 358.125 101.09375 L 361 101.1875 L 364.0625 101.21875 L 367.125 101.125 L 369.71875 101 L 372.1875 100.875 L 374.71875 100.84375 L 377.0625 100.875 L 381.53125 100.875 L 383.5 100.90625 L 385.21875 100.9375 L 386.53125 100.96875 L 387.3125 100.9375 L 387.84375 100.875 L 389.53125 100.875 L 390.125 100.90625 L 390.53125 100.96875 L 390.84375 101 L 391.25 101 L 391.59375 100.96875 L 392.09375 101 L 392.71875 101.09375 L 393.21875 101.1875 L 393.625 101.28125 L 393.875 101.3125 L 393.6875 101.09375 " transform="matrix(1,0,0,-1,0,183.75)"/>
<path style="fill:none;stroke-width:2.26;stroke-linecap:round;stroke-linejoin:round;stroke:rgb(0%,0%,0%);stroke-opacity:1;stroke-miterlimit:10;" d="M 299.59375 126.8125 L 299.28125 126.4375 L 298.6875 126.3125 L 297.84375 126.21875 L 296.71875 126.15625 L 295.53125 126.125 L 294.1875 125.96875 L 292.46875 125.53125 L 290.6875 124.84375 L 288.84375 123.84375 L 286.90625 122.40625 L 285.28125 120.84375 L 283.84375 119.15625 L 282.59375 117.3125 L 281.65625 115.5625 L 280.8125 113.75 L 279.84375 111.625 L 278.9375 109.53125 L 278 107.3125 L 277.125 104.71875 L 276.5 102.15625 L 276.03125 99.5625 L 275.59375 96.875 L 275.15625 94.4375 L 274.5625 91.90625 L 273.78125 89.40625 L 273.03125 87.34375 L 272.15625 85.46875 L 271.15625 83.59375 L 269.9375 81.75 L 268.375 79.8125 L 266.25 77.9375 L 264.0625 76.6875 L 261.8125 75.8125 L 259.40625 75.1875 L 257.21875 74.84375 L 255.09375 74.5625 L 252.96875 74.375 L 250.90625 74.21875 L 248.90625 74.125 L 246.9375 74.0625 L 245.0625 74.03125 L 243.6875 74 L 242.28125 74 L 242.4375 74.25 " transform="matrix(1,0,0,-1,0,183.75)"/>
<path style="fill:none;stroke-width:2.26;stroke-linecap:round;stroke-linejoin:round;stroke:rgb(0%,0%,0%);stroke-opacity:1;stroke-miterlimit:10;" d="M 258.125 74.6875 L 258.40625 74.5 L 259.125 74.4375 L 260.21875 74.375 L 261.53125 74.25 L 263 73.96875 L 264.3125 73.46875 L 265.4375 72.78125 L 266.4375 71.84375 L 267.15625 70.84375 L 267.78125 69.90625 L 268.3125 68.875 L 268.75 67.90625 L 269.1875 66.875 L 269.5625 65.90625 L 270.15625 64.9375 L 270.875 64 L 271.84375 62.96875 L 273.0625 61.875 L 274.3125 61 L 275.6875 60.28125 L 277.28125 59.6875 L 278.9375 59.1875 L 280.6875 58.75 L 282.65625 58.3125 L 284.5 58.0625 L 286.46875 57.875 L 288.84375 57.75 L 291.21875 57.6875 L 293.78125 57.65625 L 296.65625 57.71875 L 299.3125 57.8125 L 301.9375 57.90625 L 304.65625 57.96875 L 307.1875 57.96875 L 312 58.03125 L 314.09375 58.125 L 316.1875 58.25 L 318.6875 58.46875 L 321.1875 58.71875 L 323.84375 59 L 326.90625 59.25 L 330.125 59.4375 L 333.4375 59.4375 L 336.8125 59.34375 L 339.40625 59.09375 L 341.5 58.9375 L 343.6875 58.96875 L 345.84375 59.125 L 348.21875 59.34375 L 350.75 59.5 L 353.0625 59.5625 L 355.1875 59.625 L 357.3125 59.625 L 359.28125 59.65625 L 361.3125 59.75 L 363.59375 59.84375 L 365.6875 59.9375 L 370.09375 59.9375 L 372.28125 60.03125 L 374.5 60.21875 L 376.625 60.375 L 378.03125 60.46875 L 379.0625 60.5 L 380.15625 60.5625 L 381.46875 60.71875 L 382.8125 60.84375 L 384.125 61 L 385.625 61.1875 L 386.3125 61.3125 L 387.125 61.40625 L 388 61.5 L 389.28125 61.5625 L 390.40625 61.53125 L 391.5 61.5 L 392.5 61.46875 L 393.09375 61.5 L 393.78125 61.625 L 394.0625 61.71875 L 394.53125 61.8125 " transform="matrix(1,0,0,-1,0,183.75)"/>
<path style="fill:none;stroke-width:1.41;stroke-linecap:round;stroke-linejoin:round;stroke:rgb(0%,0%,0%);stroke-opacity:1;stroke-miterlimit:10;" d="M 226.09375 80.4375 L 226.1875 79.15625 L 226.53125 76.65625 L 226.875 73.53125 L 227.125 70.53125 L 227.21875 68.3125 L 227.25 67.4375 L 227.28125 67.1875 L 227.28125 66.875 " transform="matrix(1,0,0,-1,0,183.75)"/>
<path style="fill:none;stroke-width:1.41;stroke-linecap:round;stroke-linejoin:round;stroke:rgb(0%,0%,0%);stroke-opacity:1;stroke-miterlimit:10;" d="M 227.53125 71.25 L 227.28125 71.375 L 227.34375 71.6875 L 227.75 71.875 L 228.25 72.09375 L 228.90625 72.25 L 229.40625 72.34375 L 230.46875 72.53125 L 231.15625 72.65625 L 231.84375 72.71875 L 232.40625 72.75 L 232.84375 72.78125 " transform="matrix(1,0,0,-1,0,183.75)"/>
<path style="fill:none;stroke-width:1.41;stroke-linecap:round;stroke-linejoin:round;stroke:rgb(0%,0%,0%);stroke-opacity:1;stroke-miterlimit:10;" d="M 233.75 78.125 L 233.4375 78.09375 L 233.375 77.65625 L 233.4375 76.90625 L 233.46875 75.75 L 233.46875 69.25 L 233.5 67.59375 L 233.53125 66.8125 " transform="matrix(1,0,0,-1,0,183.75)"/>
<path style="fill:none;stroke-width:1.41;stroke-linecap:round;stroke-linejoin:round;stroke:rgb(0%,0%,0%);stroke-opacity:1;stroke-miterlimit:10;" d="M 337.46875 137.8125 L 337.625 138.53125 L 338.03125 139.84375 L 338.75 141.78125 L 339.625 143.84375 L 340.3125 145.34375 L 340.875 146.3125 L 341.40625 146.40625 L 341.84375 145.75 L 342.28125 144.75 L 342.6875 143.53125 L 343.03125 141.59375 L 343.375 139.84375 L 343.6875 138.1875 L 343.9375 136.75 L 344.03125 136.34375 L 344.21875 136.0625 L 344.5 136.03125 " transform="matrix(1,0,0,-1,0,183.75)"/>
<path style="fill:none;stroke-width:1.41;stroke-linecap:round;stroke-linejoin:round;stroke:rgb(0%,0%,0%);stroke-opacity:1;stroke-miterlimit:10;" d="M 339.96875 140.4375 L 339.71875 140.53125 L 340.40625 140.5 L 341.40625 140.4375 L 342.46875 140.40625 L 343.3125 140.34375 L 343.8125 140.375 " transform="matrix(1,0,0,-1,0,183.75)"/>
<path style="fill:none;stroke-width:1.41;stroke-linecap:round;stroke-linejoin:round;stroke:rgb(0%,0%,0%);stroke-opacity:1;stroke-miterlimit:10;" d="M 341.875 107.21875 L 341.625 107.21875 L 341.5 106.8125 L 341.40625 105.3125 L 341.34375 103.28125 L 341.28125 101.3125 L 341.21875 99.5625 L 341.15625 98.84375 L 341.09375 98.625 " transform="matrix(1,0,0,-1,0,183.75)"/>
<path style="fill:none;stroke-width:1.41;stroke-linecap:round;stroke-linejoin:round;stroke:rgb(0%,0%,0%);stroke-opacity:1;stroke-miterlimit:10;" d="M 341.40625 104.78125 L 341.3125 105.1875 L 341.875 105.65625 L 342.78125 106.03125 L 343.9375 106.125 L 345.03125 105.75 L 345.40625 104.90625 L 345.0625 103.90625 L 344.03125 103.03125 L 342.9375 102.53125 L 342.28125 102.34375 L 342.625 102.21875 L 343.875 102.0625 L 345.375 101.6875 L 346.6875 101.09375 L 347.40625 100.5 L 347.625 100 L 347.03125 99.375 L 345.9375 98.84375 L 344.5 98.4375 L 343 98.1875 L 342.09375 98.1875 L 341.625 98.375 L 341.5625 98.6875 " transform="matrix(1,0,0,-1,0,183.75)"/>
<path style="fill:none;stroke-width:1.41;stroke-linecap:round;stroke-linejoin:round;stroke:rgb(0%,0%,0%);stroke-opacity:1;stroke-miterlimit:10;" d="M 400.71875 135.5 L 400.5625 135.28125 L 400.53125 135.53125 L 400.65625 136.28125 L 401.0625 137.6875 L 401.71875 139.9375 L 402.40625 142 L 403.0625 143.625 L 403.71875 144.03125 L 404.34375 142.875 L 405.15625 140.78125 L 406 138.25 L 406.75 136.1875 L 407.21875 134.90625 L 407.4375 134.3125 L 407.3125 134.53125 " transform="matrix(1,0,0,-1,0,183.75)"/>
<path style="fill:none;stroke-width:1.41;stroke-linecap:round;stroke-linejoin:round;stroke:rgb(0%,0%,0%);stroke-opacity:1;stroke-miterlimit:10;" d="M 402.03125 138.53125 L 402.25 138.625 L 403.15625 138.78125 L 404.40625 138.9375 L 405.65625 139.03125 L 406.53125 139.125 " transform="matrix(1,0,0,-1,0,183.75)"/>
<path style="fill:none;stroke-width:1.41;stroke-linecap:round;stroke-linejoin:round;stroke:rgb(0%,0%,0%);stroke-opacity:1;stroke-miterlimit:10;" d="M 401.78125 104.96875 L 401.96875 105.09375 L 402.03125 104.84375 L 402 104 L 401.875 102.34375 L 401.75 100.59375 L 401.71875 99.125 L 401.65625 98.125 L 401.625 97.84375 " transform="matrix(1,0,0,-1,0,183.75)"/>
<path style="fill:none;stroke-width:1.41;stroke-linecap:round;stroke-linejoin:round;stroke:rgb(0%,0%,0%);stroke-opacity:1;stroke-miterlimit:10;" d="M 401.71875 104.0625 L 402.125 104.65625 L 402.875 105.375 L 404.09375 105.9375 L 405.5 106 L 406.5 105.4375 L 406.71875 104.40625 L 405.90625 103.125 L 404.625 102.1875 L 403.40625 101.6875 L 402.84375 101.53125 L 403.53125 101.5 L 404.875 101.25 L 406.375 100.75 L 407.375 100 L 407.34375 99.125 L 406.78125 98.46875 L 405.9375 97.9375 L 405.09375 97.625 L 404.28125 97.5 L 403.4375 97.53125 L 402.59375 97.78125 L 401.90625 98.15625 L 401.5 98.5 L 401.375 98.78125 " transform="matrix(1,0,0,-1,0,183.75)"/>
<path style="fill:none;stroke-width:1.41;stroke-linecap:round;stroke-linejoin:round;stroke:rgb(0%,0%,0%);stroke-opacity:1;stroke-miterlimit:10;" d="M 403.46875 66.5 L 403.5 66 L 403.4375 64.46875 L 403.34375 62.53125 L 403.1875 60.5625 L 403.09375 59.40625 L 403.0625 58.9375 " transform="matrix(1,0,0,-1,0,183.75)"/>
<path style="fill:none;stroke-width:1.41;stroke-linecap:round;stroke-linejoin:round;stroke:rgb(0%,0%,0%);stroke-opacity:1;stroke-miterlimit:10;" d="M 402.75 61.65625 L 402.75 62 L 403.28125 62.34375 L 404.53125 62.6875 L 406 63.0625 L 407.5 63.3125 L 408.46875 63.40625 L 408.78125 63.40625 " transform="matrix(1,0,0,-1,0,183.75)"/>
<path style="fill:none;stroke-width:1.41;stroke-linecap:round;stroke-linejoin:round;stroke:rgb(0%,0%,0%);stroke-opacity:1;stroke-miterlimit:10;" d="M 409.40625 67.8125 L 409.3125 67 L 409.3125 63.8125 L 409.1875 61.03125 L 409.0625 59.09375 L 408.96875 57.46875 L 408.84375 56.25 " transform="matrix(1,0,0,-1,0,183.75)"/>
<path style="fill:none;stroke-width:1.41;stroke-linecap:round;stroke-linejoin:round;stroke:rgb(0%,0%,0%);stroke-opacity:1;stroke-miterlimit:10;" d="M 305.46875 129.03125 L 305.34375 128.6875 L 305.34375 127.6875 L 305.46875 126.09375 L 305.5625 123.96875 L 305.59375 122.09375 L 305.59375 120.6875 L 305.53125 119.84375 L 305.5 119.40625 L 305.46875 119.15625 " transform="matrix(1,0,0,-1,0,183.75)"/>
<path style="fill:none;stroke-width:1.41;stroke-linecap:round;stroke-linejoin:round;stroke:rgb(0%,0%,0%);stroke-opacity:1;stroke-miterlimit:10;" d="M 305.875 122.1875 L 306.28125 122.65625 L 307.125 123.0625 L 308.125 123.34375 L 309.09375 123.6875 L 309.59375 123.84375 L 309.78125 124 " transform="matrix(1,0,0,-1,0,183.75)"/>
<path style="fill:none;stroke-width:1.41;stroke-linecap:round;stroke-linejoin:round;stroke:rgb(0%,0%,0%);stroke-opacity:1;stroke-miterlimit:10;" d="M 310.25 128.625 L 310.4375 128.5 L 310.5625 128.03125 L 310.65625 127.40625 L 310.71875 126.71875 L 310.84375 125.09375 L 310.90625 123.03125 L 310.9375 120.9375 L 310.96875 118.9375 L 310.96875 118 " transform="matrix(1,0,0,-1,0,183.75)"/>
<path style="fill:none;stroke-width:2.26;stroke-linecap:round;stroke-linejoin:round;stroke:rgb(0%,0%,0%);stroke-opacity:1;stroke-miterlimit:10;" d="M 140.230469 161.585938 L 140.277344 155.628906 L 140.320312 149.675781 " transform="matrix(1,0,0,-1,0,183.75)"/>
<path style="fill:none;stroke-width:2.26;stroke-linecap:round;stroke-linejoin:round;stroke:rgb(0%,0%,0%);stroke-opacity:1;stroke-miterlimit:10;" d="M 140.320312 149.585938 L 146.789062 149.457031 " transform="matrix(1,0,0,-1,0,183.75)"/>
<path style="fill:none;stroke-width:2.26;stroke-linecap:round;stroke-linejoin:round;stroke:rgb(0%,0%,0%);stroke-opacity:1;stroke-miterlimit:10;" d="M 146.878906 149.367188 L 146.820312 142.878906 L 146.757812 136.390625 L 146.699219 129.898438 " transform="matrix(1,0,0,-1,0,183.75)"/>
<path style="fill:none;stroke-width:2.26;stroke-linecap:round;stroke-linejoin:round;stroke:rgb(0%,0%,0%);stroke-opacity:1;stroke-miterlimit:10;" d="M 146.699219 129.898438 L 140.679688 130.164062 " transform="matrix(1,0,0,-1,0,183.75)"/>
<path style="fill:none;stroke-width:2.26;stroke-linecap:round;stroke-linejoin:round;stroke:rgb(0%,0%,0%);stroke-opacity:1;stroke-miterlimit:10;" d="M 140.949219 130.074219 L 141.21875 111.089844 " transform="matrix(1,0,0,-1,0,183.75)"/>
<path style="fill:none;stroke-width:2.26;stroke-linecap:round;stroke-linejoin:round;stroke:rgb(0%,0%,0%);stroke-opacity:1;stroke-miterlimit:10;" d="M 141.21875 110.519531 L 147.597656 110.5625 " transform="matrix(1,0,0,-1,0,183.75)"/>
<path style="fill:none;stroke-width:2.26;stroke-linecap:round;stroke-linejoin:round;stroke:rgb(0%,0%,0%);stroke-opacity:1;stroke-miterlimit:10;" d="M 147.507812 110.519531 L 147.394531 105.203125 L 147.285156 99.886719 L 147.171875 94.566406 L 147.058594 89.25 " transform="matrix(1,0,0,-1,0,183.75)"/>
<path style="fill:none;stroke-width:2.26;stroke-linecap:round;stroke-linejoin:round;stroke:rgb(0%,0%,0%);stroke-opacity:1;stroke-miterlimit:10;" d="M 146.878906 88.898438 L 141.578125 88.988281 " transform="matrix(1,0,0,-1,0,183.75)"/>
<path style="fill:none;stroke-width:2.26;stroke-linecap:round;stroke-linejoin:round;stroke:rgb(0%,0%,0%);stroke-opacity:1;stroke-miterlimit:10;" d="M 141.128906 88.941406 L 141.070312 83.113281 L 141.007812 77.28125 L 140.949219 71.453125 " transform="matrix(1,0,0,-1,0,183.75)"/>
<path style="fill:none;stroke-width:2.26;stroke-linecap:round;stroke-linejoin:round;stroke:rgb(0%,0%,0%);stroke-opacity:1;stroke-miterlimit:10;" d="M 198.089844 161.363281 L 187.636719 161.597656 L 182.40625 161.710938 L 171.953125 161.945312 L 166.726562 162.058594 L 156.273438 162.292969 L 151.042969 162.40625 L 140.589844 162.640625 " transform="matrix(1,0,0,-1,0,183.75)"/>
<path style="fill:none;stroke-width:2.26;stroke-linecap:round;stroke-linejoin:round;stroke:rgb(0%,0%,0%);stroke-opacity:1;stroke-miterlimit:10;" d="M 171.585938 126.121094 L 171.226562 125.679688 L 171.136719 125.023438 L 170.867188 123.265625 L 170.507812 120.453125 L 170.058594 117.242188 L 169.519531 113.859375 L 169.160156 111.441406 L 168.890625 110.257812 L 168.800781 109.773438 " transform="matrix(1,0,0,-1,0,183.75)"/>
<path style="fill:none;stroke-width:2.26;stroke-linecap:round;stroke-linejoin:round;stroke:rgb(0%,0%,0%);stroke-opacity:1;stroke-miterlimit:10;" d="M 170.328125 124.933594 L 170.507812 125.679688 L 170.957031 126.515625 L 171.675781 127.308594 L 173.113281 128.054688 L 174.730469 128.40625 L 176.347656 128.363281 L 177.964844 127.964844 L 178.863281 127.261719 L 179.402344 126.515625 L 179.492188 125.460938 L 179.3125 124.273438 L 178.863281 122.824219 L 177.964844 121.332031 L 176.617188 120.320312 L 175.089844 119.925781 L 173.652344 119.96875 L 172.574219 120.230469 L 171.945312 120.582031 L 171.675781 120.847656 " transform="matrix(1,0,0,-1,0,183.75)"/>
<path style="fill:none;stroke-width:2.26;stroke-linecap:round;stroke-linejoin:round;stroke:rgb(0%,0%,0%);stroke-opacity:1;stroke-miterlimit:10;" d="M 140 72.40625 L 146.6875 72.125 " transform="matrix(1,0,0,-1,0,183.75)"/>
<path style="fill:none;stroke-width:2.26;stroke-linecap:round;stroke-linejoin:round;stroke:rgb(0%,0%,0%);stroke-opacity:1;stroke-miterlimit:10;" d="M 147.5625 71.6875 L 147.574219 65.6875 L 147.582031 59.6875 L 147.59375 53.6875 " transform="matrix(1,0,0,-1,0,183.75)"/>
<path style="fill:none;stroke-width:2.26;stroke-linecap:round;stroke-linejoin:round;stroke:rgb(0%,0%,0%);stroke-opacity:1;stroke-miterlimit:10;" d="M 147.5 53.71875 L 141.34375 53.84375 " transform="matrix(1,0,0,-1,0,183.75)"/>
<path style="fill:none;stroke-width:2.26;stroke-linecap:round;stroke-linejoin:round;stroke:rgb(0%,0%,0%);stroke-opacity:1;stroke-miterlimit:10;" d="M 141.46875 53.46875 L 142.0625 38.625 " transform="matrix(1,0,0,-1,0,183.75)"/>
<path style="fill:none;stroke-width:2.26;stroke-linecap:round;stroke-linejoin:round;stroke:rgb(0%,0%,0%);stroke-opacity:1;stroke-miterlimit:10;" d="M 142.21875 38.5 L 147.566406 38.378906 L 152.910156 38.261719 L 158.257812 38.140625 L 163.605469 38.023438 L 168.953125 37.902344 L 174.296875 37.785156 L 179.644531 37.664062 L 184.992188 37.546875 L 190.339844 37.425781 L 195.683594 37.308594 L 201.03125 37.1875 " transform="matrix(1,0,0,-1,0,183.75)"/>
<path style="fill:none;stroke-width:2.26;stroke-linecap:round;stroke-linejoin:round;stroke:rgb(0%,0%,0%);stroke-opacity:1;stroke-miterlimit:10;" d="M 198.9375 160.90625 L 199.78125 39.125 " transform="matrix(1,0,0,-1,0,183.75)"/>
<path style="fill:none;stroke-width:1.41;stroke-linecap:round;stroke-linejoin:round;stroke:rgb(0%,0%,0%);stroke-opacity:1;stroke-miterlimit:10;" d="M 152.03125 134.71875 L 151.875 134.5 L 151.84375 134.75 L 151.96875 135.5 L 152.375 136.90625 L 153.03125 139.15625 L 153.71875 141.21875 L 154.375 142.84375 L 155.03125 143.25 L 155.65625 142.09375 L 156.46875 140 L 157.3125 137.46875 L 158.0625 135.40625 L 158.53125 134.125 L 158.75 133.53125 L 158.625 133.75 " transform="matrix(1,0,0,-1,0,183.75)"/>
<path style="fill:none;stroke-width:1.41;stroke-linecap:round;stroke-linejoin:round;stroke:rgb(0%,0%,0%);stroke-opacity:1;stroke-miterlimit:10;" d="M 153.34375 137.75 L 153.5625 137.84375 L 154.46875 138 L 155.71875 138.15625 L 156.96875 138.25 L 157.84375 138.34375 " transform="matrix(1,0,0,-1,0,183.75)"/>
<path style="fill:none;stroke-width:1.41;stroke-linecap:round;stroke-linejoin:round;stroke:rgb(0%,0%,0%);stroke-opacity:1;stroke-miterlimit:10;" d="M 153.09375 104.1875 L 153.28125 104.3125 L 153.34375 104.0625 L 153.3125 103.21875 L 153.1875 101.5625 L 153.0625 99.8125 L 153.03125 98.34375 L 152.96875 97.34375 L 152.9375 97.0625 " transform="matrix(1,0,0,-1,0,183.75)"/>
<path style="fill:none;stroke-width:1.41;stroke-linecap:round;stroke-linejoin:round;stroke:rgb(0%,0%,0%);stroke-opacity:1;stroke-miterlimit:10;" d="M 153.03125 103.28125 L 153.4375 103.875 L 154.1875 104.59375 L 155.40625 105.15625 L 156.8125 105.21875 L 157.8125 104.65625 L 158.03125 103.625 L 157.21875 102.34375 L 155.9375 101.40625 L 154.71875 100.90625 L 154.15625 100.75 L 154.84375 100.71875 L 156.1875 100.46875 L 157.6875 99.96875 L 158.6875 99.21875 L 158.65625 98.34375 L 158.09375 97.6875 L 157.25 97.15625 L 156.40625 96.84375 L 155.59375 96.71875 L 154.75 96.75 L 153.90625 97 L 153.21875 97.375 L 152.8125 97.71875 L 152.6875 98 " transform="matrix(1,0,0,-1,0,183.75)"/>
<path style="fill:none;stroke-width:1.41;stroke-linecap:round;stroke-linejoin:round;stroke:rgb(0%,0%,0%);stroke-opacity:1;stroke-miterlimit:10;" d="M 154.78125 65.71875 L 154.8125 65.21875 L 154.75 63.6875 L 154.65625 61.75 L 154.5 59.78125 L 154.40625 58.625 L 154.375 58.15625 " transform="matrix(1,0,0,-1,0,183.75)"/>
<path style="fill:none;stroke-width:1.41;stroke-linecap:round;stroke-linejoin:round;stroke:rgb(0%,0%,0%);stroke-opacity:1;stroke-miterlimit:10;" d="M 154.0625 60.875 L 154.0625 61.21875 L 154.59375 61.5625 L 155.84375 61.90625 L 157.3125 62.28125 L 158.8125 62.53125 L 159.78125 62.625 L 160.09375 62.625 " transform="matrix(1,0,0,-1,0,183.75)"/>
<path style="fill:none;stroke-width:1.41;stroke-linecap:round;stroke-linejoin:round;stroke:rgb(0%,0%,0%);stroke-opacity:1;stroke-miterlimit:10;" d="M 160.71875 67.03125 L 160.625 66.21875 L 160.625 63.03125 L 160.5 60.25 L 160.375 58.3125 L 160.28125 56.6875 L 160.15625 55.46875 " transform="matrix(1,0,0,-1,0,183.75)"/>
<path style="fill:none;stroke-width:2.26;stroke-linecap:round;stroke-linejoin:round;stroke:rgb(0%,0%,0%);stroke-opacity:1;stroke-miterlimit:10;" d="M 51.394531 163.257812 L 50.945312 153.5 " transform="matrix(1,0,0,-1,0,183.75)"/>
<path style="fill:none;stroke-width:2.26;stroke-linecap:round;stroke-linejoin:round;stroke:rgb(0%,0%,0%);stroke-opacity:1;stroke-miterlimit:10;" d="M 49.597656 132.933594 L 49.507812 123.179688 " transform="matrix(1,0,0,-1,0,183.75)"/>
<path style="fill:none;stroke-width:2.26;stroke-linecap:round;stroke-linejoin:round;stroke:rgb(0%,0%,0%);stroke-opacity:1;stroke-miterlimit:10;" d="M 49.597656 123.179688 L 54.765625 123.09375 L 59.929688 123.011719 L 65.097656 122.929688 L 70.261719 122.84375 L 75.429688 122.761719 L 80.59375 122.679688 L 85.761719 122.59375 L 90.925781 122.511719 L 96.09375 122.425781 L 101.257812 122.34375 " transform="matrix(1,0,0,-1,0,183.75)"/>
<path style="fill:none;stroke-width:2.26;stroke-linecap:round;stroke-linejoin:round;stroke:rgb(0%,0%,0%);stroke-opacity:1;stroke-miterlimit:10;" d="M 101.347656 122.695312 L 101.707031 130.167969 " transform="matrix(1,0,0,-1,0,183.75)"/>
<path style="fill:none;stroke-width:2.26;stroke-linecap:round;stroke-linejoin:round;stroke:rgb(0%,0%,0%);stroke-opacity:1;stroke-miterlimit:10;" d="M 99.191406 153.941406 L 99.191406 162.640625 " transform="matrix(1,0,0,-1,0,183.75)"/>
<path style="fill:none;stroke-width:2.26;stroke-linecap:round;stroke-linejoin:round;stroke:rgb(0%,0%,0%);stroke-opacity:1;stroke-miterlimit:10;" d="M 99.371094 162.597656 L 88.847656 162.675781 L 83.589844 162.714844 L 67.804688 162.832031 L 62.546875 162.871094 L 52.023438 162.949219 " transform="matrix(1,0,0,-1,0,183.75)"/>
<path style="fill:none;stroke-width:2.26;stroke-linecap:round;stroke-linejoin:round;stroke:rgb(0%,0%,0%);stroke-opacity:1;stroke-miterlimit:10;" d="M 50.855469 153.195312 L 57.054688 153.195312 " transform="matrix(1,0,0,-1,0,183.75)"/>
<path style="fill:none;stroke-width:2.26;stroke-linecap:round;stroke-linejoin:round;stroke:rgb(0%,0%,0%);stroke-opacity:1;stroke-miterlimit:10;" d="M 56.875 152.753906 L 56.816406 146.265625 L 56.753906 139.777344 L 56.695312 133.285156 " transform="matrix(1,0,0,-1,0,183.75)"/>
<path style="fill:none;stroke-width:2.26;stroke-linecap:round;stroke-linejoin:round;stroke:rgb(0%,0%,0%);stroke-opacity:1;stroke-miterlimit:10;" d="M 56.695312 133.417969 L 49.777344 133.683594 " transform="matrix(1,0,0,-1,0,183.75)"/>
<path style="fill:none;stroke-width:2.26;stroke-linecap:round;stroke-linejoin:round;stroke:rgb(0%,0%,0%);stroke-opacity:1;stroke-miterlimit:10;" d="M 100.628906 154.292969 L 105.300781 153.851562 " transform="matrix(1,0,0,-1,0,183.75)"/>
<path style="fill:none;stroke-width:2.26;stroke-linecap:round;stroke-linejoin:round;stroke:rgb(0%,0%,0%);stroke-opacity:1;stroke-miterlimit:10;" d="M 105.839844 153.851562 L 106.558594 132.054688 " transform="matrix(1,0,0,-1,0,183.75)"/>
<path style="fill:none;stroke-width:2.26;stroke-linecap:round;stroke-linejoin:round;stroke:rgb(0%,0%,0%);stroke-opacity:1;stroke-miterlimit:10;" d="M 106.738281 131.925781 L 101.527344 131.265625 " transform="matrix(1,0,0,-1,0,183.75)"/>
<path style="fill:none;stroke-width:2.26;stroke-linecap:round;stroke-linejoin:round;stroke:rgb(0%,0%,0%);stroke-opacity:1;stroke-miterlimit:10;" d="M 82.839844 151.613281 L 82.660156 151.964844 L 82.480469 152.359375 L 81.941406 152.796875 L 80.953125 153.195312 L 79.695312 153.148438 L 78.257812 152.753906 L 77 151.832031 L 76.191406 150.644531 L 75.832031 149.238281 L 76.371094 147.921875 L 77.539062 147.085938 L 79.246094 146.867188 L 81.042969 147.304688 L 82.300781 148.273438 L 83.199219 149.238281 L 83.558594 150.207031 L 83.648438 150.734375 L 83.558594 150.953125 L 83.378906 150.292969 L 83.019531 149.238281 L 82.660156 147.789062 L 82.390625 145.988281 L 81.941406 144.097656 L 81.492188 141.371094 L 81.042969 138.207031 L 80.683594 134.867188 L 80.59375 132.320312 L 81.042969 131.046875 L 82.03125 130.871094 L 83.199219 131.527344 L 84.1875 132.539062 L 84.90625 133.460938 L 84.90625 134.164062 L 84.277344 134.867188 L 83.289062 135.484375 L 82.210938 136.054688 L 81.402344 136.671875 L 81.222656 137.109375 L 81.492188 137.460938 L 82.03125 137.902344 L 82.570312 138.296875 L 83.378906 138.867188 L 84.097656 139.4375 L 84.636719 140.054688 L 84.996094 140.625 L 85.085938 140.976562 L 85.085938 141.285156 " transform="matrix(1,0,0,-1,0,183.75)"/>
<path style="fill:none;stroke-width:2.26;stroke-linecap:round;stroke-linejoin:round;stroke:rgb(0%,0%,0%);stroke-opacity:1;stroke-miterlimit:10;" d="M 51.175781 115.257812 L 50.726562 105.5 " transform="matrix(1,0,0,-1,0,183.75)"/>
<path style="fill:none;stroke-width:2.26;stroke-linecap:round;stroke-linejoin:round;stroke:rgb(0%,0%,0%);stroke-opacity:1;stroke-miterlimit:10;" d="M 49.378906 84.933594 L 49.289062 75.179688 " transform="matrix(1,0,0,-1,0,183.75)"/>
<path style="fill:none;stroke-width:2.26;stroke-linecap:round;stroke-linejoin:round;stroke:rgb(0%,0%,0%);stroke-opacity:1;stroke-miterlimit:10;" d="M 49.378906 75.179688 L 54.546875 75.09375 L 59.710938 75.011719 L 64.878906 74.929688 L 70.042969 74.84375 L 75.210938 74.761719 L 80.375 74.679688 L 85.542969 74.59375 L 90.707031 74.511719 L 95.875 74.425781 L 101.039062 74.34375 " transform="matrix(1,0,0,-1,0,183.75)"/>
<path style="fill:none;stroke-width:2.26;stroke-linecap:round;stroke-linejoin:round;stroke:rgb(0%,0%,0%);stroke-opacity:1;stroke-miterlimit:10;" d="M 101.128906 74.695312 L 101.488281 82.167969 " transform="matrix(1,0,0,-1,0,183.75)"/>
<path style="fill:none;stroke-width:2.26;stroke-linecap:round;stroke-linejoin:round;stroke:rgb(0%,0%,0%);stroke-opacity:1;stroke-miterlimit:10;" d="M 98.972656 105.941406 L 98.972656 114.640625 " transform="matrix(1,0,0,-1,0,183.75)"/>
<path style="fill:none;stroke-width:2.26;stroke-linecap:round;stroke-linejoin:round;stroke:rgb(0%,0%,0%);stroke-opacity:1;stroke-miterlimit:10;" d="M 99.152344 114.597656 L 88.628906 114.675781 L 83.371094 114.714844 L 67.585938 114.832031 L 62.328125 114.871094 L 51.804688 114.949219 " transform="matrix(1,0,0,-1,0,183.75)"/>
<path style="fill:none;stroke-width:2.26;stroke-linecap:round;stroke-linejoin:round;stroke:rgb(0%,0%,0%);stroke-opacity:1;stroke-miterlimit:10;" d="M 50.636719 105.195312 L 56.835938 105.195312 " transform="matrix(1,0,0,-1,0,183.75)"/>
<path style="fill:none;stroke-width:2.26;stroke-linecap:round;stroke-linejoin:round;stroke:rgb(0%,0%,0%);stroke-opacity:1;stroke-miterlimit:10;" d="M 56.65625 104.753906 L 56.597656 98.265625 L 56.535156 91.777344 L 56.476562 85.285156 " transform="matrix(1,0,0,-1,0,183.75)"/>
<path style="fill:none;stroke-width:2.26;stroke-linecap:round;stroke-linejoin:round;stroke:rgb(0%,0%,0%);stroke-opacity:1;stroke-miterlimit:10;" d="M 56.476562 85.417969 L 49.558594 85.683594 " transform="matrix(1,0,0,-1,0,183.75)"/>
<path style="fill:none;stroke-width:2.26;stroke-linecap:round;stroke-linejoin:round;stroke:rgb(0%,0%,0%);stroke-opacity:1;stroke-miterlimit:10;" d="M 100.410156 106.292969 L 105.082031 105.851562 " transform="matrix(1,0,0,-1,0,183.75)"/>
<path style="fill:none;stroke-width:2.26;stroke-linecap:round;stroke-linejoin:round;stroke:rgb(0%,0%,0%);stroke-opacity:1;stroke-miterlimit:10;" d="M 105.621094 105.851562 L 106.339844 84.054688 " transform="matrix(1,0,0,-1,0,183.75)"/>
<path style="fill:none;stroke-width:2.26;stroke-linecap:round;stroke-linejoin:round;stroke:rgb(0%,0%,0%);stroke-opacity:1;stroke-miterlimit:10;" d="M 106.519531 83.925781 L 101.308594 83.265625 " transform="matrix(1,0,0,-1,0,183.75)"/>
<path style="fill:none;stroke-width:2.26;stroke-linecap:round;stroke-linejoin:round;stroke:rgb(0%,0%,0%);stroke-opacity:1;stroke-miterlimit:10;" d="M 82.621094 103.613281 L 82.441406 103.964844 L 82.261719 104.359375 L 81.722656 104.796875 L 80.734375 105.195312 L 79.476562 105.148438 L 78.039062 104.753906 L 76.78125 103.832031 L 75.972656 102.644531 L 75.613281 101.238281 L 76.152344 99.921875 L 77.320312 99.085938 L 79.027344 98.867188 L 80.824219 99.304688 L 82.082031 100.273438 L 82.980469 101.238281 L 83.339844 102.207031 L 83.429688 102.734375 L 83.339844 102.953125 L 83.160156 102.292969 L 82.800781 101.238281 L 82.441406 99.789062 L 82.171875 97.988281 L 81.722656 96.097656 L 81.273438 93.371094 L 80.824219 90.207031 L 80.464844 86.867188 L 80.375 84.320312 L 80.824219 83.046875 L 81.8125 82.871094 L 82.980469 83.527344 L 83.96875 84.539062 L 84.6875 85.460938 L 84.6875 86.164062 L 84.058594 86.867188 L 83.070312 87.484375 L 81.992188 88.054688 L 81.183594 88.671875 L 81.003906 89.109375 L 81.273438 89.460938 L 81.8125 89.902344 L 82.351562 90.296875 L 83.160156 90.867188 L 83.878906 91.4375 L 84.417969 92.054688 L 84.777344 92.625 L 84.867188 92.976562 L 84.867188 93.285156 " transform="matrix(1,0,0,-1,0,183.75)"/>
<path style="fill:none;stroke-width:2.26;stroke-linecap:round;stroke-linejoin:round;stroke:rgb(0%,0%,0%);stroke-opacity:1;stroke-miterlimit:10;" d="M 107.3125 140.75 L 107.21875 140.5 L 107.28125 140.1875 L 107.46875 140.03125 L 108 139.90625 L 108.84375 139.78125 L 110.0625 139.71875 L 112 139.6875 L 116.6875 139.6875 L 119.40625 139.65625 L 121.9375 139.625 L 124.5625 139.625 L 127.3125 139.6875 L 129.8125 139.78125 L 132.21875 139.875 L 134.84375 139.90625 L 142 139.90625 L 142.5 139.875 L 143.5 139.875 L 144.15625 139.8125 L 144.8125 139.78125 L 145.28125 139.75 L 145.65625 139.6875 L 146.09375 139.65625 L 146.34375 139.625 L 146 139.90625 " transform="matrix(1,0,0,-1,0,183.75)"/>
<path style="fill:none;stroke-width:2.26;stroke-linecap:round;stroke-linejoin:round;stroke:rgb(0%,0%,0%);stroke-opacity:1;stroke-miterlimit:10;" d="M 105.78125 98.1875 L 106.34375 97.875 L 107.15625 97.90625 L 108.28125 98 L 110 98.125 L 112.03125 98.21875 L 114.375 98.375 L 117.0625 98.5625 L 119.53125 98.75 L 121.875 98.90625 L 124.40625 99 L 130.96875 99 L 132.875 98.96875 L 134.71875 98.9375 L 136.4375 98.9375 L 138.125 98.96875 L 141 99.15625 L 142.3125 99.21875 L 143.3125 99.25 L 144 99.28125 L 144.40625 99.3125 L 144.75 99.375 L 145.03125 99.375 L 145.28125 99.3125 L 145.9375 99.09375 " transform="matrix(1,0,0,-1,0,183.75)"/>
<path style="fill:none;stroke-width:2.26;stroke-linecap:round;stroke-linejoin:round;stroke:rgb(0%,0%,0%);stroke-opacity:1;stroke-miterlimit:10;" d="M 29.375 95.71875 L 29.78125 95.625 L 30.75 95.59375 L 32.125 95.5625 L 34.28125 95.59375 L 36.78125 95.6875 L 39.5 95.8125 L 42.21875 95.90625 L 44.40625 95.96875 L 46.25 96 L 49.40625 96 L 50.53125 95.96875 L 51.40625 95.90625 L 51.875 95.875 L 52.40625 95.84375 L 53.5625 95.84375 L 54.125 95.875 L 54.59375 95.90625 L 54.875 95.9375 L 55.1875 95.96875 L 55.46875 95.9375 " transform="matrix(1,0,0,-1,0,183.75)"/>
<path style="fill:none;stroke-width:2.26;stroke-linecap:round;stroke-linejoin:round;stroke:rgb(0%,0%,0%);stroke-opacity:1;stroke-miterlimit:10;" d="M 29.53125 143.28125 L 30.09375 143.28125 L 30.84375 143.3125 L 32.53125 143.375 L 34.9375 143.375 L 37.8125 143.3125 L 40.9375 143.21875 L 43.53125 143.15625 L 45.75 143.15625 L 47.8125 143.25 L 49.40625 143.3125 L 50.875 143.375 L 52.25 143.46875 L 53.21875 143.53125 L 54.03125 143.625 L 54.625 143.6875 L 54.875 143.71875 L 55.40625 143.71875 L 55.6875 143.6875 " transform="matrix(1,0,0,-1,0,183.75)"/>
<path style="fill:none;stroke-width:1.41;stroke-linecap:round;stroke-linejoin:round;stroke:rgb(0%,0%,0%);stroke-opacity:1;stroke-miterlimit:10;" d="M 12.8125 149.5625 L 13 149.4375 L 13.15625 148.15625 L 13.34375 146.15625 L 13.5 143.78125 L 13.59375 141.625 L 13.59375 140.28125 L 13.625 139.625 L 13.625 139.34375 " transform="matrix(1,0,0,-1,0,183.75)"/>
<path style="fill:none;stroke-width:1.41;stroke-linecap:round;stroke-linejoin:round;stroke:rgb(0%,0%,0%);stroke-opacity:1;stroke-miterlimit:10;" d="M 14 143.0625 L 14.09375 143.3125 L 14.90625 143.53125 L 16 143.84375 L 17.1875 144.125 L 18.59375 144.3125 L 18.9375 144.25 " transform="matrix(1,0,0,-1,0,183.75)"/>
<path style="fill:none;stroke-width:1.41;stroke-linecap:round;stroke-linejoin:round;stroke:rgb(0%,0%,0%);stroke-opacity:1;stroke-miterlimit:10;" d="M 19.90625 147.8125 L 19.875 148.375 L 20.03125 148.09375 L 20.09375 147.25 L 20.15625 146.03125 L 20.15625 141.1875 L 20.125 139.875 L 20.125 139.125 " transform="matrix(1,0,0,-1,0,183.75)"/>
<path style="fill:none;stroke-width:1.41;stroke-linecap:round;stroke-linejoin:round;stroke:rgb(0%,0%,0%);stroke-opacity:1;stroke-miterlimit:10;" d="M 13.75 98.75 L 13.6875 98.96875 L 13.6875 98.625 L 13.8125 97.40625 L 13.96875 95.46875 L 14.125 93.40625 L 14.15625 91.78125 L 14.125 90.78125 L 14.0625 90.46875 L 14.03125 90.15625 " transform="matrix(1,0,0,-1,0,183.75)"/>
<path style="fill:none;stroke-width:1.41;stroke-linecap:round;stroke-linejoin:round;stroke:rgb(0%,0%,0%);stroke-opacity:1;stroke-miterlimit:10;" d="M 14.375 93.5 L 14.625 93.8125 L 15.125 94.125 L 15.96875 94.40625 L 17.0625 94.5625 L 18.34375 94.78125 L 19.5 94.90625 L 20.25 95 L 20.65625 95.09375 L 20.9375 95.125 " transform="matrix(1,0,0,-1,0,183.75)"/>
<path style="fill:none;stroke-width:1.41;stroke-linecap:round;stroke-linejoin:round;stroke:rgb(0%,0%,0%);stroke-opacity:1;stroke-miterlimit:10;" d="M 22.3125 99.8125 L 22.09375 99.5625 L 22.09375 98.3125 L 22.0625 95.8125 L 22 92.875 L 22 88.59375 L 22.03125 88.09375 " transform="matrix(1,0,0,-1,0,183.75)"/>
<path style="fill:none;stroke-width:1.41;stroke-linecap:round;stroke-linejoin:round;stroke:rgb(0%,0%,0%);stroke-opacity:1;stroke-miterlimit:10;" d="M 94.96875 146.75 L 95.28125 146.59375 L 95.4375 145.78125 L 95.5 144.15625 L 95.375 142.0625 L 95.28125 140.3125 L 95.1875 139.125 L 95.125 138.65625 L 95.28125 138.9375 " transform="matrix(1,0,0,-1,0,183.75)"/>
<path style="fill:none;stroke-width:1.41;stroke-linecap:round;stroke-linejoin:round;stroke:rgb(0%,0%,0%);stroke-opacity:1;stroke-miterlimit:10;" d="M 96.6875 145.90625 L 96.75 146.4375 L 97.34375 146.8125 L 98.34375 146.96875 L 99.59375 146.84375 L 100.65625 146.21875 L 101.03125 145.40625 L 100.625 144.53125 L 99.65625 143.84375 L 98.59375 143.4375 L 98.03125 143.25 L 98.5 143 L 99.5 142.46875 L 100.75 141.59375 L 101.34375 140.3125 L 100.90625 138.9375 L 99.8125 137.75 L 98.34375 137.15625 L 97.1875 137.09375 L 96.4375 137.375 L 96.15625 137.75 " transform="matrix(1,0,0,-1,0,183.75)"/>
<path style="fill:none;stroke-width:1.41;stroke-linecap:round;stroke-linejoin:round;stroke:rgb(0%,0%,0%);stroke-opacity:1;stroke-miterlimit:10;" d="M 97.125 98.625 L 96.96875 98.375 L 96.90625 97.53125 L 96.90625 92.40625 L 96.875 91.3125 L 96.84375 90.9375 " transform="matrix(1,0,0,-1,0,183.75)"/>
<path style="fill:none;stroke-width:1.41;stroke-linecap:round;stroke-linejoin:round;stroke:rgb(0%,0%,0%);stroke-opacity:1;stroke-miterlimit:10;" d="M 96.96875 99.4375 L 97.25 99.9375 L 97.90625 100.21875 L 98.90625 100.25 L 100.03125 99.75 L 100.71875 98.8125 L 100.75 97.59375 L 100.09375 96.40625 L 99.1875 95.625 L 98.5 95.40625 L 99.03125 95.5625 L 99.71875 95.5 L 100.375 95.1875 L 100.78125 94.71875 L 101.15625 94.03125 L 101.40625 93.375 L 101.5625 92.71875 L 101.5 92.1875 L 101.375 91.8125 L 101.15625 91.46875 L 100.84375 91.09375 L 100.03125 90.46875 L 99.25 90.375 L 98.34375 90.40625 L 97.5 90.625 L 96.8125 90.90625 L 96.59375 91.15625 " transform="matrix(1,0,0,-1,0,183.75)"/>
<path style="fill:none;stroke-width:1.41;stroke-linecap:round;stroke-linejoin:round;stroke:rgb(0%,0%,0%);stroke-opacity:1;stroke-miterlimit:10;" d="M 61.1875 100.0625 L 61.1875 99.09375 L 61.25 97.6875 L 61.3125 95.8125 L 61.34375 93.96875 L 61.34375 92.15625 L 61.21875 92.46875 " transform="matrix(1,0,0,-1,0,183.75)"/>
<path style="fill:none;stroke-width:1.41;stroke-linecap:round;stroke-linejoin:round;stroke:rgb(0%,0%,0%);stroke-opacity:1;stroke-miterlimit:10;" d="M 61.46875 94.46875 L 61.65625 94.78125 L 61.84375 95.03125 L 62.15625 95.25 L 62.59375 95.40625 L 63.1875 95.5625 L 64.15625 95.8125 L 65 96.09375 L 65.65625 96.25 L 66.1875 96.5 " transform="matrix(1,0,0,-1,0,183.75)"/>
<path style="fill:none;stroke-width:1.41;stroke-linecap:round;stroke-linejoin:round;stroke:rgb(0%,0%,0%);stroke-opacity:1;stroke-miterlimit:10;" d="M 66.21875 99.6875 L 66.125 100.0625 L 66.34375 99.75 L 66.4375 99.1875 L 66.53125 98.1875 L 66.59375 97.15625 L 66.53125 95.5625 L 66.59375 94 L 66.59375 92.90625 L 66.53125 92.0625 " transform="matrix(1,0,0,-1,0,183.75)"/>
<path style="fill:none;stroke-width:1.41;stroke-linecap:round;stroke-linejoin:round;stroke:rgb(0%,0%,0%);stroke-opacity:1;stroke-miterlimit:10;" d="M 62.0625 146.75 L 62.0625 146.4375 L 61.9375 145.15625 L 61.78125 143.40625 L 61.59375 141.5 L 61.4375 140.1875 L 61.34375 139.53125 " transform="matrix(1,0,0,-1,0,183.75)"/>
<path style="fill:none;stroke-width:1.41;stroke-linecap:round;stroke-linejoin:round;stroke:rgb(0%,0%,0%);stroke-opacity:1;stroke-miterlimit:10;" d="M 62.125 142.09375 L 62.8125 142.59375 L 63.84375 142.9375 L 65 143.21875 L 66.1875 143.375 L 66.8125 143.34375 L 67.0625 143.40625 " transform="matrix(1,0,0,-1,0,183.75)"/>
<path style="fill:none;stroke-width:1.41;stroke-linecap:round;stroke-linejoin:round;stroke:rgb(0%,0%,0%);stroke-opacity:1;stroke-miterlimit:10;" d="M 67.84375 146.53125 L 67.96875 146.28125 L 68.0625 145.75 L 68.1875 144.8125 L 68.3125 143.59375 L 68.3125 142.5625 L 68.28125 140.71875 L 68.28125 136.625 " transform="matrix(1,0,0,-1,0,183.75)"/>
<path style="fill:none;stroke-width:2.26;stroke-linecap:round;stroke-linejoin:round;stroke:rgb(0%,0%,0%);stroke-opacity:1;stroke-miterlimit:10;" d="M 30.53125 52.90625 L 30.90625 52.59375 L 31.875 52.40625 L 33.625 52.25 L 35.8125 52.1875 L 38.25 52.25 L 41.09375 52.34375 L 43.8125 52.40625 L 46.6875 52.46875 L 49.71875 52.5 L 54.5625 52.5 L 56.65625 52.4375 L 58.9375 52.34375 L 61.4375 52.21875 L 63.84375 52.125 L 66.3125 52.03125 L 68.4375 51.9375 L 70.59375 51.84375 L 73.1875 51.75 L 75.65625 51.65625 L 78 51.5625 L 80.3125 51.4375 L 82.40625 51.34375 L 84.53125 51.25 L 86.9375 51.1875 L 89.25 51.125 L 91.53125 51.0625 L 93.75 50.96875 L 95.5625 50.84375 L 97.1875 50.71875 L 98.96875 50.5625 L 100.71875 50.46875 L 102.5 50.375 L 104.375 50.28125 L 105.9375 50.21875 L 107.28125 50.21875 L 108.59375 50.34375 L 109.75 50.5 L 110.875 50.75 L 112.0625 51.125 L 113.1875 51.5625 L 114.25 52.03125 L 115.28125 52.5 L 116.15625 52.90625 L 117.03125 53.34375 L 117.875 53.78125 L 118.71875 54.3125 L 119.46875 54.8125 L 120.15625 55.40625 L 120.875 56.0625 L 121.5 56.625 L 122.21875 57.25 L 123.0625 57.84375 L 123.96875 58.375 L 125.0625 58.9375 L 126.21875 59.46875 L 127.375 59.9375 L 128.78125 60.5 L 130.21875 61.03125 L 131.46875 61.5 L 132.65625 61.90625 L 133.71875 62.1875 L 134.78125 62.4375 L 135.90625 62.6875 L 137.125 62.8125 L 138.15625 62.875 L 139.09375 62.90625 L 141.21875 62.90625 L 142.53125 62.9375 L 145.09375 62.9375 L 145.96875 62.90625 L 146.4375 62.875 L 146.65625 62.8125 L 147.1875 62.71875 L 147.5 62.6875 L 147.75 62.6875 " transform="matrix(1,0,0,-1,0,183.75)"/>
<path style="fill:none;stroke-width:1.41;stroke-linecap:round;stroke-linejoin:round;stroke:rgb(0%,0%,0%);stroke-opacity:1;stroke-miterlimit:10;" d="M 15.21875 58.75 L 15.125 58.96875 L 15.125 58.25 L 15.09375 57 L 15.0625 55.46875 L 15.0625 53.625 L 15.125 51.875 L 15.21875 50.5 L 15.28125 49.4375 L 15.21875 48.875 " transform="matrix(1,0,0,-1,0,183.75)"/>
<path style="fill:none;stroke-width:1.41;stroke-linecap:round;stroke-linejoin:round;stroke:rgb(0%,0%,0%);stroke-opacity:1;stroke-miterlimit:10;" d="M 15.09375 52.3125 L 15 52.5625 L 15.09375 52.78125 L 15.3125 52.9375 L 15.65625 53.03125 L 16.09375 53.15625 L 16.5625 53.25 L 17.0625 53.3125 L 17.84375 53.4375 L 18.625 53.5 L 19.375 53.625 L 20.25 53.71875 L 20.8125 53.84375 L 21.25 53.96875 L 21.5625 54.0625 " transform="matrix(1,0,0,-1,0,183.75)"/>
<path style="fill:none;stroke-width:1.41;stroke-linecap:round;stroke-linejoin:round;stroke:rgb(0%,0%,0%);stroke-opacity:1;stroke-miterlimit:10;" d="M 21.78125 58 L 21.71875 57.6875 L 21.71875 56.71875 L 21.6875 54.8125 L 21.65625 52.53125 L 21.5625 50.28125 L 21.46875 48.53125 L 21.46875 47.65625 " transform="matrix(1,0,0,-1,0,183.75)"/>
<path style="fill:none;stroke-width:2.26;stroke-linecap:round;stroke-linejoin:round;stroke:rgb(19.999695%,19.999695%,79.998779%);stroke-opacity:1;stroke-miterlimit:10;" d="M 214.5625 110.3125 L 216.28125 110.34375 L 219.0625 110.34375 L 222.125 110.28125 L 225.28125 110.1875 L 227.65625 110.0625 L 228.96875 110.03125 L 229.90625 110.03125 L 230.59375 110.09375 L 230.875 110.09375 L 231.15625 110.0625 " transform="matrix(1,0,0,-1,0,183.75)"/>
<path style="fill:none;stroke-width:2.26;stroke-linecap:round;stroke-linejoin:round;stroke:rgb(19.999695%,19.999695%,79.998779%);stroke-opacity:1;stroke-miterlimit:10;" d="M 214.90625 104.53125 L 215.75 104.34375 L 217.46875 104.15625 L 220.125 104.03125 L 223.25 104.125 L 225.9375 104.28125 L 227.9375 104.4375 L 229.28125 104.53125 L 229.875 104.5625 L 230.28125 104.59375 L 230.71875 104.5625 L 231 104.5 " transform="matrix(1,0,0,-1,0,183.75)"/>
<path style="fill:none;stroke-width:2.26;stroke-linecap:round;stroke-linejoin:round;stroke:rgb(19.999695%,19.999695%,79.998779%);stroke-opacity:1;stroke-miterlimit:10;" d="M 213.875 97.21875 L 214.28125 97.15625 L 216 97.25 L 218.6875 97.34375 L 222.15625 97.40625 L 225.875 97.5 L 228.59375 97.5625 L 230.375 97.625 L 231.34375 97.71875 L 231.65625 97.75 " transform="matrix(1,0,0,-1,0,183.75)"/>
<path style="fill:none;stroke-width:1.41;stroke-linecap:round;stroke-linejoin:round;stroke:rgb(0%,0%,0%);stroke-opacity:1;stroke-miterlimit:10;" d="M 92.03125 19.0625 L 92.0625 18.6875 L 92 17.125 L 91.84375 14.46875 L 91.71875 11.375 L 91.53125 8.875 L 91.375 7.3125 L 91.3125 6.875 L 91.21875 7.1875 " transform="matrix(1,0,0,-1,0,183.75)"/>
<path style="fill:none;stroke-width:1.41;stroke-linecap:round;stroke-linejoin:round;stroke:rgb(0%,0%,0%);stroke-opacity:1;stroke-miterlimit:10;" d="M 92.3125 18.09375 L 92.15625 18.59375 L 92.3125 19.15625 L 93 19.625 L 94 19.78125 L 95.28125 19.65625 L 96.5 18.78125 L 97.21875 17.5 L 97.25 16.1875 L 96.375 15.03125 L 95.03125 14.4375 L 93.75 14.15625 L 92.71875 14.1875 L 92.28125 14.3125 L 92.28125 14.6875 " transform="matrix(1,0,0,-1,0,183.75)"/>
<path style="fill:none;stroke-width:1.41;stroke-linecap:round;stroke-linejoin:round;stroke:rgb(0%,0%,0%);stroke-opacity:1;stroke-miterlimit:10;" d="M 106.78125 26.6875 L 106.9375 26.5 L 106.625 26.375 L 105.9375 26.5 L 104.96875 26.71875 L 104.125 27 L 103.40625 27.21875 L 103.03125 27.09375 L 102.96875 26.34375 L 102.90625 24.6875 L 103.03125 21.65625 L 103.09375 18.09375 L 103.09375 14.5625 L 102.96875 11.65625 L 102.84375 10.09375 L 102.90625 9.375 L 103.4375 9.09375 L 104.1875 9.0625 L 105.03125 9.09375 L 105.71875 9.125 L 106.03125 9.1875 L 106.25 9.3125 " transform="matrix(1,0,0,-1,0,183.75)"/>
<path style="fill:none;stroke-width:1.41;stroke-linecap:round;stroke-linejoin:round;stroke:rgb(0%,0%,0%);stroke-opacity:1;stroke-miterlimit:10;" d="M 109.5 12.375 L 109.625 13.125 L 110.21875 14.40625 L 111.03125 16.46875 L 111.96875 18.875 L 112.84375 21.1875 L 113.5 22.78125 L 114 23.46875 L 114.4375 23.15625 L 115 21.53125 L 115.5625 18.90625 L 116.09375 15.9375 L 116.625 13.1875 L 116.96875 11.53125 L 117.15625 10.8125 L 116.9375 10.96875 " transform="matrix(1,0,0,-1,0,183.75)"/>
<path style="fill:none;stroke-width:1.41;stroke-linecap:round;stroke-linejoin:round;stroke:rgb(0%,0%,0%);stroke-opacity:1;stroke-miterlimit:10;" d="M 112.09375 16.375 L 111.84375 16.5 L 112.84375 16.375 L 115.21875 16.1875 L 116.15625 16.15625 L 116.4375 16.1875 " transform="matrix(1,0,0,-1,0,183.75)"/>
<path style="fill:none;stroke-width:1.41;stroke-linecap:round;stroke-linejoin:round;stroke:rgb(0%,0%,0%);stroke-opacity:1;stroke-miterlimit:10;" d="M 121.125 18.6875 L 121.6875 18.375 L 122.65625 18.1875 L 124.0625 18 L 125.40625 17.90625 L 126.46875 17.84375 L 127.125 17.84375 " transform="matrix(1,0,0,-1,0,183.75)"/>
<path style="fill:none;stroke-width:1.41;stroke-linecap:round;stroke-linejoin:round;stroke:rgb(0%,0%,0%);stroke-opacity:1;stroke-miterlimit:10;" d="M 122.28125 15.8125 L 122.8125 15.59375 L 124.875 15.59375 L 126 15.46875 L 126.75 15.3125 L 127.09375 15.15625 L 127.34375 15.125 " transform="matrix(1,0,0,-1,0,183.75)"/>
<path style="fill:none;stroke-width:1.41;stroke-linecap:round;stroke-linejoin:round;stroke:rgb(0%,0%,0%);stroke-opacity:1;stroke-miterlimit:10;" d="M 137.21875 17.875 L 137.40625 18.09375 L 137.46875 18.40625 L 137.40625 18.9375 L 137.125 19.71875 L 136.40625 20.40625 L 135.40625 20.46875 L 134.21875 19.78125 L 133.28125 18.375 L 132.9375 16.71875 L 133.40625 15.3125 L 134.59375 14.65625 L 136.0625 15.03125 L 137.34375 16.1875 L 138.28125 17.71875 L 138.65625 18.84375 L 138.46875 17.28125 L 138.125 14.15625 L 137.6875 10.46875 L 137.3125 7.03125 L 137.125 4.71875 L 137.1875 3.5625 L 137.34375 3 L 137.625 2.65625 L 138.21875 2.59375 L 138.875 2.71875 L 139.59375 2.96875 L 140.28125 3.3125 L 140.71875 3.625 L 141.0625 3.96875 L 141.40625 4.5 L 141.65625 5.40625 L 141.625 6.46875 L 141 7.75 L 140.0625 8.90625 L 139 9.75 L 138.625 10.59375 L 139.21875 11.28125 L 140.3125 11.96875 L 141.53125 12.71875 L 142.3125 13.21875 L 142.59375 13.53125 L 142.46875 13.9375 " transform="matrix(1,0,0,-1,0,183.75)"/>
<path style="fill:none;stroke-width:1.41;stroke-linecap:round;stroke-linejoin:round;stroke:rgb(0%,0%,0%);stroke-opacity:1;stroke-miterlimit:10;" d="M 148.25 25.53125 L 148.125 25.3125 L 147.59375 25.1875 L 146.78125 25.09375 L 146.09375 25.03125 L 145.59375 25.0625 L 145.40625 24.59375 L 145.53125 23.375 L 145.625 21.34375 L 145.65625 18.4375 L 145.59375 15.8125 L 145.46875 13.78125 L 145.375 12.5 L 145.46875 12 L 145.6875 11.75 L 146.03125 11.5625 L 146.5 11.46875 L 147.03125 11.40625 L 147.78125 11.375 L 148.78125 11.4375 L 149.75 11.53125 L 150.53125 11.625 L 150.96875 11.6875 L 150.6875 11.84375 " transform="matrix(1,0,0,-1,0,183.75)"/>
<path style="fill:none;stroke-width:1.41;stroke-linecap:round;stroke-linejoin:round;stroke:rgb(0%,0%,0%);stroke-opacity:1;stroke-miterlimit:10;" d="M 152.78125 22.8125 L 152.875 21.75 L 152.9375 20.5 L 153 18.9375 L 152.9375 17.5625 L 152.8125 16.3125 L 152.65625 15.25 L 152.53125 14.40625 L 152.40625 13.8125 " transform="matrix(1,0,0,-1,0,183.75)"/>
<path style="fill:none;stroke-width:1.41;stroke-linecap:round;stroke-linejoin:round;stroke:rgb(0%,0%,0%);stroke-opacity:1;stroke-miterlimit:10;" d="M 152.625 16.15625 L 153.21875 16.65625 L 154.21875 17.03125 L 155.46875 17.28125 L 156.6875 17.46875 L 157.5 17.5625 L 157.9375 17.8125 L 158.09375 18.15625 L 158.15625 18.46875 " transform="matrix(1,0,0,-1,0,183.75)"/>
<path style="fill:none;stroke-width:1.41;stroke-linecap:round;stroke-linejoin:round;stroke:rgb(0%,0%,0%);stroke-opacity:1;stroke-miterlimit:10;" d="M 158.96875 23.5625 L 159.03125 22.71875 L 159.0625 21.15625 L 159.03125 18.46875 L 158.90625 15.71875 L 158.8125 13.4375 L 158.875 12.1875 " transform="matrix(1,0,0,-1,0,183.75)"/>
<path style="fill:none;stroke-width:1.41;stroke-linecap:round;stroke-linejoin:round;stroke:rgb(0%,0%,0%);stroke-opacity:1;stroke-miterlimit:10;" d="M 163.6875 18.71875 L 164.40625 18.84375 L 165.4375 18.8125 L 166.71875 18.84375 L 167.9375 18.84375 L 168.53125 18.9375 L 168.96875 19 " transform="matrix(1,0,0,-1,0,183.75)"/>
<path style="fill:none;stroke-width:1.41;stroke-linecap:round;stroke-linejoin:round;stroke:rgb(0%,0%,0%);stroke-opacity:1;stroke-miterlimit:10;" d="M 164.125 16.84375 L 163.84375 16.71875 L 163.78125 16.46875 L 164.3125 16.28125 L 165.03125 16.21875 L 166.03125 16.15625 L 167.125 16.15625 L 167.96875 16.1875 L 168.625 16.21875 L 169 16.25 " transform="matrix(1,0,0,-1,0,183.75)"/>
<path style="fill:none;stroke-width:1.41;stroke-linecap:round;stroke-linejoin:round;stroke:rgb(0%,0%,0%);stroke-opacity:1;stroke-miterlimit:10;" d="M 177.5625 24.71875 L 177.8125 24.40625 L 177.65625 23.59375 L 177 22.28125 L 175.59375 20.65625 L 173.9375 19 L 172.53125 17.75 L 172.125 16.78125 L 172.625 16.25 L 173.78125 15.65625 L 175.25 14.875 L 176.3125 14 L 177.21875 13.21875 L 177.75 12.625 L 177.84375 12.375 " transform="matrix(1,0,0,-1,0,183.75)"/>
<path style="fill:none;stroke-width:1.41;stroke-linecap:round;stroke-linejoin:round;stroke:rgb(0%,0%,0%);stroke-opacity:1;stroke-miterlimit:10;" d="M 180.125 21.4375 L 179.96875 20.34375 L 179.9375 19.0625 L 179.84375 17 L 179.75 15.125 L 179.65625 13.875 L 179.5625 13.1875 " transform="matrix(1,0,0,-1,0,183.75)"/>
<path style="fill:none;stroke-width:1.41;stroke-linecap:round;stroke-linejoin:round;stroke:rgb(0%,0%,0%);stroke-opacity:1;stroke-miterlimit:10;" d="M 179.6875 16 L 180.09375 16.34375 L 181.09375 16.5625 L 182.4375 16.78125 L 183.8125 16.9375 L 184.84375 17.03125 L 185.34375 17.25 " transform="matrix(1,0,0,-1,0,183.75)"/>
<path style="fill:none;stroke-width:1.41;stroke-linecap:round;stroke-linejoin:round;stroke:rgb(0%,0%,0%);stroke-opacity:1;stroke-miterlimit:10;" d="M 185.875 21.28125 L 185.8125 20.875 L 185.8125 20.1875 L 185.78125 19.40625 L 185.6875 17.90625 L 185.5625 15.9375 L 185.4375 14.15625 L 185.3125 12.59375 L 185.21875 11.84375 L 185.4375 12.15625 " transform="matrix(1,0,0,-1,0,183.75)"/>
<path style="fill:none;stroke-width:1.41;stroke-linecap:round;stroke-linejoin:round;stroke:rgb(0%,0%,0%);stroke-opacity:1;stroke-miterlimit:10;" d="M 188.4375 23.09375 L 188.28125 23.40625 L 188.625 23.40625 L 189 23.125 L 189.71875 22.4375 L 190.8125 21.4375 L 192.0625 20.40625 L 193.3125 19.4375 L 194.0625 18.625 L 194.0625 17.875 L 193.375 16.84375 L 192.0625 15.46875 L 190.75 14.28125 L 189.75 13.40625 L 189.21875 12.9375 " transform="matrix(1,0,0,-1,0,183.75)"/>
<path style="fill:none;stroke-width:1.41;stroke-linecap:round;stroke-linejoin:round;stroke:rgb(0%,0%,0%);stroke-opacity:1;stroke-miterlimit:10;" d="M 194.59375 25.15625 L 194.78125 25.3125 L 195.53125 25.375 L 196.6875 25.46875 L 198 25.46875 L 199 25.375 L 199.53125 25.09375 L 199.71875 24.6875 L 199.78125 24.125 L 199.78125 23.46875 L 199.75 22.65625 L 199.6875 21.375 L 199.53125 19.375 L 199.40625 17 L 199.28125 14.5625 L 199.125 12.75 L 198.78125 11.8125 L 198.21875 11.5625 L 197.53125 11.65625 L 196.875 11.84375 L 196.375 12.09375 " transform="matrix(1,0,0,-1,0,183.75)"/>
<path style="fill:none;stroke-width:1.41;stroke-linecap:round;stroke-linejoin:round;stroke:rgb(0%,0%,0%);stroke-opacity:1;stroke-miterlimit:10;" d="M 204.0625 19.4375 L 204.15625 19.6875 L 204.125 20.09375 L 204.34375 20.34375 L 204.78125 20.40625 L 205.21875 20.1875 L 205.34375 19.8125 L 205.09375 19.59375 L 204.71875 19.6875 L 204.625 20.125 L 204.84375 20.59375 L 205.28125 20.84375 L 205.6875 20.78125 L 205.875 20.53125 L 205.90625 20.15625 " transform="matrix(1,0,0,-1,0,183.75)"/>
<path style="fill:none;stroke-width:1.41;stroke-linecap:round;stroke-linejoin:round;stroke:rgb(0%,0%,0%);stroke-opacity:1;stroke-miterlimit:10;" d="M 205.46875 14.71875 L 205.78125 14.84375 L 205.5 15.09375 L 205.6875 15.28125 L 205.71875 14.9375 L 205.5625 14.625 L 205.1875 14.40625 L 204.875 14.5 L 204.71875 14.71875 L 204.90625 14.875 " transform="matrix(1,0,0,-1,0,183.75)"/>
<path style="fill:none;stroke-width:1.41;stroke-linecap:round;stroke-linejoin:round;stroke:rgb(0%,0%,0%);stroke-opacity:1;stroke-miterlimit:10;" d="M 210.4375 12.9375 L 210.1875 12.5 L 210 12.1875 L 209.875 11.96875 L 209.9375 12.375 L 210.375 13.75 L 211.125 15.9375 L 212.03125 18.71875 L 213.03125 21.75 L 213.78125 23.40625 L 214.46875 23.5625 L 215.21875 21.8125 L 216 19.0625 L 216.6875 16.125 L 217.21875 13.75 L 217.4375 12.5625 L 217.46875 12.1875 " transform="matrix(1,0,0,-1,0,183.75)"/>
<path style="fill:none;stroke-width:1.41;stroke-linecap:round;stroke-linejoin:round;stroke:rgb(0%,0%,0%);stroke-opacity:1;stroke-miterlimit:10;" d="M 211.6875 15.4375 L 211.375 15.5625 L 211.5625 15.78125 L 212.21875 15.96875 L 213.125 16.125 L 214.5 16.34375 L 215.5 16.46875 L 216.21875 16.625 L 216.78125 16.78125 " transform="matrix(1,0,0,-1,0,183.75)"/>
<path style="fill:none;stroke-width:1.41;stroke-linecap:round;stroke-linejoin:round;stroke:rgb(0%,0%,0%);stroke-opacity:1;stroke-miterlimit:10;" d="M 223.28125 13.34375 L 223.65625 12.9375 L 224.1875 12.5625 L 224.75 12.0625 L 225.125 11.5625 L 225.34375 11.09375 L 225.28125 10.3125 L 225.09375 9.59375 L 224.71875 8.9375 L 224.25 8.375 L 224 8.34375 " transform="matrix(1,0,0,-1,0,183.75)"/>
<path style="fill:none;stroke-width:1.41;stroke-linecap:round;stroke-linejoin:round;stroke:rgb(0%,0%,0%);stroke-opacity:1;stroke-miterlimit:10;" d="M 233.0625 21.65625 L 233.0625 21.125 L 233.09375 20.28125 L 233.125 18.59375 L 233 16.6875 L 232.84375 14.96875 L 232.65625 13.3125 L 232.4375 12.15625 L 232.28125 11.46875 " transform="matrix(1,0,0,-1,0,183.75)"/>
<path style="fill:none;stroke-width:1.41;stroke-linecap:round;stroke-linejoin:round;stroke:rgb(0%,0%,0%);stroke-opacity:1;stroke-miterlimit:10;" d="M 233.25 21.5 L 233.875 22.5625 L 235.25 23.34375 L 236.9375 23.59375 L 238.46875 23.15625 L 239.5 22.40625 L 239.875 21.59375 L 239.78125 20.8125 L 239.4375 19.9375 L 238.9375 19.15625 L 238.3125 18.46875 L 237.3125 18.03125 L 236.4375 17.875 L 236.0625 17.84375 L 237.03125 17.375 L 238.03125 16.875 L 238.875 15.78125 L 239.28125 14.34375 L 239.03125 12.75 L 238.1875 11.15625 L 236.6875 10.375 L 234.96875 10.34375 L 233.625 10.84375 L 232.875 11.6875 L 232.71875 12.5 " transform="matrix(1,0,0,-1,0,183.75)"/>
<path style="fill:none;stroke-width:1.41;stroke-linecap:round;stroke-linejoin:round;stroke:rgb(0%,0%,0%);stroke-opacity:1;stroke-miterlimit:10;" d="M 244.09375 17.25 L 244.375 17.40625 L 245.21875 17.53125 L 246.53125 17.5625 L 247.71875 17.53125 L 248.4375 17.5 " transform="matrix(1,0,0,-1,0,183.75)"/>
<path style="fill:none;stroke-width:1.41;stroke-linecap:round;stroke-linejoin:round;stroke:rgb(0%,0%,0%);stroke-opacity:1;stroke-miterlimit:10;" d="M 244.40625 15.375 L 244.21875 15.125 L 244.53125 15 L 245.1875 14.96875 L 246.375 15.125 L 247.53125 15.28125 L 248.40625 15.34375 L 249.0625 15.40625 L 249.375 15.40625 " transform="matrix(1,0,0,-1,0,183.75)"/>
<path style="fill:none;stroke-width:1.41;stroke-linecap:round;stroke-linejoin:round;stroke:rgb(0%,0%,0%);stroke-opacity:1;stroke-miterlimit:10;" d="M 257.9375 18.6875 L 257.84375 19.28125 L 257.53125 19.8125 L 256.875 20.1875 L 255.8125 20 L 254.78125 19.0625 L 254.125 17.5625 L 254.21875 15.96875 L 255.0625 15.125 L 256.3125 15.25 L 257.53125 16.09375 L 258.3125 17.0625 L 258.65625 17.15625 L 258.4375 15.375 L 257.9375 12.53125 L 257.4375 9.5 L 257.0625 6.5 L 257.25 4.96875 L 257.8125 4.4375 L 258.5625 4.28125 L 259.5 4.90625 L 260.25 5.65625 L 260.65625 6.375 L 260.8125 7.03125 L 260.5625 7.5625 L 260.0625 7.9375 L 259.53125 8.28125 L 259 8.59375 L 258.5 8.90625 L 258.0625 9.1875 L 257.78125 9.375 L 257.71875 9.75 L 258.25 10.3125 L 259.4375 11.21875 L 260.6875 12.25 L 261.8125 13.0625 L 262.5 13.59375 " transform="matrix(1,0,0,-1,0,183.75)"/>
<path style="fill:none;stroke-width:1.41;stroke-linecap:round;stroke-linejoin:round;stroke:rgb(0%,0%,0%);stroke-opacity:1;stroke-miterlimit:10;" d="M 266.9375 25.59375 L 266.15625 25.5625 L 265.34375 25.53125 L 264.4375 25.46875 L 263.84375 25.0625 L 263.625 23.90625 L 263.65625 22.03125 L 263.78125 19.84375 L 263.9375 17 L 264.0625 14.71875 L 264.15625 13.1875 L 264.3125 11.96875 L 264.625 11.71875 L 265.25 11.6875 L 265.9375 11.6875 L 266.5625 11.71875 L 267.03125 11.8125 L 267.15625 12.0625 L 267.15625 12.53125 " transform="matrix(1,0,0,-1,0,183.75)"/>
<path style="fill:none;stroke-width:1.41;stroke-linecap:round;stroke-linejoin:round;stroke:rgb(0%,0%,0%);stroke-opacity:1;stroke-miterlimit:10;" d="M 269.90625 23.375 L 269.8125 22.71875 L 269.71875 21.4375 L 269.65625 19.75 L 269.5625 17.75 L 269.4375 16.1875 L 269.34375 15.15625 L 269.28125 14.40625 " transform="matrix(1,0,0,-1,0,183.75)"/>
<path style="fill:none;stroke-width:1.41;stroke-linecap:round;stroke-linejoin:round;stroke:rgb(0%,0%,0%);stroke-opacity:1;stroke-miterlimit:10;" d="M 269.59375 17.75 L 269.90625 18.03125 L 270.53125 18.21875 L 271.21875 18.375 L 272.90625 18.375 L 273.625 18.40625 L 274.1875 18.40625 L 274.71875 18.4375 " transform="matrix(1,0,0,-1,0,183.75)"/>
<path style="fill:none;stroke-width:1.41;stroke-linecap:round;stroke-linejoin:round;stroke:rgb(0%,0%,0%);stroke-opacity:1;stroke-miterlimit:10;" d="M 275.125 22.65625 L 275.125 23 L 275.09375 22.46875 L 275.09375 15.125 L 275.125 13.5 " transform="matrix(1,0,0,-1,0,183.75)"/>
<path style="fill:none;stroke-width:1.41;stroke-linecap:round;stroke-linejoin:round;stroke:rgb(0%,0%,0%);stroke-opacity:1;stroke-miterlimit:10;" d="M 279.21875 18.4375 L 279.5 18.6875 L 279.96875 18.71875 L 280.625 18.71875 L 281.25 18.6875 L 281.875 18.625 L 282.3125 18.5625 L 282.625 18.53125 " transform="matrix(1,0,0,-1,0,183.75)"/>
<path style="fill:none;stroke-width:1.41;stroke-linecap:round;stroke-linejoin:round;stroke:rgb(0%,0%,0%);stroke-opacity:1;stroke-miterlimit:10;" d="M 278.8125 16.375 L 278.59375 16.3125 L 279.09375 16.40625 L 279.65625 16.5 L 280.4375 16.59375 L 281.3125 16.65625 L 281.875 16.65625 L 282.3125 16.625 L 282.65625 16.53125 " transform="matrix(1,0,0,-1,0,183.75)"/>
<path style="fill:none;stroke-width:1.41;stroke-linecap:round;stroke-linejoin:round;stroke:rgb(0%,0%,0%);stroke-opacity:1;stroke-miterlimit:10;" d="M 292.84375 25.21875 L 292.4375 24.90625 L 291.625 24.125 L 290.03125 22.6875 L 288.21875 21 L 286.59375 19.59375 L 285.71875 18.4375 L 285.78125 17.875 L 287.84375 16.84375 L 289.25 16.03125 L 290.71875 15.28125 L 292.03125 14.75 L 292.625 14.6875 L 292.6875 15.125 " transform="matrix(1,0,0,-1,0,183.75)"/>
<path style="fill:none;stroke-width:1.41;stroke-linecap:round;stroke-linejoin:round;stroke:rgb(0%,0%,0%);stroke-opacity:1;stroke-miterlimit:10;" d="M 295.09375 22.875 L 295.28125 22.03125 L 295.3125 20.96875 L 295.28125 18.9375 L 295.21875 16.9375 L 295.09375 15.25 L 294.96875 14.03125 " transform="matrix(1,0,0,-1,0,183.75)"/>
<path style="fill:none;stroke-width:1.41;stroke-linecap:round;stroke-linejoin:round;stroke:rgb(0%,0%,0%);stroke-opacity:1;stroke-miterlimit:10;" d="M 295.3125 17.40625 L 295.78125 18.125 L 296.53125 18.53125 L 297.375 18.78125 L 298.21875 18.8125 L 298.75 18.90625 " transform="matrix(1,0,0,-1,0,183.75)"/>
<path style="fill:none;stroke-width:1.41;stroke-linecap:round;stroke-linejoin:round;stroke:rgb(0%,0%,0%);stroke-opacity:1;stroke-miterlimit:10;" d="M 300.21875 22.96875 L 300 23.0625 L 299.90625 22.71875 L 299.96875 21.0625 L 300.03125 18.71875 L 300.125 16.375 L 300.15625 14.3125 L 300.40625 13.78125 " transform="matrix(1,0,0,-1,0,183.75)"/>
<path style="fill:none;stroke-width:1.41;stroke-linecap:round;stroke-linejoin:round;stroke:rgb(0%,0%,0%);stroke-opacity:1;stroke-miterlimit:10;" d="M 304 24.15625 L 304.5625 23.28125 L 305.46875 22.34375 L 306.5 21.375 L 307.5 20.59375 L 307.9375 20.1875 L 307.9375 19.6875 L 307.28125 18.6875 L 306.21875 17.375 L 305.1875 16.125 L 304.34375 15.15625 L 303.96875 14.75 " transform="matrix(1,0,0,-1,0,183.75)"/>
<path style="fill:none;stroke-width:1.41;stroke-linecap:round;stroke-linejoin:round;stroke:rgb(0%,0%,0%);stroke-opacity:1;stroke-miterlimit:10;" d="M 308.34375 25.8125 L 308.6875 25.78125 L 309.625 25.71875 L 311 25.625 L 312.34375 25.59375 L 313.3125 25.625 L 313.90625 25.65625 L 314.15625 25.46875 L 314.375 24.53125 L 314.4375 22.8125 L 314.4375 20.375 L 314.375 17.71875 L 314.34375 15.71875 L 314.21875 14.46875 L 313.625 13.71875 L 312.96875 13.4375 L 312.28125 13.21875 L 311.5 13.1875 " transform="matrix(1,0,0,-1,0,183.75)"/>
<path style="fill:none;stroke-width:1.41;stroke-linecap:round;stroke-linejoin:round;stroke:rgb(0%,0%,0%);stroke-opacity:1;stroke-miterlimit:10;" d="M 320.125 22.25 L 319.875 22.46875 L 320 22.8125 L 320.03125 22.46875 L 319.6875 22.34375 L 319.875 22.1875 L 319.625 22.1875 " transform="matrix(1,0,0,-1,0,183.75)"/>
<path style="fill:none;stroke-width:1.41;stroke-linecap:round;stroke-linejoin:round;stroke:rgb(0%,0%,0%);stroke-opacity:1;stroke-miterlimit:10;" d="M 319.875 16.25 L 319.6875 16.125 L 320.21875 16.125 L 320.6875 16 L 320.40625 15.90625 L 320.03125 15.96875 L 319.75 16.15625 L 319.625 16.34375 L 319.34375 16.0625 L 319.09375 16.09375 L 319.21875 16.34375 L 319.5625 16.5625 L 320.0625 16.75 " transform="matrix(1,0,0,-1,0,183.75)"/>
<path style="fill:none;stroke-width:1.41;stroke-linecap:round;stroke-linejoin:round;stroke:rgb(0%,0%,0%);stroke-opacity:1;stroke-miterlimit:10;" d="M 323.625 22.625 L 323.53125 22.875 L 323.59375 23.09375 L 323.9375 23.09375 L 324.15625 22.25 L 324.21875 20.34375 L 324.25 18.03125 L 324.21875 16 L 324.125 14.59375 L 324.09375 14.1875 " transform="matrix(1,0,0,-1,0,183.75)"/>
<path style="fill:none;stroke-width:1.41;stroke-linecap:round;stroke-linejoin:round;stroke:rgb(0%,0%,0%);stroke-opacity:1;stroke-miterlimit:10;" d="M 324.28125 21.5625 L 324.53125 22.53125 L 325.34375 23.34375 L 326.625 23.84375 L 328.0625 23.5625 L 329.0625 22.6875 L 329.03125 21.5625 L 328.1875 20.53125 L 327.03125 19.84375 L 326.34375 19.59375 L 326.5625 19.5 L 327.8125 19.125 L 329.3125 18.375 L 330.40625 17.0625 L 330.59375 15.40625 L 329.6875 14.03125 L 328.25 13.1875 L 326.65625 12.9375 L 325.5625 13.1875 L 324.875 13.5625 L 324.5625 13.9375 " transform="matrix(1,0,0,-1,0,183.75)"/>
<path style="fill:none;stroke-width:1.41;stroke-linecap:round;stroke-linejoin:round;stroke:rgb(0%,0%,0%);stroke-opacity:1;stroke-miterlimit:10;" d="M 336.625 14.5625 L 336.875 14.65625 L 336.625 14.5625 L 336.34375 14.75 L 336.65625 14.625 L 336.375 14.4375 L 336.125 14.59375 L 336.125 14.9375 L 336.5 15.15625 L 336.9375 15.21875 L 337.59375 14.90625 L 338.0625 14.25 L 338.34375 13.34375 L 338.34375 12.28125 L 338.09375 11.5 L 337.65625 10.96875 L 337.25 10.71875 L 336.9375 10.6875 " transform="matrix(1,0,0,-1,0,183.75)"/>
<path style="fill:none;stroke-width:1.41;stroke-linecap:round;stroke-linejoin:round;stroke:rgb(0%,0%,0%);stroke-opacity:1;stroke-miterlimit:10;" d="M 343.34375 24.09375 L 343.5625 23.3125 L 343.59375 21.65625 L 343.65625 19.4375 L 343.5625 17.03125 L 343.40625 15.15625 L 343.3125 14.21875 L 343.3125 13.875 L 343.25 14.09375 L 343.1875 14.40625 " transform="matrix(1,0,0,-1,0,183.75)"/>
<path style="fill:none;stroke-width:1.41;stroke-linecap:round;stroke-linejoin:round;stroke:rgb(0%,0%,0%);stroke-opacity:1;stroke-miterlimit:10;" d="M 343.0625 17.40625 L 343.3125 17.9375 L 344.09375 18.28125 L 345.53125 18.59375 L 347 18.875 L 348.34375 19.09375 L 349.1875 19.28125 L 349.4375 19.34375 L 349.59375 19.6875 " transform="matrix(1,0,0,-1,0,183.75)"/>
<path style="fill:none;stroke-width:1.41;stroke-linecap:round;stroke-linejoin:round;stroke:rgb(0%,0%,0%);stroke-opacity:1;stroke-miterlimit:10;" d="M 349.84375 23.3125 L 349.84375 23.59375 L 350 23.15625 L 350.09375 21.6875 L 350.125 19.875 L 350.0625 17.6875 L 349.90625 15.71875 L 349.78125 14.5625 L 349.65625 13.5625 L 349.65625 13.1875 " transform="matrix(1,0,0,-1,0,183.75)"/>
<path style="fill:none;stroke-width:1.41;stroke-linecap:round;stroke-linejoin:round;stroke:rgb(0%,0%,0%);stroke-opacity:1;stroke-miterlimit:10;" d="M 355.59375 19.125 L 356.4375 19.15625 L 357.3125 19.125 L 358.25 19.125 L 358.96875 19.15625 L 359.3125 19.1875 L 359.59375 19.1875 " transform="matrix(1,0,0,-1,0,183.75)"/>
<path style="fill:none;stroke-width:1.41;stroke-linecap:round;stroke-linejoin:round;stroke:rgb(0%,0%,0%);stroke-opacity:1;stroke-miterlimit:10;" d="M 356.46875 17.96875 L 356.09375 17.84375 L 356.21875 17.5625 L 356.78125 17.34375 L 357.5625 17.1875 L 358.53125 17.0625 L 359.1875 17.15625 L 359.6875 17.25 L 360.03125 17.3125 " transform="matrix(1,0,0,-1,0,183.75)"/>
<path style="fill:none;stroke-width:1.41;stroke-linecap:round;stroke-linejoin:round;stroke:rgb(0%,0%,0%);stroke-opacity:1;stroke-miterlimit:10;" d="M 368.78125 23.65625 L 369 23.8125 L 368.59375 23.09375 L 367.5625 21.84375 L 366.09375 20.1875 L 364.5625 18.375 L 363.71875 17.1875 L 363.59375 16.5 L 364.25 15.8125 L 365.5 14.96875 L 366.71875 14.15625 L 367.84375 13.5 L 368.5625 13.1875 L 368.78125 13.25 L 368.90625 13.53125 " transform="matrix(1,0,0,-1,0,183.75)"/>
<path style="fill:none;stroke-width:1.41;stroke-linecap:round;stroke-linejoin:round;stroke:rgb(0%,0%,0%);stroke-opacity:1;stroke-miterlimit:10;" d="M 372.59375 21.5 L 372.65625 21.15625 L 372.71875 20.46875 L 372.6875 19.09375 L 372.46875 17.1875 L 372.15625 15.34375 L 371.75 13.65625 L 371.4375 12.84375 " transform="matrix(1,0,0,-1,0,183.75)"/>
<path style="fill:none;stroke-width:1.41;stroke-linecap:round;stroke-linejoin:round;stroke:rgb(0%,0%,0%);stroke-opacity:1;stroke-miterlimit:10;" d="M 372.125 15.84375 L 372.5 16.21875 L 372.875 16.5 L 373.3125 16.65625 L 373.8125 16.71875 L 374.5625 16.75 L 375.4375 16.8125 L 376.375 16.9375 L 377.21875 17.125 " transform="matrix(1,0,0,-1,0,183.75)"/>
<path style="fill:none;stroke-width:1.41;stroke-linecap:round;stroke-linejoin:round;stroke:rgb(0%,0%,0%);stroke-opacity:1;stroke-miterlimit:10;" d="M 378.09375 21.53125 L 378.15625 20.34375 L 378.09375 18.1875 L 378.03125 15.4375 L 377.90625 13.21875 L 377.75 11.5 " transform="matrix(1,0,0,-1,0,183.75)"/>
<path style="fill:none;stroke-width:1.41;stroke-linecap:round;stroke-linejoin:round;stroke:rgb(0%,0%,0%);stroke-opacity:1;stroke-miterlimit:10;" d="M 382.75 22.78125 L 382.5 22.8125 L 382.84375 22.21875 L 383.25 21.78125 L 383.6875 21.375 L 384.5625 20.8125 L 385.3125 20.40625 L 385.9375 19.875 L 386.1875 19.125 L 385.6875 17.96875 L 384.59375 16.21875 L 383.375 14.5 L 382.4375 13.0625 L 381.90625 12.3125 " transform="matrix(1,0,0,-1,0,183.75)"/>
<path style="fill:none;stroke-width:1.41;stroke-linecap:round;stroke-linejoin:round;stroke:rgb(0%,0%,0%);stroke-opacity:1;stroke-miterlimit:10;" d="M 388.625 25.8125 L 389.4375 25.8125 L 390.84375 25.71875 L 392.40625 25.59375 L 393.75 25.5625 L 394.59375 25.5 L 394.75 25.25 L 394.75 24.875 L 394.625 24.125 L 394.46875 22.90625 L 394.28125 21.5625 L 394.03125 19.75 L 393.875 17.59375 L 393.875 15.4375 L 394.0625 13.3125 L 394.3125 11.78125 L 394.21875 10.90625 L 393.65625 10.5 L 392.625 10.3125 L 391.5625 10.15625 L 390.625 10.125 L 389.9375 9.90625 " transform="matrix(1,0,0,-1,0,183.75)"/>
</g>
</svg>
